# Blender 5.2.2 LTS
# www.blender.org
mtllib DomeCameraLow.mtl
o defaultMaterial
v 0.005597 -0.044894 0.041719
v 0.014585 -0.051604 0.043522
v 0.013038 -0.047291 0.041528
v -0.003021 -0.038540 -0.029280
v 0.000079 -0.032865 -0.021508
v 0.010875 -0.036071 -0.024242
v 0.009278 -0.041784 -0.031346
v 0.011403 -0.034733 0.027219
v 0.002530 -0.045621 -0.035717
v 0.013566 -0.052939 -0.037926
v 0.012544 -0.030790 0.018671
v 0.003084 -0.054966 -0.041185
v 0.000079 -0.026622 0.009936
v 0.013682 -0.028932 0.010312
v 0.008957 -0.027288 -0.001808
v 0.017124 -0.030230 -0.004489
v -0.002490 -0.077632 0.050480
v 0.003778 -0.076100 -0.045114
v 0.000079 -0.026733 -0.003901
v 0.006990 -0.060428 0.047985
v 0.000079 -0.028932 -0.013007
v 0.012110 -0.031771 -0.016075
v 0.006945 -0.049686 0.043579
v 0.026366 -0.039713 -0.015814
v 0.023629 -0.043148 -0.024094
v 0.020133 -0.052699 0.041301
v 0.020107 -0.047732 -0.031206
v 0.024579 -0.042466 0.027493
v 0.023442 -0.036816 0.019352
v 0.012481 -0.062570 -0.041919
v 0.024699 -0.034813 0.010127
v 0.031497 -0.040594 0.009306
v 0.024990 -0.034348 -0.001326
v 0.031573 -0.040514 -0.004489
v 0.007072 -0.073138 0.050166
v 0.032727 -0.045333 0.019126
v 0.036925 -0.047836 0.010127
v 0.040562 -0.060828 0.019126
v 0.041129 -0.055948 0.009305
v 0.012243 -0.073423 -0.043591
v 0.037361 -0.047525 -0.001325
v 0.041228 -0.055905 -0.004489
v 0.014172 -0.069976 0.047984
v 0.035086 -0.049145 -0.013788
v 0.039930 -0.061336 -0.015814
v 0.032942 -0.055100 -0.024093
v 0.023109 -0.063857 0.043531
v 0.025002 -0.060161 0.041709
v 0.034065 -0.054857 0.027493
v 0.025569 -0.058150 -0.033627
v 0.023600 -0.068969 -0.037899
v 0.039158 -0.070659 -0.021217
v 0.027451 -0.068260 0.041730
v 0.024962 -0.081004 0.043523
v 0.028084 -0.076264 0.041723
v 0.031633 -0.070470 -0.031296
v 0.038377 -0.070172 0.027493
v 0.042234 -0.078336 0.019126
v 0.043542 -0.064851 0.010126
v 0.044511 -0.074059 0.009305
v 0.044056 -0.064742 -0.001325
v 0.044618 -0.074059 -0.004489
v 0.023562 -0.074612 0.043581
v 0.043542 -0.083268 0.010126
v 0.044056 -0.083377 -0.001325
v 0.041129 -0.092170 0.009306
v 0.041228 -0.092214 -0.004489
v 0.015520 -0.079158 0.047161
v 0.039927 -0.082502 -0.018085
v 0.036704 -0.095077 -0.015814
v 0.032943 -0.093018 -0.024093
v 0.024753 -0.087987 0.041871
v 0.032415 -0.080910 -0.029692
v 0.025619 -0.089909 -0.033603
v 0.037463 -0.081980 0.027755
v 0.034065 -0.093261 0.027492
v 0.023585 -0.080883 -0.037579
v 0.039177 -0.091309 0.018576
v 0.018092 -0.096835 0.041884
v 0.023701 -0.104755 -0.024243
v 0.020247 -0.100154 -0.031273
v 0.024670 -0.105776 0.027219
v 0.015314 -0.094458 -0.037467
v 0.032727 -0.102785 0.019126
v 0.013732 -0.084831 -0.041584
v 0.036925 -0.100283 0.010127
v 0.037361 -0.100593 -0.001326
v 0.031573 -0.107605 -0.004489
v 0.006326 -0.086210 0.048731
v 0.026387 -0.108225 -0.016075
v 0.017195 -0.093122 0.043512
v 0.028880 -0.110355 0.009164
v 0.025085 -0.113651 -0.001808
v 0.017122 -0.117885 0.009936
v 0.017083 -0.117783 -0.003901
v 0.016293 -0.115752 -0.013007
v 0.014879 -0.112118 -0.021508
v 0.006649 -0.101198 0.043299
v 0.009976 -0.108138 -0.029280
v 0.007942 -0.101183 -0.035862
v 0.019574 -0.112924 0.021787
v 0.004795 -0.090466 -0.042159
v 0.003754 -0.113556 -0.024243
v -0.000832 -0.102828 -0.035812
v 0.009658 -0.111325 0.031156
v 0.000079 -0.104268 0.041301
v -0.003587 -0.115007 0.027219
v 0.004109 -0.119116 0.018671
v 0.008725 -0.120354 0.010127
v 0.000079 -0.121386 0.009306
v 0.008681 -0.120889 -0.001808
v 0.000079 -0.121500 -0.004489
v 0.004158 -0.118033 -0.016075
v 0.002372 -0.099370 0.043581
v -0.006767 -0.078918 -0.044573
v -0.008522 -0.120889 -0.001808
v -0.016924 -0.117783 -0.003901
v -0.006293 -0.086296 0.048597
v -0.012390 -0.117378 -0.013107
v -0.015372 -0.093496 0.043586
v -0.011324 -0.113521 -0.021686
v -0.010450 -0.099480 0.043445
v -0.009818 -0.108138 -0.029280
v -0.009794 -0.108228 0.034817
v -0.012402 -0.099334 -0.035717
v -0.008547 -0.119403 0.015527
v -0.007740 -0.090023 -0.041795
v -0.016963 -0.117885 0.009936
v -0.020015 -0.100128 -0.031345
v -0.019392 -0.090580 -0.037194
v -0.024511 -0.105776 0.027219
v -0.019415 -0.112924 0.021787
v -0.032568 -0.102786 0.019126
v -0.028721 -0.110355 0.009164
v -0.024926 -0.113651 -0.001807
v -0.031414 -0.107605 -0.004489
v -0.026229 -0.108225 -0.016075
v -0.023542 -0.104755 -0.024243
v -0.018098 -0.096938 0.041618
v -0.013852 -0.078520 0.048048
v -0.033701 -0.098102 -0.018086
v -0.041069 -0.092214 -0.004489
v -0.039622 -0.086874 -0.016075
v -0.021805 -0.083117 0.043585
v -0.035585 -0.085558 -0.024242
v -0.023947 -0.087052 0.042976
v -0.027883 -0.090218 -0.031206
v -0.031613 -0.096615 0.027754
v -0.025209 -0.081614 -0.036072
v -0.040543 -0.087336 0.018671
v -0.017630 -0.078700 -0.041240
v -0.036766 -0.100283 0.010127
v -0.042288 -0.088548 0.010312
v -0.037202 -0.100593 -0.001326
v -0.036841 -0.086121 0.027219
v -0.034383 -0.074059 0.033329
v -0.044456 -0.074059 0.009936
v -0.043831 -0.083516 -0.001807
v -0.044352 -0.074059 -0.003901
v -0.042288 -0.074059 -0.013007
v -0.038595 -0.074059 -0.021508
v -0.026066 -0.072208 0.043311
v -0.027302 -0.079936 0.041719
v -0.033267 -0.077361 -0.029280
v -0.041069 -0.055905 -0.004489
v -0.039622 -0.061245 -0.016075
v -0.022954 -0.070200 0.043577
v -0.012945 -0.066727 0.047906
v -0.035585 -0.062560 -0.024242
v -0.023330 -0.061507 0.043260
v -0.030271 -0.064199 -0.031274
v -0.029894 -0.064295 0.037613
v -0.036841 -0.061998 0.027219
v -0.024821 -0.069200 -0.037029
v -0.041091 -0.069748 0.021787
v -0.014056 -0.066000 -0.042079
v -0.042423 -0.059607 0.009164
v -0.043831 -0.064603 -0.001808
v -0.003503 -0.068160 0.050212
v -0.001460 -0.066483 -0.044732
v -0.023792 -0.054789 -0.033313
v -0.015171 -0.053465 -0.037364
v -0.037330 -0.052925 0.019126
v -0.036766 -0.047835 0.010127
v -0.029845 -0.042185 0.018576
v -0.031338 -0.040594 0.009306
v -0.037202 -0.047525 -0.001325
v -0.031414 -0.040514 -0.004489
v -0.033701 -0.050017 -0.018086
v -0.026207 -0.039713 -0.015814
v -0.018382 -0.057964 0.043582
v -0.023471 -0.043148 -0.024093
v -0.015128 -0.050895 0.043119
v -0.024177 -0.052794 0.037522
v -0.029581 -0.047963 0.027493
v -0.005162 -0.059148 0.048001
v -0.011951 -0.031771 -0.016075
v -0.010716 -0.036071 -0.024242
v -0.010774 -0.046150 0.041301
v -0.015091 -0.044275 -0.031206
v -0.021096 -0.040303 0.027755
v -0.011245 -0.034733 0.027219
v -0.006760 -0.049094 -0.037515
v -0.019762 -0.034212 0.019126
v -0.024540 -0.034813 0.010127
v -0.013488 -0.028787 0.009164
v -0.024831 -0.034348 -0.001326
v -0.016965 -0.030230 -0.004489
v -0.003968 -0.030207 0.021787
v -0.004223 -0.058864 -0.042502
v -0.008799 -0.027288 -0.001808
v -0.000740 -0.046206 0.043278
v -0.003075 -0.038466 0.034817
v -0.057731 -0.000436 -0.043809
v 0.000620 -0.000571 -0.075000
v -0.025365 -0.023821 -0.063507
v -0.028538 -0.000569 0.069875
v -0.003547 -0.023024 0.074018
v 0.018745 -0.000569 0.075000
v -0.075000 -0.000052 -0.001803
v -0.057289 -0.016907 0.048723
v -0.057067 -0.000569 0.046025
v -0.047359 -0.022659 0.045421
v -0.033837 -0.025745 0.056478
v -0.060766 -0.023290 -0.004861
v -0.061258 -0.025405 0.018854
v -0.047115 -0.023283 -0.040195
v -0.018643 -0.025085 0.063086
v -0.017190 -0.025272 -0.057788
v 0.000079 -0.025085 0.065216
v 0.051076 -0.000570 -0.050223
v 0.075000 0.000000 -0.000021
v 0.056846 -0.017070 0.049801
v 0.057226 -0.000569 0.046025
v 0.047518 -0.022659 0.045421
v 0.065503 -0.026896 0.010859
v 0.056289 -0.022554 -0.024216
v 0.019139 -0.024595 -0.057635
v 0.025396 -0.026694 0.062485
v -0.041100 -0.041247 0.043342
v -0.033200 -0.050455 -0.041572
v -0.025191 -0.079708 -0.044566
v -0.033729 -0.075280 -0.038979
v -0.015371 -0.039958 0.060243
v -0.044005 -0.049084 -0.029184
v -0.044980 -0.075279 -0.025593
v 0.005266 -0.028019 0.064716
v -0.002181 -0.038520 0.063551
v -0.050921 -0.049913 -0.014704
v -0.052062 -0.075784 -0.003354
v -0.053494 -0.051526 0.000476
v -0.051431 -0.051433 0.017765
v -0.049439 -0.079787 0.014264
v -0.047511 -0.050156 0.029924
v -0.000198 -0.053948 -0.055467
v 0.005656 -0.073499 -0.052613
v -0.009154 -0.075487 -0.051352
v -0.045753 -0.093210 0.006637
v -0.048936 -0.087774 0.000127
v -0.042516 -0.088710 -0.000295
v -0.043133 -0.070940 0.028558
v -0.044696 -0.088509 0.016308
v 0.000030 -0.093630 -0.045841
v -0.012852 -0.094051 -0.037069
v -0.038776 -0.061838 0.037138
v -0.026097 -0.093647 -0.036527
v -0.026984 -0.093163 -0.030646
v -0.032478 -0.050703 0.048845
v -0.026068 -0.051148 0.046851
v -0.011260 -0.044030 0.053858
v -0.040098 -0.093302 -0.019686
v 0.003156 -0.042175 0.058516
v -0.044791 -0.093330 -0.008161
v -0.010621 -0.039750 0.030152
v -0.005974 -0.038309 0.030418
v -0.033512 -0.085400 -0.012731
v -0.027971 -0.088378 -0.019351
v -0.027179 -0.081765 -0.008130
v -0.029615 -0.078861 -0.005483
v -0.031543 -0.075735 -0.002634
v -0.033449 -0.061144 0.010709
v -0.018497 -0.043413 0.026918
v -0.020560 -0.087160 -0.012841
v -0.024276 -0.084397 -0.010528
v -0.037488 -0.082041 -0.005000
v -0.033665 -0.068861 0.004126
v -0.024158 -0.047278 0.023331
v -0.027757 -0.050491 0.020381
v -0.012490 -0.090132 -0.015954
v -0.017176 -0.088655 -0.014435
v -0.000061 -0.036932 0.028743
v -0.032930 -0.072440 0.000369
v 0.000079 -0.091357 -0.017664
v -0.006567 -0.091046 -0.017158
v -0.036370 -0.025078 -0.049633
v -0.021539 -0.025110 -0.057575
v -0.017953 -0.043070 -0.056456
v -0.032864 -0.041750 -0.047949
v -0.041879 -0.025073 0.050695
v -0.052497 -0.025070 0.038384
v -0.046112 -0.035741 0.042585
v 0.000107 -0.044493 -0.060618
v 0.005142 -0.025082 -0.060396
v -0.059890 -0.025065 0.022965
v -0.058228 -0.043170 0.012500
v -0.053723 -0.042365 0.027499
v -0.062884 -0.025037 0.006576
v -0.059008 -0.042562 -0.004338
v -0.062123 -0.025096 -0.009504
v -0.056036 -0.040191 -0.019266
v -0.056899 -0.025073 -0.025190
v -0.050689 -0.025146 -0.036544
v -0.005816 -0.025051 0.066628
v -0.016548 -0.028520 0.062353
v -0.043933 -0.040769 -0.038545
v -0.032120 -0.025137 0.057835
v -0.017561 -0.052165 -0.051249
v -0.047441 -0.085073 -0.013852
v -0.038717 -0.087250 -0.029363
v -0.041257 -0.059145 0.039946
v -0.015790 -0.088117 -0.045458
v -0.046543 -0.071452 0.027787
v 0.024032 -0.031418 0.057977
v 0.033698 -0.048789 0.048967
v 0.041349 -0.041338 0.043174
v 0.033009 -0.050574 -0.041865
v 0.028738 -0.078329 -0.043101
v 0.011391 -0.038900 0.062076
v 0.044144 -0.049077 -0.029221
v 0.045131 -0.075253 -0.025608
v 0.051060 -0.049898 -0.014769
v 0.053656 -0.051527 0.000469
v 0.051444 -0.081056 -0.006012
v 0.051569 -0.051476 0.017815
v 0.049717 -0.079976 0.013608
v 0.047670 -0.050156 0.029924
v 0.014387 -0.052969 -0.052333
v 0.045787 -0.093170 0.007304
v 0.043291 -0.070940 0.028558
v 0.044855 -0.088512 0.016305
v 0.038893 -0.061763 0.037203
v 0.024460 -0.093624 -0.037988
v 0.022918 -0.046974 0.052903
v 0.020595 -0.047550 0.049940
v 0.040476 -0.093407 -0.020170
v 0.037376 -0.091265 -0.017778
v 0.045324 -0.093305 -0.005791
v 0.006297 -0.037966 0.030437
v 0.010809 -0.039718 0.030155
v 0.031357 -0.086857 -0.016063
v 0.031702 -0.075735 -0.002634
v 0.029773 -0.078861 -0.005483
v 0.027338 -0.081765 -0.008130
v 0.033614 -0.061142 0.010710
v 0.042502 -0.089107 -0.003259
v 0.018653 -0.043411 0.026920
v 0.025658 -0.092789 -0.029697
v 0.022768 -0.085277 -0.011765
v 0.033748 -0.069054 0.004086
v 0.024316 -0.047278 0.023331
v 0.027916 -0.050491 0.020381
v 0.016043 -0.093942 -0.035955
v 0.017335 -0.088655 -0.014435
v 0.012649 -0.090132 -0.015954
v 0.033088 -0.072440 0.000369
v 0.006726 -0.091046 -0.017158
v 0.036528 -0.025078 -0.049633
v 0.032948 -0.041617 -0.048074
v 0.018062 -0.043493 -0.056479
v 0.023333 -0.025082 -0.056549
v 0.042037 -0.025073 0.050696
v 0.046273 -0.035740 0.042583
v 0.052645 -0.025070 0.038397
v 0.053893 -0.042357 0.027488
v 0.060049 -0.025064 0.022946
v 0.059712 -0.041335 0.008085
v 0.063074 -0.025035 0.006211
v 0.058445 -0.042295 -0.008303
v 0.062282 -0.025095 -0.009499
v 0.054746 -0.039962 -0.022446
v 0.057066 -0.025074 -0.025178
v 0.011864 -0.025101 0.065636
v 0.050725 -0.025148 -0.036703
v 0.044094 -0.040769 -0.038543
v 0.032621 -0.025187 0.057743
v 0.038979 -0.087307 -0.029165
v 0.041520 -0.059554 0.039683
v 0.012363 -0.086796 -0.047419
v 0.046703 -0.071462 0.027778
vn -0.6608 -0.7376 0.1386
vn -0.8446 -0.5298 -0.0771
vn -0.7277 -0.6692 -0.1502
vn -0.0164 -0.6697 0.7424
vn 0.2386 -0.7889 0.5664
vn 0.1454 -0.4527 0.8797
vn -0.1961 0.9759 -0.0957
vn -0.0942 0.9320 -0.3499
vn -0.2926 0.8775 -0.3800
vn -0.9805 0.1740 -0.0911
vn -0.9173 0.3699 -0.1472
vn -0.8996 0.2499 -0.3581
vn -0.0618 0.9956 0.0709
vn -0.3170 0.9379 0.1410
vn -0.1835 -0.4088 0.8940
vn 0.8410 -0.5356 -0.0761
vn 0.7278 -0.6685 -0.1532
vn 0.8236 -0.4381 -0.3602
vn 0.7443 0.3867 -0.5444
vn 0.5474 0.6328 -0.5477
vn 0.5991 0.7069 -0.3759
vn -0.0106 0.8075 0.5898
vn 0.2574 0.8160 0.5176
vn -0.0780 0.8924 0.4445
vn -0.0939 -0.8570 0.5067
vn -0.2014 -0.9417 0.2696
vn 0.1113 -0.9307 0.3485
vn 0.9402 -0.0825 0.3306
vn 0.9741 0.1695 0.1494
vn 0.9061 0.2623 0.3320
vn 0.2145 0.2786 0.9362
vn 0.1410 0.6348 0.7597
vn -0.0194 0.4309 0.9022
vn 0.5143 0.4612 0.7231
vn 0.7725 0.3853 0.5049
vn 0.5620 0.6458 0.5169
vn -0.0142 -0.9930 0.1170
vn 0.2095 -0.9734 -0.0929
vn 0.2079 -0.9664 0.1509
vn -0.4090 0.8989 -0.1569
vn -0.4038 -0.9045 0.1372
vn -0.2040 -0.9760 -0.0765
vn 0.5375 0.7712 0.3410
vn 0.2822 0.8970 0.3401
vn -0.5644 -0.8193 -0.1014
vn -0.5941 -0.7146 -0.3693
vn -0.8469 0.4146 0.3330
vn -0.9492 0.2845 0.1347
vn -0.9240 0.0744 0.3751
vn 0.7703 -0.3861 0.5075
vn 0.8483 -0.1780 0.4987
vn 0.9803 0.1813 -0.0785
vn 0.9874 0.0001 -0.1579
vn 0.8986 0.2503 -0.3602
vn -0.0427 0.7098 -0.7031
vn 0.0217 0.5822 -0.8128
vn -0.1602 0.5272 -0.8345
vn 0.2407 -0.7047 -0.6674
vn -0.0293 -0.6013 -0.7985
vn 0.1981 -0.5611 -0.8037
vn 0.5414 -0.1327 -0.8302
vn 0.3115 0.0216 -0.9500
vn 0.5365 0.1038 -0.8375
vn -0.9064 -0.2640 0.3297
vn -0.8430 -0.5185 0.1434
vn -0.7481 -0.5738 0.3334
vn -0.0056 -0.9876 -0.1569
vn 0.0854 -0.9204 -0.3815
vn -0.2660 -0.8216 -0.5042
vn 0.0633 -0.8207 -0.5679
vn -0.0762 0.1130 0.9907
vn -0.0577 -0.0721 0.9957
vn 0.1684 0.0188 0.9855
vn 0.0070 0.1356 -0.9907
vn 0.0749 -0.0332 -0.9966
vn 0.6608 -0.7376 0.1386
vn 0.5685 -0.8173 -0.0944
vn 0.5960 0.2994 0.7450
vn 0.8630 0.0896 0.4973
vn 0.3534 -0.7903 -0.5004
vn 0.5900 0.3272 -0.7382
vn 0.3196 0.4386 -0.8400
vn 0.4733 0.5454 -0.6917
vn -0.7228 0.6799 0.1237
vn -0.5724 0.8163 -0.0774
vn -0.7250 0.6722 -0.1499
vn 0.9210 0.3683 0.1268
vn 0.9219 0.3605 -0.1419
vn 0.9921 0.0088 0.1255
vn 0.2926 0.8775 -0.3800
vn 0.0049 0.9056 -0.4241
vn 0.1985 0.9757 -0.0931
vn 0.4088 0.8995 -0.1541
vn 0.2942 0.2358 -0.9262
vn -0.8996 -0.2499 -0.3581
vn -0.8762 0.0050 -0.4818
vn -0.8043 -0.2372 -0.5449
vn -0.8370 -0.2405 0.4915
vn 0.3251 0.9345 0.1448
vn 0.5715 0.8170 -0.0767
vn -0.4487 -0.7998 0.3987
vn 0.6727 -0.0406 0.7388
vn 0.6450 0.1200 0.7547
vn -0.4765 -0.5392 -0.6944
vn -0.2832 -0.5233 -0.8037
vn -0.2278 -0.7141 -0.6619
vn 0.7282 0.0787 -0.6809
vn -0.2953 -0.8961 -0.3314
vn -0.2769 0.8163 0.5070
vn -0.4601 0.8193 0.3421
vn -0.7481 0.2255 0.6241
vn -0.6821 0.5298 0.5040
vn -0.8324 0.2547 0.4922
vn -0.4813 -0.2433 0.8421
vn -0.2791 -0.3033 0.9111
vn -0.1489 -0.0970 0.9841
vn 0.2239 0.6720 -0.7059
vn 0.2631 0.7845 -0.5615
vn 0.3162 0.6023 0.7330
vn 0.5696 -0.6407 0.5148
vn 0.7384 -0.5845 0.3363
vn -0.4178 -0.8969 -0.1448
vn -0.8229 -0.0057 0.5681
vn 0.9795 -0.1833 -0.0834
vn 0.9243 -0.3525 -0.1466
vn 0.8998 -0.1654 -0.4037
vn 0.5848 -0.3059 0.7513
vn -0.7690 -0.4850 -0.4164
vn -0.6517 -0.3419 -0.6771
vn -0.9519 -0.0000 -0.3063
vn 0.0785 0.4138 -0.9070
vn 0.7161 0.6859 0.1295
vn 0.5643 0.8113 0.1529
vn 0.7395 -0.3907 -0.5482
vn 0.5547 -0.6199 -0.5550
vn 0.5905 -0.3292 -0.7369
vn -0.4546 -0.4899 0.7438
vn -0.2656 -0.7472 0.6092
vn 0.3992 -0.9066 -0.1366
vn 0.4038 -0.9019 0.1530
vn 0.4750 -0.5415 -0.6936
vn 0.7482 -0.1397 -0.6486
vn 0.3815 -0.8670 -0.3205
vn 0.6161 -0.6936 -0.3734
vn -0.7373 -0.4463 0.5071
vn -0.5642 -0.6489 0.5104
vn 0.3208 0.0939 0.9425
vn 0.1378 -0.0547 0.9890
vn 0.3876 0.1414 0.9109
vn 0.1337 -0.2415 0.9611
vn 0.0992 0.9884 -0.1152
vn -0.7039 0.2014 -0.6812
vn -0.5708 0.1012 -0.8148
vn -0.7560 -0.0558 -0.6521
vn -0.7681 0.4827 -0.4207
vn -0.8011 0.2368 -0.5497
vn -0.6776 0.6534 0.3375
vn -0.8411 0.5223 0.1408
vn 0.8835 -0.3322 0.3301
vn 0.9719 -0.1884 0.1413
vn 0.4315 -0.4925 0.7559
vn 0.3125 -0.3448 0.8851
vn 0.8444 0.5308 -0.0726
vn 0.8436 0.5152 0.1514
vn 0.7924 0.5061 -0.3404
vn 0.7211 0.6775 -0.1450
vn 0.3795 -0.0968 0.9201
vn 0.8786 0.0664 -0.4729
vn 0.7474 0.5729 0.3363
vn -0.9179 -0.3696 -0.1445
vn -0.1552 -0.2626 0.9523
vn 0.0905 -0.3282 -0.9403
vn -0.1279 -0.0932 -0.9874
vn 0.4473 -0.8048 0.3900
vn -0.9803 -0.1762 -0.0887
vn -0.5429 -0.6283 -0.5573
vn -0.5683 0.8102 0.1435
vn 0.8354 -0.5314 0.1404
vn 0.9249 -0.3603 0.1212
vn -0.9462 -0.2929 0.1378
vn -0.4086 -0.0962 -0.9076
vn -0.1812 -0.3373 -0.9238
vn -0.4465 -0.3383 -0.8283
vn -0.6128 0.4728 0.6332
vn -0.5102 0.6910 0.5121
vn -0.3203 -0.0851 0.9435
vn -0.5975 -0.1496 -0.7878
vn -0.9916 -0.0000 -0.1291
vn -0.5635 0.3935 -0.7264
vn -0.6833 -0.1232 0.7197
vn 0.3278 -0.2202 -0.9187
vn -0.9895 -0.0022 0.1447
vn -0.5944 0.7154 -0.3674
vn -0.5438 0.6307 -0.5537
vn -0.8458 0.5273 -0.0811
vn 0.3577 -0.4167 -0.8357
vn -0.3540 0.4098 -0.8407
vn -0.3355 0.1737 -0.9259
vn -0.4747 0.0336 0.8795
vn -0.3839 0.4131 0.8258
vn -0.4320 0.2084 0.8775
vn -0.2690 0.7864 -0.5560
vn -0.3510 0.6206 -0.7012
vn -0.3167 0.1398 0.9382
vn -0.1904 0.1216 0.9741
vn -0.3311 0.1181 0.9362
vn -0.2678 0.6317 0.7275
vn 0.3733 -0.1189 0.9201
vn 0.1047 0.3785 0.9196
vn -0.1036 0.3194 0.9420
vn -0.1301 0.3378 -0.9322
vn 0.1729 0.2896 0.9414
vn -0.0492 -0.3481 0.9362
vn 0.8055 -0.3990 -0.4382
vn 0.9494 -0.2994 -0.0943
vn 0.9227 -0.3783 0.0736
vn 0.3801 -0.1696 0.9093
vn 0.7083 -0.3856 0.5913
vn -0.0542 -0.5891 0.8062
vn -0.1640 -0.9637 -0.2108
vn -0.7340 -0.3880 -0.5574
vn -0.4606 -0.7136 -0.5279
vn 0.0592 -0.3441 -0.9371
vn 0.3675 -0.4612 -0.8076
vn -0.7304 -0.3916 0.5596
vn -0.8235 0.1033 0.5578
vn -0.9075 -0.4104 -0.0892
vn 0.2918 -0.2318 0.9280
vn -0.3997 -0.1758 0.8996
vn -0.6718 -0.4140 -0.6143
vn 0.6335 -0.4468 -0.6317
vn -0.8751 -0.4582 0.1556
vn -0.4261 -0.5183 0.7415
vn -0.4100 -0.8682 0.2795
vn 0.3834 -0.8740 0.2986
vn 0.8136 0.1118 0.5706
vn -0.8463 -0.4913 -0.2061
vn -0.0814 -0.9529 0.2920
vn -0.0336 -0.9761 0.2147
vn 0.6209 -0.2955 -0.7261
vn 0.8526 -0.1611 -0.4972
vn 0.5544 -0.2143 -0.8042
vn 0.8918 -0.3250 -0.3148
vn 0.7910 -0.3216 -0.5205
vn -0.3047 -0.2349 0.9230
vn -0.3325 -0.4724 0.8163
vn -0.3058 -0.3126 0.8993
vn -0.0446 -0.4868 0.8724
vn -0.6312 -0.2963 -0.7168
vn -0.8609 -0.1459 -0.4873
vn -0.7943 -0.3169 -0.5184
vn -0.3133 -0.9449 0.0946
vn -0.8981 -0.3204 -0.3014
vn -0.7150 -0.4200 -0.5589
vn -0.9317 -0.2665 0.2467
vn -0.9187 -0.3217 0.2293
vn -0.9464 -0.3226 -0.0137
vn -0.9851 -0.1486 -0.0866
vn -0.8919 -0.3274 -0.3120
vn -0.9118 -0.3958 -0.1097
vn -0.8561 -0.3767 -0.3538
vn -0.6827 -0.2781 0.6757
vn -0.8579 -0.2483 0.4499
vn -0.1990 -0.2161 -0.9559
vn -0.3908 -0.2911 -0.8733
vn -0.0234 -0.2912 -0.9564
vn -0.5400 -0.2964 0.7878
vn -0.6469 -0.2888 0.7058
vn -0.4911 -0.2447 -0.8360
vn -0.0669 -0.9593 0.2744
vn 0.8435 -0.4808 0.2394
vn 0.0432 -0.9302 0.3645
vn -0.0110 -0.7871 -0.6168
vn 0.0289 -0.9989 0.0357
vn 0.0486 -0.9977 0.0478
vn -0.3500 -0.8326 -0.4293
vn 0.1075 -0.9934 0.0403
vn 0.3853 -0.8752 0.2925
vn 0.3783 -0.7717 0.5113
vn -0.5759 -0.1894 -0.7953
vn -0.7049 -0.3766 -0.6011
vn -0.7723 -0.2410 -0.5878
vn 0.2546 -0.9594 0.1217
vn -0.3373 -0.8840 0.3236
vn 0.3494 -0.9301 -0.1134
vn -0.8415 -0.5314 0.0978
vn -0.9247 -0.3804 -0.0113
vn -0.2373 -0.9714 -0.0057
vn 0.4267 -0.8965 -0.1190
vn 0.2291 -0.9569 -0.1785
vn 0.3473 -0.7583 0.5517
vn -0.1209 -0.8977 0.4237
vn 0.2093 -0.7481 0.6297
vn -0.1243 -0.8405 0.5273
vn 0.1983 -0.7278 0.6565
vn 0.9133 -0.4040 0.0525
vn 0.5488 -0.8268 -0.1236
vn -0.2303 -0.9030 0.3626
vn -0.1046 -0.8413 0.5304
vn 0.8505 -0.4104 0.3289
vn 0.7137 -0.5423 0.4435
vn 0.6590 -0.7461 -0.0952
vn 0.3299 -0.6422 0.6919
vn 0.7753 -0.6276 -0.0700
vn -0.1974 -0.9593 0.2021
vn -0.1297 -0.9700 0.2055
vn 0.0438 -0.9828 -0.1792
vn -0.0334 -0.9459 0.3226
vn 0.6960 -0.5439 0.4688
vn -0.0373 -0.9852 0.1674
vn -0.0180 -0.9914 0.1294
vn -0.5517 -0.3348 -0.7639
vn -0.3613 -0.0972 -0.9274
vn -0.3503 -0.3039 -0.8859
vn -0.6822 -0.3595 0.6367
vn -0.6118 -0.3062 0.7293
vn -0.8154 -0.2221 0.5347
vn -0.8316 -0.3755 0.4092
vn 0.0031 -0.2661 -0.9639
vn 0.0868 -0.0096 -0.9962
vn -0.9278 -0.2095 0.3087
vn -0.9060 -0.3959 0.1498
vn -0.9775 -0.1984 0.0719
vn -0.9640 -0.1977 -0.1775
vn -0.0782 -0.6416 0.7631
vn -0.3995 -0.4620 0.7918
vn 0.7022 -0.3772 -0.6039
vn 0.5729 -0.1879 -0.7978
vn 0.7699 -0.2343 -0.5936
vn -0.6727 -0.1545 -0.7236
vn 0.3516 -0.2922 -0.8894
vn 0.3638 -0.2910 -0.8848
vn 0.9450 -0.3264 -0.0199
vn 0.9280 -0.3605 0.0936
vn 0.9266 -0.3016 0.2248
vn 0.9008 -0.3960 -0.1781
vn 0.0779 -0.3206 0.9440
vn 0.5475 -0.3329 -0.7677
vn -0.3959 -0.7706 0.4994
vn 0.6116 -0.3127 0.7267
vn 0.4460 -0.5838 0.6784
vn -0.0455 -0.9274 0.3712
vn 0.9354 -0.2687 0.2297
vn 0.3908 -0.3293 0.8595
vn 0.3385 -0.3547 0.8715
vn 0.3915 -0.1942 0.8994
vn 0.7269 -0.4044 -0.5550
vn 0.9588 -0.2492 -0.1364
vn 0.8588 -0.2489 0.4479
vn 0.1392 -0.2006 -0.9697
vn 0.6652 -0.2835 0.6907
vn -0.8937 -0.4365 0.1037
vn 0.3383 -0.8248 -0.4531
vn -0.0117 -0.7761 0.6306
vn -0.3900 -0.9110 0.1338
vn -0.1288 -0.9730 0.1913
vn -0.7706 -0.6108 0.1818
vn 0.9271 -0.2136 0.3079
vn 0.8357 -0.3770 0.3994
vn -0.2480 -0.9540 -0.1685
vn -0.4397 -0.8909 -0.1143
vn -0.2906 -0.7859 0.5458
vn -0.2871 -0.7100 0.6430
vn -0.0172 -0.7891 0.6140
vn -0.0666 -0.8195 0.5691
vn -0.8965 -0.4429 0.0114
vn -0.5656 -0.8180 -0.1048
vn 0.1308 -0.9077 0.3988
vn -0.6492 -0.5776 0.4949
vn -0.6855 -0.7239 -0.0786
vn -0.3293 -0.6550 0.6801
vn -0.7753 -0.6276 -0.0701
vn 0.2645 -0.9343 0.2389
vn 0.1141 -0.9652 0.2355
vn -0.4783 -0.6787 0.5573
vn 0.0419 -0.9803 0.1931
vn 0.3884 -0.1078 -0.9152
vn 0.8154 -0.2218 0.5347
vn 0.6193 -0.3003 0.7255
vn 0.6821 -0.3586 0.6373
vn 0.9799 -0.1898 0.0619
vn 0.9599 -0.2165 -0.1783
vn -0.2887 -0.4665 -0.8361
vn -0.8895 -0.2098 -0.4058
vn 0.8411 -0.3766 -0.3882
vn 0.2554 -0.4012 -0.8797
vn 0.4115 -0.4433 0.7963
vn 0.1559 -0.5612 0.8129
vn 0.9200 -0.3749 0.1139
vn 0.8834 -0.4402 -0.1605
vn 0.8934 -0.2119 -0.3961
vt 0.139759 0.701909
vt 0.165579 0.725382
vt 0.169162 0.706199
vt 0.029632 0.630892
vt 0.076527 0.605584
vt 0.016621 0.602393
vt 0.237094 0.951372
vt 0.294796 0.962070
vt 0.277786 0.912327
vt 0.184551 0.801811
vt 0.197101 0.820407
vt 0.220179 0.800906
vt 0.201038 0.995699
vt 0.191460 0.944796
vt 0.018744 0.679075
vt 0.172876 0.543896
vt 0.174707 0.563764
vt 0.205250 0.543989
vt 0.270546 0.471960
vt 0.302097 0.440760
vt 0.282435 0.419586
vt 0.149937 0.226470
vt 0.173949 0.284212
vt 0.215820 0.235109
vt 0.092161 0.642993
vt 0.124018 0.653348
vt 0.116615 0.624313
vt 0.141669 0.479947
vt 0.175502 0.455368
vt 0.156830 0.434732
vt 0.049476 0.310645
vt 0.081998 0.255484
vt 0.067902 0.231727
vt 0.070881 0.341572
vt 0.135999 0.401288
vt 0.153864 0.347244
vt 0.137893 0.634346
vt 0.161286 0.616986
vt 0.137081 0.615323
vt 0.234038 0.917003
vt 0.136790 0.672080
vt 0.160047 0.652886
vt 0.192148 0.343757
vt 0.214139 0.296606
vt 0.161850 0.688836
vt 0.191212 0.694630
vt 0.142099 0.846769
vt 0.161737 0.821302
vt 0.127216 0.803670
vt 0.104734 0.517212
vt 0.110230 0.483905
vt 0.201792 0.466965
vt 0.199431 0.489752
vt 0.238767 0.475025
vt 0.349242 0.890883
vt 0.381924 0.860008
vt 0.358461 0.824550
vt 0.223724 0.614466
vt 0.243788 0.641889
vt 0.245514 0.617721
vt 0.274466 0.556806
vt 0.322240 0.565799
vt 0.295108 0.528223
vt 0.126255 0.761543
vt 0.141993 0.729161
vt 0.120672 0.721791
vt 0.165524 0.635104
vt 0.188780 0.627772
vt 0.202199 0.660649
vt 0.207574 0.628924
vt 0.716122 0.272108
vt 0.733172 0.294418
vt 0.750241 0.267691
vt 0.021264 0.176818
vt 0.003360 0.204672
vt 0.021424 0.205422
vt 0.144222 0.565966
vt 0.165785 0.580838
vt 0.060494 0.382246
vt 0.121077 0.450070
vt 0.204226 0.604388
vt 0.298579 0.494449
vt 0.342807 0.493263
vt 0.319660 0.464451
vt 0.176652 0.876806
vt 0.213963 0.893250
vt 0.213214 0.864852
vt 0.187136 0.434025
vt 0.219418 0.450493
vt 0.169129 0.477516
vt 0.326005 0.381202
vt 0.381152 0.377853
vt 0.360724 0.339581
vt 0.300154 0.326990
vt 0.284129 0.361198
vt 0.340050 0.530643
vt 0.201320 0.745569
vt 0.223540 0.767530
vt 0.221084 0.739858
vt 0.102082 0.764932
vt 0.249407 0.316210
vt 0.255544 0.379210
vt 0.111189 0.682473
vt 0.045161 0.454831
vt 0.050984 0.418779
vt 0.230820 0.688677
vt 0.245305 0.671518
vt 0.221986 0.659888
vt 0.266844 0.516280
vt 0.183561 0.661333
vt 0.124949 0.951500
vt 0.151142 0.983584
vt 0.155151 0.922949
vt 0.072101 0.833245
vt 0.119008 0.874644
vt 0.112241 0.829172
vt 0.028373 0.752872
vt 0.006607 0.713498
vt 0.014708 0.776395
vt 0.359699 0.443975
vt 0.345242 0.411319
vt 0.078809 0.298192
vt 0.097633 0.560060
vt 0.125850 0.543914
vt 0.164757 0.670603
vt 0.083732 0.799223
vt 0.184961 0.506186
vt 0.184853 0.527286
vt 0.220517 0.520790
vt 0.036250 0.502813
vt 0.200525 0.718683
vt 0.237126 0.717853
vt 0.203381 0.774630
vt 0.389335 0.463993
vt 0.382096 0.508046
vt 0.210893 0.386251
vt 0.222990 0.358407
vt 0.224076 0.550857
vt 0.214821 0.581655
vt 0.250088 0.564790
vt 0.033401 0.708703
vt 0.061607 0.664874
vt 0.167322 0.599449
vt 0.139066 0.596293
vt 0.234747 0.586826
vt 0.249646 0.535155
vt 0.185665 0.601779
vt 0.196016 0.577240
vt 0.096437 0.734737
vt 0.094905 0.704533
vt 0.763852 0.245202
vt 0.801410 0.240752
vt 0.774013 0.211007
vt 0.773003 0.300109
vt 0.333088 0.304927
vt 0.263670 0.779434
vt 0.282956 0.757760
vt 0.242552 0.751240
vt 0.238928 0.826941
vt 0.241487 0.791282
vt 0.150029 0.882485
vt 0.168381 0.853303
vt 0.133608 0.512724
vt 0.160032 0.497649
vt 0.030783 0.549802
vt 0.010281 0.540839
vt 0.224578 0.425239
vt 0.196010 0.409783
vt 0.253625 0.444675
vt 0.246538 0.408358
vt 0.020758 0.471237
vt 0.239576 0.503239
vt 0.176256 0.385305
vt 0.175425 0.742549
vt 0.738315 0.323338
vt 0.039145 0.222429
vt 0.051436 0.196659
vt 0.113528 0.584181
vt 0.279600 0.263599
vt 0.687127 0.342768
vt 0.723776 0.359766
vt 0.174100 0.762582
vt 0.210290 0.691891
vt 0.284936 0.623618
vt 0.180694 0.903334
vt 0.148788 0.537946
vt 0.155763 0.518494
vt 0.147625 0.756698
vt 0.291168 0.717390
vt 0.281058 0.667551
vt 0.256666 0.698360
vt 0.077333 0.877099
vt 0.121353 0.911252
vt 0.704171 0.315405
vt 0.394037 0.418459
vt 0.263024 0.727706
vt 0.183490 0.780689
vt 0.289167 0.802580
vt 0.041044 0.782282
vt 0.288568 0.590200
vt 0.153226 0.788184
vt 0.248934 0.863232
vt 0.273656 0.848094
vt 0.196949 0.844756
vt 0.259346 0.594445
vt 0.324728 0.802420
vt 0.328383 0.750692
vt 0.036428 0.809314
vt 0.044456 0.907425
vt 0.039144 0.855660
vt 0.306636 0.890548
vt 0.313772 0.844855
vt 0.687745 0.284665
vt 0.654413 0.272309
vt 0.661776 0.315106
vt 0.057275 0.933282
vt 0.784054 0.265646
vt 0.328948 0.935634
vt 0.039713 0.965979
vt 0.032930 0.388088
vt 0.044618 0.266213
vt 0.257888 0.981074
vt 0.088191 0.976413
vt 0.374039 0.554573
vt 0.699311 0.254227
vt 0.710931 0.203720
vt 0.671602 0.228386
vt 0.394413 0.822516
vt 0.377163 0.775804
vt 0.729818 0.234632
vt 0.024053 0.971997
vt 0.027492 0.879099
vt 0.784523 0.342646
vt 0.020950 0.818621
vt 0.323410 0.683059
vt 0.384504 0.739003
vt 0.812724 0.302229
vt 0.319917 0.606348
vt 0.000810 0.618979
vt 0.014459 0.452078
vt 0.394182 0.523874
vt 0.735204 0.751463
vt 0.654306 0.667161
vt 0.730661 0.645494
vt 0.787103 0.471491
vt 0.720484 0.536512
vt 0.794535 0.423989
vt 0.794941 0.895630
vt 0.665749 0.812027
vt 0.763894 0.906861
vt 0.736448 0.965306
vt 0.792720 0.893444
vt 0.719439 0.539626
vt 0.675320 0.529885
vt 0.656676 0.668731
vt 0.741136 0.406346
vt 0.722600 0.431517
vt 0.748141 0.803379
vt 0.676515 0.840484
vt 0.732445 0.621117
vt 0.771692 0.494961
vt 0.752514 0.538871
vt 0.729697 0.690865
vt 0.796620 0.457313
vt 0.832491 0.419215
vt 0.497034 0.861833
vt 0.571066 0.800013
vt 0.582988 0.870509
vt 0.492299 0.758383
vt 0.488527 0.809801
vt 0.520608 0.446229
vt 0.552660 0.543531
vt 0.555806 0.469662
vt 0.574905 0.425194
vt 0.496414 0.860668
vt 0.571068 0.799964
vt 0.488541 0.809696
vt 0.624525 0.796801
vt 0.601988 0.767905
vt 0.606894 0.821434
vt 0.603403 0.681130
vt 0.510750 0.655941
vt 0.502592 0.709683
vt 0.577134 0.732126
vt 0.492411 0.758182
vt 0.452800 0.720870
vt 0.444147 0.768937
vt 0.584122 0.629704
vt 0.519475 0.612599
vt 0.584181 0.931946
vt 0.505837 0.920795
vt 0.523661 0.964279
vt 0.563488 0.586661
vt 0.509913 0.558210
vt 0.586998 0.879285
vt 0.639538 0.713129
vt 0.642686 0.724112
vt 0.646117 0.685812
vt 0.638567 0.923358
vt 0.637901 0.883462
vt 0.639613 0.895692
vt 0.625433 0.864030
vt 0.634758 0.853476
vt 0.856468 0.821822
vt 0.836998 0.833252
vt 0.853657 0.881355
vt 0.407868 0.878991
vt 0.452261 0.833249
vt 0.408116 0.824724
vt 0.877610 0.765585
vt 0.633653 0.809574
vt 0.628033 0.796769
vt 0.636124 0.770158
vt 0.613992 0.727012
vt 0.626298 0.759136
vt 0.560770 0.086613
vt 0.522366 0.029528
vt 0.491737 0.068302
vt 0.573607 0.078512
vt 0.485024 0.288600
vt 0.464314 0.319295
vt 0.508788 0.358975
vt 0.504322 0.311546
vt 0.501010 0.256773
vt 0.508214 0.268687
vt 0.496104 0.243745
vt 0.498522 0.183485
vt 0.412120 0.218607
vt 0.420475 0.261209
vt 0.621146 0.665399
vt 0.452548 0.114060
vt 0.540692 0.106853
vt 0.528442 0.289086
vt 0.517463 0.279116
vt 0.493452 0.214298
vt 0.470786 0.262025
vt 0.525842 0.124666
vt 0.435627 0.154960
vt 0.516529 0.141572
vt 0.549908 0.373530
vt 0.540764 0.295027
vt 0.555927 0.300684
vt 0.595254 0.076968
vt 0.545417 0.005702
vt 0.493613 0.230022
vt 0.574777 0.305208
vt 0.538427 0.367972
vt 0.595780 0.309138
vt 0.459980 0.875876
vt 0.415513 0.931222
vt 0.471223 0.929360
vt 0.481831 0.560608
vt 0.461362 0.521457
vt 0.439943 0.570667
vt 0.481583 0.620553
vt 0.479898 0.970380
vt 0.424898 0.983843
vt 0.421708 0.623241
vt 0.461920 0.672091
vt 0.409466 0.675902
vt 0.403269 0.726938
vt 0.528488 0.407604
vt 0.482630 0.484477
vt 0.452263 0.833249
vt 0.407788 0.824976
vt 0.572132 0.850948
vt 0.513242 0.929114
vt 0.470530 0.928105
vt 0.502643 0.709714
vt 0.459486 0.677646
vt 0.510737 0.655678
vt 0.457110 0.730079
vt 0.539574 0.412513
vt 0.459534 0.875925
vt 0.853600 0.881004
vt 0.856746 0.931771
vt 0.838228 0.878687
vt 0.874967 0.725730
vt 0.887670 0.744197
vt 0.850831 0.766757
vt 0.838402 0.878248
vt 0.856736 0.931733
vt 0.863344 0.921969
vt 0.893818 0.991026
vt 0.646123 0.685817
vt 0.604365 0.682129
vt 0.514565 0.476766
vt 0.562073 0.454157
vt 0.606933 0.820743
vt 0.590534 0.742600
vt 0.519475 0.612599
vt 0.586849 0.942883
vt 0.509950 0.558880
vt 0.563488 0.586660
vt 0.639808 0.711172
vt 0.629754 0.867751
vt 0.854720 0.799461
vt 0.863753 0.800067
vt 0.634103 0.844724
vt 0.632760 0.751882
vt 0.421692 0.623297
vt 0.481557 0.620537
vt 0.573426 0.078544
vt 0.560730 0.086648
vt 0.503477 0.051547
vt 0.493448 0.299925
vt 0.475677 0.319450
vt 0.504677 0.347558
vt 0.451530 0.278318
vt 0.412116 0.218617
vt 0.498521 0.183485
vt 0.540699 0.106844
vt 0.452781 0.113620
vt 0.522805 0.283430
vt 0.493242 0.214744
vt 0.525842 0.124666
vt 0.516528 0.141572
vt 0.414501 0.925413
vt 0.439962 0.570618
vt 0.461363 0.521455
vt 0.481830 0.560614
vt 0.409262 0.677067
vt 0.403270 0.726922
vt 0.616843 0.902029
vt 0.401625 0.778738
vt 0.448327 0.776446
vt 0.615632 0.913581
vt 0.482929 0.485300
vt 0.520141 0.425311
vt 0.858415 0.751755
vt 0.835237 0.836561
vt 0.863344 0.921969
vt 0.893828 0.991043
vt 0.401624 0.778693
s 1
usemtl m0
f 134/1/1 154/2/2 136/3/3
f 106/4/4 105/5/5 98/6/6
f 211/7/7 21/8/8 197/9/9
f 178/10/10 165/11/11 166/12/12
f 13/13/13 211/7/7 206/14/14
f 98/6/6 122/15/15 106/4/4
f 87/16/16 88/17/17 70/18/18
f 46/19/19 25/20/20 24/21/21
f 213/22/22 8/23/23 209/24/24
f 107/25/25 126/26/26 108/27/27
f 58/28/28 59/29/29 38/30/30
f 2/31/31 1/32/32 212/33/33
f 26/34/34 49/35/35 28/36/36
f 110/37/37 111/38/38 109/39/39
f 206/14/14 211/7/7 208/40/40
f 128/41/41 116/42/42 126/26/26
f 8/23/23 29/43/43 11/44/44
f 135/45/45 136/3/3 137/46/46
f 183/47/47 177/48/48 175/49/49
f 76/50/50 58/28/28 75/51/51
f 61/52/52 62/53/53 45/54/54
f 4/55/55 9/56/56 203/57/57
f 99/58/58 104/59/59 100/60/60
f 77/61/61 40/62/62 51/63/63
f 150/64/64 152/65/65 133/66/66
f 111/38/38 112/67/67 113/68/68
f 121/69/69 103/70/70 113/68/68
f 179/71/71 17/72/72 35/73/73
f 180/74/74 40/75/62 18/76/75
f 92/77/76 93/78/77 88/17/17
f 48/79/78 57/80/79 49/35/35
f 103/70/70 99/58/58 97/81/80
f 50/82/81 10/83/82 27/84/83
f 186/85/84 207/86/85 188/87/86
f 39/88/87 61/52/52 42/89/88
f 60/90/89 61/52/52 59/29/29
f 22/91/90 5/92/91 21/93/8
f 15/94/92 16/95/93 22/91/90
f 50/82/81 51/63/63 30/96/94
f 143/97/95 161/98/96 145/99/97
f 175/49/49 150/64/64 155/100/98
f 14/101/99 33/102/100 16/95/93
f 132/103/101 126/26/26 107/25/25
f 55/104/102 75/51/51 57/80/79
f 55/104/102 57/80/79 53/105/103
f 129/106/104 125/107/105 123/108/106
f 133/66/66 152/65/65 134/1/1
f 56/109/107 50/82/81 46/19/19
f 38/30/30 59/29/29 39/88/87
f 119/110/108 113/68/68 112/67/67
f 202/111/109 209/112/24 204/113/110
f 172/114/111 195/115/112 173/116/113
f 146/117/114 120/118/115 144/119/116
f 27/84/83 7/120/117 6/121/118
f 3/122/119 28/36/36 8/23/23
f 26/34/34 28/36/36 3/122/119
f 82/123/120 84/124/121 76/50/50
f 135/45/45 119/110/108 117/125/122
f 156/126/123 173/116/113 175/49/49
f 65/127/124 67/128/125 69/129/126
f 72/130/127 75/51/51 55/104/102
f 135/45/45 117/125/122 128/41/41
f 141/131/128 145/99/97 147/132/129
f 166/12/12 161/98/96 160/133/130
f 9/134/56 10/83/82 12/135/131
f 32/136/132 33/102/100 31/137/133
f 71/138/134 80/139/135 74/140/136
f 122/15/15 139/141/137 124/142/138
f 111/38/38 95/143/139 94/144/140
f 80/139/135 99/58/58 81/145/141
f 69/129/126 71/138/134 73/146/142
f 93/78/77 96/147/143 90/148/144
f 2/31/31 48/79/78 26/34/34
f 139/141/137 148/149/145 131/150/146
f 43/151/147 63/152/148 47/153/149
f 35/73/73 17/72/72 89/154/150
f 15/94/92 21/93/8 19/155/151
f 171/156/152 174/157/153 164/158/154
f 189/159/155 169/160/156 166/12/12
f 60/90/89 65/127/124 62/53/53
f 122/15/15 146/117/114 139/141/137
f 185/161/157 184/162/158 183/47/47
f 78/163/159 64/164/160 58/28/28
f 98/6/6 79/165/161 91/166/162
f 39/88/87 41/167/163 37/168/164
f 108/27/27 126/26/26 110/37/37
f 44/169/165 24/21/21 34/170/166
f 24/21/21 22/91/90 16/95/93
f 123/108/106 104/59/59 103/70/70
f 91/166/162 72/130/127 54/171/167
f 52/172/168 46/19/19 45/54/54
f 38/30/30 37/168/164 36/173/169
f 154/2/2 142/174/170 141/131/128
f 17/72/72 118/175/171 89/154/150
f 102/176/172 115/177/173 18/76/75
f 90/148/144 97/81/80 80/139/135
f 110/37/37 116/42/42 112/67/67
f 111/38/38 96/147/143 95/143/139
f 73/146/142 56/109/107 52/172/168
f 32/136/132 41/167/163 34/170/166
f 94/144/140 92/77/76 101/178/174
f 101/178/174 108/27/27 94/144/140
f 3/122/119 8/23/23 1/32/32
f 209/24/24 11/44/44 13/179/13
f 77/61/61 51/63/63 56/109/107
f 113/68/68 97/81/80 96/147/143
f 118/175/171 144/180/116 120/181/115
f 158/182/175 160/133/130 143/97/95
f 58/28/28 64/164/160 60/90/89
f 138/183/176 123/108/106 121/69/69
f 100/60/60 104/59/59 102/184/172
f 164/158/154 147/132/129 145/99/97
f 185/161/157 205/185/177 186/85/84
f 15/94/92 19/155/151 13/179/13
f 133/66/66 134/1/1 132/103/101
f 78/163/159 86/186/178 66/187/179
f 25/20/20 6/121/118 22/91/90
f 153/188/180 154/2/2 152/65/65
f 13/13/13 206/14/14 209/112/24
f 189/159/155 166/12/12 165/11/11
f 155/100/98 133/66/66 148/149/145
f 151/189/181 127/190/182 130/191/183
f 73/146/142 74/140/136 77/61/61
f 123/108/106 125/107/105 104/59/59
f 137/46/46 121/69/69 119/110/108
f 79/165/161 76/50/50 72/130/127
f 11/44/44 31/137/133 14/101/99
f 141/131/128 138/183/176 137/46/46
f 194/192/184 201/193/185 195/115/112
f 17/72/72 179/71/71 140/194/186
f 153/188/180 158/182/175 142/174/170
f 107/25/25 108/27/27 105/5/5
f 76/50/50 84/124/121 78/163/159
f 124/142/138 131/150/146 132/103/101
f 82/123/120 101/178/174 84/124/121
f 7/120/117 9/134/56 4/195/55
f 164/158/154 174/157/153 149/196/187
f 178/10/10 160/133/130 159/197/188
f 181/198/189 174/157/153 171/156/152
f 156/126/123 155/100/98 163/199/190
f 183/47/47 184/162/158 177/48/48
f 141/131/128 137/46/46 136/3/3
f 85/200/191 40/62/62 77/61/61
f 169/160/156 164/158/154 161/98/96
f 157/201/192 153/188/180 150/64/64
f 157/201/192 158/182/175 153/188/180
f 190/202/193 197/9/9 192/203/194
f 186/85/84 187/204/195 184/162/158
f 41/167/163 42/89/88 44/169/165
f 74/140/136 83/205/196 85/200/191
f 189/159/155 192/203/194 181/198/189
f 202/111/109 204/113/110 201/193/185
f 180/74/74 18/76/75 115/177/173
f 178/10/10 159/197/188 157/201/192
f 66/187/179 65/127/124 64/164/160
f 181/198/189 182/206/197 176/207/198
f 195/115/112 204/113/110 185/161/157
f 50/82/81 27/84/83 25/20/20
f 162/208/199 172/114/111 156/126/123
f 193/209/200 194/192/184 170/210/201
f 147/132/129 129/106/104 138/183/176
f 206/14/14 207/86/85 205/185/177
f 177/48/48 187/204/195 165/11/11
f 170/210/201 172/114/111 162/208/199
f 81/145/141 100/60/60 83/205/196
f 170/210/201 194/192/184 172/114/111
f 192/203/194 198/211/202 200/212/203
f 181/198/189 171/156/152 169/160/156
f 33/102/100 34/170/166 24/21/21
f 125/107/105 130/191/183 127/190/182
f 207/86/85 208/40/40 190/202/193
f 70/18/18 90/148/144 71/138/134
f 187/204/195 188/87/86 189/159/155
f 94/144/140 93/78/77 92/77/76
f 168/213/204 191/214/205 167/215/206
f 4/55/55 200/212/203 198/211/202
f 199/216/207 201/193/185 193/209/200
f 212/33/33 1/32/32 213/22/22
f 66/187/179 87/16/16 67/128/125
f 36/173/169 31/137/133 29/43/43
f 105/5/5 82/123/120 79/165/161
f 43/151/147 68/217/208 63/152/148
f 197/9/9 5/218/91 198/211/202
f 193/209/200 212/219/33 199/216/207
f 47/220/149 53/105/103 48/79/78
f 200/212/203 181/198/189 192/203/194
f 6/121/118 4/195/55 5/92/91
f 36/173/169 37/168/164 32/136/132
f 69/129/126 52/172/168 62/53/53
f 44/169/165 45/54/54 46/19/19
f 54/171/167 53/105/103 47/220/149
f 92/77/76 87/16/16 86/186/178
f 146/117/114 162/208/199 163/199/190
f 2/31/31 212/33/33 23/221/209
f 23/221/209 47/220/149 2/31/31
f 108/27/27 110/37/37 109/39/39
f 130/191/183 147/132/129 149/196/187
f 134/1/1 152/65/65 154/2/2
f 211/7/7 19/222/151 21/8/8
f 58/28/28 60/90/89 59/29/29
f 49/35/35 38/30/30 36/173/169
f 146/117/114 155/100/98 148/149/145
f 199/216/207 212/219/33 213/223/22
f 128/41/41 132/103/101 134/1/1
f 12/135/131 30/96/94 180/224/74
f 2/31/31 3/122/119 1/32/32
f 26/34/34 48/79/78 49/35/35
f 9/134/56 7/120/117 10/83/82
f 110/37/37 112/67/67 111/38/38
f 13/179/13 11/44/44 14/101/99
f 8/23/23 28/36/36 29/43/43
f 196/225/210 23/226/209 193/227/200
f 207/86/85 190/202/193 188/87/86
f 76/50/50 78/163/159 58/28/28
f 213/223/22 209/112/24 202/111/109
f 84/124/121 101/178/174 92/77/76
f 150/64/64 153/188/180 152/65/65
f 198/211/202 5/218/91 4/55/55
f 48/79/78 53/105/103 57/80/79
f 203/57/57 12/228/131 210/229/211
f 204/113/110 209/112/24 206/14/14
f 74/140/136 85/200/191 77/61/61
f 149/196/187 174/157/153 151/189/181
f 186/85/84 205/185/177 207/86/85
f 39/88/87 59/29/29 61/52/52
f 35/73/73 68/217/208 43/151/147
f 60/90/89 62/53/53 61/52/52
f 94/144/140 108/27/27 109/39/39
f 140/194/186 167/215/206 144/180/116
f 22/91/90 6/121/118 5/92/91
f 49/35/35 57/80/79 38/30/30
f 119/110/108 121/69/69 113/68/68
f 20/230/212 43/151/147 47/153/149
f 158/182/175 143/97/95 142/174/170
f 143/97/95 160/133/130 161/98/96
f 14/101/99 31/137/133 33/102/100
f 2/31/31 26/34/34 3/122/119
f 13/179/13 14/101/99 15/94/92
f 193/209/200 23/231/209 212/219/33
f 193/209/200 170/210/201 191/232/205
f 74/140/136 80/139/135 81/145/141
f 44/169/165 42/89/88 45/54/54
f 118/175/171 120/181/115 114/233/213
f 65/127/124 69/129/126 62/53/53
f 25/20/20 27/84/83 6/121/118
f 14/101/99 16/95/93 15/94/92
f 128/41/41 134/1/1 135/45/45
f 179/71/71 20/230/212 196/225/210
f 124/142/138 139/141/137 131/150/146
f 106/4/4 122/15/15 124/142/138
f 41/167/163 44/169/165 34/170/166
f 172/114/111 194/192/184 195/115/112
f 35/73/73 89/154/150 68/217/208
f 167/234/206 191/232/205 170/210/201
f 170/210/201 162/208/199 167/234/206
f 162/208/199 146/117/114 144/119/116
f 167/234/206 162/208/199 144/119/116
f 146/117/114 122/15/15 120/118/115
f 28/36/36 36/173/169 29/43/43
f 105/5/5 101/178/174 82/123/120
f 140/194/186 168/213/204 167/215/206
f 69/129/126 67/128/125 70/18/18
f 156/126/123 175/49/49 155/100/98
f 173/116/113 195/115/112 183/47/47
f 135/45/45 137/46/46 119/110/108
f 57/80/79 75/51/51 58/28/28
f 72/130/127 76/50/50 75/51/51
f 211/7/7 13/13/13 19/222/151
f 166/12/12 169/160/156 161/98/96
f 124/142/138 132/103/101 107/25/25
f 104/59/59 127/190/182 102/184/172
f 195/115/112 185/161/157 183/47/47
f 69/129/126 70/18/18 71/138/134
f 32/136/132 34/170/166 33/102/100
f 132/103/101 128/41/41 126/26/26
f 73/146/142 77/61/61 56/109/107
f 151/189/181 176/207/198 115/235/173
f 176/207/198 180/236/74 115/235/173
f 84/124/121 92/77/76 86/186/178
f 80/139/135 97/81/80 99/58/58
f 141/131/128 142/174/170 143/97/95
f 200/212/203 182/206/197 181/198/189
f 93/78/77 95/143/139 96/147/143
f 2/31/31 47/220/149 48/79/78
f 139/141/137 146/117/114 148/149/145
f 4/55/55 203/57/57 200/212/203
f 98/6/6 105/5/5 79/165/161
f 147/132/129 130/191/183 129/106/104
f 204/113/110 206/14/14 205/185/177
f 54/171/167 72/130/127 55/104/102
f 15/94/92 22/91/90 21/93/8
f 164/158/154 149/196/187 147/132/129
f 60/90/89 64/164/160 65/127/124
f 157/201/192 177/48/48 178/10/10
f 185/161/157 186/85/84 184/162/158
f 192/203/194 197/9/9 198/211/202
f 10/83/82 30/96/94 12/135/131
f 78/163/159 66/187/179 64/164/160
f 196/225/210 20/230/212 23/226/209
f 39/88/87 42/89/88 41/167/163
f 89/154/150 114/233/213 91/237/162
f 40/62/62 85/200/191 18/238/75
f 20/230/212 47/153/149 23/226/209
f 91/166/162 79/165/161 72/130/127
f 38/30/30 39/88/87 37/168/164
f 99/58/58 103/70/70 104/59/59
f 85/200/191 102/184/172 18/238/75
f 68/217/208 89/154/150 91/237/162
f 93/78/77 94/144/140 95/143/139
f 45/54/54 62/53/53 52/172/168
f 90/148/144 96/147/143 97/81/80
f 110/37/37 126/26/26 116/42/42
f 111/38/38 113/68/68 96/147/143
f 32/136/132 37/168/164 41/167/163
f 114/239/213 120/118/115 122/15/15
f 122/15/15 98/6/6 114/239/213
f 98/6/6 91/166/162 114/239/213
f 116/42/42 117/125/122 119/110/108
f 141/131/128 143/97/95 145/99/97
f 52/172/168 56/109/107 46/19/19
f 46/19/19 50/82/81 25/20/20
f 89/154/150 118/175/171 114/233/213
f 113/68/68 103/70/70 97/81/80
f 51/63/63 40/62/62 30/96/94
f 118/175/171 140/194/186 144/180/116
f 158/182/175 159/197/188 160/133/130
f 138/183/176 129/106/104 123/108/106
f 181/198/189 176/207/198 174/157/153
f 106/4/4 124/142/138 107/25/25
f 156/126/123 172/114/111 173/116/113
f 185/161/157 204/113/110 205/185/177
f 70/18/18 88/17/17 90/148/144
f 78/163/159 84/124/121 86/186/178
f 94/144/140 109/39/39 111/38/38
f 116/42/42 128/41/41 117/125/122
f 153/188/180 142/174/170 154/2/2
f 199/216/207 213/223/22 202/111/109
f 155/100/98 150/64/64 133/66/66
f 131/150/146 133/66/66 132/103/101
f 211/7/7 197/9/9 208/40/40
f 93/78/77 90/148/144 88/17/17
f 71/138/134 90/148/144 80/139/135
f 154/2/2 141/131/128 136/3/3
f 137/46/46 138/183/176 121/69/69
f 79/165/161 82/123/120 76/50/50
f 158/182/175 157/201/192 159/197/188
f 141/131/128 147/132/129 138/183/176
f 130/191/183 149/196/187 151/189/181
f 11/44/44 29/43/43 31/137/133
f 125/107/105 129/106/104 130/191/183
f 57/80/79 58/28/28 38/30/30
f 74/140/136 81/145/141 83/205/196
f 73/146/142 71/138/134 74/140/136
f 173/116/113 183/47/47 175/49/49
f 175/49/49 157/201/192 150/64/64
f 68/217/208 91/237/162 63/152/148
f 87/16/16 70/18/18 67/128/125
f 101/178/174 105/5/5 108/27/27
f 194/192/184 193/209/200 201/193/185
f 162/208/199 156/126/123 163/199/190
f 127/190/182 151/189/181 115/235/173
f 189/159/155 181/198/189 169/160/156
f 196/225/210 193/227/200 191/214/205
f 54/171/167 47/220/149 63/240/148
f 63/240/148 91/166/162 54/171/167
f 61/52/52 45/54/54 42/89/88
f 178/10/10 166/12/12 160/133/130
f 44/169/165 46/19/19 24/21/21
f 50/82/81 30/96/94 10/83/82
f 169/160/156 171/156/152 164/158/154
f 186/85/84 188/87/86 187/204/195
f 24/21/21 25/20/20 22/91/90
f 146/117/114 163/199/190 155/100/98
f 187/204/195 189/159/155 165/11/11
f 102/184/172 127/190/182 115/235/173
f 17/72/72 140/194/186 118/175/171
f 134/1/1 136/3/3 135/45/45
f 157/201/192 175/49/49 177/48/48
f 179/71/71 35/73/73 20/230/212
f 56/109/107 51/63/63 50/82/81
f 104/59/59 125/107/105 127/190/182
f 66/187/179 67/128/125 65/127/124
f 182/206/197 200/212/203 203/57/57
f 195/115/112 201/193/185 204/113/110
f 121/69/69 123/108/106 103/70/70
f 131/150/146 148/149/145 133/66/66
f 177/48/48 165/11/11 178/10/10
f 33/102/100 24/21/21 16/95/93
f 206/14/14 208/40/40 207/86/85
f 168/213/204 196/225/210 191/214/205
f 177/48/48 184/162/158 187/204/195
f 189/159/155 190/202/193 192/203/194
f 81/145/141 99/58/58 100/60/60
f 116/42/42 119/110/108 112/67/67
f 189/159/155 188/87/86 190/202/193
f 83/205/196 102/184/172 85/200/191
f 174/157/153 176/207/198 151/189/181
f 83/205/196 100/60/60 102/184/172
f 145/99/97 161/98/96 164/158/154
f 213/22/22 1/32/32 8/23/23
f 203/57/57 9/56/56 12/228/131
f 182/206/197 210/229/211 176/207/198
f 210/241/211 12/135/131 180/224/74
f 182/206/197 203/57/57 210/229/211
f 199/216/207 202/111/109 201/193/185
f 35/73/73 43/151/147 20/230/212
f 27/84/83 10/83/82 7/120/117
f 28/36/36 49/35/35 36/173/169
f 176/207/198 210/229/211 180/236/74
f 30/96/94 40/62/62 180/224/74
f 66/187/179 86/186/178 87/16/16
f 106/4/4 107/25/25 105/5/5
f 179/71/71 168/213/204 140/194/186
f 179/71/71 196/225/210 168/213/204
f 36/173/169 32/136/132 31/137/133
f 209/24/24 8/23/23 11/44/44
f 190/202/193 208/40/40 197/9/9
f 197/9/9 21/8/8 5/218/91
f 6/121/118 7/120/117 4/195/55
f 54/171/167 55/104/102 53/105/103
f 92/77/76 88/17/17 87/16/16
f 69/129/126 73/146/142 52/172/168
f 237/242/214 232/243/215 236/244/216
f 239/245/217 233/246/218 218/247/219
f 229/248/220 214/249/221 216/250/222
f 216/250/222 215/251/223 238/252/224
f 221/253/225 222/254/226 220/255/227
f 218/247/219 219/256/228 217/257/229
f 216/250/222 214/249/221 215/251/223
f 236/244/216 232/243/215 233/246/218
f 227/258/230 220/255/227 214/249/221
f 215/251/223 231/259/231 238/252/224
f 220/255/227 226/260/232 221/253/225
f 221/253/225 217/257/229 222/254/226
f 238/252/224 231/259/231 237/242/214
f 221/253/225 224/261/233 218/247/219
f 218/247/219 233/246/218 219/256/228
f 217/257/229 221/253/225 218/247/219
f 221/253/225 223/262/234 224/261/233
f 232/243/215 237/242/214 231/259/231
f 229/248/220 227/258/230 214/249/221
f 239/245/217 235/262/235 233/246/218
f 233/246/218 232/243/215 234/254/236
f 221/253/225 226/260/232 223/262/234
f 227/258/230 225/263/237 220/255/227
f 220/255/227 225/263/237 226/260/232
f 216/250/222 238/252/224 229/248/220
f 218/247/219 224/261/233 228/264/238
f 239/245/217 218/247/219 230/265/239
f 228/264/238 230/265/239 218/247/219
f 233/246/218 234/254/236 219/256/228
f 235/262/235 236/244/216 233/246/218
f 326/266/240 330/267/241 327/268/242
f 331/269/243 330/267/241 329/270/244
f 314/271/245 268/272/246 244/273/247
f 314/271/245 244/273/247 248/274/248
f 241/275/249 246/276/250 245/277/251
f 271/278/252 318/279/253 319/280/254
f 253/281/255 252/282/256 251/283/257
f 251/283/257 250/284/258 253/281/255
f 249/285/259 308/286/260 310/287/261
f 322/288/262 254/289/263 252/282/256
f 252/282/256 253/281/255 322/288/262
f 257/290/264 317/291/265 255/292/266
f 320/293/267 240/294/268 254/289/263
f 254/289/263 322/288/262 320/293/267
f 242/295/269 241/275/249 317/291/265
f 317/291/265 257/290/264 242/295/269
f 258/296/270 260/297/271 262/298/272
f 263/299/273 362/300/274 264/301/275
f 264/301/275 266/302/276 263/299/273
f 266/302/276 264/301/275 267/303/277
f 269/304/278 268/305/246 265/306/279
f 295/307/280 315/308/281 312/309/282
f 268/305/246 269/304/278 270/310/283
f 266/302/276 267/303/277 271/278/252
f 346/311/284 345/312/285 355/313/286
f 258/296/270 259/314/287 273/315/288
f 260/297/271 258/296/270 273/315/288
f 273/315/288 271/278/252 260/297/271
f 274/316/289 270/317/283 269/318/278
f 270/317/283 274/316/289 275/319/290
f 276/320/291 271/321/252 267/322/277
f 267/322/277 277/323/292 276/320/291
f 279/324/293 276/320/291 277/323/292
f 277/323/292 278/325/294 279/324/293
f 276/320/291 279/324/293 280/326/295
f 281/327/296 262/328/272 260/329/271
f 253/281/255 262/298/272 322/330/262
f 265/331/279 282/332/297 269/318/278
f 274/316/289 269/318/278 282/332/297
f 267/322/277 283/333/298 277/323/292
f 284/334/299 277/323/292 283/333/298
f 277/323/292 284/334/299 278/325/294
f 286/335/300 260/329/271 285/336/301
f 260/329/271 286/335/300 281/327/296
f 265/331/279 287/337/302 282/332/297
f 287/337/302 265/331/279 261/338/303
f 261/338/303 288/339/304 287/337/302
f 283/333/298 267/322/277 264/340/275
f 290/341/305 283/333/298 264/340/275
f 264/340/275 289/342/306 290/341/305
f 270/317/283 291/343/307 272/344/308
f 271/321/252 276/320/291 285/336/301
f 292/345/309 285/336/301 276/320/291
f 276/320/291 280/326/295 292/345/309
f 285/336/301 292/345/309 286/335/300
f 288/339/304 261/338/303 262/328/272
f 262/328/272 281/327/296 288/339/304
f 294/346/310 264/340/275 362/347/274
f 362/347/274 293/348/311 294/346/310
f 264/340/275 294/346/310 289/342/306
f 298/349/312 295/307/280 296/350/313
f 296/350/313 297/351/314 298/349/312
f 301/352/315 299/353/316 300/354/317
f 300/354/317 306/355/318 301/352/315
f 296/350/313 302/356/319 297/351/314
f 302/356/319 296/350/313 303/357/320
f 306/355/318 300/354/317 304/358/321
f 305/359/322 304/358/321 307/360/323
f 307/360/323 308/286/260 305/359/322
f 308/286/260 307/360/323 309/361/324
f 314/271/245 313/362/325 316/363/326
f 298/349/312 241/275/249 315/308/281
f 384/364/327 367/307/328 383/365/329
f 319/280/254 246/276/250 243/366/330
f 299/353/316 301/352/315 316/363/326
f 317/291/265 298/349/312 297/351/314
f 240/294/268 301/352/315 306/355/318
f 337/367/331 302/356/319 369/368/332
f 302/356/319 255/292/266 317/291/265
f 254/289/263 306/355/318 252/282/256
f 254/289/263 240/294/268 306/355/318
f 332/369/333 376/370/334 334/371/335
f 331/269/243 378/372/336 332/369/333
f 313/362/325 314/271/245 247/373/337
f 326/266/240 368/374/338 384/364/327
f 316/363/326 240/294/268 314/271/245
f 240/294/268 316/363/326 301/352/315
f 341/375/339 389/376/340 387/377/341
f 248/378/248 270/310/283 272/379/308
f 244/380/247 268/305/246 248/378/248
f 320/381/267 265/306/279 268/305/246
f 322/382/262 261/383/303 265/306/279
f 322/382/262 262/384/272 261/383/303
f 250/284/258 259/314/287 253/281/255
f 258/296/270 253/281/255 259/314/287
f 340/385/342 335/386/343 389/330/340
f 240/294/268 268/272/246 314/271/245
f 241/275/249 242/295/269 243/366/330
f 323/387/344 247/373/337 328/388/345
f 328/388/345 324/272/346 323/387/344
f 251/283/257 305/359/322 308/286/260
f 314/271/245 248/274/248 247/373/337
f 386/389/347 330/267/241 333/390/348
f 335/386/343 333/390/348 332/369/333
f 332/369/333 334/371/335 335/386/343
f 334/371/335 336/391/349 389/288/340
f 389/288/340 335/386/343 334/371/335
f 255/292/266 337/367/331 256/392/350
f 336/391/349 325/393/351 387/394/341
f 387/394/341 389/288/340 336/391/349
f 337/367/331 326/266/240 327/268/242
f 327/268/242 256/392/350 337/367/331
f 340/385/342 355/313/286 338/395/352
f 324/272/346 325/393/351 323/387/344
f 263/299/273 342/396/353 362/300/274
f 341/375/339 343/397/354 344/398/355
f 357/399/356 362/300/274 342/396/353
f 343/397/354 272/379/308 344/398/355
f 342/396/353 345/312/285 346/311/284
f 346/311/284 357/399/356 342/396/353
f 345/312/285 347/400/357 355/313/286
f 376/370/334 375/401/358 374/402/359
f 347/400/357 338/395/352 355/313/286
f 348/403/360 349/404/361 344/405/355
f 350/406/362 346/407/284 351/326/363
f 351/326/363 352/324/364 350/406/362
f 352/324/364 353/325/365 350/406/362
f 357/408/356 346/407/284 350/406/362
f 355/409/286 340/410/342 354/411/366
f 344/405/355 356/412/367 341/413/339
f 356/412/367 344/405/355 349/404/361
f 357/408/356 350/406/362 353/325/365
f 353/325/365 358/414/368 357/408/356
f 354/411/366 359/415/369 355/409/286
f 271/321/252 285/336/301 260/329/271
f 356/412/367 360/416/370 341/413/339
f 339/338/371 341/413/339 360/416/370
f 360/416/370 361/417/372 339/338/371
f 362/347/274 357/408/356 358/414/368
f 358/414/368 363/341/373 362/347/274
f 363/341/373 364/342/374 362/347/274
f 346/407/284 359/415/369 365/345/375
f 365/345/375 351/326/363 346/407/284
f 346/407/284 355/409/286 359/415/369
f 340/410/342 339/338/371 361/417/372
f 361/417/372 354/411/366 340/410/342
f 364/342/374 366/346/376 362/347/274
f 366/346/376 293/348/311 362/347/274
f 370/418/377 367/307/328 368/374/338
f 368/374/338 369/368/332 370/418/377
f 373/419/378 371/420/379 372/421/380
f 372/421/380 374/402/359 373/419/378
f 303/357/320 370/418/377 369/368/332
f 369/368/332 302/356/319 303/357/320
f 375/401/358 373/419/378 374/402/359
f 377/422/381 375/401/358 376/370/334
f 379/423/382 377/422/381 376/370/334
f 376/370/334 378/372/336 379/423/382
f 321/424/383 242/295/269 257/290/264
f 310/287/261 309/361/324 311/425/384
f 329/270/244 384/364/327 380/426/385
f 263/299/273 256/392/350 388/427/386
f 385/428/387 372/421/380 371/420/379
f 326/266/240 337/367/331 369/368/332
f 374/402/359 372/421/380 325/393/351
f 342/396/353 386/389/347 345/312/285
f 337/367/331 255/292/266 302/356/319
f 374/402/359 325/393/351 336/391/349
f 334/371/335 374/402/359 336/391/349
f 252/282/256 306/355/318 305/359/322
f 380/426/385 379/423/382 378/372/336
f 382/429/388 313/362/325 247/373/337
f 247/373/337 323/387/344 382/429/388
f 385/428/387 382/429/388 323/387/344
f 323/387/344 325/393/351 385/428/387
f 372/421/380 385/428/387 325/393/351
f 338/395/389 347/400/390 333/390/348
f 318/279/253 250/284/258 246/276/250
f 250/284/258 251/283/257 249/285/259
f 248/378/248 272/379/308 328/430/345
f 272/379/308 343/397/354 328/430/345
f 324/431/346 328/430/345 343/397/354
f 266/302/276 319/280/254 242/295/269
f 343/397/354 387/377/341 324/431/346
f 343/397/354 341/375/339 387/377/341
f 322/382/262 265/306/279 320/381/267
f 341/375/339 339/432/371 389/376/340
f 302/356/319 317/291/265 297/351/314
f 263/299/273 257/290/264 256/392/350
f 339/432/371 340/433/342 389/376/340
f 246/276/250 249/285/259 245/277/251
f 318/279/253 273/315/288 259/314/287
f 333/390/348 335/386/343 338/395/389
f 315/308/281 245/277/251 310/287/261
f 310/287/261 245/277/251 249/285/259
f 251/283/257 252/282/256 305/359/322
f 324/272/346 387/394/341 325/393/351
f 326/266/240 329/270/244 330/267/241
f 332/369/333 378/372/336 376/370/334
f 248/274/248 328/388/345 247/373/337
f 241/275/249 243/366/330 246/276/250
f 331/269/243 333/390/348 330/267/241
f 263/299/273 388/427/386 342/396/353
f 295/307/280 298/349/312 315/308/281
f 275/319/290 291/343/307 270/317/283
f 253/281/255 258/296/270 262/298/272
f 263/299/273 266/302/276 321/424/383
f 348/403/360 272/344/308 291/343/307
f 312/309/282 315/308/281 310/287/261
f 380/426/385 383/365/329 381/434/391
f 380/426/385 384/364/327 383/365/329
f 384/364/327 368/374/338 367/307/328
f 333/390/348 331/269/243 332/369/333
f 331/269/243 380/426/385 378/372/336
f 331/269/243 329/270/244 380/426/385
f 326/266/240 369/368/332 368/374/338
f 347/400/390 345/312/285 333/390/348
f 386/389/347 327/268/242 330/267/241
f 311/425/384 312/309/282 310/287/261
f 388/427/386 256/392/350 327/268/242
f 340/385/342 338/395/389 335/386/343
f 342/396/353 388/427/386 327/268/242
f 345/312/285 386/389/347 333/390/348
f 249/285/259 251/283/257 308/286/260
f 318/279/253 271/278/252 273/315/288
f 256/392/350 257/290/264 255/292/266
f 240/294/268 320/293/267 268/272/246
f 298/349/312 317/291/265 241/275/249
f 248/378/248 268/305/246 270/310/283
f 266/302/276 271/278/252 319/280/254
f 329/270/244 326/266/240 384/364/327
f 348/403/360 344/405/355 272/344/308
f 305/359/322 306/355/318 304/358/321
f 310/287/261 308/286/260 309/361/324
f 334/371/335 376/370/334 374/402/359
f 380/426/385 381/434/391 379/423/382
f 319/280/254 318/279/253 246/276/250
f 250/284/258 318/279/253 259/314/287
f 315/308/281 241/275/249 245/277/251
f 246/276/250 250/284/258 249/285/259
f 342/396/353 327/268/242 386/389/347
f 242/295/269 319/280/254 243/366/330
f 321/424/383 266/302/276 242/295/269
f 263/299/273 321/424/383 257/290/264
