# Blender 5.2.2 LTS
# www.blender.org
mtllib FireShutterCurtain.mtl
o part0
v 0.958205 -3.984940 0.034195
v 0.958205 -3.984940 0.034195
v 0.958205 -3.984940 0.034195
v 0.958205 -3.984940 0.004235
v 0.958205 -3.984940 0.004235
v 0.954211 -3.984145 0.034195
v 0.954211 -3.984145 0.034195
v 0.954211 -3.984145 0.004235
v 0.950826 -3.981883 0.034195
v 0.950826 -3.981883 0.034195
v 0.950826 -3.981883 0.004235
v 0.948563 -3.978497 0.034195
v 0.948563 -3.978497 0.034195
v 0.948563 -3.978497 0.004235
v 0.947769 -3.974504 0.034195
v 0.947769 -3.974504 0.034195
v 0.947769 -3.974504 0.004235
v 0.948563 -3.970510 0.034195
v 0.948563 -3.970510 0.034195
v 0.948563 -3.970510 0.004235
v 0.950826 -3.967124 0.034195
v 0.950826 -3.967124 0.034195
v 0.950826 -3.967124 0.004235
v 0.954211 -3.964862 0.034195
v 0.954211 -3.964862 0.034195
v 0.954211 -3.964862 0.004235
v 0.958205 -3.964067 0.034195
v 0.958205 -3.964067 0.034195
v 0.958205 -3.964067 0.004235
v 0.962199 -3.964862 0.034195
v 0.962199 -3.964862 0.034195
v 0.962199 -3.964862 0.004235
v 0.965585 -3.967124 0.034195
v 0.965585 -3.967124 0.034195
v 0.965585 -3.967124 0.004235
v 0.967847 -3.970510 0.034195
v 0.967847 -3.970510 0.034195
v 0.967847 -3.970510 0.004235
v 0.968641 -3.974504 0.034195
v 0.968641 -3.974504 0.034195
v 0.968641 -3.974504 0.004235
v 0.967847 -3.978497 0.034195
v 0.967847 -3.978497 0.034195
v 0.967847 -3.978497 0.004235
v 0.965585 -3.981883 0.034195
v 0.965585 -3.981883 0.034195
v 0.965585 -3.981883 0.004235
v 0.962199 -3.984145 0.034195
v 0.962199 -3.984145 0.034195
v 0.962199 -3.984145 0.004235
v 0.958205 -3.974504 0.034195
v -0.958205 -3.974504 0.034195
v -0.954211 -3.984145 0.004235
v -0.954211 -3.984145 0.034195
v -0.954211 -3.984145 0.034195
v -0.950826 -3.981883 0.004235
v -0.950826 -3.981883 0.034195
v -0.950826 -3.981883 0.034195
v -0.948563 -3.978497 0.004235
v -0.948563 -3.978497 0.034195
v -0.948563 -3.978497 0.034195
v -0.947769 -3.974504 0.004235
v -0.947769 -3.974504 0.034195
v -0.947769 -3.974504 0.034195
v -0.948563 -3.970510 0.004235
v -0.948563 -3.970510 0.034195
v -0.948563 -3.970510 0.034195
v -0.950826 -3.967124 0.004235
v -0.950826 -3.967124 0.034195
v -0.950826 -3.967124 0.034195
v -0.954211 -3.964862 0.004235
v -0.954211 -3.964862 0.034195
v -0.954211 -3.964862 0.034195
v -0.958205 -3.964067 0.004235
v -0.958205 -3.964067 0.034195
v -0.958205 -3.964067 0.034195
v -0.962199 -3.964862 0.004235
v -0.962199 -3.964862 0.034195
v -0.962199 -3.964862 0.034195
v -0.965585 -3.967124 0.004235
v -0.965585 -3.967124 0.034195
v -0.965585 -3.967124 0.034195
v -0.967847 -3.970510 0.004235
v -0.967847 -3.970510 0.034195
v -0.967847 -3.970510 0.034195
v -0.968641 -3.974504 0.004235
v -0.968641 -3.974504 0.034195
v -0.968641 -3.974504 0.034195
v -0.967847 -3.978497 0.004235
v -0.967847 -3.978497 0.034195
v -0.967847 -3.978497 0.034195
v -0.965585 -3.981883 0.004235
v -0.965585 -3.981883 0.034195
v -0.965585 -3.981883 0.034195
v -0.962199 -3.984145 0.004235
v -0.962199 -3.984145 0.034195
v -0.962199 -3.984145 0.034195
v -0.958205 -3.984940 0.004235
v -0.958205 -3.984940 0.004235
v -0.958205 -3.984940 0.034195
v -0.958205 -3.984940 0.034195
v -0.958205 -3.984940 0.034195
v 2.009984 -3.953392 0.006060
v 2.009984 -3.953392 0.006060
v 2.009984 -3.949998 0.003344
v 2.009984 -3.949998 0.003344
v 2.009984 -3.999998 0.003344
v 2.009984 -3.999998 0.003344
v 2.009984 -3.996603 0.006060
v 2.009984 -3.996603 0.006060
v 2.009984 -3.953392 -0.007130
v 2.009984 -3.953392 -0.007130
v 2.009984 -3.949998 -0.004414
v 2.009984 -3.949998 -0.004414
v 2.009984 -3.996603 -0.007130
v 2.009984 -3.996603 -0.007130
v 2.009984 -3.999998 -0.004414
v 2.009984 -3.999998 -0.004414
v -2.010043 -3.953392 0.006060
v -2.010043 -3.953392 0.006060
v -2.010043 -3.949998 0.003344
v -2.010043 -3.949998 0.003344
v -2.010043 -3.999998 0.003344
v -2.010043 -3.999998 0.003344
v -2.010043 -3.996603 0.006060
v -2.010043 -3.996603 0.006060
v -2.010043 -3.953392 -0.007130
v -2.010043 -3.953392 -0.007130
v -2.010043 -3.949998 -0.004414
v -2.010043 -3.949998 -0.004414
v -2.010043 -3.996603 -0.007130
v -2.010043 -3.996603 -0.007130
v -2.010043 -3.999998 -0.004414
v -2.010043 -3.999998 -0.004414
v -2.010043 -3.949998 0.003344
v 2.009984 -3.949998 0.003344
v -2.010043 -0.000107 0.003344
v 2.009984 -0.000107 0.003344
v -2.010043 -3.949998 -0.004414
v 2.009984 -3.949998 -0.004414
v -2.010043 -0.000107 -0.004414
v 2.009984 -0.000107 -0.004414
v -2.010043 -0.565707 0.003344
v -2.010043 -1.131308 0.003344
v -2.010043 -1.696908 0.003344
v -2.010043 -2.262508 0.003344
v -2.010043 -2.828109 0.003344
v -2.010043 -3.393709 0.003344
v 2.009984 -3.393709 0.003344
v 2.009984 -2.828109 0.003344
v 2.009984 -2.262508 0.003344
v 2.009984 -1.696908 0.003344
v 2.009984 -1.131308 0.003344
v 2.009984 -0.565707 0.003344
v -2.010043 -3.393709 -0.004414
v -2.010043 -2.828109 -0.004414
v -2.010043 -2.262508 -0.004414
v -2.010043 -1.696908 -0.004414
v -2.010043 -1.131308 -0.004414
v -2.010043 -0.565707 -0.004414
v 2.009984 -0.565707 -0.004414
v 2.009984 -1.131308 -0.004414
v 2.009984 -1.696908 -0.004414
v 2.009984 -2.262508 -0.004414
v 2.009984 -2.828109 -0.004414
v 2.009984 -3.393709 -0.004414
vn -0.0000 -1.0000 -0.0000
vn -0.3827 -0.9239 -0.0000
vn -0.7071 -0.7071 -0.0000
vn -0.9239 -0.3827 -0.0000
vn -1.0000 -0.0000 -0.0000
vn -0.9239 0.3827 -0.0000
vn -0.7071 0.7071 -0.0000
vn -0.3827 0.9239 -0.0000
vn -0.0000 1.0000 -0.0000
vn 0.3827 0.9239 -0.0000
vn 0.7071 0.7071 -0.0000
vn 0.9239 0.3827 -0.0000
vn 1.0000 -0.0000 -0.0000
vn 0.9239 -0.3827 -0.0000
vn 0.7071 -0.7071 -0.0000
vn 0.3827 -0.9239 -0.0000
vn -0.0000 -0.0000 1.0000
vn -0.0000 0.6247 -0.7809
vn -0.0000 -0.6247 -0.7809
vn -0.0000 -0.6247 0.7809
vn -0.0000 0.6247 0.7809
vn -0.0000 -0.0000 -1.0000
vt 0.660165 0.753467
vt 0.660165 0.755018
vt 0.648760 0.755018
vt 0.648760 0.753467
vt 0.660165 0.756568
vt 0.648760 0.756568
vt 0.660165 0.758118
vt 0.648760 0.758118
vt 0.660165 0.759668
vt 0.648760 0.759668
vt 0.660165 0.761218
vt 0.648760 0.761218
vt 0.660165 0.762768
vt 0.648760 0.762768
vt 0.660165 0.764318
vt 0.648760 0.764318
vt 0.660165 0.765869
vt 0.648760 0.765869
vt 0.660165 0.767419
vt 0.648760 0.767419
vt 0.660165 0.768969
vt 0.648760 0.768969
vt 0.660165 0.770519
vt 0.648760 0.770519
vt 0.660165 0.772069
vt 0.648760 0.772069
vt 0.660165 0.773619
vt 0.648760 0.773619
vt 0.660165 0.775170
vt 0.648760 0.775170
vt 0.660165 0.776720
vt 0.648760 0.776720
vt 0.660165 0.778270
vt 0.648760 0.778270
vt 0.707656 0.760667
vt 0.705449 0.757363
vt 0.708753 0.759570
vt 0.702146 0.755156
vt 0.701553 0.756588
vt 0.707656 0.754060
vt 0.706224 0.753467
vt 0.704674 0.761260
vt 0.706224 0.761260
vt 0.709346 0.756588
vt 0.708753 0.755156
vt 0.703242 0.754060
vt 0.702146 0.759570
vt 0.703242 0.760667
vt 0.709346 0.758138
vt 0.704674 0.753467
vt 0.701553 0.758138
vt 0.693952 0.761261
vt 0.694727 0.757364
vt 0.695502 0.761261
vt 0.690831 0.758140
vt 0.691424 0.759572
vt 0.698031 0.759572
vt 0.698624 0.758140
vt 0.692520 0.754061
vt 0.691424 0.755157
vt 0.696934 0.760668
vt 0.696934 0.754061
vt 0.695502 0.753468
vt 0.686352 0.753468
vt 0.687902 0.753468
vt 0.687902 0.764873
vt 0.686352 0.764873
vt 0.683251 0.753468
vt 0.684802 0.753468
vt 0.684802 0.764873
vt 0.683251 0.764873
vt 0.680151 0.753468
vt 0.681701 0.753468
vt 0.681701 0.764873
vt 0.680151 0.764873
vt 0.677051 0.753468
vt 0.678601 0.753468
vt 0.678601 0.764873
vt 0.677051 0.764873
vt 0.673950 0.753468
vt 0.675501 0.753468
vt 0.675501 0.764873
vt 0.673950 0.764873
vt 0.670850 0.753468
vt 0.672400 0.753468
vt 0.672400 0.764873
vt 0.670850 0.764873
vt 0.667750 0.753468
vt 0.669300 0.753468
vt 0.669300 0.764873
vt 0.667750 0.764873
vt 0.664649 0.753468
vt 0.666200 0.753468
vt 0.666200 0.764873
vt 0.664649 0.764873
vt 0.690831 0.756589
vt 0.698624 0.756589
vt 0.692520 0.760668
vt 0.698031 0.755157
vt 0.693952 0.753468
vt 0.663099 0.753468
vt 0.663099 0.764873
vt 0.616915 0.863459
vt 0.997614 0.863459
vt 0.997614 0.865114
vt 0.616915 0.865114
vt 0.971971 0.415467
vt 0.971971 0.796166
vt 0.970316 0.796166
vt 0.970316 0.415467
vt 0.976561 0.415467
vt 0.976561 0.796166
vt 0.974906 0.796166
vt 0.974906 0.415467
vt 0.001467 0.993462
vt 0.382166 0.993462
vt 0.382166 0.995117
vt 0.001467 0.995117
vt 0.955619 0.415467
vt 0.955619 0.796166
vt 0.939169 0.796166
vt 0.939169 0.415467
vt 0.964431 0.796166
vt 0.964431 0.415467
vt 0.967385 0.415467
vt 0.967384 0.796166
vt 0.958547 0.796166
vt 0.958547 0.415467
vt 0.961501 0.415467
vt 0.961501 0.796166
vt 0.919789 0.796166
vt 0.919789 0.415467
vt 0.936239 0.415467
vt 0.936239 0.796166
vt 0.781858 0.001460
vt 0.781858 0.374535
vt 0.670373 0.374535
vt 0.670373 0.001460
vt 0.112952 0.001460
vt 0.112952 0.374535
vt 0.001467 0.374535
vt 0.001467 0.001460
vt 0.781858 0.377465
vt 0.781858 0.750540
vt 0.670374 0.750540
vt 0.670373 0.377465
vt 0.558889 0.750540
vt 0.558889 0.377465
vt 0.447405 0.750540
vt 0.447405 0.377465
vt 0.335921 0.750540
vt 0.335921 0.377465
vt 0.224436 0.750540
vt 0.224436 0.377465
vt 0.112952 0.750540
vt 0.112952 0.377465
vt 0.558889 0.374535
vt 0.558889 0.001460
vt 0.447405 0.374535
vt 0.447405 0.001460
vt 0.335920 0.374535
vt 0.335920 0.001460
vt 0.224436 0.374535
vt 0.224436 0.001460
vt 0.001468 0.750540
vt 0.001468 0.377465
s 1
usemtl m0
f 2/1/1 6/2/2 8/3/2
f 2/1/1 8/3/2 5/4/1
f 6/2/2 9/5/3 11/6/3
f 6/2/2 11/6/3 8/3/2
f 9/5/3 12/7/4 14/8/4
f 9/5/3 14/8/4 11/6/3
f 12/7/4 15/9/5 17/10/5
f 12/7/4 17/10/5 14/8/4
f 15/9/5 18/11/6 20/12/6
f 15/9/5 20/12/6 17/10/5
f 18/11/6 21/13/7 23/14/7
f 18/11/6 23/14/7 20/12/6
f 21/13/7 24/15/8 26/16/8
f 21/13/7 26/16/8 23/14/7
f 24/15/8 28/17/9 29/18/9
f 24/15/8 29/18/9 26/16/8
f 28/17/9 31/19/10 32/20/10
f 28/17/9 32/20/10 29/18/9
f 31/19/10 34/21/11 35/22/11
f 31/19/10 35/22/11 32/20/10
f 34/21/11 37/23/12 38/24/12
f 34/21/11 38/24/12 35/22/11
f 37/23/12 40/25/13 41/26/13
f 37/23/12 41/26/13 38/24/12
f 40/25/13 43/27/14 44/28/14
f 40/25/13 44/28/14 41/26/13
f 43/27/14 46/29/15 47/30/15
f 43/27/14 47/30/15 44/28/14
f 46/29/15 49/31/16 50/32/16
f 46/29/15 50/32/16 47/30/15
f 49/31/16 1/33/1 4/34/1
f 49/31/16 4/34/1 50/32/16
f 25/35/17 51/36/17 27/37/17
f 3/38/17 51/36/17 7/39/17
f 39/40/17 51/36/17 42/41/17
f 19/42/17 51/36/17 22/43/17
f 33/44/17 51/36/17 36/45/17
f 48/46/17 51/36/17 3/38/17
f 13/47/17 51/36/17 16/48/17
f 27/37/17 51/36/17 30/49/17
f 42/41/17 51/36/17 45/50/17
f 7/39/17 51/36/17 10/51/17
f 22/43/17 51/36/17 25/35/17
f 36/45/17 51/36/17 39/40/17
f 16/48/17 51/36/17 19/42/17
f 30/49/17 51/36/17 33/44/17
f 45/50/17 51/36/17 48/46/17
f 10/51/17 51/36/17 13/47/17
f 57/52/17 52/53/17 54/54/17
f 66/55/17 52/53/17 63/56/17
f 97/57/17 52/53/17 94/58/17
f 75/59/17 52/53/17 72/60/17
f 54/54/17 52/53/17 102/61/17
f 85/62/17 52/53/17 82/63/17
f 102/61/17 52/53/17 97/57/17
f 55/64/16 101/65/1 99/66/1
f 55/64/16 99/66/1 53/67/16
f 61/68/14 58/69/15 56/70/15
f 61/68/14 56/70/15 59/71/14
f 67/72/12 64/73/13 62/74/13
f 67/72/12 62/74/13 65/75/12
f 73/76/10 70/77/11 68/78/11
f 73/76/10 68/78/11 71/79/10
f 78/80/8 76/81/9 74/82/9
f 78/80/8 74/82/9 77/83/8
f 84/84/6 81/85/7 80/86/7
f 84/84/6 80/86/7 83/87/6
f 90/88/4 87/89/5 86/90/5
f 90/88/4 86/90/5 89/91/4
f 96/92/2 93/93/3 92/94/3
f 96/92/2 92/94/3 95/95/2
f 72/60/17 52/53/17 69/96/17
f 58/69/15 55/64/16 53/67/16
f 58/69/15 53/67/16 56/70/15
f 94/58/17 52/53/17 91/97/17
f 87/89/5 84/84/6 83/87/6
f 87/89/5 83/87/6 86/90/5
f 63/56/17 52/53/17 60/98/17
f 76/81/9 73/76/10 71/79/10
f 76/81/9 71/79/10 74/82/9
f 88/99/17 52/53/17 85/62/17
f 91/97/17 52/53/17 88/99/17
f 64/73/13 61/68/14 59/71/14
f 64/73/13 59/71/14 62/74/13
f 93/93/3 90/88/4 89/91/4
f 93/93/3 89/91/4 92/94/3
f 82/63/17 52/53/17 79/100/17
f 79/100/17 52/53/17 75/59/17
f 81/85/7 78/80/8 77/83/8
f 81/85/7 77/83/8 80/86/7
f 69/96/17 52/53/17 66/55/17
f 70/77/11 67/72/12 65/75/12
f 70/77/11 65/75/12 68/78/11
f 100/101/1 96/92/2 95/95/2
f 100/101/1 95/95/2 98/102/1
f 60/98/17 52/53/17 57/52/17
f 112/103/18 128/104/18 129/105/18
f 112/103/18 129/105/18 113/106/18
f 118/107/19 134/108/19 131/109/19
f 118/107/19 131/109/19 115/110/19
f 109/111/20 125/112/20 124/113/20
f 109/111/20 124/113/20 108/114/20
f 105/115/21 121/116/21 120/117/21
f 105/115/21 120/117/21 104/118/21
f 116/119/22 132/120/22 127/121/22
f 116/119/22 127/121/22 111/122/22
f 107/123/1 123/124/1 133/125/1
f 107/123/1 133/125/1 117/126/1
f 114/127/9 130/128/9 122/129/9
f 114/127/9 122/129/9 106/130/9
f 103/131/17 119/132/17 126/133/17
f 103/131/17 126/133/17 110/134/17
f 140/135/22 139/136/22 155/137/22
f 140/135/22 155/137/22 166/138/22
f 161/139/22 160/140/22 141/141/22
f 161/139/22 141/141/22 142/142/22
f 138/143/17 137/144/17 143/145/17
f 138/143/17 143/145/17 154/146/17
f 154/146/17 143/145/17 144/147/17
f 154/146/17 144/147/17 153/148/17
f 153/148/17 144/147/17 145/149/17
f 153/148/17 145/149/17 152/150/17
f 152/150/17 145/149/17 146/151/17
f 152/150/17 146/151/17 151/152/17
f 151/152/17 146/151/17 147/153/17
f 151/152/17 147/153/17 150/154/17
f 150/154/17 147/153/17 148/155/17
f 150/154/17 148/155/17 149/156/17
f 166/138/22 155/137/22 156/157/22
f 166/138/22 156/157/22 165/158/22
f 165/158/22 156/157/22 157/159/22
f 165/158/22 157/159/22 164/160/22
f 164/160/22 157/159/22 158/161/22
f 164/160/22 158/161/22 163/162/22
f 163/162/22 158/161/22 159/163/22
f 163/162/22 159/163/22 162/164/22
f 162/164/22 159/163/22 160/140/22
f 162/164/22 160/140/22 161/139/22
f 149/156/17 148/155/17 135/165/17
f 149/156/17 135/165/17 136/166/17
