# Blender 5.2.2 LTS
# www.blender.org
mtllib AlarmBell.mtl
o MCP_lowpoly_MCP_shader_0
v 0.026952 0.011164 0.041700
v 0.006168 0.002555 0.043500
v 0.006676 0.000000 0.043500
v 0.029173 0.000000 0.041700
v -0.020628 -0.020628 0.041700
v -0.004721 -0.004721 0.043500
v -0.006168 -0.002555 0.043500
v -0.026952 -0.011164 0.041700
v 0.020628 0.020628 0.041700
v 0.004721 0.004721 0.043500
v -0.011164 -0.026952 0.041700
v -0.002555 -0.006168 0.043500
v 0.011164 0.026952 0.041700
v 0.002555 0.006168 0.043500
v 0.000000 -0.029173 0.041700
v 0.000000 -0.006676 0.043500
v 0.011164 -0.026952 0.041700
v 0.002555 -0.006168 0.043500
v 0.000000 0.029173 0.041700
v 0.000000 0.006676 0.043500
v -0.020628 0.020628 0.041700
v -0.004721 0.004721 0.043500
v -0.002555 0.006168 0.043500
v -0.011164 0.026952 0.041700
v 0.020628 -0.020628 0.041700
v 0.004721 -0.004721 0.043500
v -0.026952 0.011164 0.041700
v -0.006168 0.002555 0.043500
v 0.026952 -0.011164 0.041700
v 0.006168 -0.002555 0.043500
v -0.029173 0.000000 0.041700
v -0.006676 0.000000 0.043500
v 0.055433 -0.022961 0.016535
v 0.053642 -0.022219 0.026811
v 0.041056 -0.041056 0.026811
v 0.042426 -0.042426 0.016535
v -0.060000 -0.000000 0.016535
v -0.058062 -0.000000 0.026811
v -0.053642 0.022219 0.026811
v -0.055433 0.022961 0.016535
v 0.060000 -0.000000 0.016535
v 0.058062 0.000000 0.026811
v -0.055433 -0.022961 0.016535
v -0.053642 -0.022219 0.026811
v 0.055433 0.022961 0.016535
v 0.053642 0.022219 0.026811
v -0.042426 -0.042426 0.016535
v -0.041056 -0.041056 0.026811
v 0.042426 0.042426 0.016535
v 0.041056 0.041056 0.026811
v -0.022961 -0.055433 0.016535
v -0.022219 -0.053642 0.026811
v 0.022961 0.055433 0.016535
v 0.022219 0.053642 0.026811
v 0.000000 -0.060000 0.016535
v 0.000000 -0.058062 0.026811
v -0.022961 0.055433 0.016535
v -0.022219 0.053642 0.026811
v 0.000000 0.058062 0.026811
v 0.000000 0.060000 0.016535
v 0.022961 -0.055433 0.016535
v 0.022219 -0.053642 0.026811
v -0.042426 0.042426 0.016535
v -0.041056 0.041056 0.026811
v -0.020735 0.050059 0.034617
v 0.000000 0.054183 0.034617
v -0.017495 0.042236 0.039900
v 0.000000 0.045716 0.039900
v -0.038313 0.038313 0.034617
v -0.032326 0.032326 0.039900
v -0.050059 0.020735 0.034617
v -0.042236 0.017495 0.039900
v -0.054183 0.000000 0.034617
v -0.045716 0.000000 0.039900
v -0.050059 -0.020735 0.034617
v -0.042236 -0.017495 0.039900
v -0.038313 -0.038313 0.034617
v -0.032326 -0.032326 0.039900
v -0.020735 -0.050059 0.034617
v -0.017495 -0.042236 0.039900
v 0.000000 -0.054183 0.034617
v 0.000000 -0.045716 0.039900
v 0.020735 -0.050059 0.034617
v 0.017495 -0.042236 0.039900
v 0.038313 -0.038313 0.034617
v 0.032326 -0.032326 0.039900
v 0.050059 -0.020735 0.034617
v 0.042236 -0.017495 0.039900
v 0.054183 0.000000 0.034617
v 0.045716 0.000000 0.039900
v 0.050059 0.020735 0.034617
v 0.042236 0.017495 0.039900
v 0.038313 0.038313 0.034617
v 0.032326 0.032326 0.039900
v 0.020735 0.050059 0.034617
v 0.017495 0.042236 0.039900
v -0.041321 0.041321 0.016535
v -0.053988 0.022363 0.016535
v 0.041321 -0.041321 0.016535
v 0.053988 -0.022363 0.016535
v -0.058436 -0.000000 0.016535
v 0.058436 -0.000000 0.016535
v -0.053988 -0.022363 0.016535
v 0.053988 0.022363 0.016535
v -0.041321 -0.041321 0.016535
v 0.041321 0.041321 0.016535
v -0.022363 -0.053988 0.016535
v 0.022363 0.053988 0.016535
v 0.000000 -0.058436 0.016535
v 0.000000 0.058436 0.016535
v -0.022363 0.053988 0.016535
v 0.022363 -0.053988 0.016535
v 0.052405 -0.021707 0.026110
v 0.056723 0.000000 0.026110
v -0.056723 -0.000000 0.026110
v -0.052405 -0.021707 0.026110
v 0.052405 0.021707 0.026110
v -0.040109 -0.040109 0.026110
v 0.040109 0.040109 0.026110
v -0.021707 -0.052405 0.026110
v 0.021707 0.052405 0.026110
v 0.000000 -0.056723 0.026110
v 0.000000 0.056723 0.026110
v -0.021707 0.052405 0.026110
v 0.021707 -0.052405 0.026110
v -0.040109 0.040109 0.026110
v 0.040109 -0.040109 0.026110
v -0.052405 0.021707 0.026110
v 0.004186 -0.007250 0.047715
v -0.004186 -0.007250 0.047715
v -0.004186 -0.007250 0.043612
v 0.004186 -0.007250 0.043612
v -0.008372 0.000000 0.047715
v -0.008372 0.000000 0.043612
v -0.004186 0.007250 0.047715
v -0.004186 0.007250 0.043612
v 0.004186 0.007250 0.047715
v 0.004186 0.007250 0.043612
v 0.008372 0.000000 0.047715
v 0.008372 0.000000 0.043612
v -0.047962 -0.050538 0.010001
v 0.047962 -0.050538 0.010001
v 0.018776 -0.021352 0.010001
v -0.018776 -0.021352 0.010001
v 0.050538 -0.047970 0.000000
v 0.050538 0.047970 0.000000
v 0.050538 0.047962 0.010001
v 0.050538 -0.047962 0.010001
v 0.047970 0.050538 0.000000
v -0.047970 0.050538 0.000000
v -0.047962 0.050538 0.010001
v 0.047962 0.050538 0.010001
v -0.047970 -0.050538 0.000000
v 0.047970 -0.050538 0.000000
v -0.050538 0.047962 0.010001
v -0.050538 -0.047962 0.010001
v -0.021352 -0.018776 0.010001
v -0.021352 0.018776 0.010001
v 0.021352 0.018776 0.010001
v 0.021352 -0.018776 0.010001
v -0.021352 -0.018784 0.023543
v -0.021352 0.018784 0.023543
v -0.018776 0.021352 0.010001
v 0.018776 0.021352 0.010001
v -0.018784 0.021352 0.023543
v 0.018784 0.021352 0.023543
v 0.018784 -0.021352 0.023543
v -0.018784 -0.021352 0.023543
v 0.021352 0.018784 0.023543
v 0.021352 -0.018784 0.023543
v -0.050538 -0.047970 0.000000
v -0.050538 0.047970 0.000000
vn 0.0885 0.0366 0.9954
vn 0.0737 0.0305 0.9968
vn 0.0798 -0.0000 0.9968
vn 0.0957 -0.0000 0.9954
vn -0.0677 -0.0677 0.9954
vn -0.0564 -0.0564 0.9968
vn -0.0737 -0.0305 0.9968
vn -0.0885 -0.0366 0.9954
vn 0.0677 0.0677 0.9954
vn 0.0564 0.0564 0.9968
vn -0.0366 -0.0885 0.9954
vn -0.0305 -0.0737 0.9968
vn 0.0366 0.0885 0.9954
vn 0.0305 0.0737 0.9968
vn -0.0000 -0.0767 0.9971
vn -0.0022 -0.0640 0.9979
vn 0.0366 -0.0885 0.9954
vn 0.0305 -0.0737 0.9968
vn -0.0000 0.0957 0.9954
vn -0.0000 0.0798 0.9968
vn -0.0677 0.0677 0.9954
vn -0.0564 0.0564 0.9968
vn -0.0305 0.0737 0.9968
vn -0.0366 0.0885 0.9954
vn 0.0677 -0.0677 0.9954
vn 0.0564 -0.0564 0.9968
vn -0.0885 0.0366 0.9954
vn -0.0737 0.0305 0.9968
vn 0.0885 -0.0366 0.9954
vn 0.0737 -0.0305 0.9968
vn -0.0957 -0.0000 0.9954
vn -0.0798 -0.0000 0.9968
vn 0.9079 -0.3761 0.1853
vn 0.8774 -0.3634 0.3131
vn 0.6715 -0.6715 0.3131
vn 0.6949 -0.6949 0.1853
vn -0.9827 -0.0000 0.1853
vn -0.9497 -0.0000 0.3131
vn -0.8774 0.3634 0.3131
vn -0.9079 0.3761 0.1853
vn 0.9827 -0.0000 0.1853
vn 0.9497 -0.0000 0.3131
vn -0.9079 -0.3761 0.1853
vn -0.8774 -0.3634 0.3131
vn 0.9079 0.3761 0.1853
vn 0.8774 0.3634 0.3131
vn -0.6949 -0.6949 0.1853
vn -0.6715 -0.6715 0.3131
vn 0.6949 0.6949 0.1853
vn 0.6715 0.6715 0.3131
vn -0.3761 -0.9079 0.1853
vn -0.3634 -0.8774 0.3131
vn 0.3761 0.9079 0.1853
vn 0.3634 0.8774 0.3131
vn 0.0376 -0.9991 -0.0204
vn -0.1965 -0.9273 0.3186
vn -0.3761 0.9079 0.1853
vn -0.3634 0.8774 0.3131
vn -0.0000 0.9497 0.3131
vn -0.0000 0.9827 0.1853
vn 0.3761 -0.9079 0.1853
vn 0.3634 -0.8774 0.3131
vn -0.6949 0.6949 0.1853
vn -0.6715 0.6715 0.3131
vn -0.2889 0.6976 0.6557
vn -0.0000 0.7550 0.6557
vn -0.1345 0.3246 0.9362
vn -0.0000 0.3514 0.9362
vn -0.5339 0.5339 0.6557
vn -0.2485 0.2485 0.9362
vn -0.6976 0.2889 0.6557
vn -0.3246 0.1345 0.9362
vn -0.7550 -0.0000 0.6557
vn -0.3514 -0.0000 0.9362
vn -0.6976 -0.2889 0.6557
vn -0.3246 -0.1345 0.9362
vn -0.5339 -0.5339 0.6557
vn -0.2485 -0.2485 0.9362
vn -0.2889 -0.6976 0.6557
vn -0.1345 -0.3246 0.9362
vn -0.1522 -0.7331 0.6629
vn -0.0691 -0.3385 0.9384
vn 0.2889 -0.6976 0.6557
vn 0.1345 -0.3246 0.9362
vn 0.5339 -0.5339 0.6557
vn 0.2485 -0.2485 0.9362
vn 0.6976 -0.2889 0.6557
vn 0.3246 -0.1345 0.9362
vn 0.7550 -0.0000 0.6557
vn 0.3514 -0.0000 0.9362
vn 0.6976 0.2889 0.6557
vn 0.3246 0.1345 0.9362
vn 0.5339 0.5339 0.6557
vn 0.2485 0.2485 0.9362
vn 0.2889 0.6976 0.6557
vn 0.1345 0.3246 0.9362
vn -0.0000 -0.0000 -1.0000
vn 0.2257 0.5448 -0.8076
vn 0.1079 0.6001 -0.7926
vn -0.9094 0.3767 -0.1762
vn -0.9844 -0.0000 -0.1762
vn 0.9844 -0.0000 -0.1762
vn 0.9094 0.3767 -0.1762
vn -0.9094 -0.3767 -0.1762
vn 0.6960 0.6960 -0.1762
vn -0.6960 -0.6960 -0.1762
vn 0.3767 0.9094 -0.1762
vn -0.3767 -0.9094 -0.1762
vn -0.0858 0.9423 -0.3236
vn -0.0000 -0.9844 -0.1762
vn 0.3767 -0.9094 -0.1762
vn -0.3767 0.9094 -0.1762
vn 0.6960 -0.6960 -0.1762
vn -0.6960 0.6960 -0.1762
vn 0.9094 -0.3767 -0.1762
vn -0.0000 -1.0000 -0.0000
vn -0.5196 -0.3000 0.8000
vn -0.8660 -0.5000 -0.0000
vn -0.8660 0.5000 -0.0000
vn -0.5196 0.3000 -0.8000
vn -0.0000 1.0000 -0.0000
vn 0.8660 -0.5000 -0.0000
vn 0.5196 -0.3000 -0.8000
vn 0.5196 0.3000 0.8000
vn 0.8660 0.5000 -0.0000
vn -0.2970 -0.7173 0.6304
vn 0.2969 -0.7172 0.6304
vn 0.2274 -0.5492 0.8041
vn -0.2274 -0.5492 0.8041
vn 0.9238 -0.3828 0.0003
vn 0.9238 0.3828 0.0003
vn 0.7172 0.2969 0.6304
vn 0.7173 -0.2970 0.6304
vn 0.3828 0.9238 0.0003
vn -0.3828 0.9238 0.0003
vn -0.2969 0.7172 0.6304
vn 0.2970 0.7173 0.6304
vn -0.3828 -0.9238 0.0003
vn 0.3828 -0.9238 0.0003
vn -0.7173 0.2970 0.6304
vn -0.7172 -0.2969 0.6304
vn -0.5492 -0.2274 0.8041
vn -0.5492 0.2274 0.8041
vn 0.5492 0.2274 0.8041
vn 0.5492 -0.2274 0.8041
vn -0.9238 -0.3828 -0.0002
vn -0.9238 0.3828 -0.0002
vn -0.2274 0.5492 0.8041
vn 0.2274 0.5492 0.8041
vn -0.3828 0.9238 -0.0002
vn 0.3828 0.9238 -0.0002
vn 0.3828 -0.9238 -0.0002
vn -0.3828 -0.9238 -0.0002
vn 0.9238 0.3828 -0.0002
vn 0.9238 -0.3828 -0.0002
vn -0.9238 -0.3828 0.0003
vn -0.9238 0.3828 0.0003
vn -0.0000 -0.0000 1.0000
vt 0.131681 0.541322
vt 0.180389 0.541322
vt 0.180389 0.502610
vt 0.131681 0.502610
vt 0.131681 0.889730
vt 0.180389 0.889730
vt 0.180389 0.851018
vt 0.131681 0.851018
vt 0.131681 0.580034
vt 0.180389 0.580034
vt 0.131681 0.928442
vt 0.180389 0.928442
vt 0.131681 0.618746
vt 0.180389 0.618746
vt 0.131681 0.967155
vt 0.180389 0.967155
vt 0.131681 0.386474
vt 0.180389 0.386474
vt 0.180389 0.347762
vt 0.131681 0.347762
vt 0.131681 0.657458
vt 0.180389 0.657458
vt 0.131681 0.734882
vt 0.180389 0.734882
vt 0.180389 0.696170
vt 0.131681 0.696170
vt 0.131681 0.425186
vt 0.180389 0.425186
vt 0.131681 0.773594
vt 0.180389 0.773594
vt 0.131681 0.463898
vt 0.180389 0.463898
vt 0.131681 0.812306
vt 0.180389 0.812306
vt 0.032845 0.463898
vt 0.055416 0.463898
vt 0.055416 0.425186
vt 0.032845 0.425186
vt 0.032845 0.812306
vt 0.055416 0.812306
vt 0.055416 0.773594
vt 0.032845 0.773594
vt 0.032845 0.502610
vt 0.055416 0.502610
vt 0.032845 0.851018
vt 0.055416 0.851018
vt 0.032845 0.541322
vt 0.055416 0.541322
vt 0.032845 0.889731
vt 0.055416 0.889730
vt 0.032845 0.580034
vt 0.055416 0.580034
vt 0.032845 0.928442
vt 0.055416 0.928442
vt 0.032845 0.618746
vt 0.055416 0.618746
vt 0.032845 0.967155
vt 0.055416 0.967155
vt 0.032845 0.696170
vt 0.055416 0.696170
vt 0.055416 0.657458
vt 0.032845 0.657458
vt 0.032845 0.386474
vt 0.055416 0.386474
vt 0.055416 0.347762
vt 0.032845 0.347762
vt 0.032845 0.734882
vt 0.055416 0.734882
vt 0.074227 0.696170
vt 0.074227 0.657458
vt 0.095766 0.696170
vt 0.095766 0.657458
vt 0.074227 0.734882
vt 0.095766 0.734882
vt 0.074227 0.773594
vt 0.095766 0.773594
vt 0.074227 0.812306
vt 0.095766 0.812306
vt 0.074227 0.851018
vt 0.095766 0.851018
vt 0.074227 0.889730
vt 0.095766 0.889730
vt 0.074227 0.928442
vt 0.095766 0.928442
vt 0.074227 0.967155
vt 0.095766 0.967155
vt 0.074227 0.386474
vt 0.074227 0.347762
vt 0.095766 0.386474
vt 0.095766 0.347762
vt 0.074227 0.425186
vt 0.095766 0.425186
vt 0.074227 0.463898
vt 0.095766 0.463898
vt 0.074227 0.502610
vt 0.095766 0.502610
vt 0.074227 0.541322
vt 0.095766 0.541322
vt 0.074227 0.580034
vt 0.095766 0.580034
vt 0.074227 0.618746
vt 0.095766 0.618746
vt 0.763947 0.459031
vt 0.767611 0.459031
vt 0.767611 0.408219
vt 0.763947 0.408219
vt 0.763947 0.865530
vt 0.767611 0.865530
vt 0.767611 0.814718
vt 0.763947 0.814718
vt 0.767611 0.357407
vt 0.763947 0.357407
vt 0.767611 0.763905
vt 0.763947 0.763905
vt 0.767610 0.306594
vt 0.763947 0.306594
vt 0.767611 0.713093
vt 0.763947 0.713093
vt 0.767610 0.255782
vt 0.763947 0.255782
vt 0.767611 0.662280
vt 0.763947 0.662280
vt 0.767610 0.204970
vt 0.763947 0.204970
vt 0.767611 0.611468
vt 0.763947 0.611468
vt 0.767610 0.154157
vt 0.763947 0.154157
vt 0.763947 0.560656
vt 0.767611 0.560656
vt 0.767611 0.509844
vt 0.763947 0.509844
vt 0.763947 0.967155
vt 0.767610 0.967155
vt 0.767611 0.916342
vt 0.763947 0.916342
vt 0.790401 0.814718
vt 0.790401 0.763905
vt 0.790401 0.357407
vt 0.790401 0.306594
vt 0.790401 0.713093
vt 0.790401 0.255782
vt 0.790401 0.662280
vt 0.790401 0.204970
vt 0.790401 0.611468
vt 0.790401 0.154157
vt 0.790401 0.560656
vt 0.790401 0.509844
vt 0.790401 0.967155
vt 0.790401 0.916342
vt 0.790401 0.459031
vt 0.790401 0.865530
vt 0.790401 0.408219
vt 0.069299 0.238857
vt 0.081450 0.253262
vt 0.088509 0.247307
vt 0.076358 0.232902
vt 0.093601 0.267667
vt 0.100660 0.261712
vt 0.105752 0.282071
vt 0.112811 0.276117
vt 0.032845 0.195642
vt 0.044997 0.210046
vt 0.052056 0.204092
vt 0.039904 0.189687
vt 0.057148 0.224451
vt 0.064207 0.218497
vt 0.692458 0.739625
vt 0.476526 0.739625
vt 0.542225 0.805325
vt 0.626759 0.805325
vt 0.382523 0.283950
vt 0.382523 0.499915
vt 0.405037 0.499915
vt 0.405037 0.283950
vt 0.382523 0.511685
vt 0.382523 0.727650
vt 0.405036 0.727650
vt 0.405037 0.511685
vt 0.382523 0.056215
vt 0.382523 0.272180
vt 0.405037 0.272180
vt 0.405037 0.056215
vt 0.698256 0.961356
vt 0.698256 0.745424
vt 0.632557 0.811123
vt 0.632557 0.895657
vt 0.470727 0.745424
vt 0.470727 0.961356
vt 0.536427 0.895656
vt 0.536427 0.811123
vt 0.886575 0.492552
vt 0.886575 0.342527
vt 0.856092 0.342527
vt 0.856092 0.492552
vt 0.476526 0.967155
vt 0.692458 0.967154
vt 0.626759 0.901455
vt 0.542225 0.901455
vt 0.886575 0.650753
vt 0.886575 0.500728
vt 0.856092 0.500728
vt 0.856092 0.650753
vt 0.886575 0.967155
vt 0.886575 0.817130
vt 0.856092 0.817130
vt 0.856092 0.967155
vt 0.886575 0.808954
vt 0.886575 0.658929
vt 0.856092 0.658929
vt 0.856092 0.808954
vt 0.405037 0.955385
vt 0.382523 0.955385
vt 0.382523 0.967155
vt 0.405037 0.967155
vt 0.382523 0.739420
vt 0.405036 0.739420
vt 0.886575 0.334351
vt 0.856092 0.334351
vt 0.056608 0.274886
vt 0.075105 0.271276
vt 0.044234 0.260672
vt 0.050356 0.242848
vt 0.112811 0.225956
vt 0.106689 0.243779
vt 0.100437 0.211742
vt 0.081940 0.215352
s 1
usemtl m0
f 1/1/1 2/2/2 3/3/3
f 1/1/1 3/3/3 4/4/4
f 5/5/5 6/6/6 7/7/7
f 5/5/5 7/7/7 8/8/8
f 9/9/9 10/10/10 2/2/2
f 9/9/9 2/2/2 1/1/1
f 11/11/11 12/12/12 6/6/6
f 11/11/11 6/6/6 5/5/5
f 13/13/13 14/14/14 10/10/10
f 13/13/13 10/10/10 9/9/9
f 15/15/15 16/16/16 12/12/12
f 15/15/15 12/12/12 11/11/11
f 17/17/17 18/18/18 16/19/16
f 17/17/17 16/19/16 15/20/15
f 19/21/19 20/22/20 14/14/14
f 19/21/19 14/14/14 13/13/13
f 21/23/21 22/24/22 23/25/23
f 21/23/21 23/25/23 24/26/24
f 25/27/25 26/28/26 18/18/18
f 25/27/25 18/18/18 17/17/17
f 27/29/27 28/30/28 22/24/22
f 27/29/27 22/24/22 21/23/21
f 29/31/29 30/32/30 26/28/26
f 29/31/29 26/28/26 25/27/25
f 31/33/31 32/34/32 28/30/28
f 31/33/31 28/30/28 27/29/27
f 4/4/4 3/3/3 30/32/30
f 4/4/4 30/32/30 29/31/29
f 8/8/8 7/7/7 32/34/32
f 8/8/8 32/34/32 31/33/31
f 33/35/33 34/36/34 35/37/35
f 33/35/33 35/37/35 36/38/36
f 37/39/37 38/40/38 39/41/39
f 37/39/37 39/41/39 40/42/40
f 41/43/41 42/44/42 34/36/34
f 41/43/41 34/36/34 33/35/33
f 43/45/43 44/46/44 38/40/38
f 43/45/43 38/40/38 37/39/37
f 45/47/45 46/48/46 42/44/42
f 45/47/45 42/44/42 41/43/41
f 47/49/47 48/50/48 44/46/44
f 47/49/47 44/46/44 43/45/43
f 49/51/49 50/52/50 46/48/46
f 49/51/49 46/48/46 45/47/45
f 51/53/51 52/54/52 48/50/48
f 51/53/51 48/50/48 47/49/47
f 53/55/53 54/56/54 50/52/50
f 53/55/53 50/52/50 49/51/49
f 55/57/55 56/58/56 52/54/52
f 55/57/55 52/54/52 51/53/51
f 57/59/57 58/60/58 59/61/59
f 57/59/57 59/61/59 60/62/60
f 60/62/60 59/61/59 54/56/54
f 60/62/60 54/56/54 53/55/53
f 61/63/61 62/64/62 56/65/56
f 61/63/61 56/65/56 55/66/55
f 63/67/63 64/68/64 58/60/58
f 63/67/63 58/60/58 57/59/57
f 36/38/36 35/37/35 62/64/62
f 36/38/36 62/64/62 61/63/61
f 40/42/40 39/41/39 64/68/64
f 40/42/40 64/68/64 63/67/63
f 58/60/58 65/69/65 66/70/66
f 58/60/58 66/70/66 59/61/59
f 65/69/65 67/71/67 68/72/68
f 65/69/65 68/72/68 66/70/66
f 64/68/64 69/73/69 65/69/65
f 64/68/64 65/69/65 58/60/58
f 69/73/69 70/74/70 67/71/67
f 69/73/69 67/71/67 65/69/65
f 39/41/39 71/75/71 69/73/69
f 39/41/39 69/73/69 64/68/64
f 71/75/71 72/76/72 70/74/70
f 71/75/71 70/74/70 69/73/69
f 38/40/38 73/77/73 71/75/71
f 38/40/38 71/75/71 39/41/39
f 73/77/73 74/78/74 72/76/72
f 73/77/73 72/76/72 71/75/71
f 44/46/44 75/79/75 73/77/73
f 44/46/44 73/77/73 38/40/38
f 75/79/75 76/80/76 74/78/74
f 75/79/75 74/78/74 73/77/73
f 48/50/48 77/81/77 75/79/75
f 48/50/48 75/79/75 44/46/44
f 77/81/77 78/82/78 76/80/76
f 77/81/77 76/80/76 75/79/75
f 52/54/52 79/83/79 77/81/77
f 52/54/52 77/81/77 48/50/48
f 79/83/79 80/84/80 78/82/78
f 79/83/79 78/82/78 77/81/77
f 56/58/56 81/85/81 79/83/79
f 56/58/56 79/83/79 52/54/52
f 81/85/81 82/86/82 80/84/80
f 81/85/81 80/84/80 79/83/79
f 62/64/62 83/87/83 81/88/81
f 62/64/62 81/88/81 56/65/56
f 83/87/83 84/89/84 82/90/82
f 83/87/83 82/90/82 81/88/81
f 35/37/35 85/91/85 83/87/83
f 35/37/35 83/87/83 62/64/62
f 85/91/85 86/92/86 84/89/84
f 85/91/85 84/89/84 83/87/83
f 34/36/34 87/93/87 85/91/85
f 34/36/34 85/91/85 35/37/35
f 87/93/87 88/94/88 86/92/86
f 87/93/87 86/92/86 85/91/85
f 42/44/42 89/95/89 87/93/87
f 42/44/42 87/93/87 34/36/34
f 89/95/89 90/96/90 88/94/88
f 89/95/89 88/94/88 87/93/87
f 46/48/46 91/97/91 89/95/89
f 46/48/46 89/95/89 42/44/42
f 91/97/91 92/98/92 90/96/90
f 91/97/91 90/96/90 89/95/89
f 50/52/50 93/99/93 91/97/91
f 50/52/50 91/97/91 46/48/46
f 93/99/93 94/100/94 92/98/92
f 93/99/93 92/98/92 91/97/91
f 54/56/54 95/101/95 93/99/93
f 54/56/54 93/99/93 50/52/50
f 95/101/95 96/102/96 94/100/94
f 95/101/95 94/100/94 93/99/93
f 59/61/59 66/70/66 95/101/95
f 59/61/59 95/101/95 54/56/54
f 66/70/66 68/72/68 96/102/96
f 66/70/66 96/102/96 95/101/95
f 24/26/24 23/25/23 20/22/20
f 24/26/24 20/22/20 19/21/19
f 67/71/67 24/26/24 19/21/19
f 67/71/67 19/21/19 68/72/68
f 76/80/76 8/8/8 31/33/31
f 76/80/76 31/33/31 74/78/74
f 90/96/90 4/4/4 29/31/29
f 90/96/90 29/31/29 88/94/88
f 74/78/74 31/33/31 27/29/27
f 74/78/74 27/29/27 72/76/72
f 88/94/88 29/31/29 25/27/25
f 88/94/88 25/27/25 86/92/86
f 72/76/72 27/29/27 21/23/21
f 72/76/72 21/23/21 70/74/70
f 86/92/86 25/27/25 17/17/17
f 86/92/86 17/17/17 84/89/84
f 70/74/70 21/23/21 24/26/24
f 70/74/70 24/26/24 67/71/67
f 68/72/68 19/21/19 13/13/13
f 68/72/68 13/13/13 96/102/96
f 84/89/84 17/17/17 15/20/15
f 84/89/84 15/20/15 82/90/82
f 82/86/82 15/15/15 11/11/11
f 82/86/82 11/11/11 80/84/80
f 96/102/96 13/13/13 9/9/9
f 96/102/96 9/9/9 94/100/94
f 80/84/80 11/11/11 5/5/5
f 80/84/80 5/5/5 78/82/78
f 94/100/94 9/9/9 1/1/1
f 94/100/94 1/1/1 92/98/92
f 78/82/78 5/5/5 8/8/8
f 78/82/78 8/8/8 76/80/76
f 92/98/92 1/1/1 4/4/4
f 92/98/92 4/4/4 90/96/90
f 63/103/97 97/104/97 98/105/97
f 63/103/97 98/105/97 40/106/97
f 36/107/97 99/108/97 100/109/97
f 36/107/97 100/109/97 33/110/97
f 40/106/97 98/105/97 101/111/97
f 40/106/97 101/111/97 37/112/97
f 33/110/97 100/109/97 102/113/97
f 33/110/97 102/113/97 41/114/97
f 37/112/97 101/111/97 103/115/97
f 37/112/97 103/115/97 43/116/97
f 41/114/97 102/113/97 104/117/97
f 41/114/97 104/117/97 45/118/97
f 43/116/97 103/115/97 105/119/97
f 43/116/97 105/119/97 47/120/97
f 45/118/97 104/117/97 106/121/97
f 45/118/97 106/121/97 49/122/97
f 47/120/97 105/119/97 107/123/98
f 47/120/97 107/123/98 51/124/97
f 49/122/97 106/121/97 108/125/97
f 49/122/97 108/125/97 53/126/97
f 51/124/97 107/123/98 109/127/99
f 51/124/97 109/127/99 55/128/97
f 60/129/97 110/130/97 111/131/97
f 60/129/97 111/131/97 57/132/97
f 53/126/97 108/125/97 110/130/97
f 53/126/97 110/130/97 60/129/97
f 55/133/97 109/134/99 112/135/97
f 55/133/97 112/135/97 61/136/97
f 57/132/97 111/131/97 97/104/97
f 57/132/97 97/104/97 63/103/97
f 61/136/97 112/135/97 99/108/97
f 61/136/97 99/108/97 36/107/97
f 100/109/100 113/137/100 114/138/101
f 100/109/100 114/138/101 102/113/101
f 101/111/102 115/139/102 116/140/103
f 101/111/102 116/140/103 103/115/103
f 102/113/101 114/138/101 117/141/104
f 102/113/101 117/141/104 104/117/104
f 103/115/103 116/140/103 118/142/105
f 103/115/103 118/142/105 105/119/105
f 104/117/104 117/141/104 119/143/106
f 104/117/104 119/143/106 106/121/106
f 105/119/105 118/142/105 120/144/107
f 105/119/105 120/144/107 107/123/98
f 106/121/106 119/143/106 121/145/108
f 106/121/106 121/145/108 108/125/108
f 107/123/98 120/144/107 122/146/109
f 107/123/98 122/146/109 109/127/99
f 110/130/110 123/147/110 124/148/111
f 110/130/110 124/148/111 111/131/111
f 108/125/108 121/145/108 123/147/110
f 108/125/108 123/147/110 110/130/110
f 109/134/99 122/149/109 125/150/112
f 109/134/99 125/150/112 112/135/112
f 111/131/111 124/148/111 126/151/113
f 111/131/111 126/151/113 97/104/113
f 112/135/112 125/150/112 127/152/114
f 112/135/112 127/152/114 99/108/114
f 97/104/113 126/151/113 128/153/115
f 97/104/113 128/153/115 98/105/115
f 99/108/114 127/152/114 113/137/100
f 99/108/114 113/137/100 100/109/100
f 98/105/115 128/153/115 115/139/102
f 98/105/115 115/139/102 101/111/102
f 129/154/116 130/155/116 131/156/116
f 129/154/116 131/156/116 132/157/116
f 130/155/117 133/158/117 134/159/118
f 130/155/117 134/159/118 131/156/118
f 133/158/119 135/160/119 136/161/120
f 133/158/119 136/161/120 134/159/120
f 135/162/121 137/163/121 138/164/121
f 135/162/121 138/164/121 136/165/121
f 139/166/122 129/154/122 132/157/123
f 139/166/122 132/157/123 140/167/123
f 137/163/124 139/166/124 140/167/125
f 137/163/124 140/167/125 138/164/125
f 141/168/126 142/169/127 143/170/128
f 141/168/126 143/170/128 144/171/129
f 145/172/130 146/173/131 147/174/132
f 145/172/130 147/174/132 148/175/133
f 149/176/134 150/177/135 151/178/136
f 149/176/134 151/178/136 152/179/137
f 153/180/138 154/181/139 142/182/127
f 153/180/138 142/182/127 141/183/126
f 155/184/140 156/185/141 157/186/142
f 155/184/140 157/186/142 158/187/143
f 148/188/133 147/189/132 159/190/144
f 148/188/133 159/190/144 160/191/145
f 158/192/143 157/193/142 161/194/146
f 158/192/143 161/194/146 162/195/147
f 152/196/137 151/197/136 163/198/148
f 152/196/137 163/198/148 164/199/149
f 164/200/149 163/201/148 165/202/150
f 164/200/149 165/202/150 166/203/151
f 144/204/129 143/205/128 167/206/152
f 144/204/129 167/206/152 168/207/153
f 160/208/145 159/209/144 169/210/154
f 160/208/145 169/210/154 170/211/155
f 145/172/130 148/175/133 142/182/127
f 145/172/130 142/182/127 154/181/139
f 156/212/141 171/213/156 153/214/138
f 156/212/141 153/214/138 141/215/126
f 149/176/134 152/179/137 147/174/132
f 149/176/134 147/174/132 146/173/131
f 151/178/136 150/177/135 172/216/157
f 151/178/136 172/216/157 155/217/140
f 155/184/140 158/187/143 163/198/148
f 155/184/140 163/198/148 151/197/136
f 159/190/144 147/189/132 152/196/137
f 159/190/144 152/196/137 164/199/149
f 148/188/133 160/191/145 143/170/128
f 148/188/133 143/170/128 142/169/127
f 157/186/142 156/185/141 141/168/126
f 157/186/142 141/168/126 144/171/129
f 164/200/149 166/203/151 169/210/154
f 164/200/149 169/210/154 159/209/144
f 167/206/152 143/205/128 160/208/145
f 167/206/152 160/208/145 170/211/155
f 144/218/129 168/219/153 161/194/146
f 144/218/129 161/194/146 157/193/142
f 165/202/150 163/201/148 158/192/143
f 165/202/150 158/192/143 162/195/147
f 172/216/157 171/213/156 156/212/141
f 172/216/157 156/212/141 155/217/140
f 130/155/117 135/220/158 133/221/117
f 135/220/158 130/155/117 129/154/158
f 135/220/158 129/154/158 137/222/124
f 137/222/124 129/154/158 139/223/124
f 136/224/120 131/156/97 134/225/120
f 131/156/97 136/224/120 138/226/97
f 131/156/97 138/226/97 132/157/123
f 132/157/123 138/226/97 140/227/123
