# Blender 5.2.2 LTS
# www.blender.org
mtllib StainlessBacksplash.mtl
o StainlessBacksplash
v -0.600000 0.000000 0.002000
v -0.600000 0.000000 0.000000
v -0.600000 0.890000 0.000000
v -0.600000 0.893653 0.000691
v -0.600000 0.896802 0.002669
v -0.600000 0.899010 0.005661
v -0.600000 0.899972 0.009253
v -0.600000 0.899556 0.012948
v -0.600000 0.897818 0.016235
v -0.600000 0.895000 0.018660
v -0.600000 0.891490 0.019888
v -0.600000 0.887775 0.019749
v -0.600000 0.884367 0.018262
v -0.600000 0.881738 0.015633
v -0.600000 0.880251 0.012225
v -0.600000 0.880112 0.008510
v -0.600000 0.881340 0.005000
v -0.600000 0.872000 0.002000
v 0.600000 0.000000 0.002000
v 0.600000 0.000000 0.000000
v 0.600000 0.890000 0.000000
v 0.600000 0.893653 0.000691
v 0.600000 0.896802 0.002669
v 0.600000 0.899010 0.005661
v 0.600000 0.899972 0.009253
v 0.600000 0.899556 0.012948
v 0.600000 0.897818 0.016235
v 0.600000 0.895000 0.018660
v 0.600000 0.891490 0.019888
v 0.600000 0.887775 0.019749
v 0.600000 0.884367 0.018262
v 0.600000 0.881738 0.015633
v 0.600000 0.880251 0.012225
v 0.600000 0.880112 0.008510
v 0.600000 0.881340 0.005000
v 0.600000 0.872000 0.002000
v -0.525000 0.852500 0.002000
v -0.530303 0.850303 0.002000
v -0.532500 0.845000 0.002000
v -0.530303 0.839697 0.002000
v -0.525000 0.837500 0.002000
v -0.519697 0.839697 0.002000
v -0.517500 0.845000 0.002000
v -0.519697 0.850303 0.002000
v -0.525000 0.852500 0.003200
v -0.530303 0.850303 0.003200
v -0.532500 0.845000 0.003200
v -0.530303 0.839697 0.003200
v -0.525000 0.837500 0.003200
v -0.519697 0.839697 0.003200
v -0.517500 0.845000 0.003200
v -0.519697 0.850303 0.003200
v -0.525000 0.850500 0.005300
v -0.528889 0.848889 0.005300
v -0.530500 0.845000 0.005300
v -0.528889 0.841111 0.005300
v -0.525000 0.839500 0.005300
v -0.521111 0.841111 0.005300
v -0.519500 0.845000 0.005300
v -0.521111 0.848889 0.005300
v -0.525000 0.845000 0.006000
v -0.375000 0.852500 0.002000
v -0.380303 0.850303 0.002000
v -0.382500 0.845000 0.002000
v -0.380303 0.839697 0.002000
v -0.375000 0.837500 0.002000
v -0.369697 0.839697 0.002000
v -0.367500 0.845000 0.002000
v -0.369697 0.850303 0.002000
v -0.375000 0.852500 0.003200
v -0.380303 0.850303 0.003200
v -0.382500 0.845000 0.003200
v -0.380303 0.839697 0.003200
v -0.375000 0.837500 0.003200
v -0.369697 0.839697 0.003200
v -0.367500 0.845000 0.003200
v -0.369697 0.850303 0.003200
v -0.375000 0.850500 0.005300
v -0.378889 0.848889 0.005300
v -0.380500 0.845000 0.005300
v -0.378889 0.841111 0.005300
v -0.375000 0.839500 0.005300
v -0.371111 0.841111 0.005300
v -0.369500 0.845000 0.005300
v -0.371111 0.848889 0.005300
v -0.375000 0.845000 0.006000
v -0.225000 0.852500 0.002000
v -0.230303 0.850303 0.002000
v -0.232500 0.845000 0.002000
v -0.230303 0.839697 0.002000
v -0.225000 0.837500 0.002000
v -0.219697 0.839697 0.002000
v -0.217500 0.845000 0.002000
v -0.219697 0.850303 0.002000
v -0.225000 0.852500 0.003200
v -0.230303 0.850303 0.003200
v -0.232500 0.845000 0.003200
v -0.230303 0.839697 0.003200
v -0.225000 0.837500 0.003200
v -0.219697 0.839697 0.003200
v -0.217500 0.845000 0.003200
v -0.219697 0.850303 0.003200
v -0.225000 0.850500 0.005300
v -0.228889 0.848889 0.005300
v -0.230500 0.845000 0.005300
v -0.228889 0.841111 0.005300
v -0.225000 0.839500 0.005300
v -0.221111 0.841111 0.005300
v -0.219500 0.845000 0.005300
v -0.221111 0.848889 0.005300
v -0.225000 0.845000 0.006000
v -0.075000 0.852500 0.002000
v -0.080303 0.850303 0.002000
v -0.082500 0.845000 0.002000
v -0.080303 0.839697 0.002000
v -0.075000 0.837500 0.002000
v -0.069697 0.839697 0.002000
v -0.067500 0.845000 0.002000
v -0.069697 0.850303 0.002000
v -0.075000 0.852500 0.003200
v -0.080303 0.850303 0.003200
v -0.082500 0.845000 0.003200
v -0.080303 0.839697 0.003200
v -0.075000 0.837500 0.003200
v -0.069697 0.839697 0.003200
v -0.067500 0.845000 0.003200
v -0.069697 0.850303 0.003200
v -0.075000 0.850500 0.005300
v -0.078889 0.848889 0.005300
v -0.080500 0.845000 0.005300
v -0.078889 0.841111 0.005300
v -0.075000 0.839500 0.005300
v -0.071111 0.841111 0.005300
v -0.069500 0.845000 0.005300
v -0.071111 0.848889 0.005300
v -0.075000 0.845000 0.006000
v 0.075000 0.852500 0.002000
v 0.069697 0.850303 0.002000
v 0.067500 0.845000 0.002000
v 0.069697 0.839697 0.002000
v 0.075000 0.837500 0.002000
v 0.080303 0.839697 0.002000
v 0.082500 0.845000 0.002000
v 0.080303 0.850303 0.002000
v 0.075000 0.852500 0.003200
v 0.069697 0.850303 0.003200
v 0.067500 0.845000 0.003200
v 0.069697 0.839697 0.003200
v 0.075000 0.837500 0.003200
v 0.080303 0.839697 0.003200
v 0.082500 0.845000 0.003200
v 0.080303 0.850303 0.003200
v 0.075000 0.850500 0.005300
v 0.071111 0.848889 0.005300
v 0.069500 0.845000 0.005300
v 0.071111 0.841111 0.005300
v 0.075000 0.839500 0.005300
v 0.078889 0.841111 0.005300
v 0.080500 0.845000 0.005300
v 0.078889 0.848889 0.005300
v 0.075000 0.845000 0.006000
v 0.225000 0.852500 0.002000
v 0.219697 0.850303 0.002000
v 0.217500 0.845000 0.002000
v 0.219697 0.839697 0.002000
v 0.225000 0.837500 0.002000
v 0.230303 0.839697 0.002000
v 0.232500 0.845000 0.002000
v 0.230303 0.850303 0.002000
v 0.225000 0.852500 0.003200
v 0.219697 0.850303 0.003200
v 0.217500 0.845000 0.003200
v 0.219697 0.839697 0.003200
v 0.225000 0.837500 0.003200
v 0.230303 0.839697 0.003200
v 0.232500 0.845000 0.003200
v 0.230303 0.850303 0.003200
v 0.225000 0.850500 0.005300
v 0.221111 0.848889 0.005300
v 0.219500 0.845000 0.005300
v 0.221111 0.841111 0.005300
v 0.225000 0.839500 0.005300
v 0.228889 0.841111 0.005300
v 0.230500 0.845000 0.005300
v 0.228889 0.848889 0.005300
v 0.225000 0.845000 0.006000
v 0.375000 0.852500 0.002000
v 0.369697 0.850303 0.002000
v 0.367500 0.845000 0.002000
v 0.369697 0.839697 0.002000
v 0.375000 0.837500 0.002000
v 0.380303 0.839697 0.002000
v 0.382500 0.845000 0.002000
v 0.380303 0.850303 0.002000
v 0.375000 0.852500 0.003200
v 0.369697 0.850303 0.003200
v 0.367500 0.845000 0.003200
v 0.369697 0.839697 0.003200
v 0.375000 0.837500 0.003200
v 0.380303 0.839697 0.003200
v 0.382500 0.845000 0.003200
v 0.380303 0.850303 0.003200
v 0.375000 0.850500 0.005300
v 0.371111 0.848889 0.005300
v 0.369500 0.845000 0.005300
v 0.371111 0.841111 0.005300
v 0.375000 0.839500 0.005300
v 0.378889 0.841111 0.005300
v 0.380500 0.845000 0.005300
v 0.378889 0.848889 0.005300
v 0.375000 0.845000 0.006000
v 0.525000 0.852500 0.002000
v 0.519697 0.850303 0.002000
v 0.517500 0.845000 0.002000
v 0.519697 0.839697 0.002000
v 0.525000 0.837500 0.002000
v 0.530303 0.839697 0.002000
v 0.532500 0.845000 0.002000
v 0.530303 0.850303 0.002000
v 0.525000 0.852500 0.003200
v 0.519697 0.850303 0.003200
v 0.517500 0.845000 0.003200
v 0.519697 0.839697 0.003200
v 0.525000 0.837500 0.003200
v 0.530303 0.839697 0.003200
v 0.532500 0.845000 0.003200
v 0.530303 0.850303 0.003200
v 0.525000 0.850500 0.005300
v 0.521111 0.848889 0.005300
v 0.519500 0.845000 0.005300
v 0.521111 0.841111 0.005300
v 0.525000 0.839500 0.005300
v 0.528889 0.841111 0.005300
v 0.530500 0.845000 0.005300
v 0.528889 0.848889 0.005300
v 0.525000 0.845000 0.006000
vn -0.0000 -1.0000 -0.0000
vn -0.0000 0.0934 -0.9956
vn -0.0000 -0.0000 -1.0000
vn -0.0000 0.3653 -0.9309
vn -0.0000 0.6802 -0.7331
vn -0.0000 0.9010 -0.4339
vn -0.0000 0.9972 -0.0747
vn -0.0000 0.9556 0.2948
vn -0.0000 0.7818 0.6235
vn -0.0000 0.5000 0.8660
vn -0.0000 0.1490 0.9888
vn -0.0000 -0.2225 0.9749
vn -0.0000 -0.5633 0.8262
vn -0.0000 -0.8262 0.5633
vn -0.0000 -0.9749 0.2225
vn -0.0000 -0.9888 -0.1490
vn -0.0000 -0.8953 0.4455
vn -0.0000 -0.3058 0.9521
vn -0.0000 -0.0000 1.0000
vn -1.0000 -0.0000 -0.0000
vn 1.0000 -0.0000 -0.0000
vn -0.7071 0.7071 -0.0000
vn -0.0000 1.0000 -0.0000
vn -0.7071 -0.7071 -0.0000
vn 0.7071 -0.7071 -0.0000
vn 0.7071 0.7071 -0.0000
vn -0.0000 0.7241 0.6897
vn -0.3625 0.3625 0.8586
vn -0.0000 0.5127 0.8586
vn -0.7242 -0.0000 0.6896
vn -0.5120 0.5120 0.6897
vn -0.3625 -0.3625 0.8586
vn -0.5127 -0.0000 0.8586
vn -0.0000 -0.7241 0.6897
vn -0.5120 -0.5120 0.6897
vn 0.3625 -0.3625 0.8586
vn -0.0000 -0.5127 0.8586
vn 0.7242 -0.0000 0.6896
vn 0.5120 -0.5120 0.6897
vn 0.3625 0.3625 0.8586
vn 0.5127 -0.0000 0.8586
vn 0.5120 0.5120 0.6897
vn -0.7241 -0.0000 0.6897
vn 0.7241 -0.0000 0.6897
vn 0.7241 -0.0000 0.6896
vn -0.0000 0.7241 0.6896
vn -0.0000 -0.7241 0.6896
vn -0.7241 -0.0000 0.6896
vn -1.0000 -0.0000 -0.0001
vt 0.000000 0.000000
s 1
usemtl m0
f 2/1/1 19/1/1 1/1/1
f 3/1/2 20/1/3 2/1/3
f 4/1/4 21/1/2 3/1/2
f 5/1/5 22/1/4 4/1/4
f 6/1/6 23/1/5 5/1/5
f 7/1/7 24/1/6 6/1/6
f 8/1/8 25/1/7 7/1/7
f 9/1/9 26/1/8 8/1/8
f 10/1/10 27/1/9 9/1/9
f 11/1/11 28/1/10 10/1/10
f 12/1/12 29/1/11 11/1/11
f 13/1/13 30/1/12 12/1/12
f 14/1/14 31/1/13 13/1/13
f 15/1/15 32/1/14 14/1/14
f 16/1/16 33/1/15 15/1/15
f 17/1/17 34/1/16 16/1/16
f 18/1/18 35/1/17 17/1/17
f 1/1/19 36/1/19 18/1/19
s 0
f 17/1/20 16/1/20 8/1/20
f 20/1/21 21/1/21 29/1/21
s 1
f 2/1/1 20/1/1 19/1/1
f 3/1/2 21/1/2 20/1/3
f 4/1/4 22/1/4 21/1/2
f 5/1/5 23/1/5 22/1/4
f 6/1/6 24/1/6 23/1/5
f 7/1/7 25/1/7 24/1/6
f 8/1/8 26/1/8 25/1/7
f 9/1/9 27/1/9 26/1/8
f 10/1/10 28/1/10 27/1/9
f 11/1/11 29/1/11 28/1/10
f 12/1/12 30/1/12 29/1/11
f 13/1/13 31/1/13 30/1/12
f 14/1/14 32/1/14 31/1/13
f 15/1/15 33/1/15 32/1/14
f 16/1/16 34/1/16 33/1/15
f 17/1/17 35/1/17 34/1/16
f 18/1/18 36/1/18 35/1/17
f 1/1/19 19/1/19 36/1/19
s 0
f 1/1/21 18/1/21 17/1/21
f 16/1/20 15/1/20 14/1/20
f 2/1/20 1/1/20 17/1/20
f 16/1/20 14/1/20 13/1/20
f 3/1/20 2/1/20 17/1/20
f 16/1/20 13/1/20 12/1/20
f 4/1/20 3/1/20 17/1/20
f 16/1/20 12/1/20 11/1/20
f 5/1/20 4/1/20 17/1/20
f 16/1/20 11/1/20 10/1/20
f 6/1/20 5/1/20 17/1/20
f 16/1/20 10/1/20 9/1/20
f 7/1/20 6/1/20 17/1/20
f 16/1/20 9/1/20 8/1/20
f 8/1/20 7/1/20 17/1/20
f 36/1/21 19/1/21 20/1/21
f 21/1/21 22/1/21 23/1/21
f 35/1/20 36/1/20 20/1/20
f 21/1/21 23/1/21 24/1/21
f 34/1/20 35/1/20 20/1/20
f 21/1/21 24/1/21 25/1/21
f 33/1/20 34/1/20 20/1/20
f 21/1/21 25/1/21 26/1/21
f 32/1/20 33/1/20 20/1/20
f 21/1/21 26/1/21 27/1/21
f 31/1/49 32/1/49 20/1/49
f 21/1/21 27/1/21 28/1/21
f 30/1/20 31/1/20 20/1/20
f 21/1/21 28/1/21 29/1/21
f 29/1/20 30/1/20 20/1/20
s 1
usemtl m1
f 38/1/22 45/1/23 37/1/23
f 39/1/20 46/1/22 38/1/22
f 40/1/24 47/1/20 39/1/20
f 41/1/1 48/1/24 40/1/24
f 42/1/25 49/1/1 41/1/1
f 43/1/21 50/1/25 42/1/25
f 44/1/26 51/1/21 43/1/21
f 37/1/23 52/1/26 44/1/26
f 45/1/27 54/1/28 53/1/29
f 47/1/30 54/1/28 46/1/31
f 47/1/30 56/1/32 55/1/33
f 49/1/34 56/1/32 48/1/35
f 49/1/34 58/1/36 57/1/37
f 51/1/38 58/1/36 50/1/39
f 51/1/38 60/1/40 59/1/41
f 45/1/27 60/1/40 52/1/42
f 53/1/29 54/1/28 61/1/19
f 54/1/28 55/1/33 61/1/19
f 55/1/33 56/1/32 61/1/19
f 56/1/32 57/1/37 61/1/19
f 57/1/37 58/1/36 61/1/19
f 58/1/36 59/1/41 61/1/19
f 59/1/41 60/1/40 61/1/19
f 60/1/40 53/1/29 61/1/19
f 63/1/22 70/1/23 62/1/23
f 64/1/20 71/1/22 63/1/22
f 65/1/24 72/1/20 64/1/20
f 66/1/1 73/1/24 65/1/24
f 67/1/25 74/1/1 66/1/1
f 68/1/21 75/1/25 67/1/25
f 69/1/26 76/1/21 68/1/21
f 62/1/23 77/1/26 69/1/26
f 71/1/31 78/1/29 70/1/27
f 72/1/43 79/1/28 71/1/31
f 72/1/43 81/1/32 80/1/33
f 73/1/35 82/1/37 81/1/32
f 75/1/39 82/1/37 74/1/34
f 75/1/39 84/1/41 83/1/36
f 76/1/44 85/1/40 84/1/41
f 77/1/42 78/1/29 85/1/40
f 78/1/29 79/1/28 86/1/19
f 79/1/28 80/1/33 86/1/19
f 80/1/33 81/1/32 86/1/19
f 81/1/32 82/1/37 86/1/19
f 82/1/37 83/1/36 86/1/19
f 83/1/36 84/1/41 86/1/19
f 84/1/41 85/1/40 86/1/19
f 85/1/40 78/1/29 86/1/19
f 88/1/22 95/1/23 87/1/23
f 89/1/20 96/1/22 88/1/22
f 90/1/24 97/1/20 89/1/20
f 91/1/1 98/1/24 90/1/24
f 92/1/25 99/1/1 91/1/1
f 93/1/21 100/1/25 92/1/25
f 94/1/26 101/1/21 93/1/21
f 87/1/23 102/1/26 94/1/26
f 96/1/31 103/1/29 95/1/27
f 97/1/43 104/1/28 96/1/31
f 97/1/43 106/1/32 105/1/33
f 99/1/34 106/1/32 98/1/35
f 99/1/34 108/1/36 107/1/37
f 101/1/45 108/1/36 100/1/39
f 101/1/45 110/1/40 109/1/41
f 102/1/42 103/1/29 110/1/40
f 103/1/29 104/1/28 111/1/19
f 104/1/28 105/1/33 111/1/19
f 105/1/33 106/1/32 111/1/19
f 106/1/32 107/1/37 111/1/19
f 107/1/37 108/1/36 111/1/19
f 108/1/36 109/1/41 111/1/19
f 109/1/41 110/1/40 111/1/19
f 110/1/40 103/1/29 111/1/19
f 113/1/22 120/1/23 112/1/23
f 114/1/20 121/1/22 113/1/22
f 115/1/24 122/1/20 114/1/20
f 116/1/1 123/1/24 115/1/24
f 117/1/25 124/1/1 116/1/1
f 118/1/21 125/1/25 117/1/25
f 119/1/26 126/1/21 118/1/21
f 112/1/23 127/1/26 119/1/26
f 121/1/31 128/1/29 120/1/46
f 122/1/43 129/1/28 121/1/31
f 123/1/35 130/1/33 122/1/43
f 123/1/35 132/1/37 131/1/32
f 125/1/39 132/1/37 124/1/47
f 126/1/44 133/1/36 125/1/39
f 126/1/44 135/1/40 134/1/41
f 127/1/42 128/1/29 135/1/40
f 128/1/29 129/1/28 136/1/19
f 129/1/28 130/1/33 136/1/19
f 130/1/33 131/1/32 136/1/19
f 131/1/32 132/1/37 136/1/19
f 132/1/37 133/1/36 136/1/19
f 133/1/36 134/1/41 136/1/19
f 134/1/41 135/1/40 136/1/19
f 135/1/40 128/1/29 136/1/19
f 138/1/22 145/1/23 137/1/23
f 139/1/20 146/1/22 138/1/22
f 140/1/24 147/1/20 139/1/20
f 141/1/1 148/1/24 140/1/24
f 142/1/25 149/1/1 141/1/1
f 143/1/21 150/1/25 142/1/25
f 144/1/26 151/1/21 143/1/21
f 137/1/23 152/1/26 144/1/26
f 146/1/31 153/1/29 145/1/46
f 147/1/43 154/1/28 146/1/31
f 147/1/43 156/1/32 155/1/33
f 148/1/35 157/1/37 156/1/32
f 150/1/39 157/1/37 149/1/47
f 151/1/44 158/1/36 150/1/39
f 152/1/42 159/1/41 151/1/44
f 152/1/42 153/1/29 160/1/40
f 153/1/29 154/1/28 161/1/19
f 154/1/28 155/1/33 161/1/19
f 155/1/33 156/1/32 161/1/19
f 156/1/32 157/1/37 161/1/19
f 157/1/37 158/1/36 161/1/19
f 158/1/36 159/1/41 161/1/19
f 159/1/41 160/1/40 161/1/19
f 160/1/40 153/1/29 161/1/19
f 163/1/22 170/1/23 162/1/23
f 164/1/20 171/1/22 163/1/22
f 165/1/24 172/1/20 164/1/20
f 166/1/1 173/1/24 165/1/24
f 167/1/25 174/1/1 166/1/1
f 168/1/21 175/1/25 167/1/25
f 169/1/26 176/1/21 168/1/21
f 162/1/23 177/1/26 169/1/26
f 171/1/31 178/1/29 170/1/27
f 172/1/48 179/1/28 171/1/31
f 172/1/48 181/1/32 180/1/33
f 174/1/34 181/1/32 173/1/35
f 174/1/34 183/1/36 182/1/37
f 176/1/44 183/1/36 175/1/39
f 176/1/44 185/1/40 184/1/41
f 177/1/42 178/1/29 185/1/40
f 178/1/29 179/1/28 186/1/19
f 179/1/28 180/1/33 186/1/19
f 180/1/33 181/1/32 186/1/19
f 181/1/32 182/1/37 186/1/19
f 182/1/37 183/1/36 186/1/19
f 183/1/36 184/1/41 186/1/19
f 184/1/41 185/1/40 186/1/19
f 185/1/40 178/1/29 186/1/19
f 188/1/22 195/1/23 187/1/23
f 189/1/20 196/1/22 188/1/22
f 190/1/24 197/1/20 189/1/20
f 191/1/1 198/1/24 190/1/24
f 192/1/25 199/1/1 191/1/1
f 193/1/21 200/1/25 192/1/25
f 194/1/26 201/1/21 193/1/21
f 187/1/23 202/1/26 194/1/26
f 196/1/31 203/1/29 195/1/27
f 197/1/43 204/1/28 196/1/31
f 198/1/35 205/1/33 197/1/43
f 198/1/35 207/1/37 206/1/32
f 200/1/39 207/1/37 199/1/34
f 201/1/44 208/1/36 200/1/39
f 201/1/44 210/1/40 209/1/41
f 202/1/42 203/1/29 210/1/40
f 203/1/29 204/1/28 211/1/19
f 204/1/28 205/1/33 211/1/19
f 205/1/33 206/1/32 211/1/19
f 206/1/32 207/1/37 211/1/19
f 207/1/37 208/1/36 211/1/19
f 208/1/36 209/1/41 211/1/19
f 209/1/41 210/1/40 211/1/19
f 210/1/40 203/1/29 211/1/19
f 213/1/22 220/1/23 212/1/23
f 214/1/20 221/1/22 213/1/22
f 215/1/24 222/1/20 214/1/20
f 216/1/1 223/1/24 215/1/24
f 217/1/25 224/1/1 216/1/1
f 218/1/21 225/1/25 217/1/25
f 219/1/26 226/1/21 218/1/21
f 212/1/23 227/1/26 219/1/26
f 220/1/27 229/1/28 228/1/29
f 222/1/30 229/1/28 221/1/31
f 222/1/30 231/1/32 230/1/33
f 224/1/34 231/1/32 223/1/35
f 224/1/34 233/1/36 232/1/37
f 226/1/38 233/1/36 225/1/39
f 226/1/38 235/1/40 234/1/41
f 220/1/27 235/1/40 227/1/42
f 228/1/29 229/1/28 236/1/19
f 229/1/28 230/1/33 236/1/19
f 230/1/33 231/1/32 236/1/19
f 231/1/32 232/1/37 236/1/19
f 232/1/37 233/1/36 236/1/19
f 233/1/36 234/1/41 236/1/19
f 234/1/41 235/1/40 236/1/19
f 235/1/40 228/1/29 236/1/19
f 38/1/22 46/1/22 45/1/23
f 39/1/20 47/1/20 46/1/22
f 40/1/24 48/1/24 47/1/20
f 41/1/1 49/1/1 48/1/24
f 42/1/25 50/1/25 49/1/1
f 43/1/21 51/1/21 50/1/25
f 44/1/26 52/1/26 51/1/21
f 37/1/23 45/1/23 52/1/26
f 45/1/27 46/1/31 54/1/28
f 47/1/30 55/1/33 54/1/28
f 47/1/30 48/1/35 56/1/32
f 49/1/34 57/1/37 56/1/32
f 49/1/34 50/1/39 58/1/36
f 51/1/38 59/1/41 58/1/36
f 51/1/38 52/1/42 60/1/40
f 45/1/27 53/1/29 60/1/40
f 63/1/22 71/1/22 70/1/23
f 64/1/20 72/1/20 71/1/22
f 65/1/24 73/1/24 72/1/20
f 66/1/1 74/1/1 73/1/24
f 67/1/25 75/1/25 74/1/1
f 68/1/21 76/1/21 75/1/25
f 69/1/26 77/1/26 76/1/21
f 62/1/23 70/1/23 77/1/26
f 71/1/31 79/1/28 78/1/29
f 72/1/43 80/1/33 79/1/28
f 72/1/43 73/1/35 81/1/32
f 73/1/35 74/1/34 82/1/37
f 75/1/39 83/1/36 82/1/37
f 75/1/39 76/1/44 84/1/41
f 76/1/44 77/1/42 85/1/40
f 77/1/42 70/1/27 78/1/29
f 88/1/22 96/1/22 95/1/23
f 89/1/20 97/1/20 96/1/22
f 90/1/24 98/1/24 97/1/20
f 91/1/1 99/1/1 98/1/24
f 92/1/25 100/1/25 99/1/1
f 93/1/21 101/1/21 100/1/25
f 94/1/26 102/1/26 101/1/21
f 87/1/23 95/1/23 102/1/26
f 96/1/31 104/1/28 103/1/29
f 97/1/43 105/1/33 104/1/28
f 97/1/43 98/1/35 106/1/32
f 99/1/34 107/1/37 106/1/32
f 99/1/34 100/1/39 108/1/36
f 101/1/45 109/1/41 108/1/36
f 101/1/45 102/1/42 110/1/40
f 102/1/42 95/1/27 103/1/29
f 113/1/22 121/1/22 120/1/23
f 114/1/20 122/1/20 121/1/22
f 115/1/24 123/1/24 122/1/20
f 116/1/1 124/1/1 123/1/24
f 117/1/25 125/1/25 124/1/1
f 118/1/21 126/1/21 125/1/25
f 119/1/26 127/1/26 126/1/21
f 112/1/23 120/1/23 127/1/26
f 121/1/31 129/1/28 128/1/29
f 122/1/43 130/1/33 129/1/28
f 123/1/35 131/1/32 130/1/33
f 123/1/35 124/1/47 132/1/37
f 125/1/39 133/1/36 132/1/37
f 126/1/44 134/1/41 133/1/36
f 126/1/44 127/1/42 135/1/40
f 127/1/42 120/1/46 128/1/29
f 138/1/22 146/1/22 145/1/23
f 139/1/20 147/1/20 146/1/22
f 140/1/24 148/1/24 147/1/20
f 141/1/1 149/1/1 148/1/24
f 142/1/25 150/1/25 149/1/1
f 143/1/21 151/1/21 150/1/25
f 144/1/26 152/1/26 151/1/21
f 137/1/23 145/1/23 152/1/26
f 146/1/31 154/1/28 153/1/29
f 147/1/43 155/1/33 154/1/28
f 147/1/43 148/1/35 156/1/32
f 148/1/35 149/1/47 157/1/37
f 150/1/39 158/1/36 157/1/37
f 151/1/44 159/1/41 158/1/36
f 152/1/42 160/1/40 159/1/41
f 152/1/42 145/1/46 153/1/29
f 163/1/22 171/1/22 170/1/23
f 164/1/20 172/1/20 171/1/22
f 165/1/24 173/1/24 172/1/20
f 166/1/1 174/1/1 173/1/24
f 167/1/25 175/1/25 174/1/1
f 168/1/21 176/1/21 175/1/25
f 169/1/26 177/1/26 176/1/21
f 162/1/23 170/1/23 177/1/26
f 171/1/31 179/1/28 178/1/29
f 172/1/48 180/1/33 179/1/28
f 172/1/48 173/1/35 181/1/32
f 174/1/34 182/1/37 181/1/32
f 174/1/34 175/1/39 183/1/36
f 176/1/44 184/1/41 183/1/36
f 176/1/44 177/1/42 185/1/40
f 177/1/42 170/1/27 178/1/29
f 188/1/22 196/1/22 195/1/23
f 189/1/20 197/1/20 196/1/22
f 190/1/24 198/1/24 197/1/20
f 191/1/1 199/1/1 198/1/24
f 192/1/25 200/1/25 199/1/1
f 193/1/21 201/1/21 200/1/25
f 194/1/26 202/1/26 201/1/21
f 187/1/23 195/1/23 202/1/26
f 196/1/31 204/1/28 203/1/29
f 197/1/43 205/1/33 204/1/28
f 198/1/35 206/1/32 205/1/33
f 198/1/35 199/1/34 207/1/37
f 200/1/39 208/1/36 207/1/37
f 201/1/44 209/1/41 208/1/36
f 201/1/44 202/1/42 210/1/40
f 202/1/42 195/1/27 203/1/29
f 213/1/22 221/1/22 220/1/23
f 214/1/20 222/1/20 221/1/22
f 215/1/24 223/1/24 222/1/20
f 216/1/1 224/1/1 223/1/24
f 217/1/25 225/1/25 224/1/1
f 218/1/21 226/1/21 225/1/25
f 219/1/26 227/1/26 226/1/21
f 212/1/23 220/1/23 227/1/26
f 220/1/27 221/1/31 229/1/28
f 222/1/30 230/1/33 229/1/28
f 222/1/30 223/1/35 231/1/32
f 224/1/34 232/1/37 231/1/32
f 224/1/34 225/1/39 233/1/36
f 226/1/38 234/1/41 233/1/36
f 226/1/38 227/1/42 235/1/40
f 220/1/27 228/1/29 235/1/40
