# Blender 5.2.2 LTS
# www.blender.org
mtllib FireDoorFrame.mtl
o SingleDoor_Type_Tall.023_DoubleDoor_Frame_Color_Type_1_0
v -1.098999 0.000026 0.065217
v -1.098997 0.000303 0.065494
v -1.099005 2.099966 -0.065222
v 1.099277 0.000303 0.065219
v 1.099003 0.000306 0.065494
v 1.098992 0.000022 0.065215
v 1.099002 2.099973 -0.065219
v 1.099271 2.099701 0.065224
v -1.069124 0.000289 0.065234
v -1.069380 0.000297 0.065488
v -1.069341 0.000032 0.065213
v -1.069108 0.000293 -0.065216
v 1.069128 0.000288 0.065235
v 1.069346 0.000028 0.065210
v 1.069382 0.000295 0.065487
v -1.098998 0.000030 -0.065222
v 1.099271 0.000302 -0.065225
v 1.069344 0.000032 -0.065214
v 1.069127 0.000289 -0.065234
v 1.069022 2.069487 -0.003712
v -1.068780 2.069486 -0.003473
v -1.069021 2.069485 0.031334
v 1.068793 2.069715 0.031333
v -1.053878 0.000036 -0.003129
v -1.053881 0.000299 -0.003390
v -1.053608 0.000309 -0.003124
v 1.053880 0.000301 -0.003390
v 1.053895 0.000024 -0.003123
v 1.053620 0.000296 -0.003125
v 1.053881 0.000036 0.030752
v 1.053884 0.000299 0.031013
v 1.053610 0.000308 0.030747
v -1.053877 0.000300 0.031013
v -1.053885 0.000029 0.030746
v -1.053617 0.000296 0.030748
v 1.069717 0.000000 -0.003426
v 1.099277 2.099694 -0.065220
v 1.068335 2.069777 0.031743
v -1.068407 2.069770 0.064833
v -1.069076 0.000707 -0.004133
v -1.069051 2.069446 -0.064832
v 1.069088 0.000294 0.064867
v 1.069049 2.069450 0.064806
v 1.069080 2.069066 0.031755
v 1.099004 2.099966 0.065221
v 1.069717 0.000000 0.031049
v -1.099269 2.099698 -0.065226
v -1.068362 2.069774 -0.004130
v -1.068748 2.069743 -0.064803
v 1.068410 2.069771 -0.064841
v -1.069614 0.000001 0.031058
v 1.068372 2.069773 -0.004133
v -1.069076 2.069066 0.031755
v -1.069048 2.069440 0.064763
v -1.069078 0.000295 0.064804
v -1.069076 0.000707 0.031756
v -1.069713 0.000000 -0.003426
v 1.068748 2.069749 0.064839
v -1.052883 2.054277 0.030344
v -1.053250 2.054254 -0.002743
v 1.069080 0.000707 -0.004133
v 1.069080 2.069066 -0.004133
v 1.069110 2.069063 -0.065201
v -1.099269 0.000303 0.065224
v -1.099274 2.099696 0.065217
v -1.053606 2.053546 -0.003094
v -1.053556 2.053950 0.030354
v 1.052915 2.054275 -0.002736
v 1.052918 2.054302 0.030717
v 1.053609 2.053549 0.030716
v -1.068577 0.000000 -0.002718
v 1.068579 0.000000 -0.002718
v 1.068579 0.000000 0.030342
v -1.098994 2.099692 -0.065501
v -1.099017 2.099701 0.065476
v -1.098479 2.099690 0.065515
v -1.098996 2.099971 0.065219
v 1.099020 2.099701 -0.065478
v 1.098482 2.099690 -0.065516
v 1.098996 2.099691 0.065500
v -1.069076 2.069521 0.065254
v -1.069119 2.069066 0.065216
v -1.068770 2.069730 0.064815
v -1.068825 2.069773 0.065254
v -1.068455 2.069800 0.065206
v -1.068895 2.070025 0.065486
v -1.069548 2.070218 0.065520
v -1.069327 2.069610 0.065487
v -1.069342 0.000030 -0.065212
v -1.069379 0.000295 -0.065487
v 1.069101 2.069480 0.065245
v 1.069386 2.069066 0.065479
v 1.069298 2.069661 0.065490
v 1.069505 2.070301 0.065520
v 1.068966 2.069992 0.065490
v 1.068505 2.070069 0.065490
v 1.068372 2.069817 0.065216
v 1.068826 2.069773 0.065254
v -1.099277 0.000305 -0.065214
v -1.099001 0.000304 -0.065494
v 1.099003 0.000027 -0.065218
v 1.098999 0.000303 -0.065494
v -1.069033 0.000707 -0.003732
v -1.069061 0.000271 -0.003601
v -1.069114 0.000310 -0.003895
v -1.068770 0.000707 -0.003469
v -1.068833 0.000269 -0.003433
v -1.068428 0.000340 -0.003407
v -1.068512 0.000043 -0.003119
v -1.068921 0.000017 -0.003328
v -1.069355 0.000040 -0.003619
v 1.069081 0.000294 -0.064805
v 1.069383 0.000297 -0.065488
v 1.069160 0.000019 -0.003473
v 1.069361 0.000041 -0.003625
v 1.068514 0.000043 -0.003119
v 1.068454 0.000331 -0.003403
v 1.068836 0.000269 -0.003433
v 1.068773 0.000707 -0.003469
v 1.069036 0.000707 -0.003732
v 1.069063 0.000272 -0.003601
v 1.069117 0.000310 -0.003895
v 1.068477 2.069800 -0.065213
v 1.068826 2.069773 -0.065256
v 1.068773 2.069730 -0.064816
v 1.068372 2.070079 -0.065480
v 1.068966 2.069992 -0.065491
v 1.069551 2.070218 -0.065521
v 1.069331 2.069594 -0.065488
v 1.069080 2.069521 -0.065256
v 1.069036 2.069467 -0.064816
v 1.068793 2.069489 -0.003485
v 1.068347 2.069095 -0.003424
v 1.068791 2.069719 -0.003713
v -1.068370 2.069066 -0.003426
v -1.069027 2.069480 -0.003720
v -1.068779 2.069727 -0.003712
v -1.069098 2.069479 -0.065248
v -1.069382 2.069066 -0.065480
v -1.069295 2.069661 -0.065491
v -1.069502 2.070301 -0.065522
v -1.068964 2.069992 -0.065491
v -1.068463 2.070077 -0.065492
v -1.068794 2.069795 -0.065252
v -1.069161 0.000026 0.031107
v -1.069359 0.000041 0.031248
v -1.068504 0.000025 0.030720
v -1.068451 0.000331 0.031026
v -1.068833 0.000269 0.031056
v -1.068770 0.000707 0.031092
v -1.069033 0.000707 0.031355
v -1.069061 0.000272 0.031224
v -1.069114 0.000310 0.031518
v 1.068923 0.000017 0.030950
v 1.068514 0.000043 0.030742
v 1.069358 0.000040 0.031242
v 1.069099 0.000335 0.031539
v 1.069063 0.000272 0.031224
v 1.069036 0.000707 0.031355
v 1.068773 0.000707 0.031092
v 1.068836 0.000269 0.031056
v 1.068430 0.000340 0.031030
v -1.068779 2.069488 0.031095
v -1.068365 2.069072 0.031048
v -1.068773 2.069735 0.031343
v 1.068790 2.069485 0.031102
v 1.068372 2.069066 0.031048
v 1.069022 2.069488 0.031334
v -1.053329 2.054278 -0.003158
v -1.052954 2.054312 -0.003124
v -1.053538 2.053972 -0.002719
v -1.053581 2.054026 -0.003158
v -1.053887 2.053571 -0.003383
v -1.053800 2.054166 -0.003394
v -1.054008 2.054806 -0.003424
v -1.053468 2.054497 -0.003394
v -1.052914 2.054593 -0.003395
v 1.053295 2.054293 -0.003146
v 1.053277 2.054235 -0.002719
v 1.053401 2.054542 -0.003391
v 1.054056 2.054725 -0.003424
v 1.053835 2.054098 -0.003391
v 1.053609 2.053607 -0.003098
v 1.053583 2.054026 -0.003158
v 1.053540 2.053972 -0.002719
v 1.053277 2.054235 0.030341
v 1.053331 2.054278 0.030780
v 1.053540 2.053972 0.030341
v 1.053584 2.054026 0.030780
v 1.053890 2.053571 0.031005
v 1.053803 2.054166 0.031016
v 1.054030 2.054789 0.031047
v 1.053471 2.054497 0.031016
v 1.052917 2.054598 0.031022
v -1.053581 2.054026 0.030780
v -1.053624 2.053571 0.030742
v -1.053275 2.054235 0.030341
v -1.053329 2.054278 0.030780
v -1.052998 2.054309 0.030750
v -1.053378 2.054542 0.031011
v -1.054054 2.054726 0.031046
v -1.053832 2.054115 0.031013
vn -0.8767 -0.3268 0.3530
vn -0.3612 -0.8698 0.3361
vn -0.3345 -0.3563 0.8724
vn -0.3677 0.9293 -0.0355
vn -0.5321 0.3687 -0.7622
vn -0.7271 0.5812 -0.3654
vn -0.7559 0.3698 0.5402
vn -0.3836 0.4462 0.8086
vn -0.3550 0.9162 0.1860
vn 0.8746 -0.3563 0.3287
vn 0.3596 -0.3363 0.8704
vn 0.3298 -0.8770 0.3496
vn 0.6193 0.6934 -0.3682
vn 0.8203 0.3669 -0.4388
vn 0.3811 0.6918 -0.6134
vn 0.8681 0.3555 0.3465
vn 0.4201 0.7964 0.4351
vn 0.4182 0.3553 0.8360
vn 0.8641 -0.3163 0.3916
vn 0.3511 -0.3250 0.8781
vn 0.3434 -0.8621 0.3726
vn 0.7783 -0.5123 -0.3631
vn 0.4770 -0.8156 -0.3275
vn 0.5957 -0.3696 -0.7131
vn -0.8625 -0.3106 0.3996
vn -0.3746 -0.8724 0.3139
vn -0.3366 -0.3656 0.8678
vn -0.4473 -0.8075 -0.3846
vn -0.7921 -0.3790 -0.4785
vn -0.3653 -0.5183 -0.7732
vn 0.8014 -0.4771 -0.3608
vn 0.3653 -0.7703 -0.5227
vn 0.5168 -0.3625 -0.7756
vn -0.5014 -0.7712 -0.3922
vn -0.7055 -0.3278 -0.6283
vn -0.3768 -0.5253 -0.7629
vn -0.9211 -0.2993 -0.2491
vn -0.3793 -0.4007 -0.8340
vn -0.4557 -0.8392 -0.2969
vn 0.3330 -0.3136 -0.8893
vn 0.8482 -0.3880 -0.3605
vn 0.3724 -0.7847 -0.4956
vn 0.8003 -0.3242 0.5044
vn 0.3488 -0.4099 0.8428
vn 0.3425 -0.8966 0.2808
vn -0.3374 -0.9121 0.2329
vn -0.3519 -0.3056 0.8848
vn -0.8374 -0.2995 0.4572
vn 0.3538 -0.8801 -0.3167
vn 0.3398 -0.3687 -0.8652
vn 0.8711 -0.3326 -0.3613
vn -0.3415 -0.3150 -0.8855
vn -0.3271 -0.8717 -0.3648
vn -0.8721 -0.3633 -0.3277
vn -0.3534 -0.8802 0.3169
vn -0.3415 -0.3681 0.8648
vn -0.8711 -0.3324 0.3616
vn 0.3393 -0.3168 0.8857
vn 0.3364 -0.8697 0.3612
vn 0.8746 -0.3648 0.3193
vn -0.0802 -0.3819 -0.9207
vn 0.0605 -0.0132 -0.9981
vn -0.3659 -0.4568 -0.8108
vn 0.9581 -0.2618 0.1165
vn 0.1722 0.2109 -0.9622
vn 0.3038 -0.1521 -0.9405
vn 0.0050 0.3919 -0.9200
vn -0.8890 -0.4395 -0.1283
vn -0.9949 -0.0271 -0.0974
vn 0.8590 -0.5048 -0.0858
vn 0.9947 -0.0143 -0.1014
vn 0.0307 -0.9995 -0.0063
vn 0.8530 -0.3754 -0.3626
vn 0.5016 -0.8621 -0.0715
vn -0.1845 -0.3717 0.9098
vn -0.0057 -0.0759 0.9971
vn 0.8993 0.0217 0.4368
vn 0.7579 -0.4034 0.5126
vn -0.2407 -0.8609 0.4482
vn -0.8843 -0.4518 -0.1177
vn -0.8747 -0.1451 0.4624
vn 0.0055 -0.9313 0.3642
vn 0.1006 -0.2390 0.9658
vn 0.1714 -0.7781 0.6043
vn -0.4869 -0.3214 -0.8122
vn -0.4236 -0.2195 -0.8788
vn -0.9137 0.1914 -0.3585
vn -0.6841 -0.7275 -0.0528
vn 0.1023 -0.2404 0.9653
vn -0.4256 -0.0133 0.9048
vn -0.0164 -0.7914 -0.6111
vn -0.9534 -0.2396 -0.1832
vn -0.9350 -0.1133 0.3362
vn -0.6212 -0.3369 0.7075
vn -0.4597 0.0053 0.8881
vn -0.0269 -0.0593 0.9979
vn -0.0348 -0.4061 0.9132
vn 0.0201 -0.9031 0.4291
vn 0.8614 -0.1861 -0.4727
vn 0.8963 -0.0609 0.4392
vn 0.3157 -0.3105 0.8966
vn 0.9023 -0.0016 -0.4311
vn 0.6919 -0.4525 -0.5627
vn 0.9244 -0.3814 0.0003
vn 0.4522 0.0153 -0.8918
vn 0.3837 -0.3930 -0.8356
vn 0.1031 -0.2738 -0.9563
vn 0.0057 -0.9047 -0.4261
vn 0.2675 -0.8724 -0.4091
vn -0.0022 -0.9978 -0.0656
vn 0.0520 -0.9982 -0.0314
vn 0.4094 -0.9117 -0.0352
vn -0.8810 -0.2692 -0.3891
vn -0.3244 -0.9136 -0.2453
vn -0.1406 -0.8807 -0.4522
vn -0.0649 -0.9977 -0.0198
vn -0.2726 -0.9054 -0.3255
vn -0.2184 -0.9733 0.0712
vn 0.9946 -0.0917 0.0489
vn 0.9660 -0.2508 0.0630
vn 0.9516 -0.3053 0.0366
vn -0.0195 -0.9969 -0.0766
vn -0.0010 -0.9056 -0.4241
vn -0.1464 -0.3913 -0.9085
vn -0.4066 -0.3961 -0.8233
vn -0.4635 0.0162 -0.8859
vn -0.9016 -0.0002 -0.4326
vn -0.6980 -0.4434 -0.5623
vn -0.9888 -0.0718 -0.1305
vn -0.9450 -0.3087 -0.1079
vn -0.1105 -0.8342 -0.5403
vn -0.4970 -0.4236 -0.7573
vn -0.6376 -0.6455 -0.4206
vn -0.0648 -0.0331 -0.9973
vn 0.0002 -0.4154 -0.9097
vn 0.0608 -0.0135 -0.9981
vn 0.0346 -0.3493 -0.9364
vn 0.7601 -0.4047 0.5084
vn 0.4924 0.3300 -0.8054
vn 0.0704 -0.0078 0.9975
vn 0.3880 -0.7720 -0.5034
vn 0.0768 -0.8820 -0.4649
vn -0.3789 -0.7712 0.5115
vn 0.1054 -0.9941 0.0264
vn 0.3023 -0.8900 0.3414
vn 0.2704 -0.9593 -0.0814
vn 0.0870 -0.9044 0.4177
vn 0.1475 -0.3936 0.9074
vn 0.4078 -0.3967 0.8224
vn 0.4634 0.0164 0.8860
vn 0.9021 0.0003 0.4315
vn 0.6939 -0.4457 0.5656
vn 0.9889 -0.0727 0.1295
vn 0.9446 -0.3103 0.1073
vn 0.0050 -0.9975 0.0704
vn -0.2701 -0.8692 0.4142
vn -0.0080 -0.9027 0.4301
vn -0.0519 -0.9982 0.0313
vn -0.4110 -0.9109 0.0362
vn -0.9130 -0.3601 0.1916
vn -0.6911 -0.4519 0.5641
vn -0.8555 0.0213 0.5174
vn -0.4522 0.0149 0.8918
vn -0.3846 -0.3925 0.8355
vn -0.9228 -0.3707 -0.1050
vn 0.2746 -0.9571 0.0921
vn 0.9353 -0.0100 -0.3538
vn 0.4926 -0.0114 -0.8702
vn 0.3597 -0.3650 -0.8587
vn 0.7853 -0.1473 -0.6014
vn 0.3243 -0.3822 -0.8653
vn 0.3971 -0.2901 0.8707
vn 0.3603 -0.8815 0.3052
vn 0.2100 -0.2871 0.9346
vn -0.0145 -0.9185 0.3952
vn -0.4522 -0.8918 -0.0173
vn -0.4275 -0.2163 -0.8778
vn -0.9444 -0.0907 -0.3160
vn -0.4236 -0.9045 0.0502
vn 0.3525 -0.9339 0.0591
vn -0.4765 -0.0117 0.8791
vn -0.3281 -0.3332 0.8839
vn -0.0292 -0.0593 0.9978
vn -0.0293 -0.4012 0.9155
vn -0.2663 -0.0781 0.9607
vn 0.0280 -0.9224 0.3852
vn 0.4194 -0.9065 -0.0479
vn -0.0080 0.3846 0.9231
vn 0.0142 -0.0610 0.9980
vn -0.8976 -0.3715 -0.2372
vn 0.0440 -0.9990 -0.0054
vn 0.0897 -0.9930 0.0763
vn -0.9994 -0.0010 0.0341
vn -0.9394 -0.3427 -0.0015
vn -0.0763 -0.0154 -0.9970
vn 0.0534 0.0084 -0.9985
vn -0.0690 -0.9931 -0.0947
vn -0.0025 -1.0000 -0.0023
vn -0.0200 -0.9958 0.0899
vn -0.0597 -0.0267 -0.9979
vn 0.0601 -0.0264 0.9978
vn -0.0758 -0.9932 -0.0879
vt 0.100403 0.496140
vt 0.100403 0.496177
vt 0.100366 0.496140
vt 0.191236 0.497925
vt 0.191272 0.497925
vt 0.191238 0.497944
vt 0.100403 0.241347
vt 0.100366 0.241345
vt 0.100401 0.241310
vt 0.099602 0.496140
vt 0.099638 0.496140
vt 0.099602 0.496177
vt 0.191236 0.360877
vt 0.191236 0.360858
vt 0.191272 0.360876
vt 0.099602 0.241346
vt 0.099602 0.241310
vt 0.099638 0.241311
vt 0.100401 0.496141
vt 0.100404 0.496177
vt 0.116233 0.496141
vt 0.116234 0.496177
vt 0.116271 0.496177
vt 0.099603 0.496141
vt 0.099601 0.496177
vt 0.099638 0.496141
vt 0.116234 0.496177
vt 0.116234 0.496140
vt 0.116271 0.496141
vt 0.083770 0.496141
vt 0.083771 0.496177
vt 0.083734 0.496177
vt 0.083771 0.496177
vt 0.083769 0.496141
vt 0.083734 0.496140
vt 0.091236 0.241344
vt 0.091270 0.241344
vt 0.091237 0.241310
vt 0.108735 0.241312
vt 0.108770 0.241345
vt 0.108768 0.241310
vt 0.104517 0.241345
vt 0.104550 0.241344
vt 0.104517 0.241310
vt 0.179518 0.360876
vt 0.179552 0.360876
vt 0.179518 0.360858
vt 0.108698 0.496177
vt 0.108734 0.496140
vt 0.108698 0.496140
vt 0.091270 0.496140
vt 0.091307 0.496177
vt 0.091307 0.496140
vt 0.095418 0.496177
vt 0.095454 0.496140
vt 0.095418 0.496140
vt 0.104550 0.496140
vt 0.104587 0.496177
vt 0.104587 0.496140
vt 0.199640 0.497885
vt 0.168874 0.392680
vt 0.199640 0.360922
vt 0.104636 0.241351
vt 0.116267 0.241324
vt 0.199640 0.497923
vt 0.175404 0.497925
vt 0.175404 0.360877
vt 0.116234 0.241346
vt 0.199640 0.497919
vt 0.075366 0.241310
vt 0.083820 0.241347
vt 0.091184 0.241397
vt 0.116185 0.241350
vt 0.108820 0.496090
vt 0.183770 0.497925
vt 0.183822 0.497898
vt 0.183770 0.360876
vt 0.083770 0.241347
vt 0.183650 0.497944
vt 0.179638 0.497924
vt 0.179638 0.497944
vt 0.095454 0.496135
vt 0.095454 0.241310
vt 0.095454 0.241310
vt 0.104587 0.241398
vt 0.104583 0.241341
vt 0.175401 0.360874
vt 0.175454 0.360858
vt 0.175401 0.360858
vt 0.175405 0.497904
vt 0.175372 0.497932
vt 0.175401 0.497927
vt 0.075366 0.241341
vt 0.075366 0.241360
vt 0.075366 0.241397
vt 0.083820 0.241310
vt 0.183770 0.360858
vt 0.099634 0.241310
vt 0.099605 0.241346
vt 0.099638 0.241324
vt 0.116238 0.241310
vt 0.116271 0.241324
vt 0.116267 0.241310
vt 0.095368 0.241348
vt 0.095414 0.241398
vt 0.095422 0.241341
vt 0.099633 0.241397
vt 0.099634 0.241324
vt 0.144309 0.311857
vt 0.175368 0.360914
vt 0.175368 0.360879
vt 0.175405 0.360903
vt 0.191239 0.497925
vt 0.191187 0.497944
vt 0.191240 0.497944
vt 0.100404 0.241397
vt 0.100366 0.241358
vt 0.124639 0.241346
vt 0.124639 0.496141
vt 0.124639 0.496091
vt 0.108771 0.496090
vt 0.108756 0.496144
vt 0.108791 0.496139
vt 0.108734 0.496090
vt 0.108734 0.496144
vt 0.108734 0.496135
vt 0.108697 0.496177
vt 0.108720 0.496177
vt 0.108648 0.496177
vt 0.108734 0.496177
vt 0.108758 0.496177
vt 0.091303 0.241341
vt 0.091356 0.241310
vt 0.091303 0.241310
vt 0.091270 0.496177
vt 0.091265 0.496177
vt 0.091246 0.496177
vt 0.104465 0.241397
vt 0.100452 0.241351
vt 0.100452 0.496141
vt 0.091356 0.496177
vt 0.091307 0.496177
vt 0.091270 0.496136
vt 0.091270 0.496144
vt 0.091270 0.496090
vt 0.091233 0.496090
vt 0.091249 0.496143
vt 0.091184 0.496090
vt 0.091213 0.496139
vt 0.191235 0.360896
vt 0.191272 0.360903
vt 0.191272 0.360865
vt 0.191240 0.360874
vt 0.137511 0.305449
vt 0.191268 0.360865
vt 0.191267 0.360903
vt 0.183736 0.497881
vt 0.152878 0.392335
vt 0.183732 0.360870
vt 0.100399 0.241341
vt 0.116238 0.241346
vt 0.116271 0.241397
vt 0.165441 0.392648
vt 0.116266 0.241397
vt 0.179552 0.497943
vt 0.104551 0.241311
vt 0.179552 0.360884
vt 0.183703 0.497927
vt 0.183699 0.497903
vt 0.191187 0.360878
vt 0.179584 0.360874
vt 0.179638 0.360858
vt 0.179584 0.360858
vt 0.104552 0.496177
vt 0.104543 0.496177
vt 0.104526 0.496177
vt 0.083773 0.241397
vt 0.083766 0.241341
vt 0.104590 0.496177
vt 0.104550 0.496136
vt 0.104550 0.496144
vt 0.104550 0.496090
vt 0.104513 0.496090
vt 0.104529 0.496143
vt 0.104465 0.496090
vt 0.104493 0.496139
vt 0.095368 0.496177
vt 0.095440 0.496177
vt 0.095417 0.496177
vt 0.095454 0.496177
vt 0.095478 0.496177
vt 0.095513 0.496135
vt 0.095476 0.496143
vt 0.095491 0.496090
vt 0.095454 0.496090
vt 0.095454 0.496144
vt 0.083820 0.496141
vt 0.175454 0.497924
vt 0.083766 0.241310
vt 0.108694 0.241398
vt 0.108729 0.241398
vt 0.108730 0.241324
vt 0.108702 0.241341
vt 0.191240 0.360858
vt 0.191268 0.360858
vt 0.183736 0.497922
vt 0.104550 0.241358
vt 0.104583 0.241310
vt 0.104554 0.241310
vt 0.179592 0.360904
vt 0.179638 0.360878
vt 0.091270 0.241361
vt 0.091310 0.241398
vt 0.183703 0.360858
vt 0.183732 0.360858
vt 0.175454 0.360879
vt 0.116185 0.241310
vt 0.095449 0.241398
vt 0.095450 0.241324
vt 0.146502 0.313904
vt 0.179552 0.360921
vt 0.179552 0.360879
vt 0.104636 0.241310
vt 0.108648 0.241348
vt 0.183703 0.497944
vt 0.179589 0.497906
vt 0.179556 0.497930
vt 0.179584 0.497927
vt 0.095488 0.241345
vt 0.183650 0.497922
vt 0.083734 0.241346
vt 0.175368 0.360883
vt 0.175368 0.497919
vt 0.140645 0.379172
vt 0.183650 0.360878
vt 0.183650 0.360858
vt 0.179638 0.497898
vt 0.099638 0.241434
vt 0.175454 0.497901
vt 0.099552 0.241350
vt 0.095540 0.241397
vt 0.099552 0.496141
vt 0.183736 0.360860
vt 0.183736 0.497944
vt 0.183736 0.497917
vt 0.183650 0.360902
vt 0.199640 0.360877
vt 0.199640 0.360883
vt 0.091356 0.241348
vt 0.183822 0.360903
vt 0.183736 0.360858
vt 0.183732 0.497944
vt 0.075366 0.496140
vt 0.075366 0.496177
vt 0.075366 0.496140
vt 0.116234 0.241310
vt 0.175404 0.497944
vt 0.179517 0.497925
vt 0.179518 0.497944
vt 0.175454 0.360858
vt 0.083820 0.241310
vt 0.100366 0.241360
vt 0.179466 0.360906
vt 0.100399 0.241310
vt 0.100370 0.241310
vt 0.179552 0.360858
vt 0.095454 0.241435
vt 0.183703 0.360877
vt 0.140991 0.305635
vt 0.191234 0.360896
vt 0.199640 0.497925
vt 0.108734 0.241435
vt 0.124639 0.496141
vt 0.144814 0.379121
vt 0.179552 0.360865
vt 0.179556 0.360858
vt 0.100452 0.241310
vt 0.116271 0.496177
vt 0.191187 0.360901
vt 0.191187 0.497922
vt 0.124639 0.241434
vt 0.124639 0.496141
vt 0.141998 0.305471
vt 0.091272 0.241314
vt 0.091270 0.241359
vt 0.100366 0.241310
vt 0.199640 0.360857
vt 0.099606 0.241310
vt 0.124639 0.241311
vt 0.175368 0.497944
vt 0.075366 0.241360
vt 0.108734 0.241310
vt 0.183736 0.497936
vt 0.095488 0.241310
vt 0.175454 0.497944
vt 0.104550 0.241359
vt 0.199641 0.497885
s 1
usemtl m0
f 64/1/1 1/2/2 2/3/3
f 3/4/4 74/5/5 47/6/6
f 65/7/7 75/8/8 77/9/9
f 4/10/10 5/11/11 6/12/12
f 7/13/13 37/14/14 78/15/15
f 8/16/16 45/17/17 80/18/18
f 9/19/19 10/3/20 11/20/21
f 12/21/22 89/22/23 90/23/24
f 13/24/25 14/25/26 15/26/27
f 16/27/28 99/28/29 100/29/30
f 17/30/31 101/31/32 102/32/33
f 18/33/34 19/34/35 113/35/36
f 20/36/37 132/37/38 134/38/39
f 21/39/40 136/40/41 137/41/42
f 22/42/43 163/43/44 165/44/45
f 23/45/46 166/46/47 168/47/48
f 24/48/49 25/49/50 26/50/51
f 27/51/52 28/52/53 29/53/54
f 30/54/55 31/55/56 32/56/57
f 33/57/58 34/58/59 35/59/60
f 143/60/61 141/61/62 126/62/63
f 26/50/51 67/63/64 35/59/60
f 140/64/65 141/61/62 142/65/66
f 7/13/13 77/66/9 45/67/17
f 99/28/29 65/7/7 47/68/6
f 74/69/5 79/70/67 141/61/62
f 131/71/68 62/72/69 20/36/37
f 41/73/70 40/74/71 12/21/22
f 137/75/42 48/76/72 134/77/39
f 4/10/10 37/78/14 8/16/16
f 171/79/73 197/80/74 67/81/64
f 162/82/75 166/83/47 167/84/76
f 196/85/77 67/63/64 195/86/78
f 98/87/79 43/88/80 91/89/81
f 85/90/82 86/91/83 84/92/84
f 130/93/85 129/94/86 63/95/87
f 125/96/88 131/71/68 20/97/37
f 95/98/89 91/99/81 93/100/90
f 144/101/91 140/102/65 142/103/66
f 188/104/92 70/105/93 189/106/94
f 91/99/81 92/107/95 93/108/90
f 94/109/96 93/108/90 92/107/95
f 94/109/96 96/110/97 95/111/89
f 96/110/97 97/112/98 98/87/79
f 96/110/97 98/87/79 95/111/89
f 144/113/91 41/114/70 138/115/99
f 82/116/100 88/117/101 10/3/20
f 47/118/6 100/119/30 99/120/29
f 40/74/71 103/121/102 104/122/103
f 40/74/71 104/122/103 105/123/104
f 103/121/102 106/124/105 107/125/106
f 103/121/102 107/125/106 104/122/103
f 108/126/107 107/125/106 106/124/105
f 108/126/107 109/127/108 110/128/109
f 108/126/107 110/128/109 107/125/106
f 71/129/110 110/128/109 109/127/108
f 57/130/111 111/131/112 110/128/109
f 111/131/112 105/123/104 104/122/103
f 104/122/103 107/125/106 110/128/109
f 104/122/103 110/128/109 111/131/112
f 184/132/113 179/133/114 178/134/115
f 36/135/116 114/136/117 115/137/118
f 53/138/119 54/139/120 55/140/121
f 72/141/122 116/142/123 114/136/117
f 116/142/123 117/143/124 118/144/125
f 116/142/123 118/144/125 114/136/117
f 117/143/124 119/145/126 118/144/125
f 119/145/126 120/146/127 121/147/128
f 119/145/126 121/147/128 118/144/125
f 61/148/129 122/149/130 121/147/128
f 61/148/129 121/147/128 120/146/127
f 122/149/130 115/137/118 114/136/117
f 122/149/130 114/136/117 121/147/128
f 114/136/117 118/144/125 121/147/128
f 123/150/131 126/151/63 127/152/132
f 123/150/131 127/152/132 124/153/133
f 128/154/134 127/155/132 126/156/63
f 177/157/135 175/158/136 180/159/137
f 81/160/138 88/117/101 82/116/100
f 21/39/40 106/124/105 136/40/41
f 82/116/100 54/139/120 81/160/138
f 138/161/99 139/162/139 140/102/65
f 141/163/62 140/64/65 139/164/139
f 163/165/44 164/166/140 166/167/47
f 141/61/62 143/60/61 142/65/66
f 169/168/141 177/157/135 170/169/142
f 125/170/88 123/150/131 124/153/133
f 187/171/143 188/172/92 189/173/94
f 51/174/144 145/175/145 146/176/146
f 63/177/87 131/71/68 130/178/85
f 147/179/147 148/180/148 149/181/149
f 147/179/147 149/181/149 145/175/145
f 148/180/148 150/182/150 149/181/149
f 150/182/150 151/183/151 152/184/152
f 150/182/150 152/184/152 149/181/149
f 56/185/153 153/186/154 152/184/152
f 56/185/153 152/184/152 151/183/151
f 153/186/154 146/176/146 145/175/145
f 153/186/154 145/175/145 152/184/152
f 145/175/145 149/181/149 152/184/152
f 73/187/155 154/188/156 155/189/157
f 46/190/158 156/191/159 154/188/156
f 156/191/159 157/192/160 158/193/161
f 157/192/160 159/194/162 158/193/161
f 159/194/162 160/195/163 161/196/164
f 159/194/162 161/196/164 158/193/161
f 162/82/75 161/196/164 160/195/163
f 162/82/75 155/189/157 154/188/156
f 162/82/75 154/188/156 161/196/164
f 154/188/156 156/191/159 158/193/161
f 154/188/156 158/193/161 161/196/164
f 19/34/35 18/33/34 112/197/165
f 83/198/166 85/90/82 84/92/84
f 124/199/133 131/71/68 125/96/88
f 54/139/120 9/19/19 55/140/121
f 66/200/167 173/201/168 174/202/169
f 66/200/167 174/202/169 172/203/170
f 175/158/136 174/202/169 173/201/168
f 130/204/85 127/152/132 129/205/86
f 175/158/136 177/157/135 176/206/171
f 195/86/78 202/207/172 196/85/77
f 202/207/172 198/208/173 200/209/174
f 69/210/175 186/211/176 187/171/143
f 182/212/177 183/213/178 184/132/113
f 184/214/113 180/159/137 182/215/177
f 97/112/98 58/216/179 98/87/79
f 41/73/70 49/217/180 137/41/42
f 70/105/93 190/218/181 191/219/182
f 70/105/93 191/219/182 189/106/94
f 192/220/183 191/219/182 190/218/181
f 192/220/183 194/221/184 193/222/185
f 194/221/184 69/210/175 187/171/143
f 194/221/184 187/171/143 193/222/185
f 198/208/173 67/63/64 197/223/74
f 63/95/87 129/94/86 113/35/36
f 171/224/73 66/200/167 172/203/170
f 169/168/141 171/79/73 172/225/170
f 199/226/186 200/227/174 198/228/173
f 191/219/182 192/220/183 193/222/185
f 160/195/163 159/194/162 168/229/48
f 112/197/165 61/148/129 62/72/69
f 22/42/43 56/185/153 151/183/151
f 170/169/142 60/230/187 169/168/141
f 15/26/27 6/12/12 5/11/11
f 78/231/15 17/30/31 102/32/33
f 80/232/18 77/66/9 76/233/188
f 87/234/189 10/3/20 88/117/101
f 188/172/92 179/235/114 185/236/190
f 94/109/96 87/234/189 86/91/83
f 93/108/90 94/109/96 95/111/89
f 85/90/82 97/112/98 96/110/97
f 60/230/187 59/237/191 197/80/74
f 63/177/87 19/34/35 112/197/165
f 92/238/95 15/26/27 94/109/96
f 39/239/192 58/216/179 97/112/98
f 43/240/80 168/229/48 44/241/193
f 4/10/10 101/31/32 17/30/31
f 44/241/193 42/242/194 43/240/80
f 133/243/195 135/244/196 21/245/40
f 68/246/197 69/210/175 59/237/191
f 74/5/5 7/247/13 79/248/67
f 70/105/93 185/249/190 183/213/178
f 1/2/2 10/3/20 2/3/3
f 52/250/198 125/170/88 134/77/39
f 21/39/40 108/126/107 106/124/105
f 133/243/195 21/245/40 132/251/38
f 134/77/39 48/76/72 52/250/198
f 9/19/19 11/20/21 55/140/121
f 18/33/34 36/135/116 115/137/118
f 112/197/165 122/149/130 61/148/129
f 197/80/74 199/226/186 198/228/173
f 174/252/169 169/168/141 172/225/170
f 128/154/134 113/253/36 129/94/86
f 61/148/129 20/36/37 62/72/69
f 101/254/32 113/253/36 102/255/33
f 99/28/29 1/2/2 64/1/1
f 56/185/153 55/140/121 153/186/154
f 34/58/59 148/180/148 147/179/147
f 146/176/146 11/20/21 51/174/144
f 183/213/178 185/249/190 184/132/113
f 96/110/97 94/109/96 86/91/83
f 3/256/4 65/257/7 77/66/9
f 72/141/122 36/135/116 46/190/158
f 165/258/45 83/198/166 22/259/43
f 8/260/16 7/261/13 45/67/17
f 75/262/8 64/1/1 2/3/3
f 58/216/179 38/263/199 23/45/46
f 165/258/45 39/239/192 83/198/166
f 51/174/144 1/2/2 57/130/111
f 88/117/101 84/264/84 86/265/83
f 14/25/26 156/191/159 46/190/158
f 22/42/43 151/183/151 163/165/44
f 109/127/108 24/48/49 71/129/110
f 164/166/140 150/182/150 148/180/148
f 38/263/199 165/258/45 23/45/46
f 24/48/49 108/126/107 25/49/50
f 166/167/47 164/166/140 167/266/76
f 68/246/197 60/230/187 170/169/142
f 24/48/49 35/59/60 34/58/59
f 32/56/57 190/267/181 70/105/93
f 68/246/197 170/169/142 178/268/115
f 177/157/135 180/159/137 170/169/142
f 180/159/137 175/158/136 181/269/200
f 123/270/131 144/271/91 143/60/61
f 173/272/168 25/49/50 175/158/136
f 173/272/168 26/50/51 25/49/50
f 27/51/52 182/212/177 181/269/200
f 139/162/139 138/161/99 12/273/22
f 196/85/77 33/57/58 35/59/60
f 159/194/162 44/241/193 168/229/48
f 183/213/178 32/56/57 70/105/93
f 30/54/55 29/53/54 28/52/53
f 199/226/186 59/237/191 69/210/175
f 186/211/176 68/246/197 179/235/114
f 31/55/56 192/220/183 190/267/181
f 27/51/52 183/213/178 182/212/177
f 8/16/16 5/11/11 4/10/10
f 192/220/183 201/274/201 200/227/174
f 28/52/53 117/143/124 116/142/123
f 201/274/201 33/57/58 202/207/172
f 30/54/55 162/82/75 31/55/56
f 196/85/77 35/59/60 67/63/64
f 105/123/104 89/22/23 12/21/22
f 155/189/157 30/54/55 73/187/155
f 28/52/53 116/142/123 72/141/122
f 193/275/185 189/173/94 191/276/182
f 84/264/84 54/139/120 83/277/166
f 122/149/130 18/33/34 115/137/118
f 194/221/184 200/227/174 199/226/186
f 90/23/24 16/27/28 100/278/30
f 144/113/91 50/279/202 49/280/180
f 91/99/81 42/242/194 13/24/25
f 139/281/139 90/282/24 141/61/62
f 126/62/63 141/61/62 128/283/134
f 14/25/26 157/192/160 156/191/159
f 57/130/111 89/22/23 111/131/112
f 105/123/104 12/21/22 40/74/71
f 40/74/71 136/40/41 103/121/102
f 11/20/21 153/186/154 55/140/121
f 119/145/126 133/284/195 132/285/38
f 174/202/169 175/158/136 176/206/171
f 38/263/199 58/216/179 39/239/192
f 94/109/96 80/232/18 76/286/188
f 26/50/51 66/200/167 67/63/64
f 7/13/13 3/4/4 77/66/9
f 99/28/29 64/1/1 65/7/7
f 141/61/62 90/282/24 100/119/30
f 79/70/67 102/255/33 128/154/134
f 102/255/33 113/253/36 128/154/134
f 141/61/62 100/119/30 74/69/5
f 79/70/67 128/283/134 141/61/62
f 131/71/68 63/177/87 62/72/69
f 41/73/70 136/40/41 40/74/71
f 4/10/10 17/30/31 37/78/14
f 202/207/172 200/227/174 201/274/201
f 171/79/73 60/230/187 197/80/74
f 162/82/75 160/195/163 166/83/47
f 144/271/91 142/65/66 143/60/61
f 7/247/13 78/287/15 79/248/67
f 48/76/72 49/280/180 50/279/202
f 52/250/198 48/76/72 50/279/202
f 98/87/79 58/216/179 43/88/80
f 134/77/39 125/96/88 20/97/37
f 95/98/89 98/288/79 91/99/81
f 144/101/91 138/161/99 140/102/65
f 144/113/91 49/280/180 41/114/70
f 9/19/19 82/116/100 10/3/20
f 47/118/6 74/289/5 100/119/30
f 77/66/9 75/290/8 76/233/188
f 184/132/113 185/249/190 179/133/114
f 56/185/153 53/138/119 55/140/121
f 15/26/27 92/238/95 13/24/25
f 92/238/95 91/99/81 13/24/25
f 182/212/177 180/159/137 181/269/200
f 106/124/105 103/121/102 136/40/41
f 169/168/141 176/206/171 177/157/135
f 125/170/88 50/279/202 123/150/131
f 187/171/143 186/211/176 188/172/92
f 145/175/145 51/174/144 147/179/147
f 83/198/166 39/239/192 85/90/82
f 124/199/133 130/178/85 131/71/68
f 54/139/120 82/116/100 9/19/19
f 130/204/85 124/153/133 127/152/132
f 202/207/172 195/86/78 198/208/173
f 192/220/183 31/55/56 162/82/75
f 164/166/140 148/180/148 201/274/201
f 148/180/148 33/57/58 201/274/201
f 201/274/201 192/220/183 164/166/140
f 192/220/183 162/82/75 167/266/76
f 167/266/76 164/166/140 192/220/183
f 184/214/113 178/268/115 180/159/137
f 136/40/41 41/73/70 137/41/42
f 198/208/173 195/86/78 67/63/64
f 19/34/35 63/95/87 113/35/36
f 169/168/141 60/230/187 171/79/73
f 76/286/188 75/262/8 2/3/3
f 166/83/47 160/195/163 168/229/48
f 62/72/69 63/177/87 112/197/165
f 22/42/43 53/138/119 56/185/153
f 15/26/27 14/25/26 6/12/12
f 78/231/15 37/78/14 17/30/31
f 80/232/18 45/67/17 77/66/9
f 179/235/114 68/246/197 178/268/115
f 188/172/92 186/211/176 179/235/114
f 138/161/99 41/73/70 12/21/22
f 96/110/97 86/91/83 85/90/82
f 79/70/67 78/291/15 102/255/33
f 39/239/192 97/112/98 85/90/82
f 49/280/180 48/76/72 137/75/42
f 4/10/10 6/12/12 101/31/32
f 44/241/193 157/192/160 42/242/194
f 59/237/191 60/230/187 68/246/197
f 74/5/5 3/4/4 7/247/13
f 70/105/93 188/104/92 185/249/190
f 1/2/2 11/20/21 10/3/20
f 13/24/25 42/242/194 14/25/26
f 52/250/198 50/279/202 125/170/88
f 137/75/42 134/77/39 132/251/38
f 132/251/38 21/245/40 137/75/42
f 21/39/40 135/292/196 108/126/107
f 88/117/101 86/91/83 87/234/189
f 197/80/74 59/237/191 199/226/186
f 174/252/169 176/293/171 169/168/141
f 50/279/202 144/113/91 123/150/131
f 61/148/129 120/146/127 20/36/37
f 168/229/48 43/88/80 23/294/46
f 43/88/80 58/216/179 23/294/46
f 101/254/32 18/254/34 113/253/36
f 99/28/29 16/27/28 1/2/2
f 34/58/59 33/57/58 148/180/148
f 3/256/4 47/68/6 65/257/7
f 129/94/86 127/155/132 128/154/134
f 154/188/156 73/187/155 46/190/158
f 73/187/155 30/54/55 28/52/53
f 72/141/122 114/136/117 36/135/116
f 73/187/155 28/52/53 72/141/122
f 6/12/12 14/25/26 46/190/158
f 18/33/34 101/31/32 36/135/116
f 101/31/32 6/12/12 36/135/116
f 46/190/158 73/187/155 72/141/122
f 36/135/116 6/12/12 46/190/158
f 83/198/166 54/295/120 22/259/43
f 8/260/16 37/78/14 7/261/13
f 75/262/8 65/7/7 64/1/1
f 71/129/110 24/48/49 34/58/59
f 71/129/110 34/58/59 147/179/147
f 110/128/109 71/129/110 57/130/111
f 16/27/28 89/22/23 57/130/111
f 71/129/110 147/179/147 51/174/144
f 51/174/144 11/20/21 1/2/2
f 1/2/2 16/27/28 57/130/111
f 57/130/111 71/129/110 51/174/144
f 88/117/101 81/160/138 84/264/84
f 163/165/44 166/83/47 23/45/46
f 23/45/46 165/258/45 163/165/44
f 151/183/151 150/182/150 163/165/44
f 164/166/140 163/296/44 150/182/150
f 24/48/49 109/127/108 108/126/107
f 20/36/37 120/146/127 132/251/38
f 120/146/127 119/145/126 132/251/38
f 192/220/183 200/227/174 194/221/184
f 24/48/49 26/50/51 35/59/60
f 32/56/57 31/55/56 190/267/181
f 180/159/137 178/268/115 170/169/142
f 143/297/61 126/151/63 123/270/131
f 173/272/168 66/200/167 26/50/51
f 90/282/24 139/162/139 12/273/22
f 196/85/77 202/207/172 33/57/58
f 159/194/162 157/192/160 44/241/193
f 54/139/120 53/138/119 22/42/43
f 183/213/178 29/53/54 32/56/57
f 30/54/55 32/56/57 29/53/54
f 186/211/176 69/210/175 68/246/197
f 27/51/52 29/53/54 183/213/178
f 8/16/16 80/18/18 5/11/11
f 28/52/53 27/51/52 117/143/124
f 30/54/55 155/189/157 162/82/75
f 105/123/104 111/131/112 89/22/23
f 193/275/185 187/171/143 189/173/94
f 84/264/84 81/160/138 54/139/120
f 122/149/130 112/197/165 18/33/34
f 66/200/167 171/224/73 67/63/64
f 199/226/186 69/210/175 194/221/184
f 90/23/24 89/22/23 16/27/28
f 91/99/81 43/240/80 42/242/194
f 133/284/195 117/143/124 181/269/200
f 117/143/124 27/51/52 181/269/200
f 181/269/200 175/158/136 133/243/195
f 25/49/50 108/126/107 175/158/136
f 108/126/107 135/244/196 175/158/136
f 135/244/196 133/243/195 175/158/136
f 14/25/26 42/242/194 157/192/160
f 11/20/21 146/176/146 153/186/154
f 119/145/126 117/143/124 133/284/195
f 39/239/192 165/258/45 38/263/199
f 94/109/96 15/26/27 5/11/11
f 76/286/188 2/3/3 87/234/189
f 2/3/3 10/3/20 87/234/189
f 94/109/96 5/11/11 80/232/18
f 76/286/188 87/234/189 94/109/96
