# Blender 5.2.2 LTS
# www.blender.org
mtllib SprinklerHeadLow.mtl
o Object_6
v 0.003199 -0.068815 0.000439
v 0.003217 -0.069436 -0.002118
v -0.001314 -0.069829 -0.002474
v -0.001825 -0.069080 -0.002320
v -0.000955 -0.069088 -0.002013
v -0.001871 -0.069093 0.001307
v -0.002591 -0.069096 0.001456
v -0.001399 -0.070000 0.002034
v 0.001780 -0.069451 0.002846
v 0.002768 -0.069774 -0.000021
v 0.001697 -0.061589 -0.001108
v 0.000658 -0.060492 -0.001145
v 0.002349 -0.060628 -0.000732
v -0.000159 -0.060615 -0.001526
v -0.001069 -0.061305 0.000642
v -0.000392 -0.060612 0.001754
v -0.001185 -0.060898 0.001090
v 0.001349 -0.061304 0.001574
v 0.001909 -0.061311 0.001909
v 0.001916 -0.060615 0.001434
v 0.003890 -0.044051 0.000592
v 0.001341 -0.045786 -0.002641
v 0.001519 -0.044053 -0.002856
v -0.001035 -0.044056 -0.001570
v -0.002404 -0.044442 -0.001010
v -0.001121 -0.045800 0.002448
v 0.000122 -0.044047 0.002523
v -0.000072 -0.044010 0.003394
v 0.003188 -0.045657 0.001239
v 0.002763 -0.044053 -0.000961
v 0.012871 -0.029925 0.001637
v 0.007799 -0.029935 -0.010880
v 0.010281 -0.041585 -0.008722
v -0.007107 -0.029895 -0.010045
v -0.003620 -0.041579 -0.011882
v -0.010402 -0.041583 -0.005556
v -0.011723 -0.029930 0.000785
v -0.011135 -0.041586 0.003743
v -0.004720 -0.041586 0.010641
v -0.005513 -0.029933 0.010821
v 0.004613 -0.041586 0.011372
v 0.006329 -0.029930 0.010666
v 0.012270 -0.041581 0.003731
v 0.005639 -0.039299 -0.000803
v 0.000088 -0.044055 -0.004532
v -0.005570 -0.039285 -0.005164
v -0.006794 -0.044047 -0.004216
v -0.005123 -0.039302 0.000824
v -0.002460 -0.044061 0.003376
v 0.006642 -0.039291 0.005508
v 0.007599 -0.044038 0.004036
v -0.014990 -0.069122 0.006627
v -0.016187 -0.068112 0.005135
v -0.006239 -0.068998 0.014614
v 0.006428 -0.069235 0.015148
v 0.014977 -0.069069 0.006471
v 0.016379 -0.069022 0.000769
v 0.015331 -0.068898 -0.005984
v 0.012161 -0.068825 -0.011228
v 0.006871 -0.068789 -0.014771
v -0.004608 -0.069053 -0.011313
v -0.016569 -0.068796 -0.000716
v -0.015027 -0.067118 0.006041
v -0.011854 -0.068137 0.011570
v -0.006361 -0.067479 0.014951
v -0.000444 -0.068715 0.016418
v 0.000400 -0.067219 0.012104
v 0.006246 -0.067201 0.015231
v 0.011701 -0.068208 0.011578
v 0.015244 -0.067578 0.006344
v 0.016631 -0.067462 0.000351
v 0.015199 -0.067367 -0.005921
v 0.012001 -0.067314 -0.011019
v 0.007013 -0.067251 -0.014517
v 0.000729 -0.068378 -0.016482
v 0.000140 -0.067150 -0.012373
v -0.005239 -0.068101 -0.016006
v -0.004250 -0.067270 -0.011335
v -0.007188 -0.068078 -0.015230
v -0.011066 -0.068704 -0.012535
v -0.008536 -0.067136 -0.008655
v -0.012446 -0.068076 -0.011370
v -0.015134 -0.068012 -0.006563
v -0.016232 -0.067243 -0.000667
v 0.009873 -0.043011 0.007437
v 0.010567 -0.061034 0.007844
v 0.004981 -0.060530 0.004500
v 0.004660 -0.039386 0.003398
v 0.009651 -0.039416 0.005743
v 0.006648 -0.060723 0.002295
v 0.011287 -0.043096 0.005182
v 0.012014 -0.061033 0.005473
v 0.005601 -0.067145 0.003249
v 0.000236 -0.067161 0.000038
v 0.000191 -0.061448 0.000020
v -0.005234 -0.039438 -0.001560
v -0.010234 -0.039441 -0.004544
v -0.005665 -0.060610 -0.001833
v -0.003659 -0.039358 -0.003859
v -0.008333 -0.039426 -0.006651
v -0.010804 -0.060829 -0.006538
v -0.005069 -0.067096 -0.003099
v 0.000295 -0.067161 0.000113
v 0.000376 -0.061422 0.000165
v -0.004316 -0.060725 -0.004263
v -0.001825 -0.060081 0.001012
v -0.001437 -0.044843 0.000872
v -0.000668 -0.059709 0.002076
v 0.000782 -0.045657 0.001983
v 0.000595 -0.059214 0.002169
v -0.000311 -0.043961 0.000540
v 0.000109 -0.061099 0.001132
v 0.001851 -0.046064 0.001287
v 0.001767 -0.059694 0.001194
v 0.001361 -0.044416 -0.000047
v 0.002266 -0.059362 -0.000423
v 0.001194 -0.061092 -0.000421
v 0.002199 -0.046144 -0.000737
v 0.001090 -0.045755 -0.001888
v 0.001214 -0.059784 -0.001772
v -0.000636 -0.059920 -0.002072
v -0.000280 -0.045021 -0.001903
v -0.001696 -0.045219 -0.001125
v -0.002258 -0.059420 -0.000280
v -0.000947 -0.061195 -0.000454
v -0.002224 -0.045887 0.000013
v -0.001333 -0.045834 0.001835
v 0.000000 -0.031888 -0.010749
v 0.000000 0.000000 -0.010749
v 0.007677 -0.031888 -0.007601
v 0.007677 0.000000 -0.007601
v 0.010856 -0.031888 0.000000
v 0.010856 0.000000 0.000000
v 0.007677 -0.031888 0.007601
v 0.007677 0.000000 0.007601
v 0.000000 -0.031888 0.010749
v 0.000000 0.000000 0.010749
v -0.007677 -0.031888 0.007601
v -0.007677 0.000000 0.007601
v -0.010856 -0.031888 0.000000
v -0.010856 0.000000 0.000000
v -0.007677 -0.031888 -0.007601
v -0.007677 0.000000 -0.007601
v 0.000000 -0.029895 -0.014131
v 0.000000 -0.009965 -0.014131
v 0.010091 -0.029895 -0.009992
v 0.010091 -0.009965 -0.009992
v 0.014271 -0.029895 0.000000
v 0.014271 -0.009965 0.000000
v 0.010091 -0.029895 0.009992
v 0.010091 -0.009965 0.009992
v 0.000000 -0.029895 0.014131
v 0.000000 -0.009965 0.014131
v -0.010091 -0.029895 0.009992
v -0.010091 -0.009965 0.009992
v -0.014271 -0.029895 0.000000
v -0.014271 -0.009965 0.000000
v -0.010091 -0.029895 -0.009992
v -0.010091 -0.009965 -0.009992
vn -0.9159 -0.3626 0.1724
vn -0.8707 0.4666 -0.1553
vn -0.0891 -0.9814 0.1701
vn -0.3554 0.2794 0.8920
vn -0.0626 0.9555 -0.2881
vn -0.0914 0.9831 -0.1587
vn -0.1963 0.9790 -0.0549
vn -0.2780 0.2297 0.9327
vn 0.8421 -0.0351 0.5381
vn 0.7966 0.1768 0.5780
vn 0.8069 -0.0369 0.5895
vn 0.0557 0.2376 -0.9698
vn 0.5086 0.7258 -0.4632
vn 0.6519 0.7119 -0.2611
vn 0.7140 -0.6344 -0.2964
vn -0.3966 0.5360 -0.7452
vn 0.7583 -0.0014 0.6519
vn 0.8081 0.0635 0.5856
vn 0.7635 0.0049 0.6458
vn -0.7777 0.6065 -0.1653
vn -0.5869 0.0061 0.8096
vn -0.5108 0.0370 0.8589
vn -0.5320 0.0286 0.8463
vn 0.9735 0.1215 0.1937
vn 0.2271 0.9739 -0.0023
vn 0.9084 0.2874 0.3037
vn -0.8296 -0.5316 -0.1705
vn -0.6801 0.0262 0.7326
vn -0.5179 0.7899 0.3284
vn -0.6016 -0.7057 0.3742
vn 0.2987 0.1652 -0.9399
vn 0.1148 0.5597 0.8207
vn -0.7063 -0.6306 -0.3218
vn -0.2411 -0.9615 -0.1316
vn -0.7954 -0.6006 -0.0815
vn -0.6753 0.0042 0.7375
vn -0.5464 -0.0523 0.8359
vn -0.6485 -0.0083 0.7612
vn -0.9283 0.1229 -0.3508
vn 0.9585 0.2406 -0.1526
vn 0.7125 -0.0383 0.7006
vn 0.2522 0.6721 0.6962
vn 0.2467 -0.8362 0.4898
vn 0.8442 0.1838 0.5034
vn 0.8396 0.1552 0.5206
vn 0.8396 0.1549 0.5206
vn 0.5940 -0.7204 0.3582
vn 0.4736 -0.8225 0.3150
vn 0.4957 -0.8227 0.2781
vn 0.4995 0.4976 0.7092
vn 0.2360 0.7537 -0.6134
vn -0.4191 -0.0691 -0.9053
vn 0.8143 -0.1530 -0.5599
vn -0.8598 0.3189 0.3987
vn 0.8748 0.4833 0.0349
vn 0.6474 0.6939 0.3151
vn -0.8600 0.2774 0.4282
vn -0.2698 0.2315 -0.9347
vn -0.0550 0.1390 -0.9888
vn 0.5762 0.0758 0.8138
vn -0.0001 -1.0000 0.0001
vn -0.4594 -0.7390 -0.4927
vn -0.3287 -0.8760 -0.3530
vn -0.9146 0.1083 -0.3895
vn -0.8469 0.0903 0.5241
vn 0.9193 0.1268 -0.3726
vn 0.0131 0.0585 0.9982
vn 0.3469 0.2935 -0.8908
vn -0.9624 0.2617 0.0726
vn 0.6856 -0.7269 0.0400
vn 0.7574 -0.5451 0.3595
vn -0.7025 0.3134 -0.6390
vn 0.6408 0.7021 0.3104
vn 0.8013 0.5983 0.0064
vn -0.2326 -0.7869 0.5716
vn -0.0328 -0.9781 0.2056
vn 0.0031 0.9970 -0.0767
vn -0.0896 0.9912 -0.0973
vn 0.8034 -0.1685 -0.5711
vn -0.0123 0.9999 -0.0037
vn 0.4626 0.2299 -0.8562
vn 0.3563 0.7047 -0.6135
vn -0.6180 0.7796 -0.1012
vn 0.2990 0.0770 -0.9511
vn -0.7167 0.2214 -0.6613
vn -0.7403 0.0820 -0.6673
vn 0.8744 -0.0549 0.4821
vn 0.7616 0.5308 0.3719
vn 0.6318 0.6969 0.3393
vn -0.9538 0.0325 0.2986
vn -0.2949 0.5757 0.7626
vn -0.0204 0.9918 0.1261
vn -0.0102 0.9454 0.3259
vn 0.4804 0.8767 -0.0242
vn 0.0935 0.9952 0.0302
vn 0.8152 -0.5342 0.2240
vn 0.9680 0.0283 0.2493
vn 0.1948 0.9236 0.3301
vn 0.3570 0.9171 -0.1777
vn -0.5907 -0.8058 -0.0418
vn -0.0931 -0.6520 -0.7525
vn -0.5022 -0.2058 0.8399
vn -0.5162 -0.2056 0.8314
vn -0.6151 -0.0059 0.7885
vn -0.3930 0.3720 0.8410
vn -0.7284 0.6270 -0.2762
vn -0.7519 0.4756 -0.4565
vn -0.6828 -0.0031 0.7306
vn -0.0503 0.7808 -0.6228
vn -0.6954 -0.6489 0.3087
vn 0.8288 -0.5595 -0.0066
vn -0.7979 -0.0744 -0.5981
vn -0.4524 0.5289 -0.7181
vn 0.5567 -0.8136 0.1680
vn -0.0698 -0.9929 0.0964
vn -0.0583 -0.9953 0.0772
vn -0.0140 -0.9999 0.0031
vn 0.2409 -0.5600 0.7927
vn -0.5114 -0.0662 0.8568
vn -0.6566 -0.2020 0.7267
vn -0.5041 -0.2097 0.8378
vn -0.3146 -0.0043 0.9492
vn 0.1296 -0.9794 0.1549
vn 0.8735 0.4152 0.2543
vn -0.2613 -0.7473 0.6109
vn 0.0233 -0.9980 -0.0591
vn 0.9178 0.0427 0.3948
vn 0.7706 0.0425 0.6359
vn 0.8527 0.0430 0.5207
vn 0.7194 0.1619 -0.6754
vn -0.3480 -0.8411 -0.4140
vn 0.0768 0.9783 -0.1927
vn 0.0186 0.9994 -0.0308
vn 0.0749 0.9692 -0.2347
vn -0.0002 1.0000 0.0005
vn -0.0006 1.0000 -0.0003
vn -0.0005 1.0000 -0.0001
vn -0.0533 0.9975 -0.0454
vn 0.0063 1.0000 -0.0058
vn 0.0016 1.0000 -0.0089
vn 0.1370 0.9826 -0.1256
vn -0.0126 0.9999 0.0080
vn -0.0240 0.9987 -0.0453
vn -0.0448 0.9756 0.2148
vn -0.4209 0.6749 -0.6061
vn 0.7924 -0.4919 -0.3608
vn -0.4723 -0.2893 0.8326
vn -0.0036 1.0000 0.0036
vn -0.2693 0.9620 -0.0443
vn 0.7995 -0.5570 -0.2248
vn -0.4066 -0.8916 -0.1992
vn 0.2252 0.6781 -0.6996
vn -0.1215 -0.6378 0.7605
vn -0.5535 -0.7202 -0.4184
vn 0.9844 -0.0790 -0.1572
vn 0.2197 -0.1323 -0.9666
vn 0.0015 1.0000 0.0017
vn -0.0028 1.0000 0.0020
vn 0.0004 1.0000 0.0018
vn -0.0007 1.0000 -0.0006
vn 0.0028 1.0000 0.0016
vn -0.0000 -1.0000 0.0003
vn -0.2899 0.9548 -0.0655
vn -0.1671 0.9851 0.0412
vn -0.6794 -0.0882 -0.7284
vn -0.9945 -0.0701 -0.0784
vn -0.9919 -0.0568 -0.1134
vn 0.7051 -0.0610 0.7065
vn -0.4454 -0.0441 0.8943
vn -0.2629 -0.9334 0.2444
vn -0.3218 -0.6497 0.6887
vn 0.0963 -0.9857 -0.1383
vn -0.8483 -0.2152 0.4838
vn 0.7075 -0.3399 -0.6196
vn 0.0017 1.0000 -0.0015
vn -0.0453 -0.1838 -0.9819
vn -0.0270 -0.9373 0.3474
vn -0.2641 -0.7301 0.6302
vn -0.0010 -1.0000 0.0029
vn 0.0025 -1.0000 -0.0033
vn 0.0002 -1.0000 -0.0003
vn 0.0002 -1.0000 -0.0004
vn 0.1258 0.9918 0.0227
vn -0.0020 1.0000 0.0029
vn -0.0616 -0.3070 0.9497
vn 0.1005 -0.8591 0.5018
vn 0.0290 0.9866 0.1605
vn -0.0104 0.9683 0.2496
vn -0.0328 -0.9862 -0.1626
vn 0.0062 -0.9984 -0.0554
vn -0.3484 -0.8871 0.3030
vn -0.3058 -0.9403 -0.1496
vn -0.0154 -0.9922 -0.1236
vn -0.0076 -0.9715 -0.2368
vn 0.0137 -0.9996 -0.0241
vn -0.0187 -0.9998 0.0065
vn 0.2912 0.7150 -0.6356
vn 0.4090 0.1116 -0.9057
vn 0.2743 0.1317 -0.9526
vn -0.0287 0.9566 -0.2899
vn -0.0218 0.9996 -0.0159
vn -0.0234 0.9751 -0.2205
vn -0.1373 -0.0883 -0.9866
vn -0.1760 -0.0882 -0.9804
vn 0.8165 0.2866 0.5012
vn -0.9658 0.1963 0.1695
vn -0.0152 0.9996 0.0244
vn 0.5099 0.0067 -0.8602
vn 0.5055 -0.0685 -0.8601
vn 0.5018 -0.1099 -0.8580
vn 0.4899 -0.2057 -0.8472
vn 0.5030 -0.2067 -0.8392
vn 0.3323 -0.0003 -0.9432
vn 0.4056 0.3116 -0.8593
vn 0.3619 -0.0041 -0.9322
vn 0.3308 0.0077 -0.9437
vn 0.3267 -0.2071 -0.9221
vn 0.5000 -0.2125 -0.8395
vn 0.6861 -0.0030 -0.7275
vn 0.9619 -0.2165 -0.1670
vn 0.9356 0.2177 -0.2782
vn 0.8160 0.2469 0.5227
vn -0.2919 -0.3824 -0.8767
vn -0.1174 0.5563 -0.8227
vn 0.4380 0.3006 -0.8472
vn 0.0707 -0.8511 0.5202
vn -0.3062 -0.3256 0.8946
vn -0.7704 -0.4413 0.4601
vn -0.1102 0.9684 0.2237
vn 0.2788 0.3821 0.8811
vn 0.5887 0.8079 -0.0274
vn -0.5225 0.2734 0.8076
vn 0.4891 -0.3373 -0.8044
vn 0.2900 -0.1993 0.9360
vn 0.7717 -0.3522 0.5296
vn 0.4986 -0.8461 -0.1884
vn -0.9775 0.2093 0.0264
vn -0.9536 -0.2172 -0.2082
vn -0.4088 -0.8822 -0.2335
vn -0.7030 0.4650 -0.5381
vn -0.6563 0.6561 0.3726
vn 0.3795 -0.0000 -0.9252
vn -0.3795 -0.0000 0.9252
vn 0.9225 -0.0000 -0.3859
vn 0.3795 -0.0000 0.9252
vn 0.9225 -0.0000 0.3859
vn -0.9225 -0.0000 0.3859
vn -0.0000 1.0000 -0.0000
vn -0.9225 -0.0000 -0.3859
vn -0.3795 -0.0000 -0.9252
vn -0.0000 -1.0000 -0.0000
vt 0.349426 0.910873
vt 0.468836 0.948163
vt 0.358560 0.727655
vt 0.619348 0.822830
vt 0.179007 0.551720
vt 0.185243 0.898113
vt 0.010777 0.394496
vt 0.071761 0.546388
vt 0.036216 0.384990
vt 0.271291 0.604419
vt 0.448988 0.525959
vt 0.192358 0.465027
vt 0.557052 0.987722
vt 0.434190 0.064211
vt 0.559140 0.109680
vt 0.646832 0.715317
vt 0.504241 0.636820
vt 0.573109 0.879346
vt 0.003640 0.565705
vt 0.016352 0.552742
vt 0.003697 0.544756
vt 0.479273 0.114487
vt 0.354676 0.089283
vt 0.362804 0.272041
vt 0.473227 0.723929
vt 0.467987 0.225890
vt 0.378875 0.264380
vt 0.488660 0.198325
vt 0.351890 0.066384
vt 0.363183 0.250629
vt 0.112705 0.963533
vt 0.223321 0.904148
vt 0.154637 0.836853
vt 0.622307 0.224172
vt 0.501577 0.026982
vt 0.237405 0.828031
vt 0.238345 0.688709
vt 0.041577 0.824024
vt 0.329130 0.421789
vt 0.395853 0.640380
vt 0.395279 0.229343
vt 0.637991 0.839207
vt 0.508124 0.683492
vt 0.500735 0.905342
vt 0.507755 0.328126
vt 0.513621 0.155349
vt 0.521177 0.132493
vt 0.498344 0.244645
vt 0.226615 0.904795
vt 0.113086 0.963274
vt 0.127467 0.419215
vt 0.100922 0.681656
vt 0.066363 0.823393
vt 0.282434 0.832341
vt 0.248836 0.490741
vt 0.742539 0.472808
vt 0.287159 0.404319
vt 0.311456 0.968754
vt 0.146800 0.999435
vt 0.450020 0.990314
vt 0.000038 0.001250
vt 0.090431 0.900530
vt 0.233590 0.444552
vt 0.100623 0.006578
vt 0.245030 0.888726
vt 0.067468 0.975817
vt 0.273811 0.986938
vt 0.294615 0.447349
vt 0.419584 0.318064
vt 0.244413 0.318004
vt 0.289685 0.696586
vt 0.139303 0.797592
vt 0.333820 0.840189
vt 0.646254 0.756447
vt 0.508789 0.742503
vt 0.497451 0.944076
vt 0.445246 0.860639
vt 0.356462 0.728175
vt 0.343947 0.939229
vt 0.073235 0.882046
vt 0.025279 0.979532
vt 0.212867 0.980414
vt 0.217213 0.886625
vt 0.071118 0.974493
vt 0.226895 0.979053
vt 0.264457 0.607506
vt 0.340680 0.471565
vt 0.131959 0.457796
vt 0.360887 0.291347
vt 0.453449 0.267563
vt 0.357691 0.115427
vt 0.829138 0.767216
vt 0.668481 0.342689
vt 0.588506 0.763215
vt 0.648916 0.122929
vt 0.505668 0.078925
vt 0.508927 0.313046
vt 0.894520 0.343829
vt 0.555444 0.305346
vt 0.503096 0.781710
vt 0.061799 0.709330
vt 0.186822 0.274184
vt 0.030440 0.243421
vt 0.968853 0.809634
vt 0.353715 0.691887
vt 0.715488 0.243591
vt 0.277213 0.080677
vt 0.657206 0.988912
vt 0.155654 0.979334
vt 0.805046 0.588843
vt 0.820388 0.612299
vt 0.853735 0.633554
vt 0.586868 0.348870
vt 0.645291 0.353582
vt 0.688468 0.098235
vt 0.739725 0.519070
vt 0.767789 0.308825
vt 0.687755 0.521006
vt 0.318820 0.201698
vt 0.286744 0.126707
vt 0.539953 0.940679
vt 0.542279 0.888739
vt 0.516339 0.876374
vt 0.522418 0.026035
vt 0.486531 0.028772
vt 0.517013 0.052647
vt 0.075159 0.248208
vt 0.677292 0.586089
vt 0.619314 0.995361
vt 0.611888 0.070356
vt 0.548013 0.626151
vt 0.432935 0.064021
vt 0.558271 0.736877
vt 0.640452 0.054458
vt 0.086645 0.919775
vt 0.046106 0.561521
vt 0.405445 0.980526
vt 0.605330 0.873570
vt 0.599976 0.867382
vt 0.590533 0.870931
vt 0.586059 0.865622
vt 0.570282 0.856286
vt 0.507724 0.821355
vt 0.505375 0.852481
vt 0.274175 0.768234
vt 0.792445 0.098130
vt 0.689886 0.448247
vt 0.250963 0.889081
vt 0.566121 0.254393
vt 0.619293 0.027320
vt 0.022490 0.682007
vt 0.301039 0.317431
vt 0.232283 0.407527
vt 0.430655 0.409975
vt 0.306791 0.445230
vt 0.086606 0.921541
vt 0.296775 0.914278
vt 0.443451 0.044504
vt 0.633510 0.015692
vt 0.408144 0.980433
vt 0.070562 0.881839
vt 0.684374 0.241162
vt 0.663971 0.301494
vt 0.233591 0.444566
vt 0.306789 0.445223
vt 0.686278 0.262985
vt 0.681416 0.076873
vt 0.405658 0.581848
vt 0.182483 0.525269
vt 0.168746 0.605713
vt 0.416078 0.645765
vt 0.236857 0.045151
vt 0.207483 0.126280
vt 0.506812 0.113239
vt 0.291196 0.679396
vt 0.448171 0.677610
vt 0.448015 0.081258
vt 0.446139 0.663380
vt 0.647767 0.975073
vt 0.040865 0.884885
vt 0.348684 0.409565
vt 0.031808 0.686240
vt 0.446370 0.738373
vt 0.993549 0.315620
vt 0.718362 0.999796
vt 0.010743 0.741703
vt 0.194805 0.686995
vt 0.678963 0.926518
vt 0.746652 0.058827
vt 0.661553 0.560797
vt 0.101355 0.100432
vt 0.119317 0.471704
vt 0.175807 0.451398
vt 0.355443 0.523440
vt 0.472808 0.964990
vt 0.786680 0.498986
vt 0.780593 0.525422
vt 0.821207 0.461536
vt 0.802604 0.473909
vt 0.864335 0.284140
vt 0.809007 0.452490
vt 0.786342 0.559074
vt 0.874419 0.628494
vt 0.927918 0.598801
vt 0.904602 0.478552
vt 0.836003 0.634956
vt 0.820668 0.605536
vt 0.468100 0.452515
vt 0.211803 0.557375
vt 0.718722 0.758296
vt 0.736252 0.730652
vt 0.710295 0.727656
vt 0.735885 0.721221
vt 0.743961 0.695418
vt 0.710828 0.664669
vt 0.657081 0.792871
vt 0.565646 0.796863
vt 0.502155 0.784748
vt 0.483981 0.762589
vt 0.504390 0.745910
vt 0.554650 0.612162
vt 0.775205 0.980224
vt 0.754588 0.890068
vt 0.281822 0.912833
vt 0.453712 0.881551
vt 0.149364 0.880957
vt 0.445229 0.407780
vt 0.997813 0.353573
vt 0.923773 0.211564
vt 0.952730 0.493896
vt 0.614369 0.548815
vt 0.640152 0.998418
vt 0.018573 0.832291
vt 0.122626 0.781753
vt 0.084121 0.567712
vt 0.902624 0.852963
vt 0.538251 0.000062
vt 0.433128 0.027068
vt 0.325712 0.510452
vt 0.355356 0.524956
vt 0.325699 0.510450
vt 0.935769 0.759522
vt 0.666193 0.585547
vt 0.649980 0.696184
vt 0.365138 0.283798
vt 0.325784 0.003330
vt 0.178676 0.034886
vt 0.364200 0.433642
vt 0.412801 0.483040
vt 0.449947 0.425031
vt 0.533278 0.638756
vt 0.576921 0.725839
vt 0.606310 0.621238
vt 0.468168 0.712829
vt 0.281219 0.304755
vt 0.652210 0.981184
vt 0.423462 0.984774
vt 0.280248 0.468939
vt 0.310112 0.380131
vt 0.345564 0.511057
vt 0.535637 0.526668
vt 0.863007 0.419722
vt 0.471258 0.348169
vt 0.394112 0.357747
vt 0.465874 0.557462
vt 0.517789 0.036620
vt 0.237780 0.385584
vt 0.062676 0.097912
vt 0.468003 0.657765
vt 0.337191 0.960728
vt 0.823669 0.897072
vt 0.608388 0.516613
vt 0.781500 0.516808
vt 0.417741 0.608748
vt 0.490711 0.348877
vt 0.000000 0.000000
s 1
usemtl m0
f 10/1/1 1/2/2 3/3/3
f 8/10/8 9/11/8 7/12/8
f 3/16/12 4/17/12 2/18/12
f 1/22/2 10/23/1 8/24/16
f 20/28/20 11/29/20 18/30/20
f 19/34/24 13/35/25 20/28/26
f 4/36/27 3/37/27 7/38/27
f 11/42/31 14/43/31 13/44/31
f 19/34/32 20/28/32 16/45/32
f 15/52/39 17/53/39 14/54/39
f 12/65/50 15/66/50 11/67/50
f 16/68/51 18/69/51 15/70/51
f 6/80/55 8/81/55 3/82/55
f 5/148/94 6/80/95 3/82/96
f 1/22/97 9/149/98 2/150/99
f 7/38/100 3/37/100 8/151/100
f 8/152/101 6/153/101 1/154/101
f 20/28/26 12/158/109 11/29/110
f 19/34/111 11/159/111 13/35/111
f 15/66/114 12/65/114 16/161/114
f 11/159/115 19/34/116 18/162/117
f 9/149/123 8/166/123 10/167/123
f 2/150/99 9/149/98 10/167/124
f 19/168/125 17/169/125 15/170/125
f 18/171/117 19/168/116 15/170/126
f 14/54/131 11/175/131 15/52/131
f 2/18/132 4/17/133 5/176/94
f 2/18/99 5/176/134 1/2/97
f 3/3/147 1/2/147 5/176/147
f 5/148/94 4/36/133 6/80/95
f 4/36/133 7/38/148 6/80/95
f 13/44/25 14/43/152 12/183/109
f 12/65/163 17/53/163 16/161/163
f 14/54/164 17/53/164 12/65/164
f 3/16/3 2/18/172 10/188/1
f 20/28/26 13/35/25 12/158/109
f 17/169/178 19/168/178 16/68/178
f 7/12/187 9/11/187 6/153/187
f 9/11/98 1/154/97 6/153/188
f 18/69/203 16/68/203 20/227/204
usemtl m1
f 22/71/52 25/72/52 23/73/52
f 22/74/53 23/75/53 21/76/53
f 30/77/54 22/78/54 29/79/54
f 24/83/56 26/84/56 22/85/56
f 26/86/57 28/87/57 25/88/57
f 26/89/58 27/90/58 29/91/58
f 29/95/60 21/96/60 28/97/60
f 28/97/118 26/163/118 29/95/118
f 28/97/138 21/96/139 30/177/140
f 28/97/138 30/177/140 27/90/141
f 21/76/142 23/75/143 30/77/144
f 24/178/145 30/77/144 23/75/143
f 29/179/146 22/74/146 21/76/146
f 24/83/145 25/72/149 27/180/141
f 23/73/143 25/72/149 24/83/145
f 24/83/145 27/180/141 26/84/150
f 25/88/149 28/87/138 27/181/141
f 26/182/151 25/72/151 22/71/151
f 30/77/144 24/178/145 22/78/153
f 29/91/154 27/90/154 30/177/154
usemtl m2
f 43/25/17 31/26/18 42/27/19
f 32/92/59 35/93/59 34/94/59
f 33/98/61 36/99/62 35/93/63
f 36/99/64 37/100/64 34/94/64
f 38/101/65 40/102/65 37/103/65
f 33/98/66 32/92/66 31/104/66
f 41/105/67 42/27/67 40/102/67
f 42/27/135 31/26/136 40/102/137
f 43/184/155 33/98/155 31/104/155
f 33/98/156 35/93/156 32/92/156
f 34/94/157 37/100/158 40/185/159
f 31/104/136 32/92/160 40/185/137
f 32/92/161 34/94/157 40/185/159
f 33/98/61 43/184/162 36/99/62
f 34/94/165 35/93/63 36/99/62
f 37/103/166 36/186/167 38/101/166
f 41/105/168 43/25/17 42/27/19
f 40/102/169 38/101/170 39/187/171
f 40/102/169 39/187/171 41/105/177
f 38/101/170 36/186/181 43/25/182
f 39/187/171 38/101/170 41/105/177
f 43/25/182 41/105/177 38/101/170
usemtl m3
f 49/4/4 50/5/4 48/6/4
f 50/55/40 51/56/40 44/57/40
f 45/106/68 46/107/68 44/57/68
f 47/108/69 48/6/69 46/109/69
f 47/108/173 49/4/173 48/6/173
f 51/56/174 45/106/174 44/57/174
f 46/107/175 50/55/175 44/57/175
f 45/106/176 47/189/176 46/107/176
f 45/106/179 51/56/179 47/189/179
f 47/108/180 51/190/180 49/4/180
f 48/6/184 50/5/184 46/109/184
f 50/5/185 49/4/185 51/190/185
usemtl m4
f 80/7/5 78/8/6 79/9/7
f 73/19/13 72/20/14 58/21/15
f 64/39/28 63/40/29 52/41/30
f 83/46/33 80/47/34 62/48/35
f 69/58/41 68/59/42 55/60/43
f 58/110/15 57/111/70 56/112/71
f 83/113/33 82/114/72 80/115/34
f 70/116/73 71/117/74 69/118/41
f 54/119/75 52/41/30 66/120/76
f 76/121/77 78/122/6 81/123/78
f 71/124/74 72/125/14 73/126/13
f 79/9/79 78/8/79 61/127/79
f 82/114/72 81/128/78 80/115/5
f 83/46/33 62/48/35 84/131/83
f 80/7/5 81/136/78 78/8/6
f 62/138/35 53/139/90 84/140/83
f 53/139/90 63/141/29 84/140/83
f 63/141/29 64/142/28 65/143/91
f 67/144/92 84/140/83 63/141/29
f 66/145/93 67/144/92 65/143/91
f 67/144/92 63/141/29 65/143/91
f 58/146/15 72/147/14 71/117/74
f 58/172/15 59/173/130 73/174/13
f 57/191/70 71/192/74 70/193/73
f 55/60/43 66/195/186 69/58/41
f 75/196/189 60/197/190 61/198/191
f 61/198/191 77/199/192 75/196/189
f 80/200/193 79/201/194 61/198/191
f 61/198/191 60/197/190 59/202/195
f 80/200/193 61/198/191 58/110/15
f 69/203/41 66/204/186 56/112/71
f 66/204/76 62/205/35 80/200/34
f 66/204/196 80/200/196 56/112/196
f 61/198/191 59/202/195 58/110/15
f 57/111/70 70/206/73 56/112/71
f 56/112/71 80/200/193 58/110/15
f 58/110/15 71/207/74 57/111/70
f 64/39/28 52/41/30 54/119/75
f 52/41/30 53/208/90 62/48/35
f 66/120/76 65/209/91 54/119/75
f 62/48/35 66/120/76 52/41/30
f 59/210/130 74/211/197 73/212/13
f 74/211/197 60/213/198 75/214/199
f 74/211/197 75/214/200 76/215/77
f 73/212/13 74/211/197 71/216/74
f 69/217/41 71/216/74 68/218/42
f 68/218/42 71/216/74 74/211/197
f 66/219/93 68/218/42 67/220/92
f 83/113/201 68/218/42 81/128/78
f 74/211/197 76/215/77 81/128/78
f 81/128/78 82/114/72 83/113/33
f 74/211/197 81/128/78 68/218/42
f 67/220/92 68/218/42 84/221/83
f 84/221/83 68/218/42 83/113/201
f 76/121/77 75/222/200 77/223/202
f 76/121/77 77/223/202 78/122/6
f 54/119/75 65/209/91 64/39/28
f 69/224/41 56/225/71 70/226/73
f 66/228/186 55/229/43 68/230/42
f 59/233/130 60/234/198 74/235/197
f 77/223/192 61/236/191 78/122/206
f 53/208/90 52/41/30 63/40/29
usemtl m5
f 88/31/21 87/32/22 86/33/23
f 86/33/44 91/61/45 85/62/46
f 93/63/47 92/64/48 86/33/49
f 90/132/84 88/133/84 91/134/84
f 94/155/102 93/63/102 87/32/102
f 93/63/103 86/33/103 87/32/103
f 86/33/23 85/62/104 88/31/21
f 85/62/105 89/156/105 88/31/105
f 87/32/106 95/157/107 94/155/108
f 87/160/106 88/133/112 90/132/113
f 86/33/127 92/64/128 91/61/129
f 89/231/205 85/232/46 91/134/45
f 91/134/208 92/237/209 90/132/210
f 92/237/209 93/238/211 90/132/210
f 93/238/212 94/239/212 90/132/212
f 90/132/113 94/239/213 95/240/107
f 88/133/214 89/231/214 91/134/214
f 95/240/107 87/160/106 90/132/113
usemtl m6
f 96/13/9 105/14/10 99/15/11
f 98/49/36 96/50/37 101/51/38
f 97/129/80 99/15/81 100/130/82
f 101/51/85 97/135/86 100/61/86
f 96/13/87 98/137/88 105/14/89
f 97/135/119 101/51/38 96/50/37
f 101/51/120 102/164/120 98/49/120
f 102/164/121 103/165/121 98/49/121
f 103/165/122 104/157/122 98/49/122
f 105/14/89 98/137/88 104/194/183
f 97/129/207 96/13/207 99/15/207
f 101/237/215 100/130/82 99/15/81
f 99/15/81 105/14/216 101/237/215
f 102/238/217 101/237/217 105/14/217
f 103/241/218 102/238/218 105/14/218
f 105/14/219 104/194/219 103/241/219
usemtl m7
f 116/242/220 118/243/221 113/244/222
f 121/245/223 122/246/224 119/247/225
f 112/248/226 108/249/227 106/250/228
f 111/251/229 109/252/230 115/253/231
f 127/254/232 109/252/230 111/251/229
f 121/245/223 119/247/225 120/255/233
f 110/256/234 127/254/232 108/257/227
f 118/243/221 115/253/231 113/244/222
f 114/258/235 112/248/226 117/259/236
f 112/248/226 114/258/235 110/260/234
f 117/259/236 121/245/223 120/255/233
f 115/253/231 122/261/224 111/251/229
f 106/250/228 126/262/237 124/263/238
f 125/264/239 112/248/226 106/250/228
f 123/265/240 111/251/229 122/261/224
f 121/245/223 123/266/240 122/246/224
f 116/267/220 117/259/236 120/255/233
f 120/255/233 118/268/221 116/267/220
f 107/269/241 127/254/232 111/251/229
f 106/270/228 108/257/227 127/254/232
f 110/256/234 113/244/222 109/252/230
f 110/256/234 109/252/230 127/254/232
f 114/271/235 116/242/220 113/244/222
f 117/259/236 112/248/226 125/264/239
f 115/253/231 119/272/225 122/261/224
f 124/263/238 121/245/223 125/264/239
f 108/249/227 112/248/226 110/260/234
f 121/245/223 124/263/238 123/266/240
f 114/258/235 117/259/236 116/267/220
f 109/252/230 113/244/222 115/253/231
f 117/259/236 125/264/239 121/245/223
f 106/250/228 127/273/232 126/262/237
f 120/255/233 119/247/225 118/268/221
f 110/256/234 114/271/235 113/244/222
f 126/274/237 127/254/232 107/269/241
f 123/265/240 126/274/237 107/269/241
f 123/265/240 107/269/241 111/251/229
f 118/243/221 119/272/225 115/253/231
f 124/263/238 125/264/239 106/250/228
f 124/263/238 126/275/237 123/266/240
usemtl m8
f 129/276/242 130/276/242 128/276/242
f 153/276/243 154/276/243 152/276/243
f 147/276/244 148/276/244 146/276/244
f 131/276/244 132/276/244 130/276/244
f 151/276/245 152/276/245 150/276/245
f 133/276/246 134/276/246 132/276/246
f 135/276/245 136/276/245 134/276/245
f 145/276/242 146/276/242 144/276/242
f 137/276/243 138/276/243 136/276/243
f 149/276/246 150/276/246 148/276/246
f 139/276/247 140/276/247 138/276/247
f 141/276/248 137/276/248 133/276/248
f 141/276/249 142/276/249 140/276/249
f 143/276/250 128/276/250 142/276/250
f 134/276/251 138/276/251 142/276/251
f 155/276/247 156/276/247 154/276/247
f 154/276/251 158/276/251 146/276/251
f 157/276/249 158/276/249 156/276/249
f 159/276/250 144/276/250 158/276/250
f 149/276/248 145/276/248 157/276/248
f 129/276/242 131/276/242 130/276/242
f 153/276/243 155/276/243 154/276/243
f 147/276/244 149/276/244 148/276/244
f 131/276/244 133/276/244 132/276/244
f 151/276/245 153/276/245 152/276/245
f 133/276/246 135/276/246 134/276/246
f 135/276/245 137/276/245 136/276/245
f 145/276/242 147/276/242 146/276/242
f 137/276/243 139/276/243 138/276/243
f 149/276/246 151/276/246 150/276/246
f 139/276/247 141/276/247 140/276/247
f 133/276/248 131/276/248 129/276/248
f 129/276/248 143/276/248 141/276/248
f 141/276/248 139/276/248 137/276/248
f 137/276/248 135/276/248 133/276/248
f 133/276/248 129/276/248 141/276/248
f 141/276/249 143/276/249 142/276/249
f 143/276/250 129/276/250 128/276/250
f 142/276/251 128/276/251 130/276/251
f 130/276/251 132/276/251 134/276/251
f 134/276/251 136/276/251 138/276/251
f 138/276/251 140/276/251 142/276/251
f 142/276/251 130/276/251 134/276/251
f 155/276/247 157/276/247 156/276/247
f 146/276/251 148/276/251 150/276/251
f 150/276/251 152/276/251 154/276/251
f 154/276/251 156/276/251 158/276/251
f 158/276/251 144/276/251 146/276/251
f 146/276/251 150/276/251 154/276/251
f 157/276/249 159/276/249 158/276/249
f 159/276/250 145/276/250 144/276/250
f 157/276/248 155/276/248 153/276/248
f 153/276/248 151/276/248 149/276/248
f 149/276/248 147/276/248 145/276/248
f 145/276/248 159/276/248 157/276/248
f 157/276/248 153/276/248 149/276/248
