# Blender 5.2.2 LTS
# www.blender.org
mtllib HeatDetector.mtl
o HeatDetector
v 0.050000 0.000000 0.000000
v 0.049039 0.000000 0.009755
v 0.046194 0.000000 0.019134
v 0.041573 0.000000 0.027779
v 0.035355 0.000000 0.035355
v 0.027779 0.000000 0.041573
v 0.019134 0.000000 0.046194
v 0.009755 0.000000 0.049039
v 0.000000 0.000000 0.050000
v -0.009755 0.000000 0.049039
v -0.019134 0.000000 0.046194
v -0.027779 0.000000 0.041573
v -0.035355 0.000000 0.035355
v -0.041573 0.000000 0.027779
v -0.046194 0.000000 0.019134
v -0.049039 0.000000 0.009755
v -0.050000 0.000000 0.000000
v -0.049039 0.000000 -0.009755
v -0.046194 0.000000 -0.019134
v -0.041573 0.000000 -0.027779
v -0.035355 0.000000 -0.035355
v -0.027779 0.000000 -0.041573
v -0.019134 0.000000 -0.046194
v -0.009755 0.000000 -0.049039
v -0.000000 0.000000 -0.050000
v 0.009755 0.000000 -0.049039
v 0.019134 0.000000 -0.046194
v 0.027779 0.000000 -0.041573
v 0.035355 0.000000 -0.035355
v 0.041573 0.000000 -0.027779
v 0.046194 0.000000 -0.019134
v 0.049039 0.000000 -0.009755
v 0.050000 -0.003000 0.000000
v 0.049039 -0.003000 0.009755
v 0.046194 -0.003000 0.019134
v 0.041573 -0.003000 0.027779
v 0.035355 -0.003000 0.035355
v 0.027779 -0.003000 0.041573
v 0.019134 -0.003000 0.046194
v 0.009755 -0.003000 0.049039
v 0.000000 -0.003000 0.050000
v -0.009755 -0.003000 0.049039
v -0.019134 -0.003000 0.046194
v -0.027779 -0.003000 0.041573
v -0.035355 -0.003000 0.035355
v -0.041573 -0.003000 0.027779
v -0.046194 -0.003000 0.019134
v -0.049039 -0.003000 0.009755
v -0.050000 -0.003000 0.000000
v -0.049039 -0.003000 -0.009755
v -0.046194 -0.003000 -0.019134
v -0.041573 -0.003000 -0.027779
v -0.035355 -0.003000 -0.035355
v -0.027779 -0.003000 -0.041573
v -0.019134 -0.003000 -0.046194
v -0.009755 -0.003000 -0.049039
v -0.000000 -0.003000 -0.050000
v 0.009755 -0.003000 -0.049039
v 0.019134 -0.003000 -0.046194
v 0.027779 -0.003000 -0.041573
v 0.035355 -0.003000 -0.035355
v 0.041573 -0.003000 -0.027779
v 0.046194 -0.003000 -0.019134
v 0.049039 -0.003000 -0.009755
v 0.046000 -0.004600 0.000000
v 0.045116 -0.004600 0.008974
v 0.042498 -0.004600 0.017603
v 0.038248 -0.004600 0.025556
v 0.032527 -0.004600 0.032527
v 0.025556 -0.004600 0.038248
v 0.017603 -0.004600 0.042498
v 0.008974 -0.004600 0.045116
v 0.000000 -0.004600 0.046000
v -0.008974 -0.004600 0.045116
v -0.017603 -0.004600 0.042498
v -0.025556 -0.004600 0.038248
v -0.032527 -0.004600 0.032527
v -0.038248 -0.004600 0.025556
v -0.042498 -0.004600 0.017603
v -0.045116 -0.004600 0.008974
v -0.046000 -0.004600 0.000000
v -0.045116 -0.004600 -0.008974
v -0.042498 -0.004600 -0.017603
v -0.038248 -0.004600 -0.025556
v -0.032527 -0.004600 -0.032527
v -0.025556 -0.004600 -0.038248
v -0.017603 -0.004600 -0.042498
v -0.008974 -0.004600 -0.045116
v -0.000000 -0.004600 -0.046000
v 0.008974 -0.004600 -0.045116
v 0.017603 -0.004600 -0.042498
v 0.025556 -0.004600 -0.038248
v 0.032527 -0.004600 -0.032527
v 0.038248 -0.004600 -0.025556
v 0.042498 -0.004600 -0.017603
v 0.045116 -0.004600 -0.008974
v 0.046000 -0.012000 0.000000
v 0.045116 -0.012000 0.008974
v 0.042498 -0.012000 0.017603
v 0.038248 -0.012000 0.025556
v 0.032527 -0.012000 0.032527
v 0.025556 -0.012000 0.038248
v 0.017603 -0.012000 0.042498
v 0.008974 -0.012000 0.045116
v 0.000000 -0.012000 0.046000
v -0.008974 -0.012000 0.045116
v -0.017603 -0.012000 0.042498
v -0.025556 -0.012000 0.038248
v -0.032527 -0.012000 0.032527
v -0.038248 -0.012000 0.025556
v -0.042498 -0.012000 0.017603
v -0.045116 -0.012000 0.008974
v -0.046000 -0.012000 0.000000
v -0.045116 -0.012000 -0.008974
v -0.042498 -0.012000 -0.017603
v -0.038248 -0.012000 -0.025556
v -0.032527 -0.012000 -0.032527
v -0.025556 -0.012000 -0.038248
v -0.017603 -0.012000 -0.042498
v -0.008974 -0.012000 -0.045116
v -0.000000 -0.012000 -0.046000
v 0.008974 -0.012000 -0.045116
v 0.017603 -0.012000 -0.042498
v 0.025556 -0.012000 -0.038248
v 0.032527 -0.012000 -0.032527
v 0.038248 -0.012000 -0.025556
v 0.042498 -0.012000 -0.017603
v 0.045116 -0.012000 -0.008974
v 0.042500 -0.012000 0.000000
v 0.041683 -0.012000 0.008291
v 0.039265 -0.012000 0.016264
v 0.035337 -0.012000 0.023612
v 0.030052 -0.012000 0.030052
v 0.023612 -0.012000 0.035337
v 0.016264 -0.012000 0.039265
v 0.008291 -0.012000 0.041683
v 0.000000 -0.012000 0.042500
v -0.008291 -0.012000 0.041683
v -0.016264 -0.012000 0.039265
v -0.023612 -0.012000 0.035337
v -0.030052 -0.012000 0.030052
v -0.035337 -0.012000 0.023612
v -0.039265 -0.012000 0.016264
v -0.041683 -0.012000 0.008291
v -0.042500 -0.012000 0.000000
v -0.041683 -0.012000 -0.008291
v -0.039265 -0.012000 -0.016264
v -0.035337 -0.012000 -0.023612
v -0.030052 -0.012000 -0.030052
v -0.023612 -0.012000 -0.035337
v -0.016264 -0.012000 -0.039265
v -0.008291 -0.012000 -0.041683
v -0.000000 -0.012000 -0.042500
v 0.008291 -0.012000 -0.041683
v 0.016264 -0.012000 -0.039265
v 0.023612 -0.012000 -0.035337
v 0.030052 -0.012000 -0.030052
v 0.035337 -0.012000 -0.023612
v 0.039265 -0.012000 -0.016264
v 0.041683 -0.012000 -0.008291
v 0.043824 -0.012000 0.007727
v 0.044500 -0.012000 0.000000
v 0.040452 -0.014654 0.007133
v 0.041076 -0.014654 0.000000
v 0.000000 -0.028000 0.000000
v 0.010766 -0.027140 0.001898
v 0.010932 -0.027140 0.000000
v 0.026891 -0.022445 0.004742
v 0.027305 -0.022445 0.000000
v 0.041816 -0.012000 0.015220
v 0.038599 -0.014654 0.014049
v 0.010273 -0.027140 0.003739
v 0.025659 -0.022445 0.009339
v 0.038538 -0.012000 0.022250
v 0.035573 -0.014654 0.020538
v 0.009467 -0.027140 0.005466
v 0.009832 -0.024177 0.003578
v 0.009061 -0.024177 0.005231
v 0.022632 -0.019683 0.013067
v 0.024557 -0.019683 0.008938
v 0.023647 -0.022445 0.013653
v 0.034046 -0.012227 0.019656
v 0.036942 -0.012227 0.013446
v 0.034089 -0.012000 0.028604
v 0.031466 -0.014654 0.026403
v 0.008374 -0.027140 0.007027
v 0.020917 -0.022445 0.017552
v 0.028604 -0.012000 0.034089
v 0.026403 -0.014654 0.031466
v 0.007027 -0.027140 0.008374
v 0.017552 -0.022445 0.020917
v 0.022250 -0.012000 0.038538
v 0.020538 -0.014654 0.035573
v 0.005466 -0.027140 0.009467
v 0.006725 -0.024177 0.008015
v 0.005231 -0.024177 0.009061
v 0.013067 -0.019683 0.022632
v 0.016798 -0.019683 0.020019
v 0.013653 -0.022445 0.023647
v 0.019656 -0.012227 0.034046
v 0.025270 -0.012227 0.030115
v 0.015220 -0.012000 0.041816
v 0.014049 -0.014654 0.038599
v 0.003739 -0.027140 0.010273
v 0.009339 -0.022445 0.025659
v 0.007727 -0.012000 0.043824
v 0.007133 -0.014654 0.040452
v 0.001898 -0.027140 0.010766
v 0.004742 -0.022445 0.026891
v 0.000000 -0.012000 0.044500
v 0.000000 -0.014654 0.041076
v 0.000000 -0.027140 0.010932
v 0.001817 -0.024177 0.010304
v 0.000000 -0.024177 0.010463
v 0.000000 -0.019683 0.026133
v 0.004538 -0.019683 0.025736
v 0.000000 -0.022445 0.027305
v 0.000000 -0.012227 0.039313
v 0.006827 -0.012227 0.038715
v -0.007727 -0.012000 0.043824
v -0.007133 -0.014654 0.040452
v -0.001898 -0.027140 0.010766
v -0.004742 -0.022445 0.026891
v -0.015220 -0.012000 0.041816
v -0.014049 -0.014654 0.038599
v -0.003739 -0.027140 0.010273
v -0.009339 -0.022445 0.025659
v -0.022250 -0.012000 0.038538
v -0.020538 -0.014654 0.035573
v -0.005466 -0.027140 0.009467
v -0.003578 -0.024177 0.009832
v -0.005231 -0.024177 0.009061
v -0.013067 -0.019683 0.022632
v -0.008938 -0.019683 0.024557
v -0.013653 -0.022445 0.023647
v -0.019656 -0.012227 0.034046
v -0.013446 -0.012227 0.036942
v -0.028604 -0.012000 0.034089
v -0.026403 -0.014654 0.031466
v -0.007027 -0.027140 0.008374
v -0.017552 -0.022445 0.020917
v -0.034089 -0.012000 0.028604
v -0.031466 -0.014654 0.026403
v -0.008374 -0.027140 0.007027
v -0.020917 -0.022445 0.017552
v -0.038538 -0.012000 0.022250
v -0.035573 -0.014654 0.020538
v -0.009467 -0.027140 0.005466
v -0.008015 -0.024177 0.006725
v -0.009061 -0.024177 0.005231
v -0.022632 -0.019683 0.013067
v -0.020019 -0.019683 0.016798
v -0.023647 -0.022445 0.013653
v -0.034046 -0.012227 0.019656
v -0.030115 -0.012227 0.025270
v -0.041816 -0.012000 0.015220
v -0.038599 -0.014654 0.014049
v -0.010273 -0.027140 0.003739
v -0.025659 -0.022445 0.009339
v -0.043824 -0.012000 0.007727
v -0.040452 -0.014654 0.007133
v -0.010766 -0.027140 0.001898
v -0.026891 -0.022445 0.004742
v -0.044500 -0.012000 0.000000
v -0.041076 -0.014654 0.000000
v -0.010932 -0.027140 0.000000
v -0.010304 -0.024177 0.001817
v -0.010463 -0.024177 0.000000
v -0.026133 -0.019683 0.000000
v -0.025736 -0.019683 0.004538
v -0.027305 -0.022445 0.000000
v -0.039313 -0.012227 0.000000
v -0.038715 -0.012227 0.006827
v -0.043824 -0.012000 -0.007727
v -0.040452 -0.014654 -0.007133
v -0.010766 -0.027140 -0.001898
v -0.026891 -0.022445 -0.004742
v -0.041816 -0.012000 -0.015220
v -0.038599 -0.014654 -0.014049
v -0.010273 -0.027140 -0.003739
v -0.025659 -0.022445 -0.009339
v -0.038538 -0.012000 -0.022250
v -0.035573 -0.014654 -0.020538
v -0.009467 -0.027140 -0.005466
v -0.009832 -0.024177 -0.003578
v -0.009061 -0.024177 -0.005231
v -0.022632 -0.019683 -0.013067
v -0.024557 -0.019683 -0.008938
v -0.023647 -0.022445 -0.013653
v -0.034046 -0.012227 -0.019656
v -0.036942 -0.012227 -0.013446
v -0.034089 -0.012000 -0.028604
v -0.031466 -0.014654 -0.026403
v -0.008374 -0.027140 -0.007027
v -0.020917 -0.022445 -0.017552
v -0.028604 -0.012000 -0.034089
v -0.026403 -0.014654 -0.031466
v -0.007027 -0.027140 -0.008374
v -0.017552 -0.022445 -0.020917
v -0.022250 -0.012000 -0.038538
v -0.020538 -0.014654 -0.035573
v -0.005466 -0.027140 -0.009467
v -0.006725 -0.024177 -0.008015
v -0.005231 -0.024177 -0.009061
v -0.013067 -0.019683 -0.022632
v -0.016798 -0.019683 -0.020019
v -0.013653 -0.022445 -0.023647
v -0.019656 -0.012227 -0.034046
v -0.025270 -0.012227 -0.030115
v -0.015220 -0.012000 -0.041816
v -0.014049 -0.014654 -0.038599
v -0.003739 -0.027140 -0.010273
v -0.009339 -0.022445 -0.025659
v -0.007727 -0.012000 -0.043824
v -0.007133 -0.014654 -0.040452
v -0.001898 -0.027140 -0.010766
v -0.004742 -0.022445 -0.026891
v -0.000000 -0.012000 -0.044500
v -0.000000 -0.014654 -0.041076
v -0.000000 -0.027140 -0.010932
v -0.001817 -0.024177 -0.010304
v -0.000000 -0.024177 -0.010463
v -0.000000 -0.019683 -0.026133
v -0.004538 -0.019683 -0.025736
v -0.000000 -0.022445 -0.027305
v -0.000000 -0.012227 -0.039313
v -0.006827 -0.012227 -0.038715
v 0.007727 -0.012000 -0.043824
v 0.007133 -0.014654 -0.040452
v 0.001898 -0.027140 -0.010766
v 0.004742 -0.022445 -0.026891
v 0.015220 -0.012000 -0.041816
v 0.014049 -0.014654 -0.038599
v 0.003739 -0.027140 -0.010273
v 0.009339 -0.022445 -0.025659
v 0.022250 -0.012000 -0.038538
v 0.020538 -0.014654 -0.035573
v 0.005466 -0.027140 -0.009467
v 0.003578 -0.024177 -0.009832
v 0.005231 -0.024177 -0.009061
v 0.013067 -0.019683 -0.022632
v 0.008938 -0.019683 -0.024557
v 0.013653 -0.022445 -0.023647
v 0.019656 -0.012227 -0.034046
v 0.013446 -0.012227 -0.036942
v 0.028604 -0.012000 -0.034089
v 0.026403 -0.014654 -0.031466
v 0.007027 -0.027140 -0.008374
v 0.017552 -0.022445 -0.020917
v 0.034089 -0.012000 -0.028604
v 0.031466 -0.014654 -0.026403
v 0.008374 -0.027140 -0.007027
v 0.020917 -0.022445 -0.017552
v 0.038538 -0.012000 -0.022250
v 0.035573 -0.014654 -0.020538
v 0.009467 -0.027140 -0.005466
v 0.008015 -0.024177 -0.006725
v 0.009061 -0.024177 -0.005231
v 0.022632 -0.019683 -0.013067
v 0.020019 -0.019683 -0.016798
v 0.023647 -0.022445 -0.013653
v 0.034046 -0.012227 -0.019656
v 0.030115 -0.012227 -0.025270
v 0.041816 -0.012000 -0.015220
v 0.038599 -0.014654 -0.014049
v 0.010273 -0.027140 -0.003739
v 0.025659 -0.022445 -0.009339
v 0.043824 -0.012000 -0.007727
v 0.040452 -0.014654 -0.007133
v 0.010766 -0.027140 -0.001898
v 0.026891 -0.022445 -0.004742
v 0.010304 -0.024177 -0.001817
v 0.010463 -0.024177 0.000000
v 0.026133 -0.019683 0.000000
v 0.025736 -0.019683 -0.004538
v 0.039313 -0.012227 0.000000
v 0.038715 -0.012227 -0.006827
v 0.000000 -0.034000 0.000000
v 0.003500 -0.033600 0.000000
v 0.003031 -0.033600 0.001750
v 0.001750 -0.033600 0.003031
v 0.000000 -0.033600 0.003500
v -0.001750 -0.033600 0.003031
v -0.003031 -0.033600 0.001750
v -0.003500 -0.033600 0.000000
v -0.003031 -0.033600 -0.001750
v -0.001750 -0.033600 -0.003031
v -0.000000 -0.033600 -0.003500
v 0.001750 -0.033600 -0.003031
v 0.003031 -0.033600 -0.001750
v 0.005000 -0.032400 0.000000
v 0.004330 -0.032400 0.002500
v 0.002500 -0.032400 0.004330
v 0.000000 -0.032400 0.005000
v -0.002500 -0.032400 0.004330
v -0.004330 -0.032400 0.002500
v -0.005000 -0.032400 0.000000
v -0.004330 -0.032400 -0.002500
v -0.002500 -0.032400 -0.004330
v -0.000000 -0.032400 -0.005000
v 0.002500 -0.032400 -0.004330
v 0.004330 -0.032400 -0.002500
v 0.005000 -0.031000 0.000000
v 0.004330 -0.031000 0.002500
v 0.002500 -0.031000 0.004330
v 0.000000 -0.031000 0.005000
v -0.002500 -0.031000 0.004330
v -0.004330 -0.031000 0.002500
v -0.005000 -0.031000 0.000000
v -0.004330 -0.031000 -0.002500
v -0.002500 -0.031000 -0.004330
v -0.000000 -0.031000 -0.005000
v 0.002500 -0.031000 -0.004330
v 0.004330 -0.031000 -0.002500
v 0.007000 -0.031000 0.000000
v 0.006062 -0.031000 0.003500
v 0.003500 -0.031000 0.006062
v 0.000000 -0.031000 0.007000
v -0.003500 -0.031000 0.006062
v -0.006062 -0.031000 0.003500
v -0.007000 -0.031000 0.000000
v -0.006062 -0.031000 -0.003500
v -0.003500 -0.031000 -0.006062
v -0.000000 -0.031000 -0.007000
v 0.003500 -0.031000 -0.006062
v 0.006062 -0.031000 -0.003500
v 0.007000 -0.027000 0.000000
v 0.006062 -0.027000 0.003500
v 0.003500 -0.027000 0.006062
v 0.000000 -0.027000 0.007000
v -0.003500 -0.027000 0.006062
v -0.006062 -0.027000 0.003500
v -0.007000 -0.027000 0.000000
v -0.006062 -0.027000 -0.003500
v -0.003500 -0.027000 -0.006062
v -0.000000 -0.027000 -0.007000
v 0.003500 -0.027000 -0.006062
v 0.006062 -0.027000 -0.003500
v 0.045200 -0.006100 0.000000
v 0.045200 -0.006520 0.001293
v 0.045200 -0.007620 0.002092
v 0.045200 -0.008980 0.002092
v 0.045200 -0.010080 0.001293
v 0.045200 -0.010500 0.000000
v 0.045200 -0.010080 -0.001293
v 0.045200 -0.008980 -0.002092
v 0.045200 -0.007620 -0.002092
v 0.045200 -0.006520 -0.001293
v 0.046900 -0.006100 0.000000
v 0.046900 -0.006520 0.001293
v 0.046900 -0.007620 0.002092
v 0.046900 -0.008980 0.002092
v 0.046900 -0.010080 0.001293
v 0.046900 -0.010500 0.000000
v 0.046900 -0.010080 -0.001293
v 0.046900 -0.008980 -0.002092
v 0.046900 -0.007620 -0.002092
v 0.046900 -0.006520 -0.001293
v 0.046900 -0.008300 0.000000
vn 0.9808 -0.0000 0.1951
vn 1.0000 -0.0000 -0.0000
vn 0.9239 -0.0000 0.3827
vn 0.8315 -0.0000 0.5556
vn 0.7071 -0.0000 0.7071
vn 0.5556 -0.0000 0.8315
vn 0.3827 -0.0000 0.9239
vn 0.1951 -0.0000 0.9808
vn -0.0000 -0.0000 1.0000
vn -0.1951 -0.0000 0.9808
vn -0.3827 -0.0000 0.9239
vn -0.5556 -0.0000 0.8315
vn -0.7071 -0.0000 0.7071
vn -0.8315 -0.0000 0.5556
vn -0.9239 -0.0000 0.3827
vn -0.9808 -0.0000 0.1951
vn -1.0000 -0.0000 -0.0000
vn -0.9808 -0.0000 -0.1951
vn -0.9239 -0.0000 -0.3827
vn -0.8315 -0.0000 -0.5556
vn -0.7071 -0.0000 -0.7071
vn -0.5556 -0.0000 -0.8315
vn -0.3827 -0.0000 -0.9239
vn -0.1951 -0.0000 -0.9808
vn -0.0000 -0.0000 -1.0000
vn 0.1951 -0.0000 -0.9808
vn 0.3827 -0.0000 -0.9239
vn 0.5556 -0.0000 -0.8315
vn 0.7071 -0.0000 -0.7071
vn 0.8315 -0.0000 -0.5556
vn 0.9239 -0.0000 -0.3827
vn 0.9808 -0.0000 -0.1951
vn 0.3643 -0.9285 0.0725
vn 0.3714 -0.9285 -0.0000
vn 0.3431 -0.9285 0.1421
vn 0.3088 -0.9285 0.2063
vn 0.2626 -0.9285 0.2626
vn 0.2063 -0.9285 0.3088
vn 0.1421 -0.9285 0.3431
vn 0.0725 -0.9285 0.3643
vn -0.0000 -0.9285 0.3714
vn -0.0725 -0.9285 0.3643
vn -0.1421 -0.9285 0.3431
vn -0.2063 -0.9285 0.3088
vn -0.2626 -0.9285 0.2626
vn -0.3088 -0.9285 0.2063
vn -0.3431 -0.9285 0.1421
vn -0.3643 -0.9285 0.0725
vn -0.3714 -0.9285 -0.0000
vn -0.3643 -0.9285 -0.0725
vn -0.3431 -0.9285 -0.1421
vn -0.3088 -0.9285 -0.2063
vn -0.2626 -0.9285 -0.2626
vn -0.2063 -0.9285 -0.3088
vn -0.1421 -0.9285 -0.3431
vn -0.0725 -0.9285 -0.3643
vn -0.0000 -0.9285 -0.3714
vn 0.0725 -0.9285 -0.3643
vn 0.1421 -0.9285 -0.3431
vn 0.2063 -0.9285 -0.3088
vn 0.2626 -0.9285 -0.2626
vn 0.3088 -0.9285 -0.2063
vn 0.3431 -0.9285 -0.1421
vn 0.3643 -0.9285 -0.0725
vn -0.0000 -1.0000 -0.0000
vn 0.6033 -0.7904 0.1064
vn 0.5762 -0.8172 0.0135
vn 0.6126 -0.7904 -0.0000
vn 0.1497 -0.9887 0.0087
vn 0.1805 -0.9831 0.0318
vn 0.3920 -0.9193 0.0343
vn 0.3863 -0.9199 0.0681
vn 0.5461 -0.8172 0.1844
vn 0.5483 -0.8307 0.0967
vn 0.1437 -0.9887 0.0431
vn 0.3801 -0.9193 0.1018
vn 0.5305 -0.7904 0.3063
vn 0.5756 -0.7904 0.2095
vn 0.1253 -0.9887 0.0824
vn 0.3566 -0.9193 0.1663
vn 0.2507 -0.9610 0.1169
vn -0.3420 -0.0000 0.9397
vn 0.5000 -0.0000 -0.8660
vn 0.4476 -0.8695 0.2087
vn 0.8952 0.1559 0.4175
vn -0.7342 -0.5863 -0.3424
vn 0.4693 -0.7904 0.3938
vn 0.4922 -0.8172 0.2998
vn 0.1404 -0.9831 0.1178
vn 0.3223 -0.9193 0.2257
vn 0.3005 -0.9199 0.2521
vn 0.3938 -0.7904 0.4693
vn 0.4265 -0.8307 0.3578
vn 0.1029 -0.9887 0.1091
vn 0.3807 -0.8172 0.4327
vn 0.2782 -0.9193 0.2782
vn 0.3063 -0.7904 0.5305
vn 0.0673 -0.9887 0.1340
vn 0.2257 -0.9193 0.3223
vn 0.1587 -0.9610 0.2266
vn -0.7660 -0.0000 0.6428
vn 0.8660 -0.0000 -0.5000
vn 0.2833 -0.8695 0.4045
vn 0.5666 0.1559 0.8091
vn -0.4646 -0.5863 -0.6636
vn 0.2095 -0.7904 0.5756
vn 0.2764 -0.8172 0.5058
vn 0.0627 -0.9831 0.1723
vn 0.1663 -0.9193 0.3566
vn 0.1342 -0.9199 0.3686
vn 0.1064 -0.7904 0.6033
vn 0.1904 -0.8307 0.5231
vn 0.0345 -0.9887 0.1459
vn 0.1134 -0.8172 0.5651
vn 0.1018 -0.9193 0.3801
vn -0.0135 -0.8172 0.5762
vn -0.0087 -0.9887 0.1497
vn 0.0343 -0.9193 0.3920
vn 0.0241 -0.9610 0.2756
vn -0.9848 -0.0000 0.1736
vn 0.0430 -0.8695 0.4920
vn 0.0861 0.1559 0.9840
vn -0.0706 -0.5863 -0.8070
vn -0.1064 -0.7904 0.6033
vn -0.0000 -0.7904 0.6126
vn -0.0318 -0.9831 0.1805
vn -0.0343 -0.9193 0.3920
vn -0.0681 -0.9199 0.3863
vn -0.1844 -0.8172 0.5461
vn -0.0967 -0.8307 0.5483
vn -0.0431 -0.9887 0.1437
vn -0.1018 -0.9193 0.3801
vn -0.3063 -0.7904 0.5305
vn -0.2095 -0.7904 0.5756
vn -0.0824 -0.9887 0.1253
vn -0.1663 -0.9193 0.3566
vn -0.1169 -0.9610 0.2507
vn -0.9397 -0.0000 -0.3420
vn 0.8660 -0.0000 0.5000
vn -0.2087 -0.8695 0.4476
vn -0.4175 0.1559 0.8952
vn 0.3424 -0.5863 -0.7342
vn -0.3938 -0.7904 0.4693
vn -0.2998 -0.8172 0.4922
vn -0.1178 -0.9831 0.1404
vn -0.2257 -0.9193 0.3223
vn -0.2521 -0.9199 0.3005
vn -0.4693 -0.7904 0.3938
vn -0.3578 -0.8307 0.4265
vn -0.1091 -0.9887 0.1029
vn -0.4327 -0.8172 0.3807
vn -0.2782 -0.9193 0.2782
vn -0.5305 -0.7904 0.3063
vn -0.1340 -0.9887 0.0673
vn -0.3223 -0.9193 0.2257
vn -0.2266 -0.9610 0.1587
vn -0.6428 -0.0000 -0.7660
vn 0.5000 -0.0000 0.8660
vn -0.4045 -0.8695 0.2833
vn -0.8091 0.1559 0.5666
vn 0.6636 -0.5863 -0.4646
vn -0.5756 -0.7904 0.2095
vn -0.5058 -0.8172 0.2764
vn -0.1723 -0.9831 0.0627
vn -0.3566 -0.9193 0.1663
vn -0.3686 -0.9199 0.1342
vn -0.6033 -0.7904 0.1064
vn -0.5231 -0.8307 0.1904
vn -0.1459 -0.9887 0.0345
vn -0.5651 -0.8172 0.1134
vn -0.3801 -0.9193 0.1018
vn -0.5762 -0.8172 -0.0135
vn -0.1497 -0.9887 -0.0087
vn -0.3920 -0.9193 0.0343
vn -0.2756 -0.9610 0.0241
vn -0.1736 -0.0000 -0.9848
vn -0.4920 -0.8695 0.0430
vn -0.9840 0.1559 0.0861
vn 0.8070 -0.5863 -0.0706
vn -0.6033 -0.7904 -0.1064
vn -0.6126 -0.7904 -0.0000
vn -0.1805 -0.9831 -0.0318
vn -0.3920 -0.9193 -0.0343
vn -0.3863 -0.9199 -0.0681
vn -0.5461 -0.8172 -0.1844
vn -0.5483 -0.8307 -0.0967
vn -0.1437 -0.9887 -0.0431
vn -0.3801 -0.9193 -0.1018
vn -0.5305 -0.7904 -0.3063
vn -0.5756 -0.7904 -0.2095
vn -0.1253 -0.9887 -0.0824
vn -0.3566 -0.9193 -0.1663
vn -0.2507 -0.9610 -0.1169
vn 0.3420 -0.0000 -0.9397
vn -0.5000 -0.0000 0.8660
vn -0.4476 -0.8695 -0.2087
vn -0.8952 0.1559 -0.4175
vn 0.7342 -0.5863 0.3424
vn -0.4693 -0.7904 -0.3938
vn -0.4922 -0.8172 -0.2998
vn -0.1404 -0.9831 -0.1178
vn -0.3223 -0.9193 -0.2257
vn -0.3005 -0.9199 -0.2521
vn -0.3938 -0.7904 -0.4693
vn -0.4265 -0.8307 -0.3578
vn -0.1029 -0.9887 -0.1091
vn -0.3807 -0.8172 -0.4327
vn -0.2782 -0.9193 -0.2782
vn -0.3063 -0.7904 -0.5305
vn -0.0673 -0.9887 -0.1340
vn -0.2257 -0.9193 -0.3223
vn -0.1587 -0.9610 -0.2266
vn 0.7660 -0.0000 -0.6428
vn -0.8660 -0.0000 0.5000
vn -0.2833 -0.8695 -0.4045
vn -0.5666 0.1559 -0.8091
vn 0.4646 -0.5863 0.6636
vn -0.2095 -0.7904 -0.5756
vn -0.2764 -0.8172 -0.5058
vn -0.0627 -0.9831 -0.1723
vn -0.1663 -0.9193 -0.3566
vn -0.1342 -0.9199 -0.3686
vn -0.1064 -0.7904 -0.6033
vn -0.1904 -0.8307 -0.5231
vn -0.0345 -0.9887 -0.1459
vn -0.1134 -0.8172 -0.5651
vn -0.1018 -0.9193 -0.3801
vn 0.0135 -0.8172 -0.5762
vn 0.0087 -0.9887 -0.1497
vn -0.0343 -0.9193 -0.3920
vn -0.0241 -0.9610 -0.2756
vn 0.9848 -0.0000 -0.1736
vn -0.0430 -0.8695 -0.4920
vn -0.0861 0.1559 -0.9840
vn 0.0706 -0.5863 0.8070
vn 0.1064 -0.7904 -0.6033
vn -0.0000 -0.7904 -0.6126
vn 0.0318 -0.9831 -0.1805
vn 0.0343 -0.9193 -0.3920
vn 0.0681 -0.9199 -0.3863
vn 0.1844 -0.8172 -0.5461
vn 0.0967 -0.8307 -0.5483
vn 0.0431 -0.9887 -0.1437
vn 0.1018 -0.9193 -0.3801
vn 0.3063 -0.7904 -0.5305
vn 0.2095 -0.7904 -0.5756
vn 0.0824 -0.9887 -0.1253
vn 0.1663 -0.9193 -0.3566
vn 0.1169 -0.9610 -0.2507
vn 0.9397 -0.0000 0.3420
vn -0.8660 -0.0000 -0.5000
vn 0.2087 -0.8695 -0.4476
vn 0.4175 0.1559 -0.8952
vn -0.3424 -0.5863 0.7342
vn 0.3938 -0.7904 -0.4693
vn 0.2998 -0.8172 -0.4922
vn 0.1178 -0.9831 -0.1404
vn 0.2257 -0.9193 -0.3223
vn 0.2521 -0.9199 -0.3005
vn 0.4693 -0.7904 -0.3938
vn 0.3578 -0.8307 -0.4265
vn 0.1091 -0.9887 -0.1029
vn 0.4327 -0.8172 -0.3807
vn 0.2782 -0.9193 -0.2782
vn 0.5305 -0.7904 -0.3063
vn 0.1340 -0.9887 -0.0673
vn 0.3223 -0.9193 -0.2257
vn 0.2266 -0.9610 -0.1587
vn 0.6428 -0.0000 0.7660
vn -0.5000 -0.0000 -0.8660
vn 0.4045 -0.8695 -0.2833
vn 0.8091 0.1559 -0.5666
vn -0.6636 -0.5863 0.4646
vn 0.5756 -0.7904 -0.2095
vn 0.5058 -0.8172 -0.2764
vn 0.1723 -0.9831 -0.0627
vn 0.3566 -0.9193 -0.1663
vn 0.3686 -0.9199 -0.1342
vn 0.6033 -0.7904 -0.1064
vn 0.5231 -0.8307 -0.1904
vn 0.1459 -0.9887 -0.0345
vn 0.5651 -0.8172 -0.1134
vn 0.3801 -0.9193 -0.1018
vn 0.3920 -0.9193 -0.0343
vn 0.2756 -0.9610 -0.0241
vn 0.1736 -0.0000 0.9848
vn 0.4920 -0.8695 -0.0430
vn 0.9840 0.1559 -0.0861
vn -0.8070 -0.5863 0.0706
vn 0.1135 -0.9935 -0.0000
vn 0.0983 -0.9935 0.0568
vn 0.0568 -0.9935 0.0983
vn -0.0000 -0.9935 0.1135
vn -0.0568 -0.9935 0.0983
vn -0.0983 -0.9935 0.0568
vn -0.1135 -0.9935 -0.0000
vn -0.0983 -0.9935 -0.0568
vn -0.0568 -0.9935 -0.0983
vn -0.0000 -0.9935 -0.1135
vn 0.0568 -0.9935 -0.0983
vn 0.0983 -0.9935 -0.0568
vn 0.6247 -0.7809 -0.0000
vn 0.5410 -0.7809 0.3123
vn 0.5410 -0.7809 0.3124
vn 0.3123 -0.7809 0.5410
vn -0.0000 -0.7809 0.6247
vn -0.3123 -0.7809 0.5410
vn -0.3124 -0.7809 0.5410
vn -0.5410 -0.7809 0.3123
vn -0.6247 -0.7809 -0.0000
vn -0.5410 -0.7809 -0.3123
vn -0.5410 -0.7809 -0.3124
vn -0.3123 -0.7809 -0.5410
vn -0.0000 -0.7809 -0.6247
vn 0.3123 -0.7809 -0.5410
vn 0.3124 -0.7809 -0.5410
vn 0.5410 -0.7809 -0.3123
vn 0.9659 -0.0000 0.2588
vn 0.2588 -0.0000 0.9659
vn -0.2588 -0.0000 0.9659
vn -0.9659 -0.0000 -0.2588
vn -0.2588 -0.0000 -0.9659
vn 0.2588 -0.0000 -0.9659
vn -0.9659 -0.0000 0.2588
vn 0.9659 -0.0000 -0.2588
vn -0.0000 0.9511 0.3090
vn -0.0000 0.5878 0.8090
vn -0.0000 -0.5878 0.8090
vn -0.0000 -0.9511 0.3090
vn -0.0000 -0.9511 -0.3090
vn -0.0000 -0.5878 -0.8090
vn -0.0000 0.5878 -0.8090
vn -0.0000 0.9511 -0.3090
s 1
usemtl m0
f 2//1 33//2 1//2
f 3//3 34//1 2//1
f 4//4 35//3 3//3
f 5//5 36//4 4//4
f 6//6 37//5 5//5
f 7//7 38//6 6//6
f 8//8 39//7 7//7
f 9//9 40//8 8//8
f 10//10 41//9 9//9
f 11//11 42//10 10//10
f 12//12 43//11 11//11
f 13//13 44//12 12//12
f 14//14 45//13 13//13
f 15//15 46//14 14//14
f 16//16 47//15 15//15
f 17//17 48//16 16//16
f 18//18 49//17 17//17
f 19//19 50//18 18//18
f 20//20 51//19 19//19
f 21//21 52//20 20//20
f 22//22 53//21 21//21
f 23//23 54//22 22//22
f 24//24 55//23 23//23
f 25//25 56//24 24//24
f 26//26 57//25 25//25
f 27//27 58//26 26//26
f 28//28 59//27 27//27
f 29//29 60//28 28//28
f 30//30 61//29 29//29
f 31//31 62//30 30//30
f 32//32 63//31 31//31
f 1//2 64//32 32//32
f 34//33 65//34 33//34
f 34//33 67//35 66//33
f 36//36 67//35 35//35
f 37//37 68//36 36//36
f 38//38 69//37 37//37
f 38//38 71//39 70//38
f 40//40 71//39 39//39
f 40//40 73//41 72//40
f 42//42 73//41 41//41
f 42//42 75//43 74//42
f 44//44 75//43 43//43
f 45//45 76//44 44//44
f 46//46 77//45 45//45
f 46//46 79//47 78//46
f 48//48 79//47 47//47
f 48//48 81//49 80//48
f 50//50 81//49 49//49
f 50//50 83//51 82//50
f 52//52 83//51 51//51
f 53//53 84//52 52//52
f 54//54 85//53 53//53
f 54//54 87//55 86//54
f 56//56 87//55 55//55
f 56//56 89//57 88//56
f 58//58 89//57 57//57
f 58//58 91//59 90//58
f 60//60 91//59 59//59
f 61//61 92//60 60//60
f 62//62 93//61 61//61
f 62//62 95//63 94//62
f 64//64 95//63 63//63
f 64//64 65//34 96//64
f 66//1 97//2 65//2
f 67//3 98//1 66//1
f 68//4 99//3 67//3
f 69//5 100//4 68//4
f 70//6 101//5 69//5
f 71//7 102//6 70//6
f 72//8 103//7 71//7
f 73//9 104//8 72//8
f 74//10 105//9 73//9
f 75//11 106//10 74//10
f 76//12 107//11 75//11
f 77//13 108//12 76//12
f 78//14 109//13 77//13
f 79//15 110//14 78//14
f 80//16 111//15 79//15
f 81//17 112//16 80//16
f 82//18 113//17 81//17
f 83//19 114//18 82//18
f 84//20 115//19 83//19
f 85//21 116//20 84//20
f 86//22 117//21 85//21
f 87//23 118//22 86//22
f 88//24 119//23 87//23
f 89//25 120//24 88//24
f 90//26 121//25 89//25
f 91//27 122//26 90//26
f 92//28 123//27 91//27
f 93//29 124//28 92//28
f 94//30 125//29 93//29
f 95//31 126//30 94//30
f 96//32 127//31 95//31
f 65//2 128//32 96//32
f 98//65 129//65 97//65
f 99//65 130//65 98//65
f 99//65 132//65 131//65
f 100//65 133//65 132//65
f 102//65 133//65 101//65
f 103//65 134//65 102//65
f 104//65 135//65 103//65
f 104//65 137//65 136//65
f 106//65 137//65 105//65
f 107//65 138//65 106//65
f 107//65 140//65 139//65
f 108//65 141//65 140//65
f 110//65 141//65 109//65
f 111//65 142//65 110//65
f 112//65 143//65 111//65
f 112//65 145//65 144//65
f 114//65 145//65 113//65
f 115//65 146//65 114//65
f 115//65 148//65 147//65
f 116//65 149//65 148//65
f 118//65 149//65 117//65
f 119//65 150//65 118//65
f 120//65 151//65 119//65
f 120//65 153//65 152//65
f 122//65 153//65 121//65
f 123//65 154//65 122//65
f 123//65 156//65 155//65
f 124//65 157//65 156//65
f 126//65 157//65 125//65
f 127//65 158//65 126//65
f 128//65 159//65 127//65
f 128//65 129//65 160//65
f 161//66 164//67 162//68
f 165//65 167//69 166//70
f 169//71 166//70 167//69
f 164//67 168//72 169//71
f 161//66 171//73 163//74
f 165//65 166//70 172//75
f 166//70 173//76 172//75
f 163//74 173//76 168//72
f 174//77 171//73 170//78
f 165//65 172//75 176//79
f 184//87 175//88 174//77
f 165//65 176//79 186//89
f 181//90 186//89 176//79
f 175//88 187//91 181//90
f 188//92 185//93 184//87
f 165//65 186//89 190//94
f 187//91 190//94 186//89
f 187//91 189//95 191//96
f 192//97 189//95 188//92
f 165//65 190//94 194//98
f 202//106 193//107 192//97
f 165//65 194//98 204//108
f 199//109 204//108 194//98
f 193//107 205//110 199//109
f 206//111 203//112 202//106
f 165//65 204//108 208//113
f 205//110 208//113 204//108
f 205//110 207//114 209//115
f 206//111 211//116 207//114
f 165//65 208//113 212//117
f 220//124 211//116 210//125
f 165//65 212//117 222//126
f 217//127 222//126 212//117
f 211//116 223//128 217//127
f 220//124 225//129 221//130
f 165//65 222//126 226//131
f 222//126 227//132 226//131
f 221//130 227//132 223//128
f 228//133 225//129 224//134
f 165//65 226//131 230//135
f 238//143 229//144 228//133
f 165//65 230//135 240//145
f 235//146 240//145 230//135
f 229//144 241//147 235//146
f 242//148 239//149 238//143
f 165//65 240//145 244//150
f 241//147 244//150 240//145
f 241//147 243//151 245//152
f 246//153 243//151 242//148
f 165//65 244//150 248//154
f 256//162 247//163 246//153
f 165//65 248//154 258//164
f 253//165 258//164 248//154
f 247//163 259//166 253//165
f 260//167 257//168 256//162
f 165//65 258//164 262//169
f 259//166 262//169 258//164
f 259//166 261//170 263//171
f 260//167 265//172 261//170
f 165//65 262//169 266//173
f 274//180 265//172 264//181
f 165//65 266//173 276//182
f 271//183 276//182 266//173
f 265//172 277//184 271//183
f 274//180 279//185 275//186
f 165//65 276//182 280//187
f 276//182 281//188 280//187
f 275//186 281//188 277//184
f 282//189 279//185 278//190
f 165//65 280//187 284//191
f 292//199 283//200 282//189
f 165//65 284//191 294//201
f 289//202 294//201 284//191
f 283//200 295//203 289//202
f 296//204 293//205 292//199
f 165//65 294//201 298//206
f 295//203 298//206 294//201
f 295//203 297//207 299//208
f 300//209 297//207 296//204
f 165//65 298//206 302//210
f 310//218 301//219 300//209
f 165//65 302//210 312//220
f 307//221 312//220 302//210
f 301//219 313//222 307//221
f 314//223 311//224 310//218
f 165//65 312//220 316//225
f 313//222 316//225 312//220
f 313//222 315//226 317//227
f 314//223 319//228 315//226
f 165//65 316//225 320//229
f 328//236 319//228 318//237
f 165//65 320//229 330//238
f 325//239 330//238 320//229
f 319//228 331//240 325//239
f 328//236 333//241 329//242
f 165//65 330//238 334//243
f 330//238 335//244 334//243
f 329//242 335//244 331//240
f 336//245 333//241 332//246
f 165//65 334//243 338//247
f 346//255 337//256 336//245
f 165//65 338//247 348//257
f 343//258 348//257 338//247
f 337//256 349//259 343//258
f 350//260 347//261 346//255
f 165//65 348//257 352//262
f 349//259 352//262 348//257
f 349//259 351//263 353//264
f 354//265 351//263 350//260
f 165//65 352//262 356//266
f 364//274 355//275 354//265
f 165//65 356//266 366//276
f 361//277 366//276 356//266
f 355//275 367//278 361//277
f 368//279 365//280 364//274
f 165//65 366//276 370//281
f 367//278 370//281 366//276
f 367//278 369//282 371//283
f 368//279 164//67 369//282
f 165//65 370//281 167//69
f 2//1 34//1 33//2
f 3//3 35//3 34//1
f 4//4 36//4 35//3
f 5//5 37//5 36//4
f 6//6 38//6 37//5
f 7//7 39//7 38//6
f 8//8 40//8 39//7
f 9//9 41//9 40//8
f 10//10 42//10 41//9
f 11//11 43//11 42//10
f 12//12 44//12 43//11
f 13//13 45//13 44//12
f 14//14 46//14 45//13
f 15//15 47//15 46//14
f 16//16 48//16 47//15
f 17//17 49//17 48//16
f 18//18 50//18 49//17
f 19//19 51//19 50//18
f 20//20 52//20 51//19
f 21//21 53//21 52//20
f 22//22 54//22 53//21
f 23//23 55//23 54//22
f 24//24 56//24 55//23
f 25//25 57//25 56//24
f 26//26 58//26 57//25
f 27//27 59//27 58//26
f 28//28 60//28 59//27
f 29//29 61//29 60//28
f 30//30 62//30 61//29
f 31//31 63//31 62//30
f 32//32 64//32 63//31
f 1//2 33//2 64//32
f 34//33 66//33 65//34
f 34//33 35//35 67//35
f 36//36 68//36 67//35
f 37//37 69//37 68//36
f 38//38 70//38 69//37
f 38//38 39//39 71//39
f 40//40 72//40 71//39
f 40//40 41//41 73//41
f 42//42 74//42 73//41
f 42//42 43//43 75//43
f 44//44 76//44 75//43
f 45//45 77//45 76//44
f 46//46 78//46 77//45
f 46//46 47//47 79//47
f 48//48 80//48 79//47
f 48//48 49//49 81//49
f 50//50 82//50 81//49
f 50//50 51//51 83//51
f 52//52 84//52 83//51
f 53//53 85//53 84//52
f 54//54 86//54 85//53
f 54//54 55//55 87//55
f 56//56 88//56 87//55
f 56//56 57//57 89//57
f 58//58 90//58 89//57
f 58//58 59//59 91//59
f 60//60 92//60 91//59
f 61//61 93//61 92//60
f 62//62 94//62 93//61
f 62//62 63//63 95//63
f 64//64 96//64 95//63
f 64//64 33//34 65//34
f 66//1 98//1 97//2
f 67//3 99//3 98//1
f 68//4 100//4 99//3
f 69//5 101//5 100//4
f 70//6 102//6 101//5
f 71//7 103//7 102//6
f 72//8 104//8 103//7
f 73//9 105//9 104//8
f 74//10 106//10 105//9
f 75//11 107//11 106//10
f 76//12 108//12 107//11
f 77//13 109//13 108//12
f 78//14 110//14 109//13
f 79//15 111//15 110//14
f 80//16 112//16 111//15
f 81//17 113//17 112//16
f 82//18 114//18 113//17
f 83//19 115//19 114//18
f 84//20 116//20 115//19
f 85//21 117//21 116//20
f 86//22 118//22 117//21
f 87//23 119//23 118//22
f 88//24 120//24 119//23
f 89//25 121//25 120//24
f 90//26 122//26 121//25
f 91//27 123//27 122//26
f 92//28 124//28 123//27
f 93//29 125//29 124//28
f 94//30 126//30 125//29
f 95//31 127//31 126//30
f 96//32 128//32 127//31
f 65//2 97//2 128//32
f 98//65 130//65 129//65
f 99//65 131//65 130//65
f 99//65 100//65 132//65
f 100//65 101//65 133//65
f 102//65 134//65 133//65
f 103//65 135//65 134//65
f 104//65 136//65 135//65
f 104//65 105//65 137//65
f 106//65 138//65 137//65
f 107//65 139//65 138//65
f 107//65 108//65 140//65
f 108//65 109//65 141//65
f 110//65 142//65 141//65
f 111//65 143//65 142//65
f 112//65 144//65 143//65
f 112//65 113//65 145//65
f 114//65 146//65 145//65
f 115//65 147//65 146//65
f 115//65 116//65 148//65
f 116//65 117//65 149//65
f 118//65 150//65 149//65
f 119//65 151//65 150//65
f 120//65 152//65 151//65
f 120//65 121//65 153//65
f 122//65 154//65 153//65
f 123//65 155//65 154//65
f 123//65 124//65 156//65
f 124//65 125//65 157//65
f 126//65 158//65 157//65
f 127//65 159//65 158//65
f 128//65 160//65 159//65
f 128//65 97//65 129//65
f 161//66 163//74 164//67
f 169//71 168//72 166//70
f 164//67 163//74 168//72
f 161//66 170//78 171//73
f 166//70 168//72 173//76
f 163//74 171//73 173//76
f 174//77 175//88 171//73
f 184//87 185//93 175//88
f 181//90 187//91 186//89
f 175//88 185//93 187//91
f 188//92 189//95 185//93
f 187//91 191//96 190//94
f 187//91 185//93 189//95
f 192//97 193//107 189//95
f 202//106 203//112 193//107
f 199//109 205//110 204//108
f 193//107 203//112 205//110
f 206//111 207//114 203//112
f 205//110 209//115 208//113
f 205//110 203//112 207//114
f 206//111 210//125 211//116
f 220//124 221//130 211//116
f 217//127 223//128 222//126
f 211//116 221//130 223//128
f 220//124 224//134 225//129
f 222//126 223//128 227//132
f 221//130 225//129 227//132
f 228//133 229//144 225//129
f 238//143 239//149 229//144
f 235//146 241//147 240//145
f 229//144 239//149 241//147
f 242//148 243//151 239//149
f 241//147 245//152 244//150
f 241//147 239//149 243//151
f 246//153 247//163 243//151
f 256//162 257//168 247//163
f 253//165 259//166 258//164
f 247//163 257//168 259//166
f 260//167 261//170 257//168
f 259//166 263//171 262//169
f 259//166 257//168 261//170
f 260//167 264//181 265//172
f 274//180 275//186 265//172
f 271//183 277//184 276//182
f 265//172 275//186 277//184
f 274//180 278//190 279//185
f 276//182 277//184 281//188
f 275//186 279//185 281//188
f 282//189 283//200 279//185
f 292//199 293//205 283//200
f 289//202 295//203 294//201
f 283//200 293//205 295//203
f 296//204 297//207 293//205
f 295//203 299//208 298//206
f 295//203 293//205 297//207
f 300//209 301//219 297//207
f 310//218 311//224 301//219
f 307//221 313//222 312//220
f 301//219 311//224 313//222
f 314//223 315//226 311//224
f 313//222 317//227 316//225
f 313//222 311//224 315//226
f 314//223 318//237 319//228
f 328//236 329//242 319//228
f 325//239 331//240 330//238
f 319//228 329//242 331//240
f 328//236 332//246 333//241
f 330//238 331//240 335//244
f 329//242 333//241 335//244
f 336//245 337//256 333//241
f 346//255 347//261 337//256
f 343//258 349//259 348//257
f 337//256 347//261 349//259
f 350//260 351//263 347//261
f 349//259 353//264 352//262
f 349//259 347//261 351//263
f 354//265 355//275 351//263
f 364//274 365//280 355//275
f 361//277 367//278 366//276
f 355//275 365//280 367//278
f 368//279 369//282 365//280
f 367//278 371//283 370//281
f 367//278 365//280 369//282
f 368//279 162//68 164//67
usemtl m1
f 180//80 178//81 177//81
f 172//82 180//82 177//82
f 176//83 179//83 181//83
f 183//84 179//80 180//80
f 173//82 183//82 180//82
f 179//83 175//83 181//83
f 172//85 178//85 176//85
f 175//86 183//86 171//86
f 198//99 196//100 195//100
f 190//101 198//101 195//101
f 194//102 197//102 199//102
f 201//103 197//99 198//99
f 189//101 198//101 191//101
f 197//102 193//102 199//102
f 195//104 194//104 190//104
f 193//105 201//105 189//105
f 216//118 214//119 213//119
f 209//120 213//120 208//120
f 212//2 215//2 217//2
f 216//118 218//121 215//118
f 207//120 216//120 209//120
f 215//2 211//2 217//2
f 213//122 212//122 208//122
f 211//123 219//123 207//123
f 234//136 232//137 231//137
f 226//138 234//138 231//138
f 230//139 233//139 235//139
f 237//140 233//136 234//136
f 227//138 237//138 234//138
f 233//139 229//139 235//139
f 226//141 232//141 230//141
f 229//142 237//142 225//142
f 252//155 250//156 249//156
f 244//157 252//157 249//157
f 248//158 251//158 253//158
f 255//159 251//155 252//155
f 243//157 252//157 245//157
f 251//158 247//158 253//158
f 249//160 248//160 244//160
f 247//161 255//161 243//161
f 270//174 268//175 267//175
f 263//176 267//176 262//176
f 266//9 269//9 271//9
f 270//174 272//177 269//174
f 261//176 270//176 263//176
f 269//9 265//9 271//9
f 267//178 266//178 262//178
f 265//179 273//179 261//179
f 288//192 286//193 285//193
f 280//194 288//194 285//194
f 284//195 287//195 289//195
f 291//196 287//192 288//192
f 281//194 291//194 288//194
f 287//195 283//195 289//195
f 280//197 286//197 284//197
f 283//198 291//198 279//198
f 306//211 304//212 303//212
f 298//213 306//213 303//213
f 302//214 305//214 307//214
f 309//215 305//211 306//211
f 297//213 306//213 299//213
f 305//214 301//214 307//214
f 303//216 302//216 298//216
f 301//217 309//217 297//217
f 324//230 322//231 321//231
f 317//232 321//232 316//232
f 320//17 323//17 325//17
f 324//230 326//233 323//230
f 315//232 324//232 317//232
f 323//17 319//17 325//17
f 321//234 320//234 316//234
f 319//235 327//235 315//235
f 342//248 340//249 339//249
f 334//250 342//250 339//250
f 338//251 341//251 343//251
f 345//252 341//248 342//248
f 335//250 345//250 342//250
f 341//251 337//251 343//251
f 334//253 340//253 338//253
f 337//254 345//254 333//254
f 360//267 358//268 357//268
f 352//269 360//269 357//269
f 356//270 359//270 361//270
f 363//271 359//267 360//267
f 351//269 360//269 353//269
f 359//270 355//270 361//270
f 357//272 356//272 352//272
f 355//273 363//273 351//273
f 375//284 373//285 372//285
f 371//286 372//286 370//286
f 167//25 374//25 169//25
f 375//284 376//287 374//284
f 369//286 375//286 371//286
f 374//25 164//25 169//25
f 372//288 167//288 370//288
f 164//289 377//289 369//289
f 180//80 179//80 178//81
f 172//82 173//82 180//82
f 176//83 178//83 179//83
f 183//84 182//84 179//80
f 173//82 171//82 183//82
f 179//83 182//83 175//83
f 172//85 177//85 178//85
f 175//86 182//86 183//86
f 198//99 197//99 196//100
f 190//101 191//101 198//101
f 194//102 196//102 197//102
f 201//103 200//103 197//99
f 189//101 201//101 198//101
f 197//102 200//102 193//102
f 195//104 196//104 194//104
f 193//105 200//105 201//105
f 216//118 215//118 214//119
f 209//120 216//120 213//120
f 212//2 214//2 215//2
f 216//118 219//121 218//121
f 207//120 219//120 216//120
f 215//2 218//2 211//2
f 213//122 214//122 212//122
f 211//123 218//123 219//123
f 234//136 233//136 232//137
f 226//138 227//138 234//138
f 230//139 232//139 233//139
f 237//140 236//140 233//136
f 227//138 225//138 237//138
f 233//139 236//139 229//139
f 226//141 231//141 232//141
f 229//142 236//142 237//142
f 252//155 251//155 250//156
f 244//157 245//157 252//157
f 248//158 250//158 251//158
f 255//159 254//159 251//155
f 243//157 255//157 252//157
f 251//158 254//158 247//158
f 249//160 250//160 248//160
f 247//161 254//161 255//161
f 270//174 269//174 268//175
f 263//176 270//176 267//176
f 266//9 268//9 269//9
f 270//174 273//177 272//177
f 261//176 273//176 270//176
f 269//9 272//9 265//9
f 267//178 268//178 266//178
f 265//179 272//179 273//179
f 288//192 287//192 286//193
f 280//194 281//194 288//194
f 284//195 286//195 287//195
f 291//196 290//196 287//192
f 281//194 279//194 291//194
f 287//195 290//195 283//195
f 280//197 285//197 286//197
f 283//198 290//198 291//198
f 306//211 305//211 304//212
f 298//213 299//213 306//213
f 302//214 304//214 305//214
f 309//215 308//215 305//211
f 297//213 309//213 306//213
f 305//214 308//214 301//214
f 303//216 304//216 302//216
f 301//217 308//217 309//217
f 324//230 323//230 322//231
f 317//232 324//232 321//232
f 320//17 322//17 323//17
f 324//230 327//233 326//233
f 315//232 327//232 324//232
f 323//17 326//17 319//17
f 321//234 322//234 320//234
f 319//235 326//235 327//235
f 342//248 341//248 340//249
f 334//250 335//250 342//250
f 338//251 340//251 341//251
f 345//252 344//252 341//248
f 335//250 333//250 345//250
f 341//251 344//251 337//251
f 334//253 339//253 340//253
f 337//254 344//254 345//254
f 360//267 359//267 358//268
f 352//269 353//269 360//269
f 356//270 358//270 359//270
f 363//271 362//271 359//267
f 351//269 363//269 360//269
f 359//270 362//270 355//270
f 357//272 358//272 356//272
f 355//273 362//273 363//273
f 375//284 374//284 373//285
f 371//286 375//286 372//286
f 167//25 373//25 374//25
f 375//284 377//287 376//287
f 369//286 377//286 375//286
f 374//25 376//25 164//25
f 372//288 373//288 167//288
f 164//289 376//289 377//289
usemtl m2
f 440//326 449//326 439//326
f 441//327 450//327 440//327
f 442//9 451//9 441//9
f 443//328 452//328 442//328
f 444//329 453//329 443//329
f 445//330 454//330 444//330
f 446//331 455//331 445//331
f 447//25 456//25 446//25
f 448//332 457//332 447//332
f 439//333 458//333 448//333
f 449//2 450//2 459//2
f 450//2 451//2 459//2
f 451//2 452//2 459//2
f 452//2 453//2 459//2
f 453//2 454//2 459//2
f 454//2 455//2 459//2
f 455//2 456//2 459//2
f 456//2 457//2 459//2
f 457//2 458//2 459//2
f 458//2 449//2 459//2
f 440//326 450//326 449//326
f 441//327 451//327 450//327
f 442//9 452//9 451//9
f 443//328 453//328 452//328
f 444//329 454//329 453//329
f 445//330 455//330 454//330
f 446//331 456//331 455//331
f 447//25 457//25 456//25
f 448//332 458//332 457//332
f 439//333 449//333 458//333
usemtl m3
f 378//65 379//290 380//291
f 378//65 380//291 381//292
f 378//65 381//292 382//293
f 378//65 382//293 383//294
f 378//65 383//294 384//295
f 378//65 384//295 385//296
f 378//65 385//296 386//297
f 378//65 386//297 387//298
f 378//65 387//298 388//299
f 378//65 388//299 389//300
f 378//65 389//300 390//301
f 378//65 390//301 379//290
f 391//302 380//303 379//302
f 392//304 381//305 380//303
f 393//305 382//306 381//305
f 394//306 383//307 382//306
f 395//308 384//309 383//307
f 396//309 385//310 384//309
f 397//310 386//311 385//310
f 398//312 387//313 386//311
f 399//313 388//314 387//313
f 400//314 389//315 388//314
f 401//316 390//317 389//315
f 402//317 379//302 390//317
f 403//2 392//318 391//2
f 404//5 393//5 392//5
f 405//319 394//319 393//319
f 406//320 395//195 394//320
f 407//195 396//214 395//195
f 408//214 397//17 396//214
f 409//17 398//321 397//17
f 410//21 399//21 398//21
f 411//322 400//322 399//322
f 412//323 401//83 400//323
f 413//83 402//102 401//83
f 414//102 391//2 402//102
f 403//65 416//65 404//65
f 416//65 405//65 404//65
f 417//65 406//65 405//65
f 406//65 419//65 407//65
f 419//65 408//65 407//65
f 420//65 409//65 408//65
f 409//65 422//65 410//65
f 422//65 411//65 410//65
f 423//65 412//65 411//65
f 412//65 425//65 413//65
f 425//65 414//65 413//65
f 426//65 403//65 414//65
f 427//318 416//139 415//318
f 428//139 417//158 416//139
f 429//158 418//319 417//158
f 430//320 419//320 418//320
f 431//13 420//13 419//13
f 432//324 421//324 420//324
f 433//321 422//251 421//321
f 434//251 423//270 422//251
f 435//270 424//322 423//270
f 436//323 425//323 424//323
f 437//29 426//29 425//29
f 438//325 415//325 426//325
f 391//302 392//304 380//303
f 392//304 393//305 381//305
f 393//305 394//306 382//306
f 394//306 395//308 383//307
f 395//308 396//309 384//309
f 396//309 397//310 385//310
f 397//310 398//312 386//311
f 398//312 399//313 387//313
f 399//313 400//314 388//314
f 400//314 401//316 389//315
f 401//316 402//317 390//317
f 402//317 391//302 379//302
f 403//2 404//318 392//318
f 404//5 405//5 393//5
f 405//319 406//319 394//319
f 406//320 407//195 395//195
f 407//195 408//214 396//214
f 408//214 409//17 397//17
f 409//17 410//321 398//321
f 410//21 411//21 399//21
f 411//322 412//322 400//322
f 412//323 413//83 401//83
f 413//83 414//102 402//102
f 414//102 403//2 391//2
f 403//65 415//65 416//65
f 416//65 417//65 405//65
f 417//65 418//65 406//65
f 406//65 418//65 419//65
f 419//65 420//65 408//65
f 420//65 421//65 409//65
f 409//65 421//65 422//65
f 422//65 423//65 411//65
f 423//65 424//65 412//65
f 412//65 424//65 425//65
f 425//65 426//65 414//65
f 426//65 415//65 403//65
f 427//318 428//139 416//139
f 428//139 429//158 417//158
f 429//158 430//319 418//319
f 430//320 431//320 419//320
f 431//13 432//13 420//13
f 432//324 433//324 421//324
f 433//321 434//251 422//251
f 434//251 435//270 423//270
f 435//270 436//322 424//322
f 436//323 437//323 425//323
f 437//29 438//29 426//29
f 438//325 427//325 415//325
