# Blender 5.2.2 LTS
# www.blender.org
mtllib DistributionBoardDoor.mtl
o defaultMaterial
v 0.001608 0.669215 -0.002445
v -0.001671 0.670298 -0.003433
v 0.001145 0.670406 -0.001904
v -0.004036 0.643321 0.007505
v 0.000255 0.643321 0.006729
v -0.000522 0.643321 0.007782
v -0.002935 0.643321 0.008219
v -0.003932 0.669360 -0.004216
v -0.006589 0.670168 -0.002042
v 0.003322 0.669360 0.000828
v 0.001152 0.670172 -0.001831
v 0.002541 0.670299 0.003089
v -0.005332 0.643321 0.007699
v -0.007621 0.643321 0.005019
v -0.008210 0.643321 0.005396
v -0.008325 0.670274 0.002929
v -0.006946 0.670986 0.005839
v -0.008676 0.669482 0.004239
v -0.007349 0.669482 0.006301
v -0.006800 0.670406 0.005772
v -0.008228 0.670298 0.002921
v -0.005251 0.669217 0.007678
v -0.000872 0.670173 0.007052
v -0.005029 0.670406 0.007000
v -0.008932 0.669361 0.000599
v -0.006777 0.670269 -0.002033
v -0.008399 0.643321 0.000727
v -0.009081 0.643321 0.000577
v -0.000522 0.669482 0.007782
v 0.001540 0.669482 0.006454
v 0.001011 0.670406 0.005906
v -0.000801 0.670406 0.007073
v 0.001554 0.669219 0.006372
v 0.001011 0.670406 0.005906
v -0.006719 0.643321 -0.002094
v -0.007196 0.643321 -0.002587
v -0.004004 0.610633 0.007377
v -0.004659 0.609720 0.006149
v -0.002012 0.609862 0.006430
v 0.001760 0.610460 -0.002300
v 0.001935 0.643321 -0.002402
v 0.001382 0.610460 -0.002230
v 0.001311 0.643321 -0.002124
v -0.007061 0.610460 -0.002654
v -0.007162 0.643321 -0.002830
v -0.007439 0.610460 -0.002562
v -0.007268 0.643321 -0.002454
v -0.007025 0.610460 0.005930
v -0.007133 0.643321 0.005998
v -0.007324 0.610460 0.006545
v -0.007216 0.643321 0.006373
v 0.001170 0.610460 0.006130
v 0.001237 0.643321 0.006238
v 0.001335 0.610460 0.006144
v 0.001229 0.643321 0.006072
v 0.001726 0.669482 0.006580
v 0.001845 0.643321 0.006660
v 0.001924 0.643321 0.007083
v 0.001735 0.669482 0.006766
v -0.007754 0.669482 0.006917
v -0.007555 0.643321 0.006606
v -0.007539 0.643321 0.006420
v -0.007660 0.669482 0.006496
v -0.007812 0.669482 -0.002992
v -0.008004 0.643321 -0.003113
v -0.007579 0.643321 -0.003217
v -0.007694 0.669482 -0.003413
v 0.001818 0.669482 -0.002621
v 0.001898 0.643321 -0.002740
v 0.002322 0.643321 -0.002819
v 0.002519 0.669482 -0.002933
v 0.002434 0.643321 0.005576
v 0.002782 0.643321 0.000917
v 0.003021 0.643321 -0.000372
v 0.003457 0.643321 0.002042
v 0.002309 0.643321 0.004165
v -0.000522 0.669482 0.007782
v 0.000420 0.643321 -0.002751
v 0.001692 0.643321 -0.002435
v -0.000323 0.643321 -0.003832
v -0.007349 0.669482 0.006301
v -0.005332 0.669482 0.007699
v -0.005029 0.670406 0.007000
v -0.006800 0.670406 0.005772
v -0.003843 0.643321 -0.003676
v -0.003969 0.643321 -0.004363
v 0.001692 0.669482 -0.002435
v -0.007196 0.669482 -0.002587
v 0.001298 0.671041 -0.001984
v -0.007196 0.669482 -0.002587
v -0.003824 0.670274 -0.003563
v -0.004014 0.670275 0.007393
v -0.007419 0.670275 -0.001248
v 0.000194 0.670275 0.006633
v 0.002632 0.670275 0.003118
v 0.002312 0.670406 -0.000093
v -0.000626 0.670406 -0.003133
v -0.007425 0.609774 0.002767
v -0.008273 0.610629 0.000758
v -0.006719 0.610460 -0.002094
v -0.006582 0.609863 -0.000671
v 0.000343 0.610630 -0.002647
v 0.002382 0.610460 -0.000120
v 0.001669 0.609862 0.001119
v -0.000223 0.609862 -0.001821
v 0.000188 0.610630 0.006617
v 0.000929 0.609861 0.004538
v -0.007508 0.610633 0.004951
v -0.007423 0.609720 0.001855
v -0.006675 0.609859 0.004404
v 0.002616 0.610633 0.003111
v -0.003825 0.610629 -0.003548
v -0.003639 0.609860 -0.002566
v -0.006156 0.609479 0.005141
v 0.000497 0.609509 -0.001273
v 0.001768 0.609774 0.001097
v 0.001014 0.609774 0.004592
v -0.007043 0.609720 0.000102
v -0.005354 0.609773 -0.001996
v -0.001142 0.609720 0.006209
v -0.003821 0.609774 0.006498
v -0.001837 0.609774 -0.002632
v -0.020476 0.111852 0.002512
v -0.026358 0.119635 0.002411
v -0.019224 0.121952 0.002534
v -0.013176 0.114224 0.002638
v -0.553161 0.791151 -0.006635
v -0.546993 0.783568 -0.006529
v -0.548904 0.774918 -0.006562
v -0.555116 0.782301 -0.006669
v -0.007833 0.791151 0.002729
v -0.014000 0.783567 0.002624
v -0.019223 0.789900 0.002534
v -0.013176 0.797630 0.002638
v -0.540517 0.800000 -0.006418
v -0.534635 0.792217 -0.006317
v -0.541769 0.789900 -0.006439
v -0.547816 0.797630 -0.006543
v -0.548904 0.136934 -0.006562
v -0.555116 0.129551 -0.006669
v -0.020476 0.800000 0.002512
v -0.026358 0.792217 0.002411
v -0.005876 0.129551 0.002763
v -0.012088 0.136934 0.002656
v -0.012088 0.774918 0.002656
v -0.005876 0.782301 0.002763
v -0.553161 0.120702 -0.006635
v -0.546993 0.128284 -0.006529
v -0.541769 0.121952 -0.006439
v -0.547816 0.114224 -0.006543
v -0.014000 0.128284 0.002623
v -0.007833 0.120702 0.002729
v -0.540516 0.111852 -0.006418
v -0.534635 0.119635 -0.006317
v -0.013915 0.797630 0.045649
v -0.021215 0.800000 0.045523
v -0.029659 0.789053 0.055305
v -0.022591 0.786758 0.055427
v -0.019962 0.121952 0.045545
v -0.027096 0.119635 0.045422
v -0.024727 0.132940 0.051429
v -0.549643 0.136934 0.036449
v -0.549643 0.774918 0.036449
v -0.537942 0.778906 0.042621
v -0.538976 0.134184 0.042603
v -0.008572 0.120702 0.045740
v -0.006615 0.129551 0.045774
v -0.015523 0.139935 0.055548
v -0.017417 0.131368 0.055516
v -0.006615 0.129551 0.045774
v -0.006615 0.782301 0.045774
v -0.015523 0.771917 0.055548
v -0.015523 0.139935 0.055548
v -0.535374 0.119635 0.036694
v -0.013915 0.114224 0.045648
v -0.022591 0.125096 0.055427
v -0.541255 0.800000 0.036593
v -0.533153 0.789053 0.046659
v -0.547731 0.783568 0.036482
v -0.021215 0.111852 0.045523
v -0.029659 0.122800 0.055305
v -0.555855 0.782301 0.036342
v -0.555855 0.129551 0.036342
v -0.547287 0.139935 0.046417
v -0.547287 0.771917 0.046417
v -0.542508 0.789900 0.036572
v -0.541255 0.111852 0.036593
v -0.533153 0.122800 0.046659
v -0.535374 0.792217 0.036694
v -0.553900 0.791151 0.036376
v -0.555855 0.782301 0.036342
v -0.547287 0.771917 0.046417
v -0.545394 0.780484 0.046449
v -0.547731 0.128284 0.036482
v -0.541938 0.790438 -0.006442
v -0.542782 0.790773 0.036567
v -0.547989 0.113673 -0.006546
v -0.012895 0.113330 0.002642
v -0.013742 0.113673 0.045651
v -0.548836 0.113330 0.036463
v -0.548211 0.781056 -0.006550
v -0.541769 0.789900 -0.006439
v -0.542508 0.789900 0.036572
v -0.548560 0.782159 0.036468
v -0.554008 0.789711 -0.006649
v -0.554406 0.123270 -0.006656
v -0.554747 0.122142 0.036361
v -0.555145 0.788583 0.036355
v -0.013003 0.798180 0.002641
v -0.548097 0.798523 -0.006548
v -0.548728 0.798180 0.036465
v -0.013634 0.798523 0.045653
v -0.013176 0.114224 0.002638
v -0.006985 0.122144 0.002744
v -0.007325 0.123274 0.045762
v -0.013915 0.114224 0.045648
v -0.019055 0.121414 0.002537
v -0.542043 0.121079 -0.006444
v -0.542676 0.121414 0.036569
v -0.019688 0.121079 0.045549
v -0.006586 0.788580 0.002751
v -0.007723 0.789709 0.045755
v -0.547821 0.129693 -0.006543
v -0.548949 0.130796 0.036461
v -0.018949 0.790773 0.002539
v -0.019793 0.790438 0.045548
v -0.012782 0.130796 0.002644
v -0.019224 0.121952 0.002534
v -0.019962 0.121952 0.045545
v -0.013910 0.129693 0.045649
v -0.013176 0.797630 0.002638
v -0.013915 0.797630 0.045649
v -0.013171 0.782159 0.002638
v -0.013521 0.781056 0.045655
v -0.019223 0.789900 0.002534
v -0.019962 0.789900 0.045545
v -0.547816 0.114224 -0.006543
v -0.548555 0.114224 0.036468
v -0.541769 0.121952 -0.006439
v -0.542508 0.121952 0.036572
v -0.547816 0.797630 -0.006543
v -0.548555 0.797630 0.036468
v -0.027096 0.792217 0.045422
v -0.023701 0.777668 0.051452
v -0.014738 0.128284 0.045634
v -0.008572 0.791151 0.045740
v -0.017417 0.780484 0.055516
v -0.012827 0.774918 0.045667
v -0.012827 0.136934 0.045667
v -0.006615 0.782301 0.045774
v -0.015523 0.771917 0.055548
v -0.019962 0.789900 0.045545
v -0.548555 0.114224 0.036468
v -0.540219 0.125096 0.046538
v -0.014738 0.783567 0.045634
v -0.553900 0.120702 0.036376
v -0.545394 0.131368 0.046449
v -0.555855 0.129551 0.036342
v -0.547287 0.139935 0.046417
v -0.542508 0.121952 0.036572
v -0.548555 0.797630 0.036468
v -0.540219 0.786758 0.046538
v -0.017417 0.131368 0.055516
v -0.015523 0.139935 0.055548
v -0.038611 0.167373 0.055152
v -0.040340 0.159549 0.055122
v 0.001608 0.335100 -0.002445
v -0.001671 0.336182 -0.003433
v 0.001145 0.336290 -0.001904
v -0.004036 0.309205 0.007505
v 0.000255 0.309205 0.006728
v -0.000522 0.309205 0.007782
v -0.002935 0.309205 0.008219
v -0.003932 0.335245 -0.004216
v -0.006589 0.336052 -0.002042
v 0.003322 0.335245 0.000828
v 0.001152 0.336056 -0.001830
v 0.002541 0.336183 0.003089
v -0.005332 0.309205 0.007699
v -0.007621 0.309205 0.005019
v -0.008210 0.309205 0.005395
v -0.008325 0.336158 0.002928
v -0.006946 0.336871 0.005839
v -0.008676 0.335368 0.004239
v -0.007349 0.335368 0.006301
v -0.006800 0.336290 0.005772
v -0.008228 0.336182 0.002920
v -0.005251 0.335103 0.007678
v -0.000872 0.336057 0.007052
v -0.005029 0.336290 0.007000
v -0.008932 0.335246 0.000599
v -0.006776 0.336152 -0.002032
v -0.008399 0.309205 0.000727
v -0.009081 0.309205 0.000577
v -0.000522 0.335368 0.007782
v 0.001540 0.335368 0.006453
v 0.001011 0.336290 0.005906
v -0.000801 0.336290 0.007073
v 0.001555 0.335105 0.006372
v 0.001011 0.336290 0.005906
v -0.006719 0.309205 -0.002094
v -0.007196 0.309205 -0.002588
v -0.004004 0.276518 0.007377
v -0.005431 0.275747 0.005690
v -0.002012 0.275748 0.006430
v 0.001760 0.276345 -0.002300
v 0.001935 0.309205 -0.002402
v 0.001382 0.276345 -0.002230
v 0.001311 0.309205 -0.002124
v -0.007061 0.276345 -0.002654
v -0.007162 0.309205 -0.002830
v -0.007439 0.276345 -0.002562
v -0.007268 0.309205 -0.002454
v -0.007025 0.276345 0.005930
v -0.007133 0.309205 0.005998
v -0.007324 0.276345 0.006545
v -0.007216 0.309205 0.006373
v 0.001170 0.276345 0.006130
v 0.001237 0.309205 0.006238
v 0.001335 0.276345 0.006144
v 0.001229 0.309205 0.006072
v 0.001726 0.335368 0.006580
v 0.001845 0.309205 0.006660
v 0.001924 0.309205 0.007083
v 0.001735 0.335368 0.006766
v -0.007754 0.335368 0.006917
v -0.007555 0.309205 0.006606
v -0.007539 0.309205 0.006420
v -0.007660 0.335368 0.006496
v -0.007812 0.335368 -0.002992
v -0.008004 0.309205 -0.003113
v -0.007579 0.309205 -0.003217
v -0.007694 0.335368 -0.003413
v 0.001818 0.335368 -0.002621
v 0.001898 0.309205 -0.002740
v 0.002322 0.309205 -0.002819
v 0.002519 0.335368 -0.002933
v 0.002434 0.309205 0.005576
v 0.002782 0.309205 0.000917
v 0.003021 0.309205 -0.000372
v 0.003457 0.309205 0.002042
v 0.002309 0.309205 0.004165
v -0.000522 0.335368 0.007782
v 0.000420 0.309205 -0.002751
v 0.001692 0.309205 -0.002435
v -0.000323 0.309205 -0.003832
v -0.007349 0.335368 0.006301
v -0.005332 0.335368 0.007699
v -0.005029 0.336290 0.007000
v -0.006800 0.336290 0.005772
v -0.003843 0.309205 -0.003676
v -0.003969 0.309205 -0.004363
v 0.001692 0.335368 -0.002435
v -0.007196 0.335368 -0.002588
v 0.001299 0.336926 -0.001984
v -0.007196 0.335368 -0.002588
v -0.003824 0.336158 -0.003563
v -0.004014 0.336159 0.007393
v -0.007419 0.336159 -0.001248
v 0.000194 0.336159 0.006633
v 0.002632 0.336159 0.003118
v 0.002312 0.336290 -0.000093
v -0.000626 0.336290 -0.003133
v -0.007423 0.275660 0.002771
v -0.003667 0.275442 -0.002689
v -0.008271 0.276518 0.000759
v -0.006719 0.276345 -0.002094
v -0.005298 0.275744 -0.001914
v -0.007043 0.275606 0.000102
v 0.000344 0.276515 -0.002647
v 0.002382 0.276345 -0.000120
v 0.001669 0.275748 0.001119
v -0.000223 0.275748 -0.001821
v 0.000188 0.276516 0.006617
v 0.000929 0.275746 0.004538
v -0.007508 0.276518 0.004951
v -0.007324 0.275748 0.002749
v 0.002615 0.276519 0.003111
v -0.003825 0.276514 -0.003548
v -0.002749 0.275606 -0.002662
v 0.001035 0.275441 0.004607
v -0.005497 0.275509 0.005790
v 0.001768 0.275660 0.001097
v -0.006669 0.275660 -0.000725
v -0.001991 0.275660 0.006529
v -0.000168 0.275660 -0.001907
v -0.457666 0.696310 0.047480
v -0.462760 0.696310 0.056564
v -0.464016 0.689588 0.056542
v -0.459254 0.687804 0.047453
v -0.467616 0.683773 0.056480
v -0.463809 0.680447 0.047375
v -0.463809 0.680447 0.047375
v -0.467616 0.683773 0.056480
v -0.473071 0.679653 0.056387
v -0.470714 0.675232 0.047256
v -0.479647 0.677781 0.056274
v -0.479034 0.672865 0.047114
v -0.486457 0.678413 0.056157
v -0.487650 0.673663 0.046966
v -0.492577 0.681461 0.056052
v -0.495394 0.677520 0.046833
v -0.495394 0.677520 0.046833
v -0.492577 0.681461 0.056052
v -0.497182 0.686514 0.055973
v -0.501222 0.683914 0.046733
v -0.499652 0.692891 0.055930
v -0.504349 0.691983 0.046679
v -0.499652 0.699729 0.055930
v -0.504349 0.700636 0.046679
v -0.497182 0.706105 0.055973
v -0.501222 0.708705 0.046733
v -0.492577 0.711158 0.056052
v -0.495394 0.715099 0.046833
v -0.495394 0.715099 0.046833
v -0.492577 0.711158 0.056052
v -0.486457 0.714206 0.056157
v -0.487650 0.718955 0.046966
v -0.479647 0.714837 0.056274
v -0.479034 0.719754 0.047114
v -0.473071 0.712966 0.056387
v -0.470714 0.717386 0.047256
v -0.467616 0.708845 0.056480
v -0.463809 0.712172 0.047375
v -0.486457 0.714206 0.056157
v -0.492577 0.711158 0.056052
v -0.488571 0.705852 0.056121
v -0.484636 0.707812 0.056188
v -0.463809 0.712172 0.047375
v -0.467616 0.708845 0.056480
v -0.464016 0.703032 0.056542
v -0.459254 0.704814 0.047453
v -0.457666 0.696310 0.047480
v -0.459254 0.687804 0.047453
v -0.463809 0.680447 0.047375
v -0.470714 0.675232 0.047256
v -0.479034 0.672865 0.047114
v -0.487650 0.673663 0.046966
v -0.495394 0.677520 0.046833
v -0.501222 0.683914 0.046733
v -0.504349 0.691983 0.046679
v -0.504349 0.700636 0.046679
v -0.501222 0.708705 0.046733
v -0.495394 0.715099 0.046833
v -0.487650 0.718955 0.046966
v -0.479034 0.719754 0.047114
v -0.470714 0.717386 0.047256
v -0.463809 0.712172 0.047375
v -0.459254 0.704814 0.047453
v -0.482074 0.708422 0.056232
v -0.482772 0.708345 0.048957
v -0.462760 0.696310 0.056564
v -0.464016 0.703032 0.056542
v -0.470215 0.700629 0.056436
v -0.469408 0.696310 0.056450
v -0.486457 0.678413 0.056157
v -0.479647 0.677781 0.056274
v -0.480262 0.684402 0.056263
v -0.484636 0.684808 0.056188
v -0.497182 0.706105 0.055973
v -0.499652 0.699729 0.055930
v -0.493118 0.698507 0.056043
v -0.491530 0.702604 0.056070
v -0.467616 0.708845 0.056480
v -0.473071 0.712966 0.056387
v -0.476034 0.707015 0.056336
v -0.472529 0.704366 0.056396
v -0.473071 0.679653 0.056387
v -0.467616 0.683773 0.056480
v -0.472529 0.688253 0.056396
v -0.476034 0.685605 0.056336
v -0.499652 0.692891 0.055930
v -0.497182 0.686514 0.055973
v -0.491530 0.690014 0.056070
v -0.493118 0.694113 0.056043
v -0.464016 0.689588 0.056542
v -0.470215 0.691990 0.056436
v -0.479647 0.714837 0.056274
v -0.480262 0.708217 0.056263
v -0.492577 0.681461 0.056052
v -0.488571 0.686767 0.056121
v -0.470090 0.691990 0.049175
v -0.469283 0.696310 0.049189
v -0.470090 0.700629 0.049175
v -0.472404 0.704366 0.049135
v -0.475910 0.707015 0.049075
v -0.480137 0.708217 0.049003
v -0.484511 0.707812 0.048928
v -0.488446 0.705852 0.048860
v -0.491405 0.702604 0.048809
v -0.492993 0.698507 0.048782
v -0.492993 0.694113 0.048782
v -0.491405 0.690014 0.048809
v -0.488446 0.686767 0.048860
v -0.484511 0.684808 0.048928
v -0.480137 0.684402 0.049003
v -0.475910 0.685605 0.049075
v -0.472404 0.688253 0.049135
v -0.489107 0.685626 0.056111
v -0.481944 0.684197 0.048972
v -0.488446 0.686767 0.048860
v -0.472302 0.704674 0.056400
v -0.472034 0.704868 0.049142
v -0.492820 0.692317 0.056048
v -0.488571 0.686767 0.056121
v -0.489396 0.685939 0.048844
v -0.472201 0.688055 0.056402
v -0.469371 0.698133 0.056450
v -0.471870 0.687930 0.049145
v -0.472529 0.704366 0.056396
v -0.471317 0.705006 0.049154
v -0.491888 0.702738 0.056064
v -0.491989 0.702823 0.048799
v -0.472159 0.687751 0.056402
v -0.472177 0.687945 0.049139
v -0.491986 0.703030 0.056062
v -0.491684 0.702865 0.048804
v -0.492197 0.696310 0.048669
v -0.474463 0.705179 0.048974
v -0.474463 0.687441 0.048974
v -0.492197 0.696310 0.048669
v -0.474463 0.687441 0.048974
v -0.474554 0.687441 0.054280
v -0.492288 0.696310 0.053976
v -0.474463 0.687441 0.048974
v -0.474463 0.705179 0.048974
v -0.474554 0.705179 0.054280
v -0.474554 0.687441 0.054280
v -0.491612 0.696310 0.054291
v -0.474863 0.687934 0.054579
v -0.474863 0.704685 0.054579
v -0.474711 0.704937 0.054435
v -0.491952 0.696315 0.054139
v -0.474708 0.687687 0.054429
v -0.474708 0.704932 0.054429
v -0.491952 0.696305 0.054139
v -0.474711 0.687683 0.054435
v -0.474463 0.705179 0.048974
v -0.492197 0.696310 0.048669
v -0.492288 0.696310 0.053976
v -0.474554 0.705179 0.054280
v -0.499766 0.230529 0.046757
v -0.496031 0.227491 0.055992
v -0.490906 0.232016 0.056080
v -0.493281 0.236255 0.046869
v -0.484493 0.234385 0.056191
v -0.485165 0.239253 0.047008
v -0.477655 0.234277 0.056308
v -0.476514 0.239116 0.047157
v -0.471320 0.231706 0.056417
v -0.468497 0.235862 0.047294
v -0.466342 0.227020 0.056502
v -0.462198 0.229932 0.047403
v -0.462198 0.229932 0.047403
v -0.466342 0.227020 0.056502
v -0.463391 0.220851 0.056553
v -0.458464 0.222126 0.047467
v -0.462869 0.214032 0.056562
v -0.457804 0.213499 0.047478
v -0.464844 0.207486 0.056528
v -0.460303 0.205215 0.047435
v -0.469051 0.202094 0.056456
v -0.465625 0.198394 0.047344
v -0.465625 0.198394 0.047344
v -0.469051 0.202094 0.056456
v -0.474920 0.198588 0.056355
v -0.473053 0.193955 0.047216
v -0.481660 0.197438 0.056239
v -0.481582 0.192501 0.047070
v -0.488360 0.198801 0.056124
v -0.490059 0.194225 0.046924
v -0.494115 0.202493 0.056025
v -0.497341 0.198897 0.046799
v -0.497341 0.198897 0.046799
v -0.494115 0.202493 0.056025
v -0.498148 0.208014 0.055956
v -0.502445 0.205885 0.046711
v -0.499915 0.214621 0.055926
v -0.504680 0.214243 0.046673
v -0.488360 0.198801 0.056124
v -0.481660 0.197438 0.056239
v -0.481555 0.204086 0.056241
v -0.485860 0.204962 0.056167
v -0.499175 0.221419 0.055938
v -0.503745 0.222846 0.046689
v -0.496031 0.227491 0.055992
v -0.499766 0.230529 0.046757
v -0.499766 0.230529 0.046757
v -0.493281 0.236255 0.046869
v -0.485165 0.239253 0.047008
v -0.476514 0.239116 0.047157
v -0.468497 0.235862 0.047294
v -0.462198 0.229932 0.047403
v -0.458464 0.222126 0.047467
v -0.457804 0.213499 0.047478
v -0.460303 0.205215 0.047435
v -0.465625 0.198394 0.047344
v -0.473053 0.193955 0.047216
v -0.481582 0.192501 0.047070
v -0.490059 0.194225 0.046924
v -0.497341 0.198897 0.046799
v -0.502445 0.205885 0.046711
v -0.504680 0.214243 0.046673
v -0.503745 0.222846 0.046689
v -0.490216 0.206259 0.056092
v -0.483254 0.204079 0.048949
v -0.489434 0.207335 0.048843
v -0.496031 0.227491 0.055992
v -0.499175 0.221419 0.055938
v -0.492812 0.219498 0.056048
v -0.490790 0.223401 0.056082
v -0.466342 0.227020 0.056502
v -0.471320 0.231706 0.056417
v -0.474910 0.226109 0.056355
v -0.471709 0.223097 0.056410
v -0.474920 0.198588 0.056355
v -0.469051 0.202094 0.056456
v -0.473451 0.207078 0.056380
v -0.477222 0.204824 0.056315
v -0.499915 0.214621 0.055926
v -0.498148 0.208014 0.055956
v -0.492151 0.210884 0.056059
v -0.493287 0.215128 0.056040
v -0.477655 0.234277 0.056308
v -0.484493 0.234385 0.056191
v -0.483375 0.227831 0.056210
v -0.478981 0.227762 0.056285
v -0.464844 0.207486 0.056528
v -0.462869 0.214032 0.056562
v -0.469478 0.214750 0.056448
v -0.470748 0.210544 0.056427
v -0.490906 0.232016 0.056080
v -0.487497 0.226310 0.056139
v -0.494115 0.202493 0.056025
v -0.489559 0.207335 0.056104
v -0.463391 0.220851 0.056553
v -0.469814 0.219133 0.056443
v -0.487372 0.226310 0.048878
v -0.490666 0.223401 0.048822
v -0.492687 0.219498 0.048787
v -0.493162 0.215128 0.048779
v -0.492026 0.210884 0.048799
v -0.489434 0.207335 0.048843
v -0.485736 0.204962 0.048907
v -0.481430 0.204086 0.048980
v -0.477098 0.204824 0.049055
v -0.473326 0.207078 0.049120
v -0.470623 0.210544 0.049166
v -0.469354 0.214750 0.049188
v -0.469689 0.219133 0.049182
v -0.471584 0.223097 0.049150
v -0.474785 0.226109 0.049095
v -0.478856 0.227762 0.049025
v -0.483250 0.227831 0.048949
v -0.468491 0.216323 0.056465
v -0.468474 0.217733 0.049203
v -0.493185 0.213311 0.056041
v -0.489559 0.207335 0.056104
v -0.490469 0.206615 0.048825
v -0.485180 0.227561 0.056179
v -0.490790 0.223401 0.056082
v -0.491479 0.224365 0.048808
v -0.491132 0.223573 0.056077
v -0.491223 0.223681 0.048812
v -0.473451 0.207078 0.056380
v -0.473326 0.207078 0.049120
v -0.473137 0.206539 0.056386
v -0.473134 0.206748 0.049123
v -0.474770 0.226465 0.056358
v -0.474557 0.226690 0.049099
v -0.474910 0.226109 0.056355
v -0.474785 0.226109 0.049095
v -0.472599 0.209300 0.049006
v -0.492034 0.213221 0.048672
v -0.481124 0.227204 0.048859
v -0.472599 0.209300 0.049006
v -0.481124 0.227204 0.048859
v -0.481215 0.227204 0.054166
v -0.472690 0.209300 0.054312
v -0.481124 0.227204 0.048859
v -0.492034 0.213221 0.048672
v -0.492125 0.213221 0.053979
v -0.481215 0.227204 0.054166
v -0.473232 0.209718 0.054607
v -0.481282 0.226628 0.054468
v -0.491588 0.213422 0.054291
v -0.491856 0.213322 0.054134
v -0.472961 0.209510 0.054458
v -0.481260 0.226924 0.054331
v -0.491868 0.213330 0.054149
v -0.472953 0.209513 0.054468
v -0.481241 0.226919 0.054326
v -0.492034 0.213221 0.048672
v -0.472599 0.209300 0.049006
v -0.472690 0.209300 0.054312
v -0.492125 0.213221 0.053979
v -0.045064 0.153822 0.055041
v -0.039590 0.160823 0.055135
v -0.039226 0.161821 0.054427
v -0.045052 0.153822 0.054327
v -0.540219 0.786758 0.046538
v -0.545394 0.780484 0.046449
v -0.522472 0.752304 0.046843
v -0.517748 0.758030 0.046924
v -0.022591 0.786758 0.055427
v -0.029659 0.789053 0.055305
v -0.051518 0.760128 0.054930
v -0.045064 0.758030 0.055041
v -0.547287 0.771917 0.046417
v -0.524201 0.744478 0.046813
v -0.017417 0.780484 0.055516
v -0.040340 0.752304 0.055122
v -0.533153 0.122800 0.046659
v -0.029659 0.122800 0.055305
v -0.051518 0.151725 0.054930
v -0.511294 0.151725 0.047035
v -0.015523 0.771917 0.055548
v -0.038611 0.744478 0.055152
v -0.547287 0.139935 0.046417
v -0.524201 0.167373 0.046813
v -0.540219 0.125096 0.046538
v -0.517748 0.153822 0.046924
v -0.533153 0.789053 0.046659
v -0.511294 0.760128 0.047035
v -0.545394 0.131368 0.046449
v -0.522472 0.159549 0.046843
v -0.022591 0.125096 0.055427
v -0.045064 0.153822 0.055041
v -0.045052 0.153822 0.054327
v -0.040327 0.159549 0.054408
v -0.038598 0.167373 0.054438
v -0.038598 0.744478 0.054438
v -0.040327 0.752304 0.054408
v -0.045052 0.758030 0.054327
v -0.051506 0.760128 0.054216
v -0.511282 0.760128 0.046321
v -0.517735 0.758030 0.046210
v -0.522460 0.752304 0.046129
v -0.524189 0.744478 0.046099
v -0.524189 0.167373 0.046099
v -0.522460 0.159549 0.046129
v -0.517735 0.153822 0.046210
v -0.511282 0.151725 0.046321
v -0.051506 0.151725 0.054216
v -0.517996 0.758821 0.046920
v -0.517888 0.758517 0.046207
v -0.517748 0.758030 0.046924
v -0.523221 0.751031 0.046830
v -0.523561 0.750034 0.046110
v -0.517735 0.758030 0.046210
v -0.044911 0.758517 0.055044
v -0.044804 0.758821 0.054331
v -0.039238 0.750033 0.055141
v -0.045064 0.758030 0.055041
v -0.045052 0.758030 0.054327
v -0.039578 0.751031 0.054421
v -0.517900 0.153335 0.046921
v -0.044816 0.153031 0.055045
v -0.044899 0.153335 0.054329
v -0.517983 0.153031 0.046206
v -0.523574 0.161821 0.046824
v -0.523209 0.160823 0.046116
v -0.517748 0.153822 0.046924
v -0.517735 0.153822 0.046210
v -0.281393 0.667545 0.050249
v -0.204516 0.520743 0.051569
v -0.327961 0.562239 0.049449
v -0.327995 0.562239 0.051396
v -0.358302 0.520743 0.050876
v -0.343999 0.529107 0.051121
v -0.319206 0.563051 0.051547
v -0.204516 0.520744 0.051569
v -0.204550 0.520743 0.053516
v -0.358269 0.520743 0.048929
v -0.204517 0.520743 0.051569
v -0.204550 0.520743 0.053516
v -0.358302 0.520743 0.050876
v -0.281393 0.667545 0.050249
v -0.327961 0.562239 0.049449
v -0.327995 0.562239 0.051396
v -0.281426 0.667545 0.052196
v -0.327995 0.562239 0.051396
v -0.327961 0.562239 0.049449
v -0.358269 0.520743 0.048929
v -0.358302 0.520743 0.050876
v -0.204550 0.520743 0.053516
v -0.281426 0.667545 0.052196
v -0.281114 0.649190 0.052201
v -0.218229 0.529107 0.053281
v -0.281393 0.667545 0.050249
v -0.281426 0.667545 0.052196
v -0.358269 0.520743 0.048929
v -0.281114 0.649190 0.052201
v -0.319206 0.563051 0.051547
v -0.218229 0.529107 0.053281
v -0.343999 0.529107 0.051121
v -0.281426 0.667545 0.052196
v -0.281114 0.649190 0.052201
v -0.278204 0.654453 0.052025
v -0.279057 0.654453 0.052764
v -0.279754 0.652771 0.052752
v -0.279148 0.652178 0.052008
v -0.279148 0.652178 0.052008
v -0.279754 0.652771 0.052752
v -0.281435 0.652074 0.052723
v -0.281422 0.651235 0.051969
v -0.281422 0.651235 0.051969
v -0.281435 0.652074 0.052723
v -0.283116 0.652771 0.052694
v -0.283698 0.652178 0.051930
v -0.283698 0.652178 0.051930
v -0.283116 0.652771 0.052694
v -0.283814 0.654453 0.052682
v -0.284640 0.654453 0.051914
v -0.284640 0.654453 0.051914
v -0.283814 0.654453 0.052682
v -0.283116 0.656134 0.052694
v -0.283698 0.656729 0.051930
v -0.283698 0.656729 0.051930
v -0.283116 0.656134 0.052694
v -0.281435 0.656832 0.052723
v -0.281422 0.657671 0.051969
v -0.279754 0.652771 0.052752
v -0.279057 0.654453 0.052764
v -0.279754 0.656134 0.052752
v -0.281435 0.656832 0.052723
v -0.283116 0.656134 0.052694
v -0.283814 0.654453 0.052682
v -0.283116 0.652771 0.052694
v -0.281435 0.652074 0.052723
v -0.281422 0.657671 0.051969
v -0.281435 0.656832 0.052723
v -0.279754 0.656134 0.052752
v -0.279148 0.656729 0.052008
v -0.279148 0.656729 0.052008
v -0.279754 0.656134 0.052752
v -0.279057 0.654453 0.052764
v -0.278204 0.654453 0.052025
v -0.278204 0.654453 0.052025
v -0.279148 0.652178 0.052008
v -0.281422 0.651235 0.051969
v -0.283698 0.652178 0.051930
v -0.284640 0.654453 0.051914
v -0.283698 0.656729 0.051930
v -0.281422 0.657671 0.051969
v -0.279148 0.656729 0.052008
v -0.344609 0.525777 0.050884
v -0.345461 0.525777 0.051623
v -0.346157 0.524095 0.051611
v -0.345551 0.523500 0.050868
v -0.345551 0.523500 0.050868
v -0.346157 0.524095 0.051611
v -0.347838 0.523398 0.051582
v -0.347826 0.522558 0.050829
v -0.347826 0.522558 0.050829
v -0.347838 0.523398 0.051582
v -0.349521 0.524095 0.051554
v -0.350101 0.523500 0.050790
v -0.350101 0.523500 0.050790
v -0.349521 0.524095 0.051554
v -0.350217 0.525777 0.051542
v -0.351043 0.525777 0.050774
v -0.351043 0.525777 0.050774
v -0.350217 0.525777 0.051542
v -0.349521 0.527458 0.051554
v -0.350101 0.528051 0.050790
v -0.350101 0.528051 0.050790
v -0.349521 0.527458 0.051554
v -0.347838 0.528154 0.051582
v -0.347826 0.528995 0.050829
v -0.346157 0.524095 0.051611
v -0.345461 0.525777 0.051623
v -0.346157 0.527458 0.051611
v -0.347838 0.528154 0.051582
v -0.349521 0.527458 0.051554
v -0.350217 0.525777 0.051542
v -0.349521 0.524095 0.051554
v -0.347838 0.523398 0.051582
v -0.347826 0.528995 0.050829
v -0.347838 0.528154 0.051582
v -0.346157 0.527458 0.051611
v -0.345551 0.528051 0.050868
v -0.345551 0.528051 0.050868
v -0.346157 0.527458 0.051611
v -0.345461 0.525777 0.051623
v -0.344609 0.525777 0.050884
v -0.344609 0.525777 0.050884
v -0.345551 0.523500 0.050868
v -0.347826 0.522558 0.050829
v -0.350101 0.523500 0.050790
v -0.351043 0.525777 0.050774
v -0.350101 0.528051 0.050790
v -0.347826 0.528995 0.050829
v -0.345551 0.528051 0.050868
v -0.210911 0.525777 0.053180
v -0.211763 0.525777 0.053919
v -0.212461 0.524095 0.053907
v -0.211855 0.523500 0.053164
v -0.211855 0.523500 0.053164
v -0.212461 0.524095 0.053907
v -0.214142 0.523398 0.053878
v -0.214129 0.522558 0.053125
v -0.214129 0.522558 0.053125
v -0.214142 0.523398 0.053878
v -0.215823 0.524095 0.053849
v -0.216405 0.523500 0.053086
v -0.216405 0.523500 0.053086
v -0.215823 0.524095 0.053849
v -0.216520 0.525777 0.053837
v -0.217347 0.525777 0.053070
v -0.217347 0.525777 0.053070
v -0.216520 0.525777 0.053837
v -0.215823 0.527458 0.053849
v -0.216405 0.528051 0.053086
v -0.216405 0.528051 0.053086
v -0.215823 0.527458 0.053849
v -0.214142 0.528154 0.053878
v -0.214129 0.528995 0.053125
v -0.212461 0.524095 0.053907
v -0.211763 0.525777 0.053919
v -0.212461 0.527458 0.053907
v -0.214142 0.528154 0.053878
v -0.215823 0.527458 0.053849
v -0.216520 0.525777 0.053837
v -0.215823 0.524095 0.053849
v -0.214142 0.523398 0.053878
v -0.214129 0.528995 0.053125
v -0.214142 0.528154 0.053878
v -0.212461 0.527458 0.053907
v -0.211855 0.528051 0.053164
v -0.211855 0.528051 0.053164
v -0.212461 0.527458 0.053907
v -0.211763 0.525777 0.053919
v -0.210911 0.525777 0.053180
v -0.210911 0.525777 0.053180
v -0.211855 0.523500 0.053164
v -0.214129 0.522558 0.053125
v -0.216405 0.523500 0.053086
v -0.217347 0.525777 0.053070
v -0.216405 0.528051 0.053086
v -0.214129 0.528995 0.053125
v -0.211855 0.528051 0.053164
vn 0.3863 0.4203 -0.8210
vn 0.2451 0.2833 -0.9272
vn 0.5215 0.5150 -0.6803
vn -0.0000 -1.0000 -0.0000
vn -0.1181 0.7622 -0.6365
vn -0.2539 0.7633 -0.5941
vn 0.6378 0.7611 -0.1182
vn 0.5974 0.7600 -0.2558
vn 0.9272 0.2838 0.2444
vn 0.0001 -1.0000 -0.0000
vn -0.7473 0.6596 0.0804
vn -0.6012 0.7547 0.2627
vn -0.5738 0.6838 0.4508
vn -0.6260 0.6317 0.4573
vn 0.0055 0.5322 0.8466
vn -0.0439 0.6816 0.7304
vn -0.1329 0.5111 0.8492
vn -0.6189 0.7694 -0.1579
vn -0.6071 0.7147 -0.3473
vn 0.2828 0.6368 0.7173
vn 0.5357 0.6368 0.5545
vn 0.8197 0.4236 0.3856
vn 0.6783 0.5189 0.5202
vn -0.1250 -0.7256 0.6767
vn -0.3396 -0.6835 0.6461
vn 0.1406 -0.7037 0.6965
vn 0.0555 -0.0038 -0.9984
vn 0.0502 -0.0052 -0.9987
vn 0.0777 0.0020 -0.9970
vn 0.0830 0.0034 -0.9965
vn -0.9991 -0.0020 0.0435
vn -0.9988 -0.0034 0.0487
vn -0.9998 0.0038 0.0212
vn -0.9999 0.0052 0.0159
vn 0.0435 -0.0020 0.9991
vn 0.0487 -0.0034 0.9988
vn 0.0212 0.0038 0.9998
vn 0.0159 0.0052 0.9999
vn 0.9984 -0.0038 0.0555
vn 0.9987 -0.0052 0.0503
vn 0.9970 0.0020 0.0778
vn 0.9965 0.0034 0.0830
vn 0.9983 -0.0046 0.0576
vn 0.9987 -0.0073 0.0502
vn 0.9971 0.0021 0.0757
vn 0.9965 0.0048 0.0830
vn 0.0159 0.0122 0.9998
vn 0.0012 0.0068 1.0000
vn -0.0356 -0.0068 0.9993
vn -0.0502 -0.0122 0.9987
vn -0.9991 -0.0021 0.0414
vn -0.9988 -0.0048 0.0487
vn -0.9997 0.0046 0.0232
vn -0.9998 0.0073 0.0159
vn 0.0575 -0.0046 -0.9983
vn 0.0502 -0.0073 -0.9987
vn 0.0757 0.0021 -0.9971
vn 0.0830 0.0048 -0.9965
vn 0.0002 -1.0000 -0.0000
vn 0.0911 0.7389 0.6677
vn -0.5544 0.6368 0.5358
vn -0.3073 0.6368 0.7071
vn 0.5253 0.7513 -0.3995
vn -0.3973 0.7552 -0.5214
vn -0.6012 0.6447 -0.4722
vn 0.0695 0.9956 -0.0629
vn -0.0894 0.9786 -0.1853
vn -0.1262 0.9866 -0.1037
vn -0.0460 0.9981 0.0411
vn 0.0979 0.9867 0.1301
vn 0.1866 0.9775 0.0980
vn 0.5609 0.8276 -0.0224
vn 0.0582 0.9448 0.3224
vn -0.3329 0.9402 -0.0721
vn 0.0365 0.8473 -0.5299
vn -0.4650 -0.8280 -0.3133
vn -0.6403 -0.7594 -0.1155
vn -0.2615 -0.8988 -0.3517
vn 0.2908 -0.8102 -0.5089
vn 0.3034 -0.7923 -0.5293
vn 0.4572 -0.8666 -0.2000
vn 0.5344 -0.8436 -0.0519
vn 0.3223 -0.8032 0.5009
vn 0.5673 -0.7240 0.3925
vn -0.5652 -0.7700 0.2961
vn -0.5545 -0.7672 0.3225
vn -0.7957 -0.5924 0.1262
vn 0.5519 -0.8211 0.1457
vn -0.1079 -0.7930 -0.5996
vn -0.0850 -0.8143 -0.5742
vn 0.0204 -0.9996 -0.0196
vn 0.1471 -0.9886 0.0318
vn 0.0568 -0.9977 0.0361
vn -0.0221 -0.9995 0.0211
vn -0.2085 -0.9780 -0.0102
vn -0.0465 -0.9981 -0.0398
vn -0.0341 -0.9977 -0.0581
vn 0.0381 -0.9982 0.0470
vn 0.0029 -0.9782 0.2075
vn -0.0265 -0.9887 -0.1477
vn 0.0172 -0.0000 -0.9999
vn 0.3092 0.4876 0.8165
vn 0.3186 0.4806 0.8170
vn 0.1063 0.6157 0.7808
vn 0.0595 0.6392 0.7667
vn -0.1917 0.1836 -0.9641
vn -0.2295 0.3803 -0.8959
vn -0.0388 0.4169 -0.9081
vn 0.2426 0.1681 -0.9555
vn 0.5077 0.0439 -0.8604
vn 0.4768 -0.0393 -0.8781
vn 0.2246 -0.1836 -0.9570
vn 0.5732 -0.2421 0.7828
vn 0.5269 -0.2939 0.7975
vn 0.6787 -0.1023 0.7273
vn 0.7128 -0.0471 0.6998
vn 0.7129 -0.0471 0.6997
vn 0.6787 0.1023 0.7272
vn 0.7128 0.0471 0.6997
vn 0.0652 0.3896 -0.9187
vn 0.3092 -0.4876 0.8165
vn 0.3187 -0.4805 0.8170
vn -0.1331 0.6157 0.7766
vn -0.0858 0.6392 0.7642
vn 0.4460 -0.2094 -0.8702
vn 0.0595 -0.6392 0.7667
vn 0.1064 -0.6156 0.7808
vn -0.7365 0.0471 0.6748
vn -0.7033 0.1023 0.7035
vn -0.7033 -0.1023 0.7035
vn -0.7365 -0.0471 0.6748
vn 0.2602 -0.3803 -0.8875
vn -0.0858 -0.6392 0.7642
vn -0.1331 -0.6157 0.7767
vn 0.0699 -0.4170 -0.9062
vn -0.5998 0.2420 0.7627
vn -0.5540 0.2939 0.7789
vn -0.7032 0.1024 0.7036
vn -0.7364 0.0471 0.6749
vn 0.4538 0.2220 -0.8630
vn -0.0005 -1.0000 -0.0072
vn -0.0005 -1.0000 -0.0080
vn 0.0005 -1.0000 0.0072
vn 0.0005 -1.0000 0.0080
vn 0.9443 -0.3288 0.0122
vn 0.9523 -0.3048 0.0159
vn 0.8051 -0.5927 0.0205
vn 0.7876 -0.6160 0.0135
vn -0.9523 0.3047 -0.0168
vn -0.9441 0.3289 -0.0203
vn -0.9523 -0.3047 -0.0159
vn -0.9443 -0.3289 -0.0121
vn 0.0007 1.0000 -0.0071
vn 0.0008 1.0000 -0.0080
vn -0.0007 1.0000 0.0071
vn -0.0008 1.0000 0.0080
vn 0.8052 -0.5927 0.0206
vn 0.7877 -0.6159 0.0135
vn 0.9443 -0.3288 0.0121
vn 0.9523 -0.3046 0.0159
vn -0.0007 1.0000 0.0070
vn -0.0008 1.0000 0.0078
vn 0.0007 1.0000 -0.0070
vn 0.0008 1.0000 -0.0078
vn 0.9523 0.3046 0.0168
vn 0.9442 0.3288 0.0203
vn 0.9523 0.3048 0.0168
vn 0.0005 -1.0000 0.0070
vn 0.0005 -1.0000 0.0078
vn -0.0005 -1.0000 -0.0070
vn -0.0005 -1.0000 -0.0078
vn -0.9442 0.3288 -0.0203
vn -0.9523 0.3048 -0.0168
vn -0.8054 0.5927 -0.0072
vn -0.7876 0.6160 -0.0135
vn 0.8054 0.5927 0.0070
vn 0.7877 0.6159 0.0135
vn -0.9523 -0.3048 -0.0159
vn -0.9443 -0.3288 -0.0122
vn -0.8051 -0.5927 -0.0205
vn -0.7876 -0.6160 -0.0135
vn -0.8050 -0.5929 -0.0206
vn 0.8054 0.5927 0.0072
vn 0.7876 0.6160 0.0135
vn -0.8053 0.5929 -0.0070
vn -0.0337 -0.3897 -0.9203
vn -0.2096 -0.1682 -0.9632
vn -0.4159 0.2094 -0.8850
vn 0.5733 0.2420 0.7828
vn 0.5269 0.2939 0.7975
vn -0.4778 -0.0439 -0.8774
vn -0.4463 0.0393 -0.8940
vn 0.7128 0.0472 0.6998
vn 0.6787 0.1024 0.7273
vn -0.2154 -0.3705 -0.9035
vn -0.3370 -0.4876 0.8054
vn -0.3465 -0.4806 0.8056
vn -0.4239 -0.2220 -0.8781
vn -0.5997 -0.2421 0.7627
vn -0.5540 -0.2939 0.7789
vn -0.7364 -0.0471 0.6749
vn 0.2462 0.3705 -0.8956
vn -0.3465 0.4806 0.8056
vn -0.3370 0.4876 0.8054
vn -0.0172 -0.0000 0.9999
vn 0.3863 0.4204 -0.8210
vn 0.2452 0.2831 -0.9272
vn 0.5216 0.5144 -0.6807
vn -0.1180 0.7627 -0.6359
vn -0.2534 0.7642 -0.5931
vn 0.6375 0.7613 -0.1181
vn 0.5972 0.7604 -0.2551
vn 0.9272 0.2839 0.2444
vn -0.7471 0.6598 0.0804
vn -0.6006 0.7553 0.2624
vn -0.5738 0.6838 0.4507
vn -0.6261 0.6316 0.4573
vn 0.0052 0.5324 0.8465
vn -0.0442 0.6822 0.7298
vn -0.1328 0.5108 0.8494
vn -0.6182 0.7700 -0.1578
vn -0.7132 0.6165 -0.3337
vn 0.8195 0.4237 0.3858
vn 0.6784 0.5186 0.5203
vn -0.1261 -0.8028 0.5828
vn -0.3927 -0.7242 0.5668
vn 0.1223 -0.7255 0.6773
vn 0.9985 -0.0038 0.0552
vn 0.9970 0.0020 0.0777
vn 0.0911 0.7391 0.6674
vn -0.0001 -1.0000 -0.0000
vn -0.5545 0.6368 0.5358
vn -0.3073 0.6368 0.7072
vn -0.3072 0.6368 0.7072
vn 0.5249 0.7518 -0.3992
vn -0.3968 0.7558 -0.5208
vn -0.6008 0.6452 -0.4720
vn 0.0696 0.9956 -0.0630
vn -0.0895 0.9785 -0.1856
vn -0.1263 0.9865 -0.1038
vn -0.0461 0.9981 0.0411
vn 0.1867 0.9775 0.0981
vn 0.5616 0.8271 -0.0224
vn 0.0583 0.9447 0.3228
vn -0.3335 0.9400 -0.0722
vn 0.0365 0.8469 -0.5305
vn -0.0698 -0.9975 -0.0086
vn -0.0043 -0.9998 -0.0178
vn -0.0249 -0.9994 0.0231
vn -0.6031 -0.7598 -0.2428
vn -0.6654 -0.7418 -0.0841
vn -0.3801 -0.8265 -0.4153
vn -0.2677 -0.8122 -0.5184
vn 0.3388 -0.8113 -0.4765
vn 0.3434 -0.7717 -0.5353
vn 0.5673 -0.7239 0.3925
vn -0.6970 -0.7030 0.1414
vn -0.5015 -0.8026 0.3231
vn 0.5519 -0.8210 0.1458
vn 0.0672 -0.6858 -0.7247
vn -0.1125 -0.7504 -0.6514
vn 0.0216 -0.9997 0.0096
vn -0.0841 -0.9963 -0.0182
vn 0.0139 -0.9908 0.1344
vn 0.0721 -0.9963 -0.0462
vn 0.0725 -0.9963 -0.0469
vn 0.8128 -0.3180 0.4882
vn 0.8722 -0.0000 0.4892
vn 0.6425 -0.5931 0.4852
vn 0.6424 -0.5931 0.4852
vn 0.3842 -0.7882 0.4808
vn 0.6424 -0.5932 0.4852
vn 0.3843 -0.7882 0.4808
vn 0.0731 -0.8767 0.4754
vn -0.2491 -0.8469 0.4699
vn -0.2491 -0.8468 0.4699
vn -0.5386 -0.7026 0.4649
vn -0.5386 -0.7026 0.4650
vn -0.7566 -0.4635 0.4612
vn -0.5387 -0.7026 0.4650
vn -0.8734 -0.1618 0.4593
vn -0.8734 -0.1617 0.4593
vn -0.8734 0.1618 0.4593
vn -0.8734 0.1618 0.4592
vn -0.7566 0.4635 0.4612
vn -0.5387 0.7026 0.4650
vn -0.2491 0.8469 0.4699
vn -0.5386 0.7027 0.4650
vn -0.5386 0.7027 0.4649
vn 0.0731 0.8767 0.4754
vn 0.3842 0.7882 0.4808
vn 0.3843 0.7881 0.4808
vn 0.6424 0.5932 0.4852
vn 0.8128 0.3180 0.4882
vn 0.6425 0.5931 0.4852
vn 0.6424 0.5931 0.4852
vn 0.8127 0.3181 0.4881
vn 0.1167 0.9899 -0.0810
vn -0.0399 0.9921 -0.1193
vn 0.5240 0.8332 0.1768
vn -0.3387 -0.9409 -0.0081
vn -0.3573 -0.9332 -0.0382
vn 0.0540 -0.9985 -0.0120
vn 0.1306 -0.9913 0.0152
vn 0.9190 0.3817 0.0988
vn 0.9635 0.2311 0.1351
vn 0.6600 0.7348 -0.1564
vn -0.9802 0.1783 0.0863
vn -0.9616 0.2703 -0.0486
vn -0.9936 -0.0499 0.1014
vn -0.9763 -0.2061 0.0662
vn -0.7780 -0.6016 -0.1813
vn 0.9927 0.0045 0.1203
vn 0.9959 -0.0891 -0.0150
vn -0.2660 0.9579 -0.1078
vn -0.3586 0.9331 0.0259
vn 0.5060 -0.8624 0.0110
vn 0.5228 -0.8514 0.0410
vn -0.4472 -0.8944 -0.0077
vn -0.4471 -0.8944 -0.0077
vn 0.9999 -0.0000 0.0172
vn -0.4472 0.8944 -0.0077
vn -0.4471 0.8944 -0.0077
vn -0.4596 0.7558 0.4663
vn -0.7021 0.5417 0.4621
vn -0.7021 0.5417 0.4622
vn -0.1562 0.8679 0.4715
vn 0.1673 0.8628 0.4771
vn 0.1674 0.8628 0.4771
vn 0.4672 0.7411 0.4822
vn 0.7027 0.5194 0.4863
vn 0.8423 0.2275 0.4887
vn 0.7027 0.5193 0.4863
vn 0.8423 0.2275 0.4886
vn 0.8671 -0.0952 0.4890
vn 0.8671 -0.0951 0.4890
vn 0.7736 -0.4049 0.4874
vn 0.5745 -0.6600 0.4841
vn 0.2967 -0.8260 0.4793
vn 0.2968 -0.8260 0.4793
vn -0.0221 -0.8804 0.4738
vn -0.3392 -0.8158 0.4684
vn -0.6114 -0.6412 0.4637
vn -0.8023 -0.3799 0.4605
vn -0.6115 -0.6411 0.4637
vn -0.8859 -0.0673 0.4590
vn -0.8509 0.2544 0.4596
vn -0.7022 0.5417 0.4621
vn 0.2230 0.9716 -0.0791
vn 0.0677 0.9908 -0.1173
vn 0.6109 0.7713 0.1784
vn -0.0172 0.0001 0.9999
vn 0.9548 0.2801 0.0995
vn 0.9828 0.1255 0.1355
vn 0.7355 0.6595 -0.1552
vn 0.3656 -0.9265 0.0893
vn 0.2139 -0.9692 0.1221
vn 0.7271 -0.6687 -0.1554
vn 0.9874 -0.1030 0.1202
vn 0.9805 -0.1961 -0.0152
vn -0.7964 0.6044 0.0217
vn -0.7790 0.6268 -0.0134
vn -0.9996 -0.0048 -0.0265
vn -0.9890 -0.1479 -0.0077
vn -0.0130 -0.9946 0.1028
vn -0.1040 -0.9940 -0.0339
vn -0.1608 0.9813 -0.1059
vn -0.2554 0.9664 0.0277
vn -0.6939 -0.7186 -0.0474
vn -0.6745 -0.7382 -0.0116
vn 0.9027 0.4300 0.0155
vn -0.7883 0.6152 -0.0135
vn -0.7883 0.6152 -0.0136
vn -0.1977 -0.9803 -0.0034
vn -0.7889 0.6145 0.0081
vn -0.8577 0.4702 0.2079
vn -0.9429 0.1248 -0.3089
vn 0.7881 -0.6146 0.0351
vn 0.7876 -0.6161 0.0134
vn 0.8501 -0.4703 0.2370
vn 0.9529 -0.1249 -0.2763
vn -0.8500 -0.4703 -0.2372
vn -0.9529 -0.1248 0.2764
vn -0.7881 -0.6146 -0.0352
vn -0.7876 -0.6161 -0.0135
vn 0.0073 0.9207 -0.3901
vn 0.0073 0.9204 -0.3909
vn -0.0073 0.9207 0.3901
vn -0.0073 0.9204 0.3909
vn 0.9429 0.1248 0.3089
vn 0.8577 0.4702 -0.2080
vn 0.0061 -0.9206 -0.3904
vn 0.0061 -0.9203 -0.3911
vn -0.0061 -0.9206 0.3904
vn -0.0061 -0.9203 0.3911
vn 0.7889 0.6145 -0.0082
vn 0.7876 0.6160 0.0134
vn -0.9144 0.4045 -0.0157
vn -0.8074 0.5899 -0.0139
vn -0.8074 0.5899 -0.0138
vn 0.8857 0.4640 0.0153
vn 0.8857 0.4640 0.0152
vn 0.6314 -0.2670 0.7281
vn 0.6314 -0.2670 0.7280
vn 0.6313 -0.2670 0.7281
vn 0.2543 -0.6438 0.7217
vn 0.2542 -0.6438 0.7217
vn -0.2788 -0.6438 0.7126
vn -0.2789 -0.6438 0.7126
vn -0.6559 -0.2668 0.7061
vn -0.6560 -0.2666 0.7061
vn -0.6558 -0.2666 0.7063
vn -0.6560 -0.2670 0.7059
vn -0.6561 0.2665 0.7060
vn -0.6559 0.2667 0.7061
vn -0.2789 0.6438 0.7125
vn -0.2793 0.6438 0.7124
vn -0.0171 -0.0000 0.9999
vn 0.2543 0.6439 0.7216
vn 0.2544 0.6436 0.7219
vn 0.6313 0.2668 0.7283
vn 0.6314 0.2666 0.7282
vn 0.6313 -0.2668 0.7282
vn 0.6315 -0.2665 0.7281
vn 0.2543 -0.6437 0.7217
vn 0.2546 -0.6438 0.7216
vn -0.2791 -0.6438 0.7125
vn -0.2791 -0.6437 0.7125
vn -0.2789 -0.6439 0.7125
vn -0.6561 -0.2665 0.7061
vn -0.6561 -0.2665 0.7060
vn -0.6561 0.2666 0.7060
vn -0.6563 0.2666 0.7058
vn -0.2791 0.6439 0.7124
vn -0.2789 0.6438 0.7126
vn 0.2543 0.6438 0.7217
vn 0.6316 0.2667 0.7280
vn 0.6315 0.2665 0.7281
vn 0.0171 -0.0000 -0.9999
vn 0.6314 -0.2668 0.7281
vn 0.6314 -0.2667 0.7282
vn 0.2543 -0.6437 0.7218
vn -0.2787 -0.6439 0.7125
vn -0.6561 -0.2670 0.7059
vn -0.6561 0.2667 0.7060
vn -0.6560 0.2667 0.7061
vn -0.6562 0.2667 0.7059
vn -0.2789 0.6437 0.7127
vn -0.2791 0.6437 0.7126
vn -0.2789 0.6436 0.7127
vn 0.6314 0.2670 0.7281
vt 0.110361 0.031192
vt 0.114944 0.030618
vt 0.111016 0.030618
vt 0.129910 0.054029
vt 0.130439 0.055228
vt 0.131702 0.051435
vt 0.130648 0.051815
vt 0.118030 0.031192
vt 0.121686 0.030618
vt 0.110183 0.234017
vt 0.106717 0.234632
vt 0.113330 0.234601
vt 0.129910 0.056425
vt 0.131330 0.059487
vt 0.131703 0.059022
vt 0.114272 0.026912
vt 0.112467 0.026337
vt 0.109565 0.026339
vt 0.110267 0.026914
vt 0.130574 0.304119
vt 0.136583 0.303547
vt 0.130873 0.303547
vt 0.117458 0.026338
vt 0.120929 0.026914
vt 0.134758 0.061254
vt 0.134756 0.060595
vt 0.029476 0.156061
vt 0.029589 0.156865
vt 0.031371 0.156109
vt 0.031041 0.155397
vt 0.117981 0.234039
vt 0.117377 0.234624
vt 0.137502 0.060338
vt 0.137202 0.059780
vt 0.145009 0.128137
vt 0.144208 0.127124
vt 0.143927 0.129792
vt 0.097714 0.320343
vt 0.108573 0.320343
vt 0.108617 0.299999
vt 0.097712 0.299999
vt 0.090452 0.077072
vt 0.079556 0.077072
vt 0.079558 0.097430
vt 0.090410 0.097430
vt 0.094303 0.138145
vt 0.105208 0.138145
vt 0.105206 0.117802
vt 0.094347 0.117802
vt 0.080086 0.144062
vt 0.090935 0.144053
vt 0.090978 0.123694
vt 0.080084 0.123703
vt 0.118066 0.217762
vt 0.105835 0.217772
vt 0.105787 0.234050
vt 0.118068 0.234040
vt 0.139863 0.304119
vt 0.127652 0.304119
vt 0.139892 0.320343
vt 0.127681 0.320343
vt 0.121855 0.010057
vt 0.109568 0.010057
vt 0.109570 0.026339
vt 0.121807 0.026339
vt 0.110280 0.047464
vt 0.122526 0.047464
vt 0.122575 0.031192
vt 0.110278 0.031192
vt 0.132905 0.049662
vt 0.136409 0.050273
vt 0.137502 0.050125
vt 0.135721 0.049207
vt 0.133898 0.049863
vt 0.137071 0.304119
vt 0.138745 0.053178
vt 0.138866 0.051820
vt 0.139603 0.054034
vt 0.025018 0.153142
vt 0.024517 0.153543
vt 0.025880 0.155477
vt 0.026216 0.154841
vt 0.138746 0.057286
vt 0.139234 0.057538
vt 0.105858 0.234050
vt 0.122502 0.031192
vt 0.121784 0.026339
vt 0.032211 0.147710
vt 0.028628 0.144863
vt 0.025616 0.146144
vt 0.025038 0.153125
vt 0.030257 0.155730
vt 0.032563 0.152991
vt 0.032888 0.149800
vt 0.026997 0.155352
vt 0.024369 0.149923
vt 0.031041 0.145986
vt 0.139103 0.123795
vt 0.140514 0.122539
vt 0.137962 0.123389
vt 0.137105 0.129789
vt 0.136352 0.130265
vt 0.137961 0.132869
vt 0.139103 0.132272
vt 0.143690 0.132087
vt 0.141928 0.132274
vt 0.143123 0.124788
vt 0.143694 0.124182
vt 0.141250 0.123447
vt 0.140508 0.133722
vt 0.137104 0.126280
vt 0.136355 0.125984
vt 0.137391 0.130627
vt 0.139100 0.132270
vt 0.141926 0.132275
vt 0.143643 0.125439
vt 0.141929 0.123797
vt 0.139782 0.123446
vt 0.137904 0.124791
vt 0.143646 0.130635
vt 0.144208 0.128032
vt 0.136824 0.128032
vt 0.808078 0.279934
vt 0.809643 0.280535
vt 0.831583 0.246205
vt 0.830634 0.245840
vt 0.924257 0.110575
vt 0.923837 0.108332
vt 0.900831 0.141780
vt 0.901085 0.143140
vt 0.808078 0.106690
vt 0.806933 0.108332
vt 0.829939 0.141780
vt 0.830634 0.140784
vt 0.922692 0.106690
vt 0.921127 0.106089
vt 0.899187 0.140419
vt 0.900136 0.140784
vt 0.924257 0.276048
vt 0.901085 0.243484
vt 0.809643 0.106089
vt 0.831583 0.140419
vt 0.806513 0.110575
vt 0.806513 0.276048
vt 0.829685 0.243484
vt 0.829685 0.143140
vt 0.922692 0.279934
vt 0.923837 0.278292
vt 0.900831 0.244844
vt 0.900136 0.245840
vt 0.806933 0.278292
vt 0.829939 0.244844
vt 0.921127 0.280535
vt 0.899187 0.246205
vt 0.443715 0.336790
vt 0.450773 0.326122
vt 0.444716 0.323795
vt 0.437851 0.334537
vt 0.978934 0.369721
vt 0.985003 0.356631
vt 0.979221 0.354410
vt 0.566845 0.370626
vt 0.555701 0.370990
vt 0.555701 0.982444
vt 0.567554 0.983712
vt 0.448009 0.979874
vt 0.455207 0.990340
vt 0.456830 0.981657
vt 0.449580 0.971467
vt 0.552248 0.354943
vt 0.543586 0.344544
vt 0.543586 0.983726
vt 0.552248 0.973787
vt 0.567266 0.354410
vt 0.443715 0.986029
vt 0.450773 0.996697
vt 0.013196 0.323795
vt 0.020061 0.334537
vt 0.557250 0.990734
vt 0.437851 0.988281
vt 0.444716 0.999023
vt 0.504574 0.354521
vt 0.495981 0.344361
vt 0.495981 0.984017
vt 0.504574 0.973825
vt 0.561484 0.996802
vt 0.020061 0.988281
vt 0.013196 0.999023
vt 0.567266 0.999023
vt 0.009904 0.342945
vt 0.002705 0.332479
vt 0.001082 0.341162
vt 0.008332 0.351352
vt 0.557250 0.362700
vt 0.264129 0.142019
vt 0.271033 0.209265
vt 0.533041 0.209220
vt 0.522233 0.103735
vt 0.461713 0.325773
vt 0.462545 0.283906
vt 0.455548 0.283548
vt 0.455610 0.325430
vt 0.496040 0.338342
vt 0.460458 0.337202
vt 0.460447 0.990025
vt 0.496051 0.991165
vt 0.794130 0.160780
vt 0.791155 0.108994
vt 0.527758 0.093302
vt 0.531638 0.160806
vt 0.543968 0.329742
vt 0.508408 0.329819
vt 0.508111 0.337523
vt 0.543657 0.338575
vt 0.271193 0.234303
vt 0.263569 0.183227
vt 0.001207 0.167770
vt 0.011149 0.234367
vt 0.508097 0.989849
vt 0.543670 0.990916
vt 0.978559 0.325788
vt 0.979402 0.283891
vt 0.803749 0.280036
vt 0.777198 0.144235
vt 0.530214 0.214285
vt 0.543104 0.280117
vt 0.524898 0.238172
vt 0.523995 0.280046
vt 0.531134 0.280343
vt 0.531137 0.238456
vt 0.508408 0.999020
vt 0.543968 0.998943
vt 0.008101 0.238159
vt 0.007198 0.280059
vt 0.000980 0.238456
vt 0.000977 0.280343
vt 0.460705 0.999019
vt 0.496298 0.999023
vt 0.985823 0.325430
vt 0.985761 0.283548
vt 0.496298 0.329326
vt 0.460705 0.329322
vt 0.979221 0.999023
vt 0.979642 0.982808
vt 0.989236 0.362700
vt 0.448008 0.342945
vt 0.455207 0.332479
vt 0.990786 0.982444
vt 0.990786 0.370990
vt 0.449580 0.351352
vt 0.456830 0.341162
vt 0.985003 0.996802
vt 0.014197 0.986029
vt 0.007139 0.996697
vt 0.989236 0.990734
vt 0.009904 0.979874
vt 0.002705 0.990340
vt 0.008332 0.971467
vt 0.001082 0.981657
vt 0.561484 0.356631
vt 0.007139 0.326122
vt 0.014197 0.336790
vt 0.428988 0.952222
vt 0.430423 0.944544
vt 0.121609 0.218367
vt 0.126193 0.217793
vt 0.122265 0.217793
vt 0.139589 0.040932
vt 0.139061 0.039732
vt 0.137797 0.043525
vt 0.138852 0.043145
vt 0.129279 0.218367
vt 0.132933 0.217793
vt 0.112989 0.137626
vt 0.109523 0.138241
vt 0.116136 0.138210
vt 0.139589 0.038535
vt 0.138169 0.035473
vt 0.137796 0.035938
vt 0.116712 0.320340
vt 0.114906 0.319766
vt 0.112005 0.319767
vt 0.112707 0.320342
vt 0.122482 0.064705
vt 0.128491 0.064133
vt 0.122781 0.064133
vt 0.119898 0.319765
vt 0.123369 0.320342
vt 0.134742 0.033707
vt 0.134744 0.034364
vt 0.087993 0.294981
vt 0.088107 0.295785
vt 0.089888 0.295029
vt 0.089558 0.294316
vt 0.120786 0.137647
vt 0.120183 0.138233
vt 0.131998 0.034623
vt 0.132297 0.035180
vt 0.145696 0.295081
vt 0.144614 0.293225
vt 0.144614 0.296737
vt 0.096464 0.089443
vt 0.107323 0.089443
vt 0.107367 0.069099
vt 0.096462 0.069099
vt 0.093069 0.053259
vt 0.082173 0.053259
vt 0.082175 0.073616
vt 0.093027 0.073617
vt 0.095914 0.049807
vt 0.106819 0.049807
vt 0.106817 0.029464
vt 0.095958 0.029464
vt 0.083427 0.320318
vt 0.094277 0.320309
vt 0.094320 0.299949
vt 0.083425 0.299958
vt 0.120871 0.121371
vt 0.108641 0.121381
vt 0.108593 0.137660
vt 0.120873 0.137648
vt 0.131771 0.064705
vt 0.119561 0.064705
vt 0.131800 0.080929
vt 0.119590 0.080929
vt 0.124294 0.303485
vt 0.112008 0.303485
vt 0.112010 0.319767
vt 0.124246 0.319768
vt 0.121528 0.234639
vt 0.133774 0.234639
vt 0.133823 0.218367
vt 0.121526 0.218367
vt 0.136594 0.045298
vt 0.133090 0.044687
vt 0.131998 0.044835
vt 0.133779 0.045753
vt 0.135602 0.045097
vt 0.128979 0.064705
vt 0.130754 0.041782
vt 0.130634 0.043140
vt 0.129896 0.040926
vt 0.083535 0.292061
vt 0.083034 0.292463
vt 0.084397 0.294396
vt 0.084733 0.293760
vt 0.130754 0.037675
vt 0.130265 0.037422
vt 0.108664 0.137659
vt 0.133750 0.218367
vt 0.124223 0.319768
vt 0.090728 0.286629
vt 0.087145 0.283783
vt 0.084133 0.285063
vt 0.083555 0.292044
vt 0.088774 0.294649
vt 0.091081 0.291911
vt 0.091405 0.288720
vt 0.085514 0.294272
vt 0.082887 0.288842
vt 0.089558 0.284906
vt 0.142619 0.290742
vt 0.137797 0.293211
vt 0.144614 0.293226
vt 0.140469 0.290390
vt 0.141201 0.289484
vt 0.138648 0.290333
vt 0.138590 0.291736
vt 0.137792 0.296733
vt 0.137039 0.297209
vt 0.138648 0.299813
vt 0.139790 0.299215
vt 0.144377 0.299031
vt 0.142615 0.299218
vt 0.142616 0.290740
vt 0.144381 0.291126
vt 0.141195 0.300665
vt 0.137511 0.294063
vt 0.137042 0.292928
vt 0.142606 0.299220
vt 0.139793 0.290737
vt 0.144613 0.296740
vt 0.137791 0.296730
vt 0.139787 0.299214
vt 0.062202 0.066953
vt 0.062058 0.072398
vt 0.075533 0.072479
vt 0.075647 0.068176
vt 0.062611 0.062303
vt 0.075971 0.064502
vt 0.007138 0.157107
vt 0.007237 0.162004
vt 0.020539 0.159915
vt 0.020461 0.156044
vt 0.007104 0.151527
vt 0.020434 0.151635
vt 0.007138 0.146019
vt 0.020461 0.147282
vt 0.007237 0.141326
vt 0.020539 0.143573
vt 0.079730 0.299352
vt 0.079282 0.295122
vt 0.065637 0.297736
vt 0.065990 0.301079
vt 0.079970 0.304694
vt 0.066180 0.305300
vt 0.079970 0.310427
vt 0.066180 0.309831
vt 0.079730 0.315777
vt 0.065990 0.314059
vt 0.079282 0.320021
vt 0.065637 0.317414
vt 0.063048 0.142057
vt 0.063227 0.147098
vt 0.076570 0.145143
vt 0.076428 0.141159
vt 0.062985 0.136447
vt 0.076379 0.136726
vt 0.063048 0.131026
vt 0.076428 0.132442
vt 0.063227 0.126527
vt 0.076570 0.128886
vt 0.057152 0.300074
vt 0.062272 0.298918
vt 0.060337 0.292650
vt 0.055909 0.296045
vt 0.062202 0.077902
vt 0.062611 0.082722
vt 0.075971 0.080638
vt 0.075647 0.076829
vt 0.021061 0.086557
vt 0.019815 0.094907
vt 0.021061 0.103237
vt 0.024629 0.110422
vt 0.030037 0.115490
vt 0.036556 0.117759
vt 0.043305 0.116920
vt 0.049373 0.113088
vt 0.053939 0.106781
vt 0.056387 0.098849
vt 0.056387 0.090364
vt 0.053939 0.082473
vt 0.049373 0.076240
vt 0.043306 0.072508
vt 0.036557 0.071781
vt 0.030038 0.074156
vt 0.024629 0.079314
vt 0.047081 0.313822
vt 0.046600 0.320310
vt 0.051934 0.319735
vt 0.050508 0.313452
vt 0.039210 0.297845
vt 0.034354 0.295450
vt 0.033370 0.302033
vt 0.038578 0.302076
vt 0.053590 0.292842
vt 0.056728 0.287665
vt 0.051933 0.284636
vt 0.050508 0.290895
vt 0.053590 0.311557
vt 0.056728 0.316785
vt 0.060337 0.311860
vt 0.055909 0.308391
vt 0.039210 0.306317
vt 0.034354 0.308632
vt 0.037174 0.314356
vt 0.041023 0.309996
vt 0.047080 0.290470
vt 0.046600 0.283974
vt 0.041448 0.285767
vt 0.043769 0.291622
vt 0.043770 0.312615
vt 0.041448 0.318432
vt 0.057153 0.304383
vt 0.062272 0.305623
vt 0.041022 0.294196
vt 0.037174 0.289772
vt 0.055129 0.026352
vt 0.058556 0.026778
vt 0.061867 0.025625
vt 0.064614 0.023051
vt 0.066426 0.019402
vt 0.067059 0.015171
vt 0.066426 0.010930
vt 0.064614 0.007251
vt 0.061867 0.004632
vt 0.058556 0.003425
vt 0.055128 0.003795
vt 0.052047 0.005691
vt 0.049728 0.008856
vt 0.048484 0.012864
vt 0.048484 0.017174
vt 0.049728 0.021202
vt 0.052047 0.024406
vt 0.131328 0.287980
vt 0.127967 0.299795
vt 0.131314 0.299917
vt 0.119401 0.296474
vt 0.119402 0.284232
vt 0.114697 0.284116
vt 0.114264 0.296357
vt 0.083545 0.234368
vt 0.086539 0.222083
vt 0.083558 0.222391
vt 0.124578 0.117700
vt 0.124579 0.105794
vt 0.119564 0.105554
vt 0.116332 0.117702
vt 0.116347 0.105794
vt 0.091742 0.234329
vt 0.091743 0.222355
vt 0.123104 0.287988
vt 0.123103 0.299926
vt 0.109397 0.284229
vt 0.109396 0.296472
vt 0.116132 0.051216
vt 0.103822 0.060998
vt 0.116132 0.070845
vt 0.142818 0.066766
vt 0.135229 0.066801
vt 0.135229 0.077453
vt 0.142818 0.077419
vt 0.137136 0.030494
vt 0.144112 0.030489
vt 0.144112 0.019931
vt 0.137136 0.019937
vt 0.088180 0.021765
vt 0.088180 0.002935
vt 0.076370 0.012380
vt 0.143320 0.320287
vt 0.150634 0.320332
vt 0.150634 0.309279
vt 0.143320 0.309234
vt 0.001102 0.025180
vt 0.001336 0.029505
vt 0.014981 0.026903
vt 0.014796 0.023485
vt 0.000977 0.019766
vt 0.014697 0.019206
vt 0.000977 0.013993
vt 0.014697 0.014644
vt 0.001102 0.008641
vt 0.014796 0.010414
vt 0.001336 0.004432
vt 0.014981 0.007088
vt 0.061473 0.053223
vt 0.061888 0.058338
vt 0.075308 0.056477
vt 0.074980 0.052435
vt 0.061328 0.047634
vt 0.074865 0.048017
vt 0.061473 0.042325
vt 0.074980 0.043822
vt 0.061888 0.038014
vt 0.075308 0.040415
vt 0.018514 0.016752
vt 0.018614 0.021948
vt 0.031981 0.020118
vt 0.031902 0.016011
vt 0.018479 0.011087
vt 0.031874 0.011534
vt 0.018514 0.005718
vt 0.031902 0.007291
vt 0.018614 0.001370
vt 0.031981 0.003856
vt 0.059960 0.102283
vt 0.060302 0.106794
vt 0.073667 0.104490
vt 0.073397 0.100925
vt 0.059840 0.096881
vt 0.073303 0.096656
vt 0.009659 0.292841
vt 0.006520 0.287665
vt 0.002912 0.292650
vt 0.007340 0.296045
vt 0.059960 0.091320
vt 0.073397 0.092261
vt 0.060302 0.086348
vt 0.073667 0.088331
vt 0.053095 0.061272
vt 0.056663 0.054029
vt 0.057909 0.045678
vt 0.056663 0.037348
vt 0.053096 0.030164
vt 0.047687 0.025095
vt 0.041168 0.022827
vt 0.034419 0.023665
vt 0.028352 0.027497
vt 0.023785 0.033805
vt 0.021337 0.041736
vt 0.021337 0.050221
vt 0.023785 0.058113
vt 0.028351 0.064345
vt 0.034418 0.068077
vt 0.041167 0.068805
vt 0.047686 0.066429
vt 0.124315 0.134383
vt 0.127526 0.122596
vt 0.124329 0.122471
vt 0.024038 0.297845
vt 0.028895 0.295450
vt 0.026075 0.289772
vt 0.022226 0.294196
vt 0.016168 0.313822
vt 0.016648 0.320310
vt 0.021800 0.318432
vt 0.019479 0.312615
vt 0.006096 0.300074
vt 0.000977 0.298918
vt 0.000977 0.305623
vt 0.006096 0.304383
vt 0.019479 0.291622
vt 0.021800 0.285766
vt 0.016648 0.283974
vt 0.016168 0.290470
vt 0.022226 0.309996
vt 0.026075 0.314356
vt 0.028894 0.308632
vt 0.024038 0.306317
vt 0.007339 0.308391
vt 0.002911 0.311860
vt 0.006520 0.316785
vt 0.009658 0.311557
vt 0.024671 0.302076
vt 0.029879 0.302033
vt 0.012740 0.290895
vt 0.011315 0.284636
vt 0.012740 0.313452
vt 0.011315 0.319735
vt 0.040998 0.139419
vt 0.040998 0.143728
vt 0.042241 0.147757
vt 0.044560 0.150961
vt 0.047642 0.152907
vt 0.051070 0.153333
vt 0.054381 0.152180
vt 0.057128 0.149606
vt 0.058940 0.145957
vt 0.059572 0.141726
vt 0.058940 0.137485
vt 0.057127 0.133806
vt 0.054380 0.131187
vt 0.051069 0.129980
vt 0.047642 0.130350
vt 0.044560 0.132245
vt 0.042241 0.135411
vt 0.097695 0.296306
vt 0.100863 0.284101
vt 0.097709 0.284396
vt 0.129910 0.119000
vt 0.133080 0.107012
vt 0.129924 0.107081
vt 0.105938 0.296294
vt 0.105939 0.284384
vt 0.082137 0.037159
vt 0.082137 0.049408
vt 0.086955 0.049732
vt 0.087632 0.037481
vt 0.138146 0.118998
vt 0.138147 0.107079
vt 0.132555 0.134385
vt 0.132556 0.122472
vt 0.092141 0.049389
vt 0.092141 0.037140
vt 0.092534 0.025712
vt 0.104803 0.016057
vt 0.092534 0.006018
vt 0.137147 0.004248
vt 0.129925 0.004157
vt 0.129925 0.015352
vt 0.137147 0.015442
vt 0.158002 0.305940
vt 0.158002 0.296570
vt 0.150286 0.296428
vt 0.150286 0.305798
vt 0.075872 0.036157
vt 0.087714 0.026838
vt 0.075872 0.017148
vt 0.125955 0.030262
vt 0.133061 0.030245
vt 0.133061 0.018870
vt 0.125955 0.018886
vt 0.456649 0.459813
vt 0.456000 0.459813
vt 0.455761 0.465858
vt 0.456399 0.466730
vt 0.032844 0.364977
vt 0.028924 0.370597
vt 0.425068 0.364977
vt 0.419712 0.362920
vt 0.027489 0.378274
vt 0.428988 0.370597
vt 0.038200 0.959899
vt 0.419713 0.959899
vt 0.430423 0.378274
vt 0.027489 0.944544
vt 0.032844 0.957842
vt 0.038200 0.362920
vt 0.028924 0.952222
vt 0.425068 0.957842
vt 0.411921 0.956446
vt 0.417122 0.954448
vt 0.420930 0.948989
vt 0.422324 0.941532
vt 0.422324 0.391496
vt 0.420930 0.384039
vt 0.417122 0.378580
vt 0.411921 0.376582
vt 0.041345 0.376582
vt 0.036144 0.378580
vt 0.032336 0.384039
vt 0.030942 0.391496
vt 0.030942 0.941532
vt 0.032336 0.948989
vt 0.036144 0.954448
vt 0.041345 0.956446
vt 0.001883 0.395176
vt 0.001307 0.395177
vt 0.001050 0.401830
vt 0.001615 0.402803
vt 0.456410 0.967444
vt 0.455750 0.966573
vt 0.456000 0.973470
vt 0.456649 0.973470
vt 0.260808 0.138092
vt 0.260602 0.137309
vt 0.017509 0.137121
vt 0.017791 0.138191
vt 0.001038 0.965379
vt 0.001626 0.966366
vt 0.262664 0.131467
vt 0.262453 0.130684
vt 0.019938 0.130495
vt 0.020226 0.131567
vt 0.001307 0.973300
vt 0.001883 0.973298
vt 0.996707 0.000977
vt 0.884577 0.074910
vt 0.990452 0.107397
vt 0.277217 0.032939
vt 0.271876 0.026950
vt 0.222786 0.020806
vt 0.237061 0.027914
vt 0.016344 0.034374
vt 0.013794 0.034376
vt 0.013794 0.124640
vt 0.016344 0.124638
vt 0.007625 0.124381
vt 0.010325 0.124348
vt 0.009702 0.058163
vt 0.007002 0.058196
vt 0.007625 0.032090
vt 0.010325 0.032057
vt 0.304276 0.117992
vt 0.304956 0.130927
vt 0.380238 0.020806
vt 0.365856 0.027914
vt 0.000977 0.070678
vt 0.000977 0.163412
vt 0.003651 0.163449
vt 0.003651 0.070716
vt 0.996707 0.155608
vt 0.304276 0.117992
vt 0.021277 0.067807
vt 0.019796 0.069662
vt 0.020456 0.070004
vt 0.021550 0.068633
vt 0.023371 0.067807
vt 0.023098 0.068633
vt 0.024851 0.069662
vt 0.024192 0.070004
vt 0.024851 0.072285
vt 0.024192 0.071943
vt 0.023371 0.074140
vt 0.023098 0.073314
vt 0.021277 0.074140
vt 0.021550 0.073314
vt 0.020456 0.071943
vt 0.019796 0.072285
vt 0.010760 0.131584
vt 0.009005 0.131584
vt 0.007763 0.133460
vt 0.007763 0.136114
vt 0.009005 0.137991
vt 0.010760 0.137991
vt 0.012002 0.136114
vt 0.012002 0.133460
vt 0.012438 0.302669
vt 0.010958 0.304524
vt 0.011617 0.304866
vt 0.012712 0.303495
vt 0.014532 0.302669
vt 0.014259 0.303496
vt 0.016013 0.304524
vt 0.015353 0.304867
vt 0.016013 0.307148
vt 0.015353 0.306806
vt 0.014532 0.309003
vt 0.014259 0.308176
vt 0.012438 0.309003
vt 0.012711 0.308176
vt 0.011617 0.306805
vt 0.010958 0.307148
vt 0.002218 0.234792
vt 0.003973 0.234792
vt 0.005215 0.232916
vt 0.005215 0.230262
vt 0.003973 0.228385
vt 0.002218 0.228385
vt 0.000977 0.230262
vt 0.000977 0.232916
vt 0.021277 0.124585
vt 0.023371 0.124585
vt 0.023098 0.123759
vt 0.021550 0.123759
vt 0.019796 0.122731
vt 0.020456 0.122388
vt 0.019796 0.120107
vt 0.020456 0.120449
vt 0.021277 0.118252
vt 0.021550 0.119078
vt 0.023371 0.118252
vt 0.023098 0.119078
vt 0.024851 0.120107
vt 0.024192 0.120450
vt 0.024192 0.122388
vt 0.024851 0.122731
vt 0.002218 0.218525
vt 0.000977 0.220402
vt 0.000977 0.223056
vt 0.002218 0.224932
vt 0.003973 0.224932
vt 0.005215 0.223056
vt 0.005215 0.220402
vt 0.003973 0.218525
s 1
usemtl m1
f 1/1/1 2/2/2 3/3/3
s 0
f 7/4/4 4/5/4 5/6/4
f 5/6/4 6/7/4 7/4/4
s 1
f 8/8/5 9/9/6 2/2/2
f 10/10/7 11/11/8 12/12/9
s 0
f 4/5/10 7/4/10 13/13/10
f 15/14/4 14/15/4 4/5/4
f 4/5/4 13/13/4 15/14/4
s 1
f 21/16/11 18/17/12 19/18/13
f 19/18/13 20/19/14 21/16/11
f 22/20/15 23/21/16 24/22/17
f 25/23/18 21/16/11 26/24/19
s 0
f 28/25/4 27/26/4 14/15/4
f 14/15/10 15/14/10 28/25/10
s 1
f 32/27/20 29/28/20 30/29/21
f 30/29/21 31/30/21 32/27/20
f 33/31/22 12/12/9 34/32/23
f 12/12/9 33/31/22 10/10/7
s 0
f 36/33/4 35/34/4 27/26/4
f 27/26/4 28/25/4 36/33/4
s 1
f 37/35/24 38/36/25 39/37/26
f 42/38/27 44/39/28 45/40/29
f 45/40/29 43/41/30 42/38/27
f 46/42/31 48/43/32 49/44/33
f 49/44/33 47/45/34 46/42/31
f 50/46/35 52/47/36 53/48/37
f 53/48/37 51/49/38 50/46/35
f 54/50/39 40/51/40 41/52/41
f 41/52/41 55/53/42 54/50/39
f 57/54/43 70/55/44 71/56/45
f 71/56/45 56/57/46 57/54/43
f 59/58/47 60/59/48 58/60/49
f 61/61/50 58/60/49 60/59/48
f 65/62/51 62/63/52 63/64/53
f 63/64/53 64/65/54 65/62/51
f 69/66/55 66/67/56 67/68/57
f 67/68/57 68/69/58 69/66/55
s 0
f 5/6/59 72/70/59 6/7/59
f 73/71/4 74/72/4 75/73/4
f 72/70/4 5/6/4 76/74/4
s 1
f 21/16/11 25/23/18 18/17/12
f 23/21/16 22/20/15 77/75/60
s 0
f 74/72/4 73/71/4 78/76/4
f 78/76/4 79/77/4 74/72/4
f 72/70/4 76/74/4 73/71/4
f 73/71/4 75/73/4 72/70/4
f 78/76/4 80/78/4 79/77/4
s 1
f 84/79/61 81/80/61 82/81/62
f 82/81/62 83/82/62 84/79/61
s 0
f 80/78/4 78/76/4 85/83/4
f 85/83/4 86/84/4 80/78/4
s 1
f 11/11/8 10/10/7 87/85/63
f 9/9/6 8/8/5 88/86/64
s 0
f 86/84/4 85/83/4 35/34/4
f 35/34/4 36/33/4 86/84/4
s 1
f 2/2/2 1/1/1 8/8/5
f 26/24/19 90/87/65 25/23/18
f 89/88/66 91/89/67 93/90/68
f 93/90/68 17/91/69 89/88/66
f 94/92/70 89/88/66 17/91/69
f 89/88/66 95/93/71 96/94/72
f 89/88/66 94/92/70 95/93/71
f 17/91/69 92/95/73 94/92/70
f 17/91/69 93/90/68 16/96/74
f 89/88/66 97/97/75 91/89/67
f 101/98/76 99/99/77 100/100/78
f 105/101/79 102/102/80 103/103/81
f 103/103/81 104/104/82 105/101/79
f 106/105/83 39/37/26 107/106/84
f 110/107/85 108/108/86 99/99/77
f 99/99/77 109/109/87 110/107/85
f 111/110/88 107/106/84 104/104/82
f 113/111/89 112/112/90 102/102/80
f 102/102/80 105/101/79 113/111/89
f 38/36/25 37/35/24 108/108/86
f 108/108/86 110/107/85 38/36/25
f 101/98/76 100/100/78 112/112/90
f 112/112/90 113/111/89 101/98/76
f 104/104/82 103/103/81 111/110/88
f 39/37/26 106/105/83 37/35/24
f 99/99/77 101/98/76 109/109/87
f 107/106/84 111/110/88 106/105/83
f 115/113/91 116/114/92 117/115/93
f 114/116/94 98/117/95 118/118/96
f 117/115/93 114/116/94 115/113/91
f 114/116/94 118/118/96 119/119/97
f 114/116/94 117/115/93 120/120/98
f 119/119/97 115/113/91 114/116/94
f 114/116/94 120/120/98 121/121/99
f 115/113/91 119/119/97 122/122/100
s 0
f 126/123/101 123/124/101 124/125/101
f 124/125/101 125/126/101 126/123/101
f 130/127/101 127/128/101 128/129/101
f 128/129/101 129/130/101 130/127/101
f 134/131/101 131/132/101 132/133/101
f 132/133/101 133/134/101 134/131/101
f 138/135/101 135/136/101 136/137/101
f 136/137/101 137/138/101 138/135/101
f 140/139/101 130/127/101 129/130/101
f 129/130/101 139/140/101 140/139/101
f 135/136/101 141/141/101 142/142/101
f 142/142/101 136/137/101 135/136/101
f 146/143/101 143/144/101 144/145/101
f 144/145/101 145/146/101 146/143/101
f 150/147/101 147/148/101 148/149/101
f 148/149/101 149/150/101 150/147/101
f 131/132/101 146/143/101 145/146/101
f 145/146/101 132/133/101 131/132/101
f 152/151/101 126/123/101 125/126/101
f 125/126/101 151/152/101 152/151/101
f 123/124/101 153/153/101 154/154/101
f 154/154/101 124/125/101 123/124/101
f 127/128/101 138/135/101 137/138/101
f 137/138/101 128/129/101 127/128/101
f 141/141/101 134/131/101 133/134/101
f 133/134/101 142/142/101 141/141/101
f 147/148/101 140/139/101 139/140/101
f 139/140/101 148/149/101 147/148/101
f 143/144/101 152/151/101 151/152/101
f 151/152/101 144/145/101 143/144/101
f 153/153/101 150/147/101 149/150/101
f 149/150/101 154/154/101 153/153/101
s 1
f 158/155/102 155/156/103 156/157/104
f 156/157/104 157/158/105 158/155/102
f 161/159/106 159/160/107 160/161/108
f 165/162/109 162/163/110 163/164/111
f 163/164/111 164/165/112 165/162/109
f 169/166/113 166/167/114 167/168/115
f 167/168/115 168/169/116 169/166/113
f 173/170/117 170/171/115 171/172/118
f 171/172/118 172/173/119 173/170/117
f 161/159/106 160/161/108 174/174/120
f 174/174/120 165/162/109 161/159/106
f 176/175/121 175/176/122 166/167/114
f 166/167/114 169/166/113 176/175/121
f 157/158/105 156/157/104 177/177/123
f 177/177/123 178/178/124 157/158/105
f 164/165/112 163/164/111 179/179/125
f 181/180/126 180/181/127 175/176/122
f 175/176/122 176/175/121 181/180/126
f 185/182/128 182/183/129 183/184/130
f 183/184/130 184/185/131 185/182/128
f 164/165/112 179/179/125 186/186/132
f 188/187/133 187/188/134 180/181/127
f 180/181/127 181/180/126 188/187/133
f 164/165/112 186/186/132 189/189/135
f 193/190/136 190/191/137 191/192/138
f 191/192/138 192/193/139 193/190/136
f 165/162/109 194/194/140 162/163/110
f 200/195/141 197/196/142 198/197/143
f 198/197/143 199/198/144 200/195/141
f 204/199/145 201/200/146 202/201/147
f 202/201/147 203/202/148 204/199/145
f 208/203/149 205/204/150 206/205/151
f 206/205/151 207/206/152 208/203/149
f 212/207/153 209/208/154 210/209/155
f 210/209/155 211/210/156 212/207/153
f 216/211/157 213/212/158 214/213/159
f 214/213/159 215/214/160 216/211/157
f 220/215/161 217/216/162 218/217/163
f 218/217/163 219/218/164 220/215/161
f 215/214/160 214/213/159 221/219/165
f 221/219/165 222/220/166 215/214/160
f 224/221/167 223/222/166 201/200/146
f 201/200/146 204/199/145 224/221/167
f 196/223/168 195/224/169 225/225/170
f 225/225/170 226/226/171 196/223/168
f 230/227/172 227/228/173 228/229/174
f 228/229/174 229/230/175 230/227/172
f 222/220/166 221/219/165 231/231/176
f 231/231/176 232/232/177 222/220/166
f 234/233/178 233/234/179 227/228/173
f 227/228/173 230/227/172 234/233/178
f 236/235/180 235/236/181 233/234/179
f 233/234/179 234/233/178 236/235/180
f 207/206/152 206/205/151 237/237/182
f 237/237/182 238/238/181 207/206/152
f 240/239/183 239/240/184 223/222/166
f 223/222/166 224/221/167 240/239/183
f 242/241/185 241/242/175 205/204/150
f 205/204/150 208/203/149 242/241/185
f 164/165/112 189/189/135 243/243/186
f 243/243/186 244/244/187 164/165/112
f 161/159/106 245/245/188 159/160/107
f 247/246/189 246/247/190 155/156/103
f 155/156/103 158/155/102 247/246/189
f 244/244/187 248/248/191 249/249/192
f 249/249/192 161/159/106 244/244/187
f 161/159/106 249/249/192 245/245/188
f 251/250/193 250/251/194 246/247/190
f 246/247/190 247/246/189 251/250/193
f 244/244/187 243/243/186 252/252/195
f 254/253/196 253/254/197 187/188/134
f 187/188/134 188/187/133 254/253/196
f 244/244/187 252/252/195 255/255/198
f 257/256/199 256/257/200 253/254/197
f 253/254/197 254/253/196 257/256/199
f 244/244/187 255/255/198 248/248/191
f 259/258/201 258/259/130 256/257/200
f 256/257/200 257/256/199 259/258/201
f 165/162/109 174/174/120 260/260/202
f 178/178/124 177/177/123 261/261/203
f 261/261/203 262/262/204 178/178/124
f 165/162/109 260/260/202 194/194/140
f 262/262/204 261/261/203 190/191/137
f 190/191/137 193/190/136 262/262/204
f 161/159/106 165/162/109 164/165/112
f 161/159/106 164/165/112 244/244/187
s 0
f 266/263/205 263/166/205 264/169/205
f 264/169/205 265/264/205 266/263/205
s 1
f 267/265/206 268/266/207 269/267/208
s 0
f 273/268/4 270/269/4 271/270/4
f 271/270/4 272/271/4 273/268/4
s 1
f 274/272/209 275/273/210 268/266/207
f 276/274/211 277/275/212 278/276/213
s 0
f 270/269/4 273/268/4 279/277/4
f 281/278/4 280/279/4 270/269/4
f 270/269/4 279/277/4 281/278/4
s 1
f 287/280/214 284/281/215 285/282/216
f 285/282/216 286/283/217 287/280/214
f 288/284/218 289/285/219 290/286/220
f 291/287/221 287/280/214 292/288/222
s 0
f 294/289/4 293/290/4 280/279/4
f 280/279/4 281/278/4 294/289/4
s 1
f 298/291/20 295/292/20 296/293/21
f 296/293/21 297/294/21 298/291/20
f 299/295/223 278/276/213 300/296/224
f 278/276/213 299/295/223 276/274/211
s 0
f 302/297/4 301/298/4 293/290/4
f 293/290/4 294/289/4 302/297/4
s 1
f 303/299/225 304/300/226 305/301/227
f 308/302/27 310/303/28 311/304/29
f 311/304/29 309/305/30 308/302/27
f 312/306/31 314/307/32 315/308/33
f 315/308/33 313/309/34 312/306/31
f 316/310/35 318/311/36 319/312/37
f 319/312/37 317/313/38 316/310/35
f 320/314/228 306/315/40 307/316/229
f 307/316/229 321/317/42 320/314/228
f 323/318/43 336/319/44 337/320/45
f 337/320/45 322/321/46 323/318/43
f 325/322/47 326/323/48 324/324/49
f 327/325/50 324/324/49 326/323/48
f 331/326/51 328/327/52 329/328/53
f 329/328/53 330/329/54 331/326/51
f 335/330/55 332/331/56 333/332/57
f 333/332/57 334/333/58 335/330/55
s 0
f 271/270/10 338/334/10 272/271/10
f 339/335/4 340/336/4 341/337/4
f 338/334/4 271/270/4 342/338/4
s 1
f 287/280/214 291/287/221 284/281/215
f 289/285/219 288/284/218 343/339/230
s 0
f 340/336/4 339/335/4 344/340/4
f 344/340/10 345/341/10 340/336/10
f 338/334/59 342/338/59 339/335/59
f 339/335/231 341/337/231 338/334/231
f 344/340/4 346/342/4 345/341/4
s 1
f 350/343/232 347/344/232 348/345/233
f 348/345/233 349/346/234 350/343/232
s 0
f 346/342/4 344/340/4 351/347/4
f 351/347/4 352/348/4 346/342/4
s 1
f 277/275/212 276/274/211 353/349/235
f 275/273/210 274/272/209 354/350/236
s 0
f 352/348/231 351/347/231 301/298/231
f 301/298/4 302/297/4 352/348/4
s 1
f 268/266/207 267/265/206 274/272/209
f 292/288/222 356/351/237 291/287/221
f 355/352/238 357/353/239 359/354/240
f 359/354/240 283/355/241 355/352/238
f 360/356/70 355/352/238 283/355/241
f 355/352/238 361/357/242 362/358/243
f 355/352/238 360/356/70 361/357/242
f 283/355/241 358/359/244 360/356/70
f 283/355/241 359/354/240 282/360/245
f 355/352/238 363/361/246 357/353/239
f 364/362/247 365/363/248 382/364/249
f 369/365/250 366/366/251 367/367/252
f 367/367/252 368/368/253 369/365/250
f 373/369/254 370/370/255 371/371/81
f 371/371/81 372/372/82 373/369/254
f 374/373/83 305/301/227 375/374/256
f 377/375/257 376/376/258 366/366/251
f 378/377/259 375/374/256 372/372/82
f 380/378/260 379/379/261 370/370/255
f 370/370/255 373/369/254 380/378/260
f 304/300/226 303/299/225 376/376/258
f 368/368/253 367/367/252 379/379/261
f 372/372/82 371/371/81 378/377/259
f 305/301/227 374/373/83 303/299/225
f 366/366/251 369/365/250 377/375/257
f 375/374/256 378/377/259 374/373/83
f 376/376/258 377/375/257 304/300/226
f 379/379/261 380/378/260 368/368/253
f 381/380/262 382/364/249 365/363/248
f 365/363/248 364/362/247 384/381/263
f 385/382/264 382/364/249 381/380/262
f 365/363/248 386/383/265 383/384/266
f 383/384/266 381/380/262 365/363/248
f 390/385/267 387/386/268 388/387/268
f 388/387/268 389/388/267 390/385/267
f 392/389/269 390/385/267 389/388/267
f 389/388/267 391/390/270 392/389/269
f 396/391/271 393/392/272 394/393/272
f 394/393/272 395/394/273 396/391/271
f 398/395/274 396/391/271 395/394/273
f 395/394/273 397/396/274 398/395/274
f 400/397/275 398/395/274 397/396/274
f 397/396/274 399/398/276 400/397/275
f 402/399/277 400/397/275 399/398/276
f 399/398/276 401/400/278 402/399/277
f 406/401/279 403/402/280 404/403/280
f 404/403/280 405/404/279 406/401/279
f 408/405/281 406/401/279 405/404/279
f 405/404/279 407/406/282 408/405/281
f 410/407/283 408/405/281 407/406/282
f 407/406/282 409/408/284 410/407/283
f 412/409/285 410/407/283 409/408/284
f 409/408/284 411/410/285 412/409/285
f 414/411/286 412/409/285 411/410/285
f 411/410/285 413/412/286 414/411/286
f 418/413/287 415/414/288 416/415/289
f 416/415/289 417/416/287 418/413/287
f 420/417/290 418/413/287 417/416/287
f 417/416/287 419/418/290 420/417/290
f 422/419/291 420/417/290 419/418/290
f 419/418/290 421/420/292 422/419/291
f 424/421/293 422/419/291 421/420/292
f 421/420/292 423/422/293 424/421/293
s 0
f 428/423/205 425/424/205 426/425/205
f 426/425/205 427/426/205 428/423/205
s 1
f 432/427/294 429/428/295 430/429/296
f 430/429/296 431/430/297 432/427/294
f 387/386/268 432/427/294 431/430/297
f 431/430/297 388/387/268 387/386/268
s 0
f 449/431/101 433/432/101 434/433/101
f 449/431/101 434/433/101 435/434/101
f 449/431/101 435/434/101 436/435/101
f 449/431/101 436/435/101 437/436/101
f 449/431/101 437/436/101 438/437/101
f 449/431/101 438/437/101 439/438/101
f 449/431/101 439/438/101 440/439/101
f 449/431/101 440/439/101 441/440/101
f 449/431/101 441/440/101 442/441/101
f 449/431/101 442/441/101 443/442/101
f 449/431/101 443/442/101 444/443/101
f 449/431/101 444/443/101 445/444/101
f 449/431/101 445/444/101 446/445/101
f 449/431/101 446/445/101 447/446/101
f 447/446/101 448/447/101 449/431/101
f 455/448/205 452/449/205 453/450/205
f 453/450/205 454/451/205 455/448/205
f 459/452/205 456/453/205 457/454/205
f 457/454/205 458/455/205 459/452/205
f 463/456/205 460/457/205 461/458/205
f 461/458/205 462/459/205 463/456/205
f 467/460/205 464/461/205 465/462/205
f 465/462/205 466/463/205 467/460/205
f 471/464/205 468/465/205 469/466/205
f 469/466/205 470/467/205 471/464/205
f 475/468/205 472/469/205 473/470/205
f 473/470/205 474/471/205 475/468/205
f 477/472/205 476/473/205 452/449/205
f 452/449/205 455/448/205 477/472/205
f 479/474/205 478/475/205 425/424/205
f 425/424/205 428/423/205 479/474/205
f 481/476/205 480/477/205 456/453/205
f 456/453/205 459/452/205 481/476/205
f 427/426/205 426/425/205 460/457/205
f 460/457/205 463/456/205 427/426/205
f 454/451/205 453/450/205 464/461/205
f 464/461/205 467/460/205 454/451/205
f 458/455/205 457/454/205 468/465/205
f 468/465/205 471/464/205 458/455/205
f 462/459/205 461/458/205 472/469/205
f 472/469/205 475/468/205 462/459/205
f 466/463/205 465/462/205 478/475/205
f 478/475/205 479/474/205 466/463/205
f 470/467/205 469/466/205 476/473/205
f 476/473/205 477/472/205 470/467/205
f 474/471/205 473/470/205 480/477/205
f 480/477/205 481/476/205 474/471/205
f 498/478/205 482/479/205 483/480/205
f 498/478/205 483/480/205 484/481/205
f 498/478/205 484/481/205 485/482/205
f 498/478/205 485/482/205 486/483/205
f 498/478/205 486/483/205 487/484/205
f 498/478/205 487/484/205 488/485/205
f 498/478/205 488/485/205 489/486/205
f 498/478/205 489/486/205 490/487/205
f 498/478/205 490/487/205 491/488/205
f 498/478/205 491/488/205 492/489/205
f 498/478/205 492/489/205 493/490/205
f 498/478/205 493/490/205 494/491/205
f 498/478/205 494/491/205 495/492/205
f 498/478/205 495/492/205 496/493/205
f 496/493/205 497/494/205 498/478/205
s 1
f 499/495/298 500/496/299 501/497/300
f 503/498/301 502/499/302 450/500/303
f 450/500/303 451/501/304 503/498/301
f 506/502/305 504/503/306 505/504/307
f 509/505/308 507/506/309 508/507/310
f 508/507/310 511/508/311 509/505/308
f 511/508/311 508/507/310 510/509/312
f 513/510/313 512/511/314 504/503/306
f 504/503/306 506/502/305 513/510/313
f 500/496/299 499/495/298 514/512/315
f 514/512/315 515/513/316 500/496/299
f 451/501/304 450/500/303 516/514/317
f 516/514/317 517/515/318 451/501/304
s 0
f 518/516/101 519/517/101 520/518/101
s 1
f 524/519/319 521/520/319 522/521/319
s 0
f 522/521/320 523/522/320 524/519/320
f 528/523/321 525/524/321 526/525/321
f 526/525/321 527/526/321 528/523/321
f 529/527/205 530/528/205 531/529/205
f 541/530/322 538/531/322 539/532/322
f 539/532/323 540/533/323 541/530/323
s 1
f 545/534/324 542/535/325 543/536/326
f 543/536/326 544/537/324 545/534/324
f 547/538/327 545/534/324 544/537/324
f 544/537/324 546/539/327 547/538/327
f 549/540/328 547/538/327 546/539/327
f 546/539/327 548/541/329 549/540/328
f 551/542/330 549/540/328 548/541/329
f 548/541/329 550/543/330 551/542/330
f 553/544/331 551/542/330 550/543/330
f 550/543/330 552/545/331 553/544/331
f 557/546/332 554/547/333 555/548/333
f 555/548/333 556/549/334 557/546/332
f 559/550/335 557/546/332 556/549/334
f 556/549/334 558/551/336 559/550/335
f 561/552/337 559/550/335 558/551/336
f 558/551/336 560/553/337 561/552/337
f 563/554/338 561/552/337 560/553/337
f 560/553/337 562/555/338 563/554/338
f 567/556/339 564/557/338 565/558/338
f 565/558/338 566/559/340 567/556/339
f 569/560/341 567/556/339 566/559/340
f 566/559/340 568/561/341 569/560/341
f 571/562/342 569/560/341 568/561/341
f 568/561/341 570/563/342 571/562/342
f 573/564/343 571/562/342 570/563/342
f 570/563/342 572/565/343 573/564/343
f 577/566/344 574/567/345 575/568/345
f 575/568/345 576/569/344 577/566/344
f 579/570/346 577/566/344 576/569/344
f 576/569/344 578/571/346 579/570/346
s 0
f 583/572/205 580/573/205 581/574/205
f 581/574/205 582/575/205 583/572/205
s 1
f 585/576/347 579/570/346 578/571/346
f 578/571/346 584/577/347 585/576/347
f 587/578/348 585/576/347 584/577/347
f 584/577/347 586/579/348 587/578/348
s 0
f 604/580/101 588/581/101 589/582/101
f 604/580/101 589/582/101 590/583/101
f 604/580/101 590/583/101 591/584/101
f 604/580/101 591/584/101 592/585/101
f 604/580/101 592/585/101 593/586/101
f 604/580/101 593/586/101 594/587/101
f 604/580/101 594/587/101 595/588/101
f 604/580/101 595/588/101 596/589/101
f 604/580/101 596/589/101 597/590/101
f 604/580/101 597/590/101 598/591/101
f 604/580/101 598/591/101 599/592/101
f 604/580/101 599/592/101 600/593/101
f 604/580/101 600/593/101 601/594/101
f 604/580/101 601/594/101 602/595/101
f 602/595/101 603/596/101 604/580/101
s 1
f 605/597/349 606/598/350 607/599/351
s 0
f 611/600/205 608/601/205 609/602/205
f 609/602/205 610/603/205 611/600/205
f 615/604/205 612/605/205 613/606/205
f 613/606/205 614/607/205 615/604/205
f 619/608/205 616/609/205 617/610/205
f 617/610/205 618/611/205 619/608/205
f 623/612/205 620/613/205 621/614/205
f 621/614/205 622/615/205 623/612/205
f 627/616/205 624/617/205 625/618/205
f 625/618/205 626/619/205 627/616/205
f 631/620/205 628/621/205 629/622/205
f 629/622/205 630/623/205 631/620/205
f 633/624/205 632/625/205 608/601/205
f 608/601/205 611/600/205 633/624/205
f 635/626/205 634/627/205 580/573/205
f 580/573/205 583/572/205 635/626/205
f 637/628/205 636/629/205 612/605/205
f 612/605/205 615/604/205 637/628/205
f 582/575/205 581/574/205 616/609/205
f 616/609/205 619/608/205 582/575/205
f 610/603/205 609/602/205 620/613/205
f 620/613/205 623/612/205 610/603/205
f 614/607/205 613/606/205 624/617/205
f 624/617/205 627/616/205 614/607/205
f 618/611/205 617/610/205 628/621/205
f 628/621/205 631/620/205 618/611/205
f 622/615/205 621/614/205 634/627/205
f 634/627/205 635/626/205 622/615/205
f 626/619/205 625/618/205 632/625/205
f 632/625/205 633/624/205 626/619/205
f 630/623/205 629/622/205 636/629/205
f 636/629/205 637/628/205 630/623/205
f 654/630/205 638/631/205 639/632/205
f 654/630/205 639/632/205 640/633/205
f 654/630/205 640/633/205 641/634/205
f 654/630/205 641/634/205 642/635/205
f 654/630/205 642/635/205 643/636/205
f 654/630/205 643/636/205 644/637/205
f 654/630/205 644/637/205 645/638/205
f 654/630/205 645/638/205 646/639/205
f 654/630/205 646/639/205 647/640/205
f 654/630/205 647/640/205 648/641/205
f 654/630/205 648/641/205 649/642/205
f 654/630/205 649/642/205 650/643/205
f 654/630/205 650/643/205 651/644/205
f 654/630/205 651/644/205 652/645/205
f 652/645/352 653/646/352 654/630/352
s 1
f 659/647/353 657/648/354 658/649/355
f 662/650/356 660/651/357 661/652/358
f 664/653/359 663/654/360 657/648/354
f 657/648/354 659/647/353 664/653/359
f 666/655/361 665/656/362 655/657/363
f 655/657/363 656/658/364 666/655/361
f 670/659/365 669/660/366 660/651/357
f 660/651/357 662/650/356 670/659/365
f 606/598/350 605/597/349 667/661/367
f 667/661/367 668/662/368 606/598/350
f 656/658/364 655/657/363 671/663/369
f 671/663/369 672/664/370 656/658/364
s 0
f 673/665/101 674/666/101 675/667/101
f 679/668/371 676/669/371 677/670/371
f 677/670/371 678/671/371 679/668/371
f 683/672/372 680/673/372 681/674/372
f 681/674/373 682/675/373 683/672/373
f 684/676/205 685/677/205 686/678/205
f 696/679/374 693/680/374 694/681/374
f 694/681/374 695/682/374 696/679/374
s 1
f 700/683/375 697/684/175 698/685/376
f 698/685/376 699/686/377 700/683/375
s 0
f 704/687/205 701/262/205 702/190/205
f 702/190/205 703/688/205 704/687/205
f 708/689/205 705/155/205 706/158/205
f 706/158/205 707/690/205 708/689/205
f 703/688/205 702/190/205 709/193/205
f 709/193/205 710/691/205 703/688/205
f 712/692/205 711/246/205 705/155/205
f 705/155/205 708/689/205 712/692/205
f 716/693/205 713/187/205 714/180/205
f 714/180/205 715/694/205 716/693/205
f 718/695/205 717/250/205 711/246/205
f 711/246/205 712/692/205 718/695/205
f 710/691/205 709/193/205 719/258/205
f 719/258/205 720/696/205 710/691/205
f 722/697/205 721/253/205 713/187/205
f 713/187/205 716/693/205 722/697/205
f 707/690/205 706/158/205 723/178/205
f 723/178/205 724/698/205 707/690/205
f 726/699/205 725/256/205 721/253/205
f 721/253/205 722/697/205 726/699/205
f 715/694/205 714/180/205 727/175/205
f 727/175/205 728/700/205 715/694/205
f 265/264/205 264/169/205 717/250/205
f 717/250/205 718/695/205 265/264/205
f 720/696/205 719/258/205 725/256/205
f 725/256/205 726/699/205 720/696/205
f 728/700/205 727/175/205 263/166/205
f 263/166/205 266/263/205 728/700/205
f 724/698/205 723/178/205 701/262/205
f 701/262/205 704/687/205 724/698/205
f 744/701/205 729/702/205 730/703/205
f 744/701/205 730/703/205 731/704/205
f 744/701/205 731/704/205 732/705/205
f 744/701/205 732/705/205 733/706/205
f 744/701/205 733/706/205 734/707/205
f 744/701/205 734/707/205 735/708/205
f 744/701/205 735/708/205 736/709/205
f 744/701/205 736/709/205 737/710/205
f 744/701/205 737/710/205 738/711/205
f 744/701/205 738/711/205 739/712/205
f 744/701/205 739/712/205 740/713/205
f 744/701/205 740/713/205 741/714/205
f 744/701/205 741/714/205 742/715/205
f 742/715/205 743/716/205 744/701/205
s 1
f 750/717/378 747/718/379 748/719/380
f 748/719/380 749/720/381 750/717/378
f 756/721/382 753/722/383 754/723/384
f 754/723/384 755/724/385 756/721/382
f 760/725/386 757/726/387 758/727/388
f 758/727/388 759/728/389 760/725/386
f 749/720/381 748/719/380 761/729/390
f 761/729/390 762/730/391 749/720/381
f 752/731/392 751/732/393 745/733/394
f 745/733/394 746/734/395 752/731/392
f 762/730/391 761/729/390 763/735/396
f 763/735/396 764/736/397 762/730/391
f 699/686/377 698/685/376 753/722/383
f 753/722/383 756/721/382 699/686/377
s 0
f 765/737/101 766/738/101 767/739/101
f 771/740/205 768/741/205 769/742/205
f 769/742/205 770/743/205 771/740/205
f 777/744/4 774/745/4 775/746/4
f 775/746/4 776/747/4 777/744/4
f 781/748/398 778/749/398 779/750/398
f 779/750/398 780/751/398 781/748/398
f 785/752/399 782/751/399 783/750/399
f 783/750/400 784/753/400 785/752/400
f 789/754/205 786/755/205 787/756/205
f 787/756/205 788/757/205 789/754/205
f 791/758/401 773/759/401 772/760/401
f 772/760/402 790/761/402 791/758/402
f 792/762/101 767/739/101 766/738/101
f 793/757/205 794/740/205 795/763/205
f 794/740/205 796/743/205 795/763/205
f 798/757/205 797/756/205 768/741/205
f 768/741/205 771/740/205 798/757/205
f 770/743/205 769/742/205 786/755/205
f 786/755/205 789/754/205 770/743/205
s 1
f 802/764/403 799/765/404 800/766/404
f 800/766/404 801/767/405 802/764/403
s 0
f 806/768/406 803/764/406 804/767/406
s 1
f 804/767/407 805/769/407 806/768/407
s 0
f 810/770/408 807/768/408 808/769/408
f 808/769/409 809/771/409 810/770/409
s 1
f 814/772/410 811/770/411 812/771/412
f 812/771/412 813/773/413 814/772/410
s 0
f 818/774/414 815/772/414 816/773/414
s 1
f 816/773/415 817/775/415 818/774/415
f 822/776/416 819/774/416 820/775/416
s 0
f 820/775/417 821/777/417 822/776/417
f 830/769/418 823/767/418 824/766/418
f 830/769/205 824/766/205 825/778/205
f 830/769/205 825/778/205 826/777/205
f 830/769/205 826/777/205 827/775/205
f 830/769/205 827/775/205 828/773/205
f 828/773/205 829/771/205 830/769/205
f 834/779/419 831/776/419 832/777/419
s 1
f 832/777/420 833/778/420 834/779/420
s 0
f 838/765/421 835/779/421 836/778/421
s 1
f 836/778/422 837/766/422 838/765/422
s 0
f 846/780/101 839/781/101 840/782/101
f 846/780/101 840/782/101 841/783/101
f 846/780/101 841/783/101 842/784/101
f 846/780/101 842/784/101 843/785/101
f 846/780/101 843/785/101 844/786/101
f 844/786/101 845/787/101 846/780/101
f 850/788/423 847/789/423 848/790/423
f 848/790/424 849/791/424 850/788/424
s 1
f 854/792/425 851/788/425 852/791/425
s 0
f 852/791/426 853/793/426 854/792/426
f 858/794/427 855/792/428 856/793/428
s 1
f 856/793/429 857/795/429 858/794/429
s 0
f 862/796/430 859/794/430 860/795/430
f 860/795/431 861/797/431 862/796/431
s 1
f 866/798/432 863/796/432 864/797/432
s 0
f 864/797/433 865/799/433 866/798/433
f 870/800/434 867/798/434 868/799/434
s 1
f 868/799/435 869/801/435 870/800/435
s 0
f 878/793/205 871/791/205 872/790/205
f 878/793/205 872/790/205 873/802/205
f 878/793/205 873/802/205 874/801/205
f 878/793/205 874/801/205 875/799/205
f 878/793/205 875/799/205 876/797/205
f 876/797/205 877/795/205 878/793/205
s 1
f 882/803/436 879/800/436 880/801/436
s 0
f 880/801/436 881/802/436 882/803/436
f 886/789/437 883/803/437 884/802/437
f 884/802/438 885/790/438 886/789/438
f 894/804/439 887/805/439 888/806/439
f 894/804/101 888/806/101 889/807/101
f 894/804/101 889/807/101 890/808/101
f 894/804/101 890/808/101 891/809/101
f 894/804/101 891/809/101 892/810/101
f 892/810/101 893/811/101 894/804/101
f 898/812/440 895/813/440 896/814/440
f 896/814/441 897/815/441 898/812/441
s 1
f 902/816/442 899/812/442 900/815/442
s 0
f 900/815/426 901/817/426 902/816/426
f 906/818/443 903/816/443 904/817/443
s 1
f 904/817/429 905/819/429 906/818/429
f 910/820/411 907/818/411 908/819/411
s 0
f 908/819/444 909/821/444 910/820/444
s 1
f 914/822/445 911/820/432 912/821/446
f 912/821/446 913/823/447 914/822/445
f 918/824/448 915/822/449 916/823/450
f 916/823/450 917/825/435 918/824/448
s 0
f 926/817/205 919/815/205 920/814/205
f 926/817/205 920/814/205 921/826/205
f 926/817/205 921/826/205 922/825/205
f 926/817/205 922/825/205 923/823/205
f 926/817/205 923/823/205 924/821/205
f 924/821/205 925/819/205 926/817/205
s 1
f 930/827/436 927/824/436 928/825/436
s 0
f 928/825/436 929/826/436 930/827/436
f 934/813/451 931/827/451 932/826/451
f 932/826/451 933/814/451 934/813/451
f 942/828/101 935/829/101 936/830/101
f 942/828/101 936/830/101 937/831/101
f 942/828/101 937/831/101 938/832/101
f 942/828/101 938/832/101 939/833/101
f 942/828/101 939/833/101 940/834/101
f 940/834/101 941/835/101 942/828/101
l 687 688
l 691 692
l 532 533
l 536 537
l 689 690
l 534 535
