# Blender 5.2.2 LTS
# www.blender.org
mtllib CeilingSpeakerLow.mtl
o Cylinder.001_Material.016_0
v -0.000000 -0.044936 -0.063346
v -0.006195 -0.044773 -0.063032
v 0.006208 -0.044851 -0.063032
v -0.012358 -0.044936 -0.062129
v -0.018385 -0.044790 -0.060607
v -0.024242 -0.044936 -0.058524
v -0.029870 -0.044862 -0.055851
v -0.035193 -0.044936 -0.052670
v -0.044792 -0.044936 -0.044792
v -0.048962 -0.044936 -0.040182
v -0.052670 -0.044936 -0.035193
v -0.058524 -0.044936 -0.024242
v -0.060610 -0.044857 -0.018385
v -0.062129 -0.044936 -0.012358
v -0.063346 -0.044936 0.000000
v -0.063032 -0.044830 0.006210
v -0.062129 -0.044936 0.012358
v -0.060608 -0.044851 0.018390
v -0.058524 -0.044936 0.024242
v -0.055860 -0.044812 0.029854
v -0.052670 -0.044936 0.035193
v -0.048960 -0.044842 0.040180
v -0.044792 -0.044936 0.044792
v -0.040178 -0.044854 0.048962
v -0.035193 -0.044936 0.052670
v -0.029855 -0.044817 0.055859
v -0.024242 -0.044936 0.058524
v -0.012358 -0.044936 0.062129
v -0.006209 -0.044771 0.063031
v -0.000000 -0.044936 0.063346
v 0.006208 -0.044825 0.063032
v 0.012358 -0.044936 0.062129
v 0.024242 -0.044936 0.058524
v 0.035193 -0.044936 0.052670
v 0.040182 -0.044936 0.048962
v 0.044792 -0.044936 0.044792
v 0.048961 -0.044811 0.040177
v 0.052670 -0.044936 0.035193
v 0.058524 -0.044936 0.024242
v 0.062129 -0.044936 0.012358
v 0.063032 -0.044838 0.006208
v 0.063346 -0.044936 0.000000
v 0.062129 -0.044936 -0.012358
v 0.060612 -0.044936 -0.018386
v 0.058524 -0.044936 -0.024241
v 0.055858 -0.044843 -0.029857
v 0.052670 -0.044936 -0.035193
v 0.048961 -0.044841 -0.040179
v 0.044792 -0.044936 -0.044792
v 0.040172 -0.044870 -0.048968
v 0.035193 -0.044936 -0.052670
v 0.029858 -0.044824 -0.055858
v 0.024242 -0.044936 -0.058524
v 0.018386 -0.044936 -0.060612
v 0.012358 -0.044936 -0.062129
v -0.019507 -0.000000 -0.098069
v -0.009801 -0.000000 -0.099508
v 0.000000 -0.000000 -0.099990
v 0.038264 -0.000000 -0.092379
v 0.047135 -0.000000 -0.088183
v 0.055551 -0.000000 -0.083139
v 0.063433 -0.000000 -0.077293
v 0.070704 -0.000000 -0.070704
v 0.077293 -0.000000 -0.063433
v 0.083139 -0.000000 -0.055551
v 0.092379 -0.000000 -0.038264
v 0.098069 -0.000000 -0.019507
v 0.099990 -0.000000 0.000000
v 0.098069 -0.000000 0.019507
v 0.095684 -0.000000 0.029025
v 0.092379 -0.000000 0.038264
v 0.088183 -0.000000 0.047135
v 0.083139 -0.000000 0.055551
v 0.077293 -0.000000 0.063433
v 0.070704 -0.000000 0.070704
v 0.063433 -0.000000 0.077293
v 0.055551 -0.000000 0.083139
v 0.038264 -0.000000 0.092379
v 0.029025 -0.000000 0.095684
v 0.019507 -0.000000 0.098069
v 0.009801 0.000000 0.099508
v -0.000000 0.000000 0.099990
v -0.009801 0.000000 0.099508
v -0.019507 -0.000000 0.098069
v -0.029025 -0.000000 0.095684
v -0.038264 -0.000000 0.092379
v -0.047135 -0.000000 0.088183
v -0.055551 -0.000000 0.083139
v -0.070704 -0.000000 0.070704
v -0.077293 -0.000000 0.063433
v -0.083139 -0.000000 0.055551
v -0.088183 -0.000000 0.047135
v -0.092379 -0.000000 0.038264
v -0.095684 -0.000000 0.029025
v -0.098069 -0.000000 0.019507
v -0.099990 -0.000000 -0.000000
v -0.099508 -0.000000 -0.009801
v -0.098069 -0.000000 -0.019507
v -0.095684 -0.000000 -0.029025
v -0.092379 -0.000000 -0.038265
v -0.083139 -0.000000 -0.055551
v -0.077293 -0.000000 -0.063433
v -0.070704 -0.000000 -0.070704
v -0.055551 -0.000000 -0.083139
v -0.038264 -0.000000 -0.092379
v -0.029025 -0.000000 -0.095684
v 0.019509 -0.000000 -0.098079
v 0.029025 -0.000000 -0.095684
v 0.000000 -0.000000 -0.100000
v -0.019509 -0.000000 -0.098079
v -0.038268 -0.000000 -0.092388
v -0.047135 -0.000000 -0.088183
v -0.055557 -0.000000 -0.083147
v -0.063433 -0.000000 -0.077293
v -0.070711 -0.000000 -0.070711
v -0.083147 -0.000000 -0.055557
v -0.088183 -0.000000 -0.047135
v -0.092388 -0.000000 -0.038268
v -0.098079 -0.000000 -0.019509
v -0.100000 -0.000000 -0.000000
v -0.099508 -0.000000 0.009801
v -0.098079 -0.000000 0.019509
v -0.092388 -0.000000 0.038268
v -0.083147 -0.000000 0.055557
v -0.070711 -0.000000 0.070711
v -0.063433 -0.000000 0.077293
v -0.055557 -0.000000 0.083147
v -0.038268 -0.000000 0.092388
v -0.019509 -0.000000 0.098079
v -0.000000 0.000000 0.100000
v 0.019509 -0.000000 0.098079
v 0.038268 -0.000000 0.092388
v 0.047135 -0.000000 0.088183
v 0.055557 -0.000000 0.083147
v 0.070711 -0.000000 0.070711
v 0.083147 -0.000000 0.055557
v 0.092388 -0.000000 0.038268
v 0.098079 -0.000000 0.019509
v 0.099508 -0.000000 0.009801
v 0.100000 -0.000000 0.000000
v 0.099508 -0.000000 -0.009801
v 0.098079 -0.000000 -0.019509
v 0.095684 -0.000000 -0.029025
v 0.092388 -0.000000 -0.038268
v 0.088183 -0.000000 -0.047135
v 0.083147 -0.000000 -0.055557
v 0.070711 -0.000000 -0.070711
v 0.055557 -0.000000 -0.083147
v 0.038268 -0.000000 -0.092388
v 0.019507 -0.000000 -0.098069
v 0.009801 -0.000000 -0.099508
v 0.008000 -0.038044 -0.099374
v -0.005088 -0.037891 -0.099675
v 0.024369 -0.037421 -0.097004
v 0.000995 -0.040970 -0.095212
v 0.023864 -0.042365 -0.087604
v 0.042813 -0.037891 -0.090157
v 0.024710 -0.039194 -0.095375
v 0.036868 -0.040654 -0.088545
v 0.006710 -0.044786 -0.074692
v 0.019894 -0.044730 -0.060062
v 0.051732 -0.038224 -0.085123
v 0.054719 -0.041185 -0.077284
v 0.055059 -0.044721 -0.048794
v 0.034908 -0.044810 -0.052770
v 0.063164 -0.038025 -0.077121
v 0.073759 -0.038010 -0.067233
v 0.062296 -0.043392 -0.059943
v 0.085427 -0.037973 -0.051633
v 0.074600 -0.040708 -0.060391
v 0.093838 -0.037966 -0.034030
v 0.085867 -0.041048 -0.040606
v 0.058277 -0.044743 -0.024633
v 0.097984 -0.037844 -0.018820
v 0.092407 -0.040949 -0.022711
v 0.080400 -0.043606 -0.024188
v 0.099825 -0.037740 -0.003702
v 0.097283 -0.039807 -0.006453
v 0.090210 -0.042552 0.002888
v 0.099097 -0.038028 0.010785
v 0.093357 -0.040931 0.019578
v 0.072581 -0.044794 -0.000282
v 0.096538 -0.038105 0.025040
v 0.090810 -0.037740 0.041621
v 0.083296 -0.042224 0.036962
v 0.058343 -0.044810 0.024481
v 0.060612 -0.044936 0.018386
v 0.082921 -0.037889 0.055482
v 0.083509 -0.040534 0.048525
v 0.061825 -0.044545 0.046109
v 0.059837 -0.044886 0.032893
v 0.073999 -0.038057 0.066914
v 0.067820 -0.042743 0.057488
v 0.061708 -0.038159 0.078287
v 0.052168 -0.037494 0.085261
v 0.059566 -0.040661 0.075237
v 0.033863 -0.037437 0.094100
v 0.043625 -0.038890 0.088706
v 0.035605 -0.040918 0.088411
v 0.038987 -0.043250 0.077630
v 0.014647 -0.037697 0.098806
v 0.024583 -0.039089 0.095582
v 0.013932 -0.044816 0.070569
v 0.018385 -0.044846 0.060610
v -0.005064 -0.037829 0.099764
v 0.006452 -0.039808 0.097282
v 0.008250 -0.042540 0.090000
v -0.025053 -0.038108 0.096534
v -0.015602 -0.041487 0.092779
v -0.025709 -0.044322 0.074072
v -0.041599 -0.037735 0.090821
v -0.018385 -0.044861 0.060610
v -0.055456 -0.037866 0.082948
v -0.039656 -0.040319 0.088334
v -0.046412 -0.042384 0.077897
v -0.045835 -0.044913 0.053326
v -0.067032 -0.037753 0.074029
v -0.063472 -0.039544 0.074826
v -0.070967 -0.041077 0.063171
v -0.044869 -0.044743 0.044608
v -0.079668 -0.038182 0.060011
v -0.067153 -0.043241 0.054664
v -0.087818 -0.037912 0.047268
v -0.093880 -0.037969 0.033924
v -0.085947 -0.041060 0.040325
v -0.075336 -0.044557 0.020320
v -0.098693 -0.038039 0.014782
v -0.092174 -0.041176 0.021692
v -0.099770 -0.037803 -0.000004
v -0.095847 -0.040681 0.000328
v -0.086479 -0.043226 0.004670
v -0.098558 -0.038169 -0.015324
v -0.093684 -0.038262 -0.033948
v -0.088390 -0.042309 -0.024169
v -0.060436 -0.044776 -0.040648
v -0.058440 -0.044740 -0.024268
v -0.085502 -0.037917 -0.051607
v -0.080007 -0.040992 -0.051472
v -0.066516 -0.042849 -0.059652
v -0.055858 -0.044815 -0.029856
v -0.073607 -0.038408 -0.067152
v -0.048201 -0.044720 -0.040994
v -0.061886 -0.038172 -0.078129
v -0.052168 -0.037494 -0.085261
v -0.053904 -0.040750 -0.079059
v -0.039564 -0.043516 -0.075891
v -0.042047 -0.038243 -0.090300
v -0.028543 -0.040608 -0.091804
v -0.029112 -0.037978 -0.095389
v -0.015737 -0.038195 -0.098358
v -0.009394 -0.042932 -0.087610
v 0.063031 -0.044772 -0.006210
v 0.055857 -0.044812 0.029859
v -0.063030 -0.044773 -0.006217
v -0.015457 -0.045548 -0.059644
v 0.032497 -0.045861 -0.051175
v 0.015176 -0.045024 -0.061238
v -0.003066 -0.044890 -0.063169
v 0.042864 -0.044918 -0.046404
v 0.052879 -0.046055 -0.024186
v 0.053358 -0.045040 -0.033468
v 0.061274 -0.044920 -0.015539
v 0.063133 -0.044920 0.004179
v 0.059221 -0.045996 0.007946
v 0.061151 -0.044818 0.015975
v 0.055377 -0.045096 0.029919
v 0.041701 -0.044840 0.047620
v 0.031025 -0.045433 0.054268
v 0.030061 -0.044900 0.055721
v -0.002446 -0.045984 0.059790
v 0.009319 -0.044956 0.062496
v -0.000954 -0.044829 0.063253
v -0.012374 -0.044773 0.062036
v -0.039134 -0.045411 0.048273
v -0.021328 -0.044925 0.059564
v -0.051626 -0.045609 0.033349
v -0.057643 -0.044852 0.026249
v -0.061073 -0.045367 0.011428
v -0.063120 -0.044915 -0.000794
v -0.061058 -0.044986 -0.016406
v -0.053118 -0.044965 -0.034302
v -0.040239 -0.044880 -0.048898
v -0.047811 -0.046100 -0.035479
v -0.031229 -0.044890 -0.055129
vn 0.9950 -0.0033 -0.0997
vn 0.8844 -0.4325 -0.1757
vn 0.9847 0.0069 -0.1744
vn -0.6194 -0.5375 -0.5722
vn -0.5520 -0.4961 -0.6702
vn -0.2408 -0.9021 -0.3581
vn 0.1330 -0.9906 0.0327
vn 0.0746 -0.9972 0.0052
vn 0.1407 -0.9900 0.0105
vn 0.0106 -0.9962 -0.0867
vn -0.0283 -0.9768 -0.2124
vn 0.0662 -0.9669 -0.2463
vn -0.0000 1.0000 -0.0000
vn -0.7595 -0.4697 -0.4501
vn -0.8839 -0.0073 -0.4676
vn -0.8294 -0.0064 -0.5587
vn 0.0036 -0.9966 0.0826
vn 0.0181 -0.9940 0.1083
vn 0.2080 -0.9347 0.2883
vn 0.0165 -0.9144 -0.4045
vn -0.4843 -0.4656 0.7407
vn -0.6330 -0.0036 0.7741
vn -0.6323 -0.3936 0.6672
vn -0.0562 -0.9870 -0.1505
vn 0.1055 -0.9820 -0.1570
vn 0.0870 -0.9942 -0.0634
vn 0.1832 -0.9697 0.1617
vn 0.0894 -0.9817 0.1682
vn 0.0797 -0.9952 0.0569
vn -0.7742 -0.0101 -0.6329
vn 0.2307 -0.9689 0.0900
vn 0.3960 -0.9134 0.0939
vn 0.4154 -0.8783 0.2368
vn -0.6944 -0.5015 0.5160
vn -0.7708 -0.0091 0.6370
vn -0.8321 -0.0059 0.5546
vn -0.1377 -0.5147 -0.8462
vn -0.0997 -0.0049 -0.9950
vn -0.0464 -0.4706 -0.8811
vn -0.0547 -0.9832 0.1741
vn -0.0320 -0.9841 0.1745
vn 0.0020 -0.9991 0.0425
vn -0.9577 -0.0110 -0.2877
vn -0.8462 -0.5134 -0.1428
vn -0.9800 -0.0089 -0.1987
vn 0.3146 -0.3825 0.8687
vn 0.1982 -0.0054 0.9801
vn 0.1328 -0.4153 0.8999
vn -0.7103 -0.0074 0.7038
vn -0.1203 -0.9903 0.0695
vn -0.8255 -0.4837 0.2908
vn -0.9225 -0.0074 0.3859
vn -0.9581 -0.0084 0.2863
vn -0.2856 -0.9554 -0.0753
vn -0.4389 -0.8985 -0.0102
vn 0.8226 -0.4816 -0.3025
vn 0.8836 -0.0079 -0.4681
vn 0.9225 -0.0074 -0.3859
vn 0.1510 -0.9874 -0.0484
vn 0.0677 -0.9977 -0.0058
vn 0.0595 -0.9976 -0.0363
vn -0.8623 -0.4883 0.1345
vn -0.9800 -0.0086 0.1989
vn -0.9953 -0.0048 0.0968
vn 0.1057 -0.9827 -0.1521
vn 0.0695 -0.9867 -0.1471
vn -0.1856 -0.9675 -0.1718
vn -0.0706 -0.9969 -0.0350
vn 0.0296 -0.9996 0.0004
vn -0.0579 -0.9983 -0.0070
vn 0.0843 -0.9963 -0.0150
vn 0.4777 -0.4000 0.7822
vn 0.5582 -0.0032 0.8297
vn 0.4683 -0.0043 0.8835
vn -0.3568 -0.9203 0.1603
vn -0.3733 -0.9218 0.1049
vn -0.4914 -0.7891 -0.3685
vn -0.1095 -0.9886 0.1030
vn -0.7058 -0.0093 -0.7083
vn -0.6350 -0.0095 -0.7724
vn 0.2633 -0.9122 0.3138
vn 0.0772 -0.4861 -0.8705
vn 0.0013 -0.0046 -1.0000
vn 0.0991 -0.0077 -0.9951
vn 0.9574 -0.0049 -0.2887
vn 0.0262 -0.9686 0.2474
vn -0.0633 -0.9318 0.3574
vn -0.0352 -0.9934 0.1095
vn 0.3536 -0.8963 -0.2677
vn 0.7513 -0.4805 -0.4524
vn 0.3522 -0.9184 -0.1805
vn 0.1603 -0.9000 -0.4053
vn 0.1591 -0.7983 -0.5809
vn 0.3740 -0.4570 -0.8070
vn 0.8295 -0.0075 -0.5585
vn 0.7390 -0.4450 0.5057
vn 0.8810 -0.0038 0.4732
vn 0.8315 -0.0058 0.5555
vn 0.8465 -0.4790 0.2325
vn 0.9756 0.0153 0.2189
vn 0.9564 -0.0072 0.2920
vn 0.1370 -0.9169 0.3750
vn 0.1579 -0.7412 0.6524
vn 0.0600 -0.9964 -0.0607
vn 0.1087 -0.9924 -0.0575
vn 0.0809 -0.9935 -0.0804
vn 0.2289 -0.3356 -0.9137
vn -0.0536 -0.4735 0.8792
vn 0.0939 -0.0066 0.9956
vn 0.0039 -0.0063 1.0000
vn -0.9952 -0.0057 -0.0972
vn 0.5165 -0.8557 -0.0330
vn 0.8671 -0.4897 0.0909
vn -0.8960 -0.4441 -0.0014
vn -1.0000 -0.0055 -0.0003
vn -0.4707 -0.4364 -0.7668
vn -0.5581 -0.0032 -0.8297
vn -0.1870 -0.8776 0.4415
vn -0.2134 -0.4933 0.8433
vn -0.3798 -0.4152 0.8266
vn -0.3506 -0.8291 0.4355
vn 0.1910 -0.0031 -0.9816
vn -0.1111 -0.9932 0.0334
vn -0.0007 -0.9894 0.1455
vn -0.0089 -0.9859 0.1670
vn 0.5523 -0.4724 0.6869
vn 0.7051 -0.0076 0.7091
vn 0.6351 -0.0095 0.7724
vn -0.7711 -0.4770 0.4219
vn 0.9191 -0.3930 -0.0297
vn 0.9990 0.0455 0.0028
vn 0.0748 -0.9972 -0.0029
vn -0.2920 -0.0071 0.9564
vn -0.3801 -0.0044 0.9249
vn -0.0067 -0.9991 0.0409
vn 0.3863 -0.0030 0.9224
vn 0.2862 -0.0036 0.9581
vn 0.6463 -0.4728 -0.5990
vn -0.1798 -0.9837 0.0015
vn -0.1928 -0.0085 0.9812
vn 0.3910 -0.9141 -0.1074
vn -0.2598 -0.4458 -0.8566
vn -0.3826 -0.0075 -0.9239
vn -0.2901 -0.0068 -0.9570
vn 0.4549 -0.5012 -0.7361
vn 0.4728 -0.0048 -0.8811
vn 0.5558 -0.0082 -0.8312
vn 0.1860 -0.9825 0.0082
vn 0.1676 -0.9850 0.0397
vn -0.8828 -0.0091 0.4696
vn -0.3588 -0.5147 -0.7787
vn -0.4689 -0.0031 -0.8833
vn -0.0165 -0.9977 -0.0656
vn -0.1099 -0.9923 -0.0580
vn -0.0781 -0.9968 -0.0170
vn -0.1019 -0.0060 0.9948
vn -0.1951 -0.0078 -0.9807
vn 0.9952 -0.0081 0.0973
vn 0.7046 -0.0079 -0.7096
vn 0.7753 -0.0081 -0.6316
vn -0.9228 -0.0103 -0.3851
vn 0.8134 -0.4603 0.3557
vn 0.9250 -0.0045 0.3800
vn -0.0793 -0.9843 -0.1576
vn 0.2065 -0.9279 -0.3103
vn -0.0602 -0.9951 -0.0785
vn -0.1814 -0.9195 -0.3486
vn -0.1272 -0.9850 -0.1165
vn -0.3354 -0.9165 -0.2181
vn 0.0211 -0.9971 -0.0730
vn 0.0493 -0.9798 0.1940
vn 0.0798 -0.9808 -0.1782
vn 0.6351 -0.5131 0.5774
vn 0.7736 -0.0051 0.6336
vn -0.0744 -0.9972 0.0007
vn -0.1425 -0.9880 0.0588
vn -0.1206 -0.9916 0.0474
vn -0.4731 -0.0037 0.8810
vn -0.5555 -0.0056 0.8315
vn 0.5566 -0.4901 -0.6709
vn 0.2498 -0.9682 0.0110
vn 0.0376 -0.8352 0.5487
vn 0.1346 -0.9818 -0.1339
vn 0.3806 -0.0062 -0.9247
vn 0.3193 -0.6960 0.6431
vn -0.1364 -0.9668 0.2159
vn -0.2947 -0.9176 0.2668
vn -0.8001 -0.5257 -0.2890
vn 0.0170 -0.9983 0.0562
vn 0.3407 -0.9320 -0.1239
vn 0.1152 -0.9926 0.0385
vn -0.1171 -0.9022 -0.4151
vn -0.1555 -0.9878 0.0002
vn -0.1075 -0.9941 -0.0167
vn 0.6357 -0.0101 -0.7718
vn 0.0848 -0.9960 -0.0271
vn -0.1243 -0.9903 -0.0626
vn 0.0317 -0.9995 0.0081
vn -0.1055 -0.9944 -0.0019
vn -0.0066 1.0000 -0.0032
vn -0.0081 1.0000 0.0022
vn 0.0005 1.0000 -0.0010
vn 0.2941 -0.0029 -0.9558
vn -0.0734 -0.9926 -0.0967
vn -0.0010 -0.9980 -0.0625
vn -0.0118 -0.9950 -0.0992
vn 0.0349 -0.9945 -0.0983
vn 0.0093 -0.9995 -0.0286
vn -0.2085 -0.9381 -0.2765
vn -0.0377 -0.9971 0.0660
vn -0.0745 -0.9970 -0.0188
vn -0.0575 -0.9887 -0.1385
vn 0.2394 -0.9709 0.0055
vn 0.0305 -0.9992 0.0276
vn -0.1428 -0.9833 0.1128
vn -0.0487 -0.9983 0.0324
vn -0.0390 -0.9981 0.0486
vn 0.3598 -0.9222 0.1419
vn -0.2592 -0.8223 -0.5066
vn -0.1136 -0.9916 0.0614
vn 0.3057 -0.8866 0.3471
vn -0.1631 -0.9856 -0.0436
vn 0.0026 -0.9997 0.0239
vn 0.0173 -0.9995 0.0263
vn -0.1888 0.9634 0.1902
vn -0.0049 1.0000 0.0065
vn -0.0063 1.0000 0.0058
vn -0.1713 0.9527 0.2512
vn 0.0107 0.9998 -0.0195
vn -0.0023 1.0000 0.0071
vn -0.1096 0.9556 0.2735
vn -0.0759 0.9348 0.3470
vn 0.0029 0.9991 -0.0434
vn 0.0009 1.0000 0.0004
vn 0.0039 0.9163 0.4004
vn 0.0608 0.9529 0.2970
vn 0.0029 1.0000 0.0061
vn 0.0745 0.9831 0.1671
vn 0.0082 0.9999 0.0081
vn 0.0344 0.9983 0.0462
vn 0.0058 1.0000 0.0052
vn 0.1311 0.9807 0.1450
vn -0.0338 0.9992 -0.0216
vn 0.3057 0.9300 0.2042
vn -0.0321 0.9992 -0.0225
vn 0.0013 1.0000 -0.0001
vn 0.1829 0.9810 0.0652
vn 0.1502 0.9879 0.0378
vn -0.0314 0.9995 0.0009
vn 0.0009 1.0000 -0.0002
vn -0.0799 0.9968 0.0041
vn 0.3838 0.9234 0.0049
vn 0.2455 0.9674 -0.0618
vn 0.1376 0.9893 -0.0491
vn -0.0061 0.9999 0.0088
vn 0.2374 0.9584 -0.1584
vn 0.0017 1.0000 -0.0019
vn -0.0149 0.9997 0.0169
vn 0.1729 0.9691 -0.1762
vn 0.0251 0.9992 -0.0296
vn 0.1537 0.9624 -0.2237
vn 0.0589 0.9845 -0.1651
vn 0.0328 0.9909 -0.1305
vn 0.0046 1.0000 0.0054
vn -0.0023 1.0000 -0.0038
vn -0.0014 1.0000 0.0036
vn -0.0654 0.9961 -0.0591
vn 0.0058 0.9307 -0.3658
vn 0.0045 0.9997 0.0223
vn -0.0865 0.8992 -0.4288
vn 0.0012 0.9999 0.0139
vn -0.1307 0.9445 -0.3013
vn -0.0036 1.0000 -0.0035
vn -0.1102 0.9807 -0.1617
vn -0.1515 0.9820 -0.1126
vn 0.0507 0.9984 0.0237
vn -0.2798 0.9534 -0.1124
vn -0.3499 0.9337 -0.0760
vn 0.0423 0.9991 0.0031
vn -0.0012 1.0000 0.0011
vn -0.3915 0.9202 0.0041
vn -0.2840 0.9571 0.0582
vn -0.2920 0.9491 0.1177
vn 0.0143 0.9999 -0.0080
vn -0.2702 0.9452 0.1833
vt 0.472619 0.129821
vt 0.475427 0.148585
vt 0.475074 0.129721
vt 0.731309 0.673595
vt 0.695779 0.709343
vt 0.692588 0.731719
vt 0.813552 0.530882
vt 0.804070 0.580563
vt 0.812514 0.515981
vt 0.527586 0.926226
vt 0.570761 0.839090
vt 0.442879 0.828417
vt 0.601281 0.123895
vt 0.695854 0.114022
vt 0.575941 0.115566
vt 0.537674 0.132115
vt 0.538154 0.113029
vt 0.535460 0.113452
vt 0.591472 0.801541
vt 0.548606 0.809030
vt 0.644383 0.757331
vt 0.526186 0.803901
vt 0.577106 0.135008
vt 0.573320 0.133956
vt 0.424587 0.201836
vt 0.661517 0.244862
vt 0.765194 0.377497
vt 0.217498 0.304003
vt 0.313441 0.196396
vt 0.166212 0.291687
vt 0.532797 0.114022
vt 0.532607 0.133098
vt 0.185925 0.396425
vt 0.196955 0.466357
vt 0.230512 0.375870
vt 0.568710 0.132891
vt 0.570669 0.114254
vt 0.568014 0.113657
vt 0.514751 0.138541
vt 0.512093 0.120123
vt 0.512546 0.139108
vt 0.390916 0.794018
vt 0.487193 0.797721
vt 0.438370 0.809834
vt 0.543568 0.112352
vt 0.548113 0.130981
vt 0.546286 0.112098
vt 0.601015 0.142896
vt 0.598809 0.123075
vt 0.595955 0.141266
vt 0.573324 0.114852
vt 0.308214 0.739784
vt 0.560469 0.131495
vt 0.562636 0.112749
vt 0.559921 0.112460
vt 0.821875 0.556741
vt 0.800834 0.469314
vt 0.787620 0.513194
vt 0.479207 0.148182
vt 0.482437 0.128785
vt 0.479983 0.129199
vt 0.158051 0.642023
vt 0.067224 0.541849
vt 0.210435 0.810662
vt 0.555289 0.131045
vt 0.557206 0.112171
vt 0.554477 0.112061
vt 0.263044 0.942885
vt 0.308508 0.961737
vt 0.777140 0.699825
vt 0.872329 0.708814
vt 0.791241 0.379364
vt 0.801633 0.408501
vt 0.803723 0.421066
vt 0.606271 0.144529
vt 0.608676 0.126212
vt 0.606215 0.125464
vt 0.764972 0.343238
vt 0.760923 0.381562
vt 0.792271 0.397413
vt 0.300098 0.743581
vt 0.276868 0.723132
vt 0.528829 0.134106
vt 0.530135 0.114593
vt 0.527510 0.115287
vt 0.289776 0.282008
vt 0.508732 0.140507
vt 0.509574 0.120997
vt 0.507081 0.121866
vt 0.477529 0.129460
vt 0.437668 0.171259
vt 0.520745 0.185936
vt 0.585052 0.110853
vt 0.284018 0.712532
vt 0.266934 0.666991
vt 0.235170 0.656484
vt 0.410937 0.788934
vt 0.455142 0.784402
vt 0.416217 0.774643
vt 0.484384 0.147424
vt 0.484890 0.128371
vt 0.617608 0.147372
vt 0.620948 0.128944
vt 0.618494 0.128559
vt 0.626487 0.148502
vt 0.628311 0.129787
vt 0.625856 0.129558
vt 0.359062 0.229551
vt 0.401475 0.229418
vt 0.743577 0.300101
vt 0.763072 0.331013
vt 0.712105 0.270195
vt 0.544151 0.181053
vt 0.551132 0.181387
vt 0.546806 0.180256
vt 0.590967 0.139552
vt 0.596320 0.122211
vt 0.593830 0.121347
vt 0.549017 0.112025
vt 0.210475 0.547810
vt 0.213038 0.499718
vt 0.551713 0.130896
vt 0.551748 0.111951
vt 0.525247 0.134964
vt 0.524885 0.115981
vt 0.594278 0.218077
vt 0.531866 0.214872
vt 0.583475 0.225327
vt 0.665120 0.261388
vt 0.635456 0.246908
vt 0.778772 0.433722
vt 0.504913 0.141726
vt 0.504587 0.122736
vt 0.871682 0.363270
vt 0.530883 0.813564
vt 0.495127 0.815154
vt 0.609879 0.145699
vt 0.613587 0.127508
vt 0.611132 0.126860
vt 0.785671 0.472191
vt 0.710628 0.304103
vt 0.738575 0.340856
vt 0.471118 0.148803
vt 0.470164 0.129920
vt 0.813515 0.469121
vt 0.581250 0.136260
vt 0.586260 0.118739
vt 0.583716 0.117884
vt 0.469121 0.813517
vt 0.603754 0.124716
vt 0.303971 0.709221
vt 0.851728 0.446171
vt 0.585672 0.137711
vt 0.588803 0.119594
vt 0.239527 0.619834
vt 0.210654 0.601489
vt 0.518767 0.137064
vt 0.519713 0.117554
vt 0.517162 0.118401
vt 0.497828 0.144247
vt 0.497173 0.125163
vt 0.494710 0.125928
vt 0.773283 0.650608
vt 0.787304 0.539610
vt 0.508321 0.149272
vt 0.507072 0.142149
vt 0.506187 0.145220
vt 0.564463 0.132051
vt 0.565325 0.113203
vt 0.225078 0.583054
vt 0.522919 0.135871
vt 0.522299 0.116767
vt 0.198452 0.408526
vt 0.208338 0.379189
vt 0.197940 0.421728
vt 0.591317 0.120470
vt 0.514612 0.119248
vt 0.630637 0.148780
vt 0.630766 0.129853
vt 0.489508 0.146365
vt 0.489797 0.127268
vt 0.487344 0.127819
vt 0.540849 0.112607
vt 0.621887 0.148023
vt 0.623402 0.129328
vt 0.701517 0.797263
vt 0.345889 0.769489
vt 0.633253 0.148837
vt 0.633221 0.129920
vt 0.299906 0.256673
vt 0.345286 0.230109
vt 0.272653 0.330985
vt 0.774438 0.640282
vt 0.573979 0.196234
vt 0.591499 0.198367
vt 0.597936 0.200868
vt 0.613733 0.146526
vt 0.616041 0.128033
vt 0.195671 0.558320
vt 0.243629 0.664895
vt 0.212972 0.629015
vt 0.581137 0.117082
vt 0.578558 0.116281
vt 0.485430 0.213729
vt 0.340244 0.738339
vt 0.161778 0.523240
vt 0.535707 0.093751
vt 0.540479 0.093555
vt 0.542275 0.091319
vt 0.648525 0.222130
vt 0.452038 0.210595
vt 0.270320 0.770093
vt 0.999900 0.549312
vt 0.990284 0.597626
vt 0.499853 0.143401
vt 0.499636 0.124399
vt 0.348981 0.256331
vt 0.572330 0.096839
vt 0.577487 0.100937
vt 0.578613 0.099718
vt 0.640032 0.200681
vt 0.708589 0.274159
vt 0.779224 0.571404
vt 0.368237 0.046600
vt 0.308497 0.038254
vt 0.263024 0.057113
vt 0.777858 0.648518
vt 0.792384 0.621109
vt 0.617435 0.779250
vt 0.566186 0.778878
vt 0.675682 0.237074
vt 0.214777 0.468002
vt 0.758859 0.623030
vt 0.225239 0.416410
vt 0.186431 0.530884
vt 0.184594 0.495620
vt 0.492254 0.126598
vt 0.777871 0.351475
vt 0.542803 0.131370
vt 0.237162 0.324400
vt 0.609364 0.765191
vt 0.090037 0.280873
vt 0.493542 0.145357
vt 0.186452 0.469118
vt 0.527687 0.785765
vt 0.198367 0.408500
vt 0.198367 0.591499
vt 0.502112 0.123567
vt 0.260860 0.295345
vt 0.628311 0.129787
vt 0.635676 0.129821
vt 0.640586 0.129460
vt 0.638131 0.129721
vt 0.643040 0.129199
vt 0.645494 0.128785
vt 0.650401 0.127819
vt 0.647947 0.128371
vt 0.652854 0.127268
vt 0.655311 0.126598
vt 0.657767 0.125928
vt 0.660230 0.125163
vt 0.662693 0.124399
vt 0.665169 0.123567
vt 0.667644 0.122736
vt 0.670138 0.121866
vt 0.672631 0.120997
vt 0.675150 0.120123
vt 0.677669 0.119248
vt 0.680219 0.118401
vt 0.682770 0.117554
vt 0.685356 0.116767
vt 0.690567 0.115287
vt 0.687942 0.115981
vt 0.693192 0.114593
vt 0.698517 0.113452
vt 0.701212 0.113029
vt 0.703906 0.112607
vt 0.706625 0.112352
vt 0.709343 0.112098
vt 0.630546 0.112025
vt 0.551748 0.111951
vt 0.557206 0.112171
vt 0.562636 0.112749
vt 0.568014 0.113657
vt 0.573324 0.114852
vt 0.578558 0.116281
vt 0.583716 0.117883
vt 0.588803 0.119594
vt 0.593830 0.121346
vt 0.598809 0.123075
vt 0.603754 0.124716
vt 0.608676 0.126211
vt 0.613588 0.127508
vt 0.618495 0.128559
vt 0.623402 0.129328
vt 0.650729 0.743790
vt 0.380183 0.760441
vt 0.499738 0.999871
vt 0.450512 0.999842
vt 0.084293 0.777635
vt 0.019298 0.645768
vt 0.038127 0.691239
vt 0.056957 0.736710
vt 0.009699 0.597498
vt 0.000101 0.549229
vt 0.548964 0.999900
vt 0.597257 0.990327
vt 0.645550 0.980754
vt 0.111630 0.818561
vt 0.402242 0.990216
vt 0.146424 0.853368
vt 0.181217 0.888176
vt 0.353971 0.980589
vt 0.222130 0.915531
vt 0.270530 0.328091
vt 0.707546 0.737146
vt 0.304118 0.290660
vt 0.499542 0.786874
vt 0.214156 0.527854
vt 0.246818 0.364449
vt 0.487078 0.186739
vt 0.351475 0.777871
vt 0.222149 0.351485
vt 0.408542 0.198502
vt 0.256443 0.699882
vt 0.743563 0.699887
vt 0.751764 0.249648
vt 0.222135 0.648522
vt 0.469116 0.186428
vt 0.530886 0.186406
vt 0.765165 0.124252
vt 0.582088 0.169359
vt 0.579164 0.170489
vt 0.573925 0.174972
vt 0.503717 0.142456
vt 0.585043 0.107493
vt 0.256343 0.300036
vt 0.527378 0.097849
vt 0.530403 0.097361
vt 0.604765 0.144400
vt 0.599696 0.142790
vt 0.853362 0.146433
vt 0.818524 0.111618
vt 0.888200 0.181249
vt 0.691055 0.961941
vt 0.736560 0.943128
vt 0.915576 0.222197
vt 0.777524 0.915793
vt 0.942951 0.263146
vt 0.818489 0.888458
vt 0.853335 0.853649
vt 0.961811 0.308652
vt 0.980670 0.354159
vt 0.888180 0.818841
vt 0.915562 0.777895
vt 0.990285 0.402473
vt 0.999900 0.450787
vt 0.942944 0.736950
vt 0.999900 0.500049
vt 0.961806 0.691445
vt 0.980668 0.645940
vt 0.511708 0.115173
vt 0.508822 0.118725
vt 0.509084 0.121911
vt 0.699934 0.256380
vt 0.649508 0.777190
vt 0.801633 0.591499
vt 0.353970 0.019396
vt 0.402253 0.009769
vt 0.736609 0.056926
vt 0.777567 0.084272
vt 0.000100 0.500016
vt 0.000100 0.450803
vt 0.009697 0.402535
vt 0.691106 0.038099
vt 0.645604 0.019272
vt 0.019294 0.354267
vt 0.597306 0.009686
vt 0.038119 0.308797
vt 0.056944 0.263327
vt 0.549008 0.000100
vt 0.499772 0.000121
vt 0.084275 0.222399
vt 0.111607 0.181471
vt 0.450535 0.000143
vt 0.146398 0.146655
vt 0.181189 0.111840
vt 0.222107 0.084476
vt 0.546834 0.091748
vt 0.568777 0.093952
vt 0.565595 0.094182
vt 0.520299 0.103271
vt 0.523202 0.102164
vt 0.408526 0.801548
vt 0.198464 0.591470
vt 0.276038 0.723962
vt 0.300036 0.743657
vt 0.256343 0.699964
vt 0.324034 0.763352
vt 0.351413 0.777986
vt 0.408501 0.801633
vt 0.378793 0.792621
vt 0.438209 0.810645
vt 0.469105 0.813688
vt 0.530896 0.813688
vt 0.500000 0.816731
vt 0.561791 0.810645
vt 0.591499 0.801633
vt 0.621208 0.792621
vt 0.648587 0.777986
vt 0.675966 0.763352
vt 0.699964 0.743657
vt 0.723962 0.723962
vt 0.743657 0.699964
vt 0.763352 0.675966
vt 0.777986 0.648587
vt 0.792621 0.621207
vt 0.810645 0.561791
vt 0.813688 0.530895
vt 0.813688 0.469104
vt 0.816731 0.500000
vt 0.810645 0.438209
vt 0.792621 0.378792
vt 0.777986 0.351413
vt 0.763352 0.324034
vt 0.743657 0.300036
vt 0.648587 0.222014
vt 0.723962 0.276038
vt 0.699964 0.256343
vt 0.675966 0.236648
vt 0.621208 0.207379
vt 0.561791 0.189355
vt 0.530896 0.186312
vt 0.300036 0.256343
vt 0.276038 0.276038
vt 0.500000 0.183269
vt 0.469105 0.186312
vt 0.438209 0.189355
vt 0.408501 0.198367
vt 0.378793 0.207379
vt 0.351413 0.222014
vt 0.324034 0.236648
vt 0.236648 0.324034
vt 0.222014 0.351413
vt 0.207379 0.378792
vt 0.189355 0.438209
vt 0.186312 0.469104
vt 0.186312 0.530895
vt 0.183270 0.500000
vt 0.189355 0.561791
vt 0.207379 0.621208
vt 0.222014 0.648587
vt 0.236648 0.675966
s 1
usemtl m0
f 141/1/1 174/2/2 67/3/3
f 241/4/4 243/5/5 245/6/6
f 41/7/7 265/8/8 263/9/9
f 160/10/10 251/11/11 156/12/12
f 79/13/13 102/14/13 126/15/13
f 237/16/14 117/17/15 101/18/16
f 204/19/17 271/20/18 268/21/19
f 251/11/11 155/22/20 156/12/12
f 213/23/21 126/15/22 217/24/23
f 255/25/24 256/26/25 260/27/26
f 193/28/27 200/29/28 190/30/29
f 237/16/14 102/31/30 241/32/4
f 185/33/31 181/34/32 189/35/33
f 221/36/34 90/37/35 91/38/36
f 250/39/37 57/40/38 153/41/39
f 275/42/40 270/43/41 273/44/42
f 99/45/43 232/46/44 98/47/45
f 197/48/46 80/49/47 201/50/48
f 221/36/34 89/51/49 90/37/35
f 270/43/41 275/42/40 274/52/50
f 224/53/51 93/54/52 94/55/53
f 234/56/54 230/57/55 232/58/44
f 171/59/56 145/60/57 66/61/58
f 176/62/59 182/63/60 164/64/61
f 227/65/62 95/66/63 121/67/64
f 165/68/65 52/69/66 160/10/10
f 239/70/67 235/71/68 234/56/54
f 173/72/69 44/73/70 262/74/71
f 195/75/72 77/76/73 133/77/74
f 225/78/75 224/79/51 228/80/76
f 24/81/77 220/82/78 274/52/50
f 243/83/5 103/84/79 114/85/80
f 193/28/27 189/35/33 196/86/81
f 152/87/82 58/88/83 151/89/84
f 174/2/2 143/90/85 67/3/3
f 207/91/86 209/92/87 210/93/88
f 170/94/89 169/95/90 172/96/91
f 159/97/92 158/98/93 157/99/94
f 169/100/90 65/101/95 145/60/57
f 188/102/96 72/103/97 73/104/98
f 183/105/99 69/106/100 70/107/101
f 207/91/86 199/108/102 202/109/103
f 48/110/104 261/111/105 259/112/106
f 241/32/4 102/31/30 103/84/79
f 158/113/93 152/114/82 154/115/107
f 227/65/62 94/55/53 95/66/63
f 205/116/108 81/117/109 82/118/110
f 98/47/45 232/46/44 97/119/111
f 58/88/83 153/41/39 57/40/38
f 178/120/112 180/121/113 181/34/32
f 229/122/114 121/67/64 96/123/115
f 244/124/116 114/85/80 104/125/117
f 214/126/118 208/127/119 211/128/120
f 218/129/121 214/126/118 213/130/21
f 228/80/76 224/79/51 227/131/62
f 154/132/107 151/89/84 150/133/122
f 234/56/54 235/71/68 226/134/123
f 31/135/124 272/136/125 271/20/18
f 194/137/126 75/138/127 76/139/128
f 230/57/55 227/131/62 229/140/114
f 221/141/34 223/142/129 225/78/75
f 177/143/130 141/1/1 68/144/131
f 252/145/132 263/9/9 262/74/71
f 211/146/120 85/147/133 86/148/134
f 29/149/135 273/44/42 272/136/125
f 197/48/46 78/150/136 79/13/137
f 228/80/76 227/131/62 230/57/55
f 170/94/89 167/151/138 169/95/90
f 228/80/76 230/57/55 231/152/139
f 208/153/119 84/154/140 85/147/133
f 172/96/91 171/155/56 175/156/141
f 249/157/142 105/158/143 106/159/144
f 162/160/145 60/161/146 61/162/147
f 265/8/8 266/163/148 264/164/149
f 174/165/2 177/166/130 178/167/112
f 223/168/129 91/38/36 92/169/150
f 175/156/141 171/155/56 174/170/2
f 247/171/151 112/172/152 105/158/143
f 13/173/153 236/174/154 280/175/155
f 244/124/116 104/125/117 112/172/152
f 84/154/140 205/116/108 83/176/156
f 224/53/51 92/169/150 93/54/52
f 249/157/142 56/177/157 250/39/37
f 69/106/100 180/178/113 139/179/158
f 167/180/138 63/181/159 64/182/160
f 237/16/14 100/183/161 117/17/15
f 184/184/162 70/107/101 71/185/163
f 246/186/164 239/70/67 245/6/6
f 156/12/12 159/97/92 163/187/165
f 239/70/67 246/186/164 235/71/68
f 229/122/114 97/119/111 232/46/44
f 139/179/158 177/188/130 68/189/131
f 282/190/166 284/191/167 283/192/168
f 234/56/54 238/193/169 239/70/67
f 257/194/170 54/195/171 161/196/172
f 217/24/23 126/15/22 89/51/49
f 192/197/173 74/198/174 75/138/127
f 171/59/56 66/61/58 143/90/85
f 278/199/175 276/200/176 277/201/177
f 213/23/21 87/202/178 88/203/179
f 169/100/90 64/182/160 65/101/95
f 209/92/87 205/204/108 208/127/119
f 170/94/89 166/205/180 167/151/138
f 175/156/141 178/120/112 179/206/181
f 202/207/103 201/208/48 206/209/182
f 52/210/66 257/194/170 161/196/172
f 193/28/27 185/33/31 189/35/33
f 264/164/149 263/9/9 265/8/8
f 264/164/149 262/74/71 263/9/9
f 206/211/182 205/204/108 209/92/87
f 156/12/12 168/212/183 160/10/10
f 280/213/155 235/71/68 13/214/153
f 157/215/94 59/216/184 60/161/146
f 196/86/81 198/217/185 199/108/102
f 246/186/164 251/11/11 160/10/10
f 156/12/12 155/22/20 158/98/93
f 213/218/21 217/219/23 218/220/121
f 215/221/186 218/129/121 219/222/187
f 209/92/87 208/127/119 214/126/118
f 232/58/44 233/223/188 234/56/54
f 203/224/189 204/225/17 268/226/19
f 234/56/54 226/134/123 231/152/139
f 253/227/190 266/163/148 186/228/191
f 248/229/192 250/230/37 155/22/20
f 228/80/76 226/134/123 225/78/75
f 259/112/106 256/26/25 165/231/65
f 181/34/32 180/121/113 183/232/99
f 197/48/46 133/77/74 78/150/136
f 233/223/188 237/233/14 238/193/169
f 225/78/75 223/142/129 224/79/51
f 276/200/176 274/52/50 220/82/78
f 189/35/33 183/232/99 184/234/162
f 16/235/193 279/236/194 278/199/175
f 167/180/138 62/237/195 63/181/159
f 46/238/196 173/72/69 261/111/105
f 246/186/164 245/6/6 248/229/192
f 233/239/188 99/45/43 100/183/161
f 281/240/197 280/175/155 236/174/154
f 172/96/91 169/95/90 171/155/56
f 248/229/192 249/241/142 250/230/37
f 215/221/186 214/126/118 218/129/121
f 154/132/107 59/216/184 157/215/94
f 168/212/183 163/187/165 170/94/89
f 182/63/60 190/30/29 191/242/198
f 246/186/164 248/229/192 251/11/11
f 166/243/180 61/162/147 62/237/195
f 195/75/72 76/139/128 77/76/73
f 179/206/181 185/33/31 190/30/29
f 254/244/199 280/175/155 279/236/194
f 155/22/20 250/230/37 153/245/39
f 13/246/200 18/247/201 54/195/202
f 154/132/107 150/133/122 108/248/203
f 188/102/96 74/198/174 192/197/173
f 141/1/1 177/143/130 174/2/2
f 281/240/197 242/249/204 282/190/166
f 138/250/13 139/179/13 70/107/13
f 139/179/13 140/189/13 141/251/13
f 143/252/13 141/251/13 142/253/13
f 139/179/13 141/251/13 143/252/13
f 143/252/13 144/254/13 145/255/13
f 64/256/13 145/255/13 146/257/13
f 143/252/13 145/255/13 64/256/13
f 64/256/13 147/258/13 62/259/13
f 62/259/13 148/260/13 60/261/13
f 60/261/13 149/262/13 108/263/13
f 108/263/13 107/264/13 151/265/13
f 151/265/13 109/266/13 57/267/13
f 57/267/13 110/268/13 106/269/13
f 106/269/13 111/270/13 112/271/13
f 102/14/13 112/271/13 114/272/13
f 112/271/13 113/273/13 114/272/13
f 106/269/13 112/271/13 102/14/13
f 114/272/13 115/274/13 102/14/13
f 102/14/13 116/275/13 117/276/13
f 117/276/13 118/277/13 99/278/13
f 99/278/13 119/279/13 97/280/13
f 97/280/13 120/281/13 121/67/13
f 121/67/13 122/282/13 94/55/13
f 94/55/13 123/283/13 92/169/13
f 90/37/13 92/169/13 124/284/13
f 94/55/13 92/169/13 90/37/13
f 90/37/13 125/285/13 126/15/13
f 126/15/13 127/286/13 87/202/13
f 87/202/13 128/287/13 85/147/13
f 85/147/13 129/288/13 83/176/13
f 83/176/13 130/289/13 81/117/13
f 81/117/13 131/290/13 79/13/13
f 79/13/13 132/291/13 133/77/13
f 133/77/13 134/292/13 76/139/13
f 79/13/13 133/77/13 139/179/13
f 76/139/13 135/293/13 74/198/13
f 76/139/13 70/107/13 133/77/13
f 74/198/13 136/294/13 72/103/13
f 76/139/13 74/198/13 70/107/13
f 72/103/13 137/295/13 70/107/13
f 64/256/13 62/259/13 143/252/13
f 106/269/13 108/263/13 57/267/13
f 60/261/13 108/263/13 62/259/13
f 62/259/13 108/263/13 106/269/13
f 151/265/13 57/267/13 108/263/13
f 94/55/13 99/278/13 121/67/13
f 117/276/13 99/278/13 102/14/13
f 102/14/13 99/278/13 94/55/13
f 97/280/13 121/67/13 99/278/13
f 90/37/13 126/15/13 94/55/13
f 79/13/13 85/147/13 81/117/13
f 87/202/13 85/147/13 126/15/13
f 126/15/13 85/147/13 79/13/13
f 83/176/13 81/117/13 85/147/13
f 70/107/13 139/179/13 133/77/13
f 72/103/13 70/107/13 74/198/13
f 139/179/13 143/252/13 79/13/13
f 143/252/13 62/259/13 106/269/13
f 102/14/13 143/252/13 106/269/13
f 94/55/13 126/15/13 102/14/13
f 143/252/13 102/14/13 79/13/13
f 207/91/86 206/211/182 209/92/87
f 248/229/192 245/6/6 247/296/151
f 239/70/67 241/4/4 245/6/6
f 261/111/105 262/74/71 260/27/26
f 213/23/21 88/203/179 126/15/22
f 264/164/149 270/43/41 260/27/26
f 270/43/41 276/200/176 260/27/26
f 276/200/176 283/192/168 260/27/26
f 283/192/168 255/25/24 260/27/26
f 159/97/92 157/99/94 162/297/145
f 237/16/14 101/18/16 102/31/30
f 251/11/11 248/229/192 155/22/20
f 270/43/41 264/164/149 268/21/19
f 250/39/37 56/177/157 57/40/38
f 99/45/43 233/239/188 232/46/44
f 197/48/46 79/13/137 80/49/47
f 221/36/34 217/24/23 89/51/49
f 171/59/56 169/100/90 145/60/57
f 261/111/105 173/72/69 262/74/71
f 199/108/102 198/217/185 202/109/103
f 3/298/205 160/10/10 257/299/170
f 164/64/61 182/63/60 46/300/196
f 182/63/60 262/301/71 44/302/70
f 173/303/69 182/63/60 44/302/70
f 262/301/71 182/63/60 252/304/132
f 182/63/60 263/305/9 252/304/132
f 258/306/206 160/10/10 3/298/205
f 2/307/207 255/308/24 160/10/10
f 258/306/206 2/307/207 160/10/10
f 182/63/60 173/303/69 46/300/196
f 164/64/61 46/300/196 261/309/105
f 54/310/171 257/299/170 160/10/10
f 164/64/61 261/309/105 48/311/104
f 164/64/61 48/311/104 259/312/106
f 161/313/172 54/310/171 160/10/10
f 52/69/66 161/313/172 160/10/10
f 160/10/10 164/64/61 165/68/65
f 164/64/61 259/312/106 50/314/208
f 164/64/61 50/314/208 165/68/65
f 175/156/141 174/170/2 178/120/112
f 176/62/59 179/206/181 182/63/60
f 243/83/5 241/32/4 103/84/79
f 276/200/176 270/43/41 274/52/50
f 235/71/68 246/186/164 160/10/10
f 196/86/81 189/35/33 192/315/173
f 152/87/82 153/41/39 58/88/83
f 179/206/181 178/120/112 181/34/32
f 174/2/2 171/59/56 143/90/85
f 211/146/120 86/148/134 87/202/178
f 267/316/209 268/21/19 266/163/148
f 188/102/96 184/184/162 72/103/97
f 196/86/81 192/315/173 194/317/126
f 155/22/20 153/245/39 152/318/82
f 227/65/62 224/53/51 94/55/53
f 205/116/108 201/50/48 81/117/109
f 231/152/139 226/134/123 228/80/76
f 178/120/112 177/319/130 180/121/113
f 156/12/12 158/98/93 159/97/92
f 229/122/114 227/65/62 121/67/64
f 189/35/33 188/320/96 192/315/173
f 244/124/116 243/83/5 114/85/80
f 209/92/87 215/221/186 210/93/88
f 283/192/168 280/175/155 281/240/197
f 268/21/19 264/164/149 266/163/148
f 160/10/10 168/212/183 164/64/61
f 154/132/107 152/87/82 151/89/84
f 260/27/26 262/74/71 264/164/149
f 268/21/19 271/20/18 270/43/41
f 194/137/126 192/197/173 75/138/127
f 255/25/24 258/321/206 257/194/170
f 278/199/175 280/175/155 283/192/168
f 26/322/210 274/52/50 275/42/40
f 240/323/211 281/240/197 236/174/154
f 5/324/212 255/25/24 284/191/167
f 22/325/213 276/200/176 220/82/78
f 211/146/120 208/153/119 85/147/133
f 185/33/31 193/28/27 190/30/29
f 230/57/55 229/140/114 232/58/44
f 37/326/214 267/316/209 266/163/148
f 249/157/142 247/171/151 105/158/143
f 162/160/145 157/215/94 60/161/146
f 158/98/93 155/22/20 152/318/82
f 182/63/60 179/206/181 190/30/29
f 222/327/215 219/222/187 225/78/75
f 223/168/129 221/36/34 91/38/36
f 247/171/151 244/124/116 112/172/152
f 176/62/59 175/156/141 179/206/181
f 203/224/189 207/91/86 210/93/88
f 84/154/140 208/153/119 205/116/108
f 176/62/59 168/212/183 172/96/91
f 224/53/51 223/168/129 92/169/150
f 249/157/142 106/159/144 56/177/157
f 20/328/216 277/201/177 276/200/176
f 69/106/100 183/105/99 180/178/113
f 237/16/14 233/239/188 100/183/161
f 184/184/162 183/105/99 70/107/101
f 283/192/168 276/200/176 278/199/175
f 2/329/207 258/321/206 255/25/24
f 245/6/6 243/5/5 247/296/151
f 229/122/114 96/123/115 97/119/111
f 139/179/158 180/178/113 177/188/130
f 3/330/205 257/194/170 258/321/206
f 203/224/189 210/93/88 216/331/217
f 243/332/5 244/333/116 247/334/151
f 157/215/94 158/335/93 154/132/107
f 218/220/121 217/219/23 221/336/34
f 205/116/108 82/118/110 83/176/156
f 179/206/181 181/34/32 185/33/31
f 213/23/21 211/146/120 87/202/178
f 169/100/90 167/180/138 64/182/160
f 168/212/183 176/62/59 164/64/61
f 281/240/197 10/337/218 242/249/204
f 198/338/185 197/339/46 202/207/103
f 257/194/170 256/26/25 255/25/24
f 215/221/186 209/92/87 214/126/118
f 170/94/89 163/187/165 166/205/180
f 207/91/86 200/29/28 199/108/102
f 272/136/125 273/44/42 270/43/41
f 163/187/165 162/297/145 166/205/180
f 168/212/183 156/12/12 163/187/165
f 278/199/175 279/236/194 280/175/155
f 239/70/67 238/193/169 241/4/4
f 197/48/46 198/340/185 195/75/72
f 52/210/66 256/26/25 257/194/170
f 200/29/28 193/28/27 196/86/81
f 238/193/169 237/233/14 241/4/4
f 168/212/183 170/94/89 172/96/91
f 52/210/66 165/231/65 256/26/25
f 261/111/105 260/27/26 256/26/25
f 201/50/48 202/341/103 197/48/46
f 22/342/213 220/343/78 216/331/217
f 276/344/176 22/342/213 216/331/217
f 160/10/10 255/308/24 5/345/212
f 160/10/10 5/345/212 284/346/167
f 20/347/216 276/344/176 216/331/217
f 235/71/68 160/10/10 7/348/219
f 160/10/10 284/346/167 7/348/219
f 20/347/216 216/331/217 277/349/177
f 216/331/217 226/134/123 277/349/177
f 235/71/68 7/348/219 284/350/167
f 235/71/68 284/350/167 282/351/166
f 18/352/220 277/349/177 226/134/123
f 278/353/175 18/352/220 226/134/123
f 235/71/68 282/351/166 242/354/204
f 235/71/68 242/354/204 10/355/218
f 16/356/193 278/353/175 226/134/123
f 279/357/194 16/356/193 226/134/123
f 235/71/68 10/355/218 281/358/197
f 254/359/199 279/357/194 226/134/123
f 280/213/155 254/359/199 226/134/123
f 235/71/68 281/358/197 240/360/211
f 235/71/68 240/360/211 236/361/154
f 280/213/155 226/134/123 235/71/68
f 235/71/68 236/361/154 13/214/153
f 196/86/81 194/317/126 198/217/185
f 188/362/96 189/363/33 184/364/162
f 50/365/208 259/112/106 165/231/65
f 200/29/28 196/86/81 199/108/102
f 283/192/168 284/191/167 255/25/24
f 222/327/215 216/331/217 215/221/186
f 203/224/189 190/30/29 200/29/28
f 207/91/86 202/109/103 206/211/182
f 267/316/209 269/366/221 268/21/19
f 186/228/191 265/8/8 187/367/222
f 203/224/189 271/368/18 204/225/17
f 271/368/18 203/224/189 31/369/124
f 274/370/50 216/331/217 24/371/77
f 216/331/217 220/343/78 24/371/77
f 41/372/7 263/305/9 182/63/60
f 265/373/8 41/372/7 182/63/60
f 187/374/222 265/373/8 182/63/60
f 216/331/217 274/370/50 26/375/210
f 216/331/217 26/375/210 275/376/40
f 187/374/222 182/63/60 186/377/191
f 182/63/60 191/242/198 186/377/191
f 216/331/217 275/376/40 212/378/223
f 203/224/189 216/331/217 212/378/223
f 253/379/190 186/377/191 191/242/198
f 266/380/148 253/379/190 191/242/198
f 203/224/189 212/378/223 273/381/42
f 203/224/189 273/381/42 29/382/135
f 37/383/214 266/380/148 191/242/198
f 267/384/209 37/383/214 191/242/198
f 203/224/189 29/382/135 272/385/125
f 203/224/189 272/385/125 31/369/124
f 35/386/224 267/384/209 191/242/198
f 35/386/224 191/242/198 203/224/189
f 267/387/209 35/386/224 203/224/189
f 269/388/221 267/387/209 203/224/189
f 268/226/19 269/388/221 203/224/189
f 265/8/8 186/228/191 266/163/148
f 226/134/123 222/327/215 225/78/75
f 205/389/108 206/209/182 201/208/48
f 163/187/165 159/97/92 162/297/145
f 176/62/59 172/96/91 175/156/141
f 222/327/215 226/134/123 216/331/217
f 213/218/21 214/390/118 211/391/120
f 281/240/197 282/190/166 283/192/168
f 256/26/25 259/112/106 261/111/105
f 194/392/126 195/393/72 198/338/185
f 271/20/18 272/136/125 270/43/41
f 197/48/46 195/75/72 133/77/74
f 231/152/139 230/57/55 234/56/54
f 219/222/187 218/129/121 221/141/34
f 219/222/187 221/141/34 225/78/75
f 212/394/223 275/42/40 273/44/42
f 222/327/215 215/221/186 219/222/187
f 189/35/33 181/34/32 183/232/99
f 167/180/138 166/243/180 62/237/195
f 210/93/88 215/221/186 216/331/217
f 18/395/220 278/199/175 277/201/177
f 154/132/107 108/248/203 59/216/184
f 234/56/54 233/223/188 238/193/169
f 191/242/198 190/30/29 203/224/189
f 166/243/180 162/160/145 61/162/147
f 207/91/86 203/224/189 200/29/28
f 195/75/72 194/137/126 76/139/128
f 248/229/192 247/296/151 249/241/142
f 201/50/48 80/49/47 81/117/109
f 23/396/225 24/397/226 22/398/227
f 24/397/226 25/399/228 26/400/229
f 212/401/230 26/400/229 27/402/231
f 24/397/226 26/400/229 212/401/230
f 212/401/230 28/403/232 29/404/233
f 31/405/234 29/404/233 30/406/235
f 212/401/230 29/404/233 31/405/234
f 31/405/234 32/407/236 204/408/237
f 204/408/237 33/409/238 269/410/239
f 269/410/239 34/411/240 35/412/241
f 35/412/241 36/413/242 37/414/243
f 37/414/243 38/415/244 253/416/245
f 187/367/246 253/416/245 39/417/247
f 37/414/243 253/416/245 187/367/246
f 187/367/246 40/418/248 41/419/249
f 44/73/250 41/419/249 252/420/251
f 41/419/249 42/421/252 252/420/251
f 187/367/246 41/419/249 44/73/250
f 252/420/251 43/422/253 44/73/250
f 44/73/250 45/423/254 46/424/255
f 46/424/255 47/425/256 48/426/257
f 54/195/202 48/426/257 52/427/258
f 48/426/257 49/428/259 50/429/260
f 46/424/255 48/426/257 54/195/202
f 50/429/260 51/430/261 52/427/258
f 52/427/258 53/431/262 54/195/202
f 54/195/202 55/432/263 3/433/264
f 10/337/265 282/434/266 9/435/267
f 3/433/264 1/436/268 2/437/269
f 54/195/202 3/433/264 10/337/265
f 2/437/269 4/438/270 5/439/271
f 5/439/271 6/440/272 7/441/273
f 7/441/273 8/442/274 282/434/266
f 3/433/264 282/434/266 10/337/265
f 7/441/273 282/434/266 3/433/264
f 10/337/265 11/443/275 240/444/276
f 13/246/200 240/444/276 12/445/277
f 10/337/265 240/444/276 13/246/200
f 13/246/200 14/446/278 254/447/279
f 16/448/280 254/447/279 15/449/281
f 13/246/200 254/447/279 16/448/280
f 16/448/280 17/450/282 18/247/201
f 18/247/201 19/451/283 20/452/284
f 20/452/284 21/453/285 22/398/227
f 24/397/226 44/73/250 54/195/202
f 31/405/234 204/408/237 212/401/230
f 187/367/246 35/412/241 37/414/243
f 269/410/239 35/412/241 204/408/237
f 204/408/237 35/412/241 187/367/246
f 44/73/250 46/424/255 54/195/202
f 50/429/260 52/427/258 48/426/257
f 2/437/269 5/439/271 3/433/264
f 16/448/280 18/247/201 13/246/200
f 54/195/202 22/398/227 24/397/226
f 20/452/284 22/398/227 18/247/201
f 18/247/201 22/398/227 54/195/202
f 24/397/226 212/401/230 44/73/250
f 212/401/230 204/408/237 187/367/246
f 5/439/271 7/441/273 3/433/264
f 10/337/265 13/246/200 54/195/202
f 44/73/250 212/401/230 187/367/246
f 184/184/162 71/185/163 72/103/97
f 188/102/96 73/104/98 74/198/174
