# Blender 5.2.2 LTS
# www.blender.org
mtllib SprinklerUprightLow.mtl
o Object_2
v -0.000198 0.038748 0.000339
v -0.000176 0.038700 -0.000737
v -0.001405 0.038472 0.000292
v 0.001036 0.038480 -0.000950
v 0.000741 0.038687 0.000075
v -0.001346 0.038403 -0.000685
v -0.000693 0.038389 -0.001370
v 0.000238 0.038393 -0.001496
v 0.001499 0.038398 -0.000227
v -0.002397 0.037655 -0.000005
v -0.002084 0.037743 -0.001064
v -0.001409 0.037655 -0.001928
v -0.000378 0.037668 -0.002359
v 0.000740 0.037655 -0.002266
v 0.001665 0.037722 -0.001658
v 0.002355 0.037711 -0.000374
v -0.003169 0.036538 -0.000030
v -0.002861 0.036833 -0.000927
v -0.002420 0.036830 -0.001775
v -0.001367 0.036854 -0.002669
v -0.000000 0.036833 -0.002989
v 0.000941 0.036805 -0.002851
v 0.001766 0.036828 -0.002421
v 0.002414 0.036868 -0.001745
v 0.002872 0.036816 -0.000919
v 0.003019 0.036805 0.000003
v -0.003262 0.035711 -0.001072
v -0.002775 0.035746 -0.002007
v -0.002003 0.035770 -0.002765
v -0.001033 0.035745 -0.003251
v -0.000000 0.035736 -0.003405
v 0.001052 0.035752 -0.003251
v 0.002018 0.035746 -0.002758
v 0.002783 0.035798 -0.001989
v 0.003270 0.035711 -0.001044
v 0.003424 0.035769 -0.000018
v -0.003458 0.035452 -0.000005
v -0.003457 0.014016 -0.000541
v -0.002550 0.014016 -0.002397
v -0.001073 0.014016 -0.003281
v -0.000000 0.014016 -0.003449
v 0.001582 0.014016 -0.003100
v 0.003076 0.014016 -0.001687
v 0.003472 0.014016 -0.000005
v -0.000469 0.038489 0.001334
v 0.000727 0.038493 0.001151
v 0.001378 0.038383 0.000692
v -0.002083 0.037742 0.001056
v -0.001083 0.037688 0.002123
v 0.000372 0.037685 0.002335
v 0.001408 0.037655 0.001918
v 0.002099 0.037722 0.001055
v -0.002862 0.036828 0.000915
v -0.002421 0.036847 0.001751
v -0.001377 0.036855 0.002653
v -0.000021 0.036830 0.002978
v 0.000917 0.036847 0.002827
v 0.001768 0.036805 0.002423
v 0.002420 0.036830 0.001765
v 0.002848 0.036847 0.000923
v -0.003261 0.035769 0.001032
v -0.002784 0.035759 0.001994
v -0.002016 0.035746 0.002750
v -0.001045 0.035770 0.003234
v 0.000028 0.035745 0.003398
v 0.001087 0.035745 0.003223
v 0.002039 0.035745 0.002731
v 0.002792 0.035745 0.001972
v 0.003271 0.035745 0.001020
v -0.003302 0.014016 0.001059
v -0.002479 0.014016 0.002444
v -0.000646 0.014016 0.003417
v 0.001507 0.014016 0.003139
v 0.003082 0.014016 0.001660
v -0.000179 0.041731 -0.003709
v -0.003291 0.041934 -0.002051
v -0.003547 0.041748 0.001069
v 0.003835 0.041901 0.000458
v 0.002585 0.042580 -0.003233
v 0.004837 0.050017 0.000708
v 0.002019 0.050024 -0.004347
v -0.001996 0.050022 0.004121
v 0.001442 0.050024 0.004399
v 0.001268 0.041613 -0.001263
v 0.001789 0.041591 0.000471
v 0.000608 0.038541 0.000111
v -0.000190 0.038513 -0.000574
v -0.000405 0.038514 0.000432
v -0.000000 0.041572 -0.001832
v -0.001269 0.041613 -0.001263
v -0.001768 0.041601 0.000452
v 0.003804 0.019386 0.003769
v 0.003791 0.019392 0.002167
v 0.002189 0.019392 0.003756
v -0.001360 0.019389 0.005027
v -0.000000 0.019392 0.004338
v -0.002190 0.019392 0.003756
v -0.005197 0.019388 0.001376
v -0.003792 0.019392 0.002167
v -0.003377 0.050026 -0.003355
v -0.004505 0.050021 0.001447
v -0.001337 0.041801 0.003587
v 0.000460 0.041601 0.001748
v -0.000921 0.041572 0.001577
v 0.006755 0.050800 0.009219
v 0.000212 0.050625 0.011436
v 0.012091 0.049916 -0.000024
v 0.011628 0.050563 -0.000159
v 0.009298 0.050800 -0.006707
v 0.009298 0.050800 0.006697
v 0.006755 0.050800 -0.009229
v 0.006996 0.050028 -0.009589
v 0.009807 0.049910 -0.007023
v 0.000214 0.050475 -0.011897
v 0.011381 0.050128 0.003664
v 0.009661 0.049905 0.006963
v 0.007069 0.049942 0.009679
v 0.000020 0.050041 0.011763
v 0.001801 0.041617 0.003131
v 0.002807 0.013343 0.002780
v -0.006698 0.050647 0.009627
v -0.011356 0.050129 0.003655
v -0.011494 0.050800 -0.000005
v -0.012185 0.049904 -0.000035
v -0.009299 0.050800 0.006697
v -0.009656 0.049928 0.006954
v -0.006992 0.049993 0.009547
v -0.009808 0.049913 -0.007022
v -0.009563 0.050511 -0.006742
v -0.006957 0.050057 -0.009523
v -0.008335 0.013628 -0.011614
v -0.002376 0.042471 -0.008423
v -0.001134 0.013628 -0.011882
v -0.000000 0.003247 -0.012948
v 0.001134 0.009792 -0.014588
v -0.001134 0.009792 -0.014588
v 0.008500 0.003330 -0.012092
v 0.008500 0.005096 -0.012092
v 0.001102 0.005138 -0.012706
v 0.001134 0.013628 -0.011882
v 0.007993 0.005096 -0.010903
v 0.008334 0.013628 -0.011614
v -0.001109 0.005146 -0.012625
v -0.007994 0.005096 -0.010903
v -0.008501 0.005096 -0.012092
v -0.008501 0.003330 -0.012092
v -0.000000 0.042474 -0.008635
v -0.001134 0.013628 0.011872
v -0.001134 0.009792 0.014578
v -0.000000 0.042474 0.008625
v 0.001134 0.009792 0.014578
v 0.001134 0.013628 0.011872
v 0.014465 0.003552 -0.006804
v 0.015750 0.003552 0.002472
v 0.015733 0.000000 -0.002934
v 0.014467 0.000000 0.006800
v 0.012814 0.003552 0.009234
v 0.007240 0.003552 0.014094
v 0.009310 0.000000 0.012710
v 0.002051 0.000000 0.015750
v -0.002052 0.003552 0.015750
v -0.007674 0.000000 0.013937
v -0.010993 0.003552 0.011545
v -0.014467 0.000000 0.006800
v -0.015063 0.003552 -0.004857
v -0.015734 0.003552 0.002930
v -0.006686 0.050658 -0.009495
v 0.010990 0.000000 -0.011547
v 0.007671 0.003552 -0.013939
v 0.002050 0.000000 -0.015750
v -0.002051 0.003552 -0.015750
v -0.007239 0.000000 -0.014095
v -0.010991 0.003552 -0.011547
v -0.012813 0.000000 -0.009237
v -0.015750 0.000000 -0.002477
v 0.000011 0.050012 -0.011783
v 0.002376 0.042471 -0.008423
v 0.008500 0.005096 0.012082
v 0.008500 0.003330 0.012082
v 0.010283 0.005168 0.009275
v 0.010949 0.003253 0.009392
v -0.008501 0.005096 0.012082
v -0.001109 0.005147 0.012615
v -0.007994 0.005096 0.010893
v -0.004779 0.034069 0.006367
v -0.000000 0.040974 0.001787
v 0.002058 0.041367 0.001763
v 0.004878 0.034018 0.006278
v -0.002059 0.041367 0.001763
v -0.009854 0.013629 0.008837
v 0.009943 0.013628 0.008659
v 0.002376 0.042471 0.008413
v 0.001095 0.045917 0.004270
v 0.008334 0.013628 0.011603
v 0.007993 0.005096 0.010893
v -0.010446 0.005187 0.009071
v -0.010950 0.003253 0.009392
v -0.008501 0.003330 0.012082
v -0.001096 0.045917 0.004270
v -0.002376 0.042471 0.008413
v -0.008335 0.013628 0.011603
v 0.005072 0.019389 -0.001353
v 0.003939 0.013323 -0.001052
v -0.000000 0.013320 0.003922
v -0.002808 0.013343 0.002780
v 0.004378 0.019392 -0.000005
v 0.003791 0.019392 -0.002177
v 0.001392 0.019387 -0.005160
v 0.002189 0.019392 -0.003766
v -0.000000 0.019392 -0.004348
v -0.003714 0.019389 -0.003689
v -0.002190 0.019392 -0.003766
v -0.003792 0.019392 -0.002177
v -0.004379 0.019392 -0.000005
v 0.001027 0.013343 -0.003810
v -0.001980 0.013320 -0.003406
v -0.003907 0.013332 -0.000976
v 0.001102 0.005138 0.012696
v 0.010618 0.005173 -0.008924
v 0.009943 0.013628 -0.008669
v 0.004779 0.034053 -0.006388
v -0.000000 0.040974 -0.001797
v 0.002058 0.041367 -0.001773
v -0.004878 0.034018 -0.006288
v -0.002059 0.041367 -0.001773
v -0.009871 0.013629 -0.008859
v 0.001095 0.045917 -0.004281
v -0.010454 0.005170 -0.009102
v 0.010949 0.003253 -0.009402
v -0.010950 0.003253 -0.009402
v -0.001096 0.045917 -0.004281
v -0.000000 0.003247 0.012938
vn -0.9503 -0.0019 0.3113
vn -0.9943 0.1069 0.0012
vn -0.9840 -0.0025 -0.1781
vn 0.8297 0.4883 0.2706
vn 0.6418 0.7056 0.3002
vn 0.7007 0.4830 0.5251
vn -0.9351 0.1864 0.3015
vn -0.9103 0.4139 -0.0043
vn -0.0331 0.4802 0.8766
vn -0.3182 0.7001 0.6392
vn -0.3976 0.4916 0.7748
vn 0.4194 0.6756 0.6064
vn 0.4875 0.8419 0.2315
vn 0.2268 0.8945 0.3853
vn 0.8668 -0.0021 -0.4987
vn 0.7923 0.1923 -0.5791
vn 0.9384 0.1687 -0.3014
vn 0.7227 0.6831 -0.1055
vn 0.7089 0.4950 -0.5024
vn 0.5013 0.7126 -0.4907
vn -0.6347 0.6964 0.3350
vn -0.1584 0.8756 0.4564
vn -0.4395 0.8928 0.0990
vn -0.4597 0.8620 -0.2135
vn -0.0651 0.9761 -0.2075
vn 0.2660 0.4783 0.8369
vn 0.1115 0.7039 0.7015
vn 1.0000 -0.0018 -0.0005
vn 0.9826 0.1858 -0.0050
vn -0.7362 -0.0021 -0.6768
vn -0.9338 0.1723 -0.3137
vn -0.7948 0.1835 -0.5785
vn 0.8664 -0.0024 0.4994
vn 0.5833 0.1776 0.7926
vn 0.4270 -0.0031 0.9043
vn -0.3930 0.4816 -0.7833
vn -0.4275 0.6954 -0.5777
vn -0.1043 0.6672 -0.7376
vn 0.5015 0.8609 -0.0859
vn 0.2035 0.9788 0.0220
vn -0.6437 0.6993 -0.3108
vn 0.2999 0.1860 -0.9357
vn -0.0174 0.4793 -0.8775
vn 0.2755 0.4773 -0.8344
vn 0.3297 0.8837 -0.3323
vn -0.6876 0.4934 0.5326
vn 0.5112 0.4764 0.7153
vn -0.2909 0.1882 0.9381
vn 0.0113 0.1815 0.9833
vn -0.0709 0.9933 0.0914
vn 0.2405 0.6721 -0.7003
vn -0.5780 0.1862 -0.7945
vn -0.2532 0.8456 -0.4700
vn 0.9374 0.1838 0.2958
vn 0.8782 0.4781 0.0108
vn -0.6945 0.4745 -0.5409
vn 0.0297 0.0001 -0.9996
vn -0.2881 0.1788 -0.9408
vn -0.0043 0.1764 -0.9843
vn 0.5784 0.1771 -0.7963
vn -0.7957 0.1865 0.5762
vn 0.8301 0.4809 -0.2821
vn -0.7351 0.6775 -0.0224
vn -0.8330 0.4842 -0.2676
vn 0.1035 0.8446 -0.5253
vn 0.5053 0.4772 -0.7190
vn 0.3099 0.1829 0.9330
vn -0.8340 0.4844 0.2644
vn -0.5784 0.1837 0.7948
vn 0.7987 0.1836 0.5730
vn -0.3395 0.0001 -0.9406
vn -0.1791 -0.0027 0.9838
vn -0.6900 -0.0019 0.7238
vn 0.4680 -0.0019 -0.8837
vn 0.8998 0.2941 -0.3223
vn 0.8955 0.2801 0.3458
vn 0.9138 0.2440 -0.3248
vn 0.8040 -0.5833 0.1151
vn 0.0344 -0.4162 -0.9086
vn 0.6623 -0.4198 -0.6205
vn 0.9852 0.1266 -0.1153
vn 0.6996 0.6230 -0.3500
vn 0.7914 0.6088 0.0555
vn 0.0157 -0.2172 0.9760
vn 0.6055 0.5310 0.5928
vn -0.2111 0.5526 0.8063
vn -0.8937 0.0405 0.4468
vn -0.7856 0.6109 0.0976
vn -0.9959 -0.0180 -0.0890
vn 0.3764 -0.7131 0.5915
vn 0.9883 -0.0720 0.1346
vn 0.3625 -0.0875 0.9279
vn 0.6063 -0.4237 -0.6730
vn 0.4192 -0.0353 -0.9072
vn -0.8589 0.4102 -0.3066
vn -0.9019 0.2678 0.3390
vn -0.8980 0.2975 0.3242
vn 0.9134 0.2806 0.2948
vn 0.9216 0.1953 -0.3354
vn -0.6427 -0.6390 -0.4226
vn -0.0642 -0.9979 0.0019
vn -0.8221 -0.0095 -0.5693
vn -0.6714 0.6697 -0.3173
vn -0.5199 0.6413 -0.5643
vn -0.3618 0.6331 0.6843
vn -0.9190 0.2422 0.3111
vn -0.4509 -0.0000 0.8926
vn -0.6508 -0.0876 0.7542
vn 0.1503 0.1114 0.9824
vn 0.6429 -0.0768 0.7621
vn 0.8454 -0.3922 0.3626
vn 0.2877 -0.3880 0.8756
vn 0.7181 0.0540 0.6939
vn -0.2690 -0.5447 -0.7943
vn -0.6735 -0.3405 -0.6561
vn 0.2613 0.8646 -0.4291
vn 0.7254 0.0105 -0.6882
vn -0.1246 0.8682 -0.4803
vn 0.1020 -0.0888 -0.9908
vn -0.0105 0.0936 -0.9956
vn -0.1111 0.0180 -0.9936
vn -0.0885 -0.4657 -0.8805
vn -0.6917 -0.0617 -0.7195
vn -0.9574 -0.0946 0.2727
vn -0.4344 0.0484 -0.8994
vn -0.1564 0.6116 -0.7756
vn 0.0119 0.1570 -0.9875
vn 0.6429 -0.0768 -0.7621
vn -0.6534 -0.0666 -0.7541
vn -0.5323 -0.6303 0.5651
vn -0.9384 -0.3453 0.0133
vn 0.9620 -0.0728 -0.2630
vn 0.7241 -0.2260 0.6516
vn -0.9198 0.2390 -0.3111
vn 0.5485 0.0214 0.8359
vn 0.0831 0.9925 0.0894
vn 0.2668 0.8529 0.4487
vn 0.0012 0.1002 0.9950
vn 0.2284 0.5321 -0.8153
vn 0.8403 0.4928 -0.2260
vn 0.9662 -0.1501 0.2097
vn 0.7090 0.5006 0.4967
vn 0.8326 -0.5511 0.0554
vn 0.1887 0.0239 0.9817
vn -0.1597 0.6096 0.7764
vn -0.4619 0.0387 0.8861
vn -0.3175 -0.5989 0.7351
vn -0.6931 -0.6853 0.2234
vn 0.6707 0.0902 -0.7362
vn 0.4311 0.8626 -0.2649
vn 0.0550 0.9982 -0.0218
vn -0.0036 -1.0000 -0.0021
vn -0.9642 0.1614 0.2104
vn -0.5580 0.7446 0.3663
vn -0.4772 0.8782 -0.0308
vn -0.5443 0.6231 0.5616
vn 0.3345 0.6472 0.6850
vn -0.3582 0.6343 -0.6851
vn 0.8317 -0.3223 0.4522
vn 0.0319 0.1740 0.9842
vn -0.3449 0.6887 0.6378
vn 0.6020 -0.0174 0.7983
vn -0.0022 0.9999 -0.0105
vn 0.0074 0.9999 -0.0081
vn -0.5327 0.0409 -0.8453
vn -0.5654 0.7360 -0.3723
vn -0.7192 0.0682 -0.6915
vn 0.7113 0.0549 -0.7007
vn 0.2506 0.7691 -0.5880
vn 0.5427 0.0401 -0.8390
vn -0.2466 0.7758 -0.5808
vn -0.7085 0.0620 0.7030
vn -0.0140 0.1570 0.9875
vn 0.5928 0.6622 0.4583
vn 0.3576 0.6339 -0.6858
vn -0.4082 0.8556 0.3182
vn -0.7817 -0.2535 0.5698
vn -0.3143 0.7463 -0.5867
vn -0.7005 -0.4846 -0.5240
vn -0.9691 0.2432 -0.0416
vn 0.6953 0.0386 -0.7177
vn 0.3613 0.6234 -0.6934
vn 0.1000 0.0033 -0.9950
vn 0.5681 0.7342 -0.3719
vn -0.7058 -0.2492 0.6631
vn 0.3620 0.6324 0.6849
vn 0.4509 -0.0000 0.8926
vn 0.0382 -0.5222 -0.8520
vn -0.0279 -0.5499 -0.8347
vn -0.0021 -0.5288 -0.8487
vn -0.0596 -0.5449 -0.8364
vn -0.0185 -0.5002 -0.8657
vn 0.2724 0.7497 0.6031
vn 0.9546 0.2709 0.1243
vn 0.9533 0.2873 -0.0932
vn 0.5654 0.7360 0.3723
vn 0.9534 0.2871 -0.0932
vn 0.9060 0.4201 0.0515
vn 0.5222 0.0730 0.8497
vn -0.9534 0.2871 -0.0932
vn -0.9551 0.2816 -0.0924
vn -0.5679 0.7343 0.3719
vn -0.9577 0.2667 0.1084
vn -0.5376 0.0884 0.8385
vn -0.2582 0.7813 0.5682
vn -0.4565 -0.3784 0.8053
vn 0.0428 0.7796 0.6248
vn -0.0428 0.7796 0.6248
vn -0.4687 -0.2168 -0.8563
vn -0.5835 0.5533 -0.5945
vn -0.9593 -0.2590 -0.1128
vn -0.8149 0.5503 0.1819
vn 0.0262 -0.1537 0.9878
vn -0.0089 -0.1127 0.9936
vn -0.0132 -0.1128 0.9935
vn 0.0021 -0.3675 0.9300
vn 0.0185 -0.5003 0.8657
vn -0.0381 -0.5222 0.8520
vn -0.0139 -0.3381 0.9410
vn 0.0279 -0.5500 0.8347
vn -0.0182 -0.1705 -0.9852
vn -0.0095 -0.1167 -0.9931
vn -0.0045 -0.1254 -0.9921
vn 0.9576 0.2667 -0.1092
vn 0.9552 0.2813 0.0923
vn 0.9534 0.2871 0.0932
vn -0.9547 0.2707 -0.1237
vn -0.9533 0.2873 0.0932
vn -0.9534 0.2871 0.0932
vn -0.8958 0.2765 -0.3481
vn 0.0428 0.7796 -0.6248
vn -0.0128 0.7981 -0.6024
vn -0.1811 0.0881 0.9795
vn 0.7880 -0.6102 0.0821
vn -0.4406 -0.0933 0.8928
vn -0.0066 1.0000 0.0072
vn 0.0040 0.9999 0.0118
vn 0.0022 1.0000 0.0097
vn 0.1114 -0.9935 0.0229
vn 0.3025 -0.2252 -0.9262
vn -0.2569 -0.9604 0.1083
vn -0.8360 -0.5438 0.0741
vn -0.1418 -0.9865 0.0822
vn 0.0771 -0.9965 -0.0326
vn -0.7444 -0.6567 0.1207
vn -0.3427 -0.5614 -0.7532
vn 0.2821 -0.3439 -0.8956
vn 0.0256 -0.9969 -0.0741
vn -0.0545 -0.9944 0.0908
vn 0.0183 -0.9997 0.0140
vn 0.0100 -0.9864 -0.1643
vn 0.5679 -0.6402 -0.5172
vn -0.0066 -0.9403 0.3403
vn -0.2721 -0.2341 0.9334
vn -0.4508 -0.0000 -0.8926
vn 0.0117 0.9999 0.0040
vn 0.0074 0.9999 -0.0071
vn -0.0092 1.0000 -0.0029
vn -0.0069 1.0000 0.0063
vn -0.0091 1.0000 -0.0020
vn 0.0096 1.0000 0.0022
vn -0.0029 1.0000 -0.0095
vn 0.9062 0.0054 0.4228
vn 0.4508 -0.0000 -0.8926
vn 0.4702 0.8730 0.1296
vn 0.0195 0.9994 -0.0280
vn 0.0111 -0.1270 0.9918
vn 0.0266 -0.1586 -0.9870
vn -0.0073 0.5398 -0.8418
vn -0.0000 1.0000 -0.0000
vt 0.010000 0.906939
vt 0.254956 0.919498
vt 0.010000 0.913296
vt 0.868847 0.419650
vt 0.859213 0.410803
vt 0.872280 0.409641
vt 0.856004 0.335606
vt 0.839458 0.338169
vt 0.848354 0.325570
vt 0.872468 0.378591
vt 0.856292 0.371199
vt 0.865824 0.364421
vt 0.862686 0.398673
vt 0.847101 0.404252
vt 0.847864 0.394656
vt 0.010000 0.814077
vt 0.254956 0.819033
vt 0.254956 0.806475
vt 0.855495 0.418423
vt 0.871786 0.409546
vt 0.861751 0.402769
vt 0.844251 0.360072
vt 0.845616 0.382224
vt 0.834153 0.373565
vt 0.838099 0.372927
vt 0.839807 0.387663
vt 0.874060 0.388872
vt 0.862309 0.386255
vt 0.010000 0.793917
vt 0.254956 0.793917
vt 0.010000 0.889232
vt 0.254956 0.906940
vt 0.254956 0.894382
vt 0.010000 0.813866
vt 0.254956 0.831591
vt 0.010000 0.838983
vt 0.865947 0.364621
vt 0.853905 0.367700
vt 0.860088 0.378342
vt 0.844056 0.408879
vt 0.838068 0.399369
vt 0.844238 0.360065
vt 0.887084 0.387058
vt 0.872445 0.378599
vt 0.874576 0.388795
vt 0.847317 0.399159
vt 0.855519 0.352764
vt 0.874448 0.399296
vt 0.880401 0.363350
vt 0.885020 0.374861
vt 0.835063 0.388566
vt 0.862997 0.390347
vt 0.254956 0.881824
vt 0.846102 0.379336
vt 0.882328 0.423313
vt 0.865292 0.429738
vt 0.855673 0.352596
vt 0.010000 0.856707
vt 0.254956 0.869265
vt 0.254956 0.856708
vt 0.254956 0.844149
vt 0.878522 0.434870
vt 0.869259 0.419801
vt 0.832250 0.356160
vt 0.873931 0.352758
vt 0.865866 0.343303
vt 0.846959 0.346559
vt 0.849930 0.388833
vt 0.884784 0.411425
vt 0.874157 0.399290
vt 0.880665 0.363239
vt 0.887150 0.387043
vt 0.846990 0.346511
vt 0.887144 0.399360
vt 0.874175 0.352621
vt 0.865765 0.343394
vt 0.885371 0.411495
vt 0.887157 0.399363
vt 0.010000 0.869265
vt 0.010000 0.864120
vt 0.010000 0.888184
vt 0.010000 0.837949
vt 0.885103 0.374831
vt 0.856515 0.335101
vt 0.882706 0.423395
vt 0.111121 0.658272
vt 0.113506 0.756688
vt 0.158952 0.693728
vt 0.199739 0.706632
vt 0.199739 0.696722
vt 0.821528 0.522386
vt 0.780244 0.427615
vt 0.780244 0.533121
vt 0.588822 0.408661
vt 0.660737 0.367709
vt 0.660737 0.422312
vt 0.319483 0.743784
vt 0.224712 0.785068
vt 0.213967 0.743783
vt 0.885800 0.314013
vt 0.846347 0.249277
vt 0.894328 0.249277
vt 0.873237 0.314013
vt 0.888341 0.249277
vt 0.575653 0.600919
vt 0.673924 0.603301
vt 0.372459 0.793920
vt 0.372458 0.816241
vt 0.272892 0.383001
vt 0.243718 0.374772
vt 0.225545 0.383358
vt 0.388345 0.743784
vt 0.272095 0.785068
vt 0.457207 0.785069
vt 0.612229 0.794819
vt 0.654472 0.816239
vt 0.612229 0.815341
vt 0.043058 0.551121
vt 0.016836 0.608385
vt 0.016836 0.551121
vt 0.199739 0.690115
vt 0.199739 0.703415
vt 0.314071 0.892809
vt 0.263177 0.864995
vt 0.361917 0.866463
vt 0.158269 0.711125
vt 0.199739 0.716542
vt 0.844125 0.695775
vt 0.802090 0.684608
vt 0.819050 0.771972
vt 0.500354 0.793922
vt 0.513465 0.816242
vt 0.526575 0.793921
vt 0.918374 0.314013
vt 0.950113 0.249277
vt 0.961987 0.314013
vt 0.973886 0.249277
vt 0.562717 0.743784
vt 0.689709 0.785068
vt 0.029945 0.164960
vt 0.158779 0.716175
vt 0.199739 0.723235
vt 0.588822 0.340407
vt 0.588822 0.367709
vt 0.654471 0.793919
vt 0.819543 0.660223
vt 0.873520 0.666379
vt 0.660737 0.395010
vt 0.660737 0.340408
vt 0.890329 0.620978
vt 0.861126 0.624970
vt 0.737093 0.743782
vt 0.689710 0.785068
vt 0.551979 0.743784
vt 0.925467 0.314013
vt 0.973762 0.314013
vt 0.862366 0.624338
vt 0.949594 0.641324
vt 0.967557 0.832513
vt 0.886401 0.857384
vt 0.887907 0.858403
vt 0.937310 0.600216
vt 0.911343 0.614042
vt 0.951621 0.641003
vt 0.633467 0.277091
vt 0.633464 0.277094
vt 0.214953 0.336987
vt 0.043058 0.608385
vt 0.778156 0.758354
vt 0.819152 0.771331
vt 0.842884 0.698210
vt 0.821528 0.242500
vt 0.780244 0.184374
vt 0.821528 0.057384
vt 0.194585 0.429234
vt 0.194585 0.457316
vt 0.203593 0.443275
vt 0.770728 0.580500
vt 0.705622 0.242440
vt 0.687427 0.579924
vt 0.682254 0.242440
vt 0.596162 0.649846
vt 0.497886 0.650965
vt 0.597974 0.729942
vt 0.498463 0.734266
vt 0.686308 0.678200
vt 0.766404 0.680011
vt 0.746318 0.834559
vt 0.408795 0.834559
vt 0.794164 0.860905
vt 0.699442 0.866463
vt 0.780244 0.358749
vt 0.414701 0.794820
vt 0.843177 0.697635
vt 0.457211 0.785069
vt 0.875045 0.665602
vt 0.821528 0.289887
vt 0.780244 0.195117
vt 0.821528 0.057385
vt 0.780244 0.010000
vt 0.935896 0.600440
vt 0.160403 0.669160
vt 0.160403 0.645793
vt 0.588822 0.449613
vt 0.414701 0.815343
vt 0.227657 0.473763
vt 0.224210 0.449730
vt 0.324848 0.528912
vt 0.324844 0.417456
vt 0.224210 0.497802
vt 0.060362 0.447363
vt 0.066184 0.483679
vt 0.053298 0.483679
vt 0.110132 0.412215
vt 0.066939 0.315791
vt 0.145643 0.312805
vt 0.102009 0.265229
vt 0.150197 0.657555
vt 0.146622 0.757243
vt 0.183191 0.591807
vt 0.233681 0.556791
vt 0.230697 0.635378
vt 0.329960 0.599923
vt 0.574937 0.639938
vt 0.674477 0.636368
vt 0.199739 0.713238
vt 0.053298 0.637136
vt 0.053298 0.572870
vt 0.073342 0.637136
vt 0.093386 0.572870
vt 0.093386 0.637136
vt 0.263177 0.864995
vt 0.588822 0.435962
vt 0.660737 0.449613
vt 0.588822 0.477788
vt 0.660737 0.476914
vt 0.324854 0.418628
vt 0.563281 0.587953
vt 0.563271 0.358661
vt 0.324838 0.530085
vt 0.563282 0.587768
vt 0.073342 0.637136
vt 0.844951 0.832148
vt 0.167721 0.545376
vt 0.158124 0.465448
vt 0.171010 0.465448
vt 0.844951 0.832149
vt 0.844129 0.314013
vt 0.932899 0.249277
vt 0.194585 0.401152
vt 0.203593 0.359029
vt 0.203593 0.415193
vt 0.215290 0.398459
vt 0.264361 0.378655
vt 0.282409 0.400443
vt 0.837969 0.641794
vt 0.588822 0.395010
vt 0.857167 0.888957
vt 0.836957 0.926529
vt 0.828862 0.966286
vt 0.842665 0.927974
vt 0.856760 0.887296
vt 0.888595 0.859068
vt 0.927974 0.842665
vt 0.887951 0.858466
vt 0.856748 0.887324
vt 0.829591 0.966608
vt 0.836608 0.926191
vt 0.858131 0.887398
vt 0.967623 0.832665
vt 0.019093 0.067412
vt 0.049697 0.167038
vt 0.205382 0.332110
vt 0.734936 0.124818
vt 0.742348 0.078019
vt 0.428362 0.374148
vt 0.428362 0.374148
vt 0.080962 0.228398
vt 0.203593 0.471357
vt 0.203593 0.499439
vt 0.194585 0.485398
vt 0.203593 0.387111
vt 0.194585 0.373070
vt 0.194585 0.344988
vt 0.194585 0.513480
vt 0.890263 0.620891
vt 0.821528 0.427612
vt 0.055536 0.563607
vt 0.164560 0.429131
vt 0.029945 0.164960
vt 0.802440 0.683920
vt 0.778165 0.758299
vt 0.705513 0.707252
vt 0.731497 0.702833
vt 0.676848 0.697575
vt 0.167720 0.545376
vt 0.164361 0.429131
vt 0.059152 0.447363
vt 0.055536 0.563607
vt 0.931373 0.011082
vt 0.931351 0.239905
vt 0.931369 0.010897
s 1
usemtl m0
f 70/1/1 37/2/2 38/3/3
f 60/4/4 52/5/5 59/6/6
f 61/7/7 17/8/8 37/9/2
f 56/10/9 49/11/10 55/12/11
f 51/13/12 47/14/13 46/15/14
f 43/16/15 34/17/16 35/18/17
f 16/19/18 24/20/19 15/21/20
f 48/22/21 45/23/22 3/24/23
f 6/25/24 3/24/23 2/26/25
f 57/27/26 50/28/27 56/10/9
f 44/29/28 35/18/17 36/30/29
f 39/31/30 27/32/31 28/33/32
f 74/34/33 67/35/34 73/36/35
f 20/37/36 12/38/37 13/39/38
f 9/40/39 5/41/40 47/14/13
f 47/14/13 16/19/18 9/40/39
f 11/42/41 3/24/23 6/25/24
f 32/43/42 21/44/43 22/45/44
f 5/41/40 4/46/45 2/26/25
f 54/47/46 49/11/10 48/22/21
f 59/6/6 51/13/12 58/48/47
f 64/49/48 56/10/9 55/12/11
f 65/50/49 57/27/26 56/10/9
f 45/23/22 50/28/27 46/15/14
f 2/26/25 3/24/23 1/51/50
f 14/52/51 21/44/43 13/39/38
f 39/31/30 28/33/32 29/53/52
f 7/54/53 11/42/41 6/25/24
f 69/55/54 26/56/55 60/4/4
f 5/41/40 2/26/25 1/51/50
f 5/41/40 9/40/39 4/46/45
f 38/3/3 37/2/2 27/32/31
f 12/38/37 19/57/56 11/42/41
f 41/58/57 30/59/58 31/60/59
f 43/16/15 33/35/60 34/17/16
f 70/1/1 62/33/61 61/32/7
f 32/61/42 41/58/57 31/60/59
f 36/62/29 25/63/62 26/56/55
f 48/22/21 3/24/23 10/64/63
f 29/65/52 19/57/56 20/37/36
f 28/66/32 18/67/64 19/57/56
f 13/39/38 7/54/53 8/68/65
f 34/69/16 23/70/66 24/20/19
f 21/44/43 30/71/58 20/37/36
f 66/72/67 58/48/47 57/27/26
f 53/73/68 10/64/63 17/8/8
f 54/47/46 48/22/21 53/73/68
f 25/63/62 34/69/16 24/20/19
f 33/74/60 22/45/44 23/70/66
f 60/4/4 16/19/18 52/5/5
f 57/27/26 51/13/12 50/28/27
f 63/75/69 54/47/46 62/76/61
f 64/49/48 55/12/11 63/75/69
f 18/67/64 10/64/63 11/42/41
f 4/46/45 14/52/51 8/68/65
f 68/77/70 60/4/4 59/6/6
f 67/78/34 59/6/6 58/48/47
f 62/76/61 53/73/68 61/7/7
f 16/19/18 4/46/45 9/40/39
f 40/79/71 29/53/52 30/59/58
f 23/70/66 14/52/51 15/21/20
f 44/29/28 69/18/54 74/34/33
f 72/80/72 63/53/69 71/81/73
f 42/82/74 32/61/42 33/35/60
f 73/36/35 65/60/49 72/80/72
f 70/1/1 61/32/7 37/2/2
f 56/10/9 50/28/27 49/11/10
f 51/13/12 52/5/5 47/14/13
f 3/24/23 45/23/22 1/51/50
f 16/19/18 25/63/62 24/20/19
f 48/22/21 49/11/10 45/23/22
f 14/52/51 13/39/38 8/68/65
f 44/29/28 43/16/15 35/18/17
f 39/31/30 38/3/3 27/32/31
f 74/34/33 68/17/70 67/35/34
f 74/34/33 69/18/54 68/17/70
f 2/26/25 8/68/65 7/54/53
f 47/14/13 52/5/5 16/19/18
f 11/42/41 10/64/63 3/24/23
f 32/43/42 31/83/59 21/44/43
f 54/47/46 55/12/11 49/11/10
f 18/67/64 27/84/31 17/8/8
f 59/6/6 52/5/5 51/13/12
f 64/49/48 65/50/49 56/10/9
f 61/7/7 53/73/68 17/8/8
f 65/50/49 66/72/67 57/27/26
f 14/52/51 22/45/44 21/44/43
f 7/54/53 12/38/37 11/42/41
f 69/55/54 36/62/29 26/56/55
f 12/38/37 20/37/36 19/57/56
f 41/58/57 40/79/71 30/59/58
f 72/80/72 65/60/49 64/59/48
f 43/16/15 42/82/74 33/35/60
f 70/1/1 71/81/73 62/33/61
f 32/61/42 42/82/74 41/58/57
f 24/20/19 23/70/66 15/21/20
f 11/42/41 19/57/56 18/67/64
f 50/28/27 51/13/12 46/15/14
f 36/62/29 35/85/17 25/63/62
f 16/19/18 26/56/55 25/63/62
f 46/15/14 5/41/40 1/51/50
f 49/11/10 50/28/27 45/23/22
f 47/14/13 5/41/40 46/15/14
f 29/65/52 28/66/32 19/57/56
f 7/54/53 13/39/38 12/38/37
f 28/66/32 27/84/31 18/67/64
f 34/69/16 33/74/60 23/70/66
f 20/37/36 30/71/58 29/65/52
f 21/44/43 31/83/59 30/71/58
f 66/72/67 67/78/34 58/48/47
f 2/26/25 7/54/53 6/25/24
f 53/73/68 48/22/21 10/64/63
f 27/84/31 37/9/2 17/8/8
f 25/63/62 35/85/17 34/69/16
f 33/74/60 32/43/42 22/45/44
f 4/46/45 8/68/65 2/26/25
f 60/4/4 26/56/55 16/19/18
f 57/27/26 58/48/47 51/13/12
f 63/75/69 55/12/11 54/47/46
f 18/67/64 17/8/8 10/64/63
f 4/46/45 15/21/20 14/52/51
f 68/77/70 69/55/54 60/4/4
f 67/78/34 68/77/70 59/6/6
f 62/76/61 54/47/46 53/73/68
f 16/19/18 15/21/20 4/46/45
f 40/79/71 39/31/30 29/53/52
f 23/70/66 22/45/44 14/52/51
f 21/44/43 20/37/36 13/39/38
f 44/29/28 36/30/29 69/18/54
f 72/80/72 64/59/48 63/53/69
f 73/36/35 66/61/67 65/60/49
f 71/81/73 63/53/69 62/33/61
f 45/23/22 46/15/14 1/51/50
f 73/36/35 67/35/34 66/61/67
usemtl m1
f 220/86/75 180/87/76 219/87/77
f 86/88/78 89/89/79 84/90/80
f 155/91/81 153/92/82 154/93/83
f 204/94/84 92/95/85 95/96/86
f 164/97/87 166/98/88 175/99/89
f 119/100/90 80/101/91 83/102/92
f 80/101/91 79/103/93 81/104/94
f 226/105/95 196/106/96 190/105/97
f 219/107/77 181/108/98 229/108/99
f 76/109/100 75/110/101 119/111/90
f 174/112/102 165/113/103 173/114/104
f 182/115/105 197/116/106 198/117/107
f 149/118/108 218/119/109 151/120/110
f 86/88/78 85/121/111 103/122/112
f 151/123/110 218/124/109 152/125/113
f 89/89/79 87/126/114 90/127/115
f 111/128/116 112/129/117 114/130/118
f 139/131/119 134/132/120 143/133/121
f 81/104/94 75/134/122 100/135/123
f 76/136/100 101/137/124 100/135/123
f 172/138/125 173/114/104 171/139/126
f 147/140/127 135/120/128 136/118/129
f 88/141/130 91/142/131 90/127/115
f 203/143/132 92/95/85 120/144/133
f 196/145/96 230/116/134 197/116/106
f 117/146/135 110/147/136 105/128/137
f 232/132/138 182/115/105 198/117/107
f 203/143/132 208/148/139 202/149/140
f 115/150/141 110/147/142 116/151/143
f 160/152/144 161/153/145 162/154/146
f 102/155/147 101/137/124 77/156/148
f 113/157/149 109/147/150 108/158/151
f 109/147/150 112/146/117 111/128/116
f 176/159/152 117/160/152 127/161/152
f 124/162/153 122/163/154 123/164/155
f 173/165/104 163/166/156 158/167/157
f 136/118/129 139/119/119 143/168/121
f 134/132/120 145/115/158 143/133/121
f 118/169/159 106/170/160 121/171/161
f 159/172/162 158/173/157 160/174/144
f 210/175/163 209/176/164 208/177/139
f 131/178/165 132/179/166 133/180/167
f 133/180/167 132/179/166 147/181/127
f 139/182/119 140/183/168 141/184/169
f 141/184/169 140/183/168 142/185/170
f 143/186/121 144/187/171 133/180/167
f 133/180/167 144/187/171 131/178/165
f 133/188/167 147/189/127 136/190/129
f 147/191/127 140/125/168 135/123/128
f 148/188/172 149/190/108 150/189/173
f 150/191/173 151/123/110 152/125/113
f 85/121/111 86/88/78 84/90/80
f 159/172/162 157/192/174 158/173/157
f 165/113/103 175/99/89 166/98/88
f 138/193/175 134/132/120 139/131/119
f 125/147/176 127/146/177 121/171/161
f 167/194/178 121/171/161 110/147/136
f 162/154/146 163/195/156 164/97/87
f 130/146/179 129/196/180 167/194/178
f 168/197/181 169/198/182 153/92/82
f 170/199/183 171/200/126 169/198/182
f 124/201/153 123/164/155 129/196/180
f 142/185/170 140/183/168 177/202/184
f 177/202/184 140/183/168 147/203/127
f 204/94/84 95/96/86 205/204/185
f 181/108/98 178/193/186 179/205/187
f 186/206/188 187/207/189 185/208/190
f 185/208/190 187/207/189 188/209/191
f 185/208/190 189/210/192 186/206/188
f 180/211/76 195/212/193 178/213/186
f 188/214/194 187/215/195 192/216/196
f 192/216/196 187/215/195 193/217/197
f 191/86/198 188/214/194 194/218/199
f 194/218/199 188/214/194 192/216/196
f 194/218/199 195/219/193 191/86/198
f 191/86/198 195/219/193 180/87/76
f 199/220/200 189/221/201 200/222/202
f 200/222/202 189/221/201 185/223/203
f 200/222/202 185/223/203 201/224/204
f 201/224/204 185/223/203 190/105/97
f 201/224/204 190/105/97 184/225/205
f 184/225/205 190/105/97 196/106/96
f 88/141/130 104/226/206 91/142/131
f 192/227/196 193/228/207 150/229/173
f 150/229/173 199/230/208 200/231/202
f 194/185/199 192/202/196 152/183/113
f 152/183/113 192/202/196 150/203/173
f 86/88/78 103/122/112 88/141/130
f 139/232/119 135/123/128 140/125/168
f 150/181/173 200/179/202 148/180/172
f 148/180/172 200/179/202 201/178/204
f 208/148/139 216/233/209 211/234/210
f 217/235/211 98/236/212 211/234/210
f 219/87/77 141/219/169 220/86/75
f 220/86/75 141/219/169 142/218/170
f 221/237/213 226/238/214 220/239/215
f 221/237/216 223/207/217 222/206/218
f 224/240/219 221/237/216 225/210/220
f 225/210/220 221/237/216 222/206/218
f 188/209/221 190/241/222 185/208/223
f 221/214/224 177/216/184 223/215/225
f 223/215/225 177/216/184 227/217/226
f 220/86/75 142/218/170 221/214/224
f 221/214/224 142/218/170 177/216/184
f 224/223/227 225/221/228 132/222/166
f 132/222/166 225/221/228 231/220/229
f 226/105/95 224/223/227 131/224/165
f 131/224/165 224/223/227 132/222/166
f 228/106/230 226/105/95 144/225/171
f 144/225/171 226/105/95 131/224/165
f 177/227/184 147/242/127 227/228/231
f 150/229/173 193/228/207 199/230/208
f 132/231/166 231/230/232 147/242/127
f 88/141/130 103/122/112 104/226/206
f 145/115/158 230/116/134 228/145/230
f 229/108/99 138/193/175 219/107/77
f 194/185/199 152/183/113 195/184/193
f 195/184/193 152/183/113 218/182/109
f 183/186/233 148/180/172 184/187/205
f 184/187/205 148/180/172 201/178/204
f 178/193/186 232/132/138 179/205/187
f 136/190/129 143/243/121 133/188/167
f 183/244/233 184/245/205 182/246/105
f 220/86/75 191/86/198 180/87/76
f 79/103/93 75/134/122 81/104/94
f 204/94/84 120/144/133 92/95/85
f 149/190/108 148/188/172 183/247/233
f 119/100/90 78/248/234 80/101/91
f 80/101/91 78/248/234 79/103/93
f 102/155/147 83/102/92 82/249/235
f 226/105/95 228/106/230 196/106/96
f 100/135/123 75/134/122 76/136/100
f 219/107/77 180/107/76 181/108/98
f 97/250/236 98/251/212 95/252/86
f 95/252/86 94/176/237 96/175/238
f 96/175/238 97/250/236 95/252/86
f 75/110/122 78/253/234 119/111/90
f 102/254/147 77/255/148 119/111/90
f 77/255/148 76/109/100 119/111/90
f 174/112/102 175/99/89 165/113/103
f 182/115/105 196/145/96 197/116/106
f 149/118/108 183/168/233 218/119/109
f 89/89/79 86/88/78 87/126/114
f 76/136/100 77/156/148 101/137/124
f 170/152/183 172/138/125 171/139/126
f 216/233/209 217/235/211 211/234/210
f 217/235/211 205/204/185 98/236/212
f 102/155/147 119/100/90 83/102/92
f 203/143/132 202/149/140 92/95/85
f 196/145/96 228/145/230 230/116/134
f 117/146/239 116/256/143 110/147/142
f 232/132/138 183/133/233 182/115/105
f 203/143/132 215/257/240 208/148/139
f 164/97/87 163/195/156 166/98/88
f 102/155/147 82/249/235 101/137/124
f 109/147/150 113/256/149 112/146/117
f 127/161/241 126/258/242 122/259/243
f 122/259/243 124/260/244 127/161/241
f 124/260/244 129/261/180 127/161/241
f 129/261/180 128/262/245 176/159/246
f 128/262/245 130/263/179 176/159/246
f 130/263/179 167/264/178 176/159/246
f 176/159/247 114/264/247 112/265/247
f 112/265/248 113/266/249 176/159/250
f 113/266/249 108/261/251 176/159/250
f 108/261/251 107/267/252 117/160/239
f 107/267/252 115/268/141 117/160/239
f 115/268/141 116/269/143 117/160/239
f 117/160/253 106/264/160 127/161/254
f 106/264/160 118/270/159 127/161/254
f 118/270/159 121/264/161 127/161/254
f 127/161/241 129/261/180 176/159/246
f 176/159/250 108/261/251 117/160/239
f 87/126/114 88/141/130 90/127/115
f 154/271/83 153/272/82 169/273/182
f 173/165/104 165/274/103 163/166/156
f 165/274/103 166/275/88 163/166/156
f 161/276/145 158/167/157 163/166/156
f 169/273/182 171/277/126 173/165/104
f 158/167/157 157/278/174 154/271/83
f 154/271/83 169/273/182 158/167/157
f 169/273/182 173/165/104 158/167/157
f 205/204/185 95/96/86 98/236/212
f 107/162/252 108/158/251 115/150/141
f 136/118/129 135/120/128 139/119/119
f 134/132/120 146/117/255 145/115/158
f 94/176/237 95/252/86 92/279/85
f 92/279/85 202/280/140 93/281/256
f 202/280/140 208/177/139 207/281/257
f 208/177/139 211/282/210 210/175/163
f 211/282/210 98/251/212 213/283/258
f 98/251/212 97/250/236 99/283/259
f 98/251/212 99/283/259 214/284/260
f 93/281/256 94/176/237 92/279/85
f 98/251/212 214/284/260 213/283/258
f 206/285/261 93/281/256 202/280/140
f 207/281/257 206/285/261 202/280/140
f 211/282/210 213/283/258 212/250/262
f 209/176/164 207/281/257 208/177/139
f 211/282/210 212/250/262 210/175/163
f 122/286/154 126/151/242 125/147/176
f 160/174/144 158/173/157 161/200/145
f 156/287/263 155/91/81 154/93/83
f 159/172/162 156/287/263 157/192/174
f 156/287/263 154/93/83 157/192/174
f 138/193/175 137/205/264 134/132/120
f 125/147/176 126/256/242 127/146/241
f 162/154/146 161/153/145 163/195/156
f 110/147/142 115/150/141 108/158/265
f 109/147/150 111/128/116 114/130/118
f 114/130/118 167/194/178 109/147/150
f 123/164/155 122/163/154 125/147/176
f 125/147/176 121/171/161 123/164/155
f 106/170/160 105/128/137 121/171/161
f 105/128/137 110/147/136 121/171/161
f 110/147/266 108/158/151 167/194/178
f 108/158/151 109/147/150 167/194/178
f 167/194/178 129/196/180 123/164/155
f 167/194/178 123/164/155 121/171/161
f 130/146/179 128/256/245 129/196/180
f 168/197/181 170/199/183 169/198/182
f 181/108/98 180/107/76 178/193/186
f 218/288/109 178/213/186 195/212/193
f 218/131/109 183/133/233 232/132/138
f 144/245/171 145/246/158 228/289/230
f 150/290/173 149/118/108 151/120/110
f 231/230/232 227/228/231 147/242/127
f 155/91/81 168/197/181 153/92/82
f 117/291/135 105/128/137 106/170/160
f 176/292/246 167/194/178 114/130/118
f 208/148/139 215/257/240 216/233/209
f 173/114/104 172/138/125 174/112/102
f 79/293/93 78/294/234 75/295/122
f 143/296/121 145/246/158 144/245/171
f 196/297/96 182/246/105 184/245/205
f 226/238/267 221/237/216 224/240/219
f 188/209/268 191/239/198 190/241/269
f 219/298/77 138/213/175 141/212/169
f 141/212/169 138/213/175 139/299/119
f 145/115/158 146/117/255 230/116/134
f 229/108/99 137/205/264 138/193/175
f 178/193/186 218/131/109 232/132/138
f 190/300/269 191/301/198 220/301/75
f 220/301/270 226/302/95 190/300/97
