# Blender 5.2.2 LTS
# www.blender.org
mtllib FireShutterBox.mtl
o part3
v 2.050000 4.299973 0.287500
v 2.050000 4.299973 0.287500
v 2.050000 4.299973 0.287500
v 2.050000 4.099973 0.287500
v 2.050000 4.099973 0.287500
v 2.050000 4.099973 0.287500
v 2.050000 3.999950 -0.010500
v 2.050000 3.999950 -0.010500
v 2.050000 3.999950 -0.010500
v 2.050000 3.999950 0.187500
v 2.050000 3.999950 0.187500
v 2.050000 3.999950 0.187500
v 2.050000 4.299973 -0.010500
v 2.050000 4.299973 -0.010500
v 2.050000 4.299973 -0.010500
v -2.050000 4.299973 0.287500
v -2.050000 4.299973 0.287500
v -2.050000 4.299973 0.287500
v -2.050000 4.099973 0.287500
v -2.050000 4.099973 0.287500
v -2.050000 4.099973 0.287500
v -2.050000 3.999950 -0.010500
v -2.050000 3.999950 -0.010500
v -2.050000 3.999950 -0.010500
v -2.050000 3.999950 0.187500
v -2.050000 3.999950 0.187500
v -2.050000 3.999950 0.187500
v -2.050000 4.299973 -0.010500
v -2.050000 4.299973 -0.010500
v -2.050000 4.299973 -0.010500
v 2.027159 2.585624 0.012358
v 2.027159 2.585624 0.012358
v 2.025340 2.590151 0.010545
v 2.025946 2.590151 0.012358
v 2.025946 2.590151 0.012358
v 2.026634 2.594981 0.010545
v 2.027159 2.594678 0.012358
v 2.027159 2.594678 0.012358
v 2.030170 2.598517 0.010545
v 2.030473 2.597992 0.012358
v 2.030473 2.597992 0.012358
v 2.035001 2.590151 0.013025
v 2.026634 2.585321 0.010545
v 2.030473 2.582309 0.012358
v 2.030473 2.582309 0.012358
v 2.030170 2.581785 0.010545
v 2.035001 2.581097 0.012358
v 2.035001 2.581097 0.012358
v 2.035001 2.580491 0.010545
v 2.039528 2.582309 0.012358
v 2.039528 2.582309 0.012358
v 2.039831 2.581785 0.010545
v 2.042842 2.585624 0.012358
v 2.042842 2.585624 0.012358
v 2.043367 2.585321 0.010545
v 2.044055 2.590151 0.012358
v 2.044055 2.590151 0.012358
v 2.044661 2.590151 0.010545
v 2.042842 2.594678 0.012358
v 2.042842 2.594678 0.012358
v 2.043367 2.594981 0.010545
v 2.039528 2.597992 0.012358
v 2.039528 2.597992 0.012358
v 2.039831 2.598517 0.010545
v 2.035001 2.599205 0.012358
v 2.035001 2.599205 0.012358
v 2.035001 2.599811 0.010545
v 2.035001 1.315444 0.013025
v 2.030473 1.323285 0.012358
v 2.030473 1.323285 0.012358
v 2.030170 1.323810 0.010545
v 2.027159 1.319971 0.012358
v 2.027159 1.319971 0.012358
v 2.026634 1.320274 0.010545
v 2.025946 1.315444 0.012358
v 2.025946 1.315444 0.012358
v 2.025340 1.315444 0.010545
v 2.027159 1.310917 0.012358
v 2.027159 1.310917 0.012358
v 2.026634 1.310614 0.010545
v 2.030473 1.307602 0.012358
v 2.030473 1.307602 0.012358
v 2.030170 1.307078 0.010545
v 2.035001 1.306389 0.012358
v 2.035001 1.306389 0.012358
v 2.035001 1.305783 0.010545
v 2.039528 1.307602 0.012358
v 2.039528 1.307602 0.012358
v 2.039831 1.307078 0.010545
v 2.042842 1.310917 0.012358
v 2.042842 1.310917 0.012358
v 2.043367 1.310614 0.010545
v 2.044055 1.315444 0.012358
v 2.044055 1.315444 0.012358
v 2.044661 1.315444 0.010545
v 2.042842 1.319971 0.012358
v 2.042842 1.319971 0.012358
v 2.043367 1.320274 0.010545
v 2.039528 1.323285 0.012358
v 2.039528 1.323285 0.012358
v 2.039831 1.323810 0.010545
v 2.035001 1.324498 0.012358
v 2.035001 1.324498 0.012358
v 2.035001 1.325104 0.010545
v 2.035001 0.059685 0.010545
v 2.035001 0.059079 0.012358
v 2.035001 0.059079 0.012358
v 2.039831 0.058391 0.010545
v 2.039528 0.057866 0.012358
v 2.039528 0.057866 0.012358
v 2.043367 0.054855 0.010545
v 2.042842 0.054552 0.012358
v 2.042842 0.054552 0.012358
v 2.044661 0.050025 0.010545
v 2.044055 0.050025 0.012358
v 2.044055 0.050025 0.012358
v 2.043367 0.045195 0.010545
v 2.042842 0.045498 0.012358
v 2.042842 0.045498 0.012358
v 2.039831 0.041659 0.010545
v 2.039528 0.042184 0.012358
v 2.039528 0.042184 0.012358
v 2.035001 0.040365 0.010545
v 2.035001 0.040971 0.012358
v 2.035001 0.040971 0.012358
v 2.030170 0.041659 0.010545
v 2.030473 0.042184 0.012358
v 2.030473 0.042184 0.012358
v 2.026634 0.045195 0.010545
v 2.027159 0.045498 0.012358
v 2.027159 0.045498 0.012358
v 2.025340 0.050025 0.010545
v 2.025946 0.050025 0.012358
v 2.025946 0.050025 0.012358
v 2.026634 0.054855 0.010545
v 2.027159 0.054552 0.012358
v 2.027159 0.054552 0.012358
v 2.030170 0.058391 0.010545
v 2.030473 0.057866 0.012358
v 2.030473 0.057866 0.012358
v 2.035001 0.050025 0.013025
v 2.027159 3.860331 0.012358
v 2.027159 3.860331 0.012358
v 2.025340 3.864858 0.010545
v 2.025946 3.864858 0.012358
v 2.025946 3.864858 0.012358
v 2.026634 3.869688 0.010545
v 2.027159 3.869385 0.012358
v 2.027159 3.869385 0.012358
v 2.030170 3.873224 0.010545
v 2.030473 3.872699 0.012358
v 2.030473 3.872699 0.012358
v 2.035001 3.864858 0.013025
v 2.026634 3.860028 0.010545
v 2.030473 3.857017 0.012358
v 2.030473 3.857017 0.012358
v 2.030170 3.856492 0.010545
v 2.035001 3.855803 0.012358
v 2.035001 3.855803 0.012358
v 2.035001 3.855197 0.010545
v 2.039528 3.857017 0.012358
v 2.039528 3.857017 0.012358
v 2.039831 3.856492 0.010545
v 2.042842 3.860331 0.012358
v 2.042842 3.860331 0.012358
v 2.043367 3.860028 0.010545
v 2.044055 3.864858 0.012358
v 2.044055 3.864858 0.012358
v 2.044661 3.864858 0.010545
v 2.042842 3.869385 0.012358
v 2.042842 3.869385 0.012358
v 2.043367 3.869688 0.010545
v 2.039528 3.872699 0.012358
v 2.039528 3.872699 0.012358
v 2.039831 3.873224 0.010545
v 2.035001 3.873912 0.012358
v 2.035001 3.873912 0.012358
v 2.035001 3.874518 0.010545
v -2.027159 2.585624 0.012358
v -2.027159 2.585624 0.012358
v -2.025340 2.590151 0.010545
v -2.025946 2.590151 0.012358
v -2.025946 2.590151 0.012358
v -2.026634 2.594981 0.010545
v -2.027159 2.594678 0.012358
v -2.027159 2.594678 0.012358
v -2.030170 2.598517 0.010545
v -2.030473 2.597992 0.012358
v -2.030473 2.597992 0.012358
v -2.035001 2.590151 0.013025
v -2.026634 2.585321 0.010545
v -2.030473 2.582309 0.012358
v -2.030473 2.582309 0.012358
v -2.030170 2.581785 0.010545
v -2.035001 2.581097 0.012358
v -2.035001 2.581097 0.012358
v -2.035001 2.580491 0.010545
v -2.039528 2.582309 0.012358
v -2.039528 2.582309 0.012358
v -2.039831 2.581785 0.010545
v -2.042842 2.585624 0.012358
v -2.042842 2.585624 0.012358
v -2.043367 2.585321 0.010545
v -2.044055 2.590151 0.012358
v -2.044055 2.590151 0.012358
v -2.044661 2.590151 0.010545
v -2.042842 2.594678 0.012358
v -2.042842 2.594678 0.012358
v -2.043367 2.594981 0.010545
v -2.039528 2.597992 0.012358
v -2.039528 2.597992 0.012358
v -2.039831 2.598517 0.010545
v -2.035001 2.599205 0.012358
v -2.035001 2.599205 0.012358
v -2.035001 2.599811 0.010545
v -2.035001 1.315444 0.013025
v -2.030473 1.323285 0.012358
v -2.030473 1.323285 0.012358
v -2.030170 1.323810 0.010545
v -2.027159 1.319971 0.012358
v -2.027159 1.319971 0.012358
v -2.026634 1.320274 0.010545
v -2.025946 1.315444 0.012358
v -2.025946 1.315444 0.012358
v -2.025340 1.315444 0.010545
v -2.027159 1.310917 0.012358
v -2.027159 1.310917 0.012358
v -2.026634 1.310614 0.010545
v -2.030473 1.307602 0.012358
v -2.030473 1.307602 0.012358
v -2.030170 1.307078 0.010545
v -2.035001 1.306389 0.012358
v -2.035001 1.306389 0.012358
v -2.035001 1.305783 0.010545
v -2.039528 1.307602 0.012358
v -2.039528 1.307602 0.012358
v -2.039831 1.307078 0.010545
v -2.042842 1.310917 0.012358
v -2.042842 1.310917 0.012358
v -2.043367 1.310614 0.010545
v -2.044055 1.315444 0.012358
v -2.044055 1.315444 0.012358
v -2.044661 1.315444 0.010545
v -2.042842 1.319971 0.012358
v -2.042842 1.319971 0.012358
v -2.043367 1.320274 0.010545
v -2.039528 1.323285 0.012358
v -2.039528 1.323285 0.012358
v -2.039831 1.323810 0.010545
v -2.035001 1.324498 0.012358
v -2.035001 1.324498 0.012358
v -2.035001 1.325104 0.010545
v -2.035001 0.059685 0.010545
v -2.035001 0.059079 0.012358
v -2.035001 0.059079 0.012358
v -2.039831 0.058391 0.010545
v -2.039528 0.057866 0.012358
v -2.039528 0.057866 0.012358
v -2.043367 0.054855 0.010545
v -2.042842 0.054552 0.012358
v -2.042842 0.054552 0.012358
v -2.044661 0.050025 0.010545
v -2.044055 0.050025 0.012358
v -2.044055 0.050025 0.012358
v -2.043367 0.045195 0.010545
v -2.042842 0.045498 0.012358
v -2.042842 0.045498 0.012358
v -2.039831 0.041659 0.010545
v -2.039528 0.042184 0.012358
v -2.039528 0.042184 0.012358
v -2.035001 0.040365 0.010545
v -2.035001 0.040971 0.012358
v -2.035001 0.040971 0.012358
v -2.030170 0.041659 0.010545
v -2.030473 0.042184 0.012358
v -2.030473 0.042184 0.012358
v -2.026634 0.045195 0.010545
v -2.027159 0.045498 0.012358
v -2.027159 0.045498 0.012358
v -2.025340 0.050025 0.010545
v -2.025946 0.050025 0.012358
v -2.025946 0.050025 0.012358
v -2.026634 0.054855 0.010545
v -2.027159 0.054552 0.012358
v -2.027159 0.054552 0.012358
v -2.030170 0.058391 0.010545
v -2.030473 0.057866 0.012358
v -2.030473 0.057866 0.012358
v -2.035001 0.050025 0.013025
v -2.027159 3.860331 0.012358
v -2.027159 3.860331 0.012358
v -2.025340 3.864858 0.010545
v -2.025946 3.864858 0.012358
v -2.025946 3.864858 0.012358
v -2.026634 3.869688 0.010545
v -2.027159 3.869385 0.012358
v -2.027159 3.869385 0.012358
v -2.030170 3.873224 0.010545
v -2.030473 3.872699 0.012358
v -2.030473 3.872699 0.012358
v -2.035001 3.864858 0.013025
v -2.026634 3.860028 0.010545
v -2.030473 3.857017 0.012358
v -2.030473 3.857017 0.012358
v -2.030170 3.856492 0.010545
v -2.035001 3.855803 0.012358
v -2.035001 3.855803 0.012358
v -2.035001 3.855197 0.010545
v -2.039528 3.857017 0.012358
v -2.039528 3.857017 0.012358
v -2.039831 3.856492 0.010545
v -2.042842 3.860331 0.012358
v -2.042842 3.860331 0.012358
v -2.043367 3.860028 0.010545
v -2.044055 3.864858 0.012358
v -2.044055 3.864858 0.012358
v -2.044661 3.864858 0.010545
v -2.042842 3.869385 0.012358
v -2.042842 3.869385 0.012358
v -2.043367 3.869688 0.010545
v -2.039528 3.872699 0.012358
v -2.039528 3.872699 0.012358
v -2.039831 3.873224 0.010545
v -2.035001 3.873912 0.012358
v -2.035001 3.873912 0.012358
v -2.035001 3.874518 0.010545
v 2.050000 0.000000 -0.010500
v 2.050000 0.000000 -0.010500
v 2.000000 0.000000 0.007413
v 2.000000 0.000000 0.007413
v 2.003087 0.000000 0.010500
v 2.003087 0.000000 0.010500
v 2.000000 0.000000 -0.010500
v 2.000000 0.000000 -0.010500
v 2.050000 0.000000 0.010500
v 2.050000 0.000000 0.010500
v 2.000000 3.999891 -0.010500
v 2.000000 3.999891 -0.010500
v 2.050000 3.999891 -0.010500
v 2.050000 3.999891 -0.010500
v 2.000000 3.999891 0.007413
v 2.000000 3.999891 0.007413
v 2.003087 3.999891 0.010500
v 2.003087 3.999891 0.010500
v 2.050000 3.999891 0.010500
v 2.050000 3.999891 0.010500
v 2.000000 0.000000 0.006170
v 2.000000 0.000000 0.006170
v 2.000000 3.999891 0.006170
v 2.000000 3.999891 0.006170
v 2.000000 0.000000 -0.007342
v 2.000000 0.000000 -0.007342
v 2.000000 3.999891 -0.007342
v 2.000000 3.999891 -0.007342
v 2.009984 0.000000 -0.007342
v 2.009984 0.000000 -0.007342
v 2.009984 0.000000 0.006170
v 2.009984 0.000000 0.006170
v 2.009984 3.999891 -0.007342
v 2.009984 3.999891 -0.007342
v 2.009984 3.999891 0.006170
v 2.009984 3.999891 0.006170
v -2.050000 0.000000 -0.010500
v -2.050000 0.000000 -0.010500
v -2.000000 0.000000 0.007413
v -2.000000 0.000000 0.007413
v -2.003087 0.000000 0.010500
v -2.003087 0.000000 0.010500
v -2.000000 0.000000 -0.010500
v -2.000000 0.000000 -0.010500
v -2.050000 0.000000 0.010500
v -2.050000 0.000000 0.010500
v -2.000000 3.999891 -0.010500
v -2.000000 3.999891 -0.010500
v -2.050000 3.999891 -0.010500
v -2.050000 3.999891 -0.010500
v -2.000000 3.999891 0.007413
v -2.000000 3.999891 0.007413
v -2.003087 3.999891 0.010500
v -2.003087 3.999891 0.010500
v -2.050000 3.999891 0.010500
v -2.050000 3.999891 0.010500
v -2.000000 0.000000 0.006170
v -2.000000 0.000000 0.006170
v -2.000000 3.999891 0.006170
v -2.000000 3.999891 0.006170
v -2.000000 0.000000 -0.007342
v -2.000000 0.000000 -0.007342
v -2.000000 3.999891 -0.007342
v -2.000000 3.999891 -0.007342
v -2.010043 0.000000 -0.007342
v -2.010043 0.000000 -0.007342
v -2.010043 0.000000 0.006170
v -2.010043 0.000000 0.006170
v -2.010043 3.999891 -0.007342
v -2.010043 3.999891 -0.007342
v -2.010043 3.999891 0.006170
v -2.010043 3.999891 0.006170
v 2.014671 4.117236 0.288727
v 2.014671 4.117236 0.288727
v 2.013864 4.120239 0.287500
v 2.013864 4.120239 0.287500
v 2.013866 4.120239 0.288727
v 2.013866 4.120239 0.288727
v 2.013866 4.120239 0.288727
v 2.014669 4.123244 0.287500
v 2.014671 4.123243 0.288727
v 2.014671 4.123243 0.288727
v 2.016869 4.125444 0.287500
v 2.016869 4.125444 0.287500
v 2.016870 4.125443 0.288727
v 2.016870 4.125443 0.288727
v 2.016870 4.125443 0.288727
v 2.019874 4.120239 0.289586
v 2.014669 4.117234 0.287500
v 2.016870 4.115036 0.288727
v 2.016870 4.115036 0.288727
v 2.016870 4.115036 0.288727
v 2.016869 4.115035 0.287500
v 2.016869 4.115035 0.287500
v 2.019874 4.114231 0.288727
v 2.019874 4.114231 0.288727
v 2.019874 4.114231 0.288727
v 2.019874 4.114229 0.287500
v 2.019874 4.114229 0.287500
v 2.022878 4.115036 0.288727
v 2.022878 4.115036 0.288727
v 2.022878 4.115036 0.288727
v 2.022879 4.115035 0.287500
v 2.022879 4.115035 0.287500
v 2.025077 4.117236 0.288727
v 2.025077 4.117236 0.288727
v 2.025079 4.117234 0.287500
v 2.025882 4.120239 0.288727
v 2.025882 4.120239 0.288727
v 2.025882 4.120239 0.288727
v 2.025884 4.120239 0.287500
v 2.025884 4.120239 0.287500
v 2.025077 4.123243 0.288727
v 2.025077 4.123243 0.288727
v 2.025079 4.123244 0.287500
v 2.022878 4.125443 0.288727
v 2.022878 4.125443 0.288727
v 2.022878 4.125443 0.288727
v 2.022879 4.125444 0.287500
v 2.022879 4.125444 0.287500
v 2.019874 4.126247 0.288727
v 2.019874 4.126247 0.288727
v 2.019874 4.126247 0.288727
v 2.019874 4.126249 0.287500
v 2.019874 4.126249 0.287500
v -2.014671 4.117236 0.288727
v -2.014671 4.117236 0.288727
v -2.013864 4.120239 0.287500
v -2.013864 4.120239 0.287500
v -2.013866 4.120239 0.288727
v -2.013866 4.120239 0.288727
v -2.013866 4.120239 0.288727
v -2.014669 4.123244 0.287500
v -2.014671 4.123243 0.288727
v -2.014671 4.123243 0.288727
v -2.016869 4.125444 0.287500
v -2.016869 4.125444 0.287500
v -2.016870 4.125443 0.288727
v -2.016870 4.125443 0.288727
v -2.016870 4.125443 0.288727
v -2.019874 4.120239 0.289586
v -2.014669 4.117234 0.287500
v -2.016870 4.115036 0.288727
v -2.016870 4.115036 0.288727
v -2.016870 4.115036 0.288727
v -2.016869 4.115035 0.287500
v -2.016869 4.115035 0.287500
v -2.019874 4.114231 0.288727
v -2.019874 4.114231 0.288727
v -2.019874 4.114231 0.288727
v -2.019874 4.114229 0.287500
v -2.019874 4.114229 0.287500
v -2.022878 4.115036 0.288727
v -2.022878 4.115036 0.288727
v -2.022878 4.115036 0.288727
v -2.022879 4.115035 0.287500
v -2.022879 4.115035 0.287500
v -2.025077 4.117236 0.288727
v -2.025077 4.117236 0.288727
v -2.025079 4.117234 0.287500
v -2.025882 4.120239 0.288727
v -2.025882 4.120239 0.288727
v -2.025882 4.120239 0.288727
v -2.025884 4.120239 0.287500
v -2.025884 4.120239 0.287500
v -2.025077 4.123243 0.288727
v -2.025077 4.123243 0.288727
v -2.025079 4.123244 0.287500
v -2.022878 4.125443 0.288727
v -2.022878 4.125443 0.288727
v -2.022878 4.125443 0.288727
v -2.022879 4.125444 0.287500
v -2.022879 4.125444 0.287500
v -2.019874 4.126247 0.288727
v -2.019874 4.126247 0.288727
v -2.019874 4.126247 0.288727
v -2.019874 4.126249 0.287500
v -2.019874 4.126249 0.287500
vn -1.0000 -0.0000 -0.0000
vn -0.0000 1.0000 -0.0000
vn -0.0000 -0.7070 0.7072
vn -0.0000 -0.0000 -1.0000
vn 1.0000 -0.0000 -0.0000
vn -0.0000 -0.0000 1.0000
vn -0.0000 -1.0000 -0.0000
vn -0.0735 -0.0000 0.9973
vn -0.0636 -0.0367 0.9973
vn -0.0367 -0.0636 0.9973
vn -0.0000 -0.0735 0.9973
vn 0.0367 -0.0636 0.9973
vn 0.0636 -0.0367 0.9973
vn 0.0735 -0.0000 0.9973
vn -0.0000 0.0735 0.9973
vn -0.0367 0.0636 0.9973
vn 0.0367 0.0636 0.9973
vn -0.0636 0.0367 0.9973
vn 0.0636 0.0367 0.9973
vn -0.4742 0.8213 0.3171
vn -0.0000 0.9484 0.3170
vn -0.8213 0.4742 0.3172
vn -0.8213 0.4742 0.3171
vn -0.9484 -0.0000 0.3171
vn -0.8213 -0.4742 0.3172
vn -0.4742 -0.8214 0.3170
vn -0.4742 -0.8214 0.3169
vn 0.0001 -0.9484 0.3170
vn -0.0000 -0.9484 0.3170
vn 0.4742 -0.8214 0.3170
vn 0.4741 -0.8214 0.3170
vn 0.8214 -0.4742 0.3170
vn 0.9484 -0.0000 0.3170
vn 0.9484 -0.0000 0.3169
vn 0.8214 0.4742 0.3170
vn 0.8214 0.4742 0.3169
vn 0.4742 0.8214 0.3170
vn 0.4742 0.8213 0.3170
vn -0.4742 0.8213 0.3170
vn -0.8214 0.4742 0.3171
vn 0.4742 -0.8213 0.3171
vn 0.8213 -0.4742 0.3170
vn 0.9485 -0.0000 0.3169
vn 0.4742 0.8214 0.3169
vn 0.8213 -0.4742 0.3171
vn 0.4742 -0.8213 0.3170
vn -0.8213 -0.4742 0.3171
vn -0.4742 0.8214 0.3170
vn -0.9484 -0.0000 0.3170
vn 0.4742 -0.8214 0.3169
vn 0.8214 -0.4742 0.3169
vn 0.8214 -0.4743 0.3169
vn 0.8213 0.4742 0.3170
vn 0.4742 0.8213 0.3171
vn 0.8213 0.4742 0.3172
vn 0.8213 0.4742 0.3171
vn 0.9484 -0.0000 0.3171
vn 0.8213 -0.4742 0.3172
vn -0.0001 -0.9484 0.3170
vn -0.4741 -0.8214 0.3170
vn -0.8214 -0.4742 0.3170
vn -0.9484 -0.0000 0.3169
vn -0.8214 0.4742 0.3170
vn -0.8214 0.4742 0.3169
vn 0.8214 0.4742 0.3171
vn -0.4742 -0.8213 0.3171
vn -0.8213 -0.4742 0.3170
vn -0.9485 -0.0000 0.3169
vn -0.4742 0.8214 0.3169
vn -0.4742 -0.8213 0.3170
vn -0.8214 -0.4742 0.3169
vn -0.8214 -0.4743 0.3169
vn -0.8213 0.4742 0.3170
vn -0.7071 -0.0000 0.7071
vn 0.7071 -0.0000 0.7071
vn -0.1415 -0.0000 0.9899
vn -0.1226 -0.0708 0.9899
vn -0.0708 -0.1226 0.9899
vn -0.0000 -0.1415 0.9899
vn 0.0708 -0.1226 0.9899
vn 0.1226 -0.0708 0.9899
vn 0.1415 -0.0000 0.9899
vn -0.0000 0.1415 0.9899
vn -0.0708 0.1226 0.9899
vn 0.0708 0.1226 0.9899
vn -0.1226 0.0708 0.9899
vn 0.1226 0.0708 0.9899
vn -0.2589 0.9659 0.0017
vn -0.2589 0.9659 0.0015
vn -0.2587 0.9659 0.0015
vn -0.8661 0.4999 0.0018
vn -0.8660 0.5000 0.0017
vn -0.7071 0.7071 0.0017
vn -0.9659 0.2589 0.0015
vn -0.8660 -0.5001 0.0020
vn -0.8660 -0.5000 0.0020
vn -0.9659 -0.2589 0.0016
vn -0.9659 -0.2588 0.0015
vn -0.7072 -0.7070 0.0018
vn -0.7072 -0.7070 0.0017
vn -0.2588 -0.9659 0.0014
vn -0.2584 -0.9660 0.0015
vn -0.2588 -0.9659 0.0015
vn -0.2589 -0.9659 0.0017
vn 0.2588 -0.9659 0.0019
vn 0.2590 -0.9659 0.0018
vn 0.2587 -0.9660 0.0015
vn 0.2583 -0.9661 0.0015
vn 0.8660 -0.5001 0.0020
vn 0.8660 -0.5000 0.0020
vn 0.7072 -0.7070 0.0018
vn 0.9659 -0.2588 0.0016
vn 0.9659 -0.2588 0.0015
vn 0.8660 0.5000 0.0018
vn 0.8661 0.5000 0.0018
vn 0.9659 0.2589 0.0016
vn 0.9659 0.2589 0.0015
vn 0.7071 0.7071 0.0017
vn 0.2588 0.9659 0.0016
vn 0.2588 0.9659 0.0015
vn 0.2589 0.9659 0.0017
vn 0.2589 0.9659 0.0018
vn 0.2589 0.9659 0.0015
vn 0.2587 0.9659 0.0015
vn 0.8661 0.4999 0.0018
vn 0.8660 0.5000 0.0017
vn 0.9659 -0.2589 0.0016
vn 0.7072 -0.7070 0.0017
vn 0.2588 -0.9659 0.0014
vn 0.2589 -0.9659 0.0017
vn 0.2589 -0.9659 0.0018
vn 0.2584 -0.9660 0.0015
vn -0.2588 -0.9659 0.0018
vn -0.2583 -0.9661 0.0015
vn -0.2587 -0.9659 0.0017
vn -0.2590 -0.9659 0.0018
vn -0.9659 -0.2588 0.0016
vn -0.8660 0.5000 0.0018
vn -0.9659 0.2589 0.0016
vn -0.8661 0.5000 0.0018
vn -0.2588 0.9659 0.0016
vn -0.2589 0.9659 0.0018
vn -0.2588 0.9659 0.0015
vt 0.415357 0.753465
vt 0.529511 0.753465
vt 0.529511 0.828807
vt 0.784786 0.001463
vt 0.898179 0.001463
vt 0.898179 0.412418
vt 0.784786 0.412418
vt 0.863053 0.826424
vt 0.863053 0.415470
vt 0.916866 0.415470
vt 0.916866 0.826424
vt 0.001470 0.753465
vt 0.412424 0.753465
vt 0.412424 0.867619
vt 0.001470 0.867619
vt 0.607778 0.867622
vt 0.532436 0.867622
vt 0.532436 0.753468
vt 0.977208 0.001463
vt 0.977208 0.412418
vt 0.901105 0.412418
vt 0.901105 0.001463
vt 0.860124 0.415470
vt 0.860124 0.826424
vt 0.784783 0.826424
vt 0.784783 0.415470
vt 0.645829 0.753468
vt 0.645829 0.829570
vt 0.415357 0.866858
vt 0.491460 0.866858
vt 0.671212 0.773864
vt 0.671165 0.772328
vt 0.674053 0.773025
vt 0.671926 0.770968
vt 0.673253 0.770152
vt 0.674784 0.770112
vt 0.676116 0.770870
vt 0.676900 0.772216
vt 0.674861 0.775884
vt 0.673340 0.775867
vt 0.676162 0.775106
vt 0.671992 0.775164
vt 0.676929 0.773774
vt 0.673164 0.776572
vt 0.675037 0.776528
vt 0.671532 0.775648
vt 0.670549 0.774084
vt 0.670459 0.772183
vt 0.671376 0.770439
vt 0.673077 0.769461
vt 0.674948 0.769461
vt 0.676597 0.770344
vt 0.677635 0.772009
vt 0.677619 0.773979
vt 0.676642 0.775613
vt 0.713718 0.759144
vt 0.712976 0.757807
vt 0.715807 0.757014
vt 0.712923 0.756283
vt 0.717954 0.759084
vt 0.716606 0.759863
vt 0.718716 0.757750
vt 0.718652 0.756209
vt 0.717868 0.754874
vt 0.716539 0.754119
vt 0.715006 0.754183
vt 0.713677 0.754963
vt 0.715051 0.759890
vt 0.712273 0.756120
vt 0.712273 0.758003
vt 0.713157 0.754487
vt 0.714798 0.753470
vt 0.716701 0.753462
vt 0.718346 0.754350
vt 0.719369 0.756000
vt 0.719376 0.757913
vt 0.718481 0.759568
vt 0.716809 0.760596
vt 0.714851 0.760573
vt 0.713242 0.759621
vt 0.744989 0.760656
vt 0.745198 0.759930
vt 0.746745 0.759972
vt 0.746937 0.760654
vt 0.748082 0.759243
vt 0.748552 0.759723
vt 0.748837 0.757916
vt 0.749537 0.758118
vt 0.748907 0.756391
vt 0.749559 0.756237
vt 0.748173 0.755059
vt 0.748698 0.754596
vt 0.746863 0.754245
vt 0.747093 0.753559
vt 0.745300 0.754223
vt 0.745115 0.753477
vt 0.743928 0.754972
vt 0.743405 0.754472
vt 0.743148 0.756302
vt 0.742469 0.756136
vt 0.743114 0.757821
vt 0.742469 0.757983
vt 0.746013 0.757101
vt 0.743865 0.759145
vt 0.743341 0.759620
vt 0.779036 0.757796
vt 0.778268 0.759133
vt 0.776182 0.756994
vt 0.776916 0.759908
vt 0.775337 0.759866
vt 0.773987 0.759047
vt 0.773269 0.757663
vt 0.773347 0.756123
vt 0.777003 0.754199
vt 0.778315 0.754951
vt 0.775494 0.754121
vt 0.779040 0.756271
vt 0.774169 0.754839
vt 0.778789 0.754488
vt 0.777207 0.753507
vt 0.779703 0.756077
vt 0.779723 0.757956
vt 0.778792 0.759622
vt 0.777122 0.760613
vt 0.775118 0.760613
vt 0.773432 0.759528
vt 0.772564 0.757791
vt 0.772684 0.755886
vt 0.773717 0.754317
vt 0.775345 0.753476
vt 0.756832 0.759873
vt 0.756044 0.757018
vt 0.758187 0.759099
vt 0.758955 0.757766
vt 0.758897 0.756221
vt 0.758115 0.754881
vt 0.756787 0.754121
vt 0.755250 0.754182
vt 0.753183 0.757810
vt 0.753951 0.759109
vt 0.753182 0.756303
vt 0.755274 0.759886
vt 0.753919 0.754966
vt 0.753443 0.759582
vt 0.752549 0.757983
vt 0.755061 0.760573
vt 0.757031 0.760611
vt 0.758713 0.759587
vt 0.759616 0.757932
vt 0.759616 0.756014
vt 0.758596 0.754358
vt 0.756950 0.753463
vt 0.755041 0.753466
vt 0.753391 0.754490
vt 0.752507 0.756155
vt 0.736719 0.754107
vt 0.735996 0.756978
vt 0.735215 0.754135
vt 0.733891 0.754892
vt 0.738886 0.757694
vt 0.738810 0.756168
vt 0.738151 0.759026
vt 0.736841 0.759839
vt 0.735278 0.759868
vt 0.733894 0.759147
vt 0.733131 0.757787
vt 0.733113 0.756224
vt 0.738027 0.754852
vt 0.733412 0.754374
vt 0.735055 0.753464
vt 0.732421 0.756013
vt 0.732397 0.757984
vt 0.733409 0.759648
vt 0.735103 0.760607
vt 0.737070 0.760523
vt 0.738675 0.759490
vt 0.739540 0.757848
vt 0.739516 0.755956
vt 0.738496 0.754336
vt 0.736880 0.753471
vt 0.765075 0.760598
vt 0.763419 0.759546
vt 0.763950 0.759070
vt 0.765287 0.759865
vt 0.762553 0.757888
vt 0.763209 0.757734
vt 0.762581 0.756002
vt 0.763282 0.756206
vt 0.763572 0.754402
vt 0.764039 0.754882
vt 0.765177 0.753480
vt 0.765371 0.754152
vt 0.767080 0.753466
vt 0.766908 0.754165
vt 0.768783 0.754449
vt 0.768235 0.754977
vt 0.769690 0.756181
vt 0.768997 0.756330
vt 0.769619 0.758038
vt 0.768980 0.757853
vt 0.768688 0.759634
vt 0.768185 0.759149
vt 0.766107 0.757024
vt 0.767045 0.760598
vt 0.766845 0.759905
vt 0.728697 0.757948
vt 0.725869 0.757091
vt 0.728773 0.756413
vt 0.728056 0.755031
vt 0.726704 0.754213
vt 0.725122 0.754171
vt 0.723766 0.754951
vt 0.722998 0.756297
vt 0.725080 0.759909
vt 0.726571 0.759949
vt 0.723774 0.759150
vt 0.727881 0.759228
vt 0.723007 0.757833
vt 0.726724 0.760581
vt 0.724917 0.760571
vt 0.728331 0.759744
vt 0.729357 0.758184
vt 0.729476 0.756285
vt 0.728610 0.754551
vt 0.726924 0.753465
vt 0.724915 0.753465
vt 0.723239 0.754461
vt 0.722304 0.756140
vt 0.722334 0.758042
vt 0.723299 0.759658
vt 0.800891 0.987468
vt 0.800891 0.989129
vt 0.001466 0.989129
vt 0.001466 0.987467
vt 0.800891 0.912503
vt 0.001466 0.912503
vt 0.001466 0.893469
vt 0.800891 0.893469
vt 0.980135 0.001466
vt 0.997995 0.001466
vt 0.997995 0.800891
vt 0.980135 0.800891
vt 0.800891 0.964685
vt 0.800891 0.967904
vt 0.001466 0.967904
vt 0.001466 0.964685
vt 0.800891 0.937468
vt 0.800891 0.945082
vt 0.001466 0.945082
vt 0.001466 0.937468
vt 0.689592 0.997195
vt 0.386191 0.997195
vt 0.386191 0.995753
vt 0.689592 0.995753
vt 0.800891 0.961466
vt 0.800891 0.961909
vt 0.001466 0.961909
vt 0.001466 0.961466
vt 0.689592 0.993800
vt 0.386191 0.993800
vt 0.386191 0.992358
vt 0.689592 0.992358
vt 0.001466 0.981461
vt 0.800891 0.981461
vt 0.800891 0.983123
vt 0.001466 0.983123
vt 0.800891 0.871467
vt 0.800891 0.890501
vt 0.001466 0.890501
vt 0.001466 0.871467
vt 0.001466 0.915469
vt 0.800891 0.915469
vt 0.800891 0.933329
vt 0.001466 0.933329
vt 0.800891 0.974680
vt 0.001466 0.974680
vt 0.001466 0.971461
vt 0.800891 0.971461
vt 0.001466 0.949467
vt 0.800891 0.949467
vt 0.800891 0.957081
vt 0.001466 0.957081
vt 0.996266 0.993765
vt 0.692870 0.993765
vt 0.692870 0.992314
vt 0.996266 0.992314
vt 0.800891 0.977900
vt 0.001466 0.977900
vt 0.001466 0.976290
vt 0.800891 0.976290
vt 0.692870 0.995242
vt 0.996266 0.995242
vt 0.996266 0.997195
vt 0.692870 0.997195
vt 0.692870 0.993778
vt 0.996265 0.993778
vt 0.996265 0.995229
vt 0.692870 0.995229
vt 0.667093 0.772125
vt 0.666638 0.772959
vt 0.665305 0.771663
vt 0.665807 0.773430
vt 0.664851 0.773468
vt 0.664024 0.772985
vt 0.663512 0.772172
vt 0.663522 0.771210
vt 0.665758 0.769866
vt 0.666579 0.770332
vt 0.664816 0.769886
vt 0.667067 0.771161
vt 0.663992 0.770367
vt 0.666875 0.770007
vt 0.665858 0.769466
vt 0.667519 0.771031
vt 0.667519 0.772245
vt 0.666938 0.773253
vt 0.665933 0.773870
vt 0.664749 0.773880
vt 0.663703 0.773316
vt 0.663100 0.772289
vt 0.663070 0.771091
vt 0.663685 0.770043
vt 0.664714 0.769466
vt 0.684833 0.772125
vt 0.683044 0.771663
vt 0.684377 0.772959
vt 0.683547 0.773430
vt 0.682591 0.773468
vt 0.681763 0.772985
vt 0.681251 0.772172
vt 0.681262 0.771210
vt 0.683497 0.769866
vt 0.684319 0.770332
vt 0.682555 0.769886
vt 0.684807 0.771161
vt 0.681731 0.770367
vt 0.684614 0.770007
vt 0.683598 0.769466
vt 0.685259 0.771031
vt 0.685258 0.772245
vt 0.684677 0.773253
vt 0.683672 0.773870
vt 0.682488 0.773880
vt 0.681443 0.773316
vt 0.680840 0.772289
vt 0.680809 0.771091
vt 0.681425 0.770043
vt 0.682453 0.769466
s 1
usemtl m0
f 28/1/1 22/2/1 25/3/1
f 30/4/2 18/5/2 2/6/2
f 30/4/2 2/6/2 14/7/2
f 4/8/3 20/9/3 27/10/3
f 4/8/3 27/10/3 11/11/3
f 8/12/4 24/13/4 29/14/4
f 8/12/4 29/14/4 13/15/4
f 12/16/5 9/17/5 15/18/5
f 1/19/6 17/20/6 21/21/6
f 1/19/6 21/21/6 5/22/6
f 10/23/7 26/24/7 23/25/7
f 10/23/7 23/25/7 7/26/7
f 3/27/5 6/28/5 15/18/5
f 6/28/5 12/16/5 15/18/5
f 16/29/1 28/1/1 19/30/1
f 19/30/1 28/1/1 25/3/1
f 35/31/8 32/32/9 42/33/6
f 32/32/9 45/34/10 42/33/6
f 45/34/10 48/35/11 42/33/6
f 48/35/11 50/36/12 42/33/6
f 50/36/12 53/37/13 42/33/6
f 53/37/13 56/38/14 42/33/6
f 65/39/15 41/40/16 42/33/6
f 62/41/17 65/39/15 42/33/6
f 38/42/18 35/31/8 42/33/6
f 59/43/19 62/41/17 42/33/6
f 41/40/16 38/42/18 42/33/6
f 39/44/20 40/40/20 66/39/21
f 39/44/20 66/39/21 67/45/21
f 36/46/22 37/42/23 40/40/20
f 36/46/22 40/40/20 39/44/20
f 56/38/14 59/43/19 42/33/6
f 33/47/24 34/31/24 37/42/23
f 33/47/24 37/42/23 36/46/22
f 43/48/25 31/32/25 34/31/24
f 43/48/25 34/31/24 33/47/24
f 46/49/26 44/34/27 31/32/25
f 46/49/26 31/32/25 43/48/25
f 49/50/28 47/35/29 44/34/27
f 49/50/28 44/34/27 46/49/26
f 52/51/30 51/36/31 47/35/29
f 52/51/30 47/35/29 49/50/28
f 55/52/32 54/37/32 51/36/31
f 55/52/32 51/36/31 52/51/30
f 58/53/33 57/38/34 54/37/32
f 58/53/33 54/37/32 55/52/32
f 61/54/35 60/43/36 57/38/34
f 61/54/35 57/38/34 58/53/33
f 64/55/37 63/41/38 60/43/36
f 64/55/37 60/43/36 61/54/35
f 67/45/21 66/39/21 63/41/38
f 67/45/21 63/41/38 64/55/37
f 99/56/17 102/57/15 68/58/6
f 102/57/15 70/59/16 68/58/6
f 90/60/13 93/61/14 68/58/6
f 87/62/12 90/60/13 68/58/6
f 85/63/11 87/62/12 68/58/6
f 82/64/10 85/63/11 68/58/6
f 79/65/9 82/64/10 68/58/6
f 76/66/8 79/65/9 68/58/6
f 73/67/18 76/66/8 68/58/6
f 96/68/19 99/56/17 68/58/6
f 70/59/16 73/67/18 68/58/6
f 71/69/39 69/59/20 103/57/21
f 71/69/39 103/57/21 104/70/21
f 74/71/40 72/67/23 69/59/20
f 74/71/40 69/59/20 71/69/39
f 93/61/14 96/68/19 68/58/6
f 77/72/24 75/66/24 72/67/23
f 77/72/24 72/67/23 74/71/40
f 80/73/25 78/65/25 75/66/24
f 80/73/25 75/66/24 77/72/24
f 83/74/27 81/64/27 78/65/25
f 83/74/27 78/65/25 80/73/25
f 86/75/29 84/63/29 81/64/27
f 86/75/29 81/64/27 83/74/27
f 89/76/41 88/62/30 84/63/29
f 89/76/41 84/63/29 86/75/29
f 92/77/42 91/60/32 88/62/30
f 92/77/42 88/62/30 89/76/41
f 95/78/43 94/61/43 91/60/32
f 95/78/43 91/60/32 92/77/42
f 98/79/35 97/68/35 94/61/43
f 98/79/35 94/61/43 95/78/43
f 101/80/37 100/56/37 97/68/35
f 101/80/37 97/68/35 98/79/35
f 104/70/21 103/57/21 100/56/37
f 104/70/21 100/56/37 101/80/37
f 105/81/21 107/82/21 110/83/44
f 105/81/21 110/83/44 108/84/44
f 108/84/44 110/83/44 113/85/36
f 108/84/44 113/85/36 111/86/35
f 111/86/35 113/85/36 116/87/34
f 111/86/35 116/87/34 114/88/33
f 114/88/33 116/87/34 119/89/32
f 114/88/33 119/89/32 117/90/45
f 117/90/45 119/89/32 122/91/30
f 117/90/45 122/91/30 120/92/46
f 120/92/46 122/91/30 124/93/29
f 120/92/46 124/93/29 123/94/29
f 123/94/29 124/93/29 127/95/27
f 123/94/29 127/95/27 126/96/26
f 126/96/26 127/95/27 130/97/47
f 126/96/26 130/97/47 129/98/47
f 129/98/47 130/97/47 133/99/24
f 129/98/47 133/99/24 132/100/24
f 132/100/24 133/99/24 136/101/23
f 132/100/24 136/101/23 135/102/23
f 115/87/14 112/85/19 141/103/6
f 135/102/23 136/101/23 139/104/48
f 135/102/23 139/104/48 138/105/48
f 138/105/48 139/104/48 107/82/21
f 138/105/48 107/82/21 105/81/21
f 140/104/16 137/101/18 141/103/6
f 112/85/19 109/83/17 141/103/6
f 137/101/18 134/99/8 141/103/6
f 134/99/8 131/97/9 141/103/6
f 131/97/9 128/95/10 141/103/6
f 128/95/10 125/93/11 141/103/6
f 125/93/11 121/91/12 141/103/6
f 121/91/12 118/89/13 141/103/6
f 118/89/13 115/87/14 141/103/6
f 106/82/15 140/104/16 141/103/6
f 109/83/17 106/82/15 141/103/6
f 146/106/8 143/107/9 153/108/6
f 143/107/9 156/109/10 153/108/6
f 156/109/10 159/110/11 153/108/6
f 159/110/11 161/111/12 153/108/6
f 161/111/12 164/112/13 153/108/6
f 164/112/13 167/113/14 153/108/6
f 176/114/15 152/115/16 153/108/6
f 173/116/17 176/114/15 153/108/6
f 149/117/18 146/106/8 153/108/6
f 170/118/19 173/116/17 153/108/6
f 152/115/16 149/117/18 153/108/6
f 150/119/20 151/115/20 177/114/21
f 150/119/20 177/114/21 178/120/21
f 147/121/22 148/117/23 151/115/20
f 147/121/22 151/115/20 150/119/20
f 167/113/14 170/118/19 153/108/6
f 144/122/49 145/106/49 148/117/23
f 144/122/49 148/117/23 147/121/22
f 154/123/25 142/107/25 145/106/49
f 154/123/25 145/106/49 144/122/49
f 157/124/27 155/109/27 142/107/25
f 157/124/27 142/107/25 154/123/25
f 160/125/29 158/110/29 155/109/27
f 160/125/29 155/109/27 157/124/27
f 163/126/50 162/111/50 158/110/29
f 163/126/50 158/110/29 160/125/29
f 166/127/51 165/112/52 162/111/50
f 166/127/51 162/111/50 163/126/50
f 169/128/33 168/113/34 165/112/52
f 169/128/33 165/112/52 166/127/51
f 172/129/53 171/118/35 168/113/34
f 172/129/53 168/113/34 169/128/33
f 175/130/37 174/116/38 171/118/35
f 175/130/37 171/118/35 172/129/53
f 178/120/21 177/114/21 174/116/38
f 178/120/21 174/116/38 175/130/37
f 182/131/14 190/132/6 179/133/13
f 179/133/13 190/132/6 192/134/12
f 192/134/12 190/132/6 196/135/11
f 196/135/11 190/132/6 199/136/10
f 199/136/10 190/132/6 202/137/9
f 202/137/9 190/132/6 205/138/8
f 213/139/15 190/132/6 188/140/17
f 211/141/16 190/132/6 213/139/15
f 185/142/19 190/132/6 182/131/14
f 208/143/18 190/132/6 211/141/16
f 188/140/17 190/132/6 185/142/19
f 187/144/54 215/145/21 214/139/21
f 187/144/54 214/139/21 189/140/54
f 184/146/55 187/144/54 189/140/54
f 184/146/55 189/140/54 186/142/56
f 205/138/8 190/132/6 208/143/18
f 181/147/57 184/146/55 186/142/56
f 181/147/57 186/142/56 183/131/57
f 191/148/58 181/147/57 183/131/57
f 191/148/58 183/131/57 180/133/58
f 194/149/30 191/148/58 180/133/58
f 194/149/30 180/133/58 193/134/50
f 197/150/59 194/149/30 193/134/50
f 197/150/59 193/134/50 195/135/29
f 200/151/26 197/150/59 195/135/29
f 200/151/26 195/135/29 198/136/60
f 203/152/61 200/151/26 198/136/60
f 203/152/61 198/136/60 201/137/61
f 206/153/49 203/152/61 201/137/61
f 206/153/49 201/137/61 204/138/62
f 209/154/63 206/153/49 204/138/62
f 209/154/63 204/138/62 207/143/64
f 212/155/48 209/154/63 207/143/64
f 212/155/48 207/143/64 210/141/39
f 215/145/21 212/155/48 210/141/39
f 215/145/21 210/141/39 214/139/21
f 248/156/16 216/157/6 250/158/15
f 250/158/15 216/157/6 217/159/17
f 239/160/9 216/157/6 242/161/8
f 236/162/10 216/157/6 239/160/9
f 233/163/11 216/157/6 236/162/10
f 229/164/12 216/157/6 233/163/11
f 226/165/13 216/157/6 229/164/12
f 223/166/14 216/157/6 226/165/13
f 220/167/19 216/157/6 223/166/14
f 245/168/18 216/157/6 248/156/16
f 217/159/17 216/157/6 220/167/19
f 219/169/38 252/170/21 251/158/21
f 219/169/38 251/158/21 218/159/54
f 222/171/65 219/169/38 218/159/54
f 222/171/65 218/159/54 221/167/56
f 242/161/8 216/157/6 245/168/18
f 225/172/57 222/171/65 221/167/56
f 225/172/57 221/167/56 224/166/57
f 228/173/58 225/172/57 224/166/57
f 228/173/58 224/166/57 227/165/58
f 231/174/50 228/173/58 227/165/58
f 231/174/50 227/165/58 230/164/50
f 234/175/29 231/174/50 230/164/50
f 234/175/29 230/164/50 232/163/29
f 237/176/66 234/175/29 232/163/29
f 237/176/66 232/163/29 235/162/26
f 240/177/67 237/176/66 235/162/26
f 240/177/67 235/162/26 238/160/61
f 243/178/68 240/177/67 238/160/61
f 243/178/68 238/160/61 241/161/68
f 246/179/63 243/178/68 241/161/68
f 246/179/63 241/161/68 244/168/63
f 249/180/48 246/179/63 244/168/63
f 249/180/48 244/168/63 247/156/48
f 252/170/21 249/180/48 247/156/48
f 252/170/21 247/156/48 251/158/21
f 253/181/21 256/182/69 257/183/69
f 253/181/21 257/183/69 255/184/21
f 256/182/69 259/185/63 260/186/64
f 256/182/69 260/186/64 257/183/69
f 259/185/63 262/187/49 263/188/62
f 259/185/63 263/188/62 260/186/64
f 262/187/49 265/189/47 266/190/61
f 262/187/49 266/190/61 263/188/62
f 265/189/47 268/191/70 269/192/26
f 265/189/47 269/192/26 266/190/61
f 268/191/70 271/193/29 272/194/29
f 268/191/70 272/194/29 269/192/26
f 271/193/29 274/195/30 276/196/50
f 271/193/29 276/196/50 272/194/29
f 274/195/30 277/197/45 279/198/45
f 274/195/30 279/198/45 276/196/50
f 277/197/45 280/199/57 282/200/57
f 277/197/45 282/200/57 279/198/45
f 280/199/57 283/201/56 285/202/56
f 280/199/57 285/202/56 282/200/57
f 264/188/8 289/203/6 261/186/18
f 283/201/56 286/204/37 288/205/37
f 283/201/56 288/205/37 285/202/56
f 286/204/37 253/181/21 255/184/21
f 286/204/37 255/184/21 288/205/37
f 287/205/17 289/203/6 284/202/19
f 261/186/18 289/203/6 258/183/16
f 284/202/19 289/203/6 281/200/14
f 281/200/14 289/203/6 278/198/13
f 278/198/13 289/203/6 275/196/12
f 275/196/12 289/203/6 273/194/11
f 273/194/11 289/203/6 270/192/10
f 270/192/10 289/203/6 267/190/9
f 267/190/9 289/203/6 264/188/8
f 254/184/15 289/203/6 287/205/17
f 258/183/16 289/203/6 254/184/15
f 293/206/14 301/207/6 290/208/13
f 290/208/13 301/207/6 303/209/12
f 303/209/12 301/207/6 307/210/11
f 307/210/11 301/207/6 310/211/10
f 310/211/10 301/207/6 313/212/9
f 313/212/9 301/207/6 316/213/8
f 324/214/15 301/207/6 299/215/17
f 322/216/16 301/207/6 324/214/15
f 296/217/19 301/207/6 293/206/14
f 319/218/18 301/207/6 322/216/16
f 299/215/17 301/207/6 296/217/19
f 298/219/54 326/220/21 325/214/21
f 298/219/54 325/214/21 300/215/54
f 295/221/55 298/219/54 300/215/54
f 295/221/55 300/215/54 297/217/56
f 316/213/8 301/207/6 319/218/18
f 292/222/33 295/221/55 297/217/56
f 292/222/33 297/217/56 294/206/33
f 302/223/58 292/222/33 294/206/33
f 302/223/58 294/206/33 291/208/58
f 305/224/50 302/223/58 291/208/58
f 305/224/50 291/208/58 304/209/50
f 308/225/29 305/224/50 304/209/50
f 308/225/29 304/209/50 306/210/29
f 311/226/27 308/225/29 306/210/29
f 311/226/27 306/210/29 309/211/27
f 314/227/71 311/226/27 309/211/27
f 314/227/71 309/211/27 312/212/72
f 317/228/49 314/227/71 312/212/72
f 317/228/49 312/212/72 315/213/62
f 320/229/73 317/228/49 315/213/62
f 320/229/73 315/213/62 318/218/63
f 323/230/48 320/229/73 318/218/63
f 323/230/48 318/218/63 321/216/39
f 326/220/21 323/230/48 321/216/39
f 326/220/21 321/216/39 325/214/21
f 343/231/74 342/232/74 330/233/74
f 343/231/74 330/233/74 331/234/74
f 339/235/4 327/236/4 334/237/4
f 339/235/4 334/237/4 338/238/4
f 345/239/6 344/240/6 332/241/6
f 345/239/6 332/241/6 335/242/6
f 347/243/1 329/244/1 341/245/1
f 347/243/1 341/245/1 349/246/1
f 340/247/5 346/248/5 336/249/5
f 340/247/5 336/249/5 328/250/5
f 348/251/4 350/252/4 362/253/4
f 348/251/4 362/253/4 358/254/4
f 333/255/1 351/256/1 353/257/1
f 333/255/1 353/257/1 337/258/1
f 355/259/1 357/254/1 361/253/1
f 355/259/1 361/253/1 359/260/1
f 354/261/6 352/262/6 356/259/6
f 354/261/6 356/259/6 360/260/6
f 380/263/75 368/264/75 365/265/75
f 380/263/75 365/265/75 377/266/75
f 376/267/4 373/268/4 369/269/4
f 376/267/4 369/269/4 364/270/4
f 382/271/6 372/272/6 367/273/6
f 382/271/6 367/273/6 379/274/6
f 384/275/5 386/276/5 378/277/5
f 384/275/5 378/277/5 366/278/5
f 375/279/1 363/280/1 371/281/1
f 375/279/1 371/281/1 381/282/1
f 387/283/6 389/284/6 395/285/6
f 387/283/6 395/285/6 391/286/6
f 370/287/5 374/288/5 390/289/5
f 370/287/5 390/289/5 388/290/5
f 392/291/5 396/292/5 398/293/5
f 392/291/5 398/293/5 394/294/5
f 385/295/4 383/296/4 393/297/4
f 385/295/4 393/297/4 397/298/4
f 405/299/76 400/300/77 414/301/6
f 400/300/77 418/302/78 414/301/6
f 418/302/78 422/303/79 414/301/6
f 422/303/79 426/304/80 414/301/6
f 426/304/80 431/305/81 414/301/6
f 431/305/81 434/306/82 414/301/6
f 448/307/83 413/308/84 414/301/6
f 442/309/85 448/307/83 414/301/6
f 408/310/86 405/299/76 414/301/6
f 439/311/87 442/309/85 414/301/6
f 413/308/84 408/310/86 414/301/6
f 410/312/88 412/308/89 447/307/90
f 410/312/88 447/307/90 450/313/89
f 406/314/91 407/310/92 411/308/93
f 406/314/91 411/308/93 409/312/93
f 434/306/82 439/311/87 414/301/6
f 402/315/94 404/299/94 407/310/92
f 402/315/94 407/310/92 406/314/91
f 415/316/95 399/300/96 403/299/97
f 415/316/95 403/299/97 401/315/98
f 419/317/99 416/302/100 399/300/96
f 419/317/99 399/300/96 415/316/95
f 424/318/101 421/303/102 417/302/103
f 424/318/101 417/302/103 420/317/104
f 429/319/105 427/304/106 423/303/107
f 429/319/105 423/303/107 425/318/108
f 433/320/109 432/305/110 428/304/111
f 433/320/109 428/304/111 430/319/111
f 437/321/112 435/306/113 432/305/110
f 437/321/112 432/305/110 433/320/109
f 441/322/114 440/311/115 436/306/116
f 441/322/114 436/306/116 438/321/117
f 446/323/118 444/309/118 440/311/115
f 446/323/118 440/311/115 441/322/114
f 451/313/119 449/307/120 443/309/121
f 451/313/119 443/309/121 445/323/122
f 456/324/82 467/325/6 452/326/81
f 452/326/81 467/325/6 469/327/80
f 469/327/80 467/325/6 475/328/79
f 475/328/79 467/325/6 481/329/78
f 481/329/78 467/325/6 485/330/77
f 485/330/77 467/325/6 489/331/76
f 501/332/83 467/325/6 464/333/85
f 497/334/84 467/325/6 501/332/83
f 460/335/87 467/325/6 456/324/82
f 493/336/86 467/325/6 497/334/84
f 464/333/85 467/325/6 460/335/87
f 462/337/121 504/338/123 502/332/124
f 462/337/121 502/332/124 465/333/123
f 459/339/125 463/337/118 466/333/118
f 459/339/125 466/333/118 461/335/126
f 489/331/76 467/325/6 493/336/86
f 455/340/117 459/339/125 461/335/126
f 455/340/117 461/335/126 458/324/117
f 468/341/109 454/340/113 457/324/127
f 468/341/109 457/324/127 453/326/110
f 473/342/111 468/341/109 453/326/110
f 473/342/111 453/326/110 471/327/128
f 478/343/129 472/342/130 470/327/131
f 478/343/129 470/327/131 476/328/132
f 483/344/133 477/343/134 474/328/135
f 483/344/133 474/328/135 480/329/136
f 486/345/95 482/344/99 479/329/99
f 486/345/95 479/329/99 484/330/96
f 490/346/137 486/345/95 484/330/96
f 490/346/137 484/330/96 487/331/98
f 494/347/138 491/346/94 488/331/139
f 494/347/138 488/331/139 492/336/140
f 498/348/93 494/347/138 492/336/140
f 498/348/93 492/336/140 495/334/93
f 503/338/141 499/348/142 496/334/88
f 503/338/141 496/334/88 500/332/143
