# Blender 5.2.2 LTS
# www.blender.org
mtllib GasAlarm.mtl
o GasAlarm
v -0.055387 -0.035387 0.037387
v -0.055773 -0.034390 0.037773
v -0.055974 -0.033431 0.037974
v -0.056036 -0.032500 0.038036
v -0.056036 0.032500 0.038036
v -0.055974 0.033431 0.037974
v -0.055773 0.034390 0.037773
v -0.055387 0.035387 0.037387
v -0.055773 -0.035773 0.036390
v -0.056373 -0.034736 0.036736
v -0.056718 -0.033630 0.036935
v -0.056830 -0.032500 0.037000
v -0.056830 0.032500 0.037000
v -0.056718 0.033630 0.036935
v -0.056373 0.034736 0.036736
v -0.055773 0.035773 0.036390
v -0.055974 -0.035974 0.035431
v -0.056718 -0.034935 0.035630
v -0.057176 -0.033753 0.035753
v -0.057330 -0.032500 0.035794
v -0.057330 0.032500 0.035794
v -0.057176 0.033753 0.035753
v -0.056718 0.034935 0.035630
v -0.055974 0.035974 0.035431
v -0.056036 -0.036036 0.034500
v -0.056830 -0.035000 0.034500
v -0.057330 -0.033794 0.034500
v -0.057500 -0.032500 0.034500
v -0.057500 0.032500 0.034500
v -0.057330 0.033794 0.034500
v -0.056830 0.035000 0.034500
v -0.056036 0.036036 0.034500
v -0.056036 -0.036036 0.005000
v -0.056830 -0.035000 0.005000
v -0.057330 -0.033794 0.005000
v -0.057500 -0.032500 0.005000
v -0.057500 0.032500 0.005000
v -0.057330 0.033794 0.005000
v -0.056830 0.035000 0.005000
v -0.056036 0.036036 0.005000
v -0.055974 -0.035974 0.004069
v -0.056718 -0.034935 0.003870
v -0.057176 -0.033753 0.003747
v -0.057330 -0.032500 0.003706
v -0.057330 0.032500 0.003706
v -0.057176 0.033753 0.003747
v -0.056718 0.034935 0.003870
v -0.055974 0.035974 0.004069
v -0.055773 -0.035773 0.003110
v -0.056373 -0.034736 0.002764
v -0.056718 -0.033630 0.002565
v -0.056830 -0.032500 0.002500
v -0.056830 0.032500 0.002500
v -0.056718 0.033630 0.002565
v -0.056373 0.034736 0.002764
v -0.055773 0.035773 0.003110
v -0.055387 -0.035387 0.002113
v -0.055773 -0.034390 0.001727
v -0.055974 -0.033431 0.001526
v -0.056036 -0.032500 0.001464
v -0.056036 0.032500 0.001464
v -0.055974 0.033431 0.001526
v -0.055773 0.034390 0.001727
v -0.055387 0.035387 0.002113
v 0.055387 -0.035387 0.037387
v 0.055773 -0.034390 0.037773
v 0.055974 -0.033431 0.037974
v 0.056036 -0.032500 0.038036
v 0.056036 0.032500 0.038036
v 0.055974 0.033431 0.037974
v 0.055773 0.034390 0.037773
v 0.055387 0.035387 0.037387
v 0.055773 -0.035773 0.036390
v 0.056373 -0.034736 0.036736
v 0.056718 -0.033630 0.036935
v 0.056830 -0.032500 0.037000
v 0.056830 0.032500 0.037000
v 0.056718 0.033630 0.036935
v 0.056373 0.034736 0.036736
v 0.055773 0.035773 0.036390
v 0.055974 -0.035974 0.035431
v 0.056718 -0.034935 0.035630
v 0.057176 -0.033753 0.035753
v 0.057330 -0.032500 0.035794
v 0.057330 0.032500 0.035794
v 0.057176 0.033753 0.035753
v 0.056718 0.034935 0.035630
v 0.055974 0.035974 0.035431
v 0.056036 -0.036036 0.034500
v 0.056830 -0.035000 0.034500
v 0.057330 -0.033794 0.034500
v 0.057500 -0.032500 0.034500
v 0.057500 0.032500 0.034500
v 0.057330 0.033794 0.034500
v 0.056830 0.035000 0.034500
v 0.056036 0.036036 0.034500
v 0.056036 -0.036036 0.005000
v 0.056830 -0.035000 0.005000
v 0.057330 -0.033794 0.005000
v 0.057500 -0.032500 0.005000
v 0.057500 0.032500 0.005000
v 0.057330 0.033794 0.005000
v 0.056830 0.035000 0.005000
v 0.056036 0.036036 0.005000
v 0.055974 -0.035974 0.004069
v 0.056718 -0.034935 0.003870
v 0.057176 -0.033753 0.003747
v 0.057330 -0.032500 0.003706
v 0.057330 0.032500 0.003706
v 0.057176 0.033753 0.003747
v 0.056718 0.034935 0.003870
v 0.055974 0.035974 0.004069
v 0.055773 -0.035773 0.003110
v 0.056373 -0.034736 0.002764
v 0.056718 -0.033630 0.002565
v 0.056830 -0.032500 0.002500
v 0.056830 0.032500 0.002500
v 0.056718 0.033630 0.002565
v 0.056373 0.034736 0.002764
v 0.055773 0.035773 0.003110
v 0.055387 -0.035387 0.002113
v 0.055773 -0.034390 0.001727
v 0.055974 -0.033431 0.001526
v 0.056036 -0.032500 0.001464
v 0.056036 0.032500 0.001464
v 0.055974 0.033431 0.001526
v 0.055773 0.034390 0.001727
v 0.055387 0.035387 0.002113
v -0.054390 -0.035773 0.037773
v -0.053431 -0.035974 0.037974
v -0.052500 -0.036036 0.038036
v -0.032000 -0.036036 0.038036
v 0.032000 -0.036036 0.038036
v 0.052500 -0.036036 0.038036
v 0.053431 -0.035974 0.037974
v 0.054390 -0.035773 0.037773
v -0.054736 -0.034736 0.038373
v -0.053630 -0.034935 0.038718
v -0.052500 -0.035000 0.038830
v -0.032000 -0.035000 0.038830
v 0.032000 -0.035000 0.038830
v 0.052500 -0.035000 0.038830
v 0.053630 -0.034935 0.038718
v 0.054736 -0.034736 0.038373
v -0.054935 -0.033630 0.038718
v -0.053753 -0.033753 0.039176
v -0.052500 -0.033794 0.039330
v -0.032000 -0.033794 0.039330
v 0.032000 -0.033794 0.039330
v 0.052500 -0.033794 0.039330
v 0.053753 -0.033753 0.039176
v 0.054935 -0.033630 0.038718
v -0.055000 -0.032500 0.038830
v -0.053794 -0.032500 0.039330
v -0.052500 -0.032500 0.039500
v -0.032000 -0.032500 0.039500
v 0.032000 -0.032500 0.039500
v 0.052500 -0.032500 0.039500
v 0.053794 -0.032500 0.039330
v 0.055000 -0.032500 0.038830
v -0.056036 0.004900 0.038036
v -0.055000 0.004900 0.038830
v -0.053794 0.004900 0.039330
v -0.052500 0.004900 0.039500
v -0.032000 0.004900 0.039500
v 0.032000 0.004900 0.039500
v 0.052500 0.004900 0.039500
v 0.053794 0.004900 0.039330
v 0.055000 0.004900 0.038830
v 0.056036 0.004900 0.038036
v -0.056036 0.007500 0.038036
v -0.055000 0.007500 0.038830
v -0.053794 0.007500 0.039330
v -0.052500 0.007500 0.039500
v -0.032000 0.007500 0.039500
v 0.032000 0.007500 0.039500
v 0.052500 0.007500 0.039500
v 0.053794 0.007500 0.039330
v 0.055000 0.007500 0.038830
v 0.056036 0.007500 0.038036
v -0.056036 0.009300 0.038036
v -0.055000 0.009300 0.038830
v -0.053794 0.009300 0.039330
v -0.052500 0.009300 0.039500
v -0.032000 0.009300 0.039500
v 0.032000 0.009300 0.039500
v 0.052500 0.009300 0.039500
v 0.053794 0.009300 0.039330
v 0.055000 0.009300 0.038830
v 0.056036 0.009300 0.038036
v -0.056036 0.011900 0.038036
v -0.055000 0.011900 0.038830
v -0.053794 0.011900 0.039330
v -0.052500 0.011900 0.039500
v -0.032000 0.011900 0.039500
v 0.032000 0.011900 0.039500
v 0.052500 0.011900 0.039500
v 0.053794 0.011900 0.039330
v 0.055000 0.011900 0.038830
v 0.056036 0.011900 0.038036
v -0.056036 0.013700 0.038036
v -0.055000 0.013700 0.038830
v -0.053794 0.013700 0.039330
v -0.052500 0.013700 0.039500
v -0.032000 0.013700 0.039500
v 0.032000 0.013700 0.039500
v 0.052500 0.013700 0.039500
v 0.053794 0.013700 0.039330
v 0.055000 0.013700 0.038830
v 0.056036 0.013700 0.038036
v -0.056036 0.016300 0.038036
v -0.055000 0.016300 0.038830
v -0.053794 0.016300 0.039330
v -0.052500 0.016300 0.039500
v -0.032000 0.016300 0.039500
v 0.032000 0.016300 0.039500
v 0.052500 0.016300 0.039500
v 0.053794 0.016300 0.039330
v 0.055000 0.016300 0.038830
v 0.056036 0.016300 0.038036
v -0.056036 0.018100 0.038036
v -0.055000 0.018100 0.038830
v -0.053794 0.018100 0.039330
v -0.052500 0.018100 0.039500
v -0.032000 0.018100 0.039500
v 0.032000 0.018100 0.039500
v 0.052500 0.018100 0.039500
v 0.053794 0.018100 0.039330
v 0.055000 0.018100 0.038830
v 0.056036 0.018100 0.038036
v -0.056036 0.020700 0.038036
v -0.055000 0.020700 0.038830
v -0.053794 0.020700 0.039330
v -0.052500 0.020700 0.039500
v -0.032000 0.020700 0.039500
v 0.032000 0.020700 0.039500
v 0.052500 0.020700 0.039500
v 0.053794 0.020700 0.039330
v 0.055000 0.020700 0.038830
v 0.056036 0.020700 0.038036
v -0.056036 0.022500 0.038036
v -0.055000 0.022500 0.038830
v -0.053794 0.022500 0.039330
v -0.052500 0.022500 0.039500
v -0.032000 0.022500 0.039500
v 0.032000 0.022500 0.039500
v 0.052500 0.022500 0.039500
v 0.053794 0.022500 0.039330
v 0.055000 0.022500 0.038830
v 0.056036 0.022500 0.038036
v -0.056036 0.025100 0.038036
v -0.055000 0.025100 0.038830
v -0.053794 0.025100 0.039330
v -0.052500 0.025100 0.039500
v -0.032000 0.025100 0.039500
v 0.032000 0.025100 0.039500
v 0.052500 0.025100 0.039500
v 0.053794 0.025100 0.039330
v 0.055000 0.025100 0.038830
v 0.056036 0.025100 0.038036
v -0.056036 0.026900 0.038036
v -0.055000 0.026900 0.038830
v -0.053794 0.026900 0.039330
v -0.052500 0.026900 0.039500
v -0.032000 0.026900 0.039500
v 0.032000 0.026900 0.039500
v 0.052500 0.026900 0.039500
v 0.053794 0.026900 0.039330
v 0.055000 0.026900 0.038830
v 0.056036 0.026900 0.038036
v -0.056036 0.029500 0.038036
v -0.055000 0.029500 0.038830
v -0.053794 0.029500 0.039330
v -0.052500 0.029500 0.039500
v -0.032000 0.029500 0.039500
v 0.032000 0.029500 0.039500
v 0.052500 0.029500 0.039500
v 0.053794 0.029500 0.039330
v 0.055000 0.029500 0.038830
v 0.056036 0.029500 0.038036
v -0.055000 0.032500 0.038830
v -0.053794 0.032500 0.039330
v -0.052500 0.032500 0.039500
v -0.032000 0.032500 0.039500
v 0.032000 0.032500 0.039500
v 0.052500 0.032500 0.039500
v 0.053794 0.032500 0.039330
v 0.055000 0.032500 0.038830
v -0.054935 0.033630 0.038718
v -0.053753 0.033753 0.039176
v -0.052500 0.033794 0.039330
v -0.032000 0.033794 0.039330
v 0.032000 0.033794 0.039330
v 0.052500 0.033794 0.039330
v 0.053753 0.033753 0.039176
v 0.054935 0.033630 0.038718
v -0.054736 0.034736 0.038373
v -0.053630 0.034935 0.038718
v -0.052500 0.035000 0.038830
v -0.032000 0.035000 0.038830
v 0.032000 0.035000 0.038830
v 0.052500 0.035000 0.038830
v 0.053630 0.034935 0.038718
v 0.054736 0.034736 0.038373
v -0.054390 0.035773 0.037773
v -0.053431 0.035974 0.037974
v -0.052500 0.036036 0.038036
v -0.032000 0.036036 0.038036
v 0.032000 0.036036 0.038036
v 0.052500 0.036036 0.038036
v 0.053431 0.035974 0.037974
v 0.054390 0.035773 0.037773
v -0.054390 -0.035773 0.001727
v -0.053431 -0.035974 0.001526
v -0.052500 -0.036036 0.001464
v 0.052500 -0.036036 0.001464
v 0.053431 -0.035974 0.001526
v 0.054390 -0.035773 0.001727
v -0.054736 -0.034736 0.001127
v -0.053630 -0.034935 0.000782
v -0.052500 -0.035000 0.000670
v 0.052500 -0.035000 0.000670
v 0.053630 -0.034935 0.000782
v 0.054736 -0.034736 0.001127
v -0.054935 -0.033630 0.000782
v -0.053753 -0.033753 0.000324
v -0.052500 -0.033794 0.000170
v 0.052500 -0.033794 0.000170
v 0.053753 -0.033753 0.000324
v 0.054935 -0.033630 0.000782
v -0.055000 -0.032500 0.000670
v -0.053794 -0.032500 0.000170
v -0.052500 -0.032500 0.000000
v 0.052500 -0.032500 0.000000
v 0.053794 -0.032500 0.000170
v 0.055000 -0.032500 0.000670
v -0.055000 0.032500 0.000670
v -0.053794 0.032500 0.000170
v -0.052500 0.032500 0.000000
v 0.052500 0.032500 0.000000
v 0.053794 0.032500 0.000170
v 0.055000 0.032500 0.000670
v -0.054935 0.033630 0.000782
v -0.053753 0.033753 0.000324
v -0.052500 0.033794 0.000170
v 0.052500 0.033794 0.000170
v 0.053753 0.033753 0.000324
v 0.054935 0.033630 0.000782
v -0.054736 0.034736 0.001127
v -0.053630 0.034935 0.000782
v -0.052500 0.035000 0.000670
v 0.052500 0.035000 0.000670
v 0.053630 0.034935 0.000782
v 0.054736 0.034736 0.001127
v -0.054390 0.035773 0.001727
v -0.053431 0.035974 0.001526
v -0.052500 0.036036 0.001464
v 0.052500 0.036036 0.001464
v 0.053431 0.035974 0.001526
v 0.054390 0.035773 0.001727
v -0.054736 -0.036373 0.036736
v -0.054935 -0.036718 0.035630
v -0.055000 -0.036830 0.034500
v -0.055000 -0.036830 0.005000
v -0.054935 -0.036718 0.003870
v -0.054736 -0.036373 0.002764
v -0.053630 -0.036718 0.036935
v -0.053753 -0.037176 0.035753
v -0.053794 -0.037330 0.034500
v -0.053794 -0.037330 0.005000
v -0.053753 -0.037176 0.003747
v -0.053630 -0.036718 0.002565
v -0.052500 -0.036830 0.037000
v -0.052500 -0.037330 0.035794
v -0.052500 -0.037500 0.034500
v -0.052500 -0.037500 0.005000
v -0.052500 -0.037330 0.003706
v -0.052500 -0.036830 0.002500
v 0.052500 -0.036830 0.037000
v 0.052500 -0.037330 0.035794
v 0.052500 -0.037500 0.034500
v 0.052500 -0.037500 0.005000
v 0.052500 -0.037330 0.003706
v 0.052500 -0.036830 0.002500
v 0.053630 -0.036718 0.036935
v 0.053753 -0.037176 0.035753
v 0.053794 -0.037330 0.034500
v 0.053794 -0.037330 0.005000
v 0.053753 -0.037176 0.003747
v 0.053630 -0.036718 0.002565
v 0.054736 -0.036373 0.036736
v 0.054935 -0.036718 0.035630
v 0.055000 -0.036830 0.034500
v 0.055000 -0.036830 0.005000
v 0.054935 -0.036718 0.003870
v 0.054736 -0.036373 0.002764
v -0.054736 0.036373 0.036736
v -0.054935 0.036718 0.035630
v -0.055000 0.036830 0.034500
v -0.055000 0.036830 0.005000
v -0.054935 0.036718 0.003870
v -0.054736 0.036373 0.002764
v -0.053630 0.036718 0.036935
v -0.053753 0.037176 0.035753
v -0.053794 0.037330 0.034500
v -0.053794 0.037330 0.005000
v -0.053753 0.037176 0.003747
v -0.053630 0.036718 0.002565
v -0.052500 0.036830 0.037000
v -0.052500 0.037330 0.035794
v -0.052500 0.037500 0.034500
v -0.052500 0.037500 0.005000
v -0.052500 0.037330 0.003706
v -0.052500 0.036830 0.002500
v 0.052500 0.036830 0.037000
v 0.052500 0.037330 0.035794
v 0.052500 0.037500 0.034500
v 0.052500 0.037500 0.005000
v 0.052500 0.037330 0.003706
v 0.052500 0.036830 0.002500
v 0.053630 0.036718 0.036935
v 0.053753 0.037176 0.035753
v 0.053794 0.037330 0.034500
v 0.053794 0.037330 0.005000
v 0.053753 0.037176 0.003747
v 0.053630 0.036718 0.002565
v 0.054736 0.036373 0.036736
v 0.054935 0.036718 0.035630
v 0.055000 0.036830 0.034500
v 0.055000 0.036830 0.005000
v 0.054935 0.036718 0.003870
v 0.054736 0.036373 0.002764
v -0.032000 0.004900 0.033500
v 0.032000 0.004900 0.033500
v 0.032000 0.007500 0.033500
v -0.032000 0.007500 0.033500
v -0.032000 0.004900 0.039500
v -0.032000 0.004900 0.033500
v -0.032000 0.007500 0.033500
v -0.032000 0.007500 0.039500
v 0.032000 0.004900 0.033500
v 0.032000 0.004900 0.039500
v 0.032000 0.007500 0.039500
v 0.032000 0.007500 0.033500
v -0.032000 0.004900 0.039500
v 0.032000 0.004900 0.039500
v 0.032000 0.004900 0.033500
v -0.032000 0.004900 0.033500
v -0.032000 0.007500 0.033500
v 0.032000 0.007500 0.033500
v 0.032000 0.007500 0.039500
v -0.032000 0.007500 0.039500
v -0.032000 0.009300 0.033500
v 0.032000 0.009300 0.033500
v 0.032000 0.011900 0.033500
v -0.032000 0.011900 0.033500
v -0.032000 0.009300 0.039500
v -0.032000 0.009300 0.033500
v -0.032000 0.011900 0.033500
v -0.032000 0.011900 0.039500
v 0.032000 0.009300 0.033500
v 0.032000 0.009300 0.039500
v 0.032000 0.011900 0.039500
v 0.032000 0.011900 0.033500
v -0.032000 0.009300 0.039500
v 0.032000 0.009300 0.039500
v 0.032000 0.009300 0.033500
v -0.032000 0.009300 0.033500
v -0.032000 0.011900 0.033500
v 0.032000 0.011900 0.033500
v 0.032000 0.011900 0.039500
v -0.032000 0.011900 0.039500
v -0.032000 0.013700 0.033500
v 0.032000 0.013700 0.033500
v 0.032000 0.016300 0.033500
v -0.032000 0.016300 0.033500
v -0.032000 0.013700 0.039500
v -0.032000 0.013700 0.033500
v -0.032000 0.016300 0.033500
v -0.032000 0.016300 0.039500
v 0.032000 0.013700 0.033500
v 0.032000 0.013700 0.039500
v 0.032000 0.016300 0.039500
v 0.032000 0.016300 0.033500
v -0.032000 0.013700 0.039500
v 0.032000 0.013700 0.039500
v 0.032000 0.013700 0.033500
v -0.032000 0.013700 0.033500
v -0.032000 0.016300 0.033500
v 0.032000 0.016300 0.033500
v 0.032000 0.016300 0.039500
v -0.032000 0.016300 0.039500
v -0.032000 0.018100 0.033500
v 0.032000 0.018100 0.033500
v 0.032000 0.020700 0.033500
v -0.032000 0.020700 0.033500
v -0.032000 0.018100 0.039500
v -0.032000 0.018100 0.033500
v -0.032000 0.020700 0.033500
v -0.032000 0.020700 0.039500
v 0.032000 0.018100 0.033500
v 0.032000 0.018100 0.039500
v 0.032000 0.020700 0.039500
v 0.032000 0.020700 0.033500
v -0.032000 0.018100 0.039500
v 0.032000 0.018100 0.039500
v 0.032000 0.018100 0.033500
v -0.032000 0.018100 0.033500
v -0.032000 0.020700 0.033500
v 0.032000 0.020700 0.033500
v 0.032000 0.020700 0.039500
v -0.032000 0.020700 0.039500
v -0.032000 0.022500 0.033500
v 0.032000 0.022500 0.033500
v 0.032000 0.025100 0.033500
v -0.032000 0.025100 0.033500
v -0.032000 0.022500 0.039500
v -0.032000 0.022500 0.033500
v -0.032000 0.025100 0.033500
v -0.032000 0.025100 0.039500
v 0.032000 0.022500 0.033500
v 0.032000 0.022500 0.039500
v 0.032000 0.025100 0.039500
v 0.032000 0.025100 0.033500
v -0.032000 0.022500 0.039500
v 0.032000 0.022500 0.039500
v 0.032000 0.022500 0.033500
v -0.032000 0.022500 0.033500
v -0.032000 0.025100 0.033500
v 0.032000 0.025100 0.033500
v 0.032000 0.025100 0.039500
v -0.032000 0.025100 0.039500
v -0.032000 0.026900 0.033500
v 0.032000 0.026900 0.033500
v 0.032000 0.029500 0.033500
v -0.032000 0.029500 0.033500
v -0.032000 0.026900 0.039500
v -0.032000 0.026900 0.033500
v -0.032000 0.029500 0.033500
v -0.032000 0.029500 0.039500
v 0.032000 0.026900 0.033500
v 0.032000 0.026900 0.039500
v 0.032000 0.029500 0.039500
v 0.032000 0.029500 0.033500
v -0.032000 0.026900 0.039500
v 0.032000 0.026900 0.039500
v 0.032000 0.026900 0.033500
v -0.032000 0.026900 0.033500
v -0.032000 0.029500 0.033500
v 0.032000 0.029500 0.033500
v 0.032000 0.029500 0.039500
v -0.032000 0.029500 0.039500
v -0.052000 -0.031500 0.040100
v 0.004000 -0.031500 0.040100
v -0.052000 -0.031500 0.039500
v 0.004000 -0.031500 0.039500
v -0.052000 -0.004500 0.040100
v 0.004000 -0.004500 0.040100
v -0.052000 -0.004500 0.039500
v 0.004000 -0.004500 0.039500
v 0.008000 -0.031500 0.039800
v 0.055500 -0.031500 0.039800
v 0.055500 -0.004500 0.039800
v 0.008000 -0.004500 0.039800
v 0.013500 -0.005300 0.040100
v 0.011678 -0.005716 0.040100
v 0.010216 -0.006881 0.040100
v 0.009405 -0.008565 0.040100
v 0.009405 -0.010435 0.040100
v 0.010216 -0.012119 0.040100
v 0.011678 -0.013284 0.040100
v 0.013500 -0.013700 0.040100
v 0.015322 -0.013284 0.040100
v 0.016784 -0.012119 0.040100
v 0.017595 -0.010435 0.040100
v 0.017595 -0.008565 0.040100
v 0.016784 -0.006881 0.040100
v 0.015322 -0.005716 0.040100
v 0.013500 -0.006700 0.040100
v 0.012285 -0.006977 0.040100
v 0.011311 -0.007754 0.040100
v 0.010770 -0.008877 0.040100
v 0.010770 -0.010123 0.040100
v 0.011311 -0.011246 0.040100
v 0.012285 -0.012023 0.040100
v 0.013500 -0.012300 0.040100
v 0.014715 -0.012023 0.040100
v 0.015689 -0.011246 0.040100
v 0.016230 -0.010123 0.040100
v 0.016230 -0.008877 0.040100
v 0.015689 -0.007754 0.040100
v 0.014715 -0.006977 0.040100
v 0.013500 -0.006700 0.039100
v 0.012100 -0.007075 0.039100
v 0.011075 -0.008100 0.039100
v 0.010700 -0.009500 0.039100
v 0.011075 -0.010900 0.039100
v 0.012100 -0.011925 0.039100
v 0.013500 -0.012300 0.039100
v 0.014900 -0.011925 0.039100
v 0.015925 -0.010900 0.039100
v 0.016300 -0.009500 0.039100
v 0.015925 -0.008100 0.039100
v 0.014900 -0.007075 0.039100
v 0.013500 -0.006700 0.040300
v 0.012100 -0.007075 0.040300
v 0.011075 -0.008100 0.040300
v 0.010700 -0.009500 0.040300
v 0.011075 -0.010900 0.040300
v 0.012100 -0.011925 0.040300
v 0.013500 -0.012300 0.040300
v 0.014900 -0.011925 0.040300
v 0.015925 -0.010900 0.040300
v 0.016300 -0.009500 0.040300
v 0.015925 -0.008100 0.040300
v 0.014900 -0.007075 0.040300
v 0.013500 -0.007300 0.041100
v 0.012400 -0.007595 0.041100
v 0.011595 -0.008400 0.041100
v 0.011300 -0.009500 0.041100
v 0.011595 -0.010600 0.041100
v 0.012400 -0.011405 0.041100
v 0.013500 -0.011700 0.041100
v 0.014600 -0.011405 0.041100
v 0.015405 -0.010600 0.041100
v 0.015700 -0.009500 0.041100
v 0.015405 -0.008400 0.041100
v 0.014600 -0.007595 0.041100
v 0.013500 -0.008400 0.041600
v 0.012950 -0.008547 0.041600
v 0.012547 -0.008950 0.041600
v 0.012400 -0.009500 0.041600
v 0.012547 -0.010050 0.041600
v 0.012950 -0.010453 0.041600
v 0.013500 -0.010600 0.041600
v 0.014050 -0.010453 0.041600
v 0.014453 -0.010050 0.041600
v 0.014600 -0.009500 0.041600
v 0.014453 -0.008950 0.041600
v 0.014050 -0.008547 0.041600
v 0.013500 -0.009500 0.041800
v 0.013500 -0.017300 0.040100
v 0.011678 -0.017716 0.040100
v 0.010216 -0.018881 0.040100
v 0.009405 -0.020565 0.040100
v 0.009405 -0.022435 0.040100
v 0.010216 -0.024119 0.040100
v 0.011678 -0.025284 0.040100
v 0.013500 -0.025700 0.040100
v 0.015322 -0.025284 0.040100
v 0.016784 -0.024119 0.040100
v 0.017595 -0.022435 0.040100
v 0.017595 -0.020565 0.040100
v 0.016784 -0.018881 0.040100
v 0.015322 -0.017716 0.040100
v 0.013500 -0.018700 0.040100
v 0.012285 -0.018977 0.040100
v 0.011311 -0.019754 0.040100
v 0.010770 -0.020877 0.040100
v 0.010770 -0.022123 0.040100
v 0.011311 -0.023246 0.040100
v 0.012285 -0.024023 0.040100
v 0.013500 -0.024300 0.040100
v 0.014715 -0.024023 0.040100
v 0.015689 -0.023246 0.040100
v 0.016230 -0.022123 0.040100
v 0.016230 -0.020877 0.040100
v 0.015689 -0.019754 0.040100
v 0.014715 -0.018977 0.040100
v 0.013500 -0.018700 0.039100
v 0.012100 -0.019075 0.039100
v 0.011075 -0.020100 0.039100
v 0.010700 -0.021500 0.039100
v 0.011075 -0.022900 0.039100
v 0.012100 -0.023925 0.039100
v 0.013500 -0.024300 0.039100
v 0.014900 -0.023925 0.039100
v 0.015925 -0.022900 0.039100
v 0.016300 -0.021500 0.039100
v 0.015925 -0.020100 0.039100
v 0.014900 -0.019075 0.039100
v 0.013500 -0.018700 0.040300
v 0.012100 -0.019075 0.040300
v 0.011075 -0.020100 0.040300
v 0.010700 -0.021500 0.040300
v 0.011075 -0.022900 0.040300
v 0.012100 -0.023925 0.040300
v 0.013500 -0.024300 0.040300
v 0.014900 -0.023925 0.040300
v 0.015925 -0.022900 0.040300
v 0.016300 -0.021500 0.040300
v 0.015925 -0.020100 0.040300
v 0.014900 -0.019075 0.040300
v 0.013500 -0.019300 0.041100
v 0.012400 -0.019595 0.041100
v 0.011595 -0.020400 0.041100
v 0.011300 -0.021500 0.041100
v 0.011595 -0.022600 0.041100
v 0.012400 -0.023405 0.041100
v 0.013500 -0.023700 0.041100
v 0.014600 -0.023405 0.041100
v 0.015405 -0.022600 0.041100
v 0.015700 -0.021500 0.041100
v 0.015405 -0.020400 0.041100
v 0.014600 -0.019595 0.041100
v 0.013500 -0.020400 0.041600
v 0.012950 -0.020547 0.041600
v 0.012547 -0.020950 0.041600
v 0.012400 -0.021500 0.041600
v 0.012547 -0.022050 0.041600
v 0.012950 -0.022453 0.041600
v 0.013500 -0.022600 0.041600
v 0.014050 -0.022453 0.041600
v 0.014453 -0.022050 0.041600
v 0.014600 -0.021500 0.041600
v 0.014453 -0.020950 0.041600
v 0.014050 -0.020547 0.041600
v 0.013500 -0.021500 0.041800
v 0.046500 -0.011200 0.039500
v 0.044090 -0.011582 0.039500
v 0.041915 -0.012690 0.039500
v 0.040190 -0.014415 0.039500
v 0.039082 -0.016590 0.039500
v 0.038700 -0.019000 0.039500
v 0.039082 -0.021410 0.039500
v 0.040190 -0.023585 0.039500
v 0.041915 -0.025310 0.039500
v 0.044090 -0.026418 0.039500
v 0.046500 -0.026800 0.039500
v 0.048910 -0.026418 0.039500
v 0.051085 -0.025310 0.039500
v 0.052810 -0.023585 0.039500
v 0.053918 -0.021410 0.039500
v 0.054300 -0.019000 0.039500
v 0.053918 -0.016590 0.039500
v 0.052810 -0.014415 0.039500
v 0.051085 -0.012690 0.039500
v 0.048910 -0.011582 0.039500
v 0.046500 -0.011200 0.040300
v 0.044090 -0.011582 0.040300
v 0.041915 -0.012690 0.040300
v 0.040190 -0.014415 0.040300
v 0.039082 -0.016590 0.040300
v 0.038700 -0.019000 0.040300
v 0.039082 -0.021410 0.040300
v 0.040190 -0.023585 0.040300
v 0.041915 -0.025310 0.040300
v 0.044090 -0.026418 0.040300
v 0.046500 -0.026800 0.040300
v 0.048910 -0.026418 0.040300
v 0.051085 -0.025310 0.040300
v 0.052810 -0.023585 0.040300
v 0.053918 -0.021410 0.040300
v 0.054300 -0.019000 0.040300
v 0.053918 -0.016590 0.040300
v 0.052810 -0.014415 0.040300
v 0.051085 -0.012690 0.040300
v 0.048910 -0.011582 0.040300
v 0.046500 -0.012600 0.040500
v 0.044522 -0.012913 0.040500
v 0.042738 -0.013822 0.040500
v 0.041322 -0.015238 0.040500
v 0.040413 -0.017022 0.040500
v 0.040100 -0.019000 0.040500
v 0.040413 -0.020978 0.040500
v 0.041322 -0.022762 0.040500
v 0.042738 -0.024178 0.040500
v 0.044522 -0.025087 0.040500
v 0.046500 -0.025400 0.040500
v 0.048478 -0.025087 0.040500
v 0.050262 -0.024178 0.040500
v 0.051678 -0.022762 0.040500
v 0.052587 -0.020978 0.040500
v 0.052900 -0.019000 0.040500
v 0.052587 -0.017022 0.040500
v 0.051678 -0.015238 0.040500
v 0.050262 -0.013822 0.040500
v 0.048478 -0.012913 0.040500
v 0.046500 -0.013000 0.040500
v 0.044646 -0.013294 0.040500
v 0.042973 -0.014146 0.040500
v 0.041646 -0.015473 0.040500
v 0.040794 -0.017146 0.040500
v 0.040500 -0.019000 0.040500
v 0.040794 -0.020854 0.040500
v 0.041646 -0.022527 0.040500
v 0.042973 -0.023854 0.040500
v 0.044646 -0.024706 0.040500
v 0.046500 -0.025000 0.040500
v 0.048354 -0.024706 0.040500
v 0.050027 -0.023854 0.040500
v 0.051354 -0.022527 0.040500
v 0.052206 -0.020854 0.040500
v 0.052500 -0.019000 0.040500
v 0.052206 -0.017146 0.040500
v 0.051354 -0.015473 0.040500
v 0.050027 -0.014146 0.040500
v 0.048354 -0.013294 0.040500
v 0.046500 -0.013000 0.039700
v 0.044646 -0.013294 0.039700
v 0.042973 -0.014146 0.039700
v 0.041646 -0.015473 0.039700
v 0.040794 -0.017146 0.039700
v 0.040500 -0.019000 0.039700
v 0.040794 -0.020854 0.039700
v 0.041646 -0.022527 0.039700
v 0.042973 -0.023854 0.039700
v 0.044646 -0.024706 0.039700
v 0.046500 -0.025000 0.039700
v 0.048354 -0.024706 0.039700
v 0.050027 -0.023854 0.039700
v 0.051354 -0.022527 0.039700
v 0.052206 -0.020854 0.039700
v 0.052500 -0.019000 0.039700
v 0.052206 -0.017146 0.039700
v 0.051354 -0.015473 0.039700
v 0.050027 -0.014146 0.039700
v 0.048354 -0.013294 0.039700
v 0.046500 -0.013300 0.039700
v 0.044739 -0.013579 0.039700
v 0.043150 -0.014389 0.039700
v 0.041889 -0.015650 0.039700
v 0.041079 -0.017239 0.039700
v 0.040800 -0.019000 0.039700
v 0.041079 -0.020761 0.039700
v 0.041889 -0.022350 0.039700
v 0.043150 -0.023611 0.039700
v 0.044739 -0.024421 0.039700
v 0.046500 -0.024700 0.039700
v 0.048261 -0.024421 0.039700
v 0.049850 -0.023611 0.039700
v 0.051111 -0.022350 0.039700
v 0.051921 -0.020761 0.039700
v 0.052200 -0.019000 0.039700
v 0.051921 -0.017239 0.039700
v 0.051111 -0.015650 0.039700
v 0.049850 -0.014389 0.039700
v 0.048261 -0.013579 0.039700
v 0.046500 -0.013300 0.041300
v 0.044739 -0.013579 0.041300
v 0.043150 -0.014389 0.041300
v 0.041889 -0.015650 0.041300
v 0.041079 -0.017239 0.041300
v 0.040800 -0.019000 0.041300
v 0.041079 -0.020761 0.041300
v 0.041889 -0.022350 0.041300
v 0.043150 -0.023611 0.041300
v 0.044739 -0.024421 0.041300
v 0.046500 -0.024700 0.041300
v 0.048261 -0.024421 0.041300
v 0.049850 -0.023611 0.041300
v 0.051111 -0.022350 0.041300
v 0.051921 -0.020761 0.041300
v 0.052200 -0.019000 0.041300
v 0.051921 -0.017239 0.041300
v 0.051111 -0.015650 0.041300
v 0.049850 -0.014389 0.041300
v 0.048261 -0.013579 0.041300
v 0.046500 -0.013800 0.041900
v 0.044893 -0.014055 0.041900
v 0.043444 -0.014793 0.041900
v 0.042293 -0.015944 0.041900
v 0.041555 -0.017393 0.041900
v 0.041300 -0.019000 0.041900
v 0.041555 -0.020607 0.041900
v 0.042293 -0.022056 0.041900
v 0.043444 -0.023207 0.041900
v 0.044893 -0.023945 0.041900
v 0.046500 -0.024200 0.041900
v 0.048107 -0.023945 0.041900
v 0.049556 -0.023207 0.041900
v 0.050707 -0.022056 0.041900
v 0.051445 -0.020607 0.041900
v 0.051700 -0.019000 0.041900
v 0.051445 -0.017393 0.041900
v 0.050707 -0.015944 0.041900
v 0.049556 -0.014793 0.041900
v 0.048107 -0.014055 0.041900
v 0.046500 -0.015500 0.042000
v 0.045418 -0.015671 0.042000
v 0.044443 -0.016168 0.042000
v 0.043668 -0.016943 0.042000
v 0.043171 -0.017918 0.042000
v 0.043000 -0.019000 0.042000
v 0.043171 -0.020082 0.042000
v 0.043668 -0.021057 0.042000
v 0.044443 -0.021832 0.042000
v 0.045418 -0.022329 0.042000
v 0.046500 -0.022500 0.042000
v 0.047582 -0.022329 0.042000
v 0.048557 -0.021832 0.042000
v 0.049332 -0.021057 0.042000
v 0.049829 -0.020082 0.042000
v 0.050000 -0.019000 0.042000
v 0.049829 -0.017918 0.042000
v 0.049332 -0.016943 0.042000
v 0.048557 -0.016168 0.042000
v 0.047582 -0.015671 0.042000
v 0.046500 -0.019000 0.041700
vn -0.7746 -0.4472 0.4472
vn -0.5774 -0.5774 0.5773
vn -0.6547 -0.3778 0.6547
vn -0.8436 -0.2260 0.4870
vn -0.6947 -0.1861 0.6947
vn -0.8660 -0.0000 0.5000
vn -0.7071 -0.0000 0.7071
vn -0.6947 0.1861 0.6947
vn -0.6546 0.3781 0.6546
vn -0.8436 0.2260 0.4870
vn -0.5774 0.5774 0.5773
vn -0.7746 0.4472 0.4472
vn -0.8436 -0.4870 0.2260
vn -0.6547 -0.6547 0.3779
vn -0.9351 -0.2505 0.2505
vn -0.9659 -0.0000 0.2588
vn -0.9660 -0.0000 0.2586
vn -0.9351 0.2506 0.2506
vn -0.6547 0.6547 0.3778
vn -0.8436 0.4870 0.2260
vn -0.8660 -0.5000 -0.0000
vn -0.6947 -0.6947 0.1861
vn -0.9659 -0.2588 -0.0000
vn -1.0000 -0.0000 -0.0000
vn -0.9659 0.2588 -0.0000
vn -0.6947 0.6947 0.1861
vn -0.8660 0.5000 -0.0000
vn -0.8659 -0.5002 -0.0000
vn -0.7071 -0.7071 -0.0000
vn -0.7071 0.7071 -0.0000
vn -0.6947 -0.6947 -0.1861
vn -0.8436 -0.4870 -0.2260
vn -0.9351 -0.2505 -0.2505
vn -0.9659 -0.0000 -0.2588
vn -0.9351 0.2506 -0.2506
vn -0.8436 0.4870 -0.2260
vn -0.6947 0.6947 -0.1861
vn -0.6547 -0.6547 -0.3779
vn -0.7746 -0.4472 -0.4472
vn -0.8436 -0.2260 -0.4870
vn -0.8660 -0.0000 -0.5000
vn -0.8436 0.2260 -0.4870
vn -0.7746 0.4472 -0.4472
vn -0.6547 0.6547 -0.3778
vn -0.5774 -0.5774 -0.5773
vn -0.6547 -0.3779 -0.6547
vn -0.6947 -0.1861 -0.6947
vn -0.7071 -0.0000 -0.7071
vn -0.6947 0.1861 -0.6947
vn -0.6547 0.3779 -0.6547
vn -0.5774 0.5773 -0.5773
vn 0.5773 -0.5774 0.5774
vn 0.7746 -0.4472 0.4472
vn 0.6547 -0.3779 0.6547
vn 0.8436 -0.2260 0.4870
vn 0.6947 -0.1861 0.6947
vn 0.8660 -0.0000 0.5000
vn 0.7071 -0.0000 0.7071
vn 0.6947 0.1861 0.6947
vn 0.8436 0.2260 0.4870
vn 0.6547 0.3779 0.6547
vn 0.7746 0.4472 0.4472
vn 0.5774 0.5774 0.5773
vn 0.6547 -0.6547 0.3779
vn 0.8436 -0.4870 0.2260
vn 0.9351 -0.2506 0.2506
vn 0.9659 -0.0000 0.2588
vn 0.9351 0.2505 0.2505
vn 0.8436 0.4870 0.2260
vn 0.6547 0.6547 0.3779
vn 0.6947 -0.6947 0.1861
vn 0.8660 -0.5000 -0.0000
vn 0.9659 -0.2588 -0.0000
vn 1.0000 -0.0000 -0.0000
vn 0.9659 0.2588 -0.0000
vn 0.8660 0.5000 -0.0000
vn 0.6947 0.6947 0.1861
vn 0.7071 -0.7071 -0.0000
vn 0.8659 0.5002 -0.0000
vn 0.7071 0.7071 -0.0000
vn 0.6947 -0.6947 -0.1861
vn 0.8436 -0.4870 -0.2260
vn 0.9351 -0.2506 -0.2506
vn 0.9659 -0.0000 -0.2588
vn 0.9351 0.2505 -0.2505
vn 0.8436 0.4870 -0.2260
vn 0.6947 0.6947 -0.1861
vn 0.6547 -0.6547 -0.3779
vn 0.7746 -0.4472 -0.4472
vn 0.8436 -0.2260 -0.4870
vn 0.8660 -0.0000 -0.5000
vn 0.8436 0.2260 -0.4870
vn 0.7746 0.4472 -0.4472
vn 0.6547 0.6547 -0.3779
vn 0.5774 -0.5774 -0.5773
vn 0.6547 -0.3779 -0.6547
vn 0.6947 -0.1861 -0.6947
vn 0.7071 -0.0000 -0.7071
vn 0.6947 0.1861 -0.6947
vn 0.6547 0.3779 -0.6547
vn 0.5774 0.5774 -0.5773
vn -0.4472 -0.4472 0.7746
vn -0.3779 -0.6547 0.6547
vn -0.2260 -0.4870 0.8436
vn -0.1861 -0.6947 0.6947
vn -0.0000 -0.5000 0.8660
vn -0.0000 -0.7071 0.7071
vn 0.1861 -0.6947 0.6947
vn 0.3779 -0.6547 0.6547
vn 0.2261 -0.4871 0.8436
vn 0.4472 -0.4472 0.7746
vn -0.4870 -0.2260 0.8436
vn -0.2506 -0.2506 0.9351
vn -0.0000 -0.2588 0.9659
vn 0.2506 -0.2506 0.9351
vn 0.4870 -0.2260 0.8436
vn -0.5000 -0.0000 0.8660
vn -0.2588 -0.0000 0.9659
vn -0.0000 -0.0000 1.0000
vn 0.2588 -0.0000 0.9659
vn 0.5000 -0.0000 0.8660
vn -0.4870 0.2260 0.8436
vn -0.2506 0.2506 0.9351
vn -0.0000 0.2588 0.9659
vn 0.2506 0.2506 0.9351
vn 0.4870 0.2260 0.8436
vn -0.4472 0.4472 0.7746
vn -0.2260 0.4870 0.8436
vn -0.0000 0.5000 0.8660
vn 0.2261 0.4871 0.8436
vn 0.4472 0.4472 0.7746
vn -0.3779 0.6547 0.6547
vn -0.1861 0.6947 0.6947
vn -0.0000 0.7071 0.7071
vn 0.1861 0.6947 0.6947
vn 0.3779 0.6547 0.6547
vn -0.4472 -0.4472 -0.7746
vn -0.3778 -0.6547 -0.6547
vn -0.2260 -0.4870 -0.8436
vn -0.1861 -0.6947 -0.6947
vn -0.0000 -0.5000 -0.8660
vn -0.0000 -0.7071 -0.7071
vn 0.1861 -0.6947 -0.6947
vn 0.2260 -0.4870 -0.8436
vn 0.3779 -0.6547 -0.6547
vn 0.4472 -0.4472 -0.7746
vn -0.4870 -0.2260 -0.8436
vn -0.2506 -0.2506 -0.9351
vn -0.0000 -0.2588 -0.9659
vn 0.2506 -0.2506 -0.9351
vn 0.4870 -0.2260 -0.8436
vn -0.5000 -0.0000 -0.8660
vn -0.2588 -0.0000 -0.9659
vn -0.0000 -0.0000 -1.0000
vn 0.2588 -0.0000 -0.9659
vn 0.5000 -0.0000 -0.8660
vn 0.2586 -0.0000 -0.9660
vn -0.4870 0.2260 -0.8436
vn -0.2506 0.2506 -0.9351
vn -0.0000 0.2588 -0.9659
vn 0.2506 0.2506 -0.9351
vn 0.4870 0.2260 -0.8436
vn -0.4472 0.4472 -0.7746
vn -0.2261 0.4871 -0.8436
vn -0.0000 0.5000 -0.8660
vn 0.2261 0.4871 -0.8436
vn 0.4472 0.4472 -0.7746
vn -0.3779 0.6547 -0.6547
vn -0.1861 0.6947 -0.6947
vn -0.0000 0.7067 -0.7075
vn 0.1861 0.6947 -0.6947
vn 0.3779 0.6547 -0.6547
vn -0.4472 -0.7746 0.4472
vn -0.4870 -0.8436 0.2260
vn -0.5000 -0.8660 -0.0000
vn -0.5002 -0.8659 -0.0000
vn -0.4871 -0.8436 -0.2261
vn -0.4472 -0.7746 -0.4472
vn -0.2261 -0.8436 0.4871
vn -0.2506 -0.9351 0.2506
vn -0.2588 -0.9659 -0.0000
vn -0.2506 -0.9351 -0.2506
vn -0.2260 -0.8436 -0.4870
vn -0.0000 -0.8660 0.5000
vn -0.0000 -0.9659 0.2588
vn -0.0000 -1.0000 -0.0000
vn -0.0000 -0.9659 -0.2588
vn -0.0000 -0.8660 -0.5000
vn -0.0000 -0.9661 0.2581
vn 0.2261 -0.8436 0.4871
vn 0.2506 -0.9351 0.2506
vn 0.2588 -0.9659 -0.0000
vn 0.2506 -0.9351 -0.2506
vn 0.2261 -0.8436 -0.4871
vn 0.4472 -0.7746 0.4472
vn 0.4870 -0.8436 0.2260
vn 0.5000 -0.8660 -0.0000
vn 0.4870 -0.8436 -0.2260
vn 0.4472 -0.7746 -0.4472
vn -0.4472 0.7746 0.4472
vn -0.4871 0.8436 0.2261
vn -0.5000 0.8660 -0.0000
vn -0.4870 0.8436 -0.2260
vn -0.4472 0.7746 -0.4472
vn -0.2260 0.8436 0.4870
vn -0.2506 0.9351 0.2506
vn -0.2588 0.9659 -0.0000
vn -0.2506 0.9351 -0.2506
vn -0.2261 0.8436 -0.4871
vn -0.0000 0.8660 0.5000
vn -0.0000 0.9659 0.2588
vn -0.0000 1.0000 -0.0000
vn -0.0000 0.9659 -0.2588
vn -0.0000 0.8660 -0.5000
vn -0.0000 0.9661 -0.2581
vn 0.2260 0.8436 0.4870
vn 0.2506 0.9351 0.2506
vn 0.2588 0.9659 -0.0000
vn 0.2506 0.9351 -0.2506
vn 0.2261 0.8436 -0.4871
vn -0.0000 0.7071 -0.7071
vn 0.4472 0.7746 0.4472
vn 0.4871 0.8436 0.2261
vn 0.5000 0.8660 -0.0000
vn 0.4871 0.8436 -0.2261
vn 0.4472 0.7746 -0.4472
vn -0.0000 0.8000 0.6000
vn -0.3251 0.5631 0.7598
vn -0.0000 0.6502 0.7598
vn -0.6928 0.4000 0.6000
vn -0.4000 0.6928 0.6000
vn -0.6502 -0.0000 0.7598
vn -0.5631 0.3251 0.7598
vn -0.6928 -0.4000 0.6000
vn -0.8000 -0.0000 0.6000
vn -0.3251 -0.5631 0.7598
vn -0.5631 -0.3251 0.7598
vn -0.0000 -0.8000 0.6000
vn -0.4000 -0.6928 0.6000
vn 0.3251 -0.5631 0.7598
vn -0.0000 -0.6502 0.7598
vn 0.4000 -0.6928 0.6000
vn 0.5631 -0.3251 0.7598
vn 0.8000 -0.0000 0.6000
vn 0.6928 -0.4000 0.6000
vn 0.5631 0.3251 0.7598
vn 0.6502 -0.0000 0.7598
vn 0.6928 0.4000 0.6000
vn 0.3251 0.5631 0.7598
vn 0.4000 0.6928 0.6000
vn -0.0000 0.3171 0.9484
vn -0.1585 0.2746 0.9484
vn -0.3170 -0.0000 0.9484
vn -0.2746 0.1585 0.9484
vn -0.2746 -0.1585 0.9484
vn -0.1585 -0.2746 0.9484
vn -0.0000 -0.3171 0.9484
vn 0.1585 -0.2746 0.9484
vn 0.3170 -0.0000 0.9484
vn 0.2746 -0.1585 0.9484
vn 0.1585 0.2746 0.9484
vn 0.2746 0.1585 0.9484
vn -0.3171 -0.0000 0.9484
vn -0.3090 0.9511 -0.0000
vn -0.5878 0.8090 -0.0000
vn -0.8090 0.5878 -0.0000
vn -0.9511 0.3090 -0.0000
vn -0.9511 -0.3090 -0.0000
vn -0.8090 -0.5878 -0.0000
vn -0.5878 -0.8090 -0.0000
vn -0.3090 -0.9511 -0.0000
vn 0.3090 -0.9511 -0.0000
vn 0.5878 -0.8090 -0.0000
vn 0.8090 -0.5878 -0.0000
vn 0.9511 -0.3090 -0.0000
vn 0.9511 0.3090 -0.0000
vn 0.8090 0.5878 -0.0000
vn 0.5878 0.8090 -0.0000
vn 0.3090 0.9511 -0.0000
vn -0.0437 0.1345 0.9899
vn -0.0000 0.1414 0.9899
vn -0.0831 0.1144 0.9899
vn -0.1144 0.0831 0.9899
vn -0.1345 0.0437 0.9899
vn -0.1414 -0.0000 0.9899
vn -0.1345 -0.0437 0.9899
vn -0.1144 -0.0831 0.9899
vn -0.0831 -0.1144 0.9899
vn -0.0437 -0.1345 0.9899
vn -0.0000 -0.1414 0.9899
vn 0.0437 -0.1345 0.9899
vn 0.0831 -0.1144 0.9899
vn 0.1144 -0.0831 0.9899
vn 0.1345 -0.0437 0.9899
vn 0.1414 -0.0000 0.9899
vn 0.1345 0.0437 0.9899
vn 0.1144 0.0831 0.9899
vn 0.0831 0.1144 0.9899
vn 0.0437 0.1345 0.9899
vn -0.0000 0.7682 0.6402
vn -0.1487 0.4575 0.8767
vn -0.0000 0.4811 0.8767
vn -0.4515 0.6215 0.6402
vn -0.2374 0.7306 0.6402
vn -0.3892 0.2828 0.8767
vn -0.2828 0.3892 0.8767
vn -0.6215 0.4516 0.6402
vn -0.4575 0.1487 0.8767
vn -0.7306 0.2374 0.6402
vn -0.4811 -0.0000 0.8767
vn -0.7306 -0.2374 0.6402
vn -0.7682 -0.0000 0.6402
vn -0.3892 -0.2828 0.8767
vn -0.4575 -0.1487 0.8767
vn -0.4515 -0.6215 0.6402
vn -0.6215 -0.4516 0.6402
vn -0.1487 -0.4575 0.8767
vn -0.2828 -0.3892 0.8767
vn -0.0000 -0.7682 0.6402
vn -0.2374 -0.7306 0.6402
vn 0.2374 -0.7306 0.6402
vn -0.0000 -0.4811 0.8767
vn 0.4516 -0.6215 0.6402
vn 0.1487 -0.4575 0.8767
vn 0.6215 -0.4515 0.6402
vn 0.2828 -0.3892 0.8767
vn 0.7306 -0.2374 0.6402
vn 0.3892 -0.2828 0.8767
vn 0.7682 -0.0000 0.6402
vn 0.4575 -0.1487 0.8767
vn 0.7306 0.2374 0.6402
vn 0.4811 -0.0000 0.8767
vn 0.3892 0.2828 0.8767
vn 0.4575 0.1487 0.8767
vn 0.6215 0.4515 0.6402
vn 0.2828 0.3892 0.8767
vn 0.2374 0.7306 0.6402
vn 0.4515 0.6215 0.6402
vn 0.1487 0.4575 0.8767
vn -0.0000 -0.0062 1.0000
vn 0.0019 -0.0059 1.0000
vn 0.0050 -0.0036 1.0000
vn 0.0036 -0.0050 1.0000
vn 0.0059 -0.0019 1.0000
vn 0.0059 0.0019 1.0000
vn 0.0062 -0.0000 1.0000
vn 0.0050 0.0036 1.0000
vn 0.0036 0.0050 1.0000
vn -0.0000 0.0062 1.0000
vn 0.0019 0.0059 1.0000
vn -0.0019 0.0059 1.0000
vn -0.0050 0.0036 1.0000
vn -0.0036 0.0050 1.0000
vn -0.0059 0.0019 1.0000
vn -0.0059 -0.0019 1.0000
vn -0.0062 -0.0000 1.0000
vn -0.0050 -0.0036 1.0000
vn -0.0019 -0.0059 1.0000
vn -0.0036 -0.0050 1.0000
vt 0.000000 0.000000
vt 1.000000 0.000000
vt 0.000000 1.000000
vt 1.000000 1.000000
s 1
usemtl m0
f 10/1/1 1/1/2 2/1/3
f 11/1/4 2/1/3 3/1/5
f 12/1/6 3/1/5 4/1/7
f 13/1/6 4/1/7 5/1/7
f 6/1/8 13/1/6 5/1/7
f 7/1/9 14/1/10 6/1/8
f 8/1/11 15/1/12 7/1/9
f 18/1/13 9/1/14 10/1/1
f 19/1/15 10/1/1 11/1/4
f 20/1/16 11/1/4 12/1/6
f 21/1/17 12/1/6 13/1/6
f 14/1/10 21/1/17 13/1/6
f 15/1/12 22/1/18 14/1/10
f 16/1/19 23/1/20 15/1/12
f 26/1/21 17/1/22 18/1/13
f 27/1/23 18/1/13 19/1/15
f 28/1/24 19/1/15 20/1/16
f 29/1/24 20/1/16 21/1/17
f 22/1/18 29/1/24 21/1/17
f 23/1/20 30/1/25 22/1/18
f 24/1/26 31/1/27 23/1/20
f 34/1/28 25/1/29 26/1/21
f 35/1/23 26/1/21 27/1/23
f 36/1/24 27/1/23 28/1/24
f 37/1/24 28/1/24 29/1/24
f 38/1/25 29/1/24 30/1/25
f 39/1/27 30/1/25 31/1/27
f 40/1/30 31/1/27 32/1/30
f 34/1/28 41/1/31 33/1/29
f 35/1/23 42/1/32 34/1/28
f 36/1/24 43/1/33 35/1/23
f 45/1/34 36/1/24 37/1/24
f 46/1/35 37/1/24 38/1/25
f 47/1/36 38/1/25 39/1/27
f 48/1/37 39/1/27 40/1/30
f 42/1/32 49/1/38 41/1/31
f 43/1/33 50/1/39 42/1/32
f 44/1/34 51/1/40 43/1/33
f 53/1/41 44/1/34 45/1/34
f 54/1/42 45/1/34 46/1/35
f 55/1/43 46/1/35 47/1/36
f 56/1/44 47/1/36 48/1/37
f 50/1/39 57/1/45 49/1/38
f 51/1/40 58/1/46 50/1/39
f 52/1/41 59/1/47 51/1/40
f 61/1/48 52/1/41 53/1/41
f 62/1/49 53/1/41 54/1/42
f 63/1/50 54/1/42 55/1/43
f 64/1/51 55/1/43 56/1/44
f 65/1/52 74/1/53 66/1/54
f 66/1/54 75/1/55 67/1/56
f 67/1/56 76/1/57 68/1/58
f 76/1/57 69/1/58 68/1/58
f 77/1/57 70/1/59 69/1/58
f 78/1/60 71/1/61 70/1/59
f 79/1/62 72/1/63 71/1/61
f 73/1/64 82/1/65 74/1/53
f 74/1/53 83/1/66 75/1/55
f 75/1/55 84/1/67 76/1/57
f 84/1/67 77/1/57 76/1/57
f 85/1/67 78/1/60 77/1/57
f 86/1/68 79/1/62 78/1/60
f 87/1/69 80/1/70 79/1/62
f 81/1/71 90/1/72 82/1/65
f 82/1/65 91/1/73 83/1/66
f 83/1/66 92/1/74 84/1/67
f 92/1/74 85/1/67 84/1/67
f 93/1/74 86/1/68 85/1/67
f 94/1/75 87/1/69 86/1/68
f 95/1/76 88/1/77 87/1/69
f 97/1/78 90/1/72 89/1/78
f 98/1/72 91/1/73 90/1/72
f 99/1/73 92/1/74 91/1/73
f 100/1/74 93/1/74 92/1/74
f 101/1/74 94/1/75 93/1/74
f 102/1/75 95/1/76 94/1/75
f 103/1/79 96/1/80 95/1/76
f 105/1/81 98/1/72 97/1/78
f 106/1/82 99/1/73 98/1/72
f 107/1/83 100/1/74 99/1/73
f 108/1/84 101/1/74 100/1/74
f 101/1/74 110/1/85 102/1/75
f 102/1/75 111/1/86 103/1/79
f 103/1/79 112/1/87 104/1/80
f 113/1/88 106/1/82 105/1/81
f 114/1/89 107/1/83 106/1/82
f 115/1/90 108/1/84 107/1/83
f 116/1/91 109/1/84 108/1/84
f 109/1/84 118/1/92 110/1/85
f 110/1/85 119/1/93 111/1/86
f 111/1/86 120/1/94 112/1/87
f 121/1/95 114/1/89 113/1/88
f 122/1/96 115/1/90 114/1/89
f 123/1/97 116/1/91 115/1/90
f 124/1/98 117/1/91 116/1/91
f 117/1/91 126/1/99 118/1/92
f 118/1/92 127/1/100 119/1/93
f 119/1/93 128/1/101 120/1/94
f 137/1/102 1/1/2 129/1/103
f 138/1/104 129/1/103 130/1/105
f 139/1/106 130/1/105 131/1/107
f 140/1/106 131/1/107 132/1/107
f 141/1/106 132/1/107 133/1/107
f 142/1/106 133/1/107 134/1/107
f 135/1/108 142/1/106 134/1/107
f 136/1/109 143/1/110 135/1/108
f 65/1/52 144/1/111 136/1/109
f 145/1/112 2/1/3 137/1/102
f 146/1/113 137/1/102 138/1/104
f 147/1/114 138/1/104 139/1/106
f 148/1/114 139/1/106 140/1/106
f 149/1/114 140/1/106 141/1/106
f 150/1/114 141/1/106 142/1/106
f 143/1/110 150/1/114 142/1/106
f 144/1/111 151/1/115 143/1/110
f 66/1/54 152/1/116 144/1/111
f 153/1/117 3/1/5 145/1/112
f 154/1/118 145/1/112 146/1/113
f 155/1/119 146/1/113 147/1/114
f 156/1/119 147/1/114 148/1/114
f 157/1/119 148/1/114 149/1/114
f 158/1/119 149/1/114 150/1/114
f 151/1/115 158/1/119 150/1/114
f 152/1/116 159/1/120 151/1/115
f 67/1/56 160/1/121 152/1/116
f 162/1/117 4/1/7 153/1/117
f 163/1/118 153/1/117 154/1/118
f 164/1/119 154/1/118 155/1/119
f 165/1/119 155/1/119 156/1/119
f 166/1/119 156/1/119 157/1/119
f 167/1/119 157/1/119 158/1/119
f 168/1/120 158/1/119 159/1/120
f 169/1/121 159/1/120 160/1/121
f 170/1/58 160/1/121 68/1/58
f 172/1/117 161/1/7 162/1/117
f 173/1/118 162/1/117 163/1/118
f 174/1/119 163/1/118 164/1/119
f 175/1/119 164/1/119 165/1/119
f 177/1/119 166/1/119 167/1/119
f 178/1/120 167/1/119 168/1/120
f 179/1/121 168/1/120 169/1/121
f 180/1/58 169/1/121 170/1/58
f 182/1/117 171/1/7 172/1/117
f 183/1/118 172/1/117 173/1/118
f 184/1/119 173/1/118 174/1/119
f 185/1/119 174/1/119 175/1/119
f 186/1/119 175/1/119 176/1/119
f 187/1/119 176/1/119 177/1/119
f 188/1/120 177/1/119 178/1/120
f 189/1/121 178/1/120 179/1/121
f 190/1/58 179/1/121 180/1/58
f 192/1/117 181/1/7 182/1/117
f 193/1/118 182/1/117 183/1/118
f 194/1/119 183/1/118 184/1/119
f 195/1/119 184/1/119 185/1/119
f 197/1/119 186/1/119 187/1/119
f 198/1/120 187/1/119 188/1/120
f 199/1/121 188/1/120 189/1/121
f 200/1/58 189/1/121 190/1/58
f 202/1/117 191/1/7 192/1/117
f 203/1/118 192/1/117 193/1/118
f 204/1/119 193/1/118 194/1/119
f 205/1/119 194/1/119 195/1/119
f 206/1/119 195/1/119 196/1/119
f 207/1/119 196/1/119 197/1/119
f 208/1/120 197/1/119 198/1/120
f 209/1/121 198/1/120 199/1/121
f 210/1/58 199/1/121 200/1/58
f 212/1/117 201/1/7 202/1/117
f 213/1/118 202/1/117 203/1/118
f 214/1/119 203/1/118 204/1/119
f 215/1/119 204/1/119 205/1/119
f 217/1/119 206/1/119 207/1/119
f 218/1/120 207/1/119 208/1/120
f 219/1/121 208/1/120 209/1/121
f 220/1/58 209/1/121 210/1/58
f 222/1/117 211/1/7 212/1/117
f 223/1/118 212/1/117 213/1/118
f 224/1/119 213/1/118 214/1/119
f 225/1/119 214/1/119 215/1/119
f 226/1/119 215/1/119 216/1/119
f 227/1/119 216/1/119 217/1/119
f 228/1/120 217/1/119 218/1/120
f 229/1/121 218/1/120 219/1/121
f 230/1/58 219/1/121 220/1/58
f 232/1/117 221/1/7 222/1/117
f 233/1/118 222/1/117 223/1/118
f 234/1/119 223/1/118 224/1/119
f 235/1/119 224/1/119 225/1/119
f 237/1/119 226/1/119 227/1/119
f 238/1/120 227/1/119 228/1/120
f 239/1/121 228/1/120 229/1/121
f 240/1/58 229/1/121 230/1/58
f 242/1/117 231/1/7 232/1/117
f 243/1/118 232/1/117 233/1/118
f 244/1/119 233/1/118 234/1/119
f 245/1/119 234/1/119 235/1/119
f 246/1/119 235/1/119 236/1/119
f 247/1/119 236/1/119 237/1/119
f 248/1/120 237/1/119 238/1/120
f 249/1/121 238/1/120 239/1/121
f 250/1/58 239/1/121 240/1/58
f 252/1/117 241/1/7 242/1/117
f 253/1/118 242/1/117 243/1/118
f 254/1/119 243/1/118 244/1/119
f 255/1/119 244/1/119 245/1/119
f 257/1/119 246/1/119 247/1/119
f 258/1/120 247/1/119 248/1/120
f 259/1/121 248/1/120 249/1/121
f 260/1/58 249/1/121 250/1/58
f 262/1/117 251/1/7 252/1/117
f 263/1/118 252/1/117 253/1/118
f 264/1/119 253/1/118 254/1/119
f 265/1/119 254/1/119 255/1/119
f 266/1/119 255/1/119 256/1/119
f 267/1/119 256/1/119 257/1/119
f 268/1/120 257/1/119 258/1/120
f 269/1/121 258/1/120 259/1/121
f 270/1/58 259/1/121 260/1/58
f 272/1/117 261/1/7 262/1/117
f 273/1/118 262/1/117 263/1/118
f 274/1/119 263/1/118 264/1/119
f 275/1/119 264/1/119 265/1/119
f 277/1/119 266/1/119 267/1/119
f 278/1/120 267/1/119 268/1/120
f 279/1/121 268/1/120 269/1/121
f 280/1/58 269/1/121 270/1/58
f 281/1/117 271/1/7 272/1/117
f 282/1/118 272/1/117 273/1/118
f 283/1/119 273/1/118 274/1/119
f 284/1/119 274/1/119 275/1/119
f 285/1/119 275/1/119 276/1/119
f 286/1/119 276/1/119 277/1/119
f 287/1/120 277/1/119 278/1/120
f 288/1/121 278/1/120 279/1/121
f 69/1/58 279/1/121 280/1/58
f 281/1/117 6/1/8 5/1/7
f 282/1/118 289/1/122 281/1/117
f 283/1/119 290/1/123 282/1/118
f 292/1/124 283/1/119 284/1/119
f 293/1/124 284/1/119 285/1/119
f 294/1/124 285/1/119 286/1/119
f 295/1/125 286/1/119 287/1/120
f 296/1/126 287/1/120 288/1/121
f 70/1/59 288/1/121 69/1/58
f 289/1/122 7/1/9 6/1/8
f 290/1/123 297/1/127 289/1/122
f 291/1/124 298/1/128 290/1/123
f 300/1/129 291/1/124 292/1/124
f 301/1/129 292/1/124 293/1/124
f 302/1/129 293/1/124 294/1/124
f 303/1/130 294/1/124 295/1/125
f 304/1/131 295/1/125 296/1/126
f 71/1/61 296/1/126 70/1/59
f 297/1/127 8/1/11 7/1/9
f 298/1/128 305/1/132 297/1/127
f 299/1/129 306/1/133 298/1/128
f 308/1/134 299/1/129 300/1/129
f 309/1/134 300/1/129 301/1/129
f 310/1/134 301/1/129 302/1/129
f 311/1/135 302/1/129 303/1/130
f 312/1/136 303/1/130 304/1/131
f 72/1/63 304/1/131 71/1/61
f 57/1/45 319/1/137 313/1/138
f 313/1/138 320/1/139 314/1/140
f 314/1/140 321/1/141 315/1/142
f 321/1/141 316/1/142 315/1/142
f 322/1/141 317/1/143 316/1/142
f 323/1/144 318/1/145 317/1/143
f 324/1/146 121/1/95 318/1/145
f 58/1/46 325/1/147 319/1/137
f 319/1/137 326/1/148 320/1/139
f 320/1/139 327/1/149 321/1/141
f 327/1/149 322/1/141 321/1/141
f 328/1/149 323/1/144 322/1/141
f 329/1/150 324/1/146 323/1/144
f 330/1/151 122/1/96 324/1/146
f 59/1/47 331/1/152 325/1/147
f 325/1/147 332/1/153 326/1/148
f 326/1/148 333/1/154 327/1/149
f 333/1/154 328/1/149 327/1/149
f 334/1/154 329/1/150 328/1/149
f 335/1/155 330/1/151 329/1/150
f 336/1/156 123/1/97 330/1/151
f 61/1/48 331/1/152 60/1/48
f 337/1/152 332/1/153 331/1/152
f 338/1/153 333/1/154 332/1/153
f 339/1/154 334/1/154 333/1/154
f 340/1/154 335/1/155 334/1/154
f 341/1/157 336/1/156 335/1/155
f 342/1/156 124/1/98 336/1/156
f 62/1/49 337/1/152 61/1/48
f 343/1/158 338/1/153 337/1/152
f 344/1/159 339/1/154 338/1/153
f 345/1/160 340/1/154 339/1/154
f 340/1/154 347/1/161 341/1/157
f 341/1/157 348/1/162 342/1/156
f 342/1/156 126/1/99 125/1/98
f 63/1/50 343/1/158 62/1/49
f 349/1/163 344/1/159 343/1/158
f 350/1/164 345/1/160 344/1/159
f 351/1/165 346/1/160 345/1/160
f 346/1/160 353/1/166 347/1/161
f 347/1/161 354/1/167 348/1/162
f 348/1/162 127/1/100 126/1/99
f 64/1/51 349/1/163 63/1/50
f 355/1/168 350/1/164 349/1/163
f 356/1/169 351/1/165 350/1/164
f 357/1/170 352/1/165 351/1/165
f 352/1/165 359/1/171 353/1/166
f 353/1/166 360/1/172 354/1/167
f 354/1/167 128/1/101 127/1/100
f 361/1/173 1/1/2 9/1/14
f 362/1/174 9/1/14 17/1/22
f 363/1/175 17/1/22 25/1/29
f 364/1/176 25/1/29 33/1/29
f 41/1/31 364/1/176 33/1/29
f 49/1/38 365/1/177 41/1/31
f 57/1/45 366/1/178 49/1/38
f 367/1/179 129/1/103 361/1/173
f 368/1/180 361/1/173 362/1/174
f 369/1/181 362/1/174 363/1/175
f 370/1/181 363/1/175 364/1/176
f 365/1/177 370/1/181 364/1/176
f 366/1/178 371/1/182 365/1/177
f 313/1/138 372/1/183 366/1/178
f 373/1/184 130/1/105 367/1/179
f 374/1/185 367/1/179 368/1/180
f 375/1/186 368/1/180 369/1/181
f 376/1/186 369/1/181 370/1/181
f 371/1/182 376/1/186 370/1/181
f 372/1/183 377/1/187 371/1/182
f 314/1/140 378/1/188 372/1/183
f 379/1/184 131/1/107 373/1/184
f 380/1/189 373/1/184 374/1/185
f 381/1/186 374/1/185 375/1/186
f 382/1/186 375/1/186 376/1/186
f 383/1/187 376/1/186 377/1/187
f 384/1/188 377/1/187 378/1/188
f 316/1/142 378/1/188 315/1/142
f 379/1/184 135/1/108 134/1/107
f 380/1/189 385/1/190 379/1/184
f 381/1/186 386/1/191 380/1/189
f 388/1/192 381/1/186 382/1/186
f 389/1/193 382/1/186 383/1/187
f 390/1/194 383/1/187 384/1/188
f 317/1/143 384/1/188 316/1/142
f 385/1/190 136/1/109 135/1/108
f 386/1/191 391/1/195 385/1/190
f 387/1/192 392/1/196 386/1/191
f 394/1/197 387/1/192 388/1/192
f 395/1/198 388/1/192 389/1/193
f 396/1/199 389/1/193 390/1/194
f 318/1/145 390/1/194 317/1/143
f 391/1/195 65/1/52 136/1/109
f 392/1/196 73/1/64 391/1/195
f 393/1/197 81/1/71 392/1/196
f 97/1/78 393/1/197 394/1/197
f 105/1/81 394/1/197 395/1/198
f 113/1/88 395/1/198 396/1/199
f 121/1/95 396/1/199 318/1/145
f 8/1/11 397/1/200 16/1/19
f 16/1/19 398/1/201 24/1/26
f 24/1/26 399/1/202 32/1/30
f 399/1/202 40/1/30 32/1/30
f 400/1/202 48/1/37 40/1/30
f 401/1/203 56/1/44 48/1/37
f 402/1/204 64/1/51 56/1/44
f 305/1/132 403/1/205 397/1/200
f 397/1/200 404/1/206 398/1/201
f 398/1/201 405/1/207 399/1/202
f 405/1/207 400/1/202 399/1/202
f 406/1/207 401/1/203 400/1/202
f 407/1/208 402/1/204 401/1/203
f 408/1/209 355/1/168 402/1/204
f 306/1/133 409/1/210 403/1/205
f 403/1/205 410/1/211 404/1/206
f 404/1/206 411/1/212 405/1/207
f 411/1/212 406/1/207 405/1/207
f 412/1/212 407/1/208 406/1/207
f 413/1/213 408/1/209 407/1/208
f 414/1/214 356/1/169 408/1/209
f 310/1/134 409/1/210 307/1/134
f 415/1/210 410/1/211 409/1/210
f 416/1/211 411/1/212 410/1/211
f 417/1/212 412/1/212 411/1/212
f 418/1/212 413/1/213 412/1/212
f 419/1/215 414/1/214 413/1/213
f 420/1/214 357/1/170 414/1/214
f 311/1/135 415/1/210 310/1/134
f 421/1/216 416/1/211 415/1/210
f 422/1/217 417/1/212 416/1/211
f 423/1/218 418/1/212 417/1/212
f 418/1/212 425/1/219 419/1/215
f 419/1/215 426/1/220 420/1/214
f 420/1/214 359/1/171 358/1/221
f 312/1/136 421/1/216 311/1/135
f 427/1/222 422/1/217 421/1/216
f 428/1/223 423/1/218 422/1/217
f 429/1/224 424/1/218 423/1/218
f 424/1/218 431/1/225 425/1/219
f 425/1/219 432/1/226 426/1/220
f 426/1/220 360/1/172 359/1/171
f 72/1/63 427/1/222 312/1/136
f 80/1/70 428/1/223 427/1/222
f 88/1/77 429/1/224 428/1/223
f 96/1/80 430/1/224 429/1/224
f 430/1/224 112/1/87 431/1/225
f 431/1/225 120/1/94 432/1/226
f 432/1/226 128/1/101 360/1/172
f 10/1/1 9/1/14 1/1/2
f 11/1/4 10/1/1 2/1/3
f 12/1/6 11/1/4 3/1/5
f 13/1/6 12/1/6 4/1/7
f 6/1/8 14/1/10 13/1/6
f 7/1/9 15/1/12 14/1/10
f 8/1/11 16/1/19 15/1/12
f 18/1/13 17/1/22 9/1/14
f 19/1/15 18/1/13 10/1/1
f 20/1/16 19/1/15 11/1/4
f 21/1/17 20/1/16 12/1/6
f 14/1/10 22/1/18 21/1/17
f 15/1/12 23/1/20 22/1/18
f 16/1/19 24/1/26 23/1/20
f 26/1/21 25/1/29 17/1/22
f 27/1/23 26/1/21 18/1/13
f 28/1/24 27/1/23 19/1/15
f 29/1/24 28/1/24 20/1/16
f 22/1/18 30/1/25 29/1/24
f 23/1/20 31/1/27 30/1/25
f 24/1/26 32/1/30 31/1/27
f 34/1/28 33/1/29 25/1/29
f 35/1/23 34/1/28 26/1/21
f 36/1/24 35/1/23 27/1/23
f 37/1/24 36/1/24 28/1/24
f 38/1/25 37/1/24 29/1/24
f 39/1/27 38/1/25 30/1/25
f 40/1/30 39/1/27 31/1/27
f 34/1/28 42/1/32 41/1/31
f 35/1/23 43/1/33 42/1/32
f 36/1/24 44/1/34 43/1/33
f 45/1/34 44/1/34 36/1/24
f 46/1/35 45/1/34 37/1/24
f 47/1/36 46/1/35 38/1/25
f 48/1/37 47/1/36 39/1/27
f 42/1/32 50/1/39 49/1/38
f 43/1/33 51/1/40 50/1/39
f 44/1/34 52/1/41 51/1/40
f 53/1/41 52/1/41 44/1/34
f 54/1/42 53/1/41 45/1/34
f 55/1/43 54/1/42 46/1/35
f 56/1/44 55/1/43 47/1/36
f 50/1/39 58/1/46 57/1/45
f 51/1/40 59/1/47 58/1/46
f 52/1/41 60/1/48 59/1/47
f 61/1/48 60/1/48 52/1/41
f 62/1/49 61/1/48 53/1/41
f 63/1/50 62/1/49 54/1/42
f 64/1/51 63/1/50 55/1/43
f 65/1/52 73/1/64 74/1/53
f 66/1/54 74/1/53 75/1/55
f 67/1/56 75/1/55 76/1/57
f 76/1/57 77/1/57 69/1/58
f 77/1/57 78/1/60 70/1/59
f 78/1/60 79/1/62 71/1/61
f 79/1/62 80/1/70 72/1/63
f 73/1/64 81/1/71 82/1/65
f 74/1/53 82/1/65 83/1/66
f 75/1/55 83/1/66 84/1/67
f 84/1/67 85/1/67 77/1/57
f 85/1/67 86/1/68 78/1/60
f 86/1/68 87/1/69 79/1/62
f 87/1/69 88/1/77 80/1/70
f 81/1/71 89/1/78 90/1/72
f 82/1/65 90/1/72 91/1/73
f 83/1/66 91/1/73 92/1/74
f 92/1/74 93/1/74 85/1/67
f 93/1/74 94/1/75 86/1/68
f 94/1/75 95/1/76 87/1/69
f 95/1/76 96/1/80 88/1/77
f 97/1/78 98/1/72 90/1/72
f 98/1/72 99/1/73 91/1/73
f 99/1/73 100/1/74 92/1/74
f 100/1/74 101/1/74 93/1/74
f 101/1/74 102/1/75 94/1/75
f 102/1/75 103/1/79 95/1/76
f 103/1/79 104/1/80 96/1/80
f 105/1/81 106/1/82 98/1/72
f 106/1/82 107/1/83 99/1/73
f 107/1/83 108/1/84 100/1/74
f 108/1/84 109/1/84 101/1/74
f 101/1/74 109/1/84 110/1/85
f 102/1/75 110/1/85 111/1/86
f 103/1/79 111/1/86 112/1/87
f 113/1/88 114/1/89 106/1/82
f 114/1/89 115/1/90 107/1/83
f 115/1/90 116/1/91 108/1/84
f 116/1/91 117/1/91 109/1/84
f 109/1/84 117/1/91 118/1/92
f 110/1/85 118/1/92 119/1/93
f 111/1/86 119/1/93 120/1/94
f 121/1/95 122/1/96 114/1/89
f 122/1/96 123/1/97 115/1/90
f 123/1/97 124/1/98 116/1/91
f 124/1/98 125/1/98 117/1/91
f 117/1/91 125/1/98 126/1/99
f 118/1/92 126/1/99 127/1/100
f 119/1/93 127/1/100 128/1/101
f 137/1/102 2/1/3 1/1/2
f 138/1/104 137/1/102 129/1/103
f 139/1/106 138/1/104 130/1/105
f 140/1/106 139/1/106 131/1/107
f 141/1/106 140/1/106 132/1/107
f 142/1/106 141/1/106 133/1/107
f 135/1/108 143/1/110 142/1/106
f 136/1/109 144/1/111 143/1/110
f 65/1/52 66/1/54 144/1/111
f 145/1/112 3/1/5 2/1/3
f 146/1/113 145/1/112 137/1/102
f 147/1/114 146/1/113 138/1/104
f 148/1/114 147/1/114 139/1/106
f 149/1/114 148/1/114 140/1/106
f 150/1/114 149/1/114 141/1/106
f 143/1/110 151/1/115 150/1/114
f 144/1/111 152/1/116 151/1/115
f 66/1/54 67/1/56 152/1/116
f 153/1/117 4/1/7 3/1/5
f 154/1/118 153/1/117 145/1/112
f 155/1/119 154/1/118 146/1/113
f 156/1/119 155/1/119 147/1/114
f 157/1/119 156/1/119 148/1/114
f 158/1/119 157/1/119 149/1/114
f 151/1/115 159/1/120 158/1/119
f 152/1/116 160/1/121 159/1/120
f 67/1/56 68/1/58 160/1/121
f 162/1/117 161/1/7 4/1/7
f 163/1/118 162/1/117 153/1/117
f 164/1/119 163/1/118 154/1/118
f 165/1/119 164/1/119 155/1/119
f 166/1/119 165/1/119 156/1/119
f 167/1/119 166/1/119 157/1/119
f 168/1/120 167/1/119 158/1/119
f 169/1/121 168/1/120 159/1/120
f 170/1/58 169/1/121 160/1/121
f 172/1/117 171/1/7 161/1/7
f 173/1/118 172/1/117 162/1/117
f 174/1/119 173/1/118 163/1/118
f 175/1/119 174/1/119 164/1/119
f 177/1/119 176/1/119 166/1/119
f 178/1/120 177/1/119 167/1/119
f 179/1/121 178/1/120 168/1/120
f 180/1/58 179/1/121 169/1/121
f 182/1/117 181/1/7 171/1/7
f 183/1/118 182/1/117 172/1/117
f 184/1/119 183/1/118 173/1/118
f 185/1/119 184/1/119 174/1/119
f 186/1/119 185/1/119 175/1/119
f 187/1/119 186/1/119 176/1/119
f 188/1/120 187/1/119 177/1/119
f 189/1/121 188/1/120 178/1/120
f 190/1/58 189/1/121 179/1/121
f 192/1/117 191/1/7 181/1/7
f 193/1/118 192/1/117 182/1/117
f 194/1/119 193/1/118 183/1/118
f 195/1/119 194/1/119 184/1/119
f 197/1/119 196/1/119 186/1/119
f 198/1/120 197/1/119 187/1/119
f 199/1/121 198/1/120 188/1/120
f 200/1/58 199/1/121 189/1/121
f 202/1/117 201/1/7 191/1/7
f 203/1/118 202/1/117 192/1/117
f 204/1/119 203/1/118 193/1/118
f 205/1/119 204/1/119 194/1/119
f 206/1/119 205/1/119 195/1/119
f 207/1/119 206/1/119 196/1/119
f 208/1/120 207/1/119 197/1/119
f 209/1/121 208/1/120 198/1/120
f 210/1/58 209/1/121 199/1/121
f 212/1/117 211/1/7 201/1/7
f 213/1/118 212/1/117 202/1/117
f 214/1/119 213/1/118 203/1/118
f 215/1/119 214/1/119 204/1/119
f 217/1/119 216/1/119 206/1/119
f 218/1/120 217/1/119 207/1/119
f 219/1/121 218/1/120 208/1/120
f 220/1/58 219/1/121 209/1/121
f 222/1/117 221/1/7 211/1/7
f 223/1/118 222/1/117 212/1/117
f 224/1/119 223/1/118 213/1/118
f 225/1/119 224/1/119 214/1/119
f 226/1/119 225/1/119 215/1/119
f 227/1/119 226/1/119 216/1/119
f 228/1/120 227/1/119 217/1/119
f 229/1/121 228/1/120 218/1/120
f 230/1/58 229/1/121 219/1/121
f 232/1/117 231/1/7 221/1/7
f 233/1/118 232/1/117 222/1/117
f 234/1/119 233/1/118 223/1/118
f 235/1/119 234/1/119 224/1/119
f 237/1/119 236/1/119 226/1/119
f 238/1/120 237/1/119 227/1/119
f 239/1/121 238/1/120 228/1/120
f 240/1/58 239/1/121 229/1/121
f 242/1/117 241/1/7 231/1/7
f 243/1/118 242/1/117 232/1/117
f 244/1/119 243/1/118 233/1/118
f 245/1/119 244/1/119 234/1/119
f 246/1/119 245/1/119 235/1/119
f 247/1/119 246/1/119 236/1/119
f 248/1/120 247/1/119 237/1/119
f 249/1/121 248/1/120 238/1/120
f 250/1/58 249/1/121 239/1/121
f 252/1/117 251/1/7 241/1/7
f 253/1/118 252/1/117 242/1/117
f 254/1/119 253/1/118 243/1/118
f 255/1/119 254/1/119 244/1/119
f 257/1/119 256/1/119 246/1/119
f 258/1/120 257/1/119 247/1/119
f 259/1/121 258/1/120 248/1/120
f 260/1/58 259/1/121 249/1/121
f 262/1/117 261/1/7 251/1/7
f 263/1/118 262/1/117 252/1/117
f 264/1/119 263/1/118 253/1/118
f 265/1/119 264/1/119 254/1/119
f 266/1/119 265/1/119 255/1/119
f 267/1/119 266/1/119 256/1/119
f 268/1/120 267/1/119 257/1/119
f 269/1/121 268/1/120 258/1/120
f 270/1/58 269/1/121 259/1/121
f 272/1/117 271/1/7 261/1/7
f 273/1/118 272/1/117 262/1/117
f 274/1/119 273/1/118 263/1/118
f 275/1/119 274/1/119 264/1/119
f 277/1/119 276/1/119 266/1/119
f 278/1/120 277/1/119 267/1/119
f 279/1/121 278/1/120 268/1/120
f 280/1/58 279/1/121 269/1/121
f 281/1/117 5/1/7 271/1/7
f 282/1/118 281/1/117 272/1/117
f 283/1/119 282/1/118 273/1/118
f 284/1/119 283/1/119 274/1/119
f 285/1/119 284/1/119 275/1/119
f 286/1/119 285/1/119 276/1/119
f 287/1/120 286/1/119 277/1/119
f 288/1/121 287/1/120 278/1/120
f 69/1/58 288/1/121 279/1/121
f 281/1/117 289/1/122 6/1/8
f 282/1/118 290/1/123 289/1/122
f 283/1/119 291/1/124 290/1/123
f 292/1/124 291/1/124 283/1/119
f 293/1/124 292/1/124 284/1/119
f 294/1/124 293/1/124 285/1/119
f 295/1/125 294/1/124 286/1/119
f 296/1/126 295/1/125 287/1/120
f 70/1/59 296/1/126 288/1/121
f 289/1/122 297/1/127 7/1/9
f 290/1/123 298/1/128 297/1/127
f 291/1/124 299/1/129 298/1/128
f 300/1/129 299/1/129 291/1/124
f 301/1/129 300/1/129 292/1/124
f 302/1/129 301/1/129 293/1/124
f 303/1/130 302/1/129 294/1/124
f 304/1/131 303/1/130 295/1/125
f 71/1/61 304/1/131 296/1/126
f 297/1/127 305/1/132 8/1/11
f 298/1/128 306/1/133 305/1/132
f 299/1/129 307/1/134 306/1/133
f 308/1/134 307/1/134 299/1/129
f 309/1/134 308/1/134 300/1/129
f 310/1/134 309/1/134 301/1/129
f 311/1/135 310/1/134 302/1/129
f 312/1/136 311/1/135 303/1/130
f 72/1/63 312/1/136 304/1/131
f 57/1/45 58/1/46 319/1/137
f 313/1/138 319/1/137 320/1/139
f 314/1/140 320/1/139 321/1/141
f 321/1/141 322/1/141 316/1/142
f 322/1/141 323/1/144 317/1/143
f 323/1/144 324/1/146 318/1/145
f 324/1/146 122/1/96 121/1/95
f 58/1/46 59/1/47 325/1/147
f 319/1/137 325/1/147 326/1/148
f 320/1/139 326/1/148 327/1/149
f 327/1/149 328/1/149 322/1/141
f 328/1/149 329/1/150 323/1/144
f 329/1/150 330/1/151 324/1/146
f 330/1/151 123/1/97 122/1/96
f 59/1/47 60/1/48 331/1/152
f 325/1/147 331/1/152 332/1/153
f 326/1/148 332/1/153 333/1/154
f 333/1/154 334/1/154 328/1/149
f 334/1/154 335/1/155 329/1/150
f 335/1/155 336/1/156 330/1/151
f 336/1/156 124/1/98 123/1/97
f 61/1/48 337/1/152 331/1/152
f 337/1/152 338/1/153 332/1/153
f 338/1/153 339/1/154 333/1/154
f 339/1/154 340/1/154 334/1/154
f 340/1/154 341/1/157 335/1/155
f 341/1/157 342/1/156 336/1/156
f 342/1/156 125/1/98 124/1/98
f 62/1/49 343/1/158 337/1/152
f 343/1/158 344/1/159 338/1/153
f 344/1/159 345/1/160 339/1/154
f 345/1/160 346/1/160 340/1/154
f 340/1/154 346/1/160 347/1/161
f 341/1/157 347/1/161 348/1/162
f 342/1/156 348/1/162 126/1/99
f 63/1/50 349/1/163 343/1/158
f 349/1/163 350/1/164 344/1/159
f 350/1/164 351/1/165 345/1/160
f 351/1/165 352/1/165 346/1/160
f 346/1/160 352/1/165 353/1/166
f 347/1/161 353/1/166 354/1/167
f 348/1/162 354/1/167 127/1/100
f 64/1/51 355/1/168 349/1/163
f 355/1/168 356/1/169 350/1/164
f 356/1/169 357/1/170 351/1/165
f 357/1/170 358/1/221 352/1/165
f 352/1/165 358/1/221 359/1/171
f 353/1/166 359/1/171 360/1/172
f 354/1/167 360/1/172 128/1/101
f 361/1/173 129/1/103 1/1/2
f 362/1/174 361/1/173 9/1/14
f 363/1/175 362/1/174 17/1/22
f 364/1/176 363/1/175 25/1/29
f 41/1/31 365/1/177 364/1/176
f 49/1/38 366/1/178 365/1/177
f 57/1/45 313/1/138 366/1/178
f 367/1/179 130/1/105 129/1/103
f 368/1/180 367/1/179 361/1/173
f 369/1/181 368/1/180 362/1/174
f 370/1/181 369/1/181 363/1/175
f 365/1/177 371/1/182 370/1/181
f 366/1/178 372/1/183 371/1/182
f 313/1/138 314/1/140 372/1/183
f 373/1/184 131/1/107 130/1/105
f 374/1/185 373/1/184 367/1/179
f 375/1/186 374/1/185 368/1/180
f 376/1/186 375/1/186 369/1/181
f 371/1/182 377/1/187 376/1/186
f 372/1/183 378/1/188 377/1/187
f 314/1/140 315/1/142 378/1/188
f 379/1/184 134/1/107 131/1/107
f 380/1/189 379/1/184 373/1/184
f 381/1/186 380/1/189 374/1/185
f 382/1/186 381/1/186 375/1/186
f 383/1/187 382/1/186 376/1/186
f 384/1/188 383/1/187 377/1/187
f 316/1/142 384/1/188 378/1/188
f 379/1/184 385/1/190 135/1/108
f 380/1/189 386/1/191 385/1/190
f 381/1/186 387/1/192 386/1/191
f 388/1/192 387/1/192 381/1/186
f 389/1/193 388/1/192 382/1/186
f 390/1/194 389/1/193 383/1/187
f 317/1/143 390/1/194 384/1/188
f 385/1/190 391/1/195 136/1/109
f 386/1/191 392/1/196 391/1/195
f 387/1/192 393/1/197 392/1/196
f 394/1/197 393/1/197 387/1/192
f 395/1/198 394/1/197 388/1/192
f 396/1/199 395/1/198 389/1/193
f 318/1/145 396/1/199 390/1/194
f 391/1/195 73/1/64 65/1/52
f 392/1/196 81/1/71 73/1/64
f 393/1/197 89/1/78 81/1/71
f 97/1/78 89/1/78 393/1/197
f 105/1/81 97/1/78 394/1/197
f 113/1/88 105/1/81 395/1/198
f 121/1/95 113/1/88 396/1/199
f 8/1/11 305/1/132 397/1/200
f 16/1/19 397/1/200 398/1/201
f 24/1/26 398/1/201 399/1/202
f 399/1/202 400/1/202 40/1/30
f 400/1/202 401/1/203 48/1/37
f 401/1/203 402/1/204 56/1/44
f 402/1/204 355/1/168 64/1/51
f 305/1/132 306/1/133 403/1/205
f 397/1/200 403/1/205 404/1/206
f 398/1/201 404/1/206 405/1/207
f 405/1/207 406/1/207 400/1/202
f 406/1/207 407/1/208 401/1/203
f 407/1/208 408/1/209 402/1/204
f 408/1/209 356/1/169 355/1/168
f 306/1/133 307/1/134 409/1/210
f 403/1/205 409/1/210 410/1/211
f 404/1/206 410/1/211 411/1/212
f 411/1/212 412/1/212 406/1/207
f 412/1/212 413/1/213 407/1/208
f 413/1/213 414/1/214 408/1/209
f 414/1/214 357/1/170 356/1/169
f 310/1/134 415/1/210 409/1/210
f 415/1/210 416/1/211 410/1/211
f 416/1/211 417/1/212 411/1/212
f 417/1/212 418/1/212 412/1/212
f 418/1/212 419/1/215 413/1/213
f 419/1/215 420/1/214 414/1/214
f 420/1/214 358/1/221 357/1/170
f 311/1/135 421/1/216 415/1/210
f 421/1/216 422/1/217 416/1/211
f 422/1/217 423/1/218 417/1/212
f 423/1/218 424/1/218 418/1/212
f 418/1/212 424/1/218 425/1/219
f 419/1/215 425/1/219 426/1/220
f 420/1/214 426/1/220 359/1/171
f 312/1/136 427/1/222 421/1/216
f 427/1/222 428/1/223 422/1/217
f 428/1/223 429/1/224 423/1/218
f 429/1/224 430/1/224 424/1/218
f 424/1/218 430/1/224 431/1/225
f 425/1/219 431/1/225 432/1/226
f 426/1/220 432/1/226 360/1/172
f 72/1/63 80/1/70 427/1/222
f 80/1/70 88/1/77 428/1/223
f 88/1/77 96/1/80 429/1/224
f 96/1/80 104/1/80 430/1/224
f 430/1/224 104/1/80 112/1/87
f 431/1/225 112/1/87 120/1/94
f 432/1/226 120/1/94 128/1/101
s 0
usemtl m1
f 434/1/119 436/1/119 433/1/119
f 438/1/74 440/1/74 437/1/74
f 442/1/24 444/1/24 441/1/24
f 446/1/212 448/1/212 445/1/212
f 450/1/186 452/1/186 449/1/186
f 454/1/119 456/1/119 453/1/119
f 458/1/74 460/1/74 457/1/74
f 462/1/24 464/1/24 461/1/24
f 466/1/212 468/1/212 465/1/212
f 470/1/186 472/1/186 469/1/186
f 474/1/119 476/1/119 473/1/119
f 478/1/74 480/1/74 477/1/74
f 482/1/24 484/1/24 481/1/24
f 486/1/212 488/1/212 485/1/212
f 490/1/186 492/1/186 489/1/186
f 494/1/119 496/1/119 493/1/119
f 498/1/74 500/1/74 497/1/74
f 502/1/24 504/1/24 501/1/24
f 506/1/212 508/1/212 505/1/212
f 510/1/186 512/1/186 509/1/186
f 514/1/119 516/1/119 513/1/119
f 518/1/74 520/1/74 517/1/74
f 522/1/24 524/1/24 521/1/24
f 526/1/212 528/1/212 525/1/212
f 530/1/186 532/1/186 529/1/186
f 534/1/119 536/1/119 533/1/119
f 538/1/74 540/1/74 537/1/74
f 542/1/24 544/1/24 541/1/24
f 546/1/212 548/1/212 545/1/212
f 550/1/186 552/1/186 549/1/186
f 434/1/119 435/1/119 436/1/119
f 438/1/74 439/1/74 440/1/74
f 442/1/24 443/1/24 444/1/24
f 446/1/212 447/1/212 448/1/212
f 450/1/186 451/1/186 452/1/186
f 454/1/119 455/1/119 456/1/119
f 458/1/74 459/1/74 460/1/74
f 462/1/24 463/1/24 464/1/24
f 466/1/212 467/1/212 468/1/212
f 470/1/186 471/1/186 472/1/186
f 474/1/119 475/1/119 476/1/119
f 478/1/74 479/1/74 480/1/74
f 482/1/24 483/1/24 484/1/24
f 486/1/212 487/1/212 488/1/212
f 490/1/186 491/1/186 492/1/186
f 494/1/119 495/1/119 496/1/119
f 498/1/74 499/1/74 500/1/74
f 502/1/24 503/1/24 504/1/24
f 506/1/212 507/1/212 508/1/212
f 510/1/186 511/1/186 512/1/186
f 514/1/119 515/1/119 516/1/119
f 518/1/74 519/1/74 520/1/74
f 522/1/24 523/1/24 524/1/24
f 526/1/212 527/1/212 528/1/212
f 530/1/186 531/1/186 532/1/186
f 534/1/119 535/1/119 536/1/119
f 538/1/74 539/1/74 540/1/74
f 542/1/24 543/1/24 544/1/24
f 546/1/212 547/1/212 548/1/212
f 550/1/186 551/1/186 552/1/186
usemtl m2
f 557/1/24 555/1/24 553/1/24
f 556/1/74 558/1/74 554/1/74
f 554/2/119 557/3/119 553/1/119
f 559/1/154 556/1/154 555/1/154
f 555/1/186 554/1/186 553/1/186
f 558/1/212 559/1/212 557/1/212
f 557/1/24 559/1/24 555/1/24
f 556/1/74 560/1/74 558/1/74
f 554/2/119 558/4/119 557/3/119
f 559/1/154 560/1/154 556/1/154
f 555/1/186 556/1/186 554/1/186
f 558/1/212 560/1/212 559/1/212
usemtl m3
f 562/2/119 564/3/119 561/1/119
f 562/2/119 563/4/119 564/3/119
s 1
usemtl m4
f 566/1/119 579/1/119 565/1/119
f 566/1/119 581/1/119 580/1/119
f 568/1/119 581/1/119 567/1/119
f 568/1/119 583/1/119 582/1/119
f 569/1/119 584/1/119 583/1/119
f 571/1/119 584/1/119 570/1/119
f 572/1/119 585/1/119 571/1/119
f 573/1/119 586/1/119 572/1/119
f 573/1/119 588/1/119 587/1/119
f 575/1/119 588/1/119 574/1/119
f 576/1/119 589/1/119 575/1/119
f 576/1/119 591/1/119 590/1/119
f 578/1/119 591/1/119 577/1/119
f 565/1/119 592/1/119 578/1/119
f 643/1/119 656/1/119 642/1/119
f 643/1/119 658/1/119 657/1/119
f 645/1/119 658/1/119 644/1/119
f 645/1/119 660/1/119 659/1/119
f 646/1/119 661/1/119 660/1/119
f 648/1/119 661/1/119 647/1/119
f 648/1/119 663/1/119 662/1/119
f 650/1/119 663/1/119 649/1/119
f 651/1/119 664/1/119 650/1/119
f 652/1/119 665/1/119 651/1/119
f 653/1/119 666/1/119 652/1/119
f 653/1/119 668/1/119 667/1/119
f 655/1/119 668/1/119 654/1/119
f 655/1/119 656/1/119 669/1/119
f 720/1/264 739/1/212 719/1/212
f 721/1/265 740/1/264 720/1/264
f 722/1/266 741/1/265 721/1/265
f 723/1/267 742/1/266 722/1/266
f 724/1/24 743/1/267 723/1/267
f 725/1/268 744/1/24 724/1/24
f 726/1/269 745/1/268 725/1/268
f 727/1/270 746/1/269 726/1/269
f 728/1/271 747/1/270 727/1/270
f 729/1/186 748/1/271 728/1/271
f 730/1/272 749/1/186 729/1/186
f 731/1/273 750/1/272 730/1/272
f 732/1/274 751/1/273 731/1/273
f 733/1/275 752/1/274 732/1/274
f 734/1/74 753/1/275 733/1/275
f 735/1/276 754/1/74 734/1/74
f 736/1/277 755/1/276 735/1/276
f 737/1/278 756/1/277 736/1/277
f 738/1/279 757/1/278 737/1/278
f 719/1/212 758/1/279 738/1/279
f 740/1/280 759/1/281 739/1/281
f 740/1/280 761/1/282 760/1/280
f 742/1/283 761/1/282 741/1/282
f 743/1/284 762/1/283 742/1/283
f 744/1/285 763/1/284 743/1/284
f 745/1/286 764/1/285 744/1/285
f 746/1/287 765/1/286 745/1/286
f 747/1/288 766/1/287 746/1/287
f 748/1/289 767/1/288 747/1/288
f 748/1/289 769/1/290 768/1/289
f 750/1/291 769/1/290 749/1/290
f 750/1/291 771/1/292 770/1/291
f 752/1/293 771/1/292 751/1/292
f 753/1/294 772/1/293 752/1/293
f 753/1/294 774/1/295 773/1/294
f 755/1/296 774/1/295 754/1/295
f 756/1/297 775/1/296 755/1/296
f 757/1/298 776/1/297 756/1/297
f 758/1/299 777/1/298 757/1/298
f 758/1/299 759/1/281 778/1/299
f 760/1/119 779/1/119 759/1/119
f 761/1/119 780/1/119 760/1/119
f 761/1/119 782/1/119 781/1/119
f 762/1/119 783/1/119 782/1/119
f 764/1/119 783/1/119 763/1/119
f 764/1/119 785/1/119 784/1/119
f 766/1/119 785/1/119 765/1/119
f 767/1/119 786/1/119 766/1/119
f 767/1/119 788/1/119 787/1/119
f 768/1/119 789/1/119 788/1/119
f 770/1/119 789/1/119 769/1/119
f 771/1/119 790/1/119 770/1/119
f 771/1/119 792/1/119 791/1/119
f 772/1/119 793/1/119 792/1/119
f 774/1/119 793/1/119 773/1/119
f 774/1/119 795/1/119 794/1/119
f 776/1/119 795/1/119 775/1/119
f 777/1/119 796/1/119 776/1/119
f 777/1/119 798/1/119 797/1/119
f 778/1/119 779/1/119 798/1/119
f 780/1/272 799/1/186 779/1/186
f 781/1/273 800/1/272 780/1/272
f 782/1/274 801/1/273 781/1/273
f 783/1/275 802/1/274 782/1/274
f 784/1/74 803/1/275 783/1/275
f 785/1/276 804/1/74 784/1/74
f 786/1/277 805/1/276 785/1/276
f 787/1/278 806/1/277 786/1/277
f 788/1/279 807/1/278 787/1/278
f 789/1/212 808/1/279 788/1/279
f 790/1/264 809/1/212 789/1/212
f 791/1/265 810/1/264 790/1/264
f 792/1/266 811/1/265 791/1/265
f 793/1/267 812/1/266 792/1/266
f 794/1/24 813/1/267 793/1/267
f 795/1/268 814/1/24 794/1/24
f 796/1/269 815/1/268 795/1/268
f 797/1/270 816/1/269 796/1/269
f 798/1/271 817/1/270 797/1/270
f 779/1/186 818/1/271 798/1/271
f 566/1/119 580/1/119 579/1/119
f 566/1/119 567/1/119 581/1/119
f 568/1/119 582/1/119 581/1/119
f 568/1/119 569/1/119 583/1/119
f 569/1/119 570/1/119 584/1/119
f 571/1/119 585/1/119 584/1/119
f 572/1/119 586/1/119 585/1/119
f 573/1/119 587/1/119 586/1/119
f 573/1/119 574/1/119 588/1/119
f 575/1/119 589/1/119 588/1/119
f 576/1/119 590/1/119 589/1/119
f 576/1/119 577/1/119 591/1/119
f 578/1/119 592/1/119 591/1/119
f 565/1/119 579/1/119 592/1/119
f 643/1/119 657/1/119 656/1/119
f 643/1/119 644/1/119 658/1/119
f 645/1/119 659/1/119 658/1/119
f 645/1/119 646/1/119 660/1/119
f 646/1/119 647/1/119 661/1/119
f 648/1/119 662/1/119 661/1/119
f 648/1/119 649/1/119 663/1/119
f 650/1/119 664/1/119 663/1/119
f 651/1/119 665/1/119 664/1/119
f 652/1/119 666/1/119 665/1/119
f 653/1/119 667/1/119 666/1/119
f 653/1/119 654/1/119 668/1/119
f 655/1/119 669/1/119 668/1/119
f 655/1/119 642/1/119 656/1/119
f 720/1/264 740/1/264 739/1/212
f 721/1/265 741/1/265 740/1/264
f 722/1/266 742/1/266 741/1/265
f 723/1/267 743/1/267 742/1/266
f 724/1/24 744/1/24 743/1/267
f 725/1/268 745/1/268 744/1/24
f 726/1/269 746/1/269 745/1/268
f 727/1/270 747/1/270 746/1/269
f 728/1/271 748/1/271 747/1/270
f 729/1/186 749/1/186 748/1/271
f 730/1/272 750/1/272 749/1/186
f 731/1/273 751/1/273 750/1/272
f 732/1/274 752/1/274 751/1/273
f 733/1/275 753/1/275 752/1/274
f 734/1/74 754/1/74 753/1/275
f 735/1/276 755/1/276 754/1/74
f 736/1/277 756/1/277 755/1/276
f 737/1/278 757/1/278 756/1/277
f 738/1/279 758/1/279 757/1/278
f 719/1/212 739/1/212 758/1/279
f 740/1/280 760/1/280 759/1/281
f 740/1/280 741/1/282 761/1/282
f 742/1/283 762/1/283 761/1/282
f 743/1/284 763/1/284 762/1/283
f 744/1/285 764/1/285 763/1/284
f 745/1/286 765/1/286 764/1/285
f 746/1/287 766/1/287 765/1/286
f 747/1/288 767/1/288 766/1/287
f 748/1/289 768/1/289 767/1/288
f 748/1/289 749/1/290 769/1/290
f 750/1/291 770/1/291 769/1/290
f 750/1/291 751/1/292 771/1/292
f 752/1/293 772/1/293 771/1/292
f 753/1/294 773/1/294 772/1/293
f 753/1/294 754/1/295 774/1/295
f 755/1/296 775/1/296 774/1/295
f 756/1/297 776/1/297 775/1/296
f 757/1/298 777/1/298 776/1/297
f 758/1/299 778/1/299 777/1/298
f 758/1/299 739/1/281 759/1/281
f 760/1/119 780/1/119 779/1/119
f 761/1/119 781/1/119 780/1/119
f 761/1/119 762/1/119 782/1/119
f 762/1/119 763/1/119 783/1/119
f 764/1/119 784/1/119 783/1/119
f 764/1/119 765/1/119 785/1/119
f 766/1/119 786/1/119 785/1/119
f 767/1/119 787/1/119 786/1/119
f 767/1/119 768/1/119 788/1/119
f 768/1/119 769/1/119 789/1/119
f 770/1/119 790/1/119 789/1/119
f 771/1/119 791/1/119 790/1/119
f 771/1/119 772/1/119 792/1/119
f 772/1/119 773/1/119 793/1/119
f 774/1/119 794/1/119 793/1/119
f 774/1/119 775/1/119 795/1/119
f 776/1/119 796/1/119 795/1/119
f 777/1/119 797/1/119 796/1/119
f 777/1/119 778/1/119 798/1/119
f 778/1/119 759/1/119 779/1/119
f 780/1/272 800/1/272 799/1/186
f 781/1/273 801/1/273 800/1/272
f 782/1/274 802/1/274 801/1/273
f 783/1/275 803/1/275 802/1/274
f 784/1/74 804/1/74 803/1/275
f 785/1/276 805/1/276 804/1/74
f 786/1/277 806/1/277 805/1/276
f 787/1/278 807/1/278 806/1/277
f 788/1/279 808/1/279 807/1/278
f 789/1/212 809/1/212 808/1/279
f 790/1/264 810/1/264 809/1/212
f 791/1/265 811/1/265 810/1/264
f 792/1/266 812/1/266 811/1/265
f 793/1/267 813/1/267 812/1/266
f 794/1/24 814/1/24 813/1/267
f 795/1/268 815/1/268 814/1/24
f 796/1/269 816/1/269 815/1/268
f 797/1/270 817/1/270 816/1/269
f 798/1/271 818/1/271 817/1/270
f 779/1/186 799/1/186 818/1/271
usemtl m5
f 594/1/202 605/1/212 593/1/212
f 595/1/27 606/1/202 594/1/202
f 596/1/24 607/1/27 595/1/27
f 597/1/21 608/1/24 596/1/24
f 598/1/175 609/1/21 597/1/21
f 599/1/186 610/1/175 598/1/175
f 600/1/197 611/1/186 599/1/186
f 601/1/72 612/1/197 600/1/197
f 602/1/74 613/1/72 601/1/72
f 603/1/76 614/1/74 602/1/74
f 604/1/224 615/1/76 603/1/76
f 593/1/212 616/1/224 604/1/224
f 605/1/227 618/1/228 617/1/229
f 607/1/230 618/1/228 606/1/231
f 607/1/230 620/1/232 619/1/233
f 609/1/234 620/1/232 608/1/235
f 609/1/234 622/1/236 621/1/237
f 611/1/238 622/1/236 610/1/239
f 611/1/238 624/1/240 623/1/241
f 612/1/242 625/1/243 624/1/240
f 614/1/244 625/1/243 613/1/245
f 614/1/244 627/1/246 626/1/247
f 615/1/248 628/1/249 627/1/246
f 616/1/250 617/1/229 628/1/249
f 618/1/228 629/1/251 617/1/229
f 619/1/233 630/1/252 618/1/228
f 619/1/233 632/1/253 631/1/254
f 621/1/237 632/1/253 620/1/232
f 622/1/236 633/1/255 621/1/237
f 623/1/241 634/1/256 622/1/236
f 624/1/240 635/1/257 623/1/241
f 625/1/243 636/1/258 624/1/240
f 625/1/243 638/1/259 637/1/260
f 627/1/246 638/1/259 626/1/247
f 627/1/246 640/1/261 639/1/262
f 628/1/249 629/1/251 640/1/261
f 629/1/251 630/1/252 641/1/119
f 630/1/252 631/1/254 641/1/119
f 631/1/254 632/1/253 641/1/119
f 632/1/253 633/1/255 641/1/119
f 633/1/255 634/1/256 641/1/119
f 634/1/256 635/1/257 641/1/119
f 635/1/257 636/1/258 641/1/119
f 636/1/258 637/1/260 641/1/119
f 637/1/260 638/1/259 641/1/119
f 638/1/259 639/1/262 641/1/119
f 639/1/262 640/1/261 641/1/119
f 640/1/261 629/1/251 641/1/119
f 594/1/202 606/1/202 605/1/212
f 595/1/27 607/1/27 606/1/202
f 596/1/24 608/1/24 607/1/27
f 597/1/21 609/1/21 608/1/24
f 598/1/175 610/1/175 609/1/21
f 599/1/186 611/1/186 610/1/175
f 600/1/197 612/1/197 611/1/186
f 601/1/72 613/1/72 612/1/197
f 602/1/74 614/1/74 613/1/72
f 603/1/76 615/1/76 614/1/74
f 604/1/224 616/1/224 615/1/76
f 593/1/212 605/1/212 616/1/224
f 605/1/227 606/1/231 618/1/228
f 607/1/230 619/1/233 618/1/228
f 607/1/230 608/1/235 620/1/232
f 609/1/234 621/1/237 620/1/232
f 609/1/234 610/1/239 622/1/236
f 611/1/238 623/1/241 622/1/236
f 611/1/238 612/1/242 624/1/240
f 612/1/242 613/1/245 625/1/243
f 614/1/244 626/1/247 625/1/243
f 614/1/244 615/1/248 627/1/246
f 615/1/248 616/1/250 628/1/249
f 616/1/250 605/1/227 617/1/229
f 618/1/228 630/1/252 629/1/251
f 619/1/233 631/1/254 630/1/252
f 619/1/233 620/1/232 632/1/253
f 621/1/237 633/1/255 632/1/253
f 622/1/236 634/1/256 633/1/255
f 623/1/241 635/1/257 634/1/256
f 624/1/240 636/1/258 635/1/257
f 625/1/243 637/1/260 636/1/258
f 625/1/243 626/1/247 638/1/259
f 627/1/246 639/1/262 638/1/259
f 627/1/246 628/1/249 640/1/261
f 628/1/249 617/1/229 629/1/251
usemtl m6
f 671/1/202 682/1/212 670/1/212
f 672/1/27 683/1/202 671/1/202
f 673/1/24 684/1/27 672/1/27
f 674/1/21 685/1/24 673/1/24
f 675/1/175 686/1/21 674/1/21
f 676/1/186 687/1/175 675/1/175
f 677/1/197 688/1/186 676/1/186
f 678/1/72 689/1/197 677/1/197
f 679/1/74 690/1/72 678/1/72
f 680/1/76 691/1/74 679/1/74
f 681/1/224 692/1/76 680/1/76
f 670/1/212 693/1/224 681/1/224
f 682/1/227 695/1/228 694/1/229
f 684/1/230 695/1/228 683/1/231
f 684/1/230 697/1/232 696/1/233
f 685/1/235 698/1/237 697/1/232
f 686/1/234 699/1/236 698/1/237
f 687/1/239 700/1/241 699/1/236
f 689/1/242 700/1/241 688/1/238
f 690/1/245 701/1/240 689/1/242
f 691/1/244 702/1/243 690/1/245
f 691/1/244 704/1/246 703/1/247
f 692/1/248 705/1/249 704/1/246
f 693/1/250 694/1/229 705/1/249
f 695/1/228 706/1/251 694/1/229
f 695/1/228 708/1/254 707/1/252
f 696/1/233 709/1/263 708/1/254
f 698/1/237 709/1/263 697/1/232
f 699/1/236 710/1/255 698/1/237
f 699/1/236 712/1/257 711/1/256
f 701/1/240 712/1/257 700/1/241
f 701/1/240 714/1/260 713/1/258
f 702/1/243 715/1/259 714/1/260
f 704/1/246 715/1/259 703/1/247
f 705/1/249 716/1/262 704/1/246
f 705/1/249 706/1/251 717/1/261
f 706/1/251 707/1/252 718/1/119
f 707/1/252 708/1/254 718/1/119
f 708/1/254 709/1/263 718/1/119
f 709/1/263 710/1/255 718/1/119
f 710/1/255 711/1/256 718/1/119
f 711/1/256 712/1/257 718/1/119
f 712/1/257 713/1/258 718/1/119
f 713/1/258 714/1/260 718/1/119
f 714/1/260 715/1/259 718/1/119
f 715/1/259 716/1/262 718/1/119
f 716/1/262 717/1/261 718/1/119
f 717/1/261 706/1/251 718/1/119
f 671/1/202 683/1/202 682/1/212
f 672/1/27 684/1/27 683/1/202
f 673/1/24 685/1/24 684/1/27
f 674/1/21 686/1/21 685/1/24
f 675/1/175 687/1/175 686/1/21
f 676/1/186 688/1/186 687/1/175
f 677/1/197 689/1/197 688/1/186
f 678/1/72 690/1/72 689/1/197
f 679/1/74 691/1/74 690/1/72
f 680/1/76 692/1/76 691/1/74
f 681/1/224 693/1/224 692/1/76
f 670/1/212 682/1/212 693/1/224
f 682/1/227 683/1/231 695/1/228
f 684/1/230 696/1/233 695/1/228
f 684/1/230 685/1/235 697/1/232
f 685/1/235 686/1/234 698/1/237
f 686/1/234 687/1/239 699/1/236
f 687/1/239 688/1/238 700/1/241
f 689/1/242 701/1/240 700/1/241
f 690/1/245 702/1/243 701/1/240
f 691/1/244 703/1/247 702/1/243
f 691/1/244 692/1/248 704/1/246
f 692/1/248 693/1/250 705/1/249
f 693/1/250 682/1/227 694/1/229
f 695/1/228 707/1/252 706/1/251
f 695/1/228 696/1/233 708/1/254
f 696/1/233 697/1/232 709/1/263
f 698/1/237 710/1/255 709/1/263
f 699/1/236 711/1/256 710/1/255
f 699/1/236 700/1/241 712/1/257
f 701/1/240 713/1/258 712/1/257
f 701/1/240 702/1/243 714/1/260
f 702/1/243 703/1/247 715/1/259
f 704/1/246 716/1/262 715/1/259
f 705/1/249 717/1/261 716/1/262
f 705/1/249 694/1/229 706/1/251
usemtl m7
f 820/1/264 839/1/212 819/1/212
f 821/1/265 840/1/264 820/1/264
f 822/1/266 841/1/265 821/1/265
f 823/1/267 842/1/266 822/1/266
f 824/1/24 843/1/267 823/1/267
f 825/1/268 844/1/24 824/1/24
f 826/1/269 845/1/268 825/1/268
f 827/1/270 846/1/269 826/1/269
f 828/1/271 847/1/270 827/1/270
f 829/1/186 848/1/271 828/1/271
f 830/1/272 849/1/186 829/1/186
f 831/1/273 850/1/272 830/1/272
f 832/1/274 851/1/273 831/1/273
f 833/1/275 852/1/274 832/1/274
f 834/1/74 853/1/275 833/1/275
f 835/1/276 854/1/74 834/1/74
f 836/1/277 855/1/276 835/1/276
f 837/1/278 856/1/277 836/1/277
f 838/1/279 857/1/278 837/1/278
f 819/1/212 858/1/279 838/1/279
f 839/1/300 860/1/301 859/1/302
f 841/1/303 860/1/301 840/1/304
f 841/1/303 862/1/305 861/1/306
f 842/1/307 863/1/308 862/1/305
f 843/1/309 864/1/310 863/1/308
f 845/1/311 864/1/310 844/1/312
f 845/1/311 866/1/313 865/1/314
f 847/1/315 866/1/313 846/1/316
f 847/1/315 868/1/317 867/1/318
f 849/1/319 868/1/317 848/1/320
f 850/1/321 869/1/322 849/1/319
f 851/1/323 870/1/324 850/1/321
f 852/1/325 871/1/326 851/1/323
f 853/1/327 872/1/328 852/1/325
f 854/1/329 873/1/330 853/1/327
f 855/1/331 874/1/332 854/1/329
f 855/1/331 876/1/333 875/1/334
f 856/1/335 877/1/336 876/1/333
f 858/1/337 877/1/336 857/1/338
f 839/1/300 878/1/339 858/1/337
f 860/1/301 879/1/340 859/1/302
f 861/1/306 880/1/341 860/1/301
f 861/1/306 882/1/342 881/1/343
f 862/1/305 883/1/344 882/1/342
f 864/1/310 883/1/344 863/1/308
f 864/1/310 885/1/345 884/1/346
f 866/1/313 885/1/345 865/1/314
f 867/1/318 886/1/347 866/1/313
f 868/1/317 887/1/348 867/1/318
f 868/1/317 889/1/349 888/1/350
f 870/1/324 889/1/349 869/1/322
f 871/1/326 890/1/351 870/1/324
f 871/1/326 892/1/352 891/1/353
f 873/1/330 892/1/352 872/1/328
f 874/1/332 893/1/354 873/1/330
f 874/1/332 895/1/355 894/1/356
f 875/1/334 896/1/357 895/1/355
f 877/1/336 896/1/357 876/1/333
f 877/1/336 898/1/358 897/1/359
f 878/1/339 879/1/340 898/1/358
f 879/1/340 880/1/341 899/1/119
f 880/1/341 881/1/343 899/1/119
f 881/1/343 882/1/342 899/1/119
f 882/1/342 883/1/344 899/1/119
f 883/1/344 884/1/346 899/1/119
f 884/1/346 885/1/345 899/1/119
f 885/1/345 886/1/347 899/1/119
f 886/1/347 887/1/348 899/1/119
f 887/1/348 888/1/350 899/1/119
f 888/1/350 889/1/349 899/1/119
f 889/1/349 890/1/351 899/1/119
f 890/1/351 891/1/353 899/1/119
f 891/1/353 892/1/352 899/1/119
f 892/1/352 893/1/354 899/1/119
f 893/1/354 894/1/356 899/1/119
f 894/1/356 895/1/355 899/1/119
f 895/1/355 896/1/357 899/1/119
f 896/1/357 897/1/359 899/1/119
f 897/1/359 898/1/358 899/1/119
f 898/1/358 879/1/340 899/1/119
f 820/1/264 840/1/264 839/1/212
f 821/1/265 841/1/265 840/1/264
f 822/1/266 842/1/266 841/1/265
f 823/1/267 843/1/267 842/1/266
f 824/1/24 844/1/24 843/1/267
f 825/1/268 845/1/268 844/1/24
f 826/1/269 846/1/269 845/1/268
f 827/1/270 847/1/270 846/1/269
f 828/1/271 848/1/271 847/1/270
f 829/1/186 849/1/186 848/1/271
f 830/1/272 850/1/272 849/1/186
f 831/1/273 851/1/273 850/1/272
f 832/1/274 852/1/274 851/1/273
f 833/1/275 853/1/275 852/1/274
f 834/1/74 854/1/74 853/1/275
f 835/1/276 855/1/276 854/1/74
f 836/1/277 856/1/277 855/1/276
f 837/1/278 857/1/278 856/1/277
f 838/1/279 858/1/279 857/1/278
f 819/1/212 839/1/212 858/1/279
f 839/1/300 840/1/304 860/1/301
f 841/1/303 861/1/306 860/1/301
f 841/1/303 842/1/307 862/1/305
f 842/1/307 843/1/309 863/1/308
f 843/1/309 844/1/312 864/1/310
f 845/1/311 865/1/314 864/1/310
f 845/1/311 846/1/316 866/1/313
f 847/1/315 867/1/318 866/1/313
f 847/1/315 848/1/320 868/1/317
f 849/1/319 869/1/322 868/1/317
f 850/1/321 870/1/324 869/1/322
f 851/1/323 871/1/326 870/1/324
f 852/1/325 872/1/328 871/1/326
f 853/1/327 873/1/330 872/1/328
f 854/1/329 874/1/332 873/1/330
f 855/1/331 875/1/334 874/1/332
f 855/1/331 856/1/335 876/1/333
f 856/1/335 857/1/338 877/1/336
f 858/1/337 878/1/339 877/1/336
f 839/1/300 859/1/302 878/1/339
f 860/1/301 880/1/341 879/1/340
f 861/1/306 881/1/343 880/1/341
f 861/1/306 862/1/305 882/1/342
f 862/1/305 863/1/308 883/1/344
f 864/1/310 884/1/346 883/1/344
f 864/1/310 865/1/314 885/1/345
f 866/1/313 886/1/347 885/1/345
f 867/1/318 887/1/348 886/1/347
f 868/1/317 888/1/350 887/1/348
f 868/1/317 869/1/322 889/1/349
f 870/1/324 890/1/351 889/1/349
f 871/1/326 891/1/353 890/1/351
f 871/1/326 872/1/328 892/1/352
f 873/1/330 893/1/354 892/1/352
f 874/1/332 894/1/356 893/1/354
f 874/1/332 875/1/334 895/1/355
f 875/1/334 876/1/333 896/1/357
f 877/1/336 897/1/359 896/1/357
f 877/1/336 878/1/339 898/1/358
f 878/1/339 859/1/302 879/1/340
