# Blender 5.2.2 LTS
# www.blender.org
mtllib FuseCock.mtl
o FuseCock
v 0.010500 0.000000 0.000000
v 0.009093 0.000000 0.005250
v 0.005250 0.000000 0.009093
v 0.000000 0.000000 0.010500
v -0.005250 0.000000 0.009093
v -0.009093 0.000000 0.005250
v -0.010500 0.000000 0.000000
v -0.009093 0.000000 -0.005250
v -0.005250 0.000000 -0.009093
v -0.000000 0.000000 -0.010500
v 0.005250 0.000000 -0.009093
v 0.009093 0.000000 -0.005250
v 0.015000 0.000000 0.000000
v 0.011250 0.000000 0.006495
v 0.007500 0.000000 0.012990
v 0.000000 0.000000 0.012990
v -0.007500 0.000000 0.012990
v -0.011250 0.000000 0.006495
v -0.015000 0.000000 0.000000
v -0.011250 0.000000 -0.006495
v -0.007500 0.000000 -0.012990
v -0.000000 0.000000 -0.012990
v 0.007500 0.000000 -0.012990
v 0.011250 0.000000 -0.006495
v 0.017320 -0.001300 0.000000
v 0.012990 -0.001300 0.007500
v 0.008660 -0.001300 0.015000
v 0.000000 -0.001300 0.015000
v -0.008660 -0.001300 0.015000
v -0.012990 -0.001300 0.007500
v -0.017320 -0.001300 0.000000
v -0.012990 -0.001300 -0.007500
v -0.008660 -0.001300 -0.015000
v -0.000000 -0.001300 -0.015000
v 0.008660 -0.001300 -0.015000
v 0.012990 -0.001300 -0.007500
v 0.017320 -0.012700 0.000000
v 0.012990 -0.012700 0.007500
v 0.008660 -0.012700 0.015000
v 0.000000 -0.012700 0.015000
v -0.008660 -0.012700 0.015000
v -0.012990 -0.012700 0.007500
v -0.017320 -0.012700 0.000000
v -0.012990 -0.012700 -0.007500
v -0.008660 -0.012700 -0.015000
v -0.000000 -0.012700 -0.015000
v 0.008660 -0.012700 -0.015000
v 0.012990 -0.012700 -0.007500
v 0.015000 -0.014000 0.000000
v 0.011250 -0.014000 0.006495
v 0.007500 -0.014000 0.012990
v 0.000000 -0.014000 0.012990
v -0.007500 -0.014000 0.012990
v -0.011250 -0.014000 0.006495
v -0.015000 -0.014000 0.000000
v -0.011250 -0.014000 -0.006495
v -0.007500 -0.014000 -0.012990
v -0.000000 -0.014000 -0.012990
v 0.007500 -0.014000 -0.012990
v 0.011250 -0.014000 -0.006495
v 0.013500 -0.014000 0.000000
v 0.011691 -0.014000 0.006750
v 0.006750 -0.014000 0.011691
v 0.000000 -0.014000 0.013500
v -0.006750 -0.014000 0.011691
v -0.011691 -0.014000 0.006750
v -0.013500 -0.014000 0.000000
v -0.011691 -0.014000 -0.006750
v -0.006750 -0.014000 -0.011691
v -0.000000 -0.014000 -0.013500
v 0.006750 -0.014000 -0.011691
v 0.011691 -0.014000 -0.006750
v 0.000000 -0.008000 0.000000
v 0.010500 -0.008000 0.000000
v 0.009093 -0.008000 0.005250
v 0.005250 -0.008000 0.009093
v 0.000000 -0.008000 0.010500
v -0.005250 -0.008000 0.009093
v -0.009093 -0.008000 0.005250
v -0.010500 -0.008000 0.000000
v -0.009093 -0.008000 -0.005250
v -0.005250 -0.008000 -0.009093
v -0.000000 -0.008000 -0.010500
v 0.005250 -0.008000 -0.009093
v 0.009093 -0.008000 -0.005250
v 0.010500 0.000000 0.000000
v 0.009093 0.000000 0.005250
v 0.005250 0.000000 0.009093
v 0.000000 0.000000 0.010500
v -0.005250 0.000000 0.009093
v -0.009093 0.000000 0.005250
v -0.010500 0.000000 0.000000
v -0.009093 0.000000 -0.005250
v -0.005250 0.000000 -0.009093
v -0.000000 0.000000 -0.010500
v 0.005250 0.000000 -0.009093
v 0.009093 0.000000 -0.005250
v 0.011200 -0.012000 0.000000
v 0.010091 -0.012000 0.004859
v 0.006983 -0.012000 0.008757
v 0.002492 -0.012000 0.010919
v -0.002492 -0.012000 0.010919
v -0.006983 -0.012000 0.008757
v -0.010091 -0.012000 0.004859
v -0.011200 -0.012000 0.000000
v -0.010091 -0.012000 -0.004859
v -0.006983 -0.012000 -0.008757
v -0.002492 -0.012000 -0.010919
v 0.002492 -0.012000 -0.010919
v 0.006983 -0.012000 -0.008757
v 0.010091 -0.012000 -0.004859
v 0.011200 -0.015500 0.000000
v 0.010091 -0.015500 0.004859
v 0.006983 -0.015500 0.008757
v 0.002492 -0.015500 0.010919
v -0.002492 -0.015500 0.010919
v -0.006983 -0.015500 0.008757
v -0.010091 -0.015500 0.004859
v -0.011200 -0.015500 0.000000
v -0.010091 -0.015500 -0.004859
v -0.006983 -0.015500 -0.008757
v -0.002492 -0.015500 -0.010919
v 0.002492 -0.015500 -0.010919
v 0.006983 -0.015500 -0.008757
v 0.010091 -0.015500 -0.004859
v 0.011200 -0.015500 0.000000
v 0.010091 -0.015500 0.004859
v 0.006983 -0.015500 0.008757
v 0.002492 -0.015500 0.010919
v -0.002492 -0.015500 0.010919
v -0.006983 -0.015500 0.008757
v -0.010091 -0.015500 0.004859
v -0.011200 -0.015500 0.000000
v -0.010091 -0.015500 -0.004859
v -0.006983 -0.015500 -0.008757
v -0.002492 -0.015500 -0.010919
v 0.002492 -0.015500 -0.010919
v 0.006983 -0.015500 -0.008757
v 0.010091 -0.015500 -0.004859
v 0.012800 -0.016800 0.000000
v 0.011532 -0.016800 0.005554
v 0.007981 -0.016800 0.010007
v 0.002848 -0.016800 0.012479
v -0.002848 -0.016800 0.012479
v -0.007981 -0.016800 0.010007
v -0.011532 -0.016800 0.005554
v -0.012800 -0.016800 0.000000
v -0.011532 -0.016800 -0.005554
v -0.007981 -0.016800 -0.010007
v -0.002848 -0.016800 -0.012479
v 0.002848 -0.016800 -0.012479
v 0.007981 -0.016800 -0.010007
v 0.011532 -0.016800 -0.005554
v 0.012800 -0.018500 0.000000
v 0.011532 -0.018500 0.005554
v 0.007981 -0.018500 0.010007
v 0.002848 -0.018500 0.012479
v -0.002848 -0.018500 0.012479
v -0.007981 -0.018500 0.010007
v -0.011532 -0.018500 0.005554
v -0.012800 -0.018500 0.000000
v -0.011532 -0.018500 -0.005554
v -0.007981 -0.018500 -0.010007
v -0.002848 -0.018500 -0.012479
v 0.002848 -0.018500 -0.012479
v 0.007981 -0.018500 -0.010007
v 0.011532 -0.018500 -0.005554
v 0.011200 -0.019800 0.000000
v 0.010091 -0.019800 0.004859
v 0.006983 -0.019800 0.008757
v 0.002492 -0.019800 0.010919
v -0.002492 -0.019800 0.010919
v -0.006983 -0.019800 0.008757
v -0.010091 -0.019800 0.004859
v -0.011200 -0.019800 0.000000
v -0.010091 -0.019800 -0.004859
v -0.006983 -0.019800 -0.008757
v -0.002492 -0.019800 -0.010919
v 0.002492 -0.019800 -0.010919
v 0.006983 -0.019800 -0.008757
v 0.010091 -0.019800 -0.004859
v 0.011200 -0.021300 0.000000
v 0.010091 -0.021300 0.004859
v 0.006983 -0.021300 0.008757
v 0.002492 -0.021300 0.010919
v -0.002492 -0.021300 0.010919
v -0.006983 -0.021300 0.008757
v -0.010091 -0.021300 0.004859
v -0.011200 -0.021300 0.000000
v -0.010091 -0.021300 -0.004859
v -0.006983 -0.021300 -0.008757
v -0.002492 -0.021300 -0.010919
v 0.002492 -0.021300 -0.010919
v 0.006983 -0.021300 -0.008757
v 0.010091 -0.021300 -0.004859
v 0.012800 -0.022600 0.000000
v 0.011532 -0.022600 0.005554
v 0.007981 -0.022600 0.010007
v 0.002848 -0.022600 0.012479
v -0.002848 -0.022600 0.012479
v -0.007981 -0.022600 0.010007
v -0.011532 -0.022600 0.005554
v -0.012800 -0.022600 0.000000
v -0.011532 -0.022600 -0.005554
v -0.007981 -0.022600 -0.010007
v -0.002848 -0.022600 -0.012479
v 0.002848 -0.022600 -0.012479
v 0.007981 -0.022600 -0.010007
v 0.011532 -0.022600 -0.005554
v 0.012800 -0.024300 0.000000
v 0.011532 -0.024300 0.005554
v 0.007981 -0.024300 0.010007
v 0.002848 -0.024300 0.012479
v -0.002848 -0.024300 0.012479
v -0.007981 -0.024300 0.010007
v -0.011532 -0.024300 0.005554
v -0.012800 -0.024300 0.000000
v -0.011532 -0.024300 -0.005554
v -0.007981 -0.024300 -0.010007
v -0.002848 -0.024300 -0.012479
v 0.002848 -0.024300 -0.012479
v 0.007981 -0.024300 -0.010007
v 0.011532 -0.024300 -0.005554
v 0.011200 -0.025600 0.000000
v 0.010091 -0.025600 0.004859
v 0.006983 -0.025600 0.008757
v 0.002492 -0.025600 0.010919
v -0.002492 -0.025600 0.010919
v -0.006983 -0.025600 0.008757
v -0.010091 -0.025600 0.004859
v -0.011200 -0.025600 0.000000
v -0.010091 -0.025600 -0.004859
v -0.006983 -0.025600 -0.008757
v -0.002492 -0.025600 -0.010919
v 0.002492 -0.025600 -0.010919
v 0.006983 -0.025600 -0.008757
v 0.010091 -0.025600 -0.004859
v 0.011200 -0.026200 0.000000
v 0.010091 -0.026200 0.004859
v 0.006983 -0.026200 0.008757
v 0.002492 -0.026200 0.010919
v -0.002492 -0.026200 0.010919
v -0.006983 -0.026200 0.008757
v -0.010091 -0.026200 0.004859
v -0.011200 -0.026200 0.000000
v -0.010091 -0.026200 -0.004859
v -0.006983 -0.026200 -0.008757
v -0.002492 -0.026200 -0.010919
v 0.002492 -0.026200 -0.010919
v 0.006983 -0.026200 -0.008757
v 0.010091 -0.026200 -0.004859
v 0.013900 -0.026200 0.000000
v 0.012523 -0.026200 0.006031
v 0.008667 -0.026200 0.010867
v 0.003093 -0.026200 0.013551
v -0.003093 -0.026200 0.013551
v -0.008667 -0.026200 0.010867
v -0.012523 -0.026200 0.006031
v -0.013900 -0.026200 0.000000
v -0.012523 -0.026200 -0.006031
v -0.008667 -0.026200 -0.010867
v -0.003093 -0.026200 -0.013551
v 0.003093 -0.026200 -0.013551
v 0.008667 -0.026200 -0.010867
v 0.012523 -0.026200 -0.006031
v 0.013900 -0.031200 0.000000
v 0.012523 -0.031200 0.006031
v 0.008667 -0.031200 0.010867
v 0.003093 -0.031200 0.013551
v -0.003093 -0.031200 0.013551
v -0.008667 -0.031200 0.010867
v -0.012523 -0.031200 0.006031
v -0.013900 -0.031200 0.000000
v -0.012523 -0.031200 -0.006031
v -0.008667 -0.031200 -0.010867
v -0.003093 -0.031200 -0.013551
v 0.003093 -0.031200 -0.013551
v 0.008667 -0.031200 -0.010867
v 0.012523 -0.031200 -0.006031
v 0.011200 -0.031200 0.000000
v 0.010091 -0.031200 0.004859
v 0.006983 -0.031200 0.008757
v 0.002492 -0.031200 0.010919
v -0.002492 -0.031200 0.010919
v -0.006983 -0.031200 0.008757
v -0.010091 -0.031200 0.004859
v -0.011200 -0.031200 0.000000
v -0.010091 -0.031200 -0.004859
v -0.006983 -0.031200 -0.008757
v -0.002492 -0.031200 -0.010919
v 0.002492 -0.031200 -0.010919
v 0.006983 -0.031200 -0.008757
v 0.010091 -0.031200 -0.004859
v 0.011200 -0.050000 0.000000
v 0.010091 -0.050000 0.004859
v 0.006983 -0.050000 0.008757
v 0.002492 -0.050000 0.010919
v -0.002492 -0.050000 0.010919
v -0.006983 -0.050000 0.008757
v -0.010091 -0.050000 0.004859
v -0.011200 -0.050000 0.000000
v -0.010091 -0.050000 -0.004859
v -0.006983 -0.050000 -0.008757
v -0.002492 -0.050000 -0.010919
v 0.002492 -0.050000 -0.010919
v 0.006983 -0.050000 -0.008757
v 0.010091 -0.050000 -0.004859
v 0.012800 -0.054500 0.000000
v 0.011532 -0.054500 0.005554
v 0.007981 -0.054500 0.010007
v 0.002848 -0.054500 0.012479
v -0.002848 -0.054500 0.012479
v -0.007981 -0.054500 0.010007
v -0.011532 -0.054500 0.005554
v -0.012800 -0.054500 0.000000
v -0.011532 -0.054500 -0.005554
v -0.007981 -0.054500 -0.010007
v -0.002848 -0.054500 -0.012479
v 0.002848 -0.054500 -0.012479
v 0.007981 -0.054500 -0.010007
v 0.011532 -0.054500 -0.005554
v 0.014200 -0.059000 0.000000
v 0.012794 -0.059000 0.006161
v 0.008854 -0.059000 0.011102
v 0.003160 -0.059000 0.013844
v -0.003160 -0.059000 0.013844
v -0.008854 -0.059000 0.011102
v -0.012794 -0.059000 0.006161
v -0.014200 -0.059000 0.000000
v -0.012794 -0.059000 -0.006161
v -0.008854 -0.059000 -0.011102
v -0.003160 -0.059000 -0.013844
v 0.003160 -0.059000 -0.013844
v 0.008854 -0.059000 -0.011102
v 0.012794 -0.059000 -0.006161
v 0.014400 -0.070000 0.000000
v 0.012974 -0.070000 0.006248
v 0.008978 -0.070000 0.011258
v 0.003204 -0.070000 0.014039
v -0.003204 -0.070000 0.014039
v -0.008978 -0.070000 0.011258
v -0.012974 -0.070000 0.006248
v -0.014400 -0.070000 0.000000
v -0.012974 -0.070000 -0.006248
v -0.008978 -0.070000 -0.011258
v -0.003204 -0.070000 -0.014039
v 0.003204 -0.070000 -0.014039
v 0.008978 -0.070000 -0.011258
v 0.012974 -0.070000 -0.006248
v 0.000000 -0.075000 -0.015000
v 0.000000 -0.064000 -0.015000
v -0.003762 -0.064663 -0.015000
v -0.007071 -0.066574 -0.015000
v -0.009526 -0.069500 -0.015000
v -0.010833 -0.073090 -0.015000
v -0.010833 -0.076910 -0.015000
v -0.009526 -0.080500 -0.015000
v -0.007071 -0.083426 -0.015000
v -0.003762 -0.085337 -0.015000
v -0.000000 -0.086000 -0.015000
v 0.003762 -0.085337 -0.015000
v 0.007071 -0.083426 -0.015000
v 0.009526 -0.080500 -0.015000
v 0.010833 -0.076910 -0.015000
v 0.010833 -0.073090 -0.015000
v 0.009526 -0.069500 -0.015000
v 0.007071 -0.066574 -0.015000
v 0.003762 -0.064663 -0.015000
v 0.000000 -0.060700 -0.013000
v -0.004891 -0.061562 -0.013000
v -0.009192 -0.064046 -0.013000
v -0.012384 -0.067850 -0.013000
v -0.014083 -0.072517 -0.013000
v -0.014083 -0.077483 -0.013000
v -0.012384 -0.082150 -0.013000
v -0.009192 -0.085954 -0.013000
v -0.004891 -0.088438 -0.013000
v -0.000000 -0.089300 -0.013000
v 0.004891 -0.088438 -0.013000
v 0.009192 -0.085954 -0.013000
v 0.012384 -0.082150 -0.013000
v 0.014083 -0.077483 -0.013000
v 0.014083 -0.072517 -0.013000
v 0.012384 -0.067850 -0.013000
v 0.009192 -0.064046 -0.013000
v 0.004891 -0.061562 -0.013000
v 0.000000 -0.060000 -0.010500
v -0.005130 -0.060905 -0.010500
v -0.009642 -0.063509 -0.010500
v -0.012990 -0.067500 -0.010500
v -0.014772 -0.072395 -0.010500
v -0.014772 -0.077605 -0.010500
v -0.012990 -0.082500 -0.010500
v -0.009642 -0.086491 -0.010500
v -0.005130 -0.089095 -0.010500
v -0.000000 -0.090000 -0.010500
v 0.005130 -0.089095 -0.010500
v 0.009642 -0.086491 -0.010500
v 0.012990 -0.082500 -0.010500
v 0.014772 -0.077605 -0.010500
v 0.014772 -0.072395 -0.010500
v 0.012990 -0.067500 -0.010500
v 0.009642 -0.063509 -0.010500
v 0.005130 -0.060905 -0.010500
v 0.000000 -0.060000 0.049000
v -0.005130 -0.060905 0.049000
v -0.009642 -0.063509 0.049000
v -0.012990 -0.067500 0.049000
v -0.014772 -0.072395 0.049000
v -0.014772 -0.077605 0.049000
v -0.012990 -0.082500 0.049000
v -0.009642 -0.086491 0.049000
v -0.005130 -0.089095 0.049000
v -0.000000 -0.090000 0.049000
v 0.005130 -0.089095 0.049000
v 0.009642 -0.086491 0.049000
v 0.012990 -0.082500 0.049000
v 0.014772 -0.077605 0.049000
v 0.014772 -0.072395 0.049000
v 0.012990 -0.067500 0.049000
v 0.009642 -0.063509 0.049000
v 0.005130 -0.060905 0.049000
v 0.000000 -0.060700 0.050500
v -0.004891 -0.061562 0.050500
v -0.009192 -0.064046 0.050500
v -0.012384 -0.067850 0.050500
v -0.014083 -0.072517 0.050500
v -0.014083 -0.077483 0.050500
v -0.012384 -0.082150 0.050500
v -0.009192 -0.085954 0.050500
v -0.004891 -0.088438 0.050500
v -0.000000 -0.089300 0.050500
v 0.004891 -0.088438 0.050500
v 0.009192 -0.085954 0.050500
v 0.012384 -0.082150 0.050500
v 0.014083 -0.077483 0.050500
v 0.014083 -0.072517 0.050500
v 0.012384 -0.067850 0.050500
v 0.009192 -0.064046 0.050500
v 0.004891 -0.061562 0.050500
v 0.000000 -0.060700 0.053000
v -0.004891 -0.061562 0.053000
v -0.009192 -0.064046 0.053000
v -0.012384 -0.067850 0.053000
v -0.014083 -0.072517 0.053000
v -0.014083 -0.077483 0.053000
v -0.012384 -0.082150 0.053000
v -0.009192 -0.085954 0.053000
v -0.004891 -0.088438 0.053000
v -0.000000 -0.089300 0.053000
v 0.004891 -0.088438 0.053000
v 0.009192 -0.085954 0.053000
v 0.012384 -0.082150 0.053000
v 0.014083 -0.077483 0.053000
v 0.014083 -0.072517 0.053000
v 0.012384 -0.067850 0.053000
v 0.009192 -0.064046 0.053000
v 0.004891 -0.061562 0.053000
v 0.000000 -0.060000 0.054500
v -0.005130 -0.060905 0.054500
v -0.009642 -0.063509 0.054500
v -0.012990 -0.067500 0.054500
v -0.014772 -0.072395 0.054500
v -0.014772 -0.077605 0.054500
v -0.012990 -0.082500 0.054500
v -0.009642 -0.086491 0.054500
v -0.005130 -0.089095 0.054500
v -0.000000 -0.090000 0.054500
v 0.005130 -0.089095 0.054500
v 0.009642 -0.086491 0.054500
v 0.012990 -0.082500 0.054500
v 0.014772 -0.077605 0.054500
v 0.014772 -0.072395 0.054500
v 0.012990 -0.067500 0.054500
v 0.009642 -0.063509 0.054500
v 0.005130 -0.060905 0.054500
v 0.000000 -0.060000 0.066000
v -0.005130 -0.060905 0.066000
v -0.009642 -0.063509 0.066000
v -0.012990 -0.067500 0.066000
v -0.014772 -0.072395 0.066000
v -0.014772 -0.077605 0.066000
v -0.012990 -0.082500 0.066000
v -0.009642 -0.086491 0.066000
v -0.005130 -0.089095 0.066000
v -0.000000 -0.090000 0.066000
v 0.005130 -0.089095 0.066000
v 0.009642 -0.086491 0.066000
v 0.012990 -0.082500 0.066000
v 0.014772 -0.077605 0.066000
v 0.014772 -0.072395 0.066000
v 0.012990 -0.067500 0.066000
v 0.009642 -0.063509 0.066000
v 0.005130 -0.060905 0.066000
v 0.000000 -0.061200 0.070000
v -0.004720 -0.062032 0.070000
v -0.008870 -0.064429 0.070000
v -0.011951 -0.068100 0.070000
v -0.013590 -0.072604 0.070000
v -0.013590 -0.077396 0.070000
v -0.011951 -0.081900 0.070000
v -0.008870 -0.085571 0.070000
v -0.004720 -0.087968 0.070000
v -0.000000 -0.088800 0.070000
v 0.004720 -0.087968 0.070000
v 0.008870 -0.085571 0.070000
v 0.011951 -0.081900 0.070000
v 0.013590 -0.077396 0.070000
v 0.013590 -0.072604 0.070000
v 0.011951 -0.068100 0.070000
v 0.008870 -0.064429 0.070000
v 0.004720 -0.062032 0.070000
v 0.000000 -0.065000 0.070000
v -0.003420 -0.065603 0.070000
v -0.006428 -0.067340 0.070000
v -0.008660 -0.070000 0.070000
v -0.009848 -0.073264 0.070000
v -0.009848 -0.076736 0.070000
v -0.008660 -0.080000 0.070000
v -0.006428 -0.082660 0.070000
v -0.003420 -0.084397 0.070000
v -0.000000 -0.085000 0.070000
v 0.003420 -0.084397 0.070000
v 0.006428 -0.082660 0.070000
v 0.008660 -0.080000 0.070000
v 0.009848 -0.076736 0.070000
v 0.009848 -0.073264 0.070000
v 0.008660 -0.070000 0.070000
v 0.006428 -0.067340 0.070000
v 0.003420 -0.065603 0.070000
v 0.000000 -0.065000 0.070000
v -0.003090 -0.065489 0.070000
v -0.005878 -0.066910 0.070000
v -0.008090 -0.069122 0.070000
v -0.009511 -0.071910 0.070000
v -0.010000 -0.075000 0.070000
v -0.009511 -0.078090 0.070000
v -0.008090 -0.080878 0.070000
v -0.005878 -0.083090 0.070000
v -0.003090 -0.084511 0.070000
v -0.000000 -0.085000 0.070000
v 0.003090 -0.084511 0.070000
v 0.005878 -0.083090 0.070000
v 0.008090 -0.080878 0.070000
v 0.009511 -0.078090 0.070000
v 0.010000 -0.075000 0.070000
v 0.009511 -0.071910 0.070000
v 0.008090 -0.069122 0.070000
v 0.005878 -0.066910 0.070000
v 0.003090 -0.065489 0.070000
v 0.000000 -0.063800 0.070000
v -0.003219 -0.065094 0.070000
v -0.006583 -0.065939 0.070000
v -0.008427 -0.068878 0.070000
v -0.010652 -0.071539 0.070000
v -0.010416 -0.075000 0.070000
v -0.010652 -0.078461 0.070000
v -0.008427 -0.081122 0.070000
v -0.006583 -0.084061 0.070000
v -0.003219 -0.084906 0.070000
v -0.000000 -0.086200 0.070000
v 0.003219 -0.084906 0.070000
v 0.006583 -0.084061 0.070000
v 0.008427 -0.081122 0.070000
v 0.010652 -0.078461 0.070000
v 0.010416 -0.075000 0.070000
v 0.010652 -0.071539 0.070000
v 0.008427 -0.068878 0.070000
v 0.006583 -0.065939 0.070000
v 0.003219 -0.065094 0.070000
v 0.000000 -0.063800 0.079000
v -0.003219 -0.065094 0.079000
v -0.006583 -0.065939 0.079000
v -0.008427 -0.068878 0.079000
v -0.010652 -0.071539 0.079000
v -0.010416 -0.075000 0.079000
v -0.010652 -0.078461 0.079000
v -0.008427 -0.081122 0.079000
v -0.006583 -0.084061 0.079000
v -0.003219 -0.084906 0.079000
v -0.000000 -0.086200 0.079000
v 0.003219 -0.084906 0.079000
v 0.006583 -0.084061 0.079000
v 0.008427 -0.081122 0.079000
v 0.010652 -0.078461 0.079000
v 0.010416 -0.075000 0.079000
v 0.010652 -0.071539 0.079000
v 0.008427 -0.068878 0.079000
v 0.006583 -0.065939 0.079000
v 0.003219 -0.065094 0.079000
v 0.000000 -0.068200 0.079500
v -0.002101 -0.068533 0.079500
v -0.003997 -0.069499 0.079500
v -0.005501 -0.071003 0.079500
v -0.006467 -0.072899 0.079500
v -0.006800 -0.075000 0.079500
v -0.006467 -0.077101 0.079500
v -0.005501 -0.078997 0.079500
v -0.003997 -0.080501 0.079500
v -0.002101 -0.081467 0.079500
v -0.000000 -0.081800 0.079500
v 0.002101 -0.081467 0.079500
v 0.003997 -0.080501 0.079500
v 0.005501 -0.078997 0.079500
v 0.006467 -0.077101 0.079500
v 0.006800 -0.075000 0.079500
v 0.006467 -0.072899 0.079500
v 0.005501 -0.071003 0.079500
v 0.003997 -0.069499 0.079500
v 0.002101 -0.068533 0.079500
v 0.000000 -0.068200 0.078500
v -0.003400 -0.069111 0.078500
v -0.005889 -0.071600 0.078500
v -0.006800 -0.075000 0.078500
v -0.005889 -0.078400 0.078500
v -0.003400 -0.080889 0.078500
v -0.000000 -0.081800 0.078500
v 0.003400 -0.080889 0.078500
v 0.005889 -0.078400 0.078500
v 0.006800 -0.075000 0.078500
v 0.005889 -0.071600 0.078500
v 0.003400 -0.069111 0.078500
v 0.000000 -0.068200 0.079500
v -0.003400 -0.069111 0.079500
v -0.005889 -0.071600 0.079500
v -0.006800 -0.075000 0.079500
v -0.005889 -0.078400 0.079500
v -0.003400 -0.080889 0.079500
v -0.000000 -0.081800 0.079500
v 0.003400 -0.080889 0.079500
v 0.005889 -0.078400 0.079500
v 0.006800 -0.075000 0.079500
v 0.005889 -0.071600 0.079500
v 0.003400 -0.069111 0.079500
v 0.000000 -0.066200 0.085500
v -0.004400 -0.067379 0.085500
v -0.007621 -0.070600 0.085500
v -0.008800 -0.075000 0.085500
v -0.007621 -0.079400 0.085500
v -0.004400 -0.082621 0.085500
v -0.000000 -0.083800 0.085500
v 0.004400 -0.082621 0.085500
v 0.007621 -0.079400 0.085500
v 0.008800 -0.075000 0.085500
v 0.007621 -0.070600 0.085500
v 0.004400 -0.067379 0.085500
v 0.000000 -0.068200 0.085800
v -0.003400 -0.069111 0.085800
v -0.005889 -0.071600 0.085800
v -0.006800 -0.075000 0.085800
v -0.005889 -0.078400 0.085800
v -0.003400 -0.080889 0.085800
v -0.000000 -0.081800 0.085800
v 0.003400 -0.080889 0.085800
v 0.005889 -0.078400 0.085800
v 0.006800 -0.075000 0.085800
v 0.005889 -0.071600 0.085800
v 0.003400 -0.069111 0.085800
v 0.000000 -0.066200 0.092100
v -0.004400 -0.067379 0.092100
v -0.007621 -0.070600 0.092100
v -0.008800 -0.075000 0.092100
v -0.007621 -0.079400 0.092100
v -0.004400 -0.082621 0.092100
v -0.000000 -0.083800 0.092100
v 0.004400 -0.082621 0.092100
v 0.007621 -0.079400 0.092100
v 0.008800 -0.075000 0.092100
v 0.007621 -0.070600 0.092100
v 0.004400 -0.067379 0.092100
v 0.000000 -0.068200 0.092400
v -0.003400 -0.069111 0.092400
v -0.005889 -0.071600 0.092400
v -0.006800 -0.075000 0.092400
v -0.005889 -0.078400 0.092400
v -0.003400 -0.080889 0.092400
v -0.000000 -0.081800 0.092400
v 0.003400 -0.080889 0.092400
v 0.005889 -0.078400 0.092400
v 0.006800 -0.075000 0.092400
v 0.005889 -0.071600 0.092400
v 0.003400 -0.069111 0.092400
v 0.000000 -0.066200 0.096500
v -0.004400 -0.067379 0.096500
v -0.007621 -0.070600 0.096500
v -0.008800 -0.075000 0.096500
v -0.007621 -0.079400 0.096500
v -0.004400 -0.082621 0.096500
v -0.000000 -0.083800 0.096500
v 0.004400 -0.082621 0.096500
v 0.007621 -0.079400 0.096500
v 0.008800 -0.075000 0.096500
v 0.007621 -0.070600 0.096500
v 0.004400 -0.067379 0.096500
v 0.000000 -0.067800 0.099500
v -0.003600 -0.068765 0.099500
v -0.006235 -0.071400 0.099500
v -0.007200 -0.075000 0.099500
v -0.006235 -0.078600 0.099500
v -0.003600 -0.081235 0.099500
v -0.000000 -0.082200 0.099500
v 0.003600 -0.081235 0.099500
v 0.006235 -0.078600 0.099500
v 0.007200 -0.075000 0.099500
v 0.006235 -0.071400 0.099500
v 0.003600 -0.068765 0.099500
v 0.000000 -0.069000 0.100000
v -0.003000 -0.069804 0.100000
v -0.005196 -0.072000 0.100000
v -0.006000 -0.075000 0.100000
v -0.005196 -0.078000 0.100000
v -0.003000 -0.080196 0.100000
v -0.000000 -0.081000 0.100000
v 0.003000 -0.080196 0.100000
v 0.005196 -0.078000 0.100000
v 0.006000 -0.075000 0.100000
v 0.005196 -0.072000 0.100000
v 0.003000 -0.069804 0.100000
v 0.000000 -0.070600 0.100000
v -0.002200 -0.071189 0.100000
v -0.003811 -0.072800 0.100000
v -0.004400 -0.075000 0.100000
v -0.003811 -0.077200 0.100000
v -0.002200 -0.078811 0.100000
v -0.000000 -0.079400 0.100000
v 0.002200 -0.078811 0.100000
v 0.003811 -0.077200 0.100000
v 0.004400 -0.075000 0.100000
v 0.003811 -0.072800 0.100000
v 0.002200 -0.071189 0.100000
v 0.000000 -0.070600 0.100000
v -0.002200 -0.071189 0.100000
v -0.003811 -0.072800 0.100000
v -0.004400 -0.075000 0.100000
v -0.003811 -0.077200 0.100000
v -0.002200 -0.078811 0.100000
v -0.000000 -0.079400 0.100000
v 0.002200 -0.078811 0.100000
v 0.003811 -0.077200 0.100000
v 0.004400 -0.075000 0.100000
v 0.003811 -0.072800 0.100000
v 0.002200 -0.071189 0.100000
v 0.000000 -0.070600 0.092000
v -0.002200 -0.071189 0.092000
v -0.003811 -0.072800 0.092000
v -0.004400 -0.075000 0.092000
v -0.003811 -0.077200 0.092000
v -0.002200 -0.078811 0.092000
v -0.000000 -0.079400 0.092000
v 0.002200 -0.078811 0.092000
v 0.003811 -0.077200 0.092000
v 0.004400 -0.075000 0.092000
v 0.003811 -0.072800 0.092000
v 0.002200 -0.071189 0.092000
v 0.000000 -0.075000 0.092000
v 0.012369 -0.083661 0.017500
v 0.013865 -0.080981 0.017500
v 0.014788 -0.078053 0.017500
v 0.015100 -0.075000 0.017500
v 0.014788 -0.071947 0.017500
v 0.013865 -0.069019 0.017500
v 0.012369 -0.066339 0.017500
v 0.012369 -0.083661 0.042000
v 0.013865 -0.080981 0.042000
v 0.014788 -0.078053 0.042000
v 0.015100 -0.075000 0.042000
v 0.014788 -0.071947 0.042000
v 0.013865 -0.069019 0.042000
v 0.012369 -0.066339 0.042000
v -0.012000 -0.066800 0.030000
v -0.012000 -0.067899 0.025900
v -0.012000 -0.070900 0.022899
v -0.012000 -0.075000 0.021800
v -0.012000 -0.079100 0.022899
v -0.012000 -0.082101 0.025900
v -0.012000 -0.083200 0.030000
v -0.012000 -0.082101 0.034100
v -0.012000 -0.079100 0.037101
v -0.012000 -0.075000 0.038200
v -0.012000 -0.070900 0.037101
v -0.012000 -0.067899 0.034100
v -0.018400 -0.066800 0.030000
v -0.018400 -0.067899 0.025900
v -0.018400 -0.070900 0.022899
v -0.018400 -0.075000 0.021800
v -0.018400 -0.079100 0.022899
v -0.018400 -0.082101 0.025900
v -0.018400 -0.083200 0.030000
v -0.018400 -0.082101 0.034100
v -0.018400 -0.079100 0.037101
v -0.018400 -0.075000 0.038200
v -0.018400 -0.070900 0.037101
v -0.018400 -0.067899 0.034100
v -0.019000 -0.069000 0.030000
v -0.019000 -0.069804 0.027000
v -0.019000 -0.072000 0.024804
v -0.019000 -0.075000 0.024000
v -0.019000 -0.078000 0.024804
v -0.019000 -0.080196 0.027000
v -0.019000 -0.081000 0.030000
v -0.019000 -0.080196 0.033000
v -0.019000 -0.078000 0.035196
v -0.019000 -0.075000 0.036000
v -0.019000 -0.072000 0.035196
v -0.019000 -0.069804 0.033000
v -0.018400 -0.069000 0.030000
v -0.018400 -0.069457 0.027704
v -0.018400 -0.070757 0.025757
v -0.018400 -0.072704 0.024457
v -0.018400 -0.075000 0.024000
v -0.018400 -0.077296 0.024457
v -0.018400 -0.079243 0.025757
v -0.018400 -0.080543 0.027704
v -0.018400 -0.081000 0.030000
v -0.018400 -0.080543 0.032296
v -0.018400 -0.079243 0.034243
v -0.018400 -0.077296 0.035543
v -0.018400 -0.075000 0.036000
v -0.018400 -0.072704 0.035543
v -0.018400 -0.070757 0.034243
v -0.018400 -0.069457 0.032296
v -0.018400 -0.065200 0.030000
v -0.018400 -0.065946 0.026250
v -0.018400 -0.068070 0.023070
v -0.018400 -0.071250 0.020946
v -0.018400 -0.075000 0.020200
v -0.018400 -0.078750 0.020946
v -0.018400 -0.081930 0.023070
v -0.018400 -0.084054 0.026250
v -0.018400 -0.084800 0.030000
v -0.018400 -0.084054 0.033750
v -0.018400 -0.081930 0.036930
v -0.018400 -0.078750 0.039054
v -0.018400 -0.075000 0.039800
v -0.018400 -0.071250 0.039054
v -0.018400 -0.068070 0.036930
v -0.018400 -0.065946 0.033750
v -0.020400 -0.065200 0.030000
v -0.020400 -0.065946 0.026250
v -0.020400 -0.068070 0.023070
v -0.020400 -0.071250 0.020946
v -0.020400 -0.075000 0.020200
v -0.020400 -0.078750 0.020946
v -0.020400 -0.081930 0.023070
v -0.020400 -0.084054 0.026250
v -0.020400 -0.084800 0.030000
v -0.020400 -0.084054 0.033750
v -0.020400 -0.081930 0.036930
v -0.020400 -0.078750 0.039054
v -0.020400 -0.075000 0.039800
v -0.020400 -0.071250 0.039054
v -0.020400 -0.068070 0.036930
v -0.020400 -0.065946 0.033750
v -0.020400 -0.069000 0.030000
v -0.020400 -0.069457 0.027704
v -0.020400 -0.070757 0.025757
v -0.020400 -0.072704 0.024457
v -0.020400 -0.075000 0.024000
v -0.020400 -0.077296 0.024457
v -0.020400 -0.079243 0.025757
v -0.020400 -0.080543 0.027704
v -0.020400 -0.081000 0.030000
v -0.020400 -0.080543 0.032296
v -0.020400 -0.079243 0.034243
v -0.020400 -0.077296 0.035543
v -0.020400 -0.075000 0.036000
v -0.020400 -0.072704 0.035543
v -0.020400 -0.070757 0.034243
v -0.020400 -0.069457 0.032296
v -0.020400 -0.067500 0.030000
v -0.020400 -0.068071 0.027130
v -0.020400 -0.069697 0.024697
v -0.020400 -0.072130 0.023071
v -0.020400 -0.075000 0.022500
v -0.020400 -0.077870 0.023071
v -0.020400 -0.080303 0.024697
v -0.020400 -0.081929 0.027130
v -0.020400 -0.082500 0.030000
v -0.020400 -0.081929 0.032870
v -0.020400 -0.080303 0.035303
v -0.020400 -0.077870 0.036929
v -0.020400 -0.075000 0.037500
v -0.020400 -0.072130 0.036929
v -0.020400 -0.069697 0.035303
v -0.020400 -0.068071 0.032870
v -0.020400 -0.065800 0.030000
v -0.020400 -0.066500 0.026479
v -0.020400 -0.068495 0.023495
v -0.020400 -0.071479 0.021500
v -0.020400 -0.075000 0.020800
v -0.020400 -0.078521 0.021500
v -0.020400 -0.081505 0.023495
v -0.020400 -0.083500 0.026479
v -0.020400 -0.084200 0.030000
v -0.020400 -0.083500 0.033521
v -0.020400 -0.081505 0.036505
v -0.020400 -0.078521 0.038500
v -0.020400 -0.075000 0.039200
v -0.020400 -0.071479 0.038500
v -0.020400 -0.068495 0.036505
v -0.020400 -0.066500 0.033521
v -0.023400 -0.065800 0.030000
v -0.023400 -0.066500 0.026479
v -0.023400 -0.068495 0.023495
v -0.023400 -0.071479 0.021500
v -0.023400 -0.075000 0.020800
v -0.023400 -0.078521 0.021500
v -0.023400 -0.081505 0.023495
v -0.023400 -0.083500 0.026479
v -0.023400 -0.084200 0.030000
v -0.023400 -0.083500 0.033521
v -0.023400 -0.081505 0.036505
v -0.023400 -0.078521 0.038500
v -0.023400 -0.075000 0.039200
v -0.023400 -0.071479 0.038500
v -0.023400 -0.068495 0.036505
v -0.023400 -0.066500 0.033521
v -0.024600 -0.067200 0.030000
v -0.024600 -0.067794 0.027015
v -0.024600 -0.069485 0.024485
v -0.024600 -0.072015 0.022794
v -0.024600 -0.075000 0.022200
v -0.024600 -0.077985 0.022794
v -0.024600 -0.080515 0.024485
v -0.024600 -0.082206 0.027015
v -0.024600 -0.082800 0.030000
v -0.024600 -0.082206 0.032985
v -0.024600 -0.080515 0.035515
v -0.024600 -0.077985 0.037206
v -0.024600 -0.075000 0.037800
v -0.024600 -0.072015 0.037206
v -0.024600 -0.069485 0.035515
v -0.024600 -0.067794 0.032985
v -0.025000 -0.075000 0.030000
v -0.024400 -0.079200 0.030000
v -0.024400 -0.078398 0.027531
v -0.024400 -0.076298 0.026006
v -0.024400 -0.073702 0.026006
v -0.024400 -0.071602 0.027531
v -0.024400 -0.070800 0.030000
v -0.024400 -0.070800 0.049000
v -0.024400 -0.071602 0.051469
v -0.024400 -0.073702 0.052994
v -0.024400 -0.076298 0.052994
v -0.024400 -0.078398 0.051469
v -0.024400 -0.079200 0.049000
v -0.021200 -0.079200 0.030000
v -0.021200 -0.078398 0.027531
v -0.021200 -0.076298 0.026006
v -0.021200 -0.073702 0.026006
v -0.021200 -0.071602 0.027531
v -0.021200 -0.070800 0.030000
v -0.021200 -0.070800 0.049000
v -0.021200 -0.071602 0.051469
v -0.021200 -0.073702 0.052994
v -0.021200 -0.076298 0.052994
v -0.021200 -0.078398 0.051469
v -0.021200 -0.079200 0.049000
v -0.024800 -0.080500 0.049000
v -0.024800 -0.079450 0.045767
v -0.024800 -0.076700 0.043769
v -0.024800 -0.073300 0.043769
v -0.024800 -0.070550 0.045767
v -0.024800 -0.069500 0.049000
v -0.024800 -0.069500 0.055000
v -0.024800 -0.070550 0.058233
v -0.024800 -0.073300 0.060231
v -0.024800 -0.076700 0.060231
v -0.024800 -0.079450 0.058233
v -0.024800 -0.080500 0.055000
v -0.020800 -0.080500 0.049000
v -0.020800 -0.079450 0.045767
v -0.020800 -0.076700 0.043769
v -0.020800 -0.073300 0.043769
v -0.020800 -0.070550 0.045767
v -0.020800 -0.069500 0.049000
v -0.020800 -0.069500 0.055000
v -0.020800 -0.070550 0.058233
v -0.020800 -0.073300 0.060231
v -0.020800 -0.076700 0.060231
v -0.020800 -0.079450 0.058233
v -0.020800 -0.080500 0.055000
vn -0.0000 1.0000 -0.0000
vn 0.4705 0.8396 0.2716
vn -0.0000 0.8396 0.5432
vn -0.4705 0.8396 0.2716
vn -0.4705 0.8396 -0.2716
vn -0.0000 0.8396 -0.5432
vn 0.4705 0.8396 -0.2716
vn 0.8660 -0.0000 0.5000
vn -0.0000 -0.0000 1.0000
vn -0.8660 -0.0000 0.5000
vn -0.8660 -0.0000 -0.5000
vn -0.0000 -0.0000 -1.0000
vn 0.8660 -0.0000 -0.5000
vn 0.4705 -0.8396 0.2716
vn -0.0000 -0.8396 0.5432
vn -0.4705 -0.8396 0.2716
vn -0.4705 -0.8396 -0.2716
vn -0.0000 -0.8396 -0.5432
vn 0.4705 -0.8396 -0.2716
vn -0.0000 -1.0000 -0.0000
vn -0.6557 0.6532 -0.3786
vn -0.7572 0.6532 -0.0000
vn -0.3786 0.6532 -0.6557
vn -0.0000 0.6532 -0.7572
vn 0.3786 0.6532 -0.6557
vn 0.6557 0.6532 -0.3786
vn 0.7572 0.6532 -0.0000
vn 0.6557 0.6532 0.3786
vn 0.3786 0.6532 0.6557
vn -0.0000 0.6532 0.7572
vn -0.3786 0.6532 0.6557
vn -0.6557 0.6532 0.3786
vn -1.0000 -0.0000 -0.0000
vn -0.5000 -0.0000 -0.8660
vn 0.5000 -0.0000 -0.8660
vn 1.0000 -0.0000 -0.0000
vn 0.5000 -0.0000 0.8660
vn -0.5000 -0.0000 0.8660
vn 0.9010 -0.0000 0.4339
vn 0.6235 -0.0000 0.7818
vn 0.2225 -0.0000 0.9749
vn -0.2225 -0.0000 0.9749
vn -0.6235 -0.0000 0.7818
vn -0.9010 -0.0000 0.4339
vn -0.9010 -0.0000 -0.4339
vn -0.6235 -0.0000 -0.7818
vn -0.2225 -0.0000 -0.9749
vn 0.2225 -0.0000 -0.9749
vn 0.6235 -0.0000 -0.7818
vn 0.9010 -0.0000 -0.4339
vn 0.5681 0.7761 0.2736
vn 0.6306 0.7761 -0.0000
vn 0.3932 0.7761 0.4930
vn 0.1403 0.7761 0.6148
vn -0.1403 0.7761 0.6148
vn -0.3932 0.7761 0.4930
vn -0.5681 0.7761 0.2736
vn -0.6306 0.7761 -0.0000
vn -0.5681 0.7761 -0.2736
vn -0.3932 0.7761 -0.4930
vn -0.1403 0.7761 -0.6148
vn 0.1403 0.7761 -0.6148
vn 0.3932 0.7761 -0.4930
vn 0.5681 0.7761 -0.2736
vn 0.5681 -0.7761 0.2736
vn 0.6306 -0.7761 -0.0000
vn 0.3932 -0.7761 0.4930
vn 0.1403 -0.7761 0.6148
vn -0.1403 -0.7761 0.6148
vn -0.3932 -0.7761 0.4930
vn -0.5681 -0.7761 0.2736
vn -0.6306 -0.7761 -0.0000
vn -0.5681 -0.7761 -0.2736
vn -0.3932 -0.7761 -0.4930
vn -0.1403 -0.7761 -0.6148
vn 0.1403 -0.7761 -0.6148
vn 0.3932 -0.7761 -0.4930
vn 0.5681 -0.7761 -0.2736
vn 0.8489 0.3350 0.4088
vn 0.9490 0.3153 -0.0000
vn 0.9422 0.3350 -0.0000
vn 0.5875 0.3350 0.7366
vn 0.8550 0.3153 0.4118
vn 0.2097 0.3350 0.9186
vn 0.5917 0.3153 0.7420
vn -0.2097 0.3350 0.9186
vn 0.2112 0.3153 0.9252
vn -0.5875 0.3350 0.7367
vn -0.2112 0.3153 0.9252
vn -0.8489 0.3350 0.4088
vn -0.5917 0.3153 0.7420
vn -0.9422 0.3350 -0.0000
vn -0.8550 0.3153 0.4118
vn -0.8489 0.3350 -0.4088
vn -0.9490 0.3153 -0.0000
vn -0.5875 0.3350 -0.7366
vn -0.8550 0.3153 -0.4118
vn -0.2097 0.3350 -0.9186
vn -0.5917 0.3153 -0.7420
vn 0.2097 0.3350 -0.9186
vn -0.2112 0.3153 -0.9252
vn 0.5875 0.3350 -0.7367
vn 0.2112 0.3153 -0.9252
vn 0.8489 0.3350 -0.4088
vn 0.5917 0.3153 -0.7420
vn 0.8550 0.3153 -0.4118
vn 0.8899 0.1562 0.4286
vn 0.9877 0.1562 -0.0000
vn 0.2198 0.1562 0.9630
vn 0.6158 0.1562 0.7722
vn -0.2198 0.1562 0.9630
vn -0.6158 0.1562 0.7722
vn -0.8899 0.1562 0.4286
vn -0.8899 0.1562 -0.4286
vn -0.9877 0.1562 -0.0000
vn -0.2198 0.1562 -0.9630
vn -0.6158 0.1562 -0.7722
vn 0.2198 0.1562 -0.9630
vn 0.6158 0.1562 -0.7722
vn 0.8899 0.1562 -0.4286
vn 0.9998 0.0182 -0.0000
vn 0.6234 0.0182 0.7817
vn 0.9008 0.0182 0.4338
vn 0.2225 0.0182 0.9748
vn -0.2225 0.0182 0.9748
vn -0.6234 0.0182 0.7817
vn -0.9008 0.0182 0.4338
vn -0.9998 0.0182 -0.0000
vn -0.6234 0.0182 -0.7817
vn -0.9008 0.0182 -0.4338
vn -0.2225 0.0182 -0.9748
vn 0.2225 0.0182 -0.9748
vn 0.6234 0.0182 -0.7817
vn 0.9008 0.0182 -0.4338
vn -0.1773 0.4870 -0.8552
vn -0.0000 0.5183 -0.8552
vn -0.3332 0.3970 -0.8552
vn -0.4489 0.2592 -0.8552
vn -0.5104 0.0900 -0.8552
vn -0.5104 -0.0900 -0.8552
vn -0.4489 -0.2592 -0.8552
vn -0.3332 -0.3970 -0.8552
vn -0.1773 -0.4870 -0.8552
vn -0.0000 -0.5183 -0.8552
vn 0.1773 -0.4870 -0.8552
vn 0.3332 -0.3970 -0.8552
vn 0.4489 -0.2592 -0.8552
vn 0.5104 -0.0900 -0.8552
vn 0.4489 -0.2591 -0.8552
vn 0.5104 0.0900 -0.8552
vn 0.4489 0.2592 -0.8552
vn 0.3332 0.3970 -0.8552
vn 0.1773 0.4870 -0.8552
vn -0.3294 0.9049 -0.2696
vn -0.0000 0.9630 -0.2696
vn -0.6190 0.7377 -0.2696
vn -0.8340 0.4815 -0.2696
vn -0.9483 0.1672 -0.2696
vn -0.9483 -0.1672 -0.2696
vn -0.8340 -0.4815 -0.2696
vn -0.6190 -0.7377 -0.2696
vn -0.3294 -0.9049 -0.2696
vn -0.0000 -0.9630 -0.2696
vn 0.3294 -0.9049 -0.2696
vn 0.6190 -0.7377 -0.2696
vn 0.8340 -0.4815 -0.2696
vn 0.9483 -0.1672 -0.2696
vn 0.9483 0.1672 -0.2696
vn 0.8340 0.4815 -0.2696
vn 0.6190 0.7377 -0.2696
vn 0.3294 0.9049 -0.2696
vn -0.3420 0.9397 -0.0000
vn -0.6428 0.7660 -0.0000
vn -0.8660 0.5000 -0.0000
vn -0.9848 0.1736 -0.0000
vn -0.9848 -0.1736 -0.0000
vn -0.8660 -0.5000 -0.0000
vn -0.6428 -0.7660 -0.0000
vn -0.3420 -0.9397 -0.0000
vn 0.3420 -0.9397 -0.0000
vn 0.6428 -0.7660 -0.0000
vn 0.8660 -0.5000 -0.0000
vn 0.9848 -0.1736 -0.0000
vn 0.9848 0.1736 -0.0000
vn 0.8660 0.5000 -0.0000
vn 0.6428 0.7660 -0.0000
vn 0.3420 0.9397 -0.0000
vn -0.0000 0.9062 0.4229
vn -0.3099 0.8515 0.4229
vn -0.5825 0.6942 0.4229
vn -0.7848 0.4531 0.4229
vn -0.8924 0.1574 0.4229
vn -0.8924 -0.1574 0.4229
vn -0.7848 -0.4531 0.4229
vn -0.5825 -0.6942 0.4229
vn -0.3099 -0.8515 0.4229
vn -0.0000 -0.9062 0.4229
vn 0.3099 -0.8515 0.4229
vn 0.5825 -0.6942 0.4229
vn 0.7848 -0.4531 0.4229
vn 0.8924 -0.1574 0.4229
vn 0.8924 0.1574 0.4229
vn 0.7848 0.4531 0.4229
vn 0.5825 0.6942 0.4229
vn 0.3099 0.8515 0.4229
vn -0.9848 -0.1737 -0.0000
vn -0.9848 0.1737 -0.0000
vn 0.9848 0.1737 -0.0000
vn 0.9848 -0.1737 -0.0000
vn -0.0000 0.9062 -0.4229
vn -0.3099 0.8515 -0.4229
vn -0.5825 0.6942 -0.4229
vn -0.7848 0.4531 -0.4229
vn -0.8924 0.1574 -0.4229
vn -0.8924 -0.1574 -0.4229
vn -0.7848 -0.4531 -0.4229
vn -0.5825 -0.6942 -0.4229
vn -0.3099 -0.8515 -0.4229
vn -0.0000 -0.9062 -0.4229
vn 0.3099 -0.8515 -0.4229
vn 0.5825 -0.6942 -0.4229
vn 0.7848 -0.4531 -0.4229
vn 0.8924 -0.1574 -0.4229
vn 0.8924 0.1574 -0.4229
vn 0.7848 0.4531 -0.4229
vn 0.5825 0.6942 -0.4229
vn 0.3099 0.8515 -0.4229
vn -0.3276 0.9001 0.2873
vn -0.0000 0.9578 0.2873
vn -0.6157 0.7337 0.2873
vn -0.8295 0.4789 0.2873
vn -0.9433 0.1663 0.2873
vn -0.9433 -0.1663 0.2873
vn -0.8295 -0.4789 0.2873
vn -0.6157 -0.7337 0.2873
vn -0.3276 -0.9001 0.2873
vn -0.0000 -0.9578 0.2873
vn 0.3276 -0.9001 0.2873
vn 0.6157 -0.7337 0.2873
vn 0.8295 -0.4789 0.2873
vn 0.9433 -0.1663 0.2873
vn 0.9433 0.1663 0.2873
vn 0.8295 0.4789 0.2873
vn 0.6157 0.7337 0.2873
vn 0.3276 0.9001 0.2873
vn -0.3730 0.9278 -0.0000
vn -0.2436 0.9699 -0.0000
vn -0.8471 0.5314 -0.0000
vn -0.7672 0.6414 -0.0000
vn -0.9977 -0.0680 -0.0000
vn -0.9977 0.0680 -0.0000
vn -0.7672 -0.6414 -0.0000
vn -0.8471 -0.5314 -0.0000
vn -0.2436 -0.9699 -0.0000
vn -0.3730 -0.9278 -0.0000
vn 0.3730 -0.9278 -0.0000
vn 0.2436 -0.9699 -0.0000
vn 0.8471 -0.5314 -0.0000
vn 0.7672 -0.6414 -0.0000
vn 0.9977 0.0680 -0.0000
vn 0.9977 -0.0680 -0.0000
vn 0.7672 0.6414 -0.0000
vn 0.8471 0.5314 -0.0000
vn 0.2436 0.9699 -0.0000
vn 0.3730 0.9278 -0.0000
vn -0.0453 0.1128 0.9926
vn -0.0629 0.1235 0.9903
vn -0.1030 0.0646 0.9926
vn -0.1235 0.0629 0.9903
vn -0.1213 -0.0083 0.9926
vn -0.1369 -0.0217 0.9903
vn -0.0933 -0.0780 0.9926
vn -0.0980 -0.0980 0.9903
vn -0.0296 -0.1179 0.9926
vn -0.0217 -0.1369 0.9903
vn 0.0453 -0.1128 0.9926
vn 0.0629 -0.1235 0.9903
vn 0.1030 -0.0646 0.9926
vn 0.1235 -0.0629 0.9903
vn 0.1213 0.0083 0.9926
vn 0.1369 0.0217 0.9903
vn 0.0933 0.0780 0.9926
vn 0.0980 0.0980 0.9903
vn 0.0296 0.1179 0.9926
vn 0.0217 0.1369 0.9903
vn -0.5000 0.8660 -0.0000
vn -0.5000 -0.8660 -0.0000
vn 0.5000 -0.8660 -0.0000
vn 0.5000 0.8660 -0.0000
vn -0.4743 0.8216 -0.3162
vn -0.0000 0.9487 -0.3162
vn -0.8216 0.4743 -0.3162
vn -0.9487 -0.0000 -0.3162
vn -0.8216 -0.4743 -0.3162
vn -0.4743 -0.8216 -0.3162
vn -0.0000 -0.9487 -0.3162
vn 0.4743 -0.8216 -0.3162
vn 0.8216 -0.4743 -0.3162
vn 0.9487 -0.0000 -0.3162
vn 0.8216 0.4743 -0.3162
vn 0.4743 0.8216 -0.3162
vn -0.0000 0.1483 0.9889
vn -0.0742 0.1285 0.9889
vn -0.1285 0.0742 0.9889
vn -0.1483 -0.0000 0.9889
vn -0.1285 -0.0742 0.9889
vn -0.0742 -0.1285 0.9889
vn -0.0000 -0.1483 0.9889
vn 0.0742 -0.1285 0.9889
vn 0.1285 -0.0742 0.9889
vn 0.1483 -0.0000 0.9889
vn 0.1285 0.0742 0.9889
vn 0.0742 0.1285 0.9889
vn -0.4766 0.8254 -0.3026
vn -0.0000 0.9531 -0.3026
vn -0.8254 0.4766 -0.3026
vn -0.9531 -0.0000 -0.3026
vn -0.8254 -0.4766 -0.3026
vn -0.4766 -0.8254 -0.3026
vn -0.0000 -0.9531 -0.3026
vn 0.4766 -0.8254 -0.3026
vn 0.8254 -0.4766 -0.3026
vn 0.9531 -0.0000 -0.3026
vn 0.8254 0.4766 -0.3026
vn 0.4766 0.8254 -0.3026
vn -0.4494 0.7784 -0.4384
vn -0.0000 0.8988 -0.4384
vn -0.7784 0.4494 -0.4384
vn -0.8988 -0.0000 -0.4384
vn -0.7784 -0.4494 -0.4384
vn -0.4494 -0.7784 -0.4384
vn -0.0000 -0.8988 -0.4384
vn 0.4494 -0.7784 -0.4384
vn 0.7784 -0.4494 -0.4384
vn 0.8988 -0.0000 -0.4384
vn 0.7784 0.4494 -0.4384
vn 0.4494 0.7784 -0.4384
vn -0.4412 0.7641 0.4706
vn -0.0000 0.8824 0.4706
vn -0.7641 0.4412 0.4706
vn -0.8824 -0.0000 0.4706
vn -0.7641 -0.4412 0.4706
vn -0.4412 -0.7641 0.4706
vn -0.0000 -0.8824 0.4706
vn 0.4412 -0.7641 0.4706
vn 0.7641 -0.4412 0.4706
vn 0.8824 -0.0000 0.4706
vn 0.7641 0.4412 0.4706
vn 0.4412 0.7641 0.4706
vn -0.1923 0.3331 0.9231
vn -0.0000 0.3846 0.9231
vn -0.3331 0.1923 0.9231
vn -0.3846 -0.0000 0.9231
vn -0.3331 -0.1923 0.9231
vn -0.1923 -0.3331 0.9231
vn -0.0000 -0.3846 0.9231
vn 0.1923 -0.3331 0.9231
vn 0.3331 -0.1923 0.9231
vn 0.3846 -0.0000 0.9231
vn 0.3331 0.1923 0.9231
vn 0.1923 0.3331 0.9231
vn -0.0000 -0.7572 0.6532
vn 0.3786 -0.6557 0.6532
vn 0.6557 -0.3786 0.6532
vn 0.7572 -0.0000 0.6532
vn 0.6557 0.3786 0.6532
vn 0.3786 0.6557 0.6532
vn -0.0000 0.7572 0.6532
vn -0.3786 0.6557 0.6532
vn -0.6557 0.3786 0.6532
vn -0.7572 -0.0000 0.6532
vn -0.6557 -0.3786 0.6532
vn -0.3786 -0.6557 0.6532
vn 0.9182 -0.3961 -0.0000
vn 0.8732 -0.4874 -0.0000
vn 0.9793 -0.2022 -0.0000
vn 0.9793 0.2022 -0.0000
vn 0.9182 0.3961 -0.0000
vn 0.8732 0.4874 -0.0000
vn -0.0000 0.8660 -0.5000
vn -0.0000 0.5000 -0.8660
vn -0.0000 -0.5000 -0.8660
vn -0.0000 -0.8660 -0.5000
vn -0.0000 -0.8660 0.5000
vn -0.0000 -0.5000 0.8660
vn -0.0000 0.5000 0.8660
vn -0.0000 0.8660 0.5000
vn -0.9648 0.2279 -0.1316
vn -0.9648 0.2631 -0.0000
vn -0.9648 0.1316 -0.2279
vn -0.9648 -0.0000 -0.2631
vn -0.9648 -0.1316 -0.2279
vn -0.9648 -0.2279 -0.1316
vn -0.9648 -0.2631 -0.0000
vn -0.9648 -0.2279 0.1316
vn -0.9648 -0.1316 0.2279
vn -0.9648 -0.0000 0.2631
vn -0.9648 0.1316 0.2279
vn -0.9648 0.2279 0.1316
vn -0.0000 0.9239 -0.3827
vn -0.0000 0.7071 -0.7071
vn -0.0000 0.3827 -0.9239
vn -0.0000 -0.3827 -0.9239
vn -0.0000 -0.7071 -0.7071
vn -0.0000 -0.9239 -0.3827
vn -0.0000 -0.9239 0.3827
vn -0.0000 -0.7071 0.7071
vn -0.0000 -0.3827 0.9239
vn -0.0000 0.3827 0.9239
vn -0.0000 0.7071 0.7071
vn -0.0000 0.9239 0.3827
vn -0.7593 0.6508 -0.0000
vn -0.7593 0.6013 -0.2490
vn -0.7593 0.4602 -0.4602
vn -0.7593 0.2490 -0.6013
vn -0.7593 -0.0000 -0.6508
vn -0.7593 -0.2490 -0.6013
vn -0.7593 -0.4602 -0.4602
vn -0.7593 -0.6013 -0.2490
vn -0.7593 -0.6508 -0.0000
vn -0.7593 -0.6013 0.2490
vn -0.7593 -0.4602 0.4602
vn -0.7593 -0.2490 0.6013
vn -0.7593 -0.0000 0.6508
vn -0.7593 0.2490 0.6013
vn -0.7593 0.4602 0.4602
vn -0.7593 0.6013 0.2490
vn -0.9987 0.0512 -0.0000
vn -0.9987 0.0473 -0.0196
vn -0.9987 0.0362 -0.0362
vn -0.9987 0.0196 -0.0473
vn -0.9987 -0.0000 -0.0512
vn -0.9987 -0.0196 -0.0473
vn -0.9987 -0.0362 -0.0362
vn -0.9987 -0.0473 -0.0196
vn -0.9987 -0.0512 -0.0000
vn -0.9987 -0.0473 0.0196
vn -0.9987 -0.0362 0.0362
vn -0.9987 -0.0196 0.0473
vn -0.9987 -0.0000 0.0512
vn -0.9987 0.0196 0.0473
vn -0.9987 0.0362 0.0362
vn -0.9987 0.0473 0.0196
vn -0.0000 -0.8090 -0.5878
vn -0.0000 -0.9877 -0.1564
vn -0.0000 -0.3090 -0.9511
vn -0.0000 0.3090 -0.9511
vn -0.0000 0.8090 -0.5878
vn -0.0000 0.9877 -0.1564
vn -0.0000 0.9877 0.1564
vn -0.0000 0.8090 0.5878
vn -0.0000 0.3090 0.9511
vn -0.0000 -0.3090 0.9511
vn -0.0000 -0.8090 0.5878
vn -0.0000 -0.9877 0.1564
vn -0.0217 0.1369 0.9903
vn -0.0296 0.1179 0.9926
vn -0.0980 0.0980 0.9903
vn -0.0933 0.0780 0.9926
vn -0.1369 0.0217 0.9903
vn -0.1213 0.0083 0.9926
vn -0.1235 -0.0629 0.9903
vn -0.1030 -0.0646 0.9926
vn -0.0629 -0.1235 0.9903
vn -0.0453 -0.1128 0.9926
vn 0.0217 -0.1369 0.9903
vn 0.0296 -0.1179 0.9926
vn 0.0980 -0.0980 0.9903
vn 0.0933 -0.0780 0.9926
vn 0.1369 -0.0217 0.9903
vn 0.1213 -0.0083 0.9926
vn 0.1235 0.0629 0.9903
vn 0.1030 0.0646 0.9926
vn 0.0629 0.1235 0.9903
vn 0.0453 0.1128 0.9926
vt 0.000000 0.000000
vt 1.000000 0.166667
vt 1.000000 0.000000
vt 1.000000 0.333333
vt 0.000000 0.166667
vt 1.000000 0.500000
vt 0.000000 0.333333
vt 1.000000 0.666667
vt 0.000000 0.500000
vt 1.000000 0.833333
vt 0.000000 0.666667
vt 1.000000 1.000000
vt 0.000000 0.833333
vt 0.000000 1.000000
s 0
usemtl m0
f 1/1/1 14/1/1 13/1/1
f 3/1/1 14/1/1 2/1/1
f 3/1/1 16/1/1 15/1/1
f 5/1/1 16/1/1 4/1/1
f 5/1/1 18/1/1 17/1/1
f 7/1/1 18/1/1 6/1/1
f 7/1/1 20/1/1 19/1/1
f 9/1/1 20/1/1 8/1/1
f 9/1/1 22/1/1 21/1/1
f 11/1/1 22/1/1 10/1/1
f 11/1/1 24/1/1 23/1/1
f 1/1/1 24/1/1 12/1/1
f 13/1/2 26/1/2 25/1/2
f 15/1/2 26/1/2 14/1/2
f 15/1/3 28/1/3 27/1/3
f 17/1/3 28/1/3 16/1/3
f 17/1/4 30/1/4 29/1/4
f 19/1/4 30/1/4 18/1/4
f 19/1/5 32/1/5 31/1/5
f 21/1/5 32/1/5 20/1/5
f 21/1/6 34/1/6 33/1/6
f 23/1/6 34/1/6 22/1/6
f 23/1/7 36/1/7 35/1/7
f 13/1/7 36/1/7 24/1/7
f 26/1/8 37/1/8 25/1/8
f 27/1/8 38/1/8 26/1/8
f 28/1/9 39/1/9 27/1/9
f 29/1/9 40/1/9 28/1/9
f 30/1/10 41/1/10 29/1/10
f 31/1/10 42/1/10 30/1/10
f 32/1/11 43/1/11 31/1/11
f 33/1/11 44/1/11 32/1/11
f 34/1/12 45/1/12 33/1/12
f 35/1/12 46/1/12 34/1/12
f 36/1/13 47/1/13 35/1/13
f 25/1/13 48/1/13 36/1/13
f 38/1/14 49/1/14 37/1/14
f 38/1/14 51/1/14 50/1/14
f 40/1/15 51/1/15 39/1/15
f 40/1/15 53/1/15 52/1/15
f 42/1/16 53/1/16 41/1/16
f 42/1/16 55/1/16 54/1/16
f 44/1/17 55/1/17 43/1/17
f 44/1/17 57/1/17 56/1/17
f 46/1/18 57/1/18 45/1/18
f 46/1/18 59/1/18 58/1/18
f 48/1/19 59/1/19 47/1/19
f 48/1/19 49/1/19 60/1/19
f 49/1/20 62/1/20 61/1/20
f 50/1/1 63/1/1 62/1/1
f 51/1/20 64/1/20 63/1/20
f 52/1/1 65/1/1 64/1/1
f 53/1/20 66/1/20 65/1/20
f 54/1/1 67/1/1 66/1/1
f 55/1/20 68/1/20 67/1/20
f 56/1/1 69/1/1 68/1/1
f 57/1/20 70/1/20 69/1/20
f 58/1/1 71/1/1 70/1/1
f 59/1/20 72/1/20 71/1/20
f 60/1/1 61/1/1 72/1/1
s 1
f 99/1/39 112/1/36 98/1/36
f 100/1/40 113/1/39 99/1/39
f 101/1/41 114/1/40 100/1/40
f 102/1/42 115/1/41 101/1/41
f 103/1/43 116/1/42 102/1/42
f 104/1/44 117/1/43 103/1/43
f 105/1/33 118/1/44 104/1/44
f 106/1/45 119/1/33 105/1/33
f 107/1/46 120/1/45 106/1/45
f 108/1/47 121/1/46 107/1/46
f 109/1/48 122/1/47 108/1/47
f 110/1/49 123/1/48 109/1/48
f 111/1/50 124/1/49 110/1/49
f 98/1/36 125/1/50 111/1/50
f 112/1/1 127/1/1 126/1/1
f 113/1/1 128/1/1 127/1/1
f 114/1/1 129/1/1 128/1/1
f 115/1/1 130/1/1 129/1/1
f 116/1/1 131/1/1 130/1/1
f 117/1/1 132/1/1 131/1/1
f 118/1/1 133/1/1 132/1/1
f 119/1/1 134/1/1 133/1/1
f 120/1/1 135/1/1 134/1/1
f 121/1/1 136/1/1 135/1/1
f 122/1/1 137/1/1 136/1/1
f 123/1/1 138/1/1 137/1/1
f 124/1/1 139/1/1 138/1/1
f 125/1/1 126/1/1 139/1/1
f 127/1/51 140/1/52 126/1/52
f 128/1/53 141/1/51 127/1/51
f 129/1/54 142/1/53 128/1/53
f 130/1/55 143/1/54 129/1/54
f 131/1/56 144/1/55 130/1/55
f 131/1/56 146/1/57 145/1/56
f 132/1/57 147/1/58 146/1/57
f 134/1/59 147/1/58 133/1/58
f 135/1/60 148/1/59 134/1/59
f 136/1/61 149/1/60 135/1/60
f 137/1/62 150/1/61 136/1/61
f 138/1/63 151/1/62 137/1/62
f 138/1/63 153/1/64 152/1/63
f 139/1/64 140/1/52 153/1/64
f 141/1/39 154/1/36 140/1/36
f 142/1/40 155/1/39 141/1/39
f 143/1/41 156/1/40 142/1/40
f 144/1/42 157/1/41 143/1/41
f 145/1/43 158/1/42 144/1/42
f 146/1/44 159/1/43 145/1/43
f 147/1/33 160/1/44 146/1/44
f 148/1/45 161/1/33 147/1/33
f 149/1/46 162/1/45 148/1/45
f 150/1/47 163/1/46 149/1/46
f 151/1/48 164/1/47 150/1/47
f 152/1/49 165/1/48 151/1/48
f 153/1/50 166/1/49 152/1/49
f 140/1/36 167/1/50 153/1/50
f 155/1/65 168/1/66 154/1/66
f 156/1/67 169/1/65 155/1/65
f 157/1/68 170/1/67 156/1/67
f 158/1/69 171/1/68 157/1/68
f 159/1/70 172/1/69 158/1/69
f 160/1/71 173/1/70 159/1/70
f 161/1/72 174/1/71 160/1/71
f 162/1/73 175/1/72 161/1/72
f 163/1/74 176/1/73 162/1/73
f 164/1/75 177/1/74 163/1/74
f 165/1/76 178/1/75 164/1/75
f 166/1/77 179/1/76 165/1/76
f 167/1/78 180/1/77 166/1/77
f 154/1/66 181/1/78 167/1/78
f 169/1/39 182/1/36 168/1/36
f 170/1/40 183/1/39 169/1/39
f 171/1/41 184/1/40 170/1/40
f 172/1/42 185/1/41 171/1/41
f 173/1/43 186/1/42 172/1/42
f 174/1/44 187/1/43 173/1/43
f 175/1/33 188/1/44 174/1/44
f 176/1/45 189/1/33 175/1/33
f 177/1/46 190/1/45 176/1/45
f 178/1/47 191/1/46 177/1/46
f 179/1/48 192/1/47 178/1/47
f 180/1/49 193/1/48 179/1/48
f 181/1/50 194/1/49 180/1/49
f 168/1/36 195/1/50 181/1/50
f 183/1/51 196/1/52 182/1/52
f 184/1/53 197/1/51 183/1/51
f 185/1/54 198/1/53 184/1/53
f 186/1/55 199/1/54 185/1/54
f 187/1/56 200/1/55 186/1/55
f 188/1/57 201/1/56 187/1/56
f 189/1/58 202/1/57 188/1/57
f 190/1/59 203/1/58 189/1/58
f 191/1/60 204/1/59 190/1/59
f 192/1/61 205/1/60 191/1/60
f 193/1/62 206/1/61 192/1/61
f 194/1/63 207/1/62 193/1/62
f 195/1/64 208/1/63 194/1/63
f 182/1/52 209/1/64 195/1/64
f 197/1/39 210/1/36 196/1/36
f 198/1/40 211/1/39 197/1/39
f 199/1/41 212/1/40 198/1/40
f 200/1/42 213/1/41 199/1/41
f 201/1/43 214/1/42 200/1/42
f 202/1/44 215/1/43 201/1/43
f 203/1/33 216/1/44 202/1/44
f 204/1/45 217/1/33 203/1/33
f 205/1/46 218/1/45 204/1/45
f 206/1/47 219/1/46 205/1/46
f 207/1/48 220/1/47 206/1/47
f 208/1/49 221/1/48 207/1/48
f 209/1/50 222/1/49 208/1/49
f 196/1/36 223/1/50 209/1/50
f 211/1/65 224/1/66 210/1/66
f 212/1/67 225/1/65 211/1/65
f 213/1/68 226/1/67 212/1/67
f 214/1/69 227/1/68 213/1/68
f 215/1/70 228/1/69 214/1/69
f 216/1/71 229/1/70 215/1/70
f 217/1/72 230/1/71 216/1/71
f 218/1/73 231/1/72 217/1/72
f 219/1/74 232/1/73 218/1/73
f 220/1/75 233/1/74 219/1/74
f 221/1/76 234/1/75 220/1/75
f 222/1/77 235/1/76 221/1/76
f 223/1/78 236/1/77 222/1/77
f 210/1/66 237/1/78 223/1/78
f 225/1/39 238/1/36 224/1/36
f 226/1/40 239/1/39 225/1/39
f 227/1/41 240/1/40 226/1/40
f 228/1/42 241/1/41 227/1/41
f 229/1/43 242/1/42 228/1/42
f 230/1/44 243/1/43 229/1/43
f 231/1/33 244/1/44 230/1/44
f 232/1/45 245/1/33 231/1/33
f 233/1/46 246/1/45 232/1/45
f 234/1/47 247/1/46 233/1/46
f 235/1/48 248/1/47 234/1/47
f 236/1/49 249/1/48 235/1/48
f 237/1/50 250/1/49 236/1/49
f 224/1/36 251/1/50 237/1/50
f 239/1/1 252/1/1 238/1/1
f 240/1/1 253/1/1 239/1/1
f 241/1/1 254/1/1 240/1/1
f 241/1/1 256/1/1 255/1/1
f 243/1/1 256/1/1 242/1/1
f 244/1/1 257/1/1 243/1/1
f 245/1/1 258/1/1 244/1/1
f 246/1/1 259/1/1 245/1/1
f 247/1/1 260/1/1 246/1/1
f 248/1/1 261/1/1 247/1/1
f 248/1/1 263/1/1 262/1/1
f 250/1/1 263/1/1 249/1/1
f 251/1/1 264/1/1 250/1/1
f 238/1/1 265/1/1 251/1/1
f 253/1/39 266/1/36 252/1/36
f 254/1/40 267/1/39 253/1/39
f 255/1/41 268/1/40 254/1/40
f 256/1/42 269/1/41 255/1/41
f 257/1/43 270/1/42 256/1/42
f 258/1/44 271/1/43 257/1/43
f 259/1/33 272/1/44 258/1/44
f 260/1/45 273/1/33 259/1/33
f 261/1/46 274/1/45 260/1/45
f 262/1/47 275/1/46 261/1/46
f 263/1/48 276/1/47 262/1/47
f 264/1/49 277/1/48 263/1/48
f 265/1/50 278/1/49 264/1/49
f 252/1/36 279/1/50 265/1/50
f 267/1/20 280/1/20 266/1/20
f 268/1/20 281/1/20 267/1/20
f 269/1/20 282/1/20 268/1/20
f 270/1/20 283/1/20 269/1/20
f 271/1/20 284/1/20 270/1/20
f 272/1/20 285/1/20 271/1/20
f 273/1/20 286/1/20 272/1/20
f 274/1/20 287/1/20 273/1/20
f 275/1/20 288/1/20 274/1/20
f 276/1/20 289/1/20 275/1/20
f 277/1/20 290/1/20 276/1/20
f 278/1/20 291/1/20 277/1/20
f 279/1/20 292/1/20 278/1/20
f 266/1/20 293/1/20 279/1/20
f 281/1/39 294/1/36 280/1/36
f 282/1/40 295/1/39 281/1/39
f 283/1/41 296/1/40 282/1/40
f 284/1/42 297/1/41 283/1/41
f 285/1/43 298/1/42 284/1/42
f 286/1/44 299/1/43 285/1/43
f 287/1/33 300/1/44 286/1/44
f 288/1/45 301/1/33 287/1/33
f 289/1/46 302/1/45 288/1/45
f 290/1/47 303/1/46 289/1/46
f 291/1/48 304/1/47 290/1/47
f 292/1/49 305/1/48 291/1/48
f 293/1/50 306/1/49 292/1/49
f 280/1/36 307/1/50 293/1/50
f 295/1/79 308/1/80 294/1/81
f 296/1/82 309/1/83 295/1/79
f 297/1/84 310/1/85 296/1/82
f 298/1/86 311/1/87 297/1/84
f 299/1/88 312/1/89 298/1/86
f 300/1/90 313/1/91 299/1/88
f 301/1/92 314/1/93 300/1/90
f 302/1/94 315/1/95 301/1/92
f 303/1/96 316/1/97 302/1/94
f 304/1/98 317/1/99 303/1/96
f 305/1/100 318/1/101 304/1/98
f 306/1/102 319/1/103 305/1/100
f 307/1/104 320/1/105 306/1/102
f 294/1/81 321/1/106 307/1/104
f 308/1/80 323/1/107 322/1/108
f 310/1/85 323/1/107 309/1/83
f 310/1/85 325/1/109 324/1/110
f 312/1/89 325/1/109 311/1/87
f 313/1/91 326/1/111 312/1/89
f 314/1/93 327/1/112 313/1/91
f 315/1/95 328/1/113 314/1/93
f 315/1/95 330/1/114 329/1/115
f 317/1/99 330/1/114 316/1/97
f 317/1/99 332/1/116 331/1/117
f 319/1/103 332/1/116 318/1/101
f 320/1/105 333/1/118 319/1/103
f 321/1/106 334/1/119 320/1/105
f 308/1/80 335/1/120 321/1/106
f 323/1/107 336/1/121 322/1/108
f 323/1/107 338/1/122 337/1/123
f 324/1/110 339/1/124 338/1/122
f 326/1/111 339/1/124 325/1/109
f 327/1/112 340/1/125 326/1/111
f 328/1/113 341/1/126 327/1/112
f 329/1/115 342/1/127 328/1/113
f 330/1/114 343/1/128 329/1/115
f 330/1/114 345/1/129 344/1/130
f 331/1/117 346/1/131 345/1/129
f 333/1/118 346/1/131 332/1/116
f 334/1/119 347/1/132 333/1/118
f 335/1/120 348/1/133 334/1/119
f 322/1/108 349/1/134 335/1/120
f 350/1/12 352/1/12 351/1/12
f 350/1/12 353/1/12 352/1/12
f 350/1/12 354/1/12 353/1/12
f 350/1/12 355/1/12 354/1/12
f 350/1/12 356/1/12 355/1/12
f 350/1/12 357/1/12 356/1/12
f 350/1/12 358/1/12 357/1/12
f 350/1/12 359/1/12 358/1/12
f 350/1/12 360/1/12 359/1/12
f 350/1/12 361/1/12 360/1/12
f 350/1/12 362/1/12 361/1/12
f 350/1/12 363/1/12 362/1/12
f 350/1/12 364/1/12 363/1/12
f 350/1/12 365/1/12 364/1/12
f 350/1/12 366/1/12 365/1/12
f 350/1/12 367/1/12 366/1/12
f 350/1/12 368/1/12 367/1/12
f 350/1/12 351/1/12 368/1/12
f 352/1/135 369/1/136 351/1/136
f 352/1/135 371/1/137 370/1/135
f 354/1/138 371/1/137 353/1/137
f 354/1/138 373/1/139 372/1/138
f 356/1/140 373/1/139 355/1/139
f 357/1/141 374/1/140 356/1/140
f 357/1/141 376/1/142 375/1/141
f 359/1/143 376/1/142 358/1/142
f 360/1/144 377/1/143 359/1/143
f 361/1/145 378/1/144 360/1/144
f 361/1/145 380/1/146 379/1/145
f 363/1/147 380/1/146 362/1/146
f 364/1/148 381/1/149 363/1/147
f 365/1/150 382/1/148 364/1/148
f 366/1/151 383/1/150 365/1/150
f 366/1/151 385/1/152 384/1/151
f 368/1/153 385/1/152 367/1/152
f 368/1/153 369/1/136 386/1/153
f 370/1/154 387/1/155 369/1/155
f 370/1/154 389/1/156 388/1/154
f 372/1/157 389/1/156 371/1/156
f 372/1/157 391/1/158 390/1/157
f 374/1/159 391/1/158 373/1/158
f 375/1/160 392/1/159 374/1/159
f 375/1/160 394/1/161 393/1/160
f 376/1/161 395/1/162 394/1/161
f 377/1/162 396/1/163 395/1/162
f 379/1/164 396/1/163 378/1/163
f 380/1/165 397/1/164 379/1/164
f 381/1/166 398/1/165 380/1/165
f 381/1/166 400/1/167 399/1/166
f 383/1/168 400/1/167 382/1/167
f 384/1/169 401/1/168 383/1/168
f 385/1/170 402/1/169 384/1/169
f 386/1/171 403/1/170 385/1/170
f 386/1/171 387/1/155 404/1/171
f 388/1/172 405/1/1 387/1/1
f 389/1/173 406/1/172 388/1/172
f 390/1/174 407/1/173 389/1/173
f 391/1/175 408/1/174 390/1/174
f 392/1/176 409/1/175 391/1/175
f 393/1/177 410/1/176 392/1/176
f 394/1/178 411/1/177 393/1/177
f 395/1/179 412/1/178 394/1/178
f 396/1/20 413/1/179 395/1/179
f 397/1/180 414/1/20 396/1/20
f 398/1/181 415/1/180 397/1/180
f 399/1/182 416/1/181 398/1/181
f 400/1/183 417/1/182 399/1/182
f 401/1/184 418/1/183 400/1/183
f 402/1/185 419/1/184 401/1/184
f 403/1/186 420/1/185 402/1/185
f 404/1/187 421/1/186 403/1/186
f 387/1/1 422/1/187 404/1/187
f 405/1/188 424/1/189 423/1/188
f 407/1/190 424/1/189 406/1/189
f 408/1/191 425/1/190 407/1/190
f 409/1/192 426/1/191 408/1/191
f 409/1/192 428/1/193 427/1/192
f 410/1/193 429/1/194 428/1/193
f 412/1/195 429/1/194 411/1/194
f 412/1/195 431/1/196 430/1/195
f 414/1/197 431/1/196 413/1/196
f 414/1/197 433/1/198 432/1/197
f 416/1/199 433/1/198 415/1/198
f 416/1/199 435/1/200 434/1/199
f 418/1/201 435/1/200 417/1/200
f 418/1/201 437/1/202 436/1/201
f 419/1/202 438/1/203 437/1/202
f 420/1/203 439/1/204 438/1/203
f 421/1/204 440/1/205 439/1/204
f 405/1/188 440/1/205 422/1/205
f 424/1/172 441/1/1 423/1/1
f 425/1/173 442/1/172 424/1/172
f 426/1/174 443/1/173 425/1/173
f 427/1/175 444/1/174 426/1/174
f 428/1/206 445/1/207 427/1/175
f 429/1/177 446/1/176 428/1/206
f 430/1/178 447/1/177 429/1/177
f 431/1/179 448/1/178 430/1/178
f 432/1/20 449/1/179 431/1/179
f 433/1/180 450/1/20 432/1/20
f 434/1/181 451/1/180 433/1/180
f 435/1/182 452/1/181 434/1/181
f 436/1/183 453/1/182 435/1/182
f 437/1/208 454/1/209 436/1/183
f 438/1/185 455/1/184 437/1/208
f 439/1/186 456/1/185 438/1/185
f 440/1/187 457/1/186 439/1/186
f 423/1/1 458/1/187 440/1/187
f 441/1/210 460/1/211 459/1/210
f 443/1/212 460/1/211 442/1/211
f 443/1/212 462/1/213 461/1/212
f 444/1/213 463/1/214 462/1/213
f 446/1/215 463/1/214 445/1/214
f 447/1/216 464/1/215 446/1/215
f 447/1/216 466/1/217 465/1/216
f 448/1/217 467/1/218 466/1/217
f 450/1/219 467/1/218 449/1/218
f 451/1/220 468/1/219 450/1/219
f 452/1/221 469/1/220 451/1/220
f 453/1/222 470/1/221 452/1/221
f 453/1/222 472/1/223 471/1/222
f 455/1/224 472/1/223 454/1/223
f 456/1/225 473/1/224 455/1/224
f 457/1/226 474/1/225 456/1/225
f 458/1/227 475/1/226 457/1/226
f 441/1/210 476/1/227 458/1/227
f 460/1/172 477/1/1 459/1/1
f 461/1/173 478/1/172 460/1/172
f 462/1/174 479/1/173 461/1/173
f 463/1/175 480/1/174 462/1/174
f 464/1/206 481/1/207 463/1/175
f 465/1/177 482/1/176 464/1/206
f 466/1/178 483/1/177 465/1/177
f 467/1/179 484/1/178 466/1/178
f 468/1/20 485/1/179 467/1/179
f 469/1/180 486/1/20 468/1/20
f 470/1/181 487/1/180 469/1/180
f 471/1/182 488/1/181 470/1/181
f 472/1/183 489/1/182 471/1/182
f 473/1/208 490/1/209 472/1/183
f 474/1/185 491/1/184 473/1/208
f 475/1/186 492/1/185 474/1/185
f 476/1/187 493/1/186 475/1/186
f 459/1/1 494/1/187 476/1/187
f 478/1/228 495/1/229 477/1/229
f 478/1/228 497/1/230 496/1/228
f 480/1/231 497/1/230 479/1/230
f 480/1/231 499/1/232 498/1/231
f 482/1/233 499/1/232 481/1/232
f 482/1/233 501/1/234 500/1/233
f 483/1/234 502/1/235 501/1/234
f 485/1/236 502/1/235 484/1/235
f 485/1/236 504/1/237 503/1/236
f 487/1/238 504/1/237 486/1/237
f 487/1/238 506/1/239 505/1/238
f 489/1/240 506/1/239 488/1/239
f 490/1/241 507/1/240 489/1/240
f 491/1/242 508/1/241 490/1/241
f 492/1/243 509/1/242 491/1/242
f 492/1/243 511/1/244 510/1/243
f 494/1/245 511/1/244 493/1/244
f 494/1/245 495/1/229 512/1/245
f 495/1/9 514/1/9 513/1/9
f 497/1/9 514/1/9 496/1/9
f 497/1/9 516/1/9 515/1/9
f 498/1/9 517/1/9 516/1/9
f 500/1/9 517/1/9 499/1/9
f 501/1/9 518/1/9 500/1/9
f 502/1/9 519/1/9 501/1/9
f 502/1/9 521/1/9 520/1/9
f 504/1/9 521/1/9 503/1/9
f 505/1/9 522/1/9 504/1/9
f 506/1/9 523/1/9 505/1/9
f 506/1/9 525/1/9 524/1/9
f 507/1/9 526/1/9 525/1/9
f 509/1/9 526/1/9 508/1/9
f 510/1/9 527/1/9 509/1/9
f 511/1/9 528/1/9 510/1/9
f 511/1/9 530/1/9 529/1/9
f 495/1/9 530/1/9 512/1/9
s 0
f 531/1/12 552/1/12 551/1/12
f 533/1/12 552/1/12 532/1/12
f 533/1/12 554/1/12 553/1/12
f 535/1/12 554/1/12 534/1/12
f 535/1/12 556/1/12 555/1/12
f 537/1/12 556/1/12 536/1/12
f 537/1/12 558/1/12 557/1/12
f 539/1/12 558/1/12 538/1/12
f 539/1/12 560/1/12 559/1/12
f 541/1/12 560/1/12 540/1/12
f 541/1/12 562/1/12 561/1/12
f 543/1/12 562/1/12 542/1/12
f 543/1/12 564/1/12 563/1/12
f 545/1/12 564/1/12 544/1/12
f 545/1/12 566/1/12 565/1/12
f 547/1/12 566/1/12 546/1/12
f 547/1/12 568/1/12 567/1/12
f 549/1/12 568/1/12 548/1/12
f 549/1/12 570/1/12 569/1/12
f 531/1/12 570/1/12 550/1/12
f 552/1/246 571/1/246 551/1/246
f 553/1/247 572/1/247 552/1/247
f 554/1/248 573/1/248 553/1/248
f 555/1/249 574/1/249 554/1/249
f 556/1/250 575/1/250 555/1/250
f 557/1/251 576/1/251 556/1/251
f 558/1/252 577/1/252 557/1/252
f 559/1/253 578/1/253 558/1/253
f 560/1/254 579/1/254 559/1/254
f 561/1/255 580/1/255 560/1/255
f 562/1/256 581/1/256 561/1/256
f 563/1/257 582/1/257 562/1/257
f 564/1/258 583/1/258 563/1/258
f 565/1/259 584/1/259 564/1/259
f 566/1/260 585/1/260 565/1/260
f 567/1/261 586/1/261 566/1/261
f 568/1/262 587/1/262 567/1/262
f 569/1/263 588/1/263 568/1/263
f 570/1/264 589/1/264 569/1/264
f 551/1/265 590/1/265 570/1/265
f 572/1/266 591/1/266 571/1/266
f 572/1/267 593/1/267 592/1/267
f 574/1/268 593/1/268 573/1/268
f 574/1/269 595/1/269 594/1/269
f 576/1/270 595/1/270 575/1/270
f 576/1/271 597/1/271 596/1/271
f 578/1/272 597/1/272 577/1/272
f 578/1/273 599/1/273 598/1/273
f 580/1/274 599/1/274 579/1/274
f 580/1/275 601/1/275 600/1/275
f 582/1/276 601/1/276 581/1/276
f 582/1/277 603/1/277 602/1/277
f 584/1/278 603/1/278 583/1/278
f 584/1/279 605/1/279 604/1/279
f 586/1/280 605/1/280 585/1/280
f 586/1/281 607/1/281 606/1/281
f 588/1/282 607/1/282 587/1/282
f 588/1/283 609/1/283 608/1/283
f 590/1/284 609/1/284 589/1/284
f 590/1/285 591/1/285 610/1/285
s 1
f 612/1/286 623/1/1 611/1/1
f 613/1/174 624/1/286 612/1/286
f 614/1/33 625/1/174 613/1/174
f 615/1/177 626/1/33 614/1/33
f 616/1/287 627/1/177 615/1/177
f 617/1/20 628/1/287 616/1/287
f 618/1/288 629/1/20 617/1/20
f 619/1/182 630/1/288 618/1/288
f 620/1/36 631/1/182 619/1/182
f 621/1/185 632/1/36 620/1/36
f 622/1/289 633/1/185 621/1/185
f 611/1/1 634/1/289 622/1/289
f 624/1/290 635/1/291 623/1/291
f 624/1/290 637/1/292 636/1/290
f 625/1/292 638/1/293 637/1/292
f 627/1/294 638/1/293 626/1/293
f 627/1/294 640/1/295 639/1/294
f 628/1/295 641/1/296 640/1/295
f 630/1/297 641/1/296 629/1/296
f 630/1/297 643/1/298 642/1/297
f 631/1/298 644/1/299 643/1/298
f 633/1/300 644/1/299 632/1/299
f 633/1/300 646/1/301 645/1/300
f 634/1/301 635/1/291 646/1/301
f 635/1/302 648/1/303 647/1/302
f 636/1/303 649/1/304 648/1/303
f 638/1/305 649/1/304 637/1/304
f 638/1/305 651/1/306 650/1/305
f 640/1/307 651/1/306 639/1/306
f 641/1/308 652/1/307 640/1/307
f 641/1/308 654/1/309 653/1/308
f 643/1/310 654/1/309 642/1/309
f 644/1/311 655/1/310 643/1/310
f 645/1/312 656/1/311 644/1/311
f 646/1/313 657/1/312 645/1/312
f 635/1/302 658/1/313 646/1/313
f 648/1/314 659/1/315 647/1/315
f 649/1/316 660/1/314 648/1/314
f 649/1/316 662/1/317 661/1/316
f 651/1/318 662/1/317 650/1/317
f 652/1/319 663/1/318 651/1/318
f 653/1/320 664/1/319 652/1/319
f 654/1/321 665/1/320 653/1/320
f 654/1/321 667/1/322 666/1/321
f 656/1/323 667/1/322 655/1/322
f 657/1/324 668/1/323 656/1/323
f 658/1/325 669/1/324 657/1/324
f 658/1/325 659/1/315 670/1/325
f 659/1/302 672/1/303 671/1/302
f 660/1/303 673/1/304 672/1/303
f 662/1/305 673/1/304 661/1/304
f 662/1/305 675/1/306 674/1/305
f 663/1/306 676/1/307 675/1/306
f 665/1/308 676/1/307 664/1/307
f 665/1/308 678/1/309 677/1/308
f 667/1/310 678/1/309 666/1/309
f 668/1/311 679/1/310 667/1/310
f 668/1/311 681/1/312 680/1/311
f 670/1/313 681/1/312 669/1/312
f 659/1/302 682/1/313 670/1/313
f 672/1/326 683/1/327 671/1/327
f 673/1/328 684/1/326 672/1/326
f 674/1/329 685/1/328 673/1/328
f 674/1/329 687/1/330 686/1/329
f 676/1/331 687/1/330 675/1/330
f 677/1/332 688/1/331 676/1/331
f 678/1/333 689/1/332 677/1/332
f 679/1/334 690/1/333 678/1/333
f 680/1/335 691/1/334 679/1/334
f 681/1/336 692/1/335 680/1/335
f 682/1/337 693/1/336 681/1/336
f 671/1/327 694/1/337 682/1/337
f 684/1/338 695/1/339 683/1/339
f 684/1/338 697/1/340 696/1/338
f 685/1/340 698/1/341 697/1/340
f 687/1/342 698/1/341 686/1/341
f 688/1/343 699/1/342 687/1/342
f 688/1/343 701/1/344 700/1/343
f 690/1/345 701/1/344 689/1/344
f 690/1/345 703/1/346 702/1/345
f 691/1/346 704/1/347 703/1/346
f 693/1/348 704/1/347 692/1/347
f 694/1/349 705/1/348 693/1/348
f 694/1/349 695/1/339 706/1/349
f 696/1/350 707/1/351 695/1/351
f 697/1/352 708/1/350 696/1/350
f 698/1/353 709/1/352 697/1/352
f 699/1/354 710/1/353 698/1/353
f 699/1/354 712/1/355 711/1/354
f 701/1/356 712/1/355 700/1/355
f 702/1/357 713/1/356 701/1/356
f 703/1/358 714/1/357 702/1/357
f 703/1/358 716/1/359 715/1/358
f 704/1/359 717/1/360 716/1/359
f 706/1/361 717/1/360 705/1/360
f 706/1/361 707/1/351 718/1/361
f 708/1/9 719/1/9 707/1/9
f 709/1/9 720/1/9 708/1/9
f 709/1/9 722/1/9 721/1/9
f 711/1/9 722/1/9 710/1/9
f 711/1/9 724/1/9 723/1/9
f 713/1/9 724/1/9 712/1/9
f 714/1/9 725/1/9 713/1/9
f 715/1/9 726/1/9 714/1/9
f 715/1/9 728/1/9 727/1/9
f 717/1/9 728/1/9 716/1/9
f 717/1/9 730/1/9 729/1/9
f 707/1/9 730/1/9 718/1/9
f 771/1/380 782/1/1 770/1/1
f 772/1/381 783/1/380 771/1/380
f 773/1/12 784/1/381 772/1/381
f 774/1/382 785/1/12 773/1/12
f 775/1/383 786/1/382 774/1/382
f 776/1/20 787/1/383 775/1/383
f 777/1/384 788/1/20 776/1/20
f 778/1/385 789/1/384 777/1/384
f 779/1/9 790/1/385 778/1/385
f 780/1/386 791/1/9 779/1/9
f 781/1/387 792/1/386 780/1/386
f 770/1/1 793/1/387 781/1/387
f 783/1/388 794/1/389 782/1/389
f 784/1/390 795/1/388 783/1/388
f 785/1/391 796/1/390 784/1/390
f 785/1/391 798/1/392 797/1/391
f 786/1/392 799/1/393 798/1/392
f 788/1/394 799/1/393 787/1/393
f 788/1/394 801/1/395 800/1/394
f 790/1/396 801/1/395 789/1/395
f 791/1/397 802/1/396 790/1/396
f 792/1/398 803/1/397 791/1/397
f 793/1/399 804/1/398 792/1/398
f 793/1/399 794/1/389 805/1/399
s 0
f 1/1/1 2/1/1 14/1/1
f 3/1/1 15/1/1 14/1/1
f 3/1/1 4/1/1 16/1/1
f 5/1/1 17/1/1 16/1/1
f 5/1/1 6/1/1 18/1/1
f 7/1/1 19/1/1 18/1/1
f 7/1/1 8/1/1 20/1/1
f 9/1/1 21/1/1 20/1/1
f 9/1/1 10/1/1 22/1/1
f 11/1/1 23/1/1 22/1/1
f 11/1/1 12/1/1 24/1/1
f 1/1/1 13/1/1 24/1/1
f 13/1/2 14/1/2 26/1/2
f 15/1/2 27/1/2 26/1/2
f 15/1/3 16/1/3 28/1/3
f 17/1/3 29/1/3 28/1/3
f 17/1/4 18/1/4 30/1/4
f 19/1/4 31/1/4 30/1/4
f 19/1/5 20/1/5 32/1/5
f 21/1/5 33/1/5 32/1/5
f 21/1/6 22/1/6 34/1/6
f 23/1/6 35/1/6 34/1/6
f 23/1/7 24/1/7 36/1/7
f 13/1/7 25/1/7 36/1/7
f 26/1/8 38/1/8 37/1/8
f 27/1/8 39/1/8 38/1/8
f 28/1/9 40/1/9 39/1/9
f 29/1/9 41/1/9 40/1/9
f 30/1/10 42/1/10 41/1/10
f 31/1/10 43/1/10 42/1/10
f 32/1/11 44/1/11 43/1/11
f 33/1/11 45/1/11 44/1/11
f 34/1/12 46/1/12 45/1/12
f 35/1/12 47/1/12 46/1/12
f 36/1/13 48/1/13 47/1/13
f 25/1/13 37/1/13 48/1/13
f 38/1/14 50/1/14 49/1/14
f 38/1/14 39/1/14 51/1/14
f 40/1/15 52/1/15 51/1/15
f 40/1/15 41/1/15 53/1/15
f 42/1/16 54/1/16 53/1/16
f 42/1/16 43/1/16 55/1/16
f 44/1/17 56/1/17 55/1/17
f 44/1/17 45/1/17 57/1/17
f 46/1/18 58/1/18 57/1/18
f 46/1/18 47/1/18 59/1/18
f 48/1/19 60/1/19 59/1/19
f 48/1/19 37/1/19 49/1/19
f 49/1/1 50/1/1 62/1/1
f 50/1/20 51/1/20 63/1/20
f 51/1/1 52/1/1 64/1/1
f 52/1/20 53/1/20 65/1/20
f 53/1/1 54/1/1 66/1/1
f 54/1/20 55/1/20 67/1/20
f 55/1/1 56/1/1 68/1/1
f 56/1/20 57/1/20 69/1/20
f 57/1/1 58/1/1 70/1/1
f 58/1/20 59/1/20 71/1/20
f 59/1/1 60/1/1 72/1/1
f 60/1/20 49/1/20 61/1/20
s 1
f 99/1/39 113/1/39 112/1/36
f 100/1/40 114/1/40 113/1/39
f 101/1/41 115/1/41 114/1/40
f 102/1/42 116/1/42 115/1/41
f 103/1/43 117/1/43 116/1/42
f 104/1/44 118/1/44 117/1/43
f 105/1/33 119/1/33 118/1/44
f 106/1/45 120/1/45 119/1/33
f 107/1/46 121/1/46 120/1/45
f 108/1/47 122/1/47 121/1/46
f 109/1/48 123/1/48 122/1/47
f 110/1/49 124/1/49 123/1/48
f 111/1/50 125/1/50 124/1/49
f 98/1/36 112/1/36 125/1/50
f 112/1/1 113/1/1 127/1/1
f 113/1/1 114/1/1 128/1/1
f 114/1/1 115/1/1 129/1/1
f 115/1/1 116/1/1 130/1/1
f 116/1/1 117/1/1 131/1/1
f 117/1/1 118/1/1 132/1/1
f 118/1/1 119/1/1 133/1/1
f 119/1/1 120/1/1 134/1/1
f 120/1/1 121/1/1 135/1/1
f 121/1/1 122/1/1 136/1/1
f 122/1/1 123/1/1 137/1/1
f 123/1/1 124/1/1 138/1/1
f 124/1/1 125/1/1 139/1/1
f 125/1/1 112/1/1 126/1/1
f 127/1/51 141/1/51 140/1/52
f 128/1/53 142/1/53 141/1/51
f 129/1/54 143/1/54 142/1/53
f 130/1/55 144/1/55 143/1/54
f 131/1/56 145/1/56 144/1/55
f 131/1/56 132/1/57 146/1/57
f 132/1/57 133/1/58 147/1/58
f 134/1/59 148/1/59 147/1/58
f 135/1/60 149/1/60 148/1/59
f 136/1/61 150/1/61 149/1/60
f 137/1/62 151/1/62 150/1/61
f 138/1/63 152/1/63 151/1/62
f 138/1/63 139/1/64 153/1/64
f 139/1/64 126/1/52 140/1/52
f 141/1/39 155/1/39 154/1/36
f 142/1/40 156/1/40 155/1/39
f 143/1/41 157/1/41 156/1/40
f 144/1/42 158/1/42 157/1/41
f 145/1/43 159/1/43 158/1/42
f 146/1/44 160/1/44 159/1/43
f 147/1/33 161/1/33 160/1/44
f 148/1/45 162/1/45 161/1/33
f 149/1/46 163/1/46 162/1/45
f 150/1/47 164/1/47 163/1/46
f 151/1/48 165/1/48 164/1/47
f 152/1/49 166/1/49 165/1/48
f 153/1/50 167/1/50 166/1/49
f 140/1/36 154/1/36 167/1/50
f 155/1/65 169/1/65 168/1/66
f 156/1/67 170/1/67 169/1/65
f 157/1/68 171/1/68 170/1/67
f 158/1/69 172/1/69 171/1/68
f 159/1/70 173/1/70 172/1/69
f 160/1/71 174/1/71 173/1/70
f 161/1/72 175/1/72 174/1/71
f 162/1/73 176/1/73 175/1/72
f 163/1/74 177/1/74 176/1/73
f 164/1/75 178/1/75 177/1/74
f 165/1/76 179/1/76 178/1/75
f 166/1/77 180/1/77 179/1/76
f 167/1/78 181/1/78 180/1/77
f 154/1/66 168/1/66 181/1/78
f 169/1/39 183/1/39 182/1/36
f 170/1/40 184/1/40 183/1/39
f 171/1/41 185/1/41 184/1/40
f 172/1/42 186/1/42 185/1/41
f 173/1/43 187/1/43 186/1/42
f 174/1/44 188/1/44 187/1/43
f 175/1/33 189/1/33 188/1/44
f 176/1/45 190/1/45 189/1/33
f 177/1/46 191/1/46 190/1/45
f 178/1/47 192/1/47 191/1/46
f 179/1/48 193/1/48 192/1/47
f 180/1/49 194/1/49 193/1/48
f 181/1/50 195/1/50 194/1/49
f 168/1/36 182/1/36 195/1/50
f 183/1/51 197/1/51 196/1/52
f 184/1/53 198/1/53 197/1/51
f 185/1/54 199/1/54 198/1/53
f 186/1/55 200/1/55 199/1/54
f 187/1/56 201/1/56 200/1/55
f 188/1/57 202/1/57 201/1/56
f 189/1/58 203/1/58 202/1/57
f 190/1/59 204/1/59 203/1/58
f 191/1/60 205/1/60 204/1/59
f 192/1/61 206/1/61 205/1/60
f 193/1/62 207/1/62 206/1/61
f 194/1/63 208/1/63 207/1/62
f 195/1/64 209/1/64 208/1/63
f 182/1/52 196/1/52 209/1/64
f 197/1/39 211/1/39 210/1/36
f 198/1/40 212/1/40 211/1/39
f 199/1/41 213/1/41 212/1/40
f 200/1/42 214/1/42 213/1/41
f 201/1/43 215/1/43 214/1/42
f 202/1/44 216/1/44 215/1/43
f 203/1/33 217/1/33 216/1/44
f 204/1/45 218/1/45 217/1/33
f 205/1/46 219/1/46 218/1/45
f 206/1/47 220/1/47 219/1/46
f 207/1/48 221/1/48 220/1/47
f 208/1/49 222/1/49 221/1/48
f 209/1/50 223/1/50 222/1/49
f 196/1/36 210/1/36 223/1/50
f 211/1/65 225/1/65 224/1/66
f 212/1/67 226/1/67 225/1/65
f 213/1/68 227/1/68 226/1/67
f 214/1/69 228/1/69 227/1/68
f 215/1/70 229/1/70 228/1/69
f 216/1/71 230/1/71 229/1/70
f 217/1/72 231/1/72 230/1/71
f 218/1/73 232/1/73 231/1/72
f 219/1/74 233/1/74 232/1/73
f 220/1/75 234/1/75 233/1/74
f 221/1/76 235/1/76 234/1/75
f 222/1/77 236/1/77 235/1/76
f 223/1/78 237/1/78 236/1/77
f 210/1/66 224/1/66 237/1/78
f 225/1/39 239/1/39 238/1/36
f 226/1/40 240/1/40 239/1/39
f 227/1/41 241/1/41 240/1/40
f 228/1/42 242/1/42 241/1/41
f 229/1/43 243/1/43 242/1/42
f 230/1/44 244/1/44 243/1/43
f 231/1/33 245/1/33 244/1/44
f 232/1/45 246/1/45 245/1/33
f 233/1/46 247/1/46 246/1/45
f 234/1/47 248/1/47 247/1/46
f 235/1/48 249/1/48 248/1/47
f 236/1/49 250/1/49 249/1/48
f 237/1/50 251/1/50 250/1/49
f 224/1/36 238/1/36 251/1/50
f 239/1/1 253/1/1 252/1/1
f 240/1/1 254/1/1 253/1/1
f 241/1/1 255/1/1 254/1/1
f 241/1/1 242/1/1 256/1/1
f 243/1/1 257/1/1 256/1/1
f 244/1/1 258/1/1 257/1/1
f 245/1/1 259/1/1 258/1/1
f 246/1/1 260/1/1 259/1/1
f 247/1/1 261/1/1 260/1/1
f 248/1/1 262/1/1 261/1/1
f 248/1/1 249/1/1 263/1/1
f 250/1/1 264/1/1 263/1/1
f 251/1/1 265/1/1 264/1/1
f 238/1/1 252/1/1 265/1/1
f 253/1/39 267/1/39 266/1/36
f 254/1/40 268/1/40 267/1/39
f 255/1/41 269/1/41 268/1/40
f 256/1/42 270/1/42 269/1/41
f 257/1/43 271/1/43 270/1/42
f 258/1/44 272/1/44 271/1/43
f 259/1/33 273/1/33 272/1/44
f 260/1/45 274/1/45 273/1/33
f 261/1/46 275/1/46 274/1/45
f 262/1/47 276/1/47 275/1/46
f 263/1/48 277/1/48 276/1/47
f 264/1/49 278/1/49 277/1/48
f 265/1/50 279/1/50 278/1/49
f 252/1/36 266/1/36 279/1/50
f 267/1/20 281/1/20 280/1/20
f 268/1/20 282/1/20 281/1/20
f 269/1/20 283/1/20 282/1/20
f 270/1/20 284/1/20 283/1/20
f 271/1/20 285/1/20 284/1/20
f 272/1/20 286/1/20 285/1/20
f 273/1/20 287/1/20 286/1/20
f 274/1/20 288/1/20 287/1/20
f 275/1/20 289/1/20 288/1/20
f 276/1/20 290/1/20 289/1/20
f 277/1/20 291/1/20 290/1/20
f 278/1/20 292/1/20 291/1/20
f 279/1/20 293/1/20 292/1/20
f 266/1/20 280/1/20 293/1/20
f 281/1/39 295/1/39 294/1/36
f 282/1/40 296/1/40 295/1/39
f 283/1/41 297/1/41 296/1/40
f 284/1/42 298/1/42 297/1/41
f 285/1/43 299/1/43 298/1/42
f 286/1/44 300/1/44 299/1/43
f 287/1/33 301/1/33 300/1/44
f 288/1/45 302/1/45 301/1/33
f 289/1/46 303/1/46 302/1/45
f 290/1/47 304/1/47 303/1/46
f 291/1/48 305/1/48 304/1/47
f 292/1/49 306/1/49 305/1/48
f 293/1/50 307/1/50 306/1/49
f 280/1/36 294/1/36 307/1/50
f 295/1/79 309/1/83 308/1/80
f 296/1/82 310/1/85 309/1/83
f 297/1/84 311/1/87 310/1/85
f 298/1/86 312/1/89 311/1/87
f 299/1/88 313/1/91 312/1/89
f 300/1/90 314/1/93 313/1/91
f 301/1/92 315/1/95 314/1/93
f 302/1/94 316/1/97 315/1/95
f 303/1/96 317/1/99 316/1/97
f 304/1/98 318/1/101 317/1/99
f 305/1/100 319/1/103 318/1/101
f 306/1/102 320/1/105 319/1/103
f 307/1/104 321/1/106 320/1/105
f 294/1/81 308/1/80 321/1/106
f 308/1/80 309/1/83 323/1/107
f 310/1/85 324/1/110 323/1/107
f 310/1/85 311/1/87 325/1/109
f 312/1/89 326/1/111 325/1/109
f 313/1/91 327/1/112 326/1/111
f 314/1/93 328/1/113 327/1/112
f 315/1/95 329/1/115 328/1/113
f 315/1/95 316/1/97 330/1/114
f 317/1/99 331/1/117 330/1/114
f 317/1/99 318/1/101 332/1/116
f 319/1/103 333/1/118 332/1/116
f 320/1/105 334/1/119 333/1/118
f 321/1/106 335/1/120 334/1/119
f 308/1/80 322/1/108 335/1/120
f 323/1/107 337/1/123 336/1/121
f 323/1/107 324/1/110 338/1/122
f 324/1/110 325/1/109 339/1/124
f 326/1/111 340/1/125 339/1/124
f 327/1/112 341/1/126 340/1/125
f 328/1/113 342/1/127 341/1/126
f 329/1/115 343/1/128 342/1/127
f 330/1/114 344/1/130 343/1/128
f 330/1/114 331/1/117 345/1/129
f 331/1/117 332/1/116 346/1/131
f 333/1/118 347/1/132 346/1/131
f 334/1/119 348/1/133 347/1/132
f 335/1/120 349/1/134 348/1/133
f 322/1/108 336/1/121 349/1/134
f 352/1/135 370/1/135 369/1/136
f 352/1/135 353/1/137 371/1/137
f 354/1/138 372/1/138 371/1/137
f 354/1/138 355/1/139 373/1/139
f 356/1/140 374/1/140 373/1/139
f 357/1/141 375/1/141 374/1/140
f 357/1/141 358/1/142 376/1/142
f 359/1/143 377/1/143 376/1/142
f 360/1/144 378/1/144 377/1/143
f 361/1/145 379/1/145 378/1/144
f 361/1/145 362/1/146 380/1/146
f 363/1/147 381/1/149 380/1/146
f 364/1/148 382/1/148 381/1/149
f 365/1/150 383/1/150 382/1/148
f 366/1/151 384/1/151 383/1/150
f 366/1/151 367/1/152 385/1/152
f 368/1/153 386/1/153 385/1/152
f 368/1/153 351/1/136 369/1/136
f 370/1/154 388/1/154 387/1/155
f 370/1/154 371/1/156 389/1/156
f 372/1/157 390/1/157 389/1/156
f 372/1/157 373/1/158 391/1/158
f 374/1/159 392/1/159 391/1/158
f 375/1/160 393/1/160 392/1/159
f 375/1/160 376/1/161 394/1/161
f 376/1/161 377/1/162 395/1/162
f 377/1/162 378/1/163 396/1/163
f 379/1/164 397/1/164 396/1/163
f 380/1/165 398/1/165 397/1/164
f 381/1/166 399/1/166 398/1/165
f 381/1/166 382/1/167 400/1/167
f 383/1/168 401/1/168 400/1/167
f 384/1/169 402/1/169 401/1/168
f 385/1/170 403/1/170 402/1/169
f 386/1/171 404/1/171 403/1/170
f 386/1/171 369/1/155 387/1/155
f 388/1/172 406/1/172 405/1/1
f 389/1/173 407/1/173 406/1/172
f 390/1/174 408/1/174 407/1/173
f 391/1/175 409/1/175 408/1/174
f 392/1/176 410/1/176 409/1/175
f 393/1/177 411/1/177 410/1/176
f 394/1/178 412/1/178 411/1/177
f 395/1/179 413/1/179 412/1/178
f 396/1/20 414/1/20 413/1/179
f 397/1/180 415/1/180 414/1/20
f 398/1/181 416/1/181 415/1/180
f 399/1/182 417/1/182 416/1/181
f 400/1/183 418/1/183 417/1/182
f 401/1/184 419/1/184 418/1/183
f 402/1/185 420/1/185 419/1/184
f 403/1/186 421/1/186 420/1/185
f 404/1/187 422/1/187 421/1/186
f 387/1/1 405/1/1 422/1/187
f 405/1/188 406/1/189 424/1/189
f 407/1/190 425/1/190 424/1/189
f 408/1/191 426/1/191 425/1/190
f 409/1/192 427/1/192 426/1/191
f 409/1/192 410/1/193 428/1/193
f 410/1/193 411/1/194 429/1/194
f 412/1/195 430/1/195 429/1/194
f 412/1/195 413/1/196 431/1/196
f 414/1/197 432/1/197 431/1/196
f 414/1/197 415/1/198 433/1/198
f 416/1/199 434/1/199 433/1/198
f 416/1/199 417/1/200 435/1/200
f 418/1/201 436/1/201 435/1/200
f 418/1/201 419/1/202 437/1/202
f 419/1/202 420/1/203 438/1/203
f 420/1/203 421/1/204 439/1/204
f 421/1/204 422/1/205 440/1/205
f 405/1/188 423/1/188 440/1/205
f 424/1/172 442/1/172 441/1/1
f 425/1/173 443/1/173 442/1/172
f 426/1/174 444/1/174 443/1/173
f 427/1/175 445/1/207 444/1/174
f 428/1/206 446/1/176 445/1/207
f 429/1/177 447/1/177 446/1/176
f 430/1/178 448/1/178 447/1/177
f 431/1/179 449/1/179 448/1/178
f 432/1/20 450/1/20 449/1/179
f 433/1/180 451/1/180 450/1/20
f 434/1/181 452/1/181 451/1/180
f 435/1/182 453/1/182 452/1/181
f 436/1/183 454/1/209 453/1/182
f 437/1/208 455/1/184 454/1/209
f 438/1/185 456/1/185 455/1/184
f 439/1/186 457/1/186 456/1/185
f 440/1/187 458/1/187 457/1/186
f 423/1/1 441/1/1 458/1/187
f 441/1/210 442/1/211 460/1/211
f 443/1/212 461/1/212 460/1/211
f 443/1/212 444/1/213 462/1/213
f 444/1/213 445/1/214 463/1/214
f 446/1/215 464/1/215 463/1/214
f 447/1/216 465/1/216 464/1/215
f 447/1/216 448/1/217 466/1/217
f 448/1/217 449/1/218 467/1/218
f 450/1/219 468/1/219 467/1/218
f 451/1/220 469/1/220 468/1/219
f 452/1/221 470/1/221 469/1/220
f 453/1/222 471/1/222 470/1/221
f 453/1/222 454/1/223 472/1/223
f 455/1/224 473/1/224 472/1/223
f 456/1/225 474/1/225 473/1/224
f 457/1/226 475/1/226 474/1/225
f 458/1/227 476/1/227 475/1/226
f 441/1/210 459/1/210 476/1/227
f 460/1/172 478/1/172 477/1/1
f 461/1/173 479/1/173 478/1/172
f 462/1/174 480/1/174 479/1/173
f 463/1/175 481/1/207 480/1/174
f 464/1/206 482/1/176 481/1/207
f 465/1/177 483/1/177 482/1/176
f 466/1/178 484/1/178 483/1/177
f 467/1/179 485/1/179 484/1/178
f 468/1/20 486/1/20 485/1/179
f 469/1/180 487/1/180 486/1/20
f 470/1/181 488/1/181 487/1/180
f 471/1/182 489/1/182 488/1/181
f 472/1/183 490/1/209 489/1/182
f 473/1/208 491/1/184 490/1/209
f 474/1/185 492/1/185 491/1/184
f 475/1/186 493/1/186 492/1/185
f 476/1/187 494/1/187 493/1/186
f 459/1/1 477/1/1 494/1/187
f 478/1/228 496/1/228 495/1/229
f 478/1/228 479/1/230 497/1/230
f 480/1/231 498/1/231 497/1/230
f 480/1/231 481/1/232 499/1/232
f 482/1/233 500/1/233 499/1/232
f 482/1/233 483/1/234 501/1/234
f 483/1/234 484/1/235 502/1/235
f 485/1/236 503/1/236 502/1/235
f 485/1/236 486/1/237 504/1/237
f 487/1/238 505/1/238 504/1/237
f 487/1/238 488/1/239 506/1/239
f 489/1/240 507/1/240 506/1/239
f 490/1/241 508/1/241 507/1/240
f 491/1/242 509/1/242 508/1/241
f 492/1/243 510/1/243 509/1/242
f 492/1/243 493/1/244 511/1/244
f 494/1/245 512/1/245 511/1/244
f 494/1/245 477/1/229 495/1/229
f 495/1/9 496/1/9 514/1/9
f 497/1/9 515/1/9 514/1/9
f 497/1/9 498/1/9 516/1/9
f 498/1/9 499/1/9 517/1/9
f 500/1/9 518/1/9 517/1/9
f 501/1/9 519/1/9 518/1/9
f 502/1/9 520/1/9 519/1/9
f 502/1/9 503/1/9 521/1/9
f 504/1/9 522/1/9 521/1/9
f 505/1/9 523/1/9 522/1/9
f 506/1/9 524/1/9 523/1/9
f 506/1/9 507/1/9 525/1/9
f 507/1/9 508/1/9 526/1/9
f 509/1/9 527/1/9 526/1/9
f 510/1/9 528/1/9 527/1/9
f 511/1/9 529/1/9 528/1/9
f 511/1/9 512/1/9 530/1/9
f 495/1/9 513/1/9 530/1/9
s 0
f 531/1/12 532/1/12 552/1/12
f 533/1/12 553/1/12 552/1/12
f 533/1/12 534/1/12 554/1/12
f 535/1/12 555/1/12 554/1/12
f 535/1/12 536/1/12 556/1/12
f 537/1/12 557/1/12 556/1/12
f 537/1/12 538/1/12 558/1/12
f 539/1/12 559/1/12 558/1/12
f 539/1/12 540/1/12 560/1/12
f 541/1/12 561/1/12 560/1/12
f 541/1/12 542/1/12 562/1/12
f 543/1/12 563/1/12 562/1/12
f 543/1/12 544/1/12 564/1/12
f 545/1/12 565/1/12 564/1/12
f 545/1/12 546/1/12 566/1/12
f 547/1/12 567/1/12 566/1/12
f 547/1/12 548/1/12 568/1/12
f 549/1/12 569/1/12 568/1/12
f 549/1/12 550/1/12 570/1/12
f 531/1/12 551/1/12 570/1/12
f 552/1/246 572/1/246 571/1/246
f 553/1/247 573/1/247 572/1/247
f 554/1/248 574/1/248 573/1/248
f 555/1/249 575/1/249 574/1/249
f 556/1/250 576/1/250 575/1/250
f 557/1/251 577/1/251 576/1/251
f 558/1/252 578/1/252 577/1/252
f 559/1/253 579/1/253 578/1/253
f 560/1/254 580/1/254 579/1/254
f 561/1/255 581/1/255 580/1/255
f 562/1/256 582/1/256 581/1/256
f 563/1/257 583/1/257 582/1/257
f 564/1/258 584/1/258 583/1/258
f 565/1/259 585/1/259 584/1/259
f 566/1/260 586/1/260 585/1/260
f 567/1/261 587/1/261 586/1/261
f 568/1/262 588/1/262 587/1/262
f 569/1/263 589/1/263 588/1/263
f 570/1/264 590/1/264 589/1/264
f 551/1/265 571/1/265 590/1/265
f 572/1/456 592/1/456 591/1/456
f 572/1/457 573/1/457 593/1/457
f 574/1/458 594/1/458 593/1/458
f 574/1/459 575/1/459 595/1/459
f 576/1/460 596/1/460 595/1/460
f 576/1/461 577/1/461 597/1/461
f 578/1/462 598/1/462 597/1/462
f 578/1/463 579/1/463 599/1/463
f 580/1/464 600/1/464 599/1/464
f 580/1/465 581/1/465 601/1/465
f 582/1/466 602/1/466 601/1/466
f 582/1/467 583/1/467 603/1/467
f 584/1/468 604/1/468 603/1/468
f 584/1/469 585/1/469 605/1/469
f 586/1/470 606/1/470 605/1/470
f 586/1/471 587/1/471 607/1/471
f 588/1/472 608/1/472 607/1/472
f 588/1/473 589/1/473 609/1/473
f 590/1/474 610/1/474 609/1/474
f 590/1/475 571/1/475 591/1/475
s 1
f 612/1/286 624/1/286 623/1/1
f 613/1/174 625/1/174 624/1/286
f 614/1/33 626/1/33 625/1/174
f 615/1/177 627/1/177 626/1/33
f 616/1/287 628/1/287 627/1/177
f 617/1/20 629/1/20 628/1/287
f 618/1/288 630/1/288 629/1/20
f 619/1/182 631/1/182 630/1/288
f 620/1/36 632/1/36 631/1/182
f 621/1/185 633/1/185 632/1/36
f 622/1/289 634/1/289 633/1/185
f 611/1/1 623/1/1 634/1/289
f 624/1/290 636/1/290 635/1/291
f 624/1/290 625/1/292 637/1/292
f 625/1/292 626/1/293 638/1/293
f 627/1/294 639/1/294 638/1/293
f 627/1/294 628/1/295 640/1/295
f 628/1/295 629/1/296 641/1/296
f 630/1/297 642/1/297 641/1/296
f 630/1/297 631/1/298 643/1/298
f 631/1/298 632/1/299 644/1/299
f 633/1/300 645/1/300 644/1/299
f 633/1/300 634/1/301 646/1/301
f 634/1/301 623/1/291 635/1/291
f 635/1/302 636/1/303 648/1/303
f 636/1/303 637/1/304 649/1/304
f 638/1/305 650/1/305 649/1/304
f 638/1/305 639/1/306 651/1/306
f 640/1/307 652/1/307 651/1/306
f 641/1/308 653/1/308 652/1/307
f 641/1/308 642/1/309 654/1/309
f 643/1/310 655/1/310 654/1/309
f 644/1/311 656/1/311 655/1/310
f 645/1/312 657/1/312 656/1/311
f 646/1/313 658/1/313 657/1/312
f 635/1/302 647/1/302 658/1/313
f 648/1/314 660/1/314 659/1/315
f 649/1/316 661/1/316 660/1/314
f 649/1/316 650/1/317 662/1/317
f 651/1/318 663/1/318 662/1/317
f 652/1/319 664/1/319 663/1/318
f 653/1/320 665/1/320 664/1/319
f 654/1/321 666/1/321 665/1/320
f 654/1/321 655/1/322 667/1/322
f 656/1/323 668/1/323 667/1/322
f 657/1/324 669/1/324 668/1/323
f 658/1/325 670/1/325 669/1/324
f 658/1/325 647/1/315 659/1/315
f 659/1/302 660/1/303 672/1/303
f 660/1/303 661/1/304 673/1/304
f 662/1/305 674/1/305 673/1/304
f 662/1/305 663/1/306 675/1/306
f 663/1/306 664/1/307 676/1/307
f 665/1/308 677/1/308 676/1/307
f 665/1/308 666/1/309 678/1/309
f 667/1/310 679/1/310 678/1/309
f 668/1/311 680/1/311 679/1/310
f 668/1/311 669/1/312 681/1/312
f 670/1/313 682/1/313 681/1/312
f 659/1/302 671/1/302 682/1/313
f 672/1/326 684/1/326 683/1/327
f 673/1/328 685/1/328 684/1/326
f 674/1/329 686/1/329 685/1/328
f 674/1/329 675/1/330 687/1/330
f 676/1/331 688/1/331 687/1/330
f 677/1/332 689/1/332 688/1/331
f 678/1/333 690/1/333 689/1/332
f 679/1/334 691/1/334 690/1/333
f 680/1/335 692/1/335 691/1/334
f 681/1/336 693/1/336 692/1/335
f 682/1/337 694/1/337 693/1/336
f 671/1/327 683/1/327 694/1/337
f 684/1/338 696/1/338 695/1/339
f 684/1/338 685/1/340 697/1/340
f 685/1/340 686/1/341 698/1/341
f 687/1/342 699/1/342 698/1/341
f 688/1/343 700/1/343 699/1/342
f 688/1/343 689/1/344 701/1/344
f 690/1/345 702/1/345 701/1/344
f 690/1/345 691/1/346 703/1/346
f 691/1/346 692/1/347 704/1/347
f 693/1/348 705/1/348 704/1/347
f 694/1/349 706/1/349 705/1/348
f 694/1/349 683/1/339 695/1/339
f 696/1/350 708/1/350 707/1/351
f 697/1/352 709/1/352 708/1/350
f 698/1/353 710/1/353 709/1/352
f 699/1/354 711/1/354 710/1/353
f 699/1/354 700/1/355 712/1/355
f 701/1/356 713/1/356 712/1/355
f 702/1/357 714/1/357 713/1/356
f 703/1/358 715/1/358 714/1/357
f 703/1/358 704/1/359 716/1/359
f 704/1/359 705/1/360 717/1/360
f 706/1/361 718/1/361 717/1/360
f 706/1/361 695/1/351 707/1/351
f 708/1/9 720/1/9 719/1/9
f 709/1/9 721/1/9 720/1/9
f 709/1/9 710/1/9 722/1/9
f 711/1/9 723/1/9 722/1/9
f 711/1/9 712/1/9 724/1/9
f 713/1/9 725/1/9 724/1/9
f 714/1/9 726/1/9 725/1/9
f 715/1/9 727/1/9 726/1/9
f 715/1/9 716/1/9 728/1/9
f 717/1/9 729/1/9 728/1/9
f 717/1/9 718/1/9 730/1/9
f 707/1/9 719/1/9 730/1/9
f 771/1/380 783/1/380 782/1/1
f 772/1/381 784/1/381 783/1/380
f 773/1/12 785/1/12 784/1/381
f 774/1/382 786/1/382 785/1/12
f 775/1/383 787/1/383 786/1/382
f 776/1/20 788/1/20 787/1/383
f 777/1/384 789/1/384 788/1/20
f 778/1/385 790/1/385 789/1/384
f 779/1/9 791/1/9 790/1/385
f 780/1/386 792/1/386 791/1/9
f 781/1/387 793/1/387 792/1/386
f 770/1/1 782/1/1 793/1/387
f 783/1/388 795/1/388 794/1/389
f 784/1/390 796/1/390 795/1/388
f 785/1/391 797/1/391 796/1/390
f 785/1/391 786/1/392 798/1/392
f 786/1/392 787/1/393 799/1/393
f 788/1/394 800/1/394 799/1/393
f 788/1/394 789/1/395 801/1/395
f 790/1/396 802/1/396 801/1/395
f 791/1/397 803/1/397 802/1/396
f 792/1/398 804/1/398 803/1/397
f 793/1/399 805/1/399 804/1/398
f 793/1/399 782/1/389 794/1/389
usemtl m1
f 73/1/1 75/1/21 74/1/22
f 73/1/1 76/1/23 75/1/21
f 73/1/1 77/1/24 76/1/23
f 73/1/1 78/1/25 77/1/24
f 73/1/1 79/1/26 78/1/25
f 73/1/1 80/1/27 79/1/26
f 73/1/1 81/1/28 80/1/27
f 73/1/1 82/1/29 81/1/28
f 73/1/1 83/1/30 82/1/29
f 73/1/1 84/1/31 83/1/30
f 73/1/1 85/1/32 84/1/31
f 73/1/1 74/1/22 85/1/32
f 75/1/21 86/1/33 74/1/22
f 76/1/23 87/1/11 75/1/21
f 77/1/24 88/1/34 76/1/23
f 78/1/25 89/1/12 77/1/24
f 79/1/26 90/1/35 78/1/25
f 80/1/27 91/1/13 79/1/26
f 81/1/28 92/1/36 80/1/27
f 82/1/29 93/1/8 81/1/28
f 83/1/30 94/1/37 82/1/29
f 84/1/31 95/1/9 83/1/30
f 85/1/32 96/1/38 84/1/31
f 74/1/22 97/1/10 85/1/32
f 732/1/288 743/1/362 731/1/20
f 733/1/182 744/1/363 732/1/288
f 734/1/36 745/1/364 733/1/182
f 735/1/185 746/1/365 734/1/36
f 736/1/289 747/1/366 735/1/185
f 737/1/1 748/1/367 736/1/289
f 738/1/286 749/1/368 737/1/1
f 739/1/174 750/1/369 738/1/286
f 740/1/33 751/1/370 739/1/174
f 741/1/177 752/1/371 740/1/33
f 742/1/287 753/1/372 741/1/177
f 731/1/20 754/1/373 742/1/287
f 743/1/362 744/1/363 755/1/9
f 744/1/363 745/1/364 755/1/9
f 745/1/364 746/1/365 755/1/9
f 746/1/365 747/1/366 755/1/9
f 747/1/366 748/1/367 755/1/9
f 748/1/367 749/1/368 755/1/9
f 749/1/368 750/1/369 755/1/9
f 750/1/369 751/1/370 755/1/9
f 751/1/370 752/1/371 755/1/9
f 752/1/371 753/1/372 755/1/9
f 753/1/372 754/1/373 755/1/9
f 754/1/373 743/1/362 755/1/9
f 75/1/21 87/1/11 86/1/33
f 76/1/23 88/1/34 87/1/11
f 77/1/24 89/1/12 88/1/34
f 78/1/25 90/1/35 89/1/12
f 79/1/26 91/1/13 90/1/35
f 80/1/27 92/1/36 91/1/13
f 81/1/28 93/1/8 92/1/36
f 82/1/29 94/1/37 93/1/8
f 83/1/30 95/1/9 94/1/37
f 84/1/31 96/1/38 95/1/9
f 85/1/32 97/1/10 96/1/38
f 74/1/22 86/1/33 97/1/10
f 732/1/288 744/1/363 743/1/362
f 733/1/182 745/1/364 744/1/363
f 734/1/36 746/1/365 745/1/364
f 735/1/185 747/1/366 746/1/365
f 736/1/289 748/1/367 747/1/366
f 737/1/1 749/1/368 748/1/367
f 738/1/286 750/1/369 749/1/368
f 739/1/174 751/1/370 750/1/369
f 740/1/33 752/1/371 751/1/370
f 741/1/177 753/1/372 752/1/371
f 742/1/287 754/1/373 753/1/372
f 731/1/20 743/1/362 754/1/373
usemtl m2
f 757/2/374 763/1/375 756/3/375
f 758/4/376 764/5/374 757/2/374
f 759/6/36 765/7/376 758/4/376
f 760/8/377 766/9/36 759/6/36
f 761/10/378 767/11/377 760/8/377
f 762/12/379 768/13/378 761/10/378
f 757/2/374 764/5/374 763/1/375
f 758/4/376 765/7/376 764/5/374
f 759/6/36 766/9/36 765/7/376
f 760/8/377 767/11/377 766/9/36
f 761/10/378 768/13/378 767/11/377
f 762/12/379 769/14/379 768/13/378
usemtl m3
f 807/1/36 822/1/36 806/1/36
f 808/1/36 823/1/36 807/1/36
f 808/1/36 825/1/36 824/1/36
f 810/1/36 825/1/36 809/1/36
f 810/1/36 827/1/36 826/1/36
f 812/1/36 827/1/36 811/1/36
f 812/1/36 829/1/36 828/1/36
f 813/1/36 830/1/36 829/1/36
f 815/1/36 830/1/36 814/1/36
f 816/1/36 831/1/36 815/1/36
f 816/1/36 833/1/36 832/1/36
f 817/1/36 834/1/36 833/1/36
f 819/1/36 834/1/36 818/1/36
f 820/1/36 835/1/36 819/1/36
f 820/1/36 837/1/36 836/1/36
f 821/1/36 822/1/36 837/1/36
f 823/1/400 838/1/1 822/1/1
f 824/1/401 839/1/400 823/1/400
f 825/1/402 840/1/401 824/1/401
f 826/1/12 841/1/402 825/1/402
f 827/1/403 842/1/12 826/1/12
f 828/1/404 843/1/403 827/1/403
f 829/1/405 844/1/404 828/1/404
f 830/1/20 845/1/405 829/1/405
f 831/1/406 846/1/20 830/1/20
f 832/1/407 847/1/406 831/1/406
f 833/1/408 848/1/407 832/1/407
f 834/1/9 849/1/408 833/1/408
f 835/1/409 850/1/9 834/1/9
f 836/1/410 851/1/409 835/1/409
f 837/1/411 852/1/410 836/1/410
f 822/1/1 853/1/411 837/1/411
f 838/1/33 855/1/33 854/1/33
f 839/1/33 856/1/33 855/1/33
f 841/1/33 856/1/33 840/1/33
f 841/1/33 858/1/33 857/1/33
f 843/1/33 858/1/33 842/1/33
f 843/1/33 860/1/33 859/1/33
f 845/1/33 860/1/33 844/1/33
f 846/1/33 861/1/33 845/1/33
f 847/1/33 862/1/33 846/1/33
f 847/1/33 864/1/33 863/1/33
f 849/1/33 864/1/33 848/1/33
f 850/1/33 865/1/33 849/1/33
f 850/1/33 867/1/33 866/1/33
f 851/1/33 868/1/33 867/1/33
f 853/1/33 868/1/33 852/1/33
f 838/1/33 869/1/33 853/1/33
f 960/1/444 971/1/445 959/1/445
f 961/1/446 972/1/444 960/1/444
f 962/1/447 973/1/446 961/1/446
f 963/1/448 974/1/447 962/1/447
f 964/1/449 975/1/448 963/1/448
f 965/1/450 976/1/449 964/1/449
f 966/1/451 977/1/450 965/1/450
f 967/1/452 978/1/451 966/1/451
f 968/1/453 979/1/452 967/1/452
f 969/1/454 980/1/453 968/1/453
f 970/1/455 981/1/454 969/1/454
f 959/1/445 982/1/455 970/1/455
s 0
f 969/1/33 968/1/33 963/1/33
f 977/1/36 978/1/36 980/1/36
s 1
f 807/1/36 823/1/36 822/1/36
f 808/1/36 824/1/36 823/1/36
f 808/1/36 809/1/36 825/1/36
f 810/1/36 826/1/36 825/1/36
f 810/1/36 811/1/36 827/1/36
f 812/1/36 828/1/36 827/1/36
f 812/1/36 813/1/36 829/1/36
f 813/1/36 814/1/36 830/1/36
f 815/1/36 831/1/36 830/1/36
f 816/1/36 832/1/36 831/1/36
f 816/1/36 817/1/36 833/1/36
f 817/1/36 818/1/36 834/1/36
f 819/1/36 835/1/36 834/1/36
f 820/1/36 836/1/36 835/1/36
f 820/1/36 821/1/36 837/1/36
f 821/1/36 806/1/36 822/1/36
f 823/1/400 839/1/400 838/1/1
f 824/1/401 840/1/401 839/1/400
f 825/1/402 841/1/402 840/1/401
f 826/1/12 842/1/12 841/1/402
f 827/1/403 843/1/403 842/1/12
f 828/1/404 844/1/404 843/1/403
f 829/1/405 845/1/405 844/1/404
f 830/1/20 846/1/20 845/1/405
f 831/1/406 847/1/406 846/1/20
f 832/1/407 848/1/407 847/1/406
f 833/1/408 849/1/408 848/1/407
f 834/1/9 850/1/9 849/1/408
f 835/1/409 851/1/409 850/1/9
f 836/1/410 852/1/410 851/1/409
f 837/1/411 853/1/411 852/1/410
f 822/1/1 838/1/1 853/1/411
f 838/1/33 839/1/33 855/1/33
f 839/1/33 840/1/33 856/1/33
f 841/1/33 857/1/33 856/1/33
f 841/1/33 842/1/33 858/1/33
f 843/1/33 859/1/33 858/1/33
f 843/1/33 844/1/33 860/1/33
f 845/1/33 861/1/33 860/1/33
f 846/1/33 862/1/33 861/1/33
f 847/1/33 863/1/33 862/1/33
f 847/1/33 848/1/33 864/1/33
f 849/1/33 865/1/33 864/1/33
f 850/1/33 866/1/33 865/1/33
f 850/1/33 851/1/33 867/1/33
f 851/1/33 852/1/33 868/1/33
f 853/1/33 869/1/33 868/1/33
f 838/1/33 854/1/33 869/1/33
f 960/1/444 972/1/444 971/1/445
f 961/1/446 973/1/446 972/1/444
f 962/1/447 974/1/447 973/1/446
f 963/1/448 975/1/448 974/1/447
f 964/1/449 976/1/449 975/1/448
f 965/1/450 977/1/450 976/1/449
f 966/1/451 978/1/451 977/1/450
f 967/1/452 979/1/452 978/1/451
f 968/1/453 980/1/453 979/1/452
f 969/1/454 981/1/454 980/1/453
f 970/1/455 982/1/455 981/1/454
f 959/1/445 971/1/445 982/1/455
s 0
f 959/1/33 970/1/33 969/1/33
f 968/1/33 967/1/33 966/1/33
f 960/1/33 959/1/33 969/1/33
f 968/1/33 966/1/33 965/1/33
f 961/1/33 960/1/33 969/1/33
f 968/1/33 965/1/33 964/1/33
f 962/1/33 961/1/33 969/1/33
f 968/1/33 964/1/33 963/1/33
f 963/1/33 962/1/33 969/1/33
f 982/1/36 971/1/36 972/1/36
f 973/1/36 974/1/36 975/1/36
f 981/1/36 982/1/36 972/1/36
f 973/1/36 975/1/36 976/1/36
f 980/1/36 981/1/36 972/1/36
f 973/1/36 976/1/36 977/1/36
f 972/1/36 973/1/36 977/1/36
f 978/1/36 979/1/36 980/1/36
f 980/1/36 972/1/36 977/1/36
s 1
usemtl m4
f 871/1/36 886/1/36 870/1/36
f 872/1/36 887/1/36 871/1/36
f 872/1/36 889/1/36 888/1/36
f 874/1/36 889/1/36 873/1/36
f 874/1/36 891/1/36 890/1/36
f 876/1/36 891/1/36 875/1/36
f 876/1/36 893/1/36 892/1/36
f 877/1/36 894/1/36 893/1/36
f 879/1/36 894/1/36 878/1/36
f 880/1/36 895/1/36 879/1/36
f 881/1/36 896/1/36 880/1/36
f 881/1/36 898/1/36 897/1/36
f 883/1/36 898/1/36 882/1/36
f 884/1/36 899/1/36 883/1/36
f 884/1/36 901/1/36 900/1/36
f 885/1/36 886/1/36 901/1/36
f 887/1/400 902/1/1 886/1/1
f 888/1/401 903/1/400 887/1/400
f 889/1/402 904/1/401 888/1/401
f 890/1/12 905/1/402 889/1/402
f 891/1/403 906/1/12 890/1/12
f 892/1/404 907/1/403 891/1/403
f 893/1/405 908/1/404 892/1/404
f 894/1/20 909/1/405 893/1/405
f 895/1/406 910/1/20 894/1/20
f 896/1/407 911/1/406 895/1/406
f 897/1/408 912/1/407 896/1/407
f 898/1/9 913/1/408 897/1/408
f 899/1/409 914/1/9 898/1/9
f 900/1/410 915/1/409 899/1/409
f 901/1/411 916/1/410 900/1/410
f 886/1/1 917/1/411 901/1/411
f 902/1/412 919/1/413 918/1/412
f 903/1/413 920/1/414 919/1/413
f 904/1/414 921/1/415 920/1/414
f 905/1/415 922/1/416 921/1/415
f 907/1/417 922/1/416 906/1/416
f 907/1/417 924/1/418 923/1/417
f 909/1/419 924/1/418 908/1/418
f 910/1/420 925/1/419 909/1/419
f 910/1/420 927/1/421 926/1/420
f 911/1/421 928/1/422 927/1/421
f 913/1/423 928/1/422 912/1/422
f 914/1/424 929/1/423 913/1/423
f 915/1/425 930/1/424 914/1/424
f 915/1/425 932/1/426 931/1/425
f 917/1/427 932/1/426 916/1/426
f 902/1/412 933/1/427 917/1/427
f 918/1/428 919/1/429 934/1/33
f 919/1/429 920/1/430 934/1/33
f 920/1/430 921/1/431 934/1/33
f 921/1/431 922/1/432 934/1/33
f 922/1/432 923/1/433 934/1/33
f 923/1/433 924/1/434 934/1/33
f 924/1/434 925/1/435 934/1/33
f 925/1/435 926/1/436 934/1/33
f 926/1/436 927/1/437 934/1/33
f 927/1/437 928/1/438 934/1/33
f 928/1/438 929/1/439 934/1/33
f 929/1/439 930/1/440 934/1/33
f 930/1/440 931/1/441 934/1/33
f 931/1/441 932/1/442 934/1/33
f 932/1/442 933/1/443 934/1/33
f 933/1/443 918/1/428 934/1/33
f 936/1/444 947/1/445 935/1/445
f 937/1/446 948/1/444 936/1/444
f 938/1/447 949/1/446 937/1/446
f 939/1/448 950/1/447 938/1/447
f 940/1/449 951/1/448 939/1/448
f 941/1/450 952/1/449 940/1/449
f 942/1/451 953/1/450 941/1/450
f 943/1/452 954/1/451 942/1/451
f 944/1/453 955/1/452 943/1/452
f 945/1/454 956/1/453 944/1/453
f 946/1/455 957/1/454 945/1/454
f 935/1/445 958/1/455 946/1/455
s 0
f 945/1/33 944/1/33 939/1/33
f 953/1/36 954/1/36 956/1/36
s 1
f 871/1/36 887/1/36 886/1/36
f 872/1/36 888/1/36 887/1/36
f 872/1/36 873/1/36 889/1/36
f 874/1/36 890/1/36 889/1/36
f 874/1/36 875/1/36 891/1/36
f 876/1/36 892/1/36 891/1/36
f 876/1/36 877/1/36 893/1/36
f 877/1/36 878/1/36 894/1/36
f 879/1/36 895/1/36 894/1/36
f 880/1/36 896/1/36 895/1/36
f 881/1/36 897/1/36 896/1/36
f 881/1/36 882/1/36 898/1/36
f 883/1/36 899/1/36 898/1/36
f 884/1/36 900/1/36 899/1/36
f 884/1/36 885/1/36 901/1/36
f 885/1/36 870/1/36 886/1/36
f 887/1/400 903/1/400 902/1/1
f 888/1/401 904/1/401 903/1/400
f 889/1/402 905/1/402 904/1/401
f 890/1/12 906/1/12 905/1/402
f 891/1/403 907/1/403 906/1/12
f 892/1/404 908/1/404 907/1/403
f 893/1/405 909/1/405 908/1/404
f 894/1/20 910/1/20 909/1/405
f 895/1/406 911/1/406 910/1/20
f 896/1/407 912/1/407 911/1/406
f 897/1/408 913/1/408 912/1/407
f 898/1/9 914/1/9 913/1/408
f 899/1/409 915/1/409 914/1/9
f 900/1/410 916/1/410 915/1/409
f 901/1/411 917/1/411 916/1/410
f 886/1/1 902/1/1 917/1/411
f 902/1/412 903/1/413 919/1/413
f 903/1/413 904/1/414 920/1/414
f 904/1/414 905/1/415 921/1/415
f 905/1/415 906/1/416 922/1/416
f 907/1/417 923/1/417 922/1/416
f 907/1/417 908/1/418 924/1/418
f 909/1/419 925/1/419 924/1/418
f 910/1/420 926/1/420 925/1/419
f 910/1/420 911/1/421 927/1/421
f 911/1/421 912/1/422 928/1/422
f 913/1/423 929/1/423 928/1/422
f 914/1/424 930/1/424 929/1/423
f 915/1/425 931/1/425 930/1/424
f 915/1/425 916/1/426 932/1/426
f 917/1/427 933/1/427 932/1/426
f 902/1/412 918/1/412 933/1/427
f 936/1/444 948/1/444 947/1/445
f 937/1/446 949/1/446 948/1/444
f 938/1/447 950/1/447 949/1/446
f 939/1/448 951/1/448 950/1/447
f 940/1/449 952/1/449 951/1/448
f 941/1/450 953/1/450 952/1/449
f 942/1/451 954/1/451 953/1/450
f 943/1/452 955/1/452 954/1/451
f 944/1/453 956/1/453 955/1/452
f 945/1/454 957/1/454 956/1/453
f 946/1/455 958/1/455 957/1/454
f 935/1/445 947/1/445 958/1/455
s 0
f 935/1/33 946/1/33 945/1/33
f 944/1/33 943/1/33 942/1/33
f 936/1/33 935/1/33 945/1/33
f 944/1/33 942/1/33 941/1/33
f 937/1/33 936/1/33 945/1/33
f 944/1/33 941/1/33 940/1/33
f 938/1/33 937/1/33 945/1/33
f 944/1/33 940/1/33 939/1/33
f 939/1/33 938/1/33 945/1/33
f 958/1/36 947/1/36 948/1/36
f 949/1/36 950/1/36 951/1/36
f 957/1/36 958/1/36 948/1/36
f 949/1/36 951/1/36 952/1/36
f 956/1/36 957/1/36 948/1/36
f 949/1/36 952/1/36 953/1/36
f 948/1/36 949/1/36 953/1/36
f 954/1/36 955/1/36 956/1/36
f 956/1/36 948/1/36 953/1/36
