# Blender 5.2.2 LTS
# www.blender.org
mtllib HornSpeakerLow.mtl
o Roundcube.004_Material.009_0
v 0.016584 -0.022358 0.001942
v 0.015287 -0.022958 0.001407
v 0.015813 -0.020794 0.000351
v 0.017029 -0.020634 0.001411
v 0.014602 -0.020911 0.000038
v -0.015288 -0.022892 0.001341
v -0.015363 -0.020831 0.000120
v -0.016918 -0.022800 0.002873
v -0.016981 -0.020636 0.001345
v 0.015360 0.020832 0.000120
v 0.016980 0.020635 0.001345
v -0.014604 0.020909 0.000038
v -0.015814 0.020791 0.000351
v -0.017030 0.020633 0.001411
v 0.015287 0.022892 0.001341
v 0.016917 0.022800 0.002873
v -0.015288 0.022957 0.001407
v -0.016585 0.022357 0.001942
v -0.017893 -0.020910 0.003392
v -0.017010 -0.022928 0.044957
v -0.017923 -0.020801 0.045117
v -0.016585 -0.022358 0.046672
v -0.017030 -0.020634 0.047203
v -0.017923 0.020803 0.003500
v -0.017893 0.020908 0.045224
v -0.016981 0.020635 0.047268
v -0.017010 0.022927 0.003657
v -0.016918 0.022800 0.045741
v -0.015288 -0.022958 0.047207
v -0.015814 -0.020794 0.048262
v -0.014603 -0.020911 0.048576
v 0.015287 -0.022892 0.047272
v 0.015362 -0.020831 0.048493
v 0.016917 -0.022800 0.045741
v 0.016980 -0.020636 0.047268
v -0.015361 0.020832 0.048494
v 0.014604 0.020909 0.048576
v 0.015813 0.020791 0.048263
v 0.017029 0.020633 0.047203
v -0.015288 0.022892 0.047272
v 0.015287 0.022957 0.047207
v 0.016584 0.022357 0.046672
v 0.017893 -0.020910 0.045222
v 0.017009 -0.022928 0.003657
v 0.017923 -0.020801 0.003497
v 0.017923 0.020803 0.045114
v 0.017893 0.020908 0.003390
v 0.017009 0.022927 0.044957
v 0.015813 -0.023948 0.045107
v 0.014602 -0.024261 0.045224
v -0.015363 -0.024179 0.045145
v 0.015360 -0.024179 0.003468
v -0.014604 -0.024261 0.003390
v -0.015814 -0.023948 0.003508
v 0.015813 0.023947 0.003506
v 0.014602 0.024261 0.003389
v -0.015363 0.024178 0.003469
v 0.015360 0.024178 0.045146
v -0.014604 0.024260 0.045224
v -0.015814 0.023947 0.045106
v -0.045850 -0.148350 0.300000
v -0.045850 0.148350 0.300000
v -0.045850 0.148350 0.292718
v -0.045850 -0.148350 0.292718
v 0.045850 0.148350 0.292718
v 0.045850 -0.148350 0.292718
v 0.035030 -0.113342 0.279321
v 0.035030 0.113341 0.279321
v 0.045850 0.148350 0.300000
v 0.045850 -0.148350 0.300000
v 0.028309 -0.091596 0.262239
v 0.028309 0.091595 0.262239
v -0.035030 -0.113342 0.279321
v -0.035030 0.113341 0.279321
v -0.028310 0.091595 0.262239
v 0.019596 0.063403 0.231185
v -0.019596 0.063403 0.231185
v -0.028310 -0.091596 0.262239
v -0.019596 -0.063404 0.231185
v -0.013449 0.043512 0.201730
v -0.013449 -0.043513 0.201730
v 0.019596 -0.063404 0.231185
v 0.013448 0.043512 0.201730
v 0.013448 -0.043513 0.201730
v 0.008192 -0.026506 0.171696
v 0.008192 0.026506 0.171696
v -0.008192 0.026506 0.171696
v 0.004120 0.013331 0.137968
v -0.004121 0.013331 0.137968
v -0.008192 -0.026506 0.171696
v 0.004120 -0.013332 0.137968
v 0.002609 -0.008443 0.105066
v 0.002609 0.008442 0.105066
v -0.004121 -0.013332 0.137968
v -0.002610 -0.008443 0.105066
v -0.001905 -0.006163 0.055520
v 0.001904 -0.006163 0.055520
v -0.002610 0.008442 0.105066
v -0.001905 0.006163 0.034614
v -0.001905 0.006163 0.055520
v 0.001904 0.006163 0.055520
v 0.001904 0.006163 0.034614
v -0.001905 -0.006163 0.034614
v 0.001904 -0.006163 0.034614
v 0.001508 -0.004879 0.034614
v 0.006485 0.020984 0.170413
v 0.006485 -0.020985 0.170413
v 0.009557 -0.030923 0.193200
v 0.009557 0.030922 0.193200
v 0.003262 0.010554 0.135743
v -0.006486 0.020984 0.170413
v -0.003262 0.010554 0.135743
v -0.006486 -0.020985 0.170413
v -0.009557 -0.030923 0.193200
v -0.009557 0.030922 0.193200
v 0.002065 0.006683 0.101922
v 0.002065 -0.006684 0.101922
v 0.003262 -0.010555 0.135743
v -0.003262 -0.010555 0.135743
v -0.001483 -0.004735 0.034618
v -0.002066 -0.006684 0.101922
v 0.001508 -0.004879 0.050992
v -0.002066 0.006683 0.101922
v 0.001482 0.004734 0.034620
v -0.001508 0.004879 0.050992
v -0.001508 0.004879 0.034614
v 0.040908 0.144074 0.296592
v 0.031254 0.110075 0.282821
v 0.031254 -0.110076 0.282821
v 0.040908 -0.144075 0.296592
v 0.040908 -0.144075 0.300000
v -0.040908 -0.144075 0.296592
v -0.040908 -0.144075 0.300000
v -0.040908 0.144074 0.296592
v 0.040908 0.144074 0.300000
v 0.025257 0.088956 0.265261
v 0.025257 -0.088956 0.265261
v -0.031255 -0.110076 0.282821
v -0.031255 0.110075 0.282821
v 0.017483 0.061576 0.233341
v -0.025258 0.088956 0.265261
v -0.017484 0.061576 0.233341
v -0.025258 -0.088956 0.265261
v -0.017484 -0.061577 0.233341
v -0.011999 -0.042259 0.203063
v -0.011999 0.042258 0.203063
v 0.017483 -0.061577 0.233341
v 0.011998 0.042258 0.203063
v 0.010500 0.036982 0.193200
v 0.010500 -0.036982 0.193200
v 0.011998 -0.042259 0.203063
v -0.010501 -0.036982 0.193200
v -0.010501 0.036982 0.193200
v 0.029016 -0.029046 0.043288
v -0.027468 -0.029124 0.043247
v -0.030343 -0.030338 0.043792
v -0.031476 -0.027591 0.043588
v 0.029128 0.027463 0.043247
v -0.029050 0.029011 0.043288
v 0.027595 0.031471 0.043588
v -0.030369 0.030364 0.043807
v -0.032090 -0.027709 0.043961
v -0.030369 -0.030365 0.050847
v -0.031910 -0.027858 0.050824
v -0.032315 -0.025848 0.050667
v -0.031909 0.027859 0.043829
v -0.032315 0.025847 0.043986
v -0.032045 0.027743 0.050795
v -0.029128 0.027463 0.051406
v -0.030343 0.030337 0.050861
v -0.029023 -0.029018 0.051366
v 0.027450 -0.029156 0.051405
v 0.030342 -0.030338 0.050861
v 0.031476 -0.027591 0.051066
v 0.027785 0.029296 0.051390
v 0.031823 0.027985 0.050900
v -0.027579 0.031473 0.051066
v 0.030369 0.030364 0.050847
v 0.032090 -0.027709 0.050692
v 0.030369 -0.030365 0.043807
v 0.031910 -0.027858 0.043829
v 0.032314 -0.025848 0.043986
v 0.032314 0.025847 0.050667
v 0.032045 0.027743 0.043858
v 0.030342 0.030337 0.043792
v 0.027748 -0.032040 0.050795
v -0.027862 -0.031906 0.050824
v -0.025852 -0.032310 0.050667
v 0.027863 -0.031905 0.043829
v 0.025851 -0.032310 0.043986
v -0.027747 -0.032041 0.043858
v -0.027244 0.032183 0.043909
v 0.027712 0.032085 0.043961
v 0.027236 0.032184 0.050742
v -0.027711 0.032086 0.050692
v -0.022361 -0.016582 0.001942
v -0.022961 -0.015286 0.001407
v -0.020797 -0.015812 0.000351
v -0.020637 -0.017027 0.001411
v -0.020860 -0.014498 0.000000
v -0.022896 0.015285 0.001341
v -0.020899 0.015439 0.000178
v -0.022804 0.016915 0.002873
v -0.020639 0.016977 0.001345
v 0.020900 -0.015438 0.000178
v 0.020638 -0.016978 0.001345
v 0.020859 0.014498 0.000001
v 0.020795 0.015811 0.000351
v 0.020636 0.017026 0.001411
v 0.022895 -0.015286 0.001341
v 0.022803 -0.016916 0.002873
v 0.022961 0.015285 0.001407
v 0.022360 0.016581 0.001942
v -0.020914 0.017890 0.003392
v -0.022931 0.017007 0.044957
v -0.020804 0.017920 0.045117
v -0.022361 0.016581 0.046672
v -0.020637 0.017026 0.047203
v 0.020806 0.017920 0.003500
v 0.020911 0.017890 0.045224
v 0.020638 0.016977 0.047268
v 0.022931 0.017007 0.003657
v 0.022803 0.016915 0.045741
v -0.022961 0.015285 0.047207
v -0.020797 0.015811 0.048262
v -0.020914 0.014600 0.048576
v -0.022896 -0.015286 0.047272
v -0.020835 -0.015361 0.048493
v -0.022804 -0.016916 0.045741
v -0.020639 -0.016978 0.047268
v 0.020835 0.015358 0.048494
v 0.020913 -0.014602 0.048576
v 0.020795 -0.015812 0.048263
v 0.020636 -0.017027 0.047203
v 0.022895 0.015285 0.047272
v 0.022961 -0.015286 0.047207
v 0.022360 -0.016582 0.046672
v -0.020914 -0.017891 0.045222
v -0.022931 -0.017007 0.003657
v -0.020804 -0.017921 0.003497
v 0.020806 -0.017921 0.045114
v 0.020911 -0.017891 0.003390
v 0.022931 -0.017007 0.044957
v -0.023951 -0.015812 0.045107
v -0.024265 -0.014601 0.045224
v -0.024182 0.015360 0.045145
v -0.024183 -0.015358 0.003468
v -0.024264 0.014601 0.003390
v -0.023952 0.015811 0.003508
v 0.023950 -0.015812 0.003506
v 0.024264 -0.014601 0.003389
v 0.024182 0.015360 0.003469
v 0.024182 -0.015358 0.045146
v 0.024264 0.014601 0.045224
v 0.023951 0.015811 0.045106
v -0.040908 0.144074 0.300000
vn 0.6763 -0.5222 -0.5195
vn 0.2830 -0.6908 -0.6653
vn 0.4606 -0.2258 -0.8584
vn 0.7927 -0.1865 -0.5803
vn 0.1182 -0.2756 -0.9540
vn -0.2783 -0.6653 -0.6928
vn -0.7452 -0.5927 -0.3055
vn -0.7641 -0.1983 -0.6139
vn -0.3046 -0.2534 -0.9181
vn 0.9541 0.1180 0.2754
vn 0.9165 0.3121 -0.2501
vn 0.8566 0.4727 0.2069
vn 0.6058 -0.7732 0.1874
vn 0.8563 -0.4736 -0.2061
vn 0.9180 -0.3098 0.2478
vn 0.1608 -0.7133 0.6822
vn 0.6482 0.7605 -0.0383
vn 0.4327 -0.0576 0.8997
vn 0.6440 0.2861 0.7095
vn 0.2757 -0.1186 0.9539
vn 0.6852 -0.2768 0.6737
vn 0.0914 0.3237 -0.9417
vn -0.1044 0.1106 -0.9884
vn -0.1902 0.7941 -0.5772
vn 0.7657 0.1836 -0.6164
vn 0.3117 0.2532 -0.9158
vn 0.2984 0.6614 -0.6882
vn 0.7535 0.5849 -0.3001
vn 0.4020 -0.8461 0.3499
vn 0.4550 0.1459 0.8785
vn -0.1181 0.2756 -0.9540
vn -0.4604 0.2256 -0.8586
vn -0.2838 0.6956 -0.6600
vn -0.8041 0.1714 -0.5693
vn -0.6822 0.5159 -0.5181
vn -0.9576 -0.2124 -0.1945
vn 0.2264 -0.4579 0.8597
vn -0.1891 -0.7563 0.6262
vn 0.1839 -0.7991 0.5724
vn -0.7678 -0.6115 0.1912
vn -0.6767 -0.5217 0.5195
vn -0.7920 -0.1855 0.5816
vn -0.9583 -0.2049 0.1993
vn 0.8539 -0.2496 0.4566
vn 0.5711 -0.5728 -0.5880
vn 0.7471 -0.2634 -0.6103
vn 0.9540 -0.1182 -0.2755
vn 0.6967 0.2571 -0.6697
vn -0.9567 0.2050 -0.2066
vn -0.7698 0.6078 -0.1949
vn -0.9576 0.2122 0.1948
vn -0.7521 0.1916 0.6306
vn -0.7486 0.5900 0.3024
vn -0.2829 -0.6909 0.6652
vn -0.4606 -0.2258 0.8584
vn -0.1182 -0.2756 0.9540
vn 0.2783 -0.6652 0.6928
vn 0.7452 -0.5927 0.3054
vn 0.7641 -0.1983 0.6139
vn 0.3046 -0.2534 0.9181
vn 0.3042 -0.9186 -0.2521
vn -0.3122 -0.9165 0.2500
vn -0.1180 -0.9540 -0.2754
vn 0.6877 -0.6063 -0.3993
vn -0.2787 0.0436 -0.9594
vn -0.2894 -0.0459 -0.9561
vn 0.4604 0.2256 0.8586
vn 0.7997 0.1862 0.5707
vn -0.3117 0.2532 0.9158
vn -0.2984 0.6614 0.6881
vn 0.0401 0.7817 -0.6224
vn 0.4845 0.2625 -0.8345
vn 0.6052 0.4168 -0.6782
vn 0.1181 0.2756 0.9540
vn 0.2839 0.6955 0.6601
vn 0.6822 0.5159 0.5181
vn 0.9576 -0.2124 0.1945
vn 0.7677 -0.6116 -0.1912
vn 0.9583 -0.2049 -0.1993
vn 0.1184 0.9540 -0.2754
vn -0.3072 0.9189 -0.2475
vn 0.9995 -0.0000 -0.0310
vn 0.7145 -0.6564 -0.2420
vn -0.6596 0.5217 0.5411
vn -0.9229 -0.2507 0.2922
vn -0.6749 0.5792 0.4573
vn 0.8489 0.3925 -0.3539
vn 0.6665 -0.5659 -0.4853
vn 0.2625 -0.7496 -0.6076
vn 0.2298 -0.7785 0.5841
vn 0.0566 -0.8445 -0.5325
vn 0.9567 0.2050 0.2066
vn 0.7697 0.6079 0.1949
vn -0.0000 -0.9989 -0.0460
vn -0.7119 -0.6965 -0.0905
vn -0.5027 -0.6737 -0.5417
vn 0.9576 0.2122 -0.1948
vn 0.4722 -0.8571 0.2057
vn 0.1180 -0.9540 0.2756
vn -0.1180 0.9540 0.2754
vn -0.4721 0.8572 0.2055
vn -0.2118 -0.9578 0.1945
vn -0.6078 -0.7699 -0.1947
vn -0.2000 -0.9589 -0.2013
vn -0.6767 0.3119 -0.6670
vn -0.2441 -0.2015 -0.9486
vn 0.4722 0.8571 -0.2057
vn 0.3102 0.9178 0.2478
vn -0.4721 -0.8572 -0.2055
vn 0.4132 -0.5774 0.7042
vn -0.0000 -1.0000 -0.0000
vn 0.5890 -0.5532 0.5891
vn 0.9961 -0.0000 -0.0886
vn -0.6959 0.6047 -0.3874
vn -0.1480 0.3449 -0.9269
vn -0.7503 0.0638 0.6580
vn -0.0000 0.9374 0.3483
vn 0.6927 0.6450 0.3226
vn -0.0000 -0.9952 -0.0975
vn -0.7068 -0.6637 -0.2449
vn -0.8537 -0.2490 -0.4574
vn -0.7431 -0.2648 0.6145
vn -0.8434 -0.0545 0.5344
vn 0.6665 0.5659 -0.4853
vn 0.6471 -0.5052 -0.5710
vn -0.8165 0.1161 -0.5655
vn 0.1231 0.8061 -0.5788
vn -0.0201 -0.4258 -0.9046
vn -0.5856 0.5723 -0.5741
vn -0.7764 0.2319 0.5860
vn -0.5777 0.5477 0.6052
vn -0.1017 0.9944 0.0281
vn 0.7108 0.7000 0.0689
vn -0.0000 0.9972 0.0752
vn -0.4273 -0.7528 0.5007
vn 0.6898 -0.6478 0.3233
vn -0.0000 -0.9374 0.3483
vn -0.0567 -0.8441 0.5332
vn -0.2332 -0.7801 -0.5806
vn -0.5118 0.2677 -0.8163
vn -0.6324 0.6497 -0.4218
vn 0.1046 -0.1050 -0.9890
vn -0.0499 -0.1020 -0.9935
vn -0.1049 0.0522 0.9931
vn 0.0515 -0.1050 0.9931
vn 0.0653 0.1131 0.9914
vn 0.2296 0.4563 -0.8597
vn -0.1879 0.7584 -0.6242
vn 0.1839 0.7991 -0.5724
vn -0.8430 0.0546 -0.5351
vn -0.0000 0.9787 0.2051
vn 0.5685 -0.5084 0.6468
vn -0.0000 1.0000 -0.0000
vn 0.1649 0.8162 0.5537
vn 0.6052 -0.4168 -0.6782
vn -0.7820 0.6142 0.1059
vn -0.5167 -0.2788 0.8095
vn -0.5167 0.2788 0.8095
vn -0.9734 -0.0000 0.2289
vn -0.9910 -0.0000 0.1342
vn -0.6239 0.4359 0.6486
vn -0.8134 -0.3388 0.4729
vn 0.6471 0.5052 -0.5710
vn -0.0000 -0.8817 0.4717
vn 1.0000 -0.0000 -0.0000
vn 0.2124 0.9577 0.1943
vn -0.1753 0.8025 0.5703
vn 0.1962 0.7565 0.6238
vn 0.2041 -0.6810 0.7033
vn 0.4267 0.0584 0.9025
vn 0.1410 -0.6560 -0.7415
vn 0.2366 0.2869 -0.9283
vn 0.5782 0.5664 0.5873
vn 0.2442 0.8568 -0.4541
vn 0.1970 0.7974 0.5705
vn -0.2500 -0.3123 0.9165
vn -0.7088 0.7052 0.0164
vn -0.0000 0.9989 -0.0460
vn -0.0000 0.9997 -0.0231
vn -0.4963 0.0095 0.8681
vn -0.7503 0.5470 0.3712
vn -0.8563 -0.4736 0.2061
vn -0.9180 -0.3098 -0.2478
vn 0.0208 -0.6835 0.7296
vn -0.0000 -0.9994 0.0354
vn 0.4987 -0.7300 -0.4673
vn 0.4845 -0.2625 -0.8345
vn 0.7769 -0.1859 -0.6016
vn -0.7118 -0.3145 -0.6280
vn -0.5724 0.5822 0.5773
vn -0.2849 0.7652 0.5774
vn -0.7651 -0.2851 0.5773
vn 0.6986 -0.4635 0.5451
vn 0.7159 0.6719 0.1901
vn 0.6983 0.4637 0.5452
vn 0.3481 -0.8914 -0.2903
vn -0.0646 -0.6979 0.7133
vn -0.5773 -0.5774 -0.5774
vn -0.2904 -0.0295 -0.9565
vn -0.9977 -0.0000 0.0675
vn -0.9997 0.0007 0.0235
vn -0.9997 -0.0000 0.0237
vn 0.3149 0.8953 -0.3150
vn -0.9931 -0.0000 0.1175
vn -0.4230 0.7407 0.5219
vn 0.7618 -0.6149 -0.2040
vn 0.2577 0.4874 0.8343
vn 0.7024 0.6357 0.3202
vn -0.6239 -0.4359 0.6486
vn 0.4358 -0.0691 0.8974
vn 0.4090 -0.7029 0.5819
vn 0.3229 -0.0687 0.9439
vn 0.7003 -0.1087 -0.7056
vn 0.5753 0.6824 0.4510
vn 0.0484 0.9988 -0.0000
vn -0.7493 0.2689 -0.6051
vn 0.1998 -0.9583 0.2041
vn 0.7186 0.2796 0.6368
vn 0.8614 0.0612 0.5043
vn 0.5800 -0.5877 0.5641
vn -0.5525 -0.5673 -0.6107
vn -0.3296 -0.0941 -0.9394
vn -0.0000 -0.4022 0.9156
vn 0.5687 -0.6777 0.4661
vn -0.2122 0.9575 -0.1951
vn 0.1998 0.9583 -0.2041
vn 0.4868 -0.6510 0.5824
vn -0.0000 -0.9787 0.2051
vn 0.7103 -0.6775 0.1909
vn 0.2723 0.1153 -0.9553
vn -0.2719 -0.1160 -0.9553
vn -0.2548 0.3217 -0.9119
vn -0.0000 0.3754 0.9269
vn 0.1063 0.0482 -0.9932
vn 0.5609 0.5692 -0.6012
vn -0.5959 -0.5664 0.5693
vn -0.1049 -0.1047 0.9890
vn 0.2047 -0.6751 -0.7087
vn 0.7044 -0.7060 -0.0736
vn 0.7239 0.0794 -0.6853
vn 0.1943 -0.7634 -0.6160
vn -0.2292 -0.4617 -0.8569
vn 0.2518 -0.3183 -0.9139
vn -0.7343 -0.6762 0.0597
vn -0.5774 0.5703 0.5843
vn -0.7313 0.5174 -0.4444
vn -0.2470 0.8573 0.4517
vn 0.5527 -0.5673 0.6105
vn 0.3287 -0.0938 0.9398
vn -0.0859 0.3278 0.9408
vn -0.2688 -0.7494 0.6051
vn -0.2015 0.9575 0.2064
vn 0.8434 -0.0545 -0.5345
vn 0.7776 0.2363 -0.5827
vn -0.7078 -0.4996 0.4994
vn -0.7077 0.6135 0.3504
vn -0.5774 -0.2150 -0.7877
vn 0.2533 0.3041 0.9183
vn -0.5816 -0.6516 -0.4871
vn -0.9540 -0.1182 0.2755
vn -0.7061 0.2601 0.6586
vn -0.9188 0.3073 0.2477
vn -0.5156 -0.6846 -0.5153
vn -0.6901 -0.2866 -0.6645
vn -0.1829 -0.7933 -0.5807
vn -0.6711 0.2729 -0.6893
vn -0.5911 0.7478 -0.3022
vn 0.6645 -0.3017 -0.6837
vn 0.5818 -0.7564 -0.2990
vn 0.6055 0.7734 -0.1878
vn 0.5941 0.7362 0.3241
vn 0.5165 0.6835 -0.5158
vn -0.9541 0.1180 -0.2754
vn -0.8566 0.4727 -0.2068
vn -0.6114 0.7679 0.1910
vn -0.5163 0.6837 0.5157
vn -0.9999 0.0082 0.0072
vn -1.0000 0.0023 0.0029
vn -0.2750 0.1182 0.9541
vn -0.6603 -0.3059 0.6859
vn -0.2274 0.4583 0.8592
vn -0.5911 -0.7479 0.3021
vn 0.2124 -0.9577 -0.1943
vn 0.7121 0.6757 0.1907
vn -0.6936 -0.6197 -0.3673
vn -0.6842 0.5242 0.5070
vn -0.5370 0.5707 -0.6213
vn 0.5165 -0.6835 0.5158
vn 0.8669 -0.4817 -0.1283
vn 0.0293 -0.7112 -0.7024
vn 0.6901 -0.7220 -0.0499
vn -0.5974 0.4636 -0.6544
vn -0.0000 0.9315 -0.3638
vn -0.5612 0.6121 -0.5571
vn -0.0000 0.9891 -0.1470
vn -0.8159 -0.5774 0.0323
vn -0.1825 0.3879 -0.9035
vn 0.8003 -0.1603 -0.5778
vn -0.6541 -0.4871 -0.5787
vn -0.3844 0.8537 -0.3513
vn -0.5773 0.5774 0.5774
vn 0.6992 0.5018 0.5092
vn 0.6249 -0.6379 0.4500
vn -0.0000 -0.8430 0.5379
vn 1.0000 -0.0000 -0.0072
vn 0.5970 -0.5774 0.5570
vn -0.7102 -0.6603 -0.2442
vn -0.5766 0.5768 -0.5786
vn 0.6541 0.4865 -0.5792
vn -0.0136 0.6919 0.7218
vn 0.4132 0.5773 0.7043
vn -0.5681 0.5680 0.5955
vn -0.0272 0.6649 -0.7464
vn -0.5183 0.7100 0.4767
vn 0.7744 -0.6301 0.0570
vn 0.1045 -0.9941 0.0279
vn -0.0000 -0.0000 1.0000
vn -0.3457 -0.7397 0.5774
vn 0.7176 -0.6700 0.1898
vn 0.0408 -0.8914 -0.4514
vn -0.5501 -0.6979 0.4587
vn -0.5774 0.5774 -0.5773
vn 0.6487 -0.2439 0.7209
vn 0.7399 -0.3228 0.5902
vn -0.0000 -0.9935 0.1137
vn 0.7035 -0.0659 0.7077
vn 0.7227 -0.5014 -0.4757
vn 0.7219 0.5447 -0.4268
vn -0.7343 -0.5096 -0.4485
vn -0.5774 -0.5773 0.5774
vn -0.5774 0.8164 0.0099
vn -0.6978 -0.0846 -0.7113
vn -0.7166 -0.5104 0.4753
vn -0.7161 0.5647 0.4103
vn -0.7077 0.1860 0.6815
vn -0.5774 0.5773 -0.5774
vn -0.5774 -0.7090 -0.4050
vn -0.7017 -0.5656 -0.4332
vn -0.7200 0.1183 0.6838
vn -0.7004 0.4879 -0.5209
vn 0.0766 -0.7047 -0.7054
vn -0.6774 -0.1509 -0.7199
vn -0.0678 0.3550 -0.9324
vn -0.5307 0.8301 0.1711
vn -0.7652 0.2849 0.5774
vn -0.3396 0.7425 0.5774
vn -0.0068 -0.8165 0.5774
vn 0.6456 0.2885 0.7071
vn -0.2851 -0.7651 0.5774
vn -0.5541 -0.5774 0.5997
vn -0.4061 -0.8467 -0.3436
vn -0.2891 0.3138 -0.9044
vn 0.0147 0.8164 -0.5774
vn 0.4509 -0.6806 -0.5775
vn -0.1115 -0.8081 -0.5784
vn -0.4170 0.0942 -0.9040
vn -0.5194 0.8537 0.0364
vn 0.5988 -0.4784 0.6423
vn 0.8914 -0.3205 -0.3205
vn 0.8953 0.3150 -0.3149
vt 0.000000 1.000000
vt 0.625000 0.750000
vt 0.375000 0.750000
vt 0.375000 0.500000
vt 0.125000 0.500000
vt 0.875000 0.500000
vt 0.625000 0.500000
vt 0.875000 0.386182
vt 0.625000 0.386182
vt 0.560497 0.132717
vt 0.561553 0.134748
vt 0.552475 0.132717
vt 0.125000 0.386182
vt 0.375000 0.250000
vt 0.625000 0.250000
vt 0.378602 0.236526
vt 0.378602 0.013474
vt 0.375000 0.000000
vt 0.601350 0.077316
vt 0.400898 0.077316
vt 0.584928 0.081600
vt 0.625000 1.000000
vt 0.125000 0.250000
vt 0.584928 0.168400
vt 0.400898 0.172684
vt 0.601350 0.172684
vt 0.552475 0.117283
vt 0.551420 0.134748
vt 0.551420 0.115252
vt 0.875000 0.250000
vt 0.625000 0.863818
vt 0.561553 0.115252
vt 0.375000 0.386182
vt 0.621398 0.236526
vt 0.621398 0.013474
vt 0.417320 0.168400
vt 0.417320 0.081600
vt 0.375000 1.000000
vt 0.625000 0.000000
vt 0.560498 0.117283
vt 0.375000 0.863818
s 1
usemtl m0
f 1/1/1 2/1/2 3/1/3
f 1/1/1 3/1/3 4/1/4
f 2/1/2 5/1/5 3/1/3
f 6/1/6 8/1/7 9/1/8
f 6/1/6 9/1/8 7/1/9
f 254/1/10 252/1/11 255/1/12
f 243/1/13 250/1/14 253/1/15
f 153/2/16 145/3/17 152/3/18
f 235/1/19 232/1/20 236/1/21
f 5/1/5 6/1/6 7/1/9
f 160/1/22 159/1/23 192/1/24
f 11/1/25 10/1/26 15/1/27
f 11/1/25 15/1/27 16/1/28
f 146/2/29 144/3/30 145/3/17
f 12/1/31 13/1/32 17/1/33
f 13/1/32 14/1/34 18/1/35
f 13/1/32 18/1/35 17/1/33
f 8/1/7 19/1/36 9/1/8
f 233/1/37 230/1/38 234/1/39
f 20/1/40 22/1/41 23/1/42
f 20/1/40 23/1/42 21/1/43
f 179/1/44 180/1/45 181/1/46
f 251/1/47 212/1/48 252/1/11
f 14/1/34 24/1/49 27/1/50
f 14/1/34 27/1/50 18/1/35
f 25/1/51 26/1/52 28/1/53
f 22/1/41 29/1/54 30/1/55
f 22/1/41 30/1/55 23/1/42
f 29/1/54 31/1/56 30/1/55
f 32/1/57 34/1/58 35/1/59
f 32/1/57 35/1/59 33/1/60
f 52/1/61 51/1/62 53/1/63
f 85/4/64 81/5/65 90/5/66
f 38/1/67 35/1/59 39/1/68
f 26/1/52 36/1/69 40/1/70
f 26/1/52 40/1/70 28/1/53
f 75/6/71 68/7/72 72/7/73
f 37/1/74 38/1/67 41/1/75
f 38/1/67 39/1/68 42/1/76
f 38/1/67 42/1/76 41/1/75
f 34/1/58 43/1/77 35/1/59
f 44/1/78 1/1/1 4/1/4
f 44/1/78 4/1/4 45/1/79
f 56/1/80 17/1/33 57/1/81
f 93/7/82 91/4/83 92/4/82
f 147/4/84 148/7/85 151/4/86
f 86/7/87 84/4/88 85/4/64
f 189/1/89 186/1/90 190/1/91
f 39/1/68 46/1/92 48/1/93
f 39/1/68 48/1/93 42/1/76
f 97/4/94 95/5/95 96/5/96
f 47/1/97 11/1/25 16/1/28
f 34/1/58 32/1/57 49/1/98
f 32/1/57 50/1/99 49/1/98
f 59/1/100 57/1/81 60/1/101
f 29/1/54 22/1/41 20/1/40
f 29/1/54 20/1/40 51/1/62
f 238/1/102 239/1/103 240/1/104
f 78/3/105 74/2/106 75/2/71
f 48/1/93 55/1/107 58/1/108
f 236/1/21 254/1/10 235/1/19
f 10/1/26 7/1/9 12/1/31
f 44/1/78 52/1/61 2/1/2
f 44/1/78 2/1/2 1/1/1
f 50/1/99 29/1/54 51/1/62
f 53/1/63 54/1/109 6/1/6
f 54/1/109 8/1/7 6/1/6
f 16/1/28 15/1/27 55/1/107
f 15/1/27 56/1/80 55/1/107
f 17/1/33 18/1/35 27/1/50
f 17/1/33 27/1/50 57/1/81
f 256/8/110 127/7/111 135/9/112
f 88/7/113 85/4/64 91/4/83
f 48/1/93 47/1/97 16/1/28
f 89/2/114 90/3/66 87/2/115
f 114/5/116 107/4/117 113/5/118
f 48/1/93 58/1/108 41/1/75
f 48/1/93 41/1/75 42/1/76
f 92/4/119 94/5/120 95/5/95
f 59/1/100 60/1/101 40/1/70
f 60/1/101 28/1/53 40/1/70
f 162/1/121 164/1/122 165/1/123
f 41/1/75 59/1/100 40/1/70
f 83/7/124 82/4/125 84/4/88
f 124/10/126 102/11/127 105/12/128
f 87/6/115 83/7/124 86/7/87
f 161/1/129 168/1/130 170/1/131
f 122/4/132 121/5/133 117/4/134
f 27/1/50 25/1/51 28/1/53
f 109/7/135 111/6/136 106/7/137
f 190/1/91 188/1/138 191/1/139
f 73/3/140 63/2/141 74/2/106
f 154/1/142 191/1/139 155/1/143
f 169/1/144 172/1/145 175/1/146
f 208/1/147 204/1/148 209/1/149
f 167/1/150 165/1/123 168/1/130
f 118/4/151 113/5/118 107/4/117
f 133/13/152 130/4/153 132/5/154
f 71/4/155 73/5/140 78/5/105
f 130/4/156 128/7/157 129/4/158
f 130/4/156 135/9/159 127/7/160
f 137/4/161 140/7/162 147/4/84
f 76/7/163 71/4/155 82/4/125
f 60/1/101 27/1/50 28/1/53
f 153/6/16 148/7/164 146/6/29
f 70/14/165 65/7/165 69/15/165
f 220/1/166 218/1/167 221/1/168
f 142/2/169 143/3/170 144/3/30
f 82/4/125 78/5/105 79/5/171
f 58/1/108 57/1/81 59/1/100
f 74/6/106 65/7/172 68/7/72
f 147/4/84 143/5/170 137/4/161
f 178/1/173 193/1/174 194/1/175
f 37/1/74 33/1/60 38/1/67
f 232/1/20 228/1/176 233/1/37
f 100/6/177 93/7/178 101/7/179
f 15/1/27 12/1/31 17/1/33
f 151/4/86 149/7/180 150/4/181
f 239/1/103 244/1/182 247/1/183
f 125/6/184 116/7/185 123/6/186
f 67/4/187 65/7/172 66/4/188
f 79/3/171 75/2/71 77/2/189
f 131/16/190 133/17/191 61/18/192
f 91/4/83 90/5/66 94/5/120
f 123/2/193 119/3/194 121/3/195
f 104/4/196 96/5/197 103/5/198
f 90/3/66 80/2/199 87/2/115
f 118/4/200 116/7/201 117/4/202
f 83/7/124 77/6/189 76/7/163
f 102/7/203 100/6/177 101/7/179
f 109/7/135 107/4/204 108/4/205
f 111/2/206 114/3/207 113/3/208
f 142/6/169 136/7/209 141/6/210
f 43/1/77 44/1/78 45/1/79
f 153/19/16 152/20/18 115/21/211
f 141/2/210 138/3/212 143/3/170
f 105/4/213 120/5/214 122/4/215
f 166/1/216 162/1/121 167/1/150
f 234/1/39 238/1/102 241/1/217
f 129/4/158 143/5/170 138/5/212
f 84/4/88 79/5/171 81/5/65
f 176/1/218 179/1/44 183/1/219
f 139/2/220 132/3/154 138/3/212
f 26/1/52 30/1/55 36/1/69
f 155/1/143 156/1/221 157/1/222
f 139/6/220 127/7/223 134/6/224
f 209/1/149 214/1/225 219/1/226
f 123/6/227 110/7/228 112/6/229
f 207/1/230 200/1/231 202/1/232
f 129/4/158 132/5/154 130/4/233
f 158/1/234 160/1/22 185/1/235
f 156/1/221 162/1/121 157/1/222
f 191/1/139 163/1/236 156/1/221
f 163/1/236 171/1/237 164/1/122
f 120/3/238 125/2/239 121/3/240
f 46/1/92 45/1/79 47/1/97
f 206/1/241 198/1/242 205/1/243
f 162/1/121 163/1/236 164/1/122
f 64/3/244 62/22/245 63/2/246
f 47/1/97 4/1/4 11/1/25
f 194/1/175 192/1/24 195/1/247
f 159/1/23 166/1/216 161/1/129
f 168/1/130 171/1/237 169/1/144
f 168/1/130 169/1/144 170/1/131
f 172/1/145 173/1/248 174/1/249
f 150/4/181 145/5/17 151/4/86
f 24/1/49 21/1/43 25/1/51
f 180/1/45 186/1/90 189/1/89
f 158/1/234 155/1/143 159/1/23
f 169/1/144 177/1/250 170/1/131
f 175/1/146 176/1/218 178/1/173
f 173/1/248 179/1/44 174/1/249
f 180/1/45 154/1/142 181/1/46
f 129/4/158 136/7/209 137/4/161
f 13/1/32 9/1/8 14/1/34
f 186/1/90 187/1/251 188/1/138
f 219/1/226 216/1/252 220/1/166
f 179/1/44 181/1/46 182/1/253
f 183/1/219 182/1/253 184/1/254
f 184/1/254 158/1/234 185/1/235
f 173/1/248 172/1/145 186/1/90
f 171/1/237 163/1/236 187/1/251
f 96/3/255 100/2/256 103/3/257
f 231/1/258 228/1/176 232/1/20
f 67/4/187 64/5/259 73/5/140
f 71/4/155 68/7/72 67/4/187
f 245/1/260 224/1/261 246/1/262
f 178/1/173 184/1/254 185/1/235
f 180/1/45 189/1/89 154/1/142
f 25/1/51 23/1/42 26/1/52
f 191/1/139 156/1/221 155/1/143
f 184/1/254 154/1/142 158/1/234
f 159/1/23 161/1/129 192/1/24
f 185/1/235 160/1/22 193/1/174
f 81/3/65 77/2/189 80/2/199
f 175/1/146 174/1/249 176/1/218
f 159/1/23 157/1/222 166/1/216
f 14/1/34 19/1/36 24/1/49
f 19/1/36 20/1/40 21/1/43
f 195/1/247 170/1/131 177/1/250
f 178/1/173 194/1/175 175/1/146
f 196/1/263 197/1/264 198/1/242
f 196/1/263 198/1/242 199/1/265
f 197/1/264 200/1/231 198/1/242
f 201/1/266 203/1/267 204/1/148
f 201/1/266 204/1/148 202/1/232
f 186/1/90 171/1/237 187/1/251
f 2/1/2 53/1/63 6/1/6
f 207/1/230 202/1/232 208/1/147
f 206/1/241 205/1/243 210/1/268
f 206/1/241 210/1/268 211/1/269
f 222/1/270 220/1/166 223/1/271
f 207/1/230 208/1/147 212/1/48
f 208/1/147 209/1/149 213/1/272
f 208/1/147 213/1/272 212/1/48
f 203/1/267 214/1/225 204/1/148
f 248/1/273 246/1/262 249/1/274
f 215/1/275 217/1/276 218/1/167
f 215/1/275 218/1/167 216/1/252
f 122/4/277 116/7/201 124/7/278
f 214/1/225 215/1/275 216/1/252
f 195/1/247 161/1/129 170/1/131
f 226/1/279 227/1/280 228/1/176
f 209/1/149 219/1/226 222/1/270
f 209/1/149 222/1/270 213/1/272
f 194/1/175 195/1/247 177/1/250
f 220/1/166 221/1/168 223/1/271
f 217/1/276 224/1/261 225/1/281
f 217/1/276 225/1/281 218/1/167
f 224/1/261 226/1/279 225/1/281
f 227/1/280 229/1/282 230/1/38
f 227/1/280 230/1/38 228/1/176
f 242/1/283 199/1/265 206/1/241
f 117/4/134 119/5/284 118/4/151
f 53/1/63 51/1/62 54/1/109
f 210/1/268 207/1/230 212/1/48
f 11/1/25 3/1/3 10/1/26
f 95/3/285 89/2/286 98/2/287
f 221/1/168 231/1/258 235/1/19
f 221/1/168 235/1/19 223/1/271
f 255/1/12 222/1/270 223/1/271
f 232/1/20 233/1/37 236/1/21
f 233/1/37 234/1/39 237/1/288
f 233/1/37 237/1/288 236/1/21
f 229/1/282 238/1/102 230/1/38
f 221/1/168 225/1/281 231/1/258
f 239/1/103 196/1/263 199/1/265
f 239/1/103 199/1/265 240/1/104
f 247/1/183 246/1/262 248/1/273
f 12/1/31 7/1/9 13/1/32
f 124/7/289 125/6/290 126/6/291
f 141/6/210 128/7/157 139/6/220
f 253/1/15 252/1/11 254/1/10
f 234/1/39 241/1/217 243/1/13
f 234/1/39 243/1/13 237/1/288
f 241/1/217 240/1/104 242/1/283
f 242/1/283 206/1/241 211/1/269
f 229/1/282 227/1/280 244/1/182
f 227/1/280 245/1/260 244/1/182
f 197/1/264 248/1/273 201/1/266
f 224/1/261 217/1/276 215/1/275
f 224/1/261 215/1/275 246/1/262
f 31/1/56 32/1/57 33/1/60
f 89/6/292 86/7/293 88/7/293
f 243/1/13 242/1/283 211/1/269
f 112/6/229 106/7/137 111/6/136
f 98/6/294 88/7/295 93/7/295
f 239/1/103 247/1/183 197/1/264
f 239/1/103 197/1/264 196/1/263
f 248/1/273 249/1/274 201/1/266
f 249/1/274 203/1/267 201/1/266
f 211/1/269 210/1/268 250/1/14
f 210/1/268 251/1/47 250/1/14
f 40/1/70 37/1/74 41/1/75
f 212/1/48 213/1/272 222/1/270
f 212/1/48 222/1/270 252/1/11
f 107/4/204 110/7/200 118/4/200
f 36/1/69 33/1/60 37/1/74
f 54/1/109 20/1/40 8/1/7
f 243/1/13 253/1/15 236/1/21
f 243/1/13 236/1/21 237/1/288
f 254/1/10 255/1/12 235/1/19
f 255/1/12 223/1/271 235/1/19
f 61/23/296 66/4/111 70/14/111
f 249/1/274 215/1/275 203/1/267
f 151/4/86 144/5/30 147/4/84
f 200/1/231 201/1/266 202/1/232
f 109/24/135 150/25/181 149/26/180
f 120/27/297 104/28/298 103/29/299
f 69/15/153 63/6/300 62/30/301
f 39/1/68 43/1/77 46/1/92
f 256/31/302 132/3/154 134/2/303
f 119/3/194 111/2/206 113/3/208
f 44/1/78 49/1/98 52/1/61
f 146/6/29 140/7/304 142/6/169
f 77/6/189 72/7/73 76/7/163
f 101/7/305 92/4/82 97/4/305
f 243/1/13 211/1/269 250/1/14
f 153/2/16 146/2/29 145/3/17
f 235/1/19 231/1/258 232/1/20
f 5/1/5 2/1/2 6/1/6
f 146/2/29 142/2/169 144/3/30
f 233/1/37 228/1/176 230/1/38
f 179/1/44 173/1/248 180/1/45
f 251/1/47 210/1/268 212/1/48
f 231/1/258 225/1/281 226/1/279
f 159/1/23 155/1/143 157/1/222
f 52/1/61 50/1/99 51/1/62
f 85/4/64 84/4/88 81/5/65
f 38/1/67 33/1/60 35/1/59
f 75/6/71 74/6/106 68/7/72
f 56/1/80 15/1/27 17/1/33
f 93/7/82 88/7/113 91/4/83
f 177/1/250 169/1/144 175/1/146
f 147/4/84 140/7/162 148/7/85
f 86/7/87 83/7/124 84/4/88
f 97/4/94 92/4/119 95/5/95
f 238/1/102 229/1/282 239/1/103
f 78/3/105 73/3/140 74/2/106
f 48/1/93 16/1/28 55/1/107
f 236/1/21 253/1/15 254/1/10
f 10/1/26 5/1/5 7/1/9
f 50/1/99 32/1/57 29/1/54
f 256/8/306 134/6/224 127/7/223
f 88/7/113 86/7/87 85/4/64
f 191/1/139 188/1/138 187/1/251
f 48/1/93 46/1/92 47/1/97
f 253/1/15 250/1/14 251/1/47
f 89/2/114 94/3/307 90/3/66
f 114/5/116 108/4/205 107/4/117
f 92/4/119 91/4/83 94/5/120
f 41/1/75 58/1/108 59/1/100
f 83/7/124 76/7/163 82/4/125
f 124/10/289 99/32/308 102/11/309
f 87/6/115 80/6/199 83/7/124
f 161/1/129 166/1/216 168/1/130
f 122/4/132 120/5/310 121/5/133
f 27/1/50 24/1/49 25/1/51
f 109/7/135 115/6/211 111/6/136
f 190/1/91 186/1/90 188/1/138
f 73/3/140 64/3/259 63/2/141
f 154/1/142 189/1/89 191/1/139
f 169/1/144 171/1/237 172/1/145
f 208/1/147 202/1/232 204/1/148
f 167/1/150 162/1/121 165/1/123
f 118/4/151 119/5/284 113/5/118
f 133/13/311 131/33/312 130/4/156
f 71/4/155 67/4/187 73/5/140
f 130/4/156 127/7/160 128/7/157
f 130/4/156 131/33/312 135/9/159
f 137/4/161 136/7/209 140/7/162
f 76/7/163 72/7/73 71/4/155
f 52/1/61 49/1/98 50/1/99
f 60/1/101 57/1/81 27/1/50
f 153/6/16 149/7/180 148/7/85
f 70/14/165 66/4/188 65/7/172
f 220/1/166 216/1/252 218/1/167
f 142/2/169 141/2/210 143/3/170
f 82/4/125 71/4/155 78/5/105
f 58/1/108 56/1/80 57/1/81
f 74/6/106 63/6/141 65/7/172
f 247/1/183 244/1/182 245/1/260
f 147/4/84 144/5/30 143/5/170
f 178/1/173 185/1/235 193/1/174
f 36/1/69 30/1/55 31/1/56
f 100/6/313 98/6/314 93/7/178
f 15/1/27 10/1/26 12/1/31
f 151/4/86 148/7/85 149/7/180
f 239/1/103 229/1/282 244/1/182
f 125/6/315 124/7/316 116/7/316
f 67/4/187 68/7/72 65/7/172
f 79/3/171 78/3/105 75/2/71
f 70/14/317 69/15/317 131/16/190
f 69/15/317 135/34/159 131/16/312
f 133/17/152 256/35/302 61/18/318
f 70/14/317 131/16/190 61/18/192
f 91/4/83 85/4/64 90/5/66
f 123/2/193 112/2/319 119/3/194
f 104/4/320 97/4/111 96/5/321
f 90/3/66 81/3/65 80/2/199
f 118/4/200 110/7/200 116/7/201
f 168/1/130 165/1/123 164/1/122
f 83/7/124 80/6/199 77/6/189
f 102/7/203 99/6/322 100/6/177
f 109/7/135 106/7/204 107/4/204
f 111/2/323 115/2/211 114/3/324
f 142/6/169 140/7/162 136/7/209
f 43/1/77 34/1/58 44/1/78
f 109/24/135 149/26/180 153/19/16
f 152/20/18 150/25/181 108/36/205
f 152/20/18 108/36/205 114/37/116
f 115/21/211 109/24/135 153/19/16
f 152/20/18 114/37/324 115/21/211
f 141/2/210 139/2/220 138/3/212
f 166/1/216 157/1/222 162/1/121
f 234/1/39 230/1/38 238/1/102
f 129/4/158 137/4/161 143/5/170
f 84/4/88 82/4/125 79/5/171
f 176/1/218 174/1/249 179/1/44
f 139/2/220 134/2/303 132/3/154
f 58/1/108 55/1/107 56/1/80
f 26/1/52 23/1/42 30/1/55
f 139/6/220 128/7/157 127/7/223
f 209/1/149 204/1/148 214/1/225
f 123/6/227 116/7/325 110/7/228
f 207/1/230 205/1/243 200/1/231
f 129/4/158 138/5/212 132/5/154
f 176/1/218 183/1/219 184/1/254
f 160/1/22 158/1/234 159/1/23
f 191/1/139 187/1/251 163/1/236
f 125/2/326 123/2/327 121/3/328
f 120/3/238 126/2/291 125/2/239
f 46/1/92 43/1/77 45/1/79
f 206/1/241 199/1/265 198/1/242
f 162/1/121 156/1/221 163/1/236
f 64/3/329 61/38/330 62/22/331
f 47/1/97 45/1/79 4/1/4
f 194/1/175 193/1/174 192/1/24
f 175/1/146 194/1/175 177/1/250
f 168/1/130 164/1/122 171/1/237
f 150/4/181 152/5/18 145/5/17
f 24/1/49 19/1/36 21/1/43
f 180/1/45 173/1/248 186/1/90
f 158/1/234 154/1/142 155/1/143
f 184/1/254 182/1/253 181/1/46
f 129/4/158 128/7/157 136/7/209
f 13/1/32 7/1/9 9/1/8
f 219/1/226 214/1/225 216/1/252
f 183/1/219 179/1/44 182/1/253
f 96/3/332 95/3/333 98/2/334
f 100/2/335 99/2/336 103/3/337
f 96/3/338 98/2/339 100/2/340
f 231/1/258 226/1/279 228/1/176
f 67/4/187 66/4/188 64/5/259
f 71/4/155 72/7/73 68/7/72
f 245/1/260 227/1/280 224/1/261
f 178/1/173 176/1/218 184/1/254
f 25/1/51 21/1/43 23/1/42
f 184/1/254 181/1/46 154/1/142
f 189/1/89 190/1/91 191/1/139
f 81/3/65 79/3/171 77/2/189
f 175/1/146 172/1/145 174/1/249
f 14/1/34 9/1/8 19/1/36
f 19/1/36 8/1/7 20/1/40
f 205/1/243 198/1/242 200/1/231
f 193/1/174 160/1/22 192/1/24
f 186/1/90 172/1/145 171/1/237
f 2/1/2 52/1/61 53/1/63
f 222/1/270 219/1/226 220/1/166
f 122/4/277 117/4/202 116/7/201
f 124/7/278 105/4/341 122/4/277
f 214/1/225 203/1/267 215/1/275
f 195/1/247 192/1/24 161/1/129
f 226/1/279 224/1/261 227/1/280
f 242/1/283 240/1/104 199/1/265
f 117/4/134 121/5/133 119/5/284
f 210/1/268 205/1/243 207/1/230
f 11/1/25 4/1/4 3/1/3
f 95/3/342 94/3/307 89/2/114
f 255/1/12 252/1/11 222/1/270
f 221/1/168 218/1/167 225/1/281
f 247/1/183 245/1/260 246/1/262
f 141/6/210 136/7/209 128/7/157
f 253/1/15 251/1/47 252/1/11
f 241/1/217 238/1/102 240/1/104
f 197/1/264 247/1/183 248/1/273
f 31/1/56 29/1/54 32/1/57
f 89/6/343 87/6/344 86/7/293
f 243/1/13 241/1/217 242/1/283
f 112/6/229 110/7/228 106/7/137
f 98/6/287 89/6/286 88/7/295
f 166/1/216 167/1/150 168/1/130
f 40/1/70 36/1/69 37/1/74
f 135/34/159 69/15/317 62/39/345
f 62/39/346 61/18/347 256/35/348
f 256/35/349 135/34/159 62/39/345
f 107/4/204 106/7/204 110/7/200
f 36/1/69 31/1/56 33/1/60
f 54/1/109 51/1/62 20/1/40
f 61/23/350 64/5/351 66/4/111
f 249/1/274 246/1/262 215/1/275
f 151/4/86 145/5/17 144/5/30
f 200/1/231 197/1/264 201/1/266
f 109/24/135 108/36/205 150/25/181
f 99/32/308 124/10/289 126/40/291
f 99/32/308 126/40/291 120/27/238
f 105/12/352 102/11/353 104/28/354
f 103/29/355 99/32/308 120/27/238
f 120/27/356 105/12/352 104/28/354
f 69/15/153 65/7/153 63/6/357
f 39/1/68 35/1/59 43/1/77
f 256/31/302 133/41/152 132/3/154
f 119/3/194 112/2/319 111/2/206
f 44/1/78 34/1/58 49/1/98
f 146/6/358 148/7/304 140/7/304
f 10/1/26 3/1/3 5/1/5
f 77/6/189 75/6/71 72/7/73
f 97/4/305 104/4/359 102/7/360
f 101/7/305 93/7/82 92/4/82
f 97/4/305 102/7/360 101/7/305
