# Blender 5.2.2 LTS
# www.blender.org
mtllib StainlessTable.mtl
o StainlessTable
v -0.600000 0.820000 0.685000
v -0.600000 0.820000 0.000000
v -0.600000 0.890000 0.000000
v -0.600000 0.893827 0.000761
v -0.600000 0.897071 0.002929
v -0.600000 0.899239 0.006173
v -0.600000 0.900000 0.010000
v -0.600000 0.899239 0.013827
v -0.600000 0.897071 0.017071
v -0.600000 0.893827 0.019239
v -0.600000 0.890000 0.020000
v -0.600000 0.850000 0.020000
v -0.600000 0.850000 0.685000
v -0.600000 0.849266 0.689635
v -0.600000 0.847135 0.693817
v -0.600000 0.843817 0.697135
v -0.600000 0.839635 0.699266
v -0.600000 0.835000 0.700000
v -0.600000 0.830365 0.699266
v -0.600000 0.826183 0.697135
v -0.600000 0.822865 0.693817
v -0.600000 0.820734 0.689635
v 0.600000 0.820000 0.685000
v 0.600000 0.820000 0.000000
v 0.600000 0.890000 0.000000
v 0.600000 0.893827 0.000761
v 0.600000 0.897071 0.002929
v 0.600000 0.899239 0.006173
v 0.600000 0.900000 0.010000
v 0.600000 0.899239 0.013827
v 0.600000 0.897071 0.017071
v 0.600000 0.893827 0.019239
v 0.600000 0.890000 0.020000
v 0.600000 0.850000 0.020000
v 0.600000 0.850000 0.685000
v 0.600000 0.849266 0.689635
v 0.600000 0.847135 0.693817
v 0.600000 0.843817 0.697135
v 0.600000 0.839635 0.699266
v 0.600000 0.835000 0.700000
v 0.600000 0.830365 0.699266
v 0.600000 0.826183 0.697135
v 0.600000 0.822865 0.693817
v 0.600000 0.820734 0.689635
v -0.550000 0.060000 0.070000
v -0.532500 0.060000 0.070000
v -0.534233 0.060000 0.062407
v -0.539089 0.060000 0.056318
v -0.546106 0.060000 0.052939
v -0.553894 0.060000 0.052939
v -0.560911 0.060000 0.056318
v -0.565767 0.060000 0.062407
v -0.567500 0.060000 0.070000
v -0.565767 0.060000 0.077593
v -0.560911 0.060000 0.083682
v -0.553894 0.060000 0.087061
v -0.546106 0.060000 0.087061
v -0.539089 0.060000 0.083682
v -0.534233 0.060000 0.077593
v -0.531000 0.061500 0.070000
v -0.532882 0.061500 0.061756
v -0.538154 0.061500 0.055145
v -0.545772 0.061500 0.051476
v -0.554228 0.061500 0.051476
v -0.561846 0.061500 0.055145
v -0.567118 0.061500 0.061756
v -0.569000 0.061500 0.070000
v -0.567118 0.061500 0.078244
v -0.561846 0.061500 0.084855
v -0.554228 0.061500 0.088524
v -0.545772 0.061500 0.088524
v -0.538154 0.061500 0.084855
v -0.532882 0.061500 0.078244
v -0.531000 0.820000 0.070000
v -0.532882 0.820000 0.061756
v -0.538154 0.820000 0.055145
v -0.545772 0.820000 0.051476
v -0.554228 0.820000 0.051476
v -0.561846 0.820000 0.055145
v -0.567118 0.820000 0.061756
v -0.569000 0.820000 0.070000
v -0.567118 0.820000 0.078244
v -0.561846 0.820000 0.084855
v -0.554228 0.820000 0.088524
v -0.545772 0.820000 0.088524
v -0.538154 0.820000 0.084855
v -0.532882 0.820000 0.078244
v -0.550000 0.000000 0.070000
v -0.524000 0.000000 0.070000
v -0.527483 0.000000 0.057000
v -0.537000 0.000000 0.047483
v -0.550000 0.000000 0.044000
v -0.563000 0.000000 0.047483
v -0.572517 0.000000 0.057000
v -0.576000 0.000000 0.070000
v -0.572517 0.000000 0.083000
v -0.563000 0.000000 0.092517
v -0.550000 0.000000 0.096000
v -0.537000 0.000000 0.092517
v -0.527483 0.000000 0.083000
v -0.522000 0.002000 0.070000
v -0.525751 0.002000 0.056000
v -0.536000 0.002000 0.045751
v -0.550000 0.002000 0.042000
v -0.564000 0.002000 0.045751
v -0.574249 0.002000 0.056000
v -0.578000 0.002000 0.070000
v -0.574249 0.002000 0.084000
v -0.564000 0.002000 0.094249
v -0.550000 0.002000 0.098000
v -0.536000 0.002000 0.094249
v -0.525751 0.002000 0.084000
v -0.522000 0.006000 0.070000
v -0.525751 0.006000 0.056000
v -0.536000 0.006000 0.045751
v -0.550000 0.006000 0.042000
v -0.564000 0.006000 0.045751
v -0.574249 0.006000 0.056000
v -0.578000 0.006000 0.070000
v -0.574249 0.006000 0.084000
v -0.564000 0.006000 0.094249
v -0.550000 0.006000 0.098000
v -0.536000 0.006000 0.094249
v -0.525751 0.006000 0.084000
v -0.529000 0.011000 0.070000
v -0.531814 0.011000 0.059500
v -0.539500 0.011000 0.051813
v -0.550000 0.011000 0.049000
v -0.560500 0.011000 0.051813
v -0.568187 0.011000 0.059500
v -0.571000 0.011000 0.070000
v -0.568187 0.011000 0.080500
v -0.560500 0.011000 0.088187
v -0.550000 0.011000 0.091000
v -0.539500 0.011000 0.088187
v -0.531814 0.011000 0.080500
v -0.540000 0.016000 0.070000
v -0.541340 0.016000 0.065000
v -0.545000 0.016000 0.061340
v -0.550000 0.016000 0.060000
v -0.555000 0.016000 0.061340
v -0.558660 0.016000 0.065000
v -0.560000 0.016000 0.070000
v -0.558660 0.016000 0.075000
v -0.555000 0.016000 0.078660
v -0.550000 0.016000 0.080000
v -0.545000 0.016000 0.078660
v -0.541340 0.016000 0.075000
v -0.541500 0.020000 0.070000
v -0.542639 0.020000 0.065750
v -0.545750 0.020000 0.062639
v -0.550000 0.020000 0.061500
v -0.554250 0.020000 0.062639
v -0.557361 0.020000 0.065750
v -0.558500 0.020000 0.070000
v -0.557361 0.020000 0.074250
v -0.554250 0.020000 0.077361
v -0.550000 0.020000 0.078500
v -0.545750 0.020000 0.077361
v -0.542639 0.020000 0.074250
v -0.543500 0.018000 0.070000
v -0.544741 0.018000 0.066179
v -0.547991 0.018000 0.063818
v -0.552009 0.018000 0.063818
v -0.555259 0.018000 0.066179
v -0.556500 0.018000 0.070000
v -0.555259 0.018000 0.073821
v -0.552009 0.018000 0.076182
v -0.547991 0.018000 0.076182
v -0.544741 0.018000 0.073821
v -0.543500 0.064000 0.070000
v -0.544741 0.064000 0.066179
v -0.547991 0.064000 0.063818
v -0.552009 0.064000 0.063818
v -0.555259 0.064000 0.066179
v -0.556500 0.064000 0.070000
v -0.555259 0.064000 0.073821
v -0.552009 0.064000 0.076182
v -0.547991 0.064000 0.076182
v -0.544741 0.064000 0.073821
v -0.543500 0.045000 0.070000
v -0.544371 0.045000 0.066750
v -0.546750 0.045000 0.064371
v -0.550000 0.045000 0.063500
v -0.553250 0.045000 0.064371
v -0.555629 0.045000 0.066750
v -0.556500 0.045000 0.070000
v -0.555629 0.045000 0.073250
v -0.553250 0.045000 0.075629
v -0.550000 0.045000 0.076500
v -0.546750 0.045000 0.075629
v -0.544371 0.045000 0.073250
v -0.539500 0.045000 0.070000
v -0.542125 0.045000 0.065453
v -0.544750 0.045000 0.060907
v -0.550000 0.045000 0.060907
v -0.555250 0.045000 0.060907
v -0.557875 0.045000 0.065453
v -0.560500 0.045000 0.070000
v -0.557875 0.045000 0.074547
v -0.555250 0.045000 0.079093
v -0.550000 0.045000 0.079093
v -0.544750 0.045000 0.079093
v -0.542125 0.045000 0.074547
v -0.538500 0.046500 0.070000
v -0.541375 0.046500 0.065020
v -0.544250 0.046500 0.060041
v -0.550000 0.046500 0.060041
v -0.555750 0.046500 0.060041
v -0.558625 0.046500 0.065020
v -0.561500 0.046500 0.070000
v -0.558625 0.046500 0.074980
v -0.555750 0.046500 0.079959
v -0.550000 0.046500 0.079959
v -0.544250 0.046500 0.079959
v -0.541375 0.046500 0.074980
v -0.538500 0.054500 0.070000
v -0.541375 0.054500 0.065020
v -0.544250 0.054500 0.060041
v -0.550000 0.054500 0.060041
v -0.555750 0.054500 0.060041
v -0.558625 0.054500 0.065020
v -0.561500 0.054500 0.070000
v -0.558625 0.054500 0.074980
v -0.555750 0.054500 0.079959
v -0.550000 0.054500 0.079959
v -0.544250 0.054500 0.079959
v -0.541375 0.054500 0.074980
v -0.539500 0.056000 0.070000
v -0.542125 0.056000 0.065453
v -0.544750 0.056000 0.060907
v -0.550000 0.056000 0.060907
v -0.555250 0.056000 0.060907
v -0.557875 0.056000 0.065453
v -0.560500 0.056000 0.070000
v -0.557875 0.056000 0.074547
v -0.555250 0.056000 0.079093
v -0.550000 0.056000 0.079093
v -0.544750 0.056000 0.079093
v -0.542125 0.056000 0.074547
v -0.543500 0.056000 0.070000
v -0.544371 0.056000 0.066750
v -0.546750 0.056000 0.064371
v -0.550000 0.056000 0.063500
v -0.553250 0.056000 0.064371
v -0.555629 0.056000 0.066750
v -0.556500 0.056000 0.070000
v -0.555629 0.056000 0.073250
v -0.553250 0.056000 0.075629
v -0.550000 0.056000 0.076500
v -0.546750 0.056000 0.075629
v -0.544371 0.056000 0.073250
v -0.595000 0.815000 0.115000
v -0.505000 0.815000 0.115000
v -0.595000 0.815000 0.025000
v -0.505000 0.815000 0.025000
v -0.595000 0.820000 0.115000
v -0.505000 0.820000 0.115000
v -0.595000 0.820000 0.025000
v -0.505000 0.820000 0.025000
v -0.550000 0.060000 0.630000
v -0.532500 0.060000 0.630000
v -0.534233 0.060000 0.622407
v -0.539089 0.060000 0.616318
v -0.546106 0.060000 0.612939
v -0.553894 0.060000 0.612939
v -0.560911 0.060000 0.616318
v -0.565767 0.060000 0.622407
v -0.567500 0.060000 0.630000
v -0.565767 0.060000 0.637593
v -0.560911 0.060000 0.643682
v -0.553894 0.060000 0.647061
v -0.546106 0.060000 0.647061
v -0.539089 0.060000 0.643682
v -0.534233 0.060000 0.637593
v -0.531000 0.061500 0.630000
v -0.532882 0.061500 0.621756
v -0.538154 0.061500 0.615145
v -0.545772 0.061500 0.611476
v -0.554228 0.061500 0.611476
v -0.561846 0.061500 0.615145
v -0.567118 0.061500 0.621756
v -0.569000 0.061500 0.630000
v -0.567118 0.061500 0.638244
v -0.561846 0.061500 0.644855
v -0.554228 0.061500 0.648524
v -0.545772 0.061500 0.648524
v -0.538154 0.061500 0.644855
v -0.532882 0.061500 0.638244
v -0.531000 0.820000 0.630000
v -0.532882 0.820000 0.621756
v -0.538154 0.820000 0.615145
v -0.545772 0.820000 0.611476
v -0.554228 0.820000 0.611476
v -0.561846 0.820000 0.615145
v -0.567118 0.820000 0.621756
v -0.569000 0.820000 0.630000
v -0.567118 0.820000 0.638244
v -0.561846 0.820000 0.644855
v -0.554228 0.820000 0.648524
v -0.545772 0.820000 0.648524
v -0.538154 0.820000 0.644855
v -0.532882 0.820000 0.638244
v -0.550000 0.000000 0.630000
v -0.524000 0.000000 0.630000
v -0.527483 0.000000 0.617000
v -0.537000 0.000000 0.607483
v -0.550000 0.000000 0.604000
v -0.563000 0.000000 0.607483
v -0.572517 0.000000 0.617000
v -0.576000 0.000000 0.630000
v -0.572517 0.000000 0.643000
v -0.563000 0.000000 0.652517
v -0.550000 0.000000 0.656000
v -0.537000 0.000000 0.652517
v -0.527483 0.000000 0.643000
v -0.522000 0.002000 0.630000
v -0.525751 0.002000 0.616000
v -0.536000 0.002000 0.605751
v -0.550000 0.002000 0.602000
v -0.564000 0.002000 0.605751
v -0.574249 0.002000 0.616000
v -0.578000 0.002000 0.630000
v -0.574249 0.002000 0.644000
v -0.564000 0.002000 0.654249
v -0.550000 0.002000 0.658000
v -0.536000 0.002000 0.654249
v -0.525751 0.002000 0.644000
v -0.522000 0.006000 0.630000
v -0.525751 0.006000 0.616000
v -0.536000 0.006000 0.605751
v -0.550000 0.006000 0.602000
v -0.564000 0.006000 0.605751
v -0.574249 0.006000 0.616000
v -0.578000 0.006000 0.630000
v -0.574249 0.006000 0.644000
v -0.564000 0.006000 0.654249
v -0.550000 0.006000 0.658000
v -0.536000 0.006000 0.654249
v -0.525751 0.006000 0.644000
v -0.529000 0.011000 0.630000
v -0.531814 0.011000 0.619500
v -0.539500 0.011000 0.611813
v -0.550000 0.011000 0.609000
v -0.560500 0.011000 0.611813
v -0.568187 0.011000 0.619500
v -0.571000 0.011000 0.630000
v -0.568187 0.011000 0.640500
v -0.560500 0.011000 0.648187
v -0.550000 0.011000 0.651000
v -0.539500 0.011000 0.648187
v -0.531814 0.011000 0.640500
v -0.540000 0.016000 0.630000
v -0.541340 0.016000 0.625000
v -0.545000 0.016000 0.621340
v -0.550000 0.016000 0.620000
v -0.555000 0.016000 0.621340
v -0.558660 0.016000 0.625000
v -0.560000 0.016000 0.630000
v -0.558660 0.016000 0.635000
v -0.555000 0.016000 0.638660
v -0.550000 0.016000 0.640000
v -0.545000 0.016000 0.638660
v -0.541340 0.016000 0.635000
v -0.541500 0.020000 0.630000
v -0.542639 0.020000 0.625750
v -0.545750 0.020000 0.622639
v -0.550000 0.020000 0.621500
v -0.554250 0.020000 0.622639
v -0.557361 0.020000 0.625750
v -0.558500 0.020000 0.630000
v -0.557361 0.020000 0.634250
v -0.554250 0.020000 0.637361
v -0.550000 0.020000 0.638500
v -0.545750 0.020000 0.637361
v -0.542639 0.020000 0.634250
v -0.543500 0.018000 0.630000
v -0.544741 0.018000 0.626179
v -0.547991 0.018000 0.623818
v -0.552009 0.018000 0.623818
v -0.555259 0.018000 0.626179
v -0.556500 0.018000 0.630000
v -0.555259 0.018000 0.633821
v -0.552009 0.018000 0.636182
v -0.547991 0.018000 0.636182
v -0.544741 0.018000 0.633821
v -0.543500 0.064000 0.630000
v -0.544741 0.064000 0.626179
v -0.547991 0.064000 0.623818
v -0.552009 0.064000 0.623818
v -0.555259 0.064000 0.626179
v -0.556500 0.064000 0.630000
v -0.555259 0.064000 0.633821
v -0.552009 0.064000 0.636182
v -0.547991 0.064000 0.636182
v -0.544741 0.064000 0.633821
v -0.543500 0.045000 0.630000
v -0.544371 0.045000 0.626750
v -0.546750 0.045000 0.624371
v -0.550000 0.045000 0.623500
v -0.553250 0.045000 0.624371
v -0.555629 0.045000 0.626750
v -0.556500 0.045000 0.630000
v -0.555629 0.045000 0.633250
v -0.553250 0.045000 0.635629
v -0.550000 0.045000 0.636500
v -0.546750 0.045000 0.635629
v -0.544371 0.045000 0.633250
v -0.539500 0.045000 0.630000
v -0.542125 0.045000 0.625453
v -0.544750 0.045000 0.620907
v -0.550000 0.045000 0.620907
v -0.555250 0.045000 0.620907
v -0.557875 0.045000 0.625453
v -0.560500 0.045000 0.630000
v -0.557875 0.045000 0.634547
v -0.555250 0.045000 0.639093
v -0.550000 0.045000 0.639093
v -0.544750 0.045000 0.639093
v -0.542125 0.045000 0.634547
v -0.538500 0.046500 0.630000
v -0.541375 0.046500 0.625020
v -0.544250 0.046500 0.620041
v -0.550000 0.046500 0.620041
v -0.555750 0.046500 0.620041
v -0.558625 0.046500 0.625020
v -0.561500 0.046500 0.630000
v -0.558625 0.046500 0.634980
v -0.555750 0.046500 0.639959
v -0.550000 0.046500 0.639959
v -0.544250 0.046500 0.639959
v -0.541375 0.046500 0.634980
v -0.538500 0.054500 0.630000
v -0.541375 0.054500 0.625020
v -0.544250 0.054500 0.620041
v -0.550000 0.054500 0.620041
v -0.555750 0.054500 0.620041
v -0.558625 0.054500 0.625020
v -0.561500 0.054500 0.630000
v -0.558625 0.054500 0.634980
v -0.555750 0.054500 0.639959
v -0.550000 0.054500 0.639959
v -0.544250 0.054500 0.639959
v -0.541375 0.054500 0.634980
v -0.539500 0.056000 0.630000
v -0.542125 0.056000 0.625453
v -0.544750 0.056000 0.620907
v -0.550000 0.056000 0.620907
v -0.555250 0.056000 0.620907
v -0.557875 0.056000 0.625453
v -0.560500 0.056000 0.630000
v -0.557875 0.056000 0.634547
v -0.555250 0.056000 0.639093
v -0.550000 0.056000 0.639093
v -0.544750 0.056000 0.639093
v -0.542125 0.056000 0.634547
v -0.543500 0.056000 0.630000
v -0.544371 0.056000 0.626750
v -0.546750 0.056000 0.624371
v -0.550000 0.056000 0.623500
v -0.553250 0.056000 0.624371
v -0.555629 0.056000 0.626750
v -0.556500 0.056000 0.630000
v -0.555629 0.056000 0.633250
v -0.553250 0.056000 0.635629
v -0.550000 0.056000 0.636500
v -0.546750 0.056000 0.635629
v -0.544371 0.056000 0.633250
v -0.595000 0.815000 0.675000
v -0.505000 0.815000 0.675000
v -0.595000 0.815000 0.585000
v -0.505000 0.815000 0.585000
v -0.595000 0.820000 0.675000
v -0.505000 0.820000 0.675000
v -0.595000 0.820000 0.585000
v -0.505000 0.820000 0.585000
v 0.550000 0.060000 0.070000
v 0.567500 0.060000 0.070000
v 0.565767 0.060000 0.062407
v 0.560911 0.060000 0.056318
v 0.553894 0.060000 0.052939
v 0.546106 0.060000 0.052939
v 0.539089 0.060000 0.056318
v 0.534233 0.060000 0.062407
v 0.532500 0.060000 0.070000
v 0.534233 0.060000 0.077593
v 0.539089 0.060000 0.083682
v 0.546106 0.060000 0.087061
v 0.553894 0.060000 0.087061
v 0.560911 0.060000 0.083682
v 0.565767 0.060000 0.077593
v 0.569000 0.061500 0.070000
v 0.567118 0.061500 0.061756
v 0.561846 0.061500 0.055145
v 0.554228 0.061500 0.051476
v 0.545772 0.061500 0.051476
v 0.538154 0.061500 0.055145
v 0.532882 0.061500 0.061756
v 0.531000 0.061500 0.070000
v 0.532882 0.061500 0.078244
v 0.538154 0.061500 0.084855
v 0.545772 0.061500 0.088524
v 0.554228 0.061500 0.088524
v 0.561846 0.061500 0.084855
v 0.567118 0.061500 0.078244
v 0.569000 0.820000 0.070000
v 0.567118 0.820000 0.061756
v 0.561846 0.820000 0.055145
v 0.554228 0.820000 0.051476
v 0.545772 0.820000 0.051476
v 0.538154 0.820000 0.055145
v 0.532882 0.820000 0.061756
v 0.531000 0.820000 0.070000
v 0.532882 0.820000 0.078244
v 0.538154 0.820000 0.084855
v 0.545772 0.820000 0.088524
v 0.554228 0.820000 0.088524
v 0.561846 0.820000 0.084855
v 0.567118 0.820000 0.078244
v 0.550000 0.000000 0.070000
v 0.576000 0.000000 0.070000
v 0.572517 0.000000 0.057000
v 0.563000 0.000000 0.047483
v 0.550000 0.000000 0.044000
v 0.537000 0.000000 0.047483
v 0.527483 0.000000 0.057000
v 0.524000 0.000000 0.070000
v 0.527483 0.000000 0.083000
v 0.537000 0.000000 0.092517
v 0.550000 0.000000 0.096000
v 0.563000 0.000000 0.092517
v 0.572517 0.000000 0.083000
v 0.578000 0.002000 0.070000
v 0.574249 0.002000 0.056000
v 0.564000 0.002000 0.045751
v 0.550000 0.002000 0.042000
v 0.536000 0.002000 0.045751
v 0.525751 0.002000 0.056000
v 0.522000 0.002000 0.070000
v 0.525751 0.002000 0.084000
v 0.536000 0.002000 0.094249
v 0.550000 0.002000 0.098000
v 0.564000 0.002000 0.094249
v 0.574249 0.002000 0.084000
v 0.578000 0.006000 0.070000
v 0.574249 0.006000 0.056000
v 0.564000 0.006000 0.045751
v 0.550000 0.006000 0.042000
v 0.536000 0.006000 0.045751
v 0.525751 0.006000 0.056000
v 0.522000 0.006000 0.070000
v 0.525751 0.006000 0.084000
v 0.536000 0.006000 0.094249
v 0.550000 0.006000 0.098000
v 0.564000 0.006000 0.094249
v 0.574249 0.006000 0.084000
v 0.571000 0.011000 0.070000
v 0.568187 0.011000 0.059500
v 0.560500 0.011000 0.051813
v 0.550000 0.011000 0.049000
v 0.539500 0.011000 0.051813
v 0.531814 0.011000 0.059500
v 0.529000 0.011000 0.070000
v 0.531814 0.011000 0.080500
v 0.539500 0.011000 0.088187
v 0.550000 0.011000 0.091000
v 0.560500 0.011000 0.088187
v 0.568187 0.011000 0.080500
v 0.560000 0.016000 0.070000
v 0.558660 0.016000 0.065000
v 0.555000 0.016000 0.061340
v 0.550000 0.016000 0.060000
v 0.545000 0.016000 0.061340
v 0.541340 0.016000 0.065000
v 0.540000 0.016000 0.070000
v 0.541340 0.016000 0.075000
v 0.545000 0.016000 0.078660
v 0.550000 0.016000 0.080000
v 0.555000 0.016000 0.078660
v 0.558660 0.016000 0.075000
v 0.558500 0.020000 0.070000
v 0.557361 0.020000 0.065750
v 0.554250 0.020000 0.062639
v 0.550000 0.020000 0.061500
v 0.545750 0.020000 0.062639
v 0.542639 0.020000 0.065750
v 0.541500 0.020000 0.070000
v 0.542639 0.020000 0.074250
v 0.545750 0.020000 0.077361
v 0.550000 0.020000 0.078500
v 0.554250 0.020000 0.077361
v 0.557361 0.020000 0.074250
v 0.556500 0.018000 0.070000
v 0.555259 0.018000 0.066179
v 0.552009 0.018000 0.063818
v 0.547991 0.018000 0.063818
v 0.544741 0.018000 0.066179
v 0.543500 0.018000 0.070000
v 0.544741 0.018000 0.073821
v 0.547991 0.018000 0.076182
v 0.552009 0.018000 0.076182
v 0.555259 0.018000 0.073821
v 0.556500 0.064000 0.070000
v 0.555259 0.064000 0.066179
v 0.552009 0.064000 0.063818
v 0.547991 0.064000 0.063818
v 0.544741 0.064000 0.066179
v 0.543500 0.064000 0.070000
v 0.544741 0.064000 0.073821
v 0.547991 0.064000 0.076182
v 0.552009 0.064000 0.076182
v 0.555259 0.064000 0.073821
v 0.556500 0.045000 0.070000
v 0.555629 0.045000 0.066750
v 0.553250 0.045000 0.064371
v 0.550000 0.045000 0.063500
v 0.546750 0.045000 0.064371
v 0.544371 0.045000 0.066750
v 0.543500 0.045000 0.070000
v 0.544371 0.045000 0.073250
v 0.546750 0.045000 0.075629
v 0.550000 0.045000 0.076500
v 0.553250 0.045000 0.075629
v 0.555629 0.045000 0.073250
v 0.560500 0.045000 0.070000
v 0.557875 0.045000 0.065453
v 0.555250 0.045000 0.060907
v 0.550000 0.045000 0.060907
v 0.544750 0.045000 0.060907
v 0.542125 0.045000 0.065453
v 0.539500 0.045000 0.070000
v 0.542125 0.045000 0.074547
v 0.544750 0.045000 0.079093
v 0.550000 0.045000 0.079093
v 0.555250 0.045000 0.079093
v 0.557875 0.045000 0.074547
v 0.561500 0.046500 0.070000
v 0.558625 0.046500 0.065020
v 0.555750 0.046500 0.060041
v 0.550000 0.046500 0.060041
v 0.544250 0.046500 0.060041
v 0.541375 0.046500 0.065020
v 0.538500 0.046500 0.070000
v 0.541375 0.046500 0.074980
v 0.544250 0.046500 0.079959
v 0.550000 0.046500 0.079959
v 0.555750 0.046500 0.079959
v 0.558625 0.046500 0.074980
v 0.561500 0.054500 0.070000
v 0.558625 0.054500 0.065020
v 0.555750 0.054500 0.060041
v 0.550000 0.054500 0.060041
v 0.544250 0.054500 0.060041
v 0.541375 0.054500 0.065020
v 0.538500 0.054500 0.070000
v 0.541375 0.054500 0.074980
v 0.544250 0.054500 0.079959
v 0.550000 0.054500 0.079959
v 0.555750 0.054500 0.079959
v 0.558625 0.054500 0.074980
v 0.560500 0.056000 0.070000
v 0.557875 0.056000 0.065453
v 0.555250 0.056000 0.060907
v 0.550000 0.056000 0.060907
v 0.544750 0.056000 0.060907
v 0.542125 0.056000 0.065453
v 0.539500 0.056000 0.070000
v 0.542125 0.056000 0.074547
v 0.544750 0.056000 0.079093
v 0.550000 0.056000 0.079093
v 0.555250 0.056000 0.079093
v 0.557875 0.056000 0.074547
v 0.556500 0.056000 0.070000
v 0.555629 0.056000 0.066750
v 0.553250 0.056000 0.064371
v 0.550000 0.056000 0.063500
v 0.546750 0.056000 0.064371
v 0.544371 0.056000 0.066750
v 0.543500 0.056000 0.070000
v 0.544371 0.056000 0.073250
v 0.546750 0.056000 0.075629
v 0.550000 0.056000 0.076500
v 0.553250 0.056000 0.075629
v 0.555629 0.056000 0.073250
v 0.505000 0.815000 0.115000
v 0.595000 0.815000 0.115000
v 0.505000 0.815000 0.025000
v 0.595000 0.815000 0.025000
v 0.505000 0.820000 0.115000
v 0.595000 0.820000 0.115000
v 0.505000 0.820000 0.025000
v 0.595000 0.820000 0.025000
v 0.550000 0.060000 0.630000
v 0.567500 0.060000 0.630000
v 0.565767 0.060000 0.622407
v 0.560911 0.060000 0.616318
v 0.553894 0.060000 0.612939
v 0.546106 0.060000 0.612939
v 0.539089 0.060000 0.616318
v 0.534233 0.060000 0.622407
v 0.532500 0.060000 0.630000
v 0.534233 0.060000 0.637593
v 0.539089 0.060000 0.643682
v 0.546106 0.060000 0.647061
v 0.553894 0.060000 0.647061
v 0.560911 0.060000 0.643682
v 0.565767 0.060000 0.637593
v 0.569000 0.061500 0.630000
v 0.567118 0.061500 0.621756
v 0.561846 0.061500 0.615145
v 0.554228 0.061500 0.611476
v 0.545772 0.061500 0.611476
v 0.538154 0.061500 0.615145
v 0.532882 0.061500 0.621756
v 0.531000 0.061500 0.630000
v 0.532882 0.061500 0.638244
v 0.538154 0.061500 0.644855
v 0.545772 0.061500 0.648524
v 0.554228 0.061500 0.648524
v 0.561846 0.061500 0.644855
v 0.567118 0.061500 0.638244
v 0.569000 0.820000 0.630000
v 0.567118 0.820000 0.621756
v 0.561846 0.820000 0.615145
v 0.554228 0.820000 0.611476
v 0.545772 0.820000 0.611476
v 0.538154 0.820000 0.615145
v 0.532882 0.820000 0.621756
v 0.531000 0.820000 0.630000
v 0.532882 0.820000 0.638244
v 0.538154 0.820000 0.644855
v 0.545772 0.820000 0.648524
v 0.554228 0.820000 0.648524
v 0.561846 0.820000 0.644855
v 0.567118 0.820000 0.638244
v 0.550000 0.000000 0.630000
v 0.576000 0.000000 0.630000
v 0.572517 0.000000 0.617000
v 0.563000 0.000000 0.607483
v 0.550000 0.000000 0.604000
v 0.537000 0.000000 0.607483
v 0.527483 0.000000 0.617000
v 0.524000 0.000000 0.630000
v 0.527483 0.000000 0.643000
v 0.537000 0.000000 0.652517
v 0.550000 0.000000 0.656000
v 0.563000 0.000000 0.652517
v 0.572517 0.000000 0.643000
v 0.578000 0.002000 0.630000
v 0.574249 0.002000 0.616000
v 0.564000 0.002000 0.605751
v 0.550000 0.002000 0.602000
v 0.536000 0.002000 0.605751
v 0.525751 0.002000 0.616000
v 0.522000 0.002000 0.630000
v 0.525751 0.002000 0.644000
v 0.536000 0.002000 0.654249
v 0.550000 0.002000 0.658000
v 0.564000 0.002000 0.654249
v 0.574249 0.002000 0.644000
v 0.578000 0.006000 0.630000
v 0.574249 0.006000 0.616000
v 0.564000 0.006000 0.605751
v 0.550000 0.006000 0.602000
v 0.536000 0.006000 0.605751
v 0.525751 0.006000 0.616000
v 0.522000 0.006000 0.630000
v 0.525751 0.006000 0.644000
v 0.536000 0.006000 0.654249
v 0.550000 0.006000 0.658000
v 0.564000 0.006000 0.654249
v 0.574249 0.006000 0.644000
v 0.571000 0.011000 0.630000
v 0.568187 0.011000 0.619500
v 0.560500 0.011000 0.611813
v 0.550000 0.011000 0.609000
v 0.539500 0.011000 0.611813
v 0.531814 0.011000 0.619500
v 0.529000 0.011000 0.630000
v 0.531814 0.011000 0.640500
v 0.539500 0.011000 0.648187
v 0.550000 0.011000 0.651000
v 0.560500 0.011000 0.648187
v 0.568187 0.011000 0.640500
v 0.560000 0.016000 0.630000
v 0.558660 0.016000 0.625000
v 0.555000 0.016000 0.621340
v 0.550000 0.016000 0.620000
v 0.545000 0.016000 0.621340
v 0.541340 0.016000 0.625000
v 0.540000 0.016000 0.630000
v 0.541340 0.016000 0.635000
v 0.545000 0.016000 0.638660
v 0.550000 0.016000 0.640000
v 0.555000 0.016000 0.638660
v 0.558660 0.016000 0.635000
v 0.558500 0.020000 0.630000
v 0.557361 0.020000 0.625750
v 0.554250 0.020000 0.622639
v 0.550000 0.020000 0.621500
v 0.545750 0.020000 0.622639
v 0.542639 0.020000 0.625750
v 0.541500 0.020000 0.630000
v 0.542639 0.020000 0.634250
v 0.545750 0.020000 0.637361
v 0.550000 0.020000 0.638500
v 0.554250 0.020000 0.637361
v 0.557361 0.020000 0.634250
v 0.556500 0.018000 0.630000
v 0.555259 0.018000 0.626179
v 0.552009 0.018000 0.623818
v 0.547991 0.018000 0.623818
v 0.544741 0.018000 0.626179
v 0.543500 0.018000 0.630000
v 0.544741 0.018000 0.633821
v 0.547991 0.018000 0.636182
v 0.552009 0.018000 0.636182
v 0.555259 0.018000 0.633821
v 0.556500 0.064000 0.630000
v 0.555259 0.064000 0.626179
v 0.552009 0.064000 0.623818
v 0.547991 0.064000 0.623818
v 0.544741 0.064000 0.626179
v 0.543500 0.064000 0.630000
v 0.544741 0.064000 0.633821
v 0.547991 0.064000 0.636182
v 0.552009 0.064000 0.636182
v 0.555259 0.064000 0.633821
v 0.556500 0.045000 0.630000
v 0.555629 0.045000 0.626750
v 0.553250 0.045000 0.624371
v 0.550000 0.045000 0.623500
v 0.546750 0.045000 0.624371
v 0.544371 0.045000 0.626750
v 0.543500 0.045000 0.630000
v 0.544371 0.045000 0.633250
v 0.546750 0.045000 0.635629
v 0.550000 0.045000 0.636500
v 0.553250 0.045000 0.635629
v 0.555629 0.045000 0.633250
v 0.560500 0.045000 0.630000
v 0.557875 0.045000 0.625453
v 0.555250 0.045000 0.620907
v 0.550000 0.045000 0.620907
v 0.544750 0.045000 0.620907
v 0.542125 0.045000 0.625453
v 0.539500 0.045000 0.630000
v 0.542125 0.045000 0.634547
v 0.544750 0.045000 0.639093
v 0.550000 0.045000 0.639093
v 0.555250 0.045000 0.639093
v 0.557875 0.045000 0.634547
v 0.561500 0.046500 0.630000
v 0.558625 0.046500 0.625020
v 0.555750 0.046500 0.620041
v 0.550000 0.046500 0.620041
v 0.544250 0.046500 0.620041
v 0.541375 0.046500 0.625020
v 0.538500 0.046500 0.630000
v 0.541375 0.046500 0.634980
v 0.544250 0.046500 0.639959
v 0.550000 0.046500 0.639959
v 0.555750 0.046500 0.639959
v 0.558625 0.046500 0.634980
v 0.561500 0.054500 0.630000
v 0.558625 0.054500 0.625020
v 0.555750 0.054500 0.620041
v 0.550000 0.054500 0.620041
v 0.544250 0.054500 0.620041
v 0.541375 0.054500 0.625020
v 0.538500 0.054500 0.630000
v 0.541375 0.054500 0.634980
v 0.544250 0.054500 0.639959
v 0.550000 0.054500 0.639959
v 0.555750 0.054500 0.639959
v 0.558625 0.054500 0.634980
v 0.560500 0.056000 0.630000
v 0.557875 0.056000 0.625453
v 0.555250 0.056000 0.620907
v 0.550000 0.056000 0.620907
v 0.544750 0.056000 0.620907
v 0.542125 0.056000 0.625453
v 0.539500 0.056000 0.630000
v 0.542125 0.056000 0.634547
v 0.544750 0.056000 0.639093
v 0.550000 0.056000 0.639093
v 0.555250 0.056000 0.639093
v 0.557875 0.056000 0.634547
v 0.556500 0.056000 0.630000
v 0.555629 0.056000 0.626750
v 0.553250 0.056000 0.624371
v 0.550000 0.056000 0.623500
v 0.546750 0.056000 0.624371
v 0.544371 0.056000 0.626750
v 0.543500 0.056000 0.630000
v 0.544371 0.056000 0.633250
v 0.546750 0.056000 0.635629
v 0.550000 0.056000 0.636500
v 0.553250 0.056000 0.635629
v 0.555629 0.056000 0.633250
v 0.505000 0.815000 0.675000
v 0.595000 0.815000 0.675000
v 0.505000 0.815000 0.585000
v 0.595000 0.815000 0.585000
v 0.505000 0.820000 0.675000
v 0.595000 0.820000 0.675000
v 0.505000 0.820000 0.585000
v 0.595000 0.820000 0.585000
v -0.550000 0.785000 0.645000
v 0.550000 0.785000 0.645000
v -0.550000 0.785000 0.615000
v 0.550000 0.785000 0.615000
v -0.550000 0.815000 0.645000
v 0.550000 0.815000 0.645000
v -0.550000 0.815000 0.615000
v 0.550000 0.815000 0.615000
v -0.550000 0.785000 0.085000
v 0.550000 0.785000 0.085000
v -0.550000 0.785000 0.055000
v 0.550000 0.785000 0.055000
v -0.550000 0.815000 0.085000
v 0.550000 0.815000 0.085000
v -0.550000 0.815000 0.055000
v 0.550000 0.815000 0.055000
v -0.565000 0.785000 0.630000
v -0.535000 0.785000 0.630000
v -0.565000 0.785000 0.070000
v -0.535000 0.785000 0.070000
v -0.565000 0.815000 0.630000
v -0.535000 0.815000 0.630000
v -0.565000 0.815000 0.070000
v -0.535000 0.815000 0.070000
v 0.535000 0.785000 0.630000
v 0.565000 0.785000 0.630000
v 0.535000 0.785000 0.070000
v 0.565000 0.785000 0.070000
v 0.535000 0.815000 0.630000
v 0.565000 0.815000 0.630000
v 0.535000 0.815000 0.070000
v 0.565000 0.815000 0.070000
v -0.565000 0.194000 0.645000
v -0.565000 0.194000 0.055000
v -0.565000 0.230000 0.055000
v -0.565000 0.230000 0.049000
v -0.565000 0.200000 0.049000
v -0.565000 0.200000 0.639000
v -0.565000 0.230000 0.639000
v -0.565000 0.230000 0.645000
v 0.565000 0.194000 0.645000
v 0.565000 0.194000 0.055000
v 0.565000 0.230000 0.055000
v 0.565000 0.230000 0.049000
v 0.565000 0.200000 0.049000
v 0.565000 0.200000 0.639000
v 0.565000 0.230000 0.639000
v 0.565000 0.230000 0.645000
vn -0.0000 -1.0000 -0.0000
vn -0.0000 0.0980 -0.9952
vn -0.0000 -0.0000 -1.0000
vn -0.0000 0.3827 -0.9239
vn -0.0000 0.7071 -0.7071
vn -0.0000 0.9239 -0.3827
vn -0.0000 1.0000 -0.0000
vn -0.0000 0.9239 0.3827
vn -0.0000 0.7071 0.7071
vn -0.0000 0.3827 0.9239
vn -0.0000 0.0980 0.9952
vn -0.0000 -0.0000 1.0000
vn -0.0000 0.9969 0.0785
vn -0.0000 0.9511 0.3090
vn -0.0000 0.8090 0.5878
vn -0.0000 0.5878 0.8090
vn -0.0000 0.3090 0.9511
vn -0.0000 -0.3090 0.9511
vn -0.0000 -0.5878 0.8090
vn -0.0000 -0.8090 0.5878
vn -0.0000 -0.9511 0.3090
vn -0.0000 -0.9877 0.1564
vn -1.0000 -0.0000 -0.0000
vn 1.0000 -0.0000 -0.0000
vn 0.6371 -0.7071 -0.3068
vn 0.7071 -0.7071 -0.0000
vn 0.4409 -0.7071 -0.5528
vn 0.1573 -0.7071 -0.6894
vn -0.1573 -0.7071 -0.6894
vn -0.4409 -0.7071 -0.5528
vn -0.6371 -0.7071 -0.3068
vn -0.7071 -0.7071 -0.0000
vn -0.6371 -0.7071 0.3068
vn -0.4409 -0.7071 0.5528
vn -0.1573 -0.7071 0.6894
vn 0.1573 -0.7071 0.6894
vn 0.4409 -0.7071 0.5528
vn 0.6371 -0.7071 0.3068
vn 0.9010 -0.0000 -0.4339
vn 0.6235 -0.0000 -0.7818
vn 0.2225 -0.0000 -0.9749
vn -0.2225 -0.0000 -0.9749
vn -0.6235 -0.0000 -0.7818
vn -0.9010 -0.0000 -0.4339
vn -0.9010 -0.0000 0.4339
vn -0.6235 -0.0000 0.7818
vn -0.2225 -0.0000 0.9749
vn 0.2225 -0.0000 0.9749
vn 0.6235 -0.0000 0.7818
vn 0.9010 -0.0000 0.4339
vn 0.6124 -0.7071 -0.3536
vn 0.3536 -0.7071 -0.6124
vn -0.0000 -0.7071 -0.7071
vn -0.3536 -0.7071 -0.6124
vn -0.6124 -0.7071 -0.3536
vn -0.3535 -0.7071 -0.6124
vn -0.6124 -0.7071 0.3536
vn -0.3536 -0.7071 0.6124
vn -0.0000 -0.7071 0.7071
vn 0.3536 -0.7071 0.6124
vn 0.6124 -0.7071 0.3536
vn 0.8660 -0.0000 -0.5000
vn 0.9031 0.4294 -0.0000
vn 0.5000 -0.0000 -0.8660
vn 0.7821 0.4294 -0.4516
vn 0.4516 0.4294 -0.7821
vn -0.5000 -0.0000 -0.8660
vn -0.0000 0.4294 -0.9031
vn -0.8660 -0.0000 -0.5000
vn -0.4516 0.4294 -0.7821
vn -0.7821 0.4294 -0.4516
vn -0.8660 -0.0000 0.5000
vn -0.9031 0.4294 -0.0000
vn -0.5000 -0.0000 0.8660
vn -0.7821 0.4294 0.4516
vn -0.4516 0.4294 0.7821
vn 0.5000 -0.0000 0.8660
vn -0.0000 0.4294 0.9031
vn 0.8660 -0.0000 0.5000
vn 0.4516 0.4294 0.7821
vn 0.7821 0.4294 0.4516
vn 0.5117 0.8592 -0.0000
vn 0.4432 0.8592 -0.2559
vn -0.0000 0.8592 -0.5117
vn 0.2559 0.8592 -0.4432
vn -0.2559 0.8592 -0.4432
vn -0.4432 0.8592 -0.2559
vn -0.5117 0.8592 -0.0000
vn -0.4432 0.8592 0.2559
vn -0.0000 0.8592 0.5117
vn -0.2559 0.8592 0.4432
vn 0.4432 0.8592 0.2559
vn 0.2559 0.8592 0.4432
vn 0.6982 0.7159 -0.0000
vn 0.3491 0.7159 -0.6047
vn 0.6047 0.7159 -0.3491
vn -0.3491 0.7159 -0.6047
vn -0.0000 0.7159 -0.6982
vn -0.6047 0.7159 -0.3491
vn -0.6982 0.7159 -0.0000
vn -0.3491 0.7159 0.6047
vn -0.6047 0.7159 0.3491
vn 0.3491 0.7159 0.6047
vn -0.0000 0.7159 0.6982
vn 0.6047 0.7159 0.3491
vn 0.8109 0.3511 -0.4682
vn 0.9363 0.3511 -0.0000
vn 0.4682 0.3511 -0.8109
vn -0.4682 0.3511 -0.8109
vn -0.0000 0.3511 -0.9363
vn -0.8109 0.3511 -0.4682
vn -0.8109 0.3511 0.4682
vn -0.9363 0.3511 -0.0000
vn -0.4682 0.3511 0.8109
vn 0.4682 0.3511 0.8109
vn -0.0000 0.3511 0.9363
vn 0.8109 0.3511 0.4682
vn 0.8090 -0.0000 -0.5878
vn 0.3090 -0.0000 -0.9511
vn -0.3090 -0.0000 -0.9511
vn -0.8090 -0.0000 -0.5878
vn -0.8090 -0.0000 0.5878
vn -0.3090 -0.0000 0.9511
vn 0.3090 -0.0000 0.9511
vn 0.8090 -0.0000 0.5878
vn 0.7500 -0.5000 -0.4330
vn -0.0000 -0.5000 -0.8660
vn -0.7500 -0.5000 -0.4330
vn -0.7500 -0.5000 0.4330
vn -0.0000 -0.5000 0.8660
vn 0.7500 -0.5000 0.4330
vn 0.7500 0.5000 -0.4330
vn -0.0000 0.5000 -0.8660
vn -0.7500 0.5000 -0.4330
vn -0.7500 0.5000 0.4330
vn -0.0000 0.5000 0.8660
vn 0.7500 0.5000 0.4330
vn -0.6124 -0.7071 -0.3535
vn 0.3535 -0.7071 0.6124
vn -0.0000 0.7159 -0.6983
vn 0.3535 -0.7071 -0.6124
vn -0.8109 0.3511 -0.4681
vt 0.000000 0.000000
s 1
usemtl m0
f 2/1/1 23/1/1 1/1/1
f 3/1/2 24/1/3 2/1/3
f 4/1/4 25/1/2 3/1/2
f 5/1/5 26/1/4 4/1/4
f 6/1/6 27/1/5 5/1/5
f 7/1/7 28/1/6 6/1/6
f 8/1/8 29/1/7 7/1/7
f 9/1/9 30/1/8 8/1/8
f 10/1/10 31/1/9 9/1/9
f 11/1/11 32/1/10 10/1/10
f 12/1/12 33/1/11 11/1/11
f 13/1/13 34/1/7 12/1/7
f 14/1/14 35/1/13 13/1/13
f 15/1/15 36/1/14 14/1/14
f 16/1/16 37/1/15 15/1/15
f 17/1/17 38/1/16 16/1/16
f 18/1/12 39/1/17 17/1/17
f 19/1/18 40/1/12 18/1/12
f 20/1/19 41/1/18 19/1/18
f 21/1/20 42/1/19 20/1/19
f 22/1/21 43/1/20 21/1/20
f 1/1/22 44/1/21 22/1/21
s 0
f 21/1/23 20/1/23 10/1/23
f 24/1/24 25/1/24 35/1/24
s 1
f 45/1/1 47/1/1 46/1/1
f 45/1/1 48/1/1 47/1/1
f 45/1/1 49/1/1 48/1/1
f 45/1/1 50/1/1 49/1/1
f 45/1/1 51/1/1 50/1/1
f 45/1/1 52/1/1 51/1/1
f 45/1/1 53/1/1 52/1/1
f 45/1/1 54/1/1 53/1/1
f 45/1/1 55/1/1 54/1/1
f 45/1/1 56/1/1 55/1/1
f 45/1/1 57/1/1 56/1/1
f 45/1/1 58/1/1 57/1/1
f 45/1/1 59/1/1 58/1/1
f 45/1/1 46/1/1 59/1/1
f 47/1/25 60/1/26 46/1/26
f 47/1/25 62/1/27 61/1/25
f 48/1/27 63/1/28 62/1/27
f 49/1/28 64/1/29 63/1/28
f 51/1/30 64/1/29 50/1/29
f 52/1/31 65/1/30 51/1/30
f 52/1/31 67/1/32 66/1/31
f 53/1/32 68/1/33 67/1/32
f 55/1/34 68/1/33 54/1/33
f 55/1/34 70/1/35 69/1/34
f 57/1/36 70/1/35 56/1/35
f 58/1/37 71/1/36 57/1/36
f 58/1/37 73/1/38 72/1/37
f 46/1/26 73/1/38 59/1/38
f 61/1/39 74/1/24 60/1/24
f 62/1/40 75/1/39 61/1/39
f 63/1/41 76/1/40 62/1/40
f 64/1/42 77/1/41 63/1/41
f 65/1/43 78/1/42 64/1/42
f 66/1/44 79/1/43 65/1/43
f 67/1/23 80/1/44 66/1/44
f 68/1/45 81/1/23 67/1/23
f 69/1/46 82/1/45 68/1/45
f 70/1/47 83/1/46 69/1/46
f 71/1/48 84/1/47 70/1/47
f 72/1/49 85/1/48 71/1/48
f 73/1/50 86/1/49 72/1/49
f 60/1/24 87/1/50 73/1/50
s 0
f 257/1/23 255/1/23 253/1/23
f 256/1/24 258/1/24 254/1/24
f 254/1/12 257/1/12 253/1/12
f 259/1/3 256/1/3 255/1/3
f 255/1/1 254/1/1 253/1/1
f 258/1/7 259/1/7 257/1/7
s 1
f 261/1/1 263/1/1 262/1/1
f 261/1/1 264/1/1 263/1/1
f 261/1/1 265/1/1 264/1/1
f 261/1/1 266/1/1 265/1/1
f 261/1/1 267/1/1 266/1/1
f 261/1/1 268/1/1 267/1/1
f 261/1/1 269/1/1 268/1/1
f 261/1/1 270/1/1 269/1/1
f 261/1/1 271/1/1 270/1/1
f 261/1/1 272/1/1 271/1/1
f 261/1/1 273/1/1 272/1/1
f 261/1/1 274/1/1 273/1/1
f 261/1/1 275/1/1 274/1/1
f 261/1/1 262/1/1 275/1/1
f 263/1/25 276/1/26 262/1/26
f 263/1/25 278/1/27 277/1/25
f 264/1/27 279/1/28 278/1/27
f 266/1/29 279/1/28 265/1/28
f 267/1/30 280/1/29 266/1/29
f 268/1/31 281/1/30 267/1/30
f 269/1/32 282/1/31 268/1/31
f 269/1/32 284/1/33 283/1/32
f 270/1/33 285/1/34 284/1/33
f 271/1/34 286/1/35 285/1/34
f 272/1/35 287/1/36 286/1/35
f 274/1/37 287/1/36 273/1/36
f 275/1/38 288/1/37 274/1/37
f 275/1/38 276/1/26 289/1/38
f 277/1/39 290/1/24 276/1/24
f 278/1/40 291/1/39 277/1/39
f 279/1/41 292/1/40 278/1/40
f 280/1/42 293/1/41 279/1/41
f 281/1/43 294/1/42 280/1/42
f 282/1/44 295/1/43 281/1/43
f 283/1/23 296/1/44 282/1/44
f 284/1/45 297/1/23 283/1/23
f 285/1/46 298/1/45 284/1/45
f 286/1/47 299/1/46 285/1/46
f 287/1/48 300/1/47 286/1/47
f 288/1/49 301/1/48 287/1/48
f 289/1/50 302/1/49 288/1/49
f 276/1/24 303/1/50 289/1/50
s 0
f 473/1/23 471/1/23 469/1/23
f 472/1/24 474/1/24 470/1/24
f 470/1/12 473/1/12 469/1/12
f 475/1/3 472/1/3 471/1/3
f 471/1/1 470/1/1 469/1/1
f 474/1/7 475/1/7 473/1/7
s 1
f 477/1/1 479/1/1 478/1/1
f 477/1/1 480/1/1 479/1/1
f 477/1/1 481/1/1 480/1/1
f 477/1/1 482/1/1 481/1/1
f 477/1/1 483/1/1 482/1/1
f 477/1/1 484/1/1 483/1/1
f 477/1/1 485/1/1 484/1/1
f 477/1/1 486/1/1 485/1/1
f 477/1/1 487/1/1 486/1/1
f 477/1/1 488/1/1 487/1/1
f 477/1/1 489/1/1 488/1/1
f 477/1/1 490/1/1 489/1/1
f 477/1/1 491/1/1 490/1/1
f 477/1/1 478/1/1 491/1/1
f 479/1/25 492/1/26 478/1/26
f 479/1/25 494/1/27 493/1/25
f 480/1/27 495/1/28 494/1/27
f 481/1/28 496/1/29 495/1/28
f 483/1/30 496/1/29 482/1/29
f 484/1/31 497/1/30 483/1/30
f 484/1/31 499/1/32 498/1/31
f 485/1/32 500/1/33 499/1/32
f 486/1/33 501/1/34 500/1/33
f 487/1/34 502/1/35 501/1/34
f 489/1/36 502/1/35 488/1/35
f 490/1/37 503/1/36 489/1/36
f 491/1/38 504/1/37 490/1/37
f 478/1/26 505/1/38 491/1/38
f 493/1/39 506/1/24 492/1/24
f 494/1/40 507/1/39 493/1/39
f 495/1/41 508/1/40 494/1/40
f 496/1/42 509/1/41 495/1/41
f 497/1/43 510/1/42 496/1/42
f 498/1/44 511/1/43 497/1/43
f 499/1/23 512/1/44 498/1/44
f 500/1/45 513/1/23 499/1/23
f 501/1/46 514/1/45 500/1/45
f 502/1/47 515/1/46 501/1/46
f 503/1/48 516/1/47 502/1/47
f 504/1/49 517/1/48 503/1/48
f 505/1/50 518/1/49 504/1/49
f 492/1/24 519/1/50 505/1/50
s 0
f 689/1/23 687/1/23 685/1/23
f 688/1/24 690/1/24 686/1/24
f 686/1/12 689/1/12 685/1/12
f 691/1/3 688/1/3 687/1/3
f 687/1/1 686/1/1 685/1/1
f 690/1/7 691/1/7 689/1/7
s 1
f 693/1/1 695/1/1 694/1/1
f 693/1/1 696/1/1 695/1/1
f 693/1/1 697/1/1 696/1/1
f 693/1/1 698/1/1 697/1/1
f 693/1/1 699/1/1 698/1/1
f 693/1/1 700/1/1 699/1/1
f 693/1/1 701/1/1 700/1/1
f 693/1/1 702/1/1 701/1/1
f 693/1/1 703/1/1 702/1/1
f 693/1/1 704/1/1 703/1/1
f 693/1/1 705/1/1 704/1/1
f 693/1/1 706/1/1 705/1/1
f 693/1/1 707/1/1 706/1/1
f 693/1/1 694/1/1 707/1/1
f 695/1/25 708/1/26 694/1/26
f 696/1/27 709/1/25 695/1/25
f 696/1/27 711/1/28 710/1/27
f 698/1/29 711/1/28 697/1/28
f 699/1/30 712/1/29 698/1/29
f 700/1/31 713/1/30 699/1/30
f 700/1/31 715/1/32 714/1/31
f 702/1/33 715/1/32 701/1/32
f 703/1/34 716/1/33 702/1/33
f 703/1/34 718/1/35 717/1/34
f 704/1/35 719/1/36 718/1/35
f 706/1/37 719/1/36 705/1/36
f 707/1/38 720/1/37 706/1/37
f 694/1/26 721/1/38 707/1/38
f 709/1/39 722/1/24 708/1/24
f 710/1/40 723/1/39 709/1/39
f 711/1/41 724/1/40 710/1/40
f 712/1/42 725/1/41 711/1/41
f 713/1/43 726/1/42 712/1/42
f 714/1/44 727/1/43 713/1/43
f 715/1/23 728/1/44 714/1/44
f 716/1/45 729/1/23 715/1/23
f 717/1/46 730/1/45 716/1/45
f 718/1/47 731/1/46 717/1/46
f 719/1/48 732/1/47 718/1/47
f 720/1/49 733/1/48 719/1/48
f 721/1/50 734/1/49 720/1/49
f 708/1/24 735/1/50 721/1/50
s 0
f 905/1/23 903/1/23 901/1/23
f 904/1/24 906/1/24 902/1/24
f 902/1/12 905/1/12 901/1/12
f 907/1/3 904/1/3 903/1/3
f 903/1/1 902/1/1 901/1/1
f 906/1/7 907/1/7 905/1/7
f 913/1/23 911/1/23 909/1/23
f 912/1/24 914/1/24 910/1/24
f 910/1/12 913/1/12 909/1/12
f 915/1/3 912/1/3 911/1/3
f 911/1/1 910/1/1 909/1/1
f 914/1/7 915/1/7 913/1/7
f 921/1/23 919/1/23 917/1/23
f 920/1/24 922/1/24 918/1/24
f 918/1/12 921/1/12 917/1/12
f 923/1/3 920/1/3 919/1/3
f 919/1/1 918/1/1 917/1/1
f 922/1/7 923/1/7 921/1/7
f 929/1/23 927/1/23 925/1/23
f 928/1/24 930/1/24 926/1/24
f 926/1/12 929/1/12 925/1/12
f 931/1/3 928/1/3 927/1/3
f 927/1/1 926/1/1 925/1/1
f 930/1/7 931/1/7 929/1/7
f 937/1/23 935/1/23 933/1/23
f 936/1/24 938/1/24 934/1/24
f 934/1/12 937/1/12 933/1/12
f 939/1/3 936/1/3 935/1/3
f 935/1/1 934/1/1 933/1/1
f 938/1/7 939/1/7 937/1/7
s 1
f 942/1/1 949/1/1 941/1/1
f 943/1/3 950/1/3 942/1/3
f 944/1/1 951/1/1 943/1/1
f 945/1/12 952/1/12 944/1/12
f 946/1/7 953/1/7 945/1/7
f 947/1/3 954/1/3 946/1/3
f 948/1/7 955/1/7 947/1/7
f 941/1/12 956/1/12 948/1/12
s 0
f 947/1/24 946/1/24 943/1/24
f 950/1/24 951/1/24 954/1/24
s 1
f 2/1/1 24/1/1 23/1/1
f 3/1/2 25/1/2 24/1/3
f 4/1/4 26/1/4 25/1/2
f 5/1/5 27/1/5 26/1/4
f 6/1/6 28/1/6 27/1/5
f 7/1/7 29/1/7 28/1/6
f 8/1/8 30/1/8 29/1/7
f 9/1/9 31/1/9 30/1/8
f 10/1/10 32/1/10 31/1/9
f 11/1/11 33/1/11 32/1/10
f 12/1/12 34/1/12 33/1/11
f 13/1/13 35/1/13 34/1/7
f 14/1/14 36/1/14 35/1/13
f 15/1/15 37/1/15 36/1/14
f 16/1/16 38/1/16 37/1/15
f 17/1/17 39/1/17 38/1/16
f 18/1/12 40/1/12 39/1/17
f 19/1/18 41/1/18 40/1/12
f 20/1/19 42/1/19 41/1/18
f 21/1/20 43/1/20 42/1/19
f 22/1/21 44/1/21 43/1/20
f 1/1/22 23/1/22 44/1/21
s 0
f 1/1/23 22/1/23 21/1/23
f 20/1/23 19/1/23 18/1/23
f 2/1/23 1/1/23 21/1/23
f 20/1/23 18/1/23 17/1/23
f 3/1/23 2/1/23 21/1/23
f 20/1/23 17/1/23 16/1/23
f 4/1/23 3/1/23 21/1/23
f 20/1/23 16/1/23 15/1/23
f 5/1/23 4/1/23 21/1/23
f 20/1/23 15/1/23 14/1/23
f 6/1/23 5/1/23 21/1/23
f 20/1/23 14/1/23 13/1/23
f 7/1/23 6/1/23 21/1/23
f 20/1/23 13/1/23 12/1/23
f 8/1/24 7/1/24 21/1/24
f 20/1/24 12/1/24 11/1/24
f 9/1/24 8/1/24 21/1/24
f 20/1/24 11/1/24 10/1/24
f 10/1/24 9/1/24 21/1/24
f 44/1/24 23/1/24 24/1/24
f 25/1/24 26/1/24 27/1/24
f 43/1/24 44/1/24 24/1/24
f 25/1/24 27/1/24 28/1/24
f 42/1/24 43/1/24 24/1/24
f 25/1/24 28/1/24 29/1/24
f 41/1/24 42/1/24 24/1/24
f 25/1/24 29/1/24 30/1/24
f 40/1/24 41/1/24 24/1/24
f 25/1/24 30/1/24 31/1/24
f 39/1/24 40/1/24 24/1/24
f 25/1/24 31/1/24 32/1/24
f 38/1/24 39/1/24 24/1/24
f 25/1/24 32/1/24 33/1/24
f 37/1/24 38/1/24 24/1/24
f 25/1/24 33/1/24 34/1/24
f 36/1/24 37/1/24 24/1/24
f 25/1/23 34/1/23 35/1/23
f 35/1/24 36/1/24 24/1/24
s 1
f 47/1/25 61/1/25 60/1/26
f 47/1/25 48/1/27 62/1/27
f 48/1/27 49/1/28 63/1/28
f 49/1/28 50/1/29 64/1/29
f 51/1/30 65/1/30 64/1/29
f 52/1/31 66/1/31 65/1/30
f 52/1/31 53/1/32 67/1/32
f 53/1/32 54/1/33 68/1/33
f 55/1/34 69/1/34 68/1/33
f 55/1/34 56/1/35 70/1/35
f 57/1/36 71/1/36 70/1/35
f 58/1/37 72/1/37 71/1/36
f 58/1/37 59/1/38 73/1/38
f 46/1/26 60/1/26 73/1/38
f 61/1/39 75/1/39 74/1/24
f 62/1/40 76/1/40 75/1/39
f 63/1/41 77/1/41 76/1/40
f 64/1/42 78/1/42 77/1/41
f 65/1/43 79/1/43 78/1/42
f 66/1/44 80/1/44 79/1/43
f 67/1/23 81/1/23 80/1/44
f 68/1/45 82/1/45 81/1/23
f 69/1/46 83/1/46 82/1/45
f 70/1/47 84/1/47 83/1/46
f 71/1/48 85/1/48 84/1/47
f 72/1/49 86/1/49 85/1/48
f 73/1/50 87/1/50 86/1/49
f 60/1/24 74/1/24 87/1/50
s 0
f 257/1/23 259/1/23 255/1/23
f 256/1/24 260/1/24 258/1/24
f 254/1/12 258/1/12 257/1/12
f 259/1/3 260/1/3 256/1/3
f 255/1/1 256/1/1 254/1/1
f 258/1/7 260/1/7 259/1/7
s 1
f 263/1/25 277/1/25 276/1/26
f 263/1/25 264/1/27 278/1/27
f 264/1/27 265/1/28 279/1/28
f 266/1/29 280/1/29 279/1/28
f 267/1/30 281/1/30 280/1/29
f 268/1/31 282/1/31 281/1/30
f 269/1/32 283/1/32 282/1/31
f 269/1/32 270/1/33 284/1/33
f 270/1/33 271/1/34 285/1/34
f 271/1/34 272/1/35 286/1/35
f 272/1/35 273/1/36 287/1/36
f 274/1/37 288/1/37 287/1/36
f 275/1/38 289/1/38 288/1/37
f 275/1/38 262/1/26 276/1/26
f 277/1/39 291/1/39 290/1/24
f 278/1/40 292/1/40 291/1/39
f 279/1/41 293/1/41 292/1/40
f 280/1/42 294/1/42 293/1/41
f 281/1/43 295/1/43 294/1/42
f 282/1/44 296/1/44 295/1/43
f 283/1/23 297/1/23 296/1/44
f 284/1/45 298/1/45 297/1/23
f 285/1/46 299/1/46 298/1/45
f 286/1/47 300/1/47 299/1/46
f 287/1/48 301/1/48 300/1/47
f 288/1/49 302/1/49 301/1/48
f 289/1/50 303/1/50 302/1/49
f 276/1/24 290/1/24 303/1/50
s 0
f 473/1/23 475/1/23 471/1/23
f 472/1/24 476/1/24 474/1/24
f 470/1/12 474/1/12 473/1/12
f 475/1/3 476/1/3 472/1/3
f 471/1/1 472/1/1 470/1/1
f 474/1/7 476/1/7 475/1/7
s 1
f 479/1/25 493/1/25 492/1/26
f 479/1/25 480/1/27 494/1/27
f 480/1/27 481/1/28 495/1/28
f 481/1/28 482/1/29 496/1/29
f 483/1/30 497/1/30 496/1/29
f 484/1/31 498/1/31 497/1/30
f 484/1/31 485/1/32 499/1/32
f 485/1/32 486/1/33 500/1/33
f 486/1/33 487/1/34 501/1/34
f 487/1/34 488/1/35 502/1/35
f 489/1/36 503/1/36 502/1/35
f 490/1/37 504/1/37 503/1/36
f 491/1/38 505/1/38 504/1/37
f 478/1/26 492/1/26 505/1/38
f 493/1/39 507/1/39 506/1/24
f 494/1/40 508/1/40 507/1/39
f 495/1/41 509/1/41 508/1/40
f 496/1/42 510/1/42 509/1/41
f 497/1/43 511/1/43 510/1/42
f 498/1/44 512/1/44 511/1/43
f 499/1/23 513/1/23 512/1/44
f 500/1/45 514/1/45 513/1/23
f 501/1/46 515/1/46 514/1/45
f 502/1/47 516/1/47 515/1/46
f 503/1/48 517/1/48 516/1/47
f 504/1/49 518/1/49 517/1/48
f 505/1/50 519/1/50 518/1/49
f 492/1/24 506/1/24 519/1/50
s 0
f 689/1/23 691/1/23 687/1/23
f 688/1/24 692/1/24 690/1/24
f 686/1/12 690/1/12 689/1/12
f 691/1/3 692/1/3 688/1/3
f 687/1/1 688/1/1 686/1/1
f 690/1/7 692/1/7 691/1/7
s 1
f 695/1/25 709/1/25 708/1/26
f 696/1/27 710/1/27 709/1/25
f 696/1/27 697/1/28 711/1/28
f 698/1/29 712/1/29 711/1/28
f 699/1/30 713/1/30 712/1/29
f 700/1/31 714/1/31 713/1/30
f 700/1/31 701/1/32 715/1/32
f 702/1/33 716/1/33 715/1/32
f 703/1/34 717/1/34 716/1/33
f 703/1/34 704/1/35 718/1/35
f 704/1/35 705/1/36 719/1/36
f 706/1/37 720/1/37 719/1/36
f 707/1/38 721/1/38 720/1/37
f 694/1/26 708/1/26 721/1/38
f 709/1/39 723/1/39 722/1/24
f 710/1/40 724/1/40 723/1/39
f 711/1/41 725/1/41 724/1/40
f 712/1/42 726/1/42 725/1/41
f 713/1/43 727/1/43 726/1/42
f 714/1/44 728/1/44 727/1/43
f 715/1/23 729/1/23 728/1/44
f 716/1/45 730/1/45 729/1/23
f 717/1/46 731/1/46 730/1/45
f 718/1/47 732/1/47 731/1/46
f 719/1/48 733/1/48 732/1/47
f 720/1/49 734/1/49 733/1/48
f 721/1/50 735/1/50 734/1/49
f 708/1/24 722/1/24 735/1/50
s 0
f 905/1/23 907/1/23 903/1/23
f 904/1/24 908/1/24 906/1/24
f 902/1/12 906/1/12 905/1/12
f 907/1/3 908/1/3 904/1/3
f 903/1/1 904/1/1 902/1/1
f 906/1/7 908/1/7 907/1/7
f 913/1/23 915/1/23 911/1/23
f 912/1/24 916/1/24 914/1/24
f 910/1/12 914/1/12 913/1/12
f 915/1/3 916/1/3 912/1/3
f 911/1/1 912/1/1 910/1/1
f 914/1/7 916/1/7 915/1/7
f 921/1/23 923/1/23 919/1/23
f 920/1/24 924/1/24 922/1/24
f 918/1/12 922/1/12 921/1/12
f 923/1/3 924/1/3 920/1/3
f 919/1/1 920/1/1 918/1/1
f 922/1/7 924/1/7 923/1/7
f 929/1/23 931/1/23 927/1/23
f 928/1/24 932/1/24 930/1/24
f 926/1/12 930/1/12 929/1/12
f 931/1/3 932/1/3 928/1/3
f 927/1/1 928/1/1 926/1/1
f 930/1/7 932/1/7 931/1/7
f 937/1/23 939/1/23 935/1/23
f 936/1/24 940/1/24 938/1/24
f 934/1/12 938/1/12 937/1/12
f 939/1/3 940/1/3 936/1/3
f 935/1/1 936/1/1 934/1/1
f 938/1/7 940/1/7 939/1/7
s 1
f 942/1/1 950/1/1 949/1/1
f 943/1/3 951/1/3 950/1/3
f 944/1/1 952/1/1 951/1/1
f 945/1/12 953/1/12 952/1/12
f 946/1/7 954/1/7 953/1/7
f 947/1/3 955/1/3 954/1/3
f 948/1/7 956/1/7 955/1/7
f 941/1/12 949/1/12 956/1/12
s 0
f 941/1/23 948/1/23 947/1/23
f 946/1/24 945/1/24 944/1/24
f 942/1/23 941/1/23 947/1/23
f 946/1/24 944/1/24 943/1/24
f 943/1/23 942/1/23 947/1/23
f 956/1/24 949/1/24 950/1/24
f 951/1/23 952/1/23 953/1/23
f 955/1/24 956/1/24 950/1/24
f 951/1/23 953/1/23 954/1/23
f 954/1/23 955/1/23 950/1/23
s 1
usemtl m1
f 88/1/1 90/1/1 89/1/1
f 88/1/1 91/1/1 90/1/1
f 88/1/1 92/1/1 91/1/1
f 88/1/1 93/1/1 92/1/1
f 88/1/1 94/1/1 93/1/1
f 88/1/1 95/1/1 94/1/1
f 88/1/1 96/1/1 95/1/1
f 88/1/1 97/1/1 96/1/1
f 88/1/1 98/1/1 97/1/1
f 88/1/1 99/1/1 98/1/1
f 88/1/1 100/1/1 99/1/1
f 88/1/1 89/1/1 100/1/1
f 90/1/51 101/1/26 89/1/26
f 91/1/52 102/1/51 90/1/51
f 92/1/53 103/1/52 91/1/52
f 93/1/54 104/1/53 92/1/53
f 94/1/55 105/1/56 93/1/54
f 95/1/32 106/1/55 94/1/55
f 96/1/57 107/1/32 95/1/32
f 96/1/57 109/1/58 108/1/57
f 98/1/59 109/1/58 97/1/58
f 98/1/59 111/1/60 110/1/59
f 99/1/60 112/1/61 111/1/60
f 100/1/61 101/1/26 112/1/61
f 102/1/62 113/1/63 101/1/24
f 103/1/64 114/1/65 102/1/62
f 104/1/3 115/1/66 103/1/64
f 105/1/67 116/1/68 104/1/3
f 106/1/69 117/1/70 105/1/67
f 107/1/23 118/1/71 106/1/69
f 108/1/72 119/1/73 107/1/23
f 109/1/74 120/1/75 108/1/72
f 110/1/12 121/1/76 109/1/74
f 111/1/77 122/1/78 110/1/12
f 112/1/79 123/1/80 111/1/77
f 101/1/24 124/1/81 112/1/79
f 114/1/65 125/1/82 113/1/63
f 115/1/66 126/1/83 114/1/65
f 115/1/66 128/1/84 127/1/85
f 117/1/70 128/1/84 116/1/68
f 118/1/71 129/1/86 117/1/70
f 119/1/73 130/1/87 118/1/71
f 120/1/75 131/1/88 119/1/73
f 121/1/76 132/1/89 120/1/75
f 121/1/76 134/1/90 133/1/91
f 123/1/80 134/1/90 122/1/78
f 123/1/80 136/1/92 135/1/93
f 124/1/81 125/1/82 136/1/92
f 126/1/83 137/1/94 125/1/82
f 126/1/83 139/1/95 138/1/96
f 128/1/84 139/1/95 127/1/85
f 128/1/84 141/1/97 140/1/98
f 130/1/87 141/1/97 129/1/86
f 131/1/88 142/1/99 130/1/87
f 132/1/89 143/1/100 131/1/88
f 132/1/89 145/1/101 144/1/102
f 134/1/90 145/1/101 133/1/91
f 134/1/90 147/1/103 146/1/104
f 136/1/92 147/1/103 135/1/93
f 136/1/92 137/1/94 148/1/105
f 137/1/94 150/1/106 149/1/107
f 138/1/96 151/1/108 150/1/106
f 140/1/98 151/1/108 139/1/95
f 140/1/98 153/1/109 152/1/110
f 141/1/97 154/1/111 153/1/109
f 143/1/100 154/1/111 142/1/99
f 143/1/100 156/1/112 155/1/113
f 144/1/102 157/1/114 156/1/112
f 146/1/104 157/1/114 145/1/101
f 146/1/104 159/1/115 158/1/116
f 148/1/105 159/1/115 147/1/103
f 137/1/94 160/1/117 148/1/105
f 304/1/1 306/1/1 305/1/1
f 304/1/1 307/1/1 306/1/1
f 304/1/1 308/1/1 307/1/1
f 304/1/1 309/1/1 308/1/1
f 304/1/1 310/1/1 309/1/1
f 304/1/1 311/1/1 310/1/1
f 304/1/1 312/1/1 311/1/1
f 304/1/1 313/1/1 312/1/1
f 304/1/1 314/1/1 313/1/1
f 304/1/1 315/1/1 314/1/1
f 304/1/1 316/1/1 315/1/1
f 304/1/1 305/1/1 316/1/1
f 305/1/26 318/1/51 317/1/26
f 307/1/52 318/1/51 306/1/51
f 308/1/53 319/1/52 307/1/52
f 308/1/53 321/1/54 320/1/53
f 309/1/54 322/1/138 321/1/54
f 310/1/55 323/1/32 322/1/138
f 311/1/32 324/1/57 323/1/32
f 313/1/58 324/1/57 312/1/57
f 313/1/58 326/1/59 325/1/58
f 315/1/60 326/1/59 314/1/59
f 316/1/61 327/1/139 315/1/60
f 305/1/26 328/1/61 316/1/61
f 318/1/62 329/1/63 317/1/24
f 319/1/64 330/1/65 318/1/62
f 320/1/3 331/1/66 319/1/64
f 321/1/67 332/1/68 320/1/3
f 322/1/69 333/1/70 321/1/67
f 323/1/23 334/1/71 322/1/69
f 324/1/72 335/1/73 323/1/23
f 325/1/74 336/1/75 324/1/72
f 326/1/12 337/1/76 325/1/74
f 327/1/77 338/1/78 326/1/12
f 328/1/79 339/1/80 327/1/77
f 317/1/24 340/1/81 328/1/79
f 330/1/65 341/1/82 329/1/63
f 331/1/66 342/1/83 330/1/65
f 331/1/66 344/1/84 343/1/85
f 333/1/70 344/1/84 332/1/68
f 334/1/71 345/1/86 333/1/70
f 334/1/71 347/1/88 346/1/87
f 336/1/75 347/1/88 335/1/73
f 336/1/75 349/1/91 348/1/89
f 337/1/76 350/1/90 349/1/91
f 339/1/80 350/1/90 338/1/78
f 340/1/81 351/1/93 339/1/80
f 340/1/81 341/1/82 352/1/92
f 342/1/83 353/1/94 341/1/82
f 343/1/85 354/1/96 342/1/83
f 343/1/85 356/1/140 355/1/95
f 344/1/84 357/1/97 356/1/140
f 345/1/86 358/1/99 357/1/97
f 347/1/88 358/1/99 346/1/87
f 347/1/88 360/1/102 359/1/100
f 349/1/91 360/1/102 348/1/89
f 350/1/90 361/1/101 349/1/91
f 350/1/90 363/1/103 362/1/104
f 352/1/92 363/1/103 351/1/93
f 352/1/92 353/1/94 364/1/105
f 353/1/94 366/1/106 365/1/107
f 355/1/95 366/1/106 354/1/96
f 356/1/140 367/1/108 355/1/95
f 356/1/140 369/1/109 368/1/110
f 358/1/99 369/1/109 357/1/97
f 358/1/99 371/1/113 370/1/111
f 360/1/102 371/1/113 359/1/100
f 361/1/101 372/1/112 360/1/102
f 362/1/104 373/1/114 361/1/101
f 363/1/103 374/1/116 362/1/104
f 363/1/103 376/1/117 375/1/115
f 364/1/105 365/1/107 376/1/117
f 520/1/1 522/1/1 521/1/1
f 520/1/1 523/1/1 522/1/1
f 520/1/1 524/1/1 523/1/1
f 520/1/1 525/1/1 524/1/1
f 520/1/1 526/1/1 525/1/1
f 520/1/1 527/1/1 526/1/1
f 520/1/1 528/1/1 527/1/1
f 520/1/1 529/1/1 528/1/1
f 520/1/1 530/1/1 529/1/1
f 520/1/1 531/1/1 530/1/1
f 520/1/1 532/1/1 531/1/1
f 520/1/1 521/1/1 532/1/1
f 522/1/51 533/1/26 521/1/26
f 522/1/51 535/1/141 534/1/51
f 523/1/52 536/1/53 535/1/141
f 525/1/54 536/1/53 524/1/53
f 525/1/54 538/1/55 537/1/54
f 526/1/55 539/1/32 538/1/55
f 528/1/57 539/1/32 527/1/32
f 529/1/58 540/1/57 528/1/57
f 530/1/59 541/1/58 529/1/58
f 530/1/59 543/1/60 542/1/59
f 532/1/61 543/1/60 531/1/60
f 521/1/26 544/1/61 532/1/61
f 534/1/62 545/1/63 533/1/24
f 535/1/64 546/1/65 534/1/62
f 536/1/3 547/1/66 535/1/64
f 537/1/67 548/1/68 536/1/3
f 538/1/69 549/1/70 537/1/67
f 539/1/23 550/1/71 538/1/69
f 540/1/72 551/1/73 539/1/23
f 541/1/74 552/1/75 540/1/72
f 542/1/12 553/1/76 541/1/74
f 543/1/77 554/1/78 542/1/12
f 544/1/79 555/1/80 543/1/77
f 533/1/24 556/1/81 544/1/79
f 546/1/65 557/1/82 545/1/63
f 546/1/65 559/1/85 558/1/83
f 547/1/66 560/1/84 559/1/85
f 549/1/70 560/1/84 548/1/68
f 549/1/70 562/1/87 561/1/86
f 550/1/71 563/1/88 562/1/87
f 552/1/75 563/1/88 551/1/73
f 553/1/76 564/1/89 552/1/75
f 553/1/76 566/1/90 565/1/91
f 555/1/80 566/1/90 554/1/78
f 555/1/80 568/1/92 567/1/93
f 556/1/81 557/1/82 568/1/92
f 558/1/83 569/1/94 557/1/82
f 558/1/83 571/1/95 570/1/96
f 560/1/84 571/1/95 559/1/85
f 560/1/84 573/1/97 572/1/98
f 562/1/87 573/1/97 561/1/86
f 562/1/87 575/1/100 574/1/99
f 564/1/89 575/1/100 563/1/88
f 564/1/89 577/1/101 576/1/102
f 566/1/90 577/1/101 565/1/91
f 566/1/90 579/1/103 578/1/104
f 568/1/92 579/1/103 567/1/93
f 568/1/92 569/1/94 580/1/105
f 569/1/94 582/1/106 581/1/107
f 571/1/95 582/1/106 570/1/96
f 572/1/98 583/1/108 571/1/95
f 572/1/98 585/1/109 584/1/110
f 574/1/99 585/1/109 573/1/97
f 575/1/100 586/1/111 574/1/99
f 576/1/102 587/1/113 575/1/100
f 576/1/102 589/1/114 588/1/112
f 578/1/104 589/1/114 577/1/101
f 578/1/104 591/1/115 590/1/116
f 580/1/105 591/1/115 579/1/103
f 569/1/94 592/1/117 580/1/105
f 736/1/1 738/1/1 737/1/1
f 736/1/1 739/1/1 738/1/1
f 736/1/1 740/1/1 739/1/1
f 736/1/1 741/1/1 740/1/1
f 736/1/1 742/1/1 741/1/1
f 736/1/1 743/1/1 742/1/1
f 736/1/1 744/1/1 743/1/1
f 736/1/1 745/1/1 744/1/1
f 736/1/1 746/1/1 745/1/1
f 736/1/1 747/1/1 746/1/1
f 736/1/1 748/1/1 747/1/1
f 736/1/1 737/1/1 748/1/1
f 737/1/26 750/1/51 749/1/26
f 739/1/52 750/1/51 738/1/51
f 740/1/53 751/1/52 739/1/52
f 741/1/54 752/1/53 740/1/53
f 742/1/55 753/1/56 741/1/54
f 743/1/32 754/1/55 742/1/55
f 743/1/32 756/1/57 755/1/32
f 745/1/58 756/1/57 744/1/57
f 746/1/59 757/1/58 745/1/58
f 747/1/60 758/1/59 746/1/59
f 748/1/61 759/1/139 747/1/60
f 737/1/26 760/1/61 748/1/61
f 750/1/62 761/1/63 749/1/24
f 751/1/64 762/1/65 750/1/62
f 752/1/3 763/1/66 751/1/64
f 753/1/67 764/1/68 752/1/3
f 754/1/69 765/1/70 753/1/67
f 755/1/23 766/1/71 754/1/69
f 756/1/72 767/1/73 755/1/23
f 757/1/74 768/1/75 756/1/72
f 758/1/12 769/1/76 757/1/74
f 759/1/77 770/1/78 758/1/12
f 760/1/79 771/1/80 759/1/77
f 749/1/24 772/1/81 760/1/79
f 762/1/65 773/1/82 761/1/63
f 763/1/66 774/1/83 762/1/65
f 763/1/66 776/1/84 775/1/85
f 765/1/70 776/1/84 764/1/68
f 765/1/70 778/1/87 777/1/86
f 766/1/71 779/1/88 778/1/87
f 768/1/75 779/1/88 767/1/73
f 769/1/76 780/1/89 768/1/75
f 769/1/76 782/1/90 781/1/91
f 771/1/80 782/1/90 770/1/78
f 772/1/81 783/1/93 771/1/80
f 772/1/81 773/1/82 784/1/92
f 773/1/82 786/1/96 785/1/94
f 775/1/85 786/1/96 774/1/83
f 776/1/84 787/1/95 775/1/85
f 777/1/86 788/1/98 776/1/84
f 778/1/87 789/1/97 777/1/86
f 778/1/87 791/1/100 790/1/99
f 780/1/89 791/1/100 779/1/88
f 780/1/89 793/1/101 792/1/102
f 782/1/90 793/1/101 781/1/91
f 782/1/90 795/1/103 794/1/104
f 784/1/92 795/1/103 783/1/93
f 773/1/82 796/1/105 784/1/92
f 786/1/96 797/1/107 785/1/94
f 786/1/96 799/1/108 798/1/106
f 787/1/95 800/1/110 799/1/108
f 789/1/97 800/1/110 788/1/98
f 790/1/99 801/1/109 789/1/97
f 791/1/100 802/1/142 790/1/99
f 792/1/102 803/1/113 791/1/100
f 793/1/101 804/1/112 792/1/102
f 794/1/104 805/1/114 793/1/101
f 795/1/103 806/1/116 794/1/104
f 795/1/103 808/1/117 807/1/115
f 785/1/94 808/1/117 796/1/105
f 90/1/51 102/1/51 101/1/26
f 91/1/52 103/1/52 102/1/51
f 92/1/53 104/1/53 103/1/52
f 93/1/54 105/1/56 104/1/53
f 94/1/55 106/1/55 105/1/56
f 95/1/32 107/1/32 106/1/55
f 96/1/57 108/1/57 107/1/32
f 96/1/57 97/1/58 109/1/58
f 98/1/59 110/1/59 109/1/58
f 98/1/59 99/1/60 111/1/60
f 99/1/60 100/1/61 112/1/61
f 100/1/61 89/1/26 101/1/26
f 102/1/62 114/1/65 113/1/63
f 103/1/64 115/1/66 114/1/65
f 104/1/3 116/1/68 115/1/66
f 105/1/67 117/1/70 116/1/68
f 106/1/69 118/1/71 117/1/70
f 107/1/23 119/1/73 118/1/71
f 108/1/72 120/1/75 119/1/73
f 109/1/74 121/1/76 120/1/75
f 110/1/12 122/1/78 121/1/76
f 111/1/77 123/1/80 122/1/78
f 112/1/79 124/1/81 123/1/80
f 101/1/24 113/1/63 124/1/81
f 114/1/65 126/1/83 125/1/82
f 115/1/66 127/1/85 126/1/83
f 115/1/66 116/1/68 128/1/84
f 117/1/70 129/1/86 128/1/84
f 118/1/71 130/1/87 129/1/86
f 119/1/73 131/1/88 130/1/87
f 120/1/75 132/1/89 131/1/88
f 121/1/76 133/1/91 132/1/89
f 121/1/76 122/1/78 134/1/90
f 123/1/80 135/1/93 134/1/90
f 123/1/80 124/1/81 136/1/92
f 124/1/81 113/1/63 125/1/82
f 126/1/83 138/1/96 137/1/94
f 126/1/83 127/1/85 139/1/95
f 128/1/84 140/1/98 139/1/95
f 128/1/84 129/1/86 141/1/97
f 130/1/87 142/1/99 141/1/97
f 131/1/88 143/1/100 142/1/99
f 132/1/89 144/1/102 143/1/100
f 132/1/89 133/1/91 145/1/101
f 134/1/90 146/1/104 145/1/101
f 134/1/90 135/1/93 147/1/103
f 136/1/92 148/1/105 147/1/103
f 136/1/92 125/1/82 137/1/94
f 137/1/94 138/1/96 150/1/106
f 138/1/96 139/1/95 151/1/108
f 140/1/98 152/1/110 151/1/108
f 140/1/98 141/1/97 153/1/109
f 141/1/97 142/1/99 154/1/111
f 143/1/100 155/1/113 154/1/111
f 143/1/100 144/1/102 156/1/112
f 144/1/102 145/1/101 157/1/114
f 146/1/104 158/1/116 157/1/114
f 146/1/104 147/1/103 159/1/115
f 148/1/105 160/1/117 159/1/115
f 137/1/94 149/1/107 160/1/117
f 305/1/26 306/1/51 318/1/51
f 307/1/52 319/1/52 318/1/51
f 308/1/53 320/1/53 319/1/52
f 308/1/53 309/1/54 321/1/54
f 309/1/54 310/1/55 322/1/138
f 310/1/55 311/1/32 323/1/32
f 311/1/32 312/1/57 324/1/57
f 313/1/58 325/1/58 324/1/57
f 313/1/58 314/1/59 326/1/59
f 315/1/60 327/1/139 326/1/59
f 316/1/61 328/1/61 327/1/139
f 305/1/26 317/1/26 328/1/61
f 318/1/62 330/1/65 329/1/63
f 319/1/64 331/1/66 330/1/65
f 320/1/3 332/1/68 331/1/66
f 321/1/67 333/1/70 332/1/68
f 322/1/69 334/1/71 333/1/70
f 323/1/23 335/1/73 334/1/71
f 324/1/72 336/1/75 335/1/73
f 325/1/74 337/1/76 336/1/75
f 326/1/12 338/1/78 337/1/76
f 327/1/77 339/1/80 338/1/78
f 328/1/79 340/1/81 339/1/80
f 317/1/24 329/1/63 340/1/81
f 330/1/65 342/1/83 341/1/82
f 331/1/66 343/1/85 342/1/83
f 331/1/66 332/1/68 344/1/84
f 333/1/70 345/1/86 344/1/84
f 334/1/71 346/1/87 345/1/86
f 334/1/71 335/1/73 347/1/88
f 336/1/75 348/1/89 347/1/88
f 336/1/75 337/1/76 349/1/91
f 337/1/76 338/1/78 350/1/90
f 339/1/80 351/1/93 350/1/90
f 340/1/81 352/1/92 351/1/93
f 340/1/81 329/1/63 341/1/82
f 342/1/83 354/1/96 353/1/94
f 343/1/85 355/1/95 354/1/96
f 343/1/85 344/1/84 356/1/140
f 344/1/84 345/1/86 357/1/97
f 345/1/86 346/1/87 358/1/99
f 347/1/88 359/1/100 358/1/99
f 347/1/88 348/1/89 360/1/102
f 349/1/91 361/1/101 360/1/102
f 350/1/90 362/1/104 361/1/101
f 350/1/90 351/1/93 363/1/103
f 352/1/92 364/1/105 363/1/103
f 352/1/92 341/1/82 353/1/94
f 353/1/94 354/1/96 366/1/106
f 355/1/95 367/1/108 366/1/106
f 356/1/140 368/1/110 367/1/108
f 356/1/140 357/1/97 369/1/109
f 358/1/99 370/1/111 369/1/109
f 358/1/99 359/1/100 371/1/113
f 360/1/102 372/1/112 371/1/113
f 361/1/101 373/1/114 372/1/112
f 362/1/104 374/1/116 373/1/114
f 363/1/103 375/1/115 374/1/116
f 363/1/103 364/1/105 376/1/117
f 364/1/105 353/1/94 365/1/107
f 522/1/51 534/1/51 533/1/26
f 522/1/51 523/1/52 535/1/141
f 523/1/52 524/1/53 536/1/53
f 525/1/54 537/1/54 536/1/53
f 525/1/54 526/1/55 538/1/55
f 526/1/55 527/1/32 539/1/32
f 528/1/57 540/1/57 539/1/32
f 529/1/58 541/1/58 540/1/57
f 530/1/59 542/1/59 541/1/58
f 530/1/59 531/1/60 543/1/60
f 532/1/61 544/1/61 543/1/60
f 521/1/26 533/1/26 544/1/61
f 534/1/62 546/1/65 545/1/63
f 535/1/64 547/1/66 546/1/65
f 536/1/3 548/1/68 547/1/66
f 537/1/67 549/1/70 548/1/68
f 538/1/69 550/1/71 549/1/70
f 539/1/23 551/1/73 550/1/71
f 540/1/72 552/1/75 551/1/73
f 541/1/74 553/1/76 552/1/75
f 542/1/12 554/1/78 553/1/76
f 543/1/77 555/1/80 554/1/78
f 544/1/79 556/1/81 555/1/80
f 533/1/24 545/1/63 556/1/81
f 546/1/65 558/1/83 557/1/82
f 546/1/65 547/1/66 559/1/85
f 547/1/66 548/1/68 560/1/84
f 549/1/70 561/1/86 560/1/84
f 549/1/70 550/1/71 562/1/87
f 550/1/71 551/1/73 563/1/88
f 552/1/75 564/1/89 563/1/88
f 553/1/76 565/1/91 564/1/89
f 553/1/76 554/1/78 566/1/90
f 555/1/80 567/1/93 566/1/90
f 555/1/80 556/1/81 568/1/92
f 556/1/81 545/1/63 557/1/82
f 558/1/83 570/1/96 569/1/94
f 558/1/83 559/1/85 571/1/95
f 560/1/84 572/1/98 571/1/95
f 560/1/84 561/1/86 573/1/97
f 562/1/87 574/1/99 573/1/97
f 562/1/87 563/1/88 575/1/100
f 564/1/89 576/1/102 575/1/100
f 564/1/89 565/1/91 577/1/101
f 566/1/90 578/1/104 577/1/101
f 566/1/90 567/1/93 579/1/103
f 568/1/92 580/1/105 579/1/103
f 568/1/92 557/1/82 569/1/94
f 569/1/94 570/1/96 582/1/106
f 571/1/95 583/1/108 582/1/106
f 572/1/98 584/1/110 583/1/108
f 572/1/98 573/1/97 585/1/109
f 574/1/99 586/1/111 585/1/109
f 575/1/100 587/1/113 586/1/111
f 576/1/102 588/1/112 587/1/113
f 576/1/102 577/1/101 589/1/114
f 578/1/104 590/1/116 589/1/114
f 578/1/104 579/1/103 591/1/115
f 580/1/105 592/1/117 591/1/115
f 569/1/94 581/1/107 592/1/117
f 737/1/26 738/1/51 750/1/51
f 739/1/52 751/1/52 750/1/51
f 740/1/53 752/1/53 751/1/52
f 741/1/54 753/1/56 752/1/53
f 742/1/55 754/1/55 753/1/56
f 743/1/32 755/1/32 754/1/55
f 743/1/32 744/1/57 756/1/57
f 745/1/58 757/1/58 756/1/57
f 746/1/59 758/1/59 757/1/58
f 747/1/60 759/1/139 758/1/59
f 748/1/61 760/1/61 759/1/139
f 737/1/26 749/1/26 760/1/61
f 750/1/62 762/1/65 761/1/63
f 751/1/64 763/1/66 762/1/65
f 752/1/3 764/1/68 763/1/66
f 753/1/67 765/1/70 764/1/68
f 754/1/69 766/1/71 765/1/70
f 755/1/23 767/1/73 766/1/71
f 756/1/72 768/1/75 767/1/73
f 757/1/74 769/1/76 768/1/75
f 758/1/12 770/1/78 769/1/76
f 759/1/77 771/1/80 770/1/78
f 760/1/79 772/1/81 771/1/80
f 749/1/24 761/1/63 772/1/81
f 762/1/65 774/1/83 773/1/82
f 763/1/66 775/1/85 774/1/83
f 763/1/66 764/1/68 776/1/84
f 765/1/70 777/1/86 776/1/84
f 765/1/70 766/1/71 778/1/87
f 766/1/71 767/1/73 779/1/88
f 768/1/75 780/1/89 779/1/88
f 769/1/76 781/1/91 780/1/89
f 769/1/76 770/1/78 782/1/90
f 771/1/80 783/1/93 782/1/90
f 772/1/81 784/1/92 783/1/93
f 772/1/81 761/1/63 773/1/82
f 773/1/82 774/1/83 786/1/96
f 775/1/85 787/1/95 786/1/96
f 776/1/84 788/1/98 787/1/95
f 777/1/86 789/1/97 788/1/98
f 778/1/87 790/1/99 789/1/97
f 778/1/87 779/1/88 791/1/100
f 780/1/89 792/1/102 791/1/100
f 780/1/89 781/1/91 793/1/101
f 782/1/90 794/1/104 793/1/101
f 782/1/90 783/1/93 795/1/103
f 784/1/92 796/1/105 795/1/103
f 773/1/82 785/1/94 796/1/105
f 786/1/96 798/1/106 797/1/107
f 786/1/96 787/1/95 799/1/108
f 787/1/95 788/1/98 800/1/110
f 789/1/97 801/1/109 800/1/110
f 790/1/99 802/1/142 801/1/109
f 791/1/100 803/1/113 802/1/142
f 792/1/102 804/1/112 803/1/113
f 793/1/101 805/1/114 804/1/112
f 794/1/104 806/1/116 805/1/114
f 795/1/103 807/1/115 806/1/116
f 795/1/103 796/1/105 808/1/117
f 785/1/94 797/1/107 808/1/117
usemtl m2
f 162/1/118 171/1/24 161/1/24
f 163/1/119 172/1/118 162/1/118
f 164/1/120 173/1/119 163/1/119
f 165/1/121 174/1/120 164/1/120
f 166/1/23 175/1/121 165/1/121
f 167/1/122 176/1/23 166/1/23
f 168/1/123 177/1/122 167/1/122
f 169/1/124 178/1/123 168/1/123
f 170/1/125 179/1/124 169/1/124
f 161/1/24 180/1/125 170/1/125
s 0
f 181/1/1 194/1/1 193/1/1
f 183/1/1 194/1/1 182/1/1
f 183/1/1 196/1/1 195/1/1
f 185/1/1 196/1/1 184/1/1
f 185/1/1 198/1/1 197/1/1
f 187/1/1 198/1/1 186/1/1
f 187/1/1 200/1/1 199/1/1
f 189/1/1 200/1/1 188/1/1
f 189/1/1 202/1/1 201/1/1
f 191/1/1 202/1/1 190/1/1
f 191/1/1 204/1/1 203/1/1
f 181/1/1 204/1/1 192/1/1
f 193/1/126 206/1/126 205/1/126
f 195/1/126 206/1/126 194/1/126
f 195/1/127 208/1/127 207/1/127
f 197/1/127 208/1/127 196/1/127
f 197/1/128 210/1/128 209/1/128
f 199/1/128 210/1/128 198/1/128
f 199/1/129 212/1/129 211/1/129
f 201/1/129 212/1/129 200/1/129
f 201/1/130 214/1/130 213/1/130
f 203/1/130 214/1/130 202/1/130
f 203/1/131 216/1/131 215/1/131
f 193/1/131 216/1/131 204/1/131
f 206/1/62 217/1/62 205/1/62
f 207/1/62 218/1/62 206/1/62
f 208/1/3 219/1/3 207/1/3
f 209/1/3 220/1/3 208/1/3
f 210/1/69 221/1/69 209/1/69
f 211/1/69 222/1/69 210/1/69
f 212/1/72 223/1/72 211/1/72
f 213/1/72 224/1/72 212/1/72
f 214/1/12 225/1/12 213/1/12
f 215/1/12 226/1/12 214/1/12
f 216/1/79 227/1/79 215/1/79
f 205/1/79 228/1/79 216/1/79
f 218/1/132 229/1/132 217/1/132
f 218/1/132 231/1/132 230/1/132
f 220/1/133 231/1/133 219/1/133
f 220/1/133 233/1/133 232/1/133
f 222/1/134 233/1/134 221/1/134
f 222/1/134 235/1/134 234/1/134
f 224/1/135 235/1/135 223/1/135
f 224/1/135 237/1/135 236/1/135
f 226/1/136 237/1/136 225/1/136
f 226/1/136 239/1/136 238/1/136
f 228/1/137 239/1/137 227/1/137
f 228/1/137 229/1/137 240/1/137
f 230/1/7 241/1/7 229/1/7
f 230/1/7 243/1/7 242/1/7
f 232/1/7 243/1/7 231/1/7
f 232/1/7 245/1/7 244/1/7
f 234/1/7 245/1/7 233/1/7
f 234/1/7 247/1/7 246/1/7
f 236/1/7 247/1/7 235/1/7
f 236/1/7 249/1/7 248/1/7
f 238/1/7 249/1/7 237/1/7
f 238/1/7 251/1/7 250/1/7
f 240/1/7 251/1/7 239/1/7
f 240/1/7 241/1/7 252/1/7
s 1
f 378/1/118 387/1/24 377/1/24
f 379/1/119 388/1/118 378/1/118
f 380/1/120 389/1/119 379/1/119
f 381/1/121 390/1/120 380/1/120
f 382/1/23 391/1/121 381/1/121
f 383/1/122 392/1/23 382/1/23
f 384/1/123 393/1/122 383/1/122
f 385/1/124 394/1/123 384/1/123
f 386/1/125 395/1/124 385/1/124
f 377/1/24 396/1/125 386/1/125
s 0
f 397/1/1 410/1/1 409/1/1
f 399/1/1 410/1/1 398/1/1
f 399/1/1 412/1/1 411/1/1
f 401/1/1 412/1/1 400/1/1
f 401/1/1 414/1/1 413/1/1
f 403/1/1 414/1/1 402/1/1
f 403/1/1 416/1/1 415/1/1
f 405/1/1 416/1/1 404/1/1
f 405/1/1 418/1/1 417/1/1
f 407/1/1 418/1/1 406/1/1
f 407/1/1 420/1/1 419/1/1
f 397/1/1 420/1/1 408/1/1
f 409/1/126 422/1/126 421/1/126
f 411/1/126 422/1/126 410/1/126
f 411/1/127 424/1/127 423/1/127
f 413/1/127 424/1/127 412/1/127
f 413/1/128 426/1/128 425/1/128
f 415/1/128 426/1/128 414/1/128
f 415/1/129 428/1/129 427/1/129
f 417/1/129 428/1/129 416/1/129
f 417/1/130 430/1/130 429/1/130
f 419/1/130 430/1/130 418/1/130
f 419/1/131 432/1/131 431/1/131
f 409/1/131 432/1/131 420/1/131
f 422/1/62 433/1/62 421/1/62
f 423/1/62 434/1/62 422/1/62
f 424/1/3 435/1/3 423/1/3
f 425/1/3 436/1/3 424/1/3
f 426/1/69 437/1/69 425/1/69
f 427/1/69 438/1/69 426/1/69
f 428/1/72 439/1/72 427/1/72
f 429/1/72 440/1/72 428/1/72
f 430/1/12 441/1/12 429/1/12
f 431/1/12 442/1/12 430/1/12
f 432/1/79 443/1/79 431/1/79
f 421/1/79 444/1/79 432/1/79
f 434/1/132 445/1/132 433/1/132
f 434/1/132 447/1/132 446/1/132
f 436/1/133 447/1/133 435/1/133
f 436/1/133 449/1/133 448/1/133
f 438/1/134 449/1/134 437/1/134
f 438/1/134 451/1/134 450/1/134
f 440/1/135 451/1/135 439/1/135
f 440/1/135 453/1/135 452/1/135
f 442/1/136 453/1/136 441/1/136
f 442/1/136 455/1/136 454/1/136
f 444/1/137 455/1/137 443/1/137
f 444/1/137 445/1/137 456/1/137
f 446/1/7 457/1/7 445/1/7
f 446/1/7 459/1/7 458/1/7
f 448/1/7 459/1/7 447/1/7
f 448/1/7 461/1/7 460/1/7
f 450/1/7 461/1/7 449/1/7
f 450/1/7 463/1/7 462/1/7
f 452/1/7 463/1/7 451/1/7
f 452/1/7 465/1/7 464/1/7
f 454/1/7 465/1/7 453/1/7
f 454/1/7 467/1/7 466/1/7
f 456/1/7 467/1/7 455/1/7
f 456/1/7 457/1/7 468/1/7
s 1
f 594/1/118 603/1/24 593/1/24
f 595/1/119 604/1/118 594/1/118
f 596/1/120 605/1/119 595/1/119
f 597/1/121 606/1/120 596/1/120
f 598/1/23 607/1/121 597/1/121
f 599/1/122 608/1/23 598/1/23
f 600/1/123 609/1/122 599/1/122
f 601/1/124 610/1/123 600/1/123
f 602/1/125 611/1/124 601/1/124
f 593/1/24 612/1/125 602/1/125
s 0
f 613/1/1 626/1/1 625/1/1
f 615/1/1 626/1/1 614/1/1
f 615/1/1 628/1/1 627/1/1
f 617/1/1 628/1/1 616/1/1
f 617/1/1 630/1/1 629/1/1
f 619/1/1 630/1/1 618/1/1
f 619/1/1 632/1/1 631/1/1
f 621/1/1 632/1/1 620/1/1
f 621/1/1 634/1/1 633/1/1
f 623/1/1 634/1/1 622/1/1
f 623/1/1 636/1/1 635/1/1
f 613/1/1 636/1/1 624/1/1
f 625/1/126 638/1/126 637/1/126
f 627/1/126 638/1/126 626/1/126
f 627/1/127 640/1/127 639/1/127
f 629/1/127 640/1/127 628/1/127
f 629/1/128 642/1/128 641/1/128
f 631/1/128 642/1/128 630/1/128
f 631/1/129 644/1/129 643/1/129
f 633/1/129 644/1/129 632/1/129
f 633/1/130 646/1/130 645/1/130
f 635/1/130 646/1/130 634/1/130
f 635/1/131 648/1/131 647/1/131
f 625/1/131 648/1/131 636/1/131
f 638/1/62 649/1/62 637/1/62
f 639/1/62 650/1/62 638/1/62
f 640/1/3 651/1/3 639/1/3
f 641/1/3 652/1/3 640/1/3
f 642/1/69 653/1/69 641/1/69
f 643/1/69 654/1/69 642/1/69
f 644/1/72 655/1/72 643/1/72
f 645/1/72 656/1/72 644/1/72
f 646/1/12 657/1/12 645/1/12
f 647/1/12 658/1/12 646/1/12
f 648/1/79 659/1/79 647/1/79
f 637/1/79 660/1/79 648/1/79
f 650/1/132 661/1/132 649/1/132
f 650/1/132 663/1/132 662/1/132
f 652/1/133 663/1/133 651/1/133
f 652/1/133 665/1/133 664/1/133
f 654/1/134 665/1/134 653/1/134
f 654/1/134 667/1/134 666/1/134
f 656/1/135 667/1/135 655/1/135
f 656/1/135 669/1/135 668/1/135
f 658/1/136 669/1/136 657/1/136
f 658/1/136 671/1/136 670/1/136
f 660/1/137 671/1/137 659/1/137
f 660/1/137 661/1/137 672/1/137
f 662/1/7 673/1/7 661/1/7
f 662/1/7 675/1/7 674/1/7
f 664/1/7 675/1/7 663/1/7
f 664/1/7 677/1/7 676/1/7
f 666/1/7 677/1/7 665/1/7
f 666/1/7 679/1/7 678/1/7
f 668/1/7 679/1/7 667/1/7
f 668/1/7 681/1/7 680/1/7
f 670/1/7 681/1/7 669/1/7
f 670/1/7 683/1/7 682/1/7
f 672/1/7 683/1/7 671/1/7
f 672/1/7 673/1/7 684/1/7
s 1
f 810/1/118 819/1/24 809/1/24
f 811/1/119 820/1/118 810/1/118
f 812/1/120 821/1/119 811/1/119
f 813/1/121 822/1/120 812/1/120
f 814/1/23 823/1/121 813/1/121
f 815/1/122 824/1/23 814/1/23
f 816/1/123 825/1/122 815/1/122
f 817/1/124 826/1/123 816/1/123
f 818/1/125 827/1/124 817/1/124
f 809/1/24 828/1/125 818/1/125
s 0
f 829/1/1 842/1/1 841/1/1
f 831/1/1 842/1/1 830/1/1
f 831/1/1 844/1/1 843/1/1
f 833/1/1 844/1/1 832/1/1
f 833/1/1 846/1/1 845/1/1
f 835/1/1 846/1/1 834/1/1
f 835/1/1 848/1/1 847/1/1
f 837/1/1 848/1/1 836/1/1
f 837/1/1 850/1/1 849/1/1
f 839/1/1 850/1/1 838/1/1
f 839/1/1 852/1/1 851/1/1
f 829/1/1 852/1/1 840/1/1
f 841/1/126 854/1/126 853/1/126
f 843/1/126 854/1/126 842/1/126
f 843/1/127 856/1/127 855/1/127
f 845/1/127 856/1/127 844/1/127
f 845/1/128 858/1/128 857/1/128
f 847/1/128 858/1/128 846/1/128
f 847/1/129 860/1/129 859/1/129
f 849/1/129 860/1/129 848/1/129
f 849/1/130 862/1/130 861/1/130
f 851/1/130 862/1/130 850/1/130
f 851/1/131 864/1/131 863/1/131
f 841/1/131 864/1/131 852/1/131
f 854/1/62 865/1/62 853/1/62
f 855/1/62 866/1/62 854/1/62
f 856/1/3 867/1/3 855/1/3
f 857/1/3 868/1/3 856/1/3
f 858/1/69 869/1/69 857/1/69
f 859/1/69 870/1/69 858/1/69
f 860/1/72 871/1/72 859/1/72
f 861/1/72 872/1/72 860/1/72
f 862/1/12 873/1/12 861/1/12
f 863/1/12 874/1/12 862/1/12
f 864/1/79 875/1/79 863/1/79
f 853/1/79 876/1/79 864/1/79
f 866/1/132 877/1/132 865/1/132
f 866/1/132 879/1/132 878/1/132
f 868/1/133 879/1/133 867/1/133
f 868/1/133 881/1/133 880/1/133
f 870/1/134 881/1/134 869/1/134
f 870/1/134 883/1/134 882/1/134
f 872/1/135 883/1/135 871/1/135
f 872/1/135 885/1/135 884/1/135
f 874/1/136 885/1/136 873/1/136
f 874/1/136 887/1/136 886/1/136
f 876/1/137 887/1/137 875/1/137
f 876/1/137 877/1/137 888/1/137
f 878/1/7 889/1/7 877/1/7
f 878/1/7 891/1/7 890/1/7
f 880/1/7 891/1/7 879/1/7
f 880/1/7 893/1/7 892/1/7
f 882/1/7 893/1/7 881/1/7
f 882/1/7 895/1/7 894/1/7
f 884/1/7 895/1/7 883/1/7
f 884/1/7 897/1/7 896/1/7
f 886/1/7 897/1/7 885/1/7
f 886/1/7 899/1/7 898/1/7
f 888/1/7 899/1/7 887/1/7
f 888/1/7 889/1/7 900/1/7
s 1
f 162/1/118 172/1/118 171/1/24
f 163/1/119 173/1/119 172/1/118
f 164/1/120 174/1/120 173/1/119
f 165/1/121 175/1/121 174/1/120
f 166/1/23 176/1/23 175/1/121
f 167/1/122 177/1/122 176/1/23
f 168/1/123 178/1/123 177/1/122
f 169/1/124 179/1/124 178/1/123
f 170/1/125 180/1/125 179/1/124
f 161/1/24 171/1/24 180/1/125
s 0
f 181/1/1 182/1/1 194/1/1
f 183/1/1 195/1/1 194/1/1
f 183/1/1 184/1/1 196/1/1
f 185/1/1 197/1/1 196/1/1
f 185/1/1 186/1/1 198/1/1
f 187/1/1 199/1/1 198/1/1
f 187/1/1 188/1/1 200/1/1
f 189/1/1 201/1/1 200/1/1
f 189/1/1 190/1/1 202/1/1
f 191/1/1 203/1/1 202/1/1
f 191/1/1 192/1/1 204/1/1
f 181/1/1 193/1/1 204/1/1
f 193/1/126 194/1/126 206/1/126
f 195/1/126 207/1/126 206/1/126
f 195/1/127 196/1/127 208/1/127
f 197/1/127 209/1/127 208/1/127
f 197/1/128 198/1/128 210/1/128
f 199/1/128 211/1/128 210/1/128
f 199/1/129 200/1/129 212/1/129
f 201/1/129 213/1/129 212/1/129
f 201/1/130 202/1/130 214/1/130
f 203/1/130 215/1/130 214/1/130
f 203/1/131 204/1/131 216/1/131
f 193/1/131 205/1/131 216/1/131
f 206/1/62 218/1/62 217/1/62
f 207/1/62 219/1/62 218/1/62
f 208/1/3 220/1/3 219/1/3
f 209/1/3 221/1/3 220/1/3
f 210/1/69 222/1/69 221/1/69
f 211/1/69 223/1/69 222/1/69
f 212/1/72 224/1/72 223/1/72
f 213/1/72 225/1/72 224/1/72
f 214/1/12 226/1/12 225/1/12
f 215/1/12 227/1/12 226/1/12
f 216/1/79 228/1/79 227/1/79
f 205/1/79 217/1/79 228/1/79
f 218/1/132 230/1/132 229/1/132
f 218/1/132 219/1/132 231/1/132
f 220/1/133 232/1/133 231/1/133
f 220/1/133 221/1/133 233/1/133
f 222/1/134 234/1/134 233/1/134
f 222/1/134 223/1/134 235/1/134
f 224/1/135 236/1/135 235/1/135
f 224/1/135 225/1/135 237/1/135
f 226/1/136 238/1/136 237/1/136
f 226/1/136 227/1/136 239/1/136
f 228/1/137 240/1/137 239/1/137
f 228/1/137 217/1/137 229/1/137
f 230/1/7 242/1/7 241/1/7
f 230/1/7 231/1/7 243/1/7
f 232/1/7 244/1/7 243/1/7
f 232/1/7 233/1/7 245/1/7
f 234/1/7 246/1/7 245/1/7
f 234/1/7 235/1/7 247/1/7
f 236/1/7 248/1/7 247/1/7
f 236/1/7 237/1/7 249/1/7
f 238/1/7 250/1/7 249/1/7
f 238/1/7 239/1/7 251/1/7
f 240/1/7 252/1/7 251/1/7
f 240/1/7 229/1/7 241/1/7
s 1
f 378/1/118 388/1/118 387/1/24
f 379/1/119 389/1/119 388/1/118
f 380/1/120 390/1/120 389/1/119
f 381/1/121 391/1/121 390/1/120
f 382/1/23 392/1/23 391/1/121
f 383/1/122 393/1/122 392/1/23
f 384/1/123 394/1/123 393/1/122
f 385/1/124 395/1/124 394/1/123
f 386/1/125 396/1/125 395/1/124
f 377/1/24 387/1/24 396/1/125
s 0
f 397/1/1 398/1/1 410/1/1
f 399/1/1 411/1/1 410/1/1
f 399/1/1 400/1/1 412/1/1
f 401/1/1 413/1/1 412/1/1
f 401/1/1 402/1/1 414/1/1
f 403/1/1 415/1/1 414/1/1
f 403/1/1 404/1/1 416/1/1
f 405/1/1 417/1/1 416/1/1
f 405/1/1 406/1/1 418/1/1
f 407/1/1 419/1/1 418/1/1
f 407/1/1 408/1/1 420/1/1
f 397/1/1 409/1/1 420/1/1
f 409/1/126 410/1/126 422/1/126
f 411/1/126 423/1/126 422/1/126
f 411/1/127 412/1/127 424/1/127
f 413/1/127 425/1/127 424/1/127
f 413/1/128 414/1/128 426/1/128
f 415/1/128 427/1/128 426/1/128
f 415/1/129 416/1/129 428/1/129
f 417/1/129 429/1/129 428/1/129
f 417/1/130 418/1/130 430/1/130
f 419/1/130 431/1/130 430/1/130
f 419/1/131 420/1/131 432/1/131
f 409/1/131 421/1/131 432/1/131
f 422/1/62 434/1/62 433/1/62
f 423/1/62 435/1/62 434/1/62
f 424/1/3 436/1/3 435/1/3
f 425/1/3 437/1/3 436/1/3
f 426/1/69 438/1/69 437/1/69
f 427/1/69 439/1/69 438/1/69
f 428/1/72 440/1/72 439/1/72
f 429/1/72 441/1/72 440/1/72
f 430/1/12 442/1/12 441/1/12
f 431/1/12 443/1/12 442/1/12
f 432/1/79 444/1/79 443/1/79
f 421/1/79 433/1/79 444/1/79
f 434/1/132 446/1/132 445/1/132
f 434/1/132 435/1/132 447/1/132
f 436/1/133 448/1/133 447/1/133
f 436/1/133 437/1/133 449/1/133
f 438/1/134 450/1/134 449/1/134
f 438/1/134 439/1/134 451/1/134
f 440/1/135 452/1/135 451/1/135
f 440/1/135 441/1/135 453/1/135
f 442/1/136 454/1/136 453/1/136
f 442/1/136 443/1/136 455/1/136
f 444/1/137 456/1/137 455/1/137
f 444/1/137 433/1/137 445/1/137
f 446/1/7 458/1/7 457/1/7
f 446/1/7 447/1/7 459/1/7
f 448/1/7 460/1/7 459/1/7
f 448/1/7 449/1/7 461/1/7
f 450/1/7 462/1/7 461/1/7
f 450/1/7 451/1/7 463/1/7
f 452/1/7 464/1/7 463/1/7
f 452/1/7 453/1/7 465/1/7
f 454/1/7 466/1/7 465/1/7
f 454/1/7 455/1/7 467/1/7
f 456/1/7 468/1/7 467/1/7
f 456/1/7 445/1/7 457/1/7
s 1
f 594/1/118 604/1/118 603/1/24
f 595/1/119 605/1/119 604/1/118
f 596/1/120 606/1/120 605/1/119
f 597/1/121 607/1/121 606/1/120
f 598/1/23 608/1/23 607/1/121
f 599/1/122 609/1/122 608/1/23
f 600/1/123 610/1/123 609/1/122
f 601/1/124 611/1/124 610/1/123
f 602/1/125 612/1/125 611/1/124
f 593/1/24 603/1/24 612/1/125
s 0
f 613/1/1 614/1/1 626/1/1
f 615/1/1 627/1/1 626/1/1
f 615/1/1 616/1/1 628/1/1
f 617/1/1 629/1/1 628/1/1
f 617/1/1 618/1/1 630/1/1
f 619/1/1 631/1/1 630/1/1
f 619/1/1 620/1/1 632/1/1
f 621/1/1 633/1/1 632/1/1
f 621/1/1 622/1/1 634/1/1
f 623/1/1 635/1/1 634/1/1
f 623/1/1 624/1/1 636/1/1
f 613/1/1 625/1/1 636/1/1
f 625/1/126 626/1/126 638/1/126
f 627/1/126 639/1/126 638/1/126
f 627/1/127 628/1/127 640/1/127
f 629/1/127 641/1/127 640/1/127
f 629/1/128 630/1/128 642/1/128
f 631/1/128 643/1/128 642/1/128
f 631/1/129 632/1/129 644/1/129
f 633/1/129 645/1/129 644/1/129
f 633/1/130 634/1/130 646/1/130
f 635/1/130 647/1/130 646/1/130
f 635/1/131 636/1/131 648/1/131
f 625/1/131 637/1/131 648/1/131
f 638/1/62 650/1/62 649/1/62
f 639/1/62 651/1/62 650/1/62
f 640/1/3 652/1/3 651/1/3
f 641/1/3 653/1/3 652/1/3
f 642/1/69 654/1/69 653/1/69
f 643/1/69 655/1/69 654/1/69
f 644/1/72 656/1/72 655/1/72
f 645/1/72 657/1/72 656/1/72
f 646/1/12 658/1/12 657/1/12
f 647/1/12 659/1/12 658/1/12
f 648/1/79 660/1/79 659/1/79
f 637/1/79 649/1/79 660/1/79
f 650/1/132 662/1/132 661/1/132
f 650/1/132 651/1/132 663/1/132
f 652/1/133 664/1/133 663/1/133
f 652/1/133 653/1/133 665/1/133
f 654/1/134 666/1/134 665/1/134
f 654/1/134 655/1/134 667/1/134
f 656/1/135 668/1/135 667/1/135
f 656/1/135 657/1/135 669/1/135
f 658/1/136 670/1/136 669/1/136
f 658/1/136 659/1/136 671/1/136
f 660/1/137 672/1/137 671/1/137
f 660/1/137 649/1/137 661/1/137
f 662/1/7 674/1/7 673/1/7
f 662/1/7 663/1/7 675/1/7
f 664/1/7 676/1/7 675/1/7
f 664/1/7 665/1/7 677/1/7
f 666/1/7 678/1/7 677/1/7
f 666/1/7 667/1/7 679/1/7
f 668/1/7 680/1/7 679/1/7
f 668/1/7 669/1/7 681/1/7
f 670/1/7 682/1/7 681/1/7
f 670/1/7 671/1/7 683/1/7
f 672/1/7 684/1/7 683/1/7
f 672/1/7 661/1/7 673/1/7
s 1
f 810/1/118 820/1/118 819/1/24
f 811/1/119 821/1/119 820/1/118
f 812/1/120 822/1/120 821/1/119
f 813/1/121 823/1/121 822/1/120
f 814/1/23 824/1/23 823/1/121
f 815/1/122 825/1/122 824/1/23
f 816/1/123 826/1/123 825/1/122
f 817/1/124 827/1/124 826/1/123
f 818/1/125 828/1/125 827/1/124
f 809/1/24 819/1/24 828/1/125
s 0
f 829/1/1 830/1/1 842/1/1
f 831/1/1 843/1/1 842/1/1
f 831/1/1 832/1/1 844/1/1
f 833/1/1 845/1/1 844/1/1
f 833/1/1 834/1/1 846/1/1
f 835/1/1 847/1/1 846/1/1
f 835/1/1 836/1/1 848/1/1
f 837/1/1 849/1/1 848/1/1
f 837/1/1 838/1/1 850/1/1
f 839/1/1 851/1/1 850/1/1
f 839/1/1 840/1/1 852/1/1
f 829/1/1 841/1/1 852/1/1
f 841/1/126 842/1/126 854/1/126
f 843/1/126 855/1/126 854/1/126
f 843/1/127 844/1/127 856/1/127
f 845/1/127 857/1/127 856/1/127
f 845/1/128 846/1/128 858/1/128
f 847/1/128 859/1/128 858/1/128
f 847/1/129 848/1/129 860/1/129
f 849/1/129 861/1/129 860/1/129
f 849/1/130 850/1/130 862/1/130
f 851/1/130 863/1/130 862/1/130
f 851/1/131 852/1/131 864/1/131
f 841/1/131 853/1/131 864/1/131
f 854/1/62 866/1/62 865/1/62
f 855/1/62 867/1/62 866/1/62
f 856/1/3 868/1/3 867/1/3
f 857/1/3 869/1/3 868/1/3
f 858/1/69 870/1/69 869/1/69
f 859/1/69 871/1/69 870/1/69
f 860/1/72 872/1/72 871/1/72
f 861/1/72 873/1/72 872/1/72
f 862/1/12 874/1/12 873/1/12
f 863/1/12 875/1/12 874/1/12
f 864/1/79 876/1/79 875/1/79
f 853/1/79 865/1/79 876/1/79
f 866/1/132 878/1/132 877/1/132
f 866/1/132 867/1/132 879/1/132
f 868/1/133 880/1/133 879/1/133
f 868/1/133 869/1/133 881/1/133
f 870/1/134 882/1/134 881/1/134
f 870/1/134 871/1/134 883/1/134
f 872/1/135 884/1/135 883/1/135
f 872/1/135 873/1/135 885/1/135
f 874/1/136 886/1/136 885/1/136
f 874/1/136 875/1/136 887/1/136
f 876/1/137 888/1/137 887/1/137
f 876/1/137 865/1/137 877/1/137
f 878/1/7 890/1/7 889/1/7
f 878/1/7 879/1/7 891/1/7
f 880/1/7 892/1/7 891/1/7
f 880/1/7 881/1/7 893/1/7
f 882/1/7 894/1/7 893/1/7
f 882/1/7 883/1/7 895/1/7
f 884/1/7 896/1/7 895/1/7
f 884/1/7 885/1/7 897/1/7
f 886/1/7 898/1/7 897/1/7
f 886/1/7 887/1/7 899/1/7
f 888/1/7 900/1/7 899/1/7
f 888/1/7 877/1/7 889/1/7
