# Blender 5.2.2 LTS
# www.blender.org
mtllib BulletCameraLow.mtl
o security_camera_01
v -0.024567 0.068759 0.272642
v -0.024465 0.065213 0.261953
v -0.027754 0.062070 0.267874
v -0.024057 0.060412 0.268320
v -0.024745 0.071487 0.262976
v -0.024448 0.072148 0.267265
v -0.018994 0.066670 0.264837
v -0.018983 0.065037 0.269672
v -0.018985 0.069554 0.268189
v 0.065026 0.225910 0.142935
v 0.078650 0.166202 0.143004
v 0.046911 0.238413 0.142883
v 0.043389 0.240320 0.553700
v 0.074912 0.202956 0.534078
v 0.075724 0.188281 0.142899
v 0.061148 0.232324 0.549821
v 0.043695 0.242129 0.142664
v 0.064504 0.231290 0.142705
v 0.076918 0.199792 0.142846
v 0.061983 0.229511 0.227816
v 0.045664 0.238852 0.228528
v 0.071883 0.207485 0.225937
v 0.075724 0.188280 0.494224
v 0.075724 0.188280 0.385736
v 0.075724 0.188280 0.228042
v 0.000016 0.239886 0.228830
v 0.078781 0.166219 0.482926
v 0.056554 0.233864 0.407103
v 0.047364 0.238051 0.408839
v 0.034522 0.240127 0.409514
v 0.071883 0.207485 0.395052
v 0.064719 0.225546 0.403380
v 0.000400 0.237537 0.409202
v -0.064905 0.226090 0.142934
v -0.066716 0.222920 0.545215
v -0.044315 0.239554 0.142874
v -0.082642 0.143229 0.500883
v -0.044887 0.241737 0.142665
v -0.064529 0.231211 0.142706
v -0.046202 0.240212 0.553584
v -0.077852 0.177551 0.142938
v -0.076018 0.203434 0.534276
v -0.077309 0.198061 0.142855
v -0.062293 0.233517 0.549960
v -0.061905 0.229579 0.227822
v -0.046732 0.238576 0.228510
v -0.071851 0.207485 0.225937
v -0.075692 0.188280 0.385736
v -0.075692 0.188280 0.228042
v -0.000632 0.239738 0.553687
v -0.056522 0.233864 0.407103
v -0.044188 0.239122 0.409244
v -0.071851 0.207485 0.395052
v -0.064687 0.225546 0.403380
v -0.002941 0.240209 0.409388
v -0.024598 0.101075 0.311537
v -0.024415 0.101060 0.225007
v -0.022502 0.059079 0.256781
v -0.022953 0.097261 0.225479
v -0.023658 0.059572 0.275401
v -0.024476 0.087654 0.238655
v -0.021592 0.086494 0.239914
v -0.022083 0.096789 0.311560
v -0.023221 0.080837 0.291380
v 0.024129 0.101020 0.224506
v 0.024500 0.087587 0.238730
v 0.023536 0.059180 0.274860
v 0.021623 0.086489 0.239917
v 0.022099 0.096950 0.311560
v 0.022693 0.059924 0.255879
v 0.023252 0.080818 0.291335
v 0.024611 0.101060 0.311554
v 0.018570 0.046595 0.254013
v -0.020138 0.082013 0.268388
v -0.021564 0.053617 0.280962
v -0.018891 0.045138 0.275654
v -0.018853 0.043934 0.254828
v -0.018413 0.048473 0.278392
v -0.019184 0.045516 0.280132
v -0.015086 0.046369 0.287579
v -0.004118 0.046461 0.293189
v 0.020335 0.071585 0.254431
v 0.020576 0.046573 0.276786
v 0.017987 0.046347 0.277401
v 0.018813 0.043832 0.254899
v 0.002641 0.048261 0.293936
v 0.016787 0.046108 0.285205
v 0.010217 0.046592 0.292008
v 0.003404 0.029318 0.297373
v 0.006370 0.043300 0.293262
v -0.021238 -0.041799 0.000116
v -0.039562 0.039746 0.003806
v 0.005356 0.045673 0.298369
v 0.020856 -0.041507 0.000035
v -0.041519 0.041712 0.000000
v -0.021521 0.045559 0.291874
v -0.034995 0.042398 0.257860
v -0.017966 0.029184 0.295985
v -0.032266 0.028038 0.278001
v -0.033145 0.026497 0.253303
v -0.027325 0.027948 0.276107
v -0.028620 0.026837 0.257480
v -0.013505 0.025617 0.235992
v -0.017854 0.042931 0.288240
v -0.028578 0.041447 0.269137
v -0.026290 0.040632 0.252381
v -0.012126 0.039401 0.233709
v -0.017866 0.025289 0.233863
v -0.021713 -0.001226 0.033823
v -0.026579 -0.000873 0.034110
v -0.005316 -0.018417 0.004130
v -0.015957 0.009949 0.197771
v -0.041052 0.004032 0.003791
v -0.041841 0.003963 0.000140
v -0.013643 0.028890 0.292192
v -0.017032 0.042491 0.233046
v -0.026754 0.028931 0.005020
v -0.022599 -0.015322 0.004547
v -0.029863 -0.015664 0.004413
v -0.000022 -0.011033 0.004125
v -0.021111 0.024542 0.005389
v 0.028992 0.042167 0.246479
v 0.021029 0.028994 0.293064
v 0.032298 0.028039 0.278003
v 0.033176 0.026498 0.253297
v 0.023690 0.028502 0.284332
v 0.028658 0.026841 0.257495
v 0.013539 0.025618 0.236002
v 0.027021 0.041952 0.277302
v 0.026341 0.040624 0.252402
v 0.012152 0.039329 0.233625
v 0.017906 0.025282 0.233898
v 0.021747 -0.001224 0.033831
v 0.026619 -0.000875 0.034098
v 0.004054 -0.019866 0.004249
v 0.015996 0.009956 0.197808
v 0.040322 0.041799 0.000056
v 0.041137 0.004156 0.003790
v 0.041841 0.003895 0.000138
v 0.034470 0.043819 0.264531
v 0.017152 0.042261 0.233059
v 0.026804 0.028928 0.005124
v 0.026255 -0.015141 0.004831
v 0.039123 0.039791 0.003859
v 0.024914 0.045185 0.288131
v 0.021068 0.024565 0.004956
v 0.020619 -0.040787 0.003859
v 0.000974 -0.021894 0.000100
v -0.005289 -0.015026 0.000100
v 0.005624 -0.015546 0.000117
v 0.000016 -0.011406 0.000104
v -0.063211 0.126009 0.501910
v -0.049886 0.105052 0.501957
v -0.049316 0.104444 0.504641
v -0.075575 0.163449 0.504892
v -0.052003 0.230536 0.501957
v -0.062855 0.125223 0.504803
v -0.077215 0.168816 0.502012
v -0.017231 0.213899 0.495521
v -0.035063 0.201070 0.495500
v -0.033713 0.140440 0.495388
v -0.015335 0.128410 0.495363
v -0.054975 0.222690 0.505289
v -0.045102 0.231452 0.505524
v -0.071352 0.180891 0.504735
v -0.044368 0.159589 0.495425
v -0.044855 0.181470 0.495466
v 0.005538 0.126223 0.495357
v 0.011393 0.216661 0.495559
v -0.017454 0.214923 0.504902
v -0.045948 0.172486 0.504868
v 0.000016 0.126081 0.504776
v -0.023232 0.131735 0.504855
v -0.040228 0.193620 0.504906
v -0.041138 0.151130 0.504829
v 0.063243 0.126010 0.501910
v 0.045433 0.233410 0.501936
v 0.049254 0.104456 0.502008
v 0.075826 0.167901 0.504429
v 0.056586 0.224160 0.501937
v 0.062887 0.125223 0.504803
v 0.077371 0.169349 0.502058
v 0.035094 0.201070 0.495500
v 0.030127 0.136192 0.495500
v 0.046353 0.230849 0.505718
v 0.056656 0.219874 0.505214
v 0.064694 0.201913 0.512128
v 0.044400 0.159589 0.495425
v 0.044887 0.181470 0.495466
v 0.045980 0.172486 0.504868
v 0.022653 0.131321 0.504831
v 0.040260 0.193620 0.504906
v 0.019908 0.213560 0.504934
v 0.041170 0.151130 0.504829
v -0.042785 0.232965 0.502283
v -0.075116 0.168674 0.502290
v -0.054460 0.225611 0.502283
v -0.071125 0.173371 0.502283
v -0.069574 0.176239 0.502283
v -0.074484 0.166118 0.502281
v -0.054460 0.111229 0.502283
v -0.071125 0.163470 0.502283
v -0.065968 0.197297 0.502283
v -0.065968 0.139543 0.502283
v -0.042785 0.103875 0.502283
v -0.069574 0.160601 0.502283
v 0.042817 0.232965 0.502283
v 0.054492 0.225611 0.502283
v 0.042817 0.103875 0.502283
v 0.054492 0.111229 0.502283
v 0.074412 0.170894 0.502284
v 0.065811 0.211006 0.502283
v 0.074400 0.165930 0.502283
v 0.066000 0.139543 0.502283
v 0.070066 0.161919 0.502281
v -0.072589 0.176461 0.218160
v -0.049490 0.234869 0.218160
v -0.065976 0.210537 0.218158
v 0.072556 0.176970 0.218158
v 0.079285 0.168436 0.218161
v 0.072373 0.159718 0.218158
v 0.066604 0.208774 0.218159
v 0.052369 0.233386 0.218157
v -0.050483 0.102849 0.218158
v -0.065959 0.126261 0.218158
v -0.072587 0.160314 0.218159
v 0.049788 0.101868 0.218158
v 0.066519 0.127440 0.218159
v -0.078704 0.167903 0.218214
v -0.049345 0.230423 0.502283
v 0.049377 0.230423 0.502283
v -0.049345 0.106417 0.502283
v 0.049377 0.106417 0.502283
v -0.061664 0.124430 0.502283
v -0.061664 0.212410 0.502283
v 0.061696 0.212410 0.502283
v -0.051903 0.233541 0.502282
v -0.074409 0.170791 0.502283
v -0.050989 0.102338 0.502284
v -0.066636 0.128238 0.502283
v -0.066658 0.208543 0.502283
v 0.049744 0.234987 0.502282
v 0.052381 0.103458 0.502281
v 0.075130 0.168393 0.502284
v 0.061800 0.124597 0.502284
v 0.070099 0.174874 0.502283
v 0.066005 0.197281 0.502283
v -0.049567 0.237702 0.209845
v 0.075603 0.170807 0.218363
v 0.050124 0.236844 0.209017
v 0.068094 0.212455 0.209648
v 0.064542 0.117418 0.218387
v 0.052843 0.100412 0.210783
v 0.048264 0.135355 0.148828
v 0.020355 0.136311 0.139990
v 0.067442 0.126026 0.182811
v 0.064122 0.116407 0.210106
v 0.065154 0.198799 0.186103
v 0.042585 0.211299 0.172960
v 0.070960 0.154698 0.175068
v 0.046028 0.226746 0.189933
v 0.041206 0.161220 0.147269
v 0.060565 0.157847 0.159238
v -0.075530 0.170262 0.218367
v -0.068170 0.212163 0.209431
v -0.064477 0.117380 0.218385
v -0.051817 0.099621 0.210795
v -0.052803 0.133425 0.153704
v -0.065932 0.125816 0.181011
v -0.037490 0.136143 0.143884
v -0.064119 0.116490 0.209931
v -0.071438 0.146571 0.178584
v -0.070303 0.172863 0.180671
v -0.041818 0.208120 0.170490
v -0.059323 0.206416 0.184647
v -0.045893 0.225509 0.188359
v -0.041021 0.159059 0.146755
v -0.060535 0.157763 0.159253
v 0.072491 0.176552 0.218409
v 0.043520 0.235090 0.218409
v 0.068111 0.197425 0.218409
v 0.053945 0.229128 0.218510
v 0.042296 0.101774 0.218402
v 0.055707 0.109857 0.218409
v 0.067946 0.138680 0.218409
v 0.071616 0.158357 0.218409
v 0.050233 0.104755 0.218409
v 0.063498 0.212815 0.218409
v 0.061015 0.118300 0.218389
v -0.072242 0.176360 0.218409
v 0.000019 0.235738 0.218409
v -0.043482 0.235090 0.218409
v -0.068067 0.197425 0.218409
v -0.053847 0.229128 0.218409
v -0.042254 0.101773 0.218402
v -0.055668 0.109857 0.218409
v -0.067900 0.138680 0.218409
v -0.071648 0.158356 0.218409
v -0.050194 0.104755 0.218409
v -0.063459 0.212815 0.218409
v -0.060978 0.118304 0.218388
v 0.044457 0.237772 0.218419
v 0.067926 0.209359 0.218393
v 0.047320 0.099959 0.218433
v -0.051794 0.235049 0.218481
v -0.048188 0.100462 0.218434
v -0.068019 0.209017 0.218395
v 0.019385 0.114133 0.186617
v 0.026263 0.095288 0.193568
v 0.020706 0.102006 0.184736
v 0.040337 0.104457 0.175842
v 0.044505 0.097785 0.183096
v 0.042298 0.115714 0.177885
v 0.028028 0.096406 0.180424
v 0.029630 0.100602 0.174073
v 0.037589 0.094570 0.194234
v 0.038084 0.096201 0.180964
v 0.029276 0.115468 0.202167
v 0.022176 0.120397 0.184037
v 0.020931 0.117885 0.193234
v 0.028774 0.108303 0.185821
v 0.030834 0.106804 0.191384
v 0.035668 0.108971 0.183249
v 0.037277 0.107221 0.189880
v 0.030598 0.121998 0.178132
v 0.041193 0.121381 0.180472
v 0.046807 0.118744 0.191004
v 0.042008 0.116328 0.199116
v 0.024363 0.110564 0.199885
v 0.041898 0.109893 0.199637
v 0.028258 0.116872 0.175868
v 0.032151 0.094464 0.189483
v -0.019157 0.112735 0.187087
v -0.027724 0.117095 0.175489
v -0.026015 0.098932 0.195959
v -0.020674 0.102006 0.184736
v -0.040305 0.104457 0.175842
v -0.028649 0.110148 0.202190
v -0.047787 0.115281 0.188123
v -0.020130 0.112505 0.193581
v -0.042084 0.108867 0.199523
v -0.027365 0.094780 0.187973
v -0.028145 0.096333 0.180500
v -0.029582 0.100715 0.174013
v -0.044468 0.097784 0.183090
v -0.037546 0.094556 0.194223
v -0.038146 0.096187 0.181041
v -0.035422 0.094542 0.188979
v -0.030237 0.115470 0.202278
v -0.020261 0.118656 0.190432
v -0.030006 0.108840 0.183649
v -0.030802 0.106804 0.191384
v -0.037813 0.107853 0.187452
v -0.024816 0.121235 0.180904
v -0.041777 0.121142 0.181344
v -0.034580 0.121998 0.178065
v -0.046032 0.119112 0.188881
v -0.042202 0.116375 0.198937
v -0.041846 0.114910 0.177706
v 0.017599 0.118457 0.189162
v 0.041658 0.114662 0.202487
v 0.047897 0.117184 0.193195
v 0.044923 0.120968 0.179513
v 0.028114 0.121809 0.176015
v 0.026063 0.114452 0.203178
v 0.037482 0.125720 0.177655
v 0.021950 0.124522 0.182209
v 0.028330 0.125659 0.177984
v 0.047906 0.123214 0.186504
v 0.018712 0.122423 0.189886
v 0.022523 0.119349 0.201150
v 0.046234 0.120400 0.197535
v 0.037775 0.118409 0.204651
v 0.029363 0.121021 0.178945
v 0.025301 0.120384 0.181285
v 0.038675 0.120864 0.179556
v 0.034075 0.121157 0.178459
v 0.022328 0.119440 0.184825
v 0.023174 0.115174 0.197595
v 0.030839 0.114928 0.201474
v 0.035578 0.114955 0.201393
v 0.039998 0.115402 0.199755
v 0.021080 0.117823 0.190751
v 0.043409 0.119789 0.183559
v 0.044173 0.116633 0.195220
v 0.045422 0.118243 0.189293
v -0.029950 0.114099 0.204528
v -0.017262 0.117684 0.191819
v -0.039291 0.114579 0.203432
v -0.048127 0.116669 0.195233
v -0.043326 0.121075 0.178777
v -0.027470 0.121785 0.176175
v -0.020759 0.124161 0.183363
v -0.047581 0.121428 0.193785
v -0.023356 0.119325 0.201394
v -0.042499 0.119150 0.202031
v -0.031677 0.118304 0.205134
v -0.018379 0.121473 0.193189
v -0.044569 0.124468 0.182303
v -0.032072 0.125712 0.177324
v -0.029331 0.121021 0.178945
v -0.024072 0.120118 0.182292
v -0.038643 0.120864 0.179556
v -0.034043 0.121157 0.178459
v -0.021777 0.119034 0.186263
v -0.023060 0.116280 0.196485
v -0.033983 0.114876 0.201682
v -0.039966 0.115402 0.199755
v -0.021048 0.117820 0.190750
v -0.042334 0.120097 0.182406
v -0.027795 0.115193 0.200484
v -0.043257 0.116289 0.196487
v -0.044778 0.119047 0.186298
v -0.045173 0.117414 0.192334
v 0.044592 0.242837 0.138664
v 0.072688 0.219451 0.143373
v 0.078311 0.194598 0.138019
v 0.047762 0.243275 0.135211
v 0.062528 0.233740 0.137420
v 0.075667 0.214865 0.135236
v 0.084169 0.140968 0.137321
v -0.043991 0.242537 0.138371
v -0.080715 0.180654 0.143490
v -0.083806 0.140815 0.140713
v -0.073166 0.216914 0.138241
v -0.059196 0.236219 0.138997
v -0.046250 0.243901 0.135221
v -0.066281 0.231557 0.135164
v -0.085431 0.141074 0.135218
v -0.078658 0.201047 0.135198
v 0.047554 0.219037 0.444225
v -0.045933 0.219037 0.444225
v 0.047554 0.124101 0.444225
v -0.045933 0.124101 0.444225
v 0.047688 0.226420 0.502296
v -0.045799 0.226420 0.502296
v 0.047688 0.124101 0.502296
v -0.045799 0.124101 0.502296
v 0.001341 0.175664 0.469041
v -0.007089 0.164455 0.469075
v -0.004963 0.152902 0.469075
v 0.007233 0.145700 0.469085
v 0.020909 0.152902 0.469075
v 0.023035 0.164456 0.469076
v 0.016621 0.174344 0.469074
v 0.018723 0.175351 0.486138
v -0.008610 0.154973 0.487254
v 0.004260 0.144371 0.487219
v 0.017451 0.146955 0.487390
v 0.027188 0.163412 0.488211
v 0.018441 0.165882 0.482973
v 0.004476 0.150159 0.483294
v -0.005968 0.169739 0.485246
v 0.003487 0.178330 0.487129
v 0.035090 0.178697 0.469076
v 0.035090 0.144721 0.469076
v -0.020234 0.143870 0.469076
v -0.020625 0.178760 0.469076
v 0.035090 0.178714 0.443825
v 0.035090 0.144721 0.443825
v -0.020234 0.143870 0.443825
v -0.020625 0.178760 0.443825
v 0.027678 0.070516 0.264698
v 0.026877 0.064538 0.271497
v 0.024835 0.070575 0.269495
v 0.024617 0.061986 0.270664
v 0.024562 0.062626 0.262669
v 0.024756 0.068507 0.262211
v 0.019025 0.067376 0.264959
v 0.019015 0.064279 0.269019
v 0.019017 0.069034 0.269055
v 0.021695 0.066452 0.266295
v 0.021780 0.066897 0.267022
v -0.021645 0.066186 0.266423
v -0.021745 0.066928 0.267144
v -0.004130 0.038230 0.271210
v -0.003653 0.037796 0.263594
v 0.004025 0.037773 0.264166
v 0.003571 0.038344 0.271805
v -0.003818 0.042337 0.273582
v 0.005637 0.042223 0.269876
v -0.001003 0.041616 0.262020
v -0.006398 0.041783 0.267191
v 0.000970 0.046432 0.267039
v -0.000881 0.046453 0.267060
v -0.033992 0.033946 0.003639
v -0.033429 0.031019 0.003940
v 0.032700 0.033896 0.003940
v 0.032138 0.030969 0.003639
v -0.000123 -0.030932 0.003939
v -0.000686 -0.033859 0.003639
v -0.003476 0.097174 0.299803
v -0.002809 0.097292 0.294161
v 0.002729 0.097273 0.300981
v 0.003753 0.097302 0.294382
v -0.000058 0.097198 0.233862
v -0.003339 0.097255 0.241694
v 0.002897 0.097298 0.242823
v 0.004690 0.097292 0.238555
v 0.047554 0.219037 0.502461
v -0.045933 0.219037 0.502461
v 0.047554 0.124101 0.502461
v -0.045933 0.124101 0.502461
vn -0.4558 0.1222 0.8816
vn -0.3667 0.5994 0.7116
vn -0.4559 0.4169 0.7864
vn -0.7183 0.2270 0.6576
vn -0.9863 -0.1586 0.0445
vn -0.9871 -0.1559 0.0373
vn -0.6413 -0.2056 -0.7392
vn -0.7249 -0.6651 0.1795
vn -0.9996 -0.0266 0.0076
vn -0.0976 0.4391 -0.8931
vn 0.6846 0.5499 -0.4785
vn -0.5510 0.5346 -0.6408
vn 0.8719 0.0189 0.4894
vn 0.6020 -0.3447 0.7203
vn 0.9125 -0.4091 0.0010
vn -0.9929 0.0570 0.1043
vn -0.5904 -0.8071 0.0103
vn -0.7486 -0.6630 0.0124
vn -0.3779 -0.8136 0.4419
vn -0.0450 -0.9989 0.0121
vn -0.1807 -0.9835 0.0104
vn 0.6414 0.5849 0.4965
vn -0.9658 -0.2592 0.0040
vn -0.9944 -0.1052 0.0118
vn -0.9715 0.2349 0.0319
vn -0.9282 -0.3719 0.0081
vn 0.3733 -0.5897 0.7161
vn 0.7285 -0.2050 0.6537
vn 0.0710 -0.0962 0.9928
vn -0.1865 -0.6215 0.7609
vn -0.3565 -0.2527 0.8995
vn -0.3402 -0.6415 0.6876
vn 0.6102 -0.4896 0.6229
vn 0.0264 -0.0048 0.9996
vn 0.0297 -0.0058 0.9995
vn 0.2922 -0.8385 0.4599
vn -0.5569 -0.3636 0.7468
vn -0.4755 0.3312 0.8150
vn -0.8523 0.2810 0.4413
vn -0.1762 0.9843 -0.0061
vn -0.0531 0.5393 0.8405
vn -0.1737 0.8778 0.4463
vn 0.7336 -0.6796 -0.0039
vn 0.2778 -0.9606 0.0059
vn 0.2787 -0.9604 -0.0020
vn 0.8595 -0.5112 0.0028
vn 0.8695 -0.4867 0.0843
vn 0.9532 -0.3024 -0.0015
vn -0.6533 -0.7569 -0.0156
vn -0.0172 -0.9645 -0.2634
vn -0.0120 -0.9654 -0.2604
vn 0.9817 0.1035 -0.1597
vn 0.7590 -0.0034 0.6510
vn 0.9990 0.0046 -0.0445
vn -0.9417 0.3364 -0.0015
vn -0.7364 -0.5855 0.3390
vn -0.6702 0.7398 -0.0589
vn -0.6065 0.3263 0.7251
vn 0.5351 0.0310 0.8442
vn 0.6475 -0.7620 -0.0126
vn 0.4243 -0.9055 0.0093
vn -0.0424 -0.9368 0.3473
vn 0.6071 -0.7517 -0.2576
vn 0.7307 -0.6827 -0.0098
vn 0.4667 -0.6801 -0.5654
vn -0.1778 0.4164 0.8916
vn -0.2654 0.7425 0.6151
vn 0.2729 0.9223 0.2736
vn -0.6930 -0.6441 0.3239
vn -0.5769 -0.8025 0.1520
vn -0.7261 -0.6331 -0.2682
vn -0.7714 -0.6342 -0.0530
vn -0.6841 0.1405 0.7158
vn -0.6385 0.7614 -0.1123
vn -0.7506 -0.4813 -0.4527
vn 0.8003 -0.3494 -0.4874
vn 0.0662 -0.9435 -0.3248
vn 0.5007 0.7064 0.5003
vn 0.0008 1.0000 0.0007
vn -0.5039 0.7011 -0.5045
vn 0.6593 -0.1613 0.7344
vn 0.5033 0.4575 0.7331
vn 0.1423 -0.5507 0.8225
vn -0.9044 0.3657 0.2198
vn -0.0474 0.9673 0.2491
vn -0.0715 0.6146 0.7856
vn 0.9818 -0.1892 -0.0148
vn 0.9855 -0.1695 -0.0068
vn 0.9856 -0.1689 -0.0064
vn 0.1571 0.9273 -0.3397
vn -0.7934 -0.5331 -0.2940
vn -0.3092 0.4467 -0.8395
vn 0.2528 0.1500 -0.9558
vn 0.7248 -0.4600 -0.5129
vn -0.0358 -0.9438 -0.3285
vn -0.8039 -0.3097 -0.5078
vn 0.1128 -0.9871 0.1135
vn 0.0572 -0.9874 0.1473
vn 0.1128 -0.9931 0.0333
vn -0.4700 -0.2677 0.8411
vn 0.4593 -0.2740 0.8450
vn 0.7061 -0.2226 0.6722
vn 0.9618 -0.1896 0.1973
vn 0.9292 0.3696 0.0020
vn 0.9910 0.1033 -0.0855
vn 0.9771 0.2130 0.0009
vn 0.1284 0.8990 0.4188
vn 0.6594 0.0699 0.7486
vn 0.5509 0.6893 0.4705
vn 0.9542 -0.2993 -0.0026
vn 0.8086 -0.5881 0.0167
vn -0.6808 0.2944 -0.6707
vn -0.2331 0.1237 -0.9645
vn -0.5000 0.2269 -0.8358
vn -0.5779 0.5805 0.5736
vn 0.4788 0.4351 0.7625
vn 0.5658 0.6502 0.5071
vn -0.9682 -0.2337 0.0897
vn -0.3873 -0.4605 0.7987
vn -0.6964 -0.6364 0.3318
vn -0.8632 -0.4381 -0.2509
vn -0.4596 -0.7764 -0.4312
vn -0.1301 -0.9876 0.0877
vn 0.0481 0.9945 0.0928
vn 0.0490 0.9759 -0.2127
vn 0.8046 0.1714 0.5685
vn -0.8592 0.5113 0.0167
vn -0.6733 0.0806 0.7349
vn -0.9101 0.4141 0.0152
vn 0.4861 0.5016 -0.7156
vn 0.9376 0.3477 -0.0021
vn -0.7669 -0.5310 0.3604
vn -0.5664 -0.7953 0.2160
vn 0.9983 0.0246 0.0531
vn 0.9988 0.0325 0.0365
vn 0.9986 0.0331 0.0404
vn 0.2488 0.9520 -0.1783
vn 0.6987 -0.6393 -0.3212
vn 0.3043 -0.6753 0.6718
vn 0.8035 -0.5293 -0.2726
vn -0.1642 0.6852 0.7096
vn -0.3194 -0.0153 -0.9475
vn -0.2885 0.7053 0.6476
vn -0.7399 0.1793 0.6484
vn -0.9063 0.4014 -0.1321
vn -0.1725 -0.7327 -0.6584
vn 0.5630 -0.7975 0.2170
vn 0.9398 0.1478 -0.3083
vn -0.7491 0.6624 -0.0023
vn -0.2608 -0.9654 0.0042
vn -0.0049 -0.9997 0.0230
vn -0.4446 0.4255 0.7882
vn -0.9572 -0.1864 0.2213
vn -0.6484 -0.2422 0.7218
vn -0.7960 0.5866 -0.1492
vn -0.9278 0.1304 0.3494
vn -0.4868 0.6856 0.5413
vn -0.5176 -0.8063 -0.2865
vn -0.8073 -0.5859 -0.0712
vn 0.1391 -0.7753 -0.6160
vn -0.0685 0.3507 -0.9340
vn 0.7806 0.5732 -0.2493
vn 0.9291 -0.3699 -0.0027
vn 0.6374 -0.3290 -0.6968
vn 0.8354 -0.5452 -0.0697
vn 0.6768 -0.6470 0.3512
vn -0.0791 -0.1807 0.9804
vn 0.5206 -0.8324 0.1900
vn 0.5617 -0.8233 0.0817
vn 0.2089 -0.4584 0.8638
vn 0.7134 -0.6283 -0.3103
vn -0.8120 -0.5835 0.0144
vn -0.9542 -0.2991 -0.0040
vn -0.7301 -0.6833 -0.0075
vn 0.1586 -0.5654 0.8094
vn 0.0997 -0.8085 0.5800
vn -0.1772 -0.4735 0.8628
vn -0.9992 0.0316 0.0255
vn -0.3491 0.3367 0.8745
vn -0.7673 -0.6062 0.2094
vn -0.2931 0.5443 -0.7861
vn 0.2976 0.5715 -0.7647
vn 0.2982 0.2769 -0.9135
vn -0.0044 -0.9974 0.0725
vn 0.3576 -0.8249 -0.4377
vn -0.1214 -0.4865 -0.8652
vn 0.7640 -0.5319 0.3651
vn -0.5154 0.6512 0.5571
vn -0.2906 0.4631 0.8373
vn -0.8750 0.4824 0.0413
vn 0.6373 -0.3578 0.6825
vn 0.0187 0.6773 0.7355
vn -0.6399 -0.2231 0.7353
vn -0.4814 -0.4168 0.7711
vn -0.3593 -0.2299 0.9045
vn -0.9608 -0.2134 0.1769
vn -0.4771 -0.5185 0.7096
vn 0.0395 -0.9350 -0.3525
vn 0.1478 -0.8640 -0.4813
vn 0.1950 -0.3650 0.9104
vn 0.6785 -0.7239 0.1250
vn -0.9999 -0.0115 0.0002
vn -0.5665 -0.7853 0.2497
vn -0.5789 0.5768 0.5763
vn -0.1197 0.1072 0.9870
vn 0.9736 -0.2282 -0.0108
vn 0.6327 -0.2730 0.7247
vn 0.9905 0.0218 0.1360
vn 0.3915 0.4721 0.7898
vn 0.6890 0.1118 0.7161
vn 0.4269 0.0118 0.9042
vn 0.2037 0.9748 -0.0910
vn -0.5416 0.8117 -0.2185
vn -0.9305 -0.0190 -0.3659
vn 0.6887 0.7177 -0.1025
vn 0.6210 0.3250 0.7132
vn 0.5407 0.8257 0.1607
vn -0.1351 0.9850 0.1075
vn -0.0167 -0.1583 0.9872
vn 0.6470 0.5295 0.5487
vn 0.6673 0.0722 0.7412
vn -0.1140 -0.9930 -0.0312
vn -0.6699 -0.7288 0.1413
vn 0.0735 -0.9646 0.2532
vn 0.9712 -0.2376 0.0171
vn 0.9804 -0.1962 0.0186
vn 0.2376 0.8358 0.4949
vn 0.5550 0.6133 0.5620
vn 0.2349 0.9720 0.0028
vn 0.4130 0.9107 0.0042
vn 0.4619 0.8869 0.0016
vn -0.3265 -0.6432 0.6926
vn -0.1647 -0.9793 -0.1179
vn -0.7398 -0.6717 -0.0403
vn 0.8249 -0.2354 0.5139
vn 0.1474 -0.9711 -0.1875
vn -0.9258 -0.3781 -0.0016
vn -0.3191 -0.5714 0.7561
vn -0.1384 -0.8481 0.5114
vn -0.9650 0.2624 -0.0008
vn -0.5734 -0.6101 0.5468
vn 0.4705 -0.8824 -0.0027
vn -0.0040 0.9207 0.3903
vn 0.0484 -0.4083 0.9115
vn 0.5071 0.8619 -0.0038
vn 0.5369 0.2318 0.8112
vn -0.5108 0.6004 0.6153
vn -0.9253 0.3415 -0.1651
vn -0.9625 0.2711 0.0083
vn -0.3360 0.5701 0.7498
vn -0.3888 0.9045 -0.1756
vn 0.3878 0.6629 0.6404
vn -0.9239 0.3825 -0.0026
vn -0.2538 0.7835 0.5672
vn 0.0970 -0.8123 0.5751
vn 0.3757 -0.7563 0.5356
vn 0.9483 0.2551 -0.1886
vn -0.0000 -0.0000 1.0000
vn 0.6837 0.2393 0.6894
vn 0.2276 0.0748 0.9709
vn 0.6314 0.0518 0.7738
vn -0.8272 -0.0234 0.5614
vn -0.9911 0.1262 0.0411
vn -0.9690 0.0368 -0.2445
vn -0.9142 -0.4053 0.0022
vn -0.3028 -0.9531 -0.0033
vn -0.1904 -0.3594 0.9136
vn 0.7001 -0.3027 0.6467
vn 0.8943 0.4307 -0.1211
vn 0.0737 -0.4852 -0.8713
vn -0.3016 0.2517 -0.9196
vn 0.4273 -0.5242 -0.7367
vn 0.8200 0.3488 -0.4539
vn 0.3529 0.7387 -0.5742
vn 0.9297 -0.0240 -0.3676
vn 0.4607 0.8733 -0.1586
vn -0.2846 -0.6949 0.6603
vn -0.6339 -0.7097 -0.3075
vn -0.8474 -0.4829 -0.2208
vn 0.7194 0.1229 -0.6837
vn -0.2131 -0.5077 -0.8347
vn -0.4689 -0.6134 -0.6355
vn 0.6516 -0.7438 0.1490
vn -0.7358 0.4226 -0.5291
vn -0.3500 0.7300 -0.5869
vn -0.8213 -0.4474 0.3539
vn -0.9479 -0.1223 -0.2940
vn -0.9064 0.1932 -0.3756
vn -0.2107 -0.0298 0.9771
vn -0.7180 0.1280 -0.6842
vn 0.9999 -0.0124 -0.0064
vn 0.1911 0.3662 0.9107
vn 0.7486 0.6003 0.2814
vn 0.3726 -0.8660 -0.3335
vn -0.3754 -0.7684 0.5182
vn 0.2652 -0.9392 -0.2182
vn 0.6709 -0.6377 -0.3786
vn -0.3381 -0.9262 -0.1669
vn -0.5017 0.7047 0.5016
vn 0.4955 0.8344 0.2412
vn 0.3969 0.7688 -0.5013
vn 0.0073 0.9984 -0.0564
vn 0.5640 0.7900 -0.2404
vn 0.3694 -0.5943 0.7144
vn 0.4187 0.1848 0.8892
vn -0.8017 -0.5883 -0.1053
vn -0.5832 -0.3514 0.7324
vn -1.0000 -0.0000 0.0023
vn -0.6773 -0.7296 0.0941
vn -0.7603 -0.1259 0.6373
vn -0.2993 -0.9541 0.0089
vn -0.4883 -0.5384 0.6868
vn 0.6765 -0.7307 0.0914
vn 0.5937 -0.5319 0.6038
vn 0.5697 -0.5710 -0.5912
vn 0.4847 -0.1624 -0.8595
vn 0.3538 -0.4047 0.8433
vn 0.1933 -0.2179 0.9566
vn 0.3061 -0.5863 -0.7500
vn 0.2590 -0.6880 0.6779
vn 0.3527 -0.9293 0.1098
vn -0.5226 0.5299 -0.6679
vn -0.8663 -0.4745 -0.1563
vn 0.5702 0.4143 -0.7094
vn 0.9499 0.3089 -0.0484
vn 0.6868 0.0541 0.7248
vn 0.8659 0.4815 0.1358
vn 0.9514 0.2021 0.2324
vn 0.8170 -0.3891 -0.4256
vn 0.3281 -0.0206 -0.9444
vn -0.7793 0.0921 -0.6198
vn -0.9877 0.1144 0.1069
vn -0.1710 0.4672 -0.8675
vn 0.6679 0.3504 0.6567
vn 0.6727 0.2355 0.7014
vn 0.7345 -0.6744 -0.0754
vn -0.4768 -0.2014 -0.8556
vn -0.1500 0.4279 -0.8913
vn -0.7088 -0.3358 -0.6204
vn 0.9374 0.0444 0.3453
vn -0.6396 -0.3845 0.6656
vn 0.0903 -0.9787 -0.1845
vn -0.3846 0.9231 0.0022
vn -0.7765 0.4764 0.4124
vn -0.9738 -0.2267 0.0159
vn -0.3092 -0.2343 -0.9217
vn -0.9874 -0.0655 0.1440
vn 0.0890 0.0457 0.9950
vn -0.7554 0.6202 0.2116
vn -0.7670 -0.0432 -0.6402
vn -0.5814 0.5451 0.6040
vn -0.4549 -0.0635 -0.8883
vn 0.9527 -0.2992 -0.0542
vn 0.9259 -0.0822 -0.3687
vn 0.7768 -0.6289 0.0340
vn 0.7481 -0.1844 -0.6375
vn -0.3918 -0.0961 -0.9150
vn 0.4189 0.6702 -0.6127
vn -0.6472 -0.6250 0.4366
vn 0.6830 -0.3909 0.6170
vn 0.0622 -0.0585 0.9963
vn -0.1984 0.1794 -0.9636
vn -0.6117 -0.1644 -0.7738
vn -0.3444 0.6129 -0.7112
vn -0.2662 0.1067 0.9580
vn -0.2047 -0.0173 0.9787
vn -0.0287 -0.0057 0.9996
vn -0.0249 -0.0046 0.9997
vn 0.2754 -0.2431 0.9301
vn 0.8769 -0.2441 0.4140
vn -0.1290 0.5534 0.8229
vn 0.6749 0.2628 0.6895
vn -0.4339 0.8589 -0.2722
vn -0.9272 -0.2566 0.2730
vn -0.9554 -0.0472 -0.2914
vn -0.6129 -0.1768 -0.7702
vn 0.7082 -0.4675 0.5291
vn 0.7066 0.7076 -0.0016
vn 0.7074 0.5006 0.4990
vn -0.3563 -0.6880 0.6323
vn -0.5338 -0.6218 0.5731
vn 0.7537 0.3153 0.5767
vn -0.6116 0.5000 0.6131
vn -0.3427 0.7071 0.6185
vn 0.7066 0.7076 -0.0000
vn -0.7076 0.7066 0.0016
vn -0.6583 -0.2521 0.7093
vn -0.6679 0.4024 -0.6261
vn -0.6793 0.6634 0.3138
vn -0.7899 -0.0455 0.6115
vn 0.4172 0.5857 0.6949
vn -0.0368 0.9908 -0.1305
vn -0.5003 0.5973 0.6268
vn 0.3379 0.6201 0.7081
vn 0.7914 0.1998 -0.5777
vn -0.1440 0.4255 -0.8934
vn -0.5816 -0.6753 0.4535
vn 0.3901 -0.7068 -0.5900
vn 0.9137 -0.2858 0.2888
vn -0.9419 0.2228 0.2514
vn -0.2314 0.1893 0.9543
vn 0.9541 0.2218 0.2012
vn 0.9523 0.1960 0.2340
vn 0.7798 -0.2269 -0.5834
vn 0.9355 0.3254 -0.1376
vn -0.9154 0.4022 -0.0141
vn -0.9434 0.0816 0.3215
vn 0.6369 0.5105 -0.5777
vn 0.7474 -0.0010 -0.6644
vn 0.9900 0.1290 0.0570
vn -0.8271 0.3595 0.4321
vn -0.5697 -0.6778 -0.4648
vn -0.0213 -0.9988 0.0451
vn -0.9634 0.2675 0.0156
vn 0.3553 0.2576 0.8986
vn 0.4674 -0.2582 0.8455
vn -0.3450 -0.1690 0.9233
vn 0.7591 0.6509 -0.0094
vn 0.9409 -0.0051 -0.3388
vn -0.0707 0.2422 0.9676
vn 0.3836 0.4963 0.7788
vn 0.6252 -0.6792 0.3844
vn 0.8879 -0.1755 -0.4252
vn -0.8704 0.3933 -0.2962
vn -0.6455 0.3252 0.6910
vn -0.5653 -0.7150 0.4114
vn -0.4593 -0.6968 -0.5509
vn 0.6176 -0.5962 -0.5129
vn 0.2271 -0.9676 -0.1104
vn -0.0436 -0.9970 -0.0641
vn -0.3667 0.2857 0.8854
vn 0.7816 -0.1975 -0.5916
vn 0.7570 -0.6514 -0.0511
vn 0.3399 -0.7138 0.6123
vn -0.4146 -0.4755 0.7759
vn 0.1376 -0.1367 0.9810
vn -0.2024 0.2463 0.9478
vn -0.9507 -0.3098 0.0169
vn -0.0078 0.9988 -0.0482
vn -0.9897 -0.1429 -0.0000
vn -0.3179 -0.8849 0.3404
vn 0.0112 0.0016 0.9999
vn 0.0001 -0.0072 1.0000
vn -0.0048 -0.0020 1.0000
vn 0.0223 0.0041 0.9997
vn 0.2523 -0.6102 0.7510
vn -0.0055 0.0082 1.0000
vn -0.0007 0.0151 0.9999
vn 0.0007 0.0211 0.9998
vn -0.0009 -0.0059 1.0000
vn 0.0278 -0.0296 0.9992
vn 0.0008 0.0004 1.0000
vn -0.1329 -0.7135 -0.6880
vn 0.7027 -0.6989 -0.1335
vn 0.3832 -0.6001 0.7022
vn -0.6177 -0.7071 0.3442
vn -0.4140 -0.9102 0.0035
vn 0.0371 -0.9532 -0.3001
vn -0.3192 -0.9477 0.0018
vn -0.4964 0.3480 0.7953
vn 0.5185 0.2398 0.8208
vn 0.0659 -0.9754 -0.2104
vn 0.0012 -0.9654 -0.2606
vn -0.3031 -0.8532 0.4244
vn -0.0166 -0.9714 -0.2367
vn -0.0447 -0.9766 -0.2104
vn -0.0177 -0.9717 -0.2355
vn -0.4117 -0.5841 -0.6995
vn 0.0001 -0.9655 -0.2603
vn -0.0004 -0.9657 -0.2598
vn 0.5082 -0.2799 -0.8145
vn -0.0007 -0.9636 -0.2672
vn 0.0884 -0.9474 -0.3075
vn 0.0010 -0.9642 -0.2653
vn -0.0003 -0.9639 -0.2661
vn 0.0385 -0.9653 -0.2584
vn -0.0004 -0.9657 -0.2597
vn -0.9996 0.0265 -0.0108
vn -0.7137 -0.4577 -0.5301
vn -0.7044 -0.0705 0.7063
vn 0.7143 -0.6999 -0.0027
vn -0.8504 -0.3965 -0.3458
vn -0.7497 0.3226 0.5779
vn -0.7088 -0.2153 0.6717
vn -0.6766 -0.2083 -0.7063
vn -0.5442 -0.3302 -0.7713
vn -0.0092 -0.9262 0.3768
vn -0.0451 -0.8446 0.5335
vn -1.0000 0.0005 -0.0022
vn 0.1214 -0.9601 0.2520
vn -0.5059 -0.7378 0.4469
vn -0.0016 -0.3823 0.9240
vn -0.1934 -0.7175 0.6691
vn -0.4992 0.7077 0.5001
vn -0.1230 -0.4189 0.8997
vn 0.7136 0.1684 0.6801
vn -0.0826 -0.7018 0.7076
vn 0.4379 -0.5194 0.7338
vn 0.6582 0.1765 0.7319
vn 0.5724 -0.4394 0.6922
vn -0.1115 -0.6738 0.7305
vn 0.6842 0.0648 0.7264
vn 0.2323 -0.6650 0.7098
vn -0.0186 -0.6815 0.7316
vn -0.6683 0.2895 0.6853
vn -0.0686 -0.7413 0.6677
vn 0.5999 0.3102 0.7375
vn -0.0171 0.6778 0.7351
vn -0.6356 -0.3614 0.6822
vn 0.6401 -0.2207 0.7359
vn -0.6766 -0.1931 0.7106
vn 0.0249 -0.0737 0.9970
vn -0.2155 0.6437 0.7343
vn -0.5783 -0.4116 0.7044
vn -0.2952 0.9268 0.2321
vn 0.4394 0.5375 0.7197
vn -0.4623 0.8867 -0.0044
vn 0.9820 -0.1883 -0.0142
vn 0.2165 -0.9763 0.0058
vn -0.4855 -0.3919 0.7814
vn -0.9736 -0.2282 -0.0108
vn -0.6236 -0.3490 0.6995
vn 0.5280 0.6346 0.5644
vn 0.0331 -0.0387 0.9987
vn 0.1242 -0.1197 0.9850
vn 0.2351 -0.0870 0.9681
vn -0.3663 -0.9250 -0.1010
vn -0.0339 -0.1272 -0.9913
vn 0.7963 0.2526 -0.5496
vn 0.9032 -0.0647 -0.4244
vn 0.6219 -0.7037 -0.3436
vn -0.3859 -0.9225 -0.0118
vn 0.0081 -0.9321 0.3621
vn 0.0262 -0.8593 0.5108
vn 0.9957 -0.0556 -0.0741
vn 0.9958 -0.0542 -0.0733
vn 0.7255 0.6154 -0.3082
vn 0.5361 0.6217 -0.5710
vn 0.1082 -0.9423 -0.3169
vn 0.8775 -0.1571 -0.4531
vn 0.5263 -0.4807 -0.7013
vn -0.5159 -0.4708 -0.7157
vn 0.4539 0.5334 -0.7138
vn -0.4969 0.5086 -0.7031
vn 0.7042 -0.0510 -0.7082
vn -0.6220 -0.3447 -0.7031
vn -0.2408 0.6710 -0.7012
vn -0.3541 -0.6316 -0.6897
vn -0.5608 0.4749 -0.6782
vn 0.5409 0.4866 -0.6861
vn -0.7077 0.0847 -0.7014
vn 0.2778 0.6556 -0.7021
vn 0.6144 -0.3481 -0.7080
vn -0.7009 -0.2413 -0.6712
vn 0.9526 0.0294 -0.3029
vn 0.9982 0.0462 0.0375
vn -0.2107 -0.7169 0.6646
vn -0.9130 0.1903 0.3608
vn -0.7104 0.0573 0.7015
vn 0.7060 0.0510 0.7064
vn -0.0020 0.0826 0.9966
vn 0.1094 -0.9935 -0.0313
vn 0.3016 -0.9509 -0.0691
vn -0.5628 -0.5944 0.5744
vn 0.5779 -0.5742 0.5800
vn 0.9130 0.1196 -0.3899
vn -0.7822 -0.0134 0.6228
vn 0.7663 0.5633 -0.3090
vn 0.7217 -0.4099 0.5579
vn 0.9944 0.1051 0.0052
vn 0.9856 -0.1129 -0.1261
vn 0.6666 -0.4829 0.5678
vn -0.6622 0.6998 -0.2680
vn -0.9972 0.0708 -0.0241
vn -0.9962 0.0743 -0.0448
vn 0.1056 0.9915 0.0761
vn 0.1241 0.6766 0.7258
vn 0.6244 0.1107 0.7732
vn -0.9979 0.0507 0.0410
vn -0.9522 0.0335 -0.3037
vn -0.0098 -0.9974 0.0713
vn -0.0130 -0.9977 0.0670
vn -0.0090 -0.9981 0.0607
vn -0.0065 -0.9985 0.0543
vn 0.0034 -0.9982 0.0602
vn 0.0128 -0.9977 0.0663
vn 0.0094 -0.9974 0.0716
vn -0.1242 -0.9597 0.2521
vn 1.0000 -0.0002 -0.0023
vn -0.0348 -0.7074 0.7060
vn -0.6975 0.2025 0.6873
vn -0.5504 -0.3895 0.7385
vn 0.6681 -0.1335 0.7320
vn -0.2731 -0.6481 0.7109
vn -0.6779 0.0954 0.7290
vn 0.0064 -0.6812 0.7320
vn -0.5964 -0.4032 0.6941
vn -0.6511 0.1959 0.7333
vn 0.0755 -0.6786 0.7306
vn 0.1480 -0.6905 0.7080
vn 0.6003 0.3742 0.7068
vn -0.6492 -0.1584 0.7439
vn -0.3716 0.5568 0.7429
vn 0.0623 -0.8122 0.5800
vn 0.6539 0.2126 0.7261
vn -0.6173 0.2169 0.7563
vn 0.7034 -0.3377 0.6254
vn 0.6818 0.5714 -0.4568
vn -0.7883 0.2601 0.5576
vn -0.5228 -0.7663 -0.3734
vn -0.9999 -0.0115 -0.0000
vn -0.6985 -0.5099 -0.5021
vn -0.5710 -0.3805 0.7274
vn 0.0005 0.9930 0.1179
vn 0.6278 -0.3560 0.6922
vn -0.8105 -0.2093 0.5470
vn -0.0565 0.7620 0.6451
vn -0.7648 0.6434 0.0338
vn -0.7708 0.5639 0.2966
vn 0.4899 0.8586 0.1511
vn -0.2895 -0.7217 -0.6287
vn -0.7457 -0.0848 -0.6609
vn -0.0636 -0.0801 -0.9948
vn 0.3471 -0.6902 -0.6350
vn -0.8644 0.2394 0.4422
vn -0.4777 -0.8785 -0.0024
vn -0.5219 -0.6593 0.5413
vn -0.8164 -0.5350 -0.2175
vn -0.7066 -0.6578 0.2607
vn -0.0825 -0.9484 -0.3061
vn -0.0220 -0.9443 -0.3283
vn 0.3315 -0.8715 0.3613
vn 0.0011 -0.9644 -0.2646
vn 0.0108 -0.9705 -0.2407
vn 0.0003 -0.9651 -0.2617
vn 0.0108 -0.9635 -0.2676
vn 0.0094 -0.9599 -0.2801
vn 0.0137 -0.9527 -0.3036
vn 0.0241 -0.9622 -0.2714
vn 0.0005 -0.9651 -0.2617
vn 0.0012 -0.9655 -0.2603
vn -0.0094 -0.9640 -0.2657
vn 0.6933 -0.6817 0.2338
vn -0.0000 -0.0001 1.0000
vn -0.0005 -0.0001 1.0000
vn -0.0009 -0.0005 1.0000
vn -0.0002 -0.0000 1.0000
vn 0.3470 -0.5446 0.7635
vn 0.0001 0.0002 1.0000
vn -0.3541 -0.6355 0.6862
vn -0.0000 0.0006 1.0000
vn 0.0003 0.0002 1.0000
vn -0.0002 0.0001 1.0000
vn -0.0000 0.0010 1.0000
vn -0.0001 0.0002 1.0000
vn -0.0001 0.0001 1.0000
vn 0.0003 0.0003 1.0000
vn 0.0002 0.0002 1.0000
vn 0.3693 0.6160 0.6958
vn -0.0001 -0.0000 1.0000
vn -0.0011 0.0004 1.0000
vn 0.0004 -0.0003 1.0000
vn 0.0001 -0.0024 1.0000
vn 0.0002 -0.0003 1.0000
vn -0.0000 0.0004 1.0000
vn -0.0004 0.0001 1.0000
vn -0.0032 -0.4192 0.9079
vn 0.6436 -0.0547 0.7634
vn -0.6814 -0.1435 0.7177
vn -0.8425 -0.5356 0.0575
vn -0.3695 -0.8141 0.4479
vn 0.9997 0.0217 -0.0055
vn -0.0044 1.0000 0.0037
vn -0.0006 0.9980 -0.0625
vn -0.6774 -0.7297 0.0928
vn -0.5025 0.1452 -0.8523
vn -0.4763 0.6484 -0.5938
vn -0.8032 0.3380 -0.4905
vn -0.4944 -0.1595 -0.8545
vn 0.4932 0.5106 -0.7043
vn 0.4235 -0.6214 0.6592
vn 0.7276 -0.5556 -0.4025
vn 0.3463 -0.9325 -0.1027
vn -0.4723 0.8814 -0.0024
vn -0.9892 -0.1467 -0.0000
vn 0.8350 -0.2377 0.4962
vn 0.3684 -0.4521 0.8123
vn 0.9479 -0.3048 -0.0922
vn -0.8190 -0.4393 0.3691
vn 0.4633 -0.0314 0.8856
vn 0.6074 0.1829 0.7731
vn -0.0057 -0.9756 -0.2197
vn -0.4429 -0.8096 0.3852
vn 0.7995 0.4359 -0.4132
vn -0.6879 -0.2773 0.6707
vn 0.0097 -0.2837 0.9589
vn 0.0269 -0.0212 0.9994
vn -0.0097 0.0013 1.0000
vn -0.0011 0.0003 1.0000
vn -0.2581 -0.6085 0.7504
vn 0.0052 0.0081 1.0000
vn -0.0055 0.0030 1.0000
vn -0.0293 -0.0311 0.9991
vn -0.0191 0.0034 0.9998
vn 0.5074 -0.6392 0.5778
vn 0.4363 -0.5524 0.7102
vn -0.0907 -0.9900 0.1081
vn 0.5394 -0.4863 0.6875
vn -0.5127 -0.5026 0.6961
vn 0.9987 0.0515 -0.0004
vn 0.7671 -0.6023 0.2208
vn 0.6485 -0.7592 -0.0558
vn 0.9842 0.1093 -0.1391
vn 0.7875 0.1316 0.6022
vn 0.6765 -0.7308 0.0912
vn 0.3100 0.7558 0.5767
vn -0.6799 0.7071 0.1942
vn 0.5006 0.7071 0.4994
vn 0.6000 0.7076 -0.3733
vn 0.1373 0.8458 -0.5155
vn -0.2152 0.7339 -0.6443
vn -0.5234 0.8496 -0.0660
vn -0.1712 -0.7518 0.6368
vn -0.5530 -0.6999 -0.4520
vn 0.5918 0.3877 0.7068
vn 0.7062 0.0234 0.7076
vn -0.7054 0.0420 0.7076
vn 0.0174 0.6816 0.7315
vn 0.1759 0.6849 0.7071
vn -0.6271 0.3256 0.7077
vn -0.2652 0.6555 0.7071
vn -0.4354 -0.5820 0.6868
vn 0.0154 -0.9999 -0.0000
vn 0.6963 -0.7021 -0.1491
vn 0.7071 0.6713 0.2221
vn 0.5816 -0.5723 0.5782
vn 1.0000 -0.0000 -0.0000
vn 0.7071 0.5001 -0.4999
vn 0.7071 0.3175 0.6319
vn -0.0644 -0.0530 0.9965
vn -0.0176 0.9086 0.4172
vn 0.6447 -0.6340 0.4270
vn 0.0042 -1.0000 -0.0067
vn 0.0592 -0.9980 -0.0226
vn -0.5926 -0.8026 0.0690
vn 0.0661 -0.4192 -0.9055
vn 0.7038 -0.5132 -0.4911
vn -0.3953 -0.5882 -0.7055
vn -0.6596 -0.6492 0.3788
vn -0.1305 -0.6931 -0.7089
vn -0.6782 0.1766 -0.7133
vn -0.6123 -0.3498 -0.7090
vn 0.3563 -0.6575 -0.6639
vn 0.5265 -0.5578 0.6416
vn -0.6661 -0.6938 0.2739
vn -0.3193 -0.6672 0.6730
vn -0.5258 -0.6379 -0.5627
vn 0.7485 -0.6275 -0.2143
vn 0.4447 -0.5463 0.7097
vn 0.4192 -0.7014 0.5764
vt 0.878772 0.173358
vt 0.886573 0.176762
vt 0.888895 0.185127
vt 0.452884 0.105997
vt 0.494409 0.120130
vt 0.506400 0.143701
vt 0.479921 0.215701
vt 0.477437 0.222227
vt 0.477422 0.215094
vt 0.318844 0.962694
vt 0.318046 0.957605
vt 0.329847 0.962737
vt 0.448058 0.251199
vt 0.461587 0.202712
vt 0.464061 0.204799
vt 0.436127 0.071483
vt 0.586888 0.066454
vt 0.590820 0.078752
vt 0.431725 0.051215
vt 0.584279 0.042154
vt 0.585033 0.055827
vt 0.453533 0.143269
vt 0.449236 0.139987
vt 0.453489 0.133812
vt 0.599584 0.099330
vt 0.577018 0.251904
vt 0.530300 0.274453
vt 0.550695 0.258326
vt 0.055786 0.955921
vt 0.041863 0.935547
vt 0.058383 0.935546
vt 0.780810 0.087560
vt 0.768874 0.090245
vt 0.747449 0.090245
vt 0.915195 0.512975
vt 0.914764 0.474941
vt 0.917873 0.500242
vt 0.009695 0.356387
vt 0.003906 0.346397
vt 0.028381 0.346381
vt 0.607428 0.790511
vt 0.586814 0.879924
vt 0.589030 0.790120
vt 0.627682 0.692133
vt 0.777908 0.695571
vt 0.618915 0.712724
vt 0.950094 0.345684
vt 0.945485 0.338368
vt 0.950105 0.342988
vt 0.974579 0.674153
vt 0.963494 0.674139
vt 0.964240 0.372746
vt 0.419001 0.068637
vt 0.003907 0.062779
vt 0.383409 0.004333
vt 0.037685 0.356362
vt 0.057104 0.346341
vt 0.916622 0.530741
vt 0.631616 0.679830
vt 0.785527 0.672430
vt 0.473302 0.699989
vt 0.479862 0.713854
vt 0.456514 0.713858
vt 0.512320 0.397359
vt 0.519412 0.399281
vt 0.504244 0.399467
vt 0.374667 0.713858
vt 0.379929 0.699989
vt 0.402007 0.713858
vt 0.922730 0.004046
vt 0.931428 0.048427
vt 0.922731 0.067918
vt 0.641488 0.607599
vt 0.643185 0.604531
vt 0.676856 0.605371
vt 0.866310 0.003906
vt 0.893095 0.003906
vt 0.893095 0.062559
vt 0.043174 0.842933
vt 0.038185 0.865235
vt 0.006222 0.855546
vt 0.540973 0.399804
vt 0.532654 0.399131
vt 0.544759 0.397138
vt 0.731003 0.781395
vt 0.609028 0.733448
vt 0.494097 0.398795
vt 0.047297 0.706015
vt 0.047882 0.703660
vt 0.056183 0.703660
vt 0.625627 0.193735
vt 0.623805 0.227813
vt 0.622555 0.195331
vt 0.729567 0.358145
vt 0.733099 0.359003
vt 0.733144 0.381370
vt 0.532349 0.399028
vt 0.876668 0.378525
vt 0.831212 0.378533
vt 0.828138 0.374410
vt 0.975346 0.180365
vt 0.979199 0.232852
vt 0.975327 0.232836
vt 0.003907 0.241677
vt 0.419030 0.273376
vt 0.003907 0.277404
vt 0.009360 0.771664
vt 0.028594 0.756019
vt 0.032827 0.773170
vt 0.633137 0.791415
vt 0.612729 0.879924
vt 0.545232 0.699994
vt 0.546832 0.712458
vt 0.539734 0.712463
vt 0.979199 0.312711
vt 0.975708 0.270984
vt 0.979199 0.271648
vt 0.595870 0.979123
vt 0.593094 0.977392
vt 0.595858 0.971672
vt 0.967038 0.961570
vt 0.966638 0.969856
vt 0.958047 0.966316
vt 0.862628 0.329513
vt 0.871523 0.349264
vt 0.854023 0.327495
vt 0.431250 0.008968
vt 0.929137 0.243831
vt 0.922730 0.226681
vt 0.931428 0.223682
vt 0.259721 0.973381
vt 0.266794 0.978471
vt 0.254932 0.978471
vt 0.003906 0.575889
vt 0.305301 0.575920
vt 0.305333 0.610086
vt 0.353708 0.699997
vt 0.353358 0.713671
vt 0.340909 0.796104
vt 0.097724 0.778672
vt 0.312840 0.762377
vt 0.864960 0.362269
vt 0.854190 0.365828
vt 0.874753 0.314675
vt 0.912153 0.316501
vt 0.904056 0.318596
vt 0.594343 0.939364
vt 0.952239 0.974682
vt 0.681442 0.211589
vt 0.712120 0.185593
vt 0.690768 0.215386
vt 0.565269 0.362070
vt 0.626745 0.370778
vt 0.564675 0.388632
vt 0.553473 0.712456
vt 0.003907 0.100286
vt 0.435153 0.103936
vt 0.366021 0.789757
vt 0.412554 0.879435
vt 0.364584 0.879435
vt 0.975624 0.045959
vt 0.979199 0.045831
vt 0.979199 0.083686
vt 0.975295 0.083795
vt 0.066808 0.723116
vt 0.047856 0.741189
vt 0.027248 0.725664
vt 0.409808 0.699989
vt 0.429767 0.713895
vt 0.067645 0.974846
vt 0.067618 0.964066
vt 0.082227 0.964064
vt 0.469742 0.266046
vt 0.467347 0.270193
vt 0.469742 0.274340
vt 0.315084 0.487987
vt 0.315232 0.453588
vt 0.616625 0.454427
vt 0.601376 0.405868
vt 0.584128 0.402464
vt 0.620326 0.394416
vt 0.979190 0.136485
vt 0.979199 0.180117
vt 0.453622 0.150207
vt 0.449352 0.150319
vt 0.439246 0.790273
vt 0.457765 0.879435
vt 0.432162 0.879435
vt 0.544847 0.399955
vt 0.711244 0.991967
vt 0.703614 0.995740
vt 0.692822 0.992011
vt 0.097710 0.719842
vt 0.340883 0.702520
vt 0.312841 0.736311
vt 0.732355 0.241533
vt 0.818110 0.240237
vt 0.816069 0.293935
vt 0.327012 0.445080
vt 0.329135 0.440145
vt 0.348717 0.442487
vt 0.498467 0.713861
vt 0.519438 0.699993
vt 0.519744 0.713672
vt 0.961528 0.853678
vt 0.959277 0.903551
vt 0.951420 0.859035
vt 0.151993 0.815242
vt 0.128670 0.842933
vt 0.108995 0.822997
vt 0.532362 0.712459
vt 0.535069 0.699997
vt 0.764482 0.425734
vt 0.746047 0.420130
vt 0.763024 0.420130
vt 0.038169 0.445024
vt 0.005090 0.439779
vt 0.038344 0.439801
vt 0.482114 0.984429
vt 0.445183 0.957644
vt 0.482114 0.957644
vt 0.615212 0.909281
vt 0.604439 0.895088
vt 0.615209 0.895018
vt 0.219438 0.356274
vt 0.228928 0.346299
vt 0.242623 0.356316
vt 0.104029 0.935545
vt 0.088299 0.955922
vt 0.090204 0.935546
vt 0.288989 0.356381
vt 0.305311 0.346397
vt 0.305311 0.356389
vt 0.073897 0.739419
vt 0.265808 0.356355
vt 0.280060 0.346380
vt 0.950970 0.844230
vt 0.954752 0.706649
vt 0.961528 0.733245
vt 0.951462 0.733584
vt 0.475655 0.441168
vt 0.650513 0.439802
vt 0.650703 0.445021
vt 0.658125 0.879924
vt 0.653602 0.791415
vt 0.483530 0.315407
vt 0.574434 0.321508
vt 0.479988 0.319193
vt 0.003907 0.216950
vt 0.435124 0.238217
vt 0.133482 0.346226
vt 0.142753 0.356215
vt 0.112964 0.356238
vt 0.718166 0.430024
vt 0.709143 0.425051
vt 0.716426 0.421853
vt 0.314365 0.655749
vt 0.615883 0.627481
vt 0.615747 0.659248
vt 0.066594 0.356316
vt 0.616350 0.518588
vt 0.314946 0.520260
vt 0.922731 0.127665
vt 0.931429 0.127145
vt 0.305360 0.640072
vt 0.003941 0.612865
vt 0.963924 0.004004
vt 0.963355 0.305397
vt 0.956406 0.003972
vt 0.828804 0.181120
vt 0.719293 0.192628
vt 0.004142 0.509404
vt 0.305654 0.536411
vt 0.004273 0.539929
vt 0.011013 0.964060
vt 0.025205 0.974838
vt 0.010943 0.974835
vt 0.764372 0.585321
vt 0.771955 0.571348
vt 0.775852 0.569739
vt 0.276028 0.963018
vt 0.282464 0.957830
vt 0.284809 0.962891
vt 0.972968 0.926812
vt 0.971145 0.924274
vt 0.971111 0.911207
vt 0.595707 0.204954
vt 0.581834 0.182318
vt 0.598186 0.202873
vt 0.953355 0.674126
vt 0.711158 0.859871
vt 0.811643 0.958288
vt 0.711158 0.958288
vt 0.869167 0.211457
vt 0.894892 0.255971
vt 0.859758 0.215118
vt 0.797584 0.317664
vt 0.734300 0.294414
vt 0.751418 0.802894
vt 0.796853 0.850321
vt 0.770276 0.840108
vt 0.845749 0.243207
vt 0.824706 0.214327
vt 0.860063 0.289184
vt 0.832379 0.193021
vt 0.829046 0.317083
vt 0.638558 0.316612
vt 0.679388 0.316946
vt 0.645880 0.318964
vt 0.840351 0.291293
vt 0.734365 0.316459
vt 0.885083 0.806616
vt 0.871984 0.835912
vt 0.850817 0.847130
vt 0.493214 0.699989
vt 0.709051 0.235103
vt 0.725816 0.214404
vt 0.655677 0.256492
vt 0.685960 0.294298
vt 0.692848 0.267765
vt 0.269633 0.973381
vt 0.275886 0.978473
vt 0.710400 0.291360
vt 0.714565 0.317063
vt 0.343092 0.751582
vt 0.845431 0.188947
vt 0.905119 0.337785
vt 0.645600 0.339051
vt 0.905916 0.393452
vt 0.913384 0.343092
vt 0.439423 0.126288
vt 0.439343 0.217110
vt 0.054380 0.964003
vt 0.053439 0.974889
vt 0.039401 0.974850
vt 0.004718 0.376253
vt 0.248802 0.381556
vt 0.249378 0.415974
vt 0.917135 0.401951
vt 0.641707 0.923274
vt 0.633556 0.903502
vt 0.652623 0.918125
vt 0.670873 0.565076
vt 0.732469 0.464586
vt 0.732441 0.572855
vt 0.611744 0.251070
vt 0.612831 0.243769
vt 0.415824 0.790032
vt 0.436807 0.887495
vt 0.338390 0.949589
vt 0.338390 0.887495
vt 0.937320 0.968178
vt 0.943470 0.977448
vt 0.554925 0.699992
vt 0.558704 0.712462
vt 0.945328 0.967113
vt 0.172911 0.346226
vt 0.173064 0.356216
vt 0.543446 0.352099
vt 0.534376 0.346905
vt 0.551598 0.346886
vt 0.615258 0.972993
vt 0.604443 0.966303
vt 0.615212 0.965877
vt 0.307468 0.962705
vt 0.252113 0.346341
vt 0.615219 0.951719
vt 0.604439 0.951694
vt 0.604374 0.938456
vt 0.334140 0.957678
vt 0.210961 0.973381
vt 0.214874 0.978471
vt 0.198512 0.978473
vt 0.723912 0.429741
vt 0.196253 0.356238
vt 0.615220 0.923476
vt 0.615260 0.937513
vt 0.453624 0.157797
vt 0.449297 0.162296
vt 0.047860 0.757444
vt 0.743400 0.353985
vt 0.748785 0.366444
vt 0.743397 0.366450
vt 0.736474 0.426568
vt 0.726816 0.420645
vt 0.003907 0.123780
vt 0.480993 0.790680
vt 0.065609 0.706005
vt 0.931429 0.090627
vt 0.039582 0.703660
vt 0.034379 0.705772
vt 0.760419 0.353986
vt 0.754844 0.366445
vt 0.750749 0.353980
vt 0.074524 0.703656
vt 0.081082 0.706015
vt 0.537195 0.282993
vt 0.531353 0.284908
vt 0.522228 0.282827
vt 0.971132 0.879365
vt 0.973467 0.890560
vt 0.971107 0.896061
vt 0.973605 0.850171
vt 0.971216 0.857869
vt 0.971246 0.849570
vt 0.973465 0.907860
vt 0.634597 0.225046
vt 0.637154 0.230111
vt 0.634650 0.236960
vt 0.743397 0.401751
vt 0.711331 0.394346
vt 0.732143 0.398423
vt 0.076437 0.935546
vt 0.069474 0.955925
vt 0.938885 0.608557
vt 0.942985 0.592760
vt 0.943545 0.635316
vt 0.502926 0.202712
vt 0.503781 0.260396
vt 0.493633 0.270057
vt 0.798630 0.527721
vt 0.828513 0.564153
vt 0.843268 0.409143
vt 0.922731 0.102851
vt 0.161073 0.965320
vt 0.264366 0.903064
vt 0.264366 0.965320
vt 0.637344 0.342021
vt 0.636604 0.393420
vt 0.920450 0.859871
vt 0.819966 0.958288
vt 0.819966 0.859871
vt 0.445183 0.887984
vt 0.543600 0.949584
vt 0.445183 0.949584
vt 0.667432 0.918895
vt 0.674011 0.906132
vt 0.769606 0.353984
vt 0.769036 0.366450
vt 0.245544 0.978471
vt 0.021250 0.955925
vt 0.011520 0.935546
vt 0.028099 0.935546
vt 0.673517 0.888294
vt 0.675740 0.896215
vt 0.668414 0.891636
vt 0.931429 0.108854
vt 0.035502 0.955921
vt 0.226333 0.978471
vt 0.226076 0.973380
vt 0.237132 0.978471
vt 0.626866 0.897298
vt 0.630967 0.916243
vt 0.114424 0.955919
vt 0.114424 0.935545
vt 0.437929 0.761517
vt 0.352936 0.731056
vt 0.381947 0.734568
vt 0.369552 0.741008
vt 0.624514 0.961233
vt 0.682763 0.934447
vt 0.682763 0.961233
vt 0.951776 0.305300
vt 0.947176 0.003933
vt 0.024295 0.742952
vt 0.003906 0.727415
vt 0.084483 0.703660
vt 0.971163 0.870648
vt 0.973297 0.869915
vt 0.340067 0.962824
vt 0.449568 0.699989
vt 0.653050 0.924814
vt 0.766541 0.043097
vt 0.773757 0.040076
vt 0.779961 0.043097
vt 0.788205 0.043097
vt 0.782416 0.040076
vt 0.788205 0.040076
vt 0.504353 0.282824
vt 0.493289 0.284892
vt 0.495421 0.282778
vt 0.759261 0.043097
vt 0.765049 0.040076
vt 0.059960 0.775145
vt 0.073905 0.759220
vt 0.604841 0.184887
vt 0.609203 0.187681
vt 0.603423 0.183138
vt 0.241476 0.973380
vt 0.351718 0.957887
vt 0.352563 0.962989
vt 0.303600 0.957631
vt 0.465712 0.172434
vt 0.463317 0.168287
vt 0.468106 0.164140
vt 0.933503 0.956353
vt 0.938954 0.957896
vt 0.477408 0.207861
vt 0.039352 0.964046
vt 0.025685 0.964048
vt 0.607452 0.176953
vt 0.446847 0.243579
vt 0.010510 0.706015
vt 0.003906 0.703654
vt 0.014916 0.703660
vt 0.432434 0.699989
vt 0.738587 0.832183
vt 0.716327 0.832126
vt 0.711619 0.821666
vt 0.722620 0.792431
vt 0.609471 0.120038
vt 0.823283 0.087574
vt 0.811241 0.090245
vt 0.861438 0.087574
vt 0.907493 0.090245
vt 0.862065 0.090245
vt 0.724863 0.087560
vt 0.788404 0.090245
vt 0.700165 0.087560
vt 0.704915 0.090245
vt 0.695576 0.090245
vt 0.650719 0.090245
vt 0.848673 0.090209
vt 0.828431 0.090245
vt 0.713243 0.090245
vt 0.724315 0.090245
vt 0.663119 0.393033
vt 0.657133 0.395106
vt 0.655609 0.389452
vt 0.661921 0.386813
vt 0.539886 0.790119
vt 0.683858 0.442444
vt 0.633813 0.617483
vt 0.786926 0.621884
vt 0.634145 0.622266
vt 0.554215 0.234406
vt 0.552992 0.225783
vt 0.547046 0.230984
vt 0.967101 0.322614
vt 0.969530 0.339398
vt 0.968610 0.328789
vt 0.968610 0.335323
vt 0.960796 0.346985
vt 0.965343 0.340982
vt 0.959684 0.344249
vt 0.954755 0.344679
vt 0.941389 0.331886
vt 0.943794 0.333718
vt 0.944224 0.328789
vt 0.949648 0.318629
vt 0.946316 0.324305
vt 0.956417 0.319433
vt 0.950105 0.321124
vt 0.965343 0.323130
vt 0.975687 0.372761
vt 0.003908 0.004079
vt 0.931425 0.003906
vt 0.270240 0.803330
vt 0.270242 0.895017
vt 0.255472 0.881147
vt 0.266522 0.894547
vt 0.258649 0.806359
vt 0.248352 0.824367
vt 0.227615 0.843058
vt 0.227802 0.861152
vt 0.904104 0.047083
vt 0.907859 0.049743
vt 0.902932 0.050336
vt 0.100058 0.761723
vt 0.139532 0.751155
vt 0.088920 0.974877
vt 0.081804 0.974835
vt 0.866310 0.062559
vt 0.039299 0.926058
vt 0.027732 0.914331
vt 0.068587 0.907349
vt 0.011211 0.870553
vt 0.044132 0.887302
vt 0.004651 0.863541
vt 0.019850 0.815242
vt 0.035067 0.795164
vt 0.062184 0.823389
vt 0.085922 0.816117
vt 0.003906 0.454449
vt 0.305521 0.505228
vt 0.624669 0.606021
vt 0.633666 0.665742
vt 0.528745 0.188009
vt 0.576462 0.209048
vt 0.549712 0.199604
vt 0.089779 0.356274
vt 0.103474 0.346259
vt 0.879746 0.374409
vt 0.009549 0.754528
vt 0.624045 0.176803
vt 0.432793 0.439556
vt 0.433432 0.444990
vt 0.873532 0.392053
vt 0.822165 0.391913
vt 0.871933 0.388024
vt 0.554857 0.890803
vt 0.552352 0.917151
vt 0.552095 0.888984
vt 0.975601 0.312693
vt 0.313179 0.804153
vt 0.313552 0.894774
vt 0.301915 0.880380
vt 0.295952 0.825038
vt 0.275408 0.843702
vt 0.276264 0.862874
vt 0.702785 0.379023
vt 0.830202 0.366239
vt 0.830041 0.327136
vt 0.467696 0.004493
vt 0.961289 0.320293
vt 0.805970 0.612053
vt 0.828358 0.599869
vt 0.798618 0.627358
vt 0.905892 0.587476
vt 0.905892 0.767379
vt 0.842569 0.759493
vt 0.798337 0.725865
vt 0.810706 0.746489
vt 0.594833 0.889839
vt 0.003913 0.963991
vt 0.295025 0.962782
vt 0.485568 0.282805
vt 0.931427 0.263592
vt 0.922729 0.269811
vt 0.917066 0.625228
vt 0.918658 0.579500
vt 0.213194 0.441168
vt 0.479367 0.184349
vt 0.323168 0.346642
vt 0.322068 0.390557
vt 0.585631 0.349377
vt 0.610632 0.350651
vt 0.280130 0.901375
vt 0.315441 0.917377
vt 0.281620 0.926502
vt 0.474530 0.274340
vt 0.475855 0.268340
vt 0.326589 0.881811
vt 0.315595 0.894047
vt 0.316214 0.805755
vt 0.332608 0.826469
vt 0.352932 0.862301
vt 0.352021 0.842527
vt 0.616473 0.489923
vt 0.894892 0.826080
vt 0.930132 0.817835
vt 0.929762 0.841879
vt 0.925228 0.845758
vt 0.100108 0.736921
vt 0.405233 0.439849
vt 0.407611 0.445089
vt 0.383639 0.445045
vt 0.373809 0.439912
vt 0.365743 0.445075
vt 0.305219 0.445045
vt 0.281253 0.445090
vt 0.304903 0.439684
vt 0.255348 0.444970
vt 0.283617 0.439847
vt 0.256077 0.439549
vt 0.943507 0.437196
vt 0.938976 0.400919
vt 0.941905 0.356878
vt 0.961528 0.888352
vt 0.549745 0.207385
vt 0.509329 0.252783
vt 0.508288 0.210226
vt 0.879218 0.100965
vt 0.882973 0.098305
vt 0.884144 0.101558
vt 0.133190 0.925839
vt 0.106034 0.906922
vt 0.144150 0.914249
vt 0.164269 0.859616
vt 0.133659 0.865235
vt 0.127712 0.887302
vt 0.137773 0.795710
vt 0.080394 0.776437
vt 0.637144 0.222076
vt 0.634630 0.214545
vt 0.751843 0.426287
vt 0.004887 0.444938
vt 0.445183 0.984429
vt 0.604421 0.909758
vt 0.007296 0.955922
vt 0.612530 0.018175
vt 0.612497 0.004251
vt 0.651731 0.031593
vt 0.855690 0.003974
vt 0.855552 0.044885
vt 0.826479 0.032211
vt 0.104005 0.955924
vt 0.205743 0.346259
vt 0.816458 0.078986
vt 0.641692 0.079609
vt 0.612683 0.051362
vt 0.855714 0.051650
vt 0.855664 0.065569
vt 0.612644 0.092279
vt 0.453515 0.165263
vt 0.961528 0.704739
vt 0.669234 0.327428
vt 0.801732 0.327494
vt 0.681500 0.342484
vt 0.790533 0.341896
vt 0.577307 0.314862
vt 0.959737 0.687742
vt 0.643058 0.103682
vt 0.664429 0.110351
vt 0.618262 0.111231
vt 0.080289 0.346299
vt 0.198187 0.973383
vt 0.314493 0.625955
vt 0.941147 0.305302
vt 0.003969 0.643349
vt 0.380551 0.958178
vt 0.393613 0.966810
vt 0.385455 0.961859
vt 0.391139 0.983480
vt 0.392976 0.973058
vt 0.391263 0.966800
vt 0.367219 0.965507
vt 0.372425 0.963082
vt 0.376940 0.960994
vt 0.365040 0.976764
vt 0.367546 0.973115
vt 0.375199 0.986634
vt 0.369268 0.979371
vt 0.385217 0.984770
vt 0.380303 0.985622
vt 0.373936 0.983947
vt 0.369230 0.966850
vt 0.389264 0.981918
vt 0.392116 0.977892
vt 0.305410 0.695307
vt 0.632130 0.530027
vt 0.633674 0.533091
vt 0.628671 0.527297
vt 0.637558 0.555352
vt 0.642089 0.571348
vt 0.637440 0.567082
vt 0.633674 0.516483
vt 0.632130 0.519547
vt 0.628658 0.522318
vt 0.637558 0.494222
vt 0.642089 0.478226
vt 0.637458 0.482427
vt 0.776491 0.555335
vt 0.780961 0.531738
vt 0.785344 0.527406
vt 0.655058 0.459160
vt 0.654405 0.456817
vt 0.661964 0.456469
vt 0.649673 0.464253
vt 0.653345 0.592031
vt 0.649673 0.585321
vt 0.758475 0.593507
vt 0.661964 0.593105
vt 0.655058 0.590414
vt 0.758987 0.590414
vt 0.772099 0.478319
vt 0.785339 0.522147
vt 0.776487 0.494222
vt 0.760915 0.457740
vt 0.764372 0.464253
vt 0.752081 0.456469
vt 0.758987 0.459160
vt 0.752081 0.593105
vt 0.781044 0.517737
vt 0.275319 0.957938
vt 0.615607 0.691929
vt 0.314210 0.691929
vt 0.581172 0.184899
vt 0.953166 0.372732
vt 0.811643 0.859871
vt 0.462237 0.248822
vt 0.466837 0.239309
vt 0.467505 0.257948
vt 0.750849 0.776412
vt 0.886631 0.775774
vt 0.139617 0.747524
vt 0.276517 0.973383
vt 0.222528 0.803272
vt 0.222659 0.894966
vt 0.207809 0.817197
vt 0.211415 0.891959
vt 0.200769 0.873908
vt 0.180238 0.855568
vt 0.179843 0.837732
vt 0.300325 0.423283
vt 0.287358 0.429747
vt 0.263174 0.425867
vt 0.278801 0.367525
vt 0.306664 0.380531
vt 0.005758 0.430262
vt 0.311032 0.406021
vt 0.670888 0.464529
vt 0.436807 0.949589
vt 0.343125 0.747072
vt 0.960657 0.956941
vt 0.965041 0.952523
vt 0.477422 0.203073
vt 0.479921 0.203073
vt 0.604365 0.887988
vt 0.604416 0.923427
vt 0.779344 0.410277
vt 0.786019 0.411076
vt 0.769780 0.411313
vt 0.709143 0.420130
vt 0.950948 0.744019
vt 0.478072 0.879435
vt 0.093350 0.706015
vt 0.025012 0.705374
vt 0.759827 0.366451
vt 0.096927 0.703660
vt 0.931427 0.305752
vt 0.103483 0.706015
vt 0.815100 0.372569
vt 0.819020 0.326938
vt 0.821508 0.327119
vt 0.813264 0.380577
vt 0.785969 0.395889
vt 0.808061 0.383034
vt 0.773657 0.396056
vt 0.689184 0.389428
vt 0.689675 0.387273
vt 0.669724 0.375921
vt 0.673985 0.377473
vt 0.654739 0.327631
vt 0.669414 0.369764
vt 0.790193 0.392069
vt 0.680178 0.382478
vt 0.751192 0.399536
vt 0.637378 0.252960
vt 0.635855 0.256734
vt 0.634682 0.246769
vt 0.492839 0.191859
vt 0.805776 0.549417
vt 0.800568 0.440564
vt 0.811211 0.422376
vt 0.905972 0.576284
vt 0.905970 0.401512
vt 0.003906 0.337986
vt 0.383407 0.337737
vt 0.929034 0.348741
vt 0.971282 0.843697
vt 0.161073 0.903064
vt 0.591777 0.332995
vt 0.587024 0.337142
vt 0.586332 0.328848
vt 0.582200 0.332995
vt 0.920450 0.958288
vt 0.543600 0.887984
vt 0.473329 0.308749
vt 0.449232 0.133081
vt 0.784428 0.368619
vt 0.785967 0.356729
vt 0.796813 0.363862
vt 0.441744 0.733464
vt 0.938849 0.704950
vt 0.941638 0.702384
vt 0.939615 0.880429
vt 0.411148 0.767984
vt 0.391348 0.762783
vt 0.398022 0.752783
vt 0.376223 0.763484
vt 0.352495 0.767984
vt 0.411178 0.732005
vt 0.395693 0.741029
vt 0.367204 0.752757
vt 0.624514 0.934447
vt 0.491532 0.957644
vt 0.527505 0.957644
vt 0.527511 0.984429
vt 0.491527 0.984432
vt 0.005240 0.744443
vt 0.194332 0.429742
vt 0.202412 0.430073
vt 0.199120 0.428268
vt 0.883292 0.164102
vt 0.792216 0.163957
vt 0.883229 0.119176
vt 0.792227 0.119355
vt 0.004412 0.572543
vt 0.305809 0.572543
vt 0.753472 0.043097
vt 0.756349 0.040076
vt 0.529811 0.699991
vt 0.583635 0.263430
vt 0.590883 0.260902
vt 0.592322 0.268437
vt 0.585095 0.270929
vt 0.471697 0.170361
vt 0.743572 0.429936
s 1
usemtl m0
f 451/1/1 454/2/2 453/3/3
f 14/4/4 23/5/5 27/6/6
f 3/7/7 2/8/8 4/9/9
f 325/10/10 331/11/11 319/12/12
f 182/13/13 181/14/14 176/15/15
f 16/16/16 28/17/17 32/18/18
f 13/19/19 30/20/20 29/21/21
f 149/22/22 111/23/22 148/24/22
f 31/25/23 23/5/24 14/4/25
f 14/4/25 32/18/26 31/25/23
f 147/26/27 138/27/28 143/28/29
f 448/29/30 441/30/31 442/31/32
f 249/32/33 286/33/34 285/34/35
f 29/21/21 16/16/36 13/19/19
f 44/35/37 42/36/38 35/37/39
f 168/38/40 172/39/41 191/40/42
f 45/41/43 36/42/44 46/43/45
f 54/44/46 35/45/47 53/46/48
f 390/47/49 413/48/50 414/49/51
f 211/50/52 244/51/53 220/52/54
f 42/53/38 43/54/55 37/55/56
f 184/56/57 191/40/42 194/57/58
f 40/58/59 44/35/37 35/37/39
f 35/45/60 51/59/61 40/60/62
f 101/61/63 105/62/64 104/63/65
f 86/64/66 81/65/67 88/66/68
f 130/67/69 127/68/70 129/69/71
f 429/70/72 423/71/73 430/72/74
f 61/73/75 62/74/76 58/75/77
f 455/76/78 459/77/79 462/78/80
f 175/79/81 171/80/82 155/81/83
f 79/82/84 80/83/85 78/84/86
f 53/46/87 37/85/88 48/86/89
f 87/87/90 86/64/66 88/66/68
f 364/88/91 368/89/92 366/90/93
f 66/91/94 70/92/95 68/93/96
f 83/94/97 84/95/98 85/96/99
f 81/65/67 86/64/66 80/97/85
f 63/98/100 69/99/101 72/100/102
f 147/101/27 139/102/103 138/103/28
f 18/104/104 14/105/105 19/106/106
f 93/107/107 123/108/108 145/109/109
f 47/110/110 34/111/111 45/41/43
f 332/112/112 322/113/113 324/114/114
f 95/115/115 144/116/116 137/117/117
f 76/118/118 78/119/86 75/120/119
f 309/121/120 310/122/121 314/123/122
f 80/124/85 86/125/66 78/126/86
f 30/20/20 13/19/19 50/127/123
f 419/128/124 418/129/125 415/130/126
f 339/131/127 358/132/128 357/133/129
f 211/134/52 219/135/130 222/136/131
f 128/137/132 130/67/69 131/138/133
f 142/139/134 141/140/135 134/141/136
f 86/125/66 87/142/90 84/143/137
f 256/144/138 252/145/139 257/146/140
f 74/147/141 75/120/119 78/119/86
f 314/123/122 310/122/121 315/148/142
f 307/149/143 305/150/144 265/151/145
f 131/152/133 90/153/146 107/154/147
f 332/112/148 321/155/148 322/113/148
f 39/156/149 42/53/38 44/157/37
f 36/158/44 21/159/150 26/160/151
f 92/161/152 95/162/115 114/163/153
f 92/161/152 114/163/153 113/164/154
f 97/165/155 99/166/156 96/167/157
f 129/69/71 126/168/158 90/169/146
f 308/170/159 310/171/121 309/172/120
f 467/173/160 468/174/161 463/175/162
f 228/176/163 221/177/164 213/178/165
f 105/179/64 106/180/166 104/181/65
f 91/182/167 94/183/168 147/101/27
f 151/184/169 120/185/170 149/22/171
f 10/186/172 22/187/173 20/188/174
f 76/189/118 79/82/84 78/84/86
f 333/190/175 340/191/176 338/192/177
f 116/193/178 117/194/179 110/195/180
f 274/196/181 259/197/182 262/198/183
f 98/199/184 115/200/185 89/201/186
f 106/202/166 103/203/187 107/204/147
f 156/205/188 165/206/189 163/207/190
f 181/208/191 194/209/192 191/210/193
f 323/211/194 317/212/195 324/114/196
f 138/103/28 139/102/103 137/117/117
f 138/103/28 137/117/117 144/116/116
f 346/213/197 347/214/198 348/215/199
f 110/216/180 118/217/200 109/218/201
f 462/219/202 457/220/203 458/221/204
f 339/222/127 346/223/197 341/224/205
f 167/225/206 171/226/207 166/227/208
f 445/228/209 450/229/210 444/230/211
f 162/231/212 172/232/41 168/233/40
f 116/193/213 100/234/214 97/165/155
f 161/235/215 173/236/216 162/231/217
f 156/205/188 163/207/190 164/237/218
f 187/238/219 180/239/220 186/240/221
f 136/241/222 133/242/223 134/243/224
f 41/244/225 47/110/110 49/245/226
f 177/246/227 164/247/218 185/248/228
f 17/249/229 16/250/230 18/104/231
f 193/251/232 169/252/233 183/253/234
f 191/40/42 184/56/57 168/38/40
f 335/254/235 346/255/197 342/256/236
f 225/257/237 239/258/238 240/259/239
f 194/57/58 188/260/240 184/56/57
f 228/176/163 243/261/241 227/262/242
f 415/130/126 427/263/243 422/264/244
f 223/265/245 212/266/246 222/136/131
f 238/267/247 216/268/248 196/269/249
f 305/150/144 302/270/250 248/271/251
f 237/272/252 218/273/253 241/274/254
f 316/275/255 327/276/256 330/277/257
f 208/278/258 236/279/258 212/280/259
f 318/281/260 330/282/257 328/283/261
f 390/284/262 394/285/263 399/286/264
f 152/287/265 154/288/266 157/289/267
f 227/262/242 243/261/241 239/258/238
f 244/51/53 213/290/165 220/52/54
f 303/294/268 249/295/33 251/296/269
f 255/297/270 277/298/271 262/198/183
f 256/299/138 255/300/270 254/301/272
f 258/302/273 259/197/182 261/303/274
f 249/295/33 252/145/139 256/144/138
f 249/295/33 256/144/138 260/304/275
f 251/296/269 249/295/33 260/304/275
f 251/296/269 260/304/275 258/302/273
f 250/305/276 251/296/269 258/302/273
f 250/305/276 258/302/273 261/303/274
f 248/271/251 250/305/276 261/303/274
f 254/306/272 255/297/270 262/198/183
f 266/307/277 269/308/278 271/309/279
f 260/304/275 256/144/138 254/306/272
f 260/304/275 254/306/272 263/310/280
f 263/310/280 254/306/272 262/198/183
f 263/310/280 258/302/273 260/304/275
f 259/197/182 258/302/273 263/310/280
f 259/197/182 263/310/280 262/198/183
f 248/271/251 302/270/250 250/305/276
f 270/311/281 277/298/271 255/297/270
f 269/312/278 268/313/282 270/314/281
f 102/315/283 106/202/166 105/62/64
f 275/316/284 276/317/285 274/196/181
f 259/197/182 276/317/285 261/303/274
f 264/318/286 272/319/287 266/307/277
f 265/151/145 275/316/284 273/320/288
f 265/151/145 273/320/288 264/318/286
f 264/318/286 273/320/288 272/319/287
f 248/271/251 276/317/285 275/316/284
f 248/271/251 275/316/284 265/151/145
f 341/321/205 349/322/289 358/132/128
f 273/320/288 278/323/290 272/319/287
f 272/319/287 278/323/290 268/324/282
f 272/319/287 268/324/282 269/308/278
f 275/316/284 278/323/290 273/320/288
f 278/323/290 277/298/271 270/311/281
f 278/323/290 270/311/281 268/324/282
f 134/141/291 143/325/29 142/139/292
f 274/196/181 277/298/271 278/323/290
f 274/196/181 278/323/290 275/316/284
f 302/270/250 282/326/293 250/305/276
f 252/145/139 253/327/294 257/146/140
f 282/326/293 303/294/268 251/296/269
f 282/326/293 251/296/269 250/305/276
f 307/149/143 265/151/145 264/318/286
f 266/307/277 271/309/279 267/328/295
f 305/150/144 248/271/251 265/151/145
f 267/329/296 253/327/297 304/330/298
f 17/249/229 40/331/299 13/332/300
f 315/333/142 331/334/11 313/335/301
f 117/336/302 116/337/213 141/338/303
f 42/36/38 37/339/56 35/37/39
f 449/340/304 451/341/1 452/342/305
f 315/333/142 308/170/159 331/334/306
f 431/343/307 437/344/308 435/345/309
f 158/346/310 157/289/267 155/347/83
f 12/348/311 20/188/174 21/159/150
f 431/349/312 436/350/313 432/351/314
f 312/352/315 315/148/142 311/353/316
f 321/155/317 314/354/318 323/355/194
f 317/356/319 315/148/142 312/352/315
f 169/252/233 170/357/320 159/358/321
f 229/359/322 216/360/248 226/361/323
f 341/362/205 335/363/235 338/364/177
f 331/11/11 325/10/10 326/365/324
f 166/227/325 175/366/326 161/235/327
f 333/367/328 336/368/329 344/369/330
f 319/12/331 331/11/332 308/370/333
f 340/371/176 350/372/334 349/373/335
f 342/256/236 336/374/329 335/254/235
f 159/358/321 170/357/320 160/375/336
f 359/376/337 334/377/338 344/369/330
f 150/378/339 135/379/339 120/185/339
f 145/109/109 123/108/108 124/380/340
f 126/168/158 129/69/71 127/68/70
f 351/381/341 347/382/198 343/383/342
f 347/214/198 344/384/330 343/385/342
f 38/386/343 44/157/344 40/331/343
f 15/387/345 22/187/173 10/186/172
f 366/90/93 363/388/346 364/88/91
f 430/72/347 423/71/348 425/389/349
f 367/390/350 364/88/91 360/391/351
f 352/392/352 348/393/199 353/394/353
f 363/388/346 369/395/354 362/396/355
f 369/397/354 363/398/346 366/399/93
f 393/400/356 392/401/357 400/402/358
f 387/403/359 395/404/360 397/405/361
f 400/402/362 391/406/363 399/286/364
f 396/407/365 389/408/366 397/409/361
f 264/410/286 297/411/367 298/412/368
f 443/413/369 449/414/304 442/31/32
f 416/415/370 419/416/124 417/417/371
f 117/418/179 142/419/292 144/420/116
f 422/421/244 425/422/372 417/423/371
f 430/72/347 425/389/349 428/424/373
f 390/284/374 399/286/375 391/406/376
f 432/425/377 438/426/378 434/427/379
f 306/428/380 267/328/296 304/429/298
f 431/430/381 434/431/382 433/432/383
f 433/433/384 438/434/385 437/435/386
f 447/436/387 452/342/305 453/437/3
f 351/438/341 343/439/342 352/392/352
f 355/440/388 339/131/127 357/133/129
f 453/441/3 439/442/389 440/443/390
f 446/444/391 454/445/2 451/446/1
f 427/263/392 426/447/393 422/264/394
f 441/30/31 447/448/387 440/443/390
f 354/449/395 334/450/338 356/451/396
f 446/452/391 451/341/1 450/453/210
f 454/454/2 445/228/209 439/455/389
f 41/456/225 48/86/89 37/85/88
f 457/457/397 442/458/32 441/459/31
f 457/460/397 460/461/398 456/462/399
f 229/463/322 200/464/400 196/269/249
f 98/465/401 93/466/107 96/167/157
f 372/467/402 362/396/402 369/395/402
f 398/468/403 388/469/404 393/400/405
f 319/12/406 308/370/159 320/470/407
f 90/169/146 115/471/185 104/63/65
f 448/472/30 452/342/305 447/436/387
f 450/229/210 443/413/369 444/230/211
f 481/473/408 478/474/409 482/475/410
f 483/476/411 477/477/412 476/478/413
f 367/479/350 360/480/351 370/481/414
f 480/482/415 479/483/416 481/473/417
f 140/484/418 124/380/340 125/485/419
f 464/486/420 465/487/421 466/488/422
f 216/268/248 229/463/322 196/269/249
f 356/451/396 359/489/337 355/440/388
f 334/450/338 354/449/395 350/372/423
f 320/470/407 329/490/424 318/491/425
f 326/365/324 313/492/301 331/11/11
f 99/166/156 97/165/155 100/234/214
f 492/493/426 493/494/427 495/495/428
f 317/356/429 316/496/255 332/497/430
f 1/498/431 3/7/7 4/9/9
f 311/499/316 313/335/301 312/500/315
f 313/335/301 327/276/432 312/500/315
f 467/501/433 464/486/420 466/488/422
f 353/394/353 348/393/199 347/382/198
f 182/13/13 179/502/434 181/14/14
f 365/503/435 373/504/436 371/505/437
f 90/169/146 126/168/158 89/506/186
f 77/507/438 76/508/118 75/509/119
f 74/510/141 77/507/439 75/509/119
f 24/511/440 23/5/24 31/25/23
f 14/4/441 16/16/16 32/18/18
f 448/29/30 447/448/387 441/30/31
f 249/32/33 303/512/268 281/513/442
f 302/514/250 291/515/443 280/516/444
f 252/517/139 249/32/33 285/34/35
f 286/33/34 249/32/33 279/518/445
f 304/519/446 252/517/139 287/520/447
f 283/521/448 304/519/446 287/520/447
f 295/522/449 304/519/446 283/521/448
f 302/514/250 280/516/444 282/523/293
f 303/512/268 282/523/293 288/524/450
f 284/525/451 287/520/447 252/517/139
f 303/512/268 288/524/450 281/513/442
f 289/526/452 284/525/451 252/517/139
f 249/32/33 281/513/442 279/518/445
f 285/34/35 289/526/452 252/517/139
f 496/527/453 499/528/454 498/529/455
f 498/529/455 497/530/456 496/527/453
f 101/61/63 102/315/283 105/62/64
f 36/42/44 26/531/151 46/43/45
f 29/21/457 28/17/17 16/16/16
f 45/41/43 34/111/111 36/42/44
f 134/243/224 133/242/223 143/532/29
f 33/533/458 50/534/123 55/535/459
f 147/26/27 143/28/29 135/536/460
f 111/537/461 147/26/27 135/536/460
f 143/28/29 120/538/170 135/536/460
f 388/539/404 387/540/359 406/541/462
f 406/541/462 387/540/359 411/542/463
f 387/540/359 389/543/464 407/544/465
f 407/544/465 389/543/464 408/545/466
f 389/543/464 390/47/49 412/546/467
f 390/47/49 391/547/468 413/48/50
f 410/548/469 391/547/468 403/549/470
f 391/547/363 392/550/471 404/551/472
f 392/550/357 388/539/404 402/552/473
f 392/550/357 401/553/474 404/551/475
f 391/547/468 410/548/469 413/48/50
f 390/47/49 414/49/51 412/546/467
f 406/541/462 409/554/476 388/539/404
f 392/550/357 402/552/473 401/553/474
f 407/544/465 411/542/463 387/540/359
f 391/547/468 404/551/477 403/549/470
f 412/546/467 408/545/466 389/543/464
f 220/52/54 219/555/130 211/50/52
f 43/54/478 41/556/479 37/55/480
f 35/45/47 54/44/46 51/59/481
f 429/70/482 424/557/483 423/71/348
f 56/558/484 57/559/485 61/560/75
f 59/561/486 61/560/75 57/559/485
f 63/562/100 56/558/484 64/563/487
f 64/563/487 56/558/484 61/560/75
f 60/564/488 64/563/487 61/560/75
f 61/560/75 58/565/77 60/564/488
f 471/566/489 469/567/489 470/568/489
f 134/141/224 132/569/490 136/570/222
f 330/571/491 329/572/492 309/172/493
f 462/78/80 458/573/494 455/76/78
f 164/574/495 163/575/496 170/576/497
f 163/575/190 165/577/189 171/80/498
f 170/576/499 163/575/500 174/578/501
f 174/578/502 163/575/503 171/80/504
f 158/579/310 155/81/83 165/577/189
f 155/81/83 157/580/267 175/79/81
f 165/577/189 155/81/83 171/80/82
f 157/580/505 154/581/506 173/582/507
f 175/79/508 157/580/509 173/582/510
f 154/581/511 191/210/512 172/583/513
f 154/581/514 172/583/41 173/582/515
f 237/272/252 242/584/516 217/585/517
f 53/46/48 35/45/47 37/85/518
f 59/586/486 62/74/76 61/73/75
f 40/60/62 52/587/519 50/534/123
f 52/587/519 55/535/459 50/534/123
f 113/588/154 91/589/167 119/590/520
f 183/253/234 189/591/521 192/592/522
f 72/100/102 56/593/484 63/98/100
f 147/101/27 94/183/168 139/102/103
f 18/104/104 16/250/523 14/105/105
f 93/107/524 89/594/525 123/108/526
f 66/91/94 68/93/96 65/595/527
f 128/596/132 136/241/222 132/597/490
f 320/470/407 308/370/159 329/490/424
f 57/598/485 65/599/528 59/600/486
f 73/601/529 82/602/530 85/603/531
f 95/115/115 92/604/152 144/116/116
f 69/605/532 65/606/527 68/607/96
f 69/605/532 68/607/96 71/608/533
f 67/609/534 71/608/533 70/610/95
f 68/607/96 70/610/95 71/608/533
f 83/94/535 85/96/536 82/611/537
f 86/125/66 73/612/538 78/126/86
f 73/612/538 77/613/439 78/126/86
f 30/20/20 50/127/123 33/614/458
f 409/554/476 405/615/539 388/539/404
f 405/615/539 402/552/473 388/539/404
f 419/616/124 420/617/540 418/618/125
f 421/619/541 429/620/542 420/617/543
f 420/617/543 429/620/542 430/621/544
f 420/617/545 430/621/546 427/622/547
f 430/621/548 428/623/549 427/622/550
f 427/622/551 418/618/552 420/617/553
f 222/136/131 212/266/246 211/134/52
f 85/603/531 77/624/554 73/601/529
f 356/451/396 334/450/338 359/489/337
f 128/137/132 127/68/70 130/67/69
f 132/569/555 134/141/556 141/140/303
f 73/612/538 86/125/66 84/143/137
f 335/363/235 336/368/329 333/367/328
f 333/367/175 338/364/177 335/363/235
f 309/625/557 316/275/255 330/277/257
f 330/282/257 327/626/256 328/283/261
f 371/627/558 370/481/414 360/480/351
f 416/628/370 420/629/540 419/128/124
f 13/630/559 40/58/560 50/631/561
f 112/632/562 110/216/180 109/218/201
f 176/15/15 181/14/14 178/633/563
f 146/634/564 131/152/133 107/154/147
f 146/634/564 107/154/147 121/635/565
f 131/152/133 130/636/69 90/153/146
f 130/636/69 129/637/71 90/153/146
f 90/153/146 104/181/65 106/180/166
f 106/180/166 107/154/147 90/153/146
f 332/112/566 314/354/566 321/155/566
f 77/638/439 74/639/141 78/640/86
f 39/156/149 43/54/55 42/53/38
f 36/158/44 12/348/311 21/159/150
f 274/196/181 262/198/183 277/298/271
f 96/167/157 99/166/156 98/465/567
f 91/182/167 113/164/154 114/163/153
f 329/572/424 308/170/159 309/172/120
f 463/175/568 465/641/421 464/642/420
f 464/642/569 467/173/160 463/175/162
f 62/643/76 59/644/570 63/645/571
f 62/643/76 63/645/571 64/646/487
f 58/647/77 62/643/76 64/646/487
f 64/646/487 60/648/488 58/647/77
f 245/649/572 228/176/163 213/178/165
f 82/650/573 73/651/574 84/652/575
f 82/650/576 84/652/577 83/653/578
f 40/60/62 51/59/61 52/587/519
f 110/195/579 108/654/580 116/193/213
f 127/655/70 128/596/132 132/597/490
f 132/597/581 125/656/582 127/655/70
f 125/656/582 124/657/583 126/658/158
f 124/657/583 123/659/584 126/658/158
f 98/199/184 99/660/585 115/200/185
f 99/660/585 100/661/586 101/662/63
f 100/661/586 108/663/587 102/664/283
f 108/663/588 103/665/187 102/664/283
f 126/658/158 127/655/70 125/656/582
f 100/661/586 102/664/283 101/662/63
f 99/660/585 101/662/63 115/200/185
f 89/201/186 126/658/158 123/659/584
f 106/202/166 102/315/283 103/203/187
f 425/666/349 423/667/348 424/668/483
f 156/205/188 158/669/310 165/206/189
f 119/590/520 91/589/167 147/26/27
f 118/670/200 119/590/520 111/537/461
f 147/26/27 111/537/461 119/590/520
f 118/670/200 111/537/461 120/538/170
f 146/671/564 121/672/565 118/670/200
f 120/538/170 143/28/29 146/671/564
f 146/671/564 118/670/200 120/538/170
f 7/673/589 9/674/589 8/675/589
f 185/676/228 164/574/218 193/677/590
f 186/678/591 185/676/228 193/677/590
f 179/679/434 186/678/221 190/680/592
f 164/574/495 170/576/497 193/677/593
f 186/678/594 192/681/595 190/680/596
f 186/678/597 193/677/598 192/681/599
f 181/208/600 179/679/601 194/209/602
f 194/209/602 179/679/601 190/680/603
f 178/682/604 181/208/605 191/210/606
f 154/581/511 178/682/607 191/210/512
f 112/632/562 103/665/187 108/663/588
f 122/683/608 125/485/419 141/140/303
f 125/485/419 132/569/555 141/140/303
f 390/684/262 396/407/609 394/685/263
f 442/31/32 449/414/304 448/29/30
f 346/213/197 345/686/610 347/214/198
f 110/216/180 119/687/520 118/217/200
f 462/219/611 461/688/612 457/220/613
f 339/222/127 345/689/610 346/223/197
f 439/442/389 453/441/3 454/690/2
f 128/691/132 131/692/133 136/693/222
f 131/692/133 146/694/564 136/693/222
f 146/694/564 143/695/29 133/696/223
f 133/696/223 136/693/222 146/694/564
f 161/235/215 175/366/614 173/236/216
f 445/228/209 446/697/391 450/229/210
f 162/231/212 173/236/515 172/232/41
f 160/375/336 170/357/320 174/698/615
f 116/193/213 108/654/580 100/234/214
f 112/699/562 109/700/201 121/701/565
f 107/702/147 112/699/562 121/701/565
f 107/702/147 103/703/187 112/699/562
f 118/704/200 121/701/565 109/700/201
f 425/389/616 426/447/617 428/424/618
f 150/378/619 148/705/619 135/379/619
f 174/698/615 167/225/206 160/375/336
f 166/227/325 171/226/620 175/366/326
f 187/238/219 182/706/13 180/239/220
f 41/244/225 34/111/111 47/110/110
f 271/707/279 257/708/140 267/709/621
f 267/709/622 257/708/623 253/710/624
f 177/246/227 156/711/188 164/247/218
f 367/390/350 368/89/92 364/88/91
f 187/238/219 179/712/434 182/706/13
f 187/713/219 186/714/221 179/715/434
f 17/249/229 13/332/300 16/250/230
f 194/57/58 190/716/625 188/260/240
f 338/717/177 340/371/176 349/373/335
f 225/257/237 224/718/626 239/258/238
f 226/719/323 200/464/400 229/463/322
f 228/176/163 245/649/572 243/261/241
f 415/130/126 418/129/125 427/263/243
f 355/440/388 359/489/337 339/131/127
f 223/265/245 242/720/516 212/266/246
f 365/721/627 360/722/628 379/723/629
f 360/722/628 364/724/91 378/725/630
f 360/722/628 378/725/630 383/726/631
f 361/727/632 365/721/627 381/728/633
f 381/728/633 365/721/627 380/729/634
f 362/730/355 361/727/632 385/731/635
f 363/732/346 362/730/355 386/733/636
f 377/734/637 364/724/91 363/732/346
f 376/735/638 377/734/637 363/732/346
f 363/732/346 384/736/639 376/735/638
f 362/730/355 385/731/635 386/733/636
f 361/727/632 381/728/633 382/737/640
f 364/724/91 374/738/641 375/739/642
f 364/724/91 375/739/642 378/725/630
f 386/733/636 384/736/639 363/732/346
f 360/722/628 383/726/631 379/723/629
f 382/737/640 385/731/635 361/727/632
f 365/721/627 379/723/629 380/729/634
f 237/272/252 217/585/517 218/273/253
f 242/720/516 223/265/245 217/740/517
f 316/275/255 312/500/643 327/276/256
f 198/741/644 199/742/258 238/743/247
f 199/742/258 203/744/258 238/743/247
f 203/744/258 235/745/258 241/746/254
f 238/743/247 203/744/258 241/746/254
f 206/747/645 202/748/646 200/749/400
f 204/750/647 206/747/645 200/749/400
f 234/751/258 204/750/647 240/752/239
f 247/753/647 246/754/647 211/755/648
f 236/279/258 247/753/258 212/280/259
f 232/756/649 239/757/650 205/758/651
f 240/752/239 239/757/650 201/759/652
f 234/751/258 240/752/239 201/759/652
f 200/749/400 240/752/239 204/750/647
f 239/757/650 232/756/649 201/759/652
f 237/760/252 241/746/254 197/761/653
f 242/762/516 237/760/252 195/763/654
f 195/763/655 237/760/252 230/764/656
f 212/280/246 242/762/516 208/278/657
f 208/278/658 242/762/659 231/765/649
f 211/755/52 212/280/246 247/753/660
f 245/766/572 213/767/165 214/768/661
f 243/769/241 245/766/572 210/770/662
f 239/757/650 243/769/241 209/771/663
f 209/771/663 243/769/241 233/772/664
f 209/771/663 205/758/651 239/757/650
f 242/762/659 207/773/665 231/765/649
f 210/770/662 233/772/664 243/769/241
f 237/760/252 197/761/653 230/764/656
f 241/746/254 235/745/258 197/761/653
f 215/774/666 214/768/661 213/767/165
f 242/762/659 195/763/665 207/773/665
f 318/281/667 329/775/668 330/282/669
f 200/776/400 226/777/323 240/259/239
f 240/259/239 226/777/323 225/257/237
f 152/287/670 153/778/670 154/288/671
f 224/718/626 227/262/242 239/258/238
f 213/290/165 221/779/164 220/52/54
f 220/781/54 221/782/164 219/783/130
f 261/303/274 276/317/285 248/271/251
f 266/307/277 272/319/287 269/308/278
f 257/784/140 255/300/270 256/299/138
f 271/785/279 269/312/278 270/314/281
f 270/314/281 255/300/270 271/785/279
f 271/785/279 255/300/270 257/784/140
f 108/654/588 110/195/180 112/786/562
f 259/197/182 274/196/181 276/317/285
f 341/321/205 338/787/177 349/322/289
f 65/788/672 72/789/102 66/790/94
f 72/789/102 69/791/101 71/792/533
f 66/790/94 72/789/102 71/792/533
f 71/792/533 67/793/534 66/790/94
f 66/790/94 67/793/534 70/794/95
f 387/403/359 388/469/404 395/404/360
f 17/249/229 38/386/673 40/331/299
f 313/335/301 311/499/316 315/333/142
f 145/795/109 140/796/418 116/337/213
f 140/796/418 122/797/608 141/338/303
f 140/796/418 141/338/303 116/337/213
f 97/798/155 96/799/157 116/337/213
f 141/338/674 142/800/292 117/336/179
f 96/799/157 93/801/107 145/795/109
f 116/337/213 96/799/157 145/795/109
f 449/340/304 450/453/210 451/341/1
f 315/333/142 310/171/121 308/170/159
f 431/343/381 433/802/383 437/344/308
f 158/346/310 152/287/265 157/289/267
f 115/471/185 101/61/63 104/63/65
f 12/348/311 10/186/172 20/188/174
f 431/349/312 435/803/675 436/350/313
f 117/194/179 119/804/520 110/195/180
f 317/356/319 314/123/122 315/148/142
f 332/805/430 316/806/255 309/121/120
f 6/807/676 5/808/677 1/498/431
f 341/224/205 346/223/197 335/809/235
f 317/212/678 332/112/112 324/114/114
f 334/377/338 333/367/328 344/369/330
f 447/448/387 453/441/3 440/443/390
f 343/385/342 344/384/330 336/374/329
f 326/365/324 327/626/432 313/492/301
f 342/256/236 343/385/342 336/374/329
f 337/810/679 359/376/337 344/369/330
f 340/371/680 334/450/338 350/372/423
f 333/811/328 334/812/338 340/813/680
f 342/256/236 346/255/197 348/814/199
f 351/381/341 353/394/353 347/382/198
f 140/484/418 145/109/109 124/380/340
f 479/483/681 478/474/682 481/473/683
f 38/386/684 39/156/149 44/157/37
f 186/240/221 180/239/220 185/815/228
f 15/387/345 25/816/685 22/187/173
f 372/467/686 361/817/687 362/396/688
f 371/505/689 360/818/628 365/503/627
f 193/251/232 170/357/320 169/252/233
f 352/392/352 342/819/236 348/393/199
f 361/817/690 372/467/691 373/820/436
f 377/734/637 374/738/641 364/724/91
f 192/592/522 193/251/232 183/253/234
f 190/716/625 192/592/522 189/591/521
f 153/778/692 178/633/692 154/288/693
f 167/225/206 174/698/615 171/226/207
f 393/400/356 388/469/404 392/401/357
f 416/628/370 417/821/371 420/629/694
f 400/402/362 392/401/471 391/406/363
f 373/820/436 365/822/435 361/817/690
f 396/407/695 390/684/695 389/408/695
f 292/823/696 291/824/443 302/825/250
f 305/826/144 307/827/143 294/828/697
f 307/827/143 264/410/286 293/829/698
f 264/410/286 266/830/277 297/411/367
f 297/411/367 266/830/277 301/831/699
f 266/830/277 306/832/700 299/833/701
f 306/832/700 304/834/446 295/835/449
f 292/823/696 302/825/250 305/826/144
f 294/828/697 292/823/696 305/826/144
f 306/832/700 295/835/449 299/833/701
f 300/836/702 294/828/697 307/827/143
f 266/830/277 299/833/701 296/837/703
f 293/829/698 300/836/702 307/827/143
f 266/830/277 296/837/703 301/831/699
f 290/838/704 293/829/698 264/410/286
f 298/412/368 290/838/704 264/410/286
f 388/839/404 398/840/403 395/841/360
f 149/22/171 120/185/170 111/23/461
f 144/420/116 92/842/152 117/418/179
f 92/842/152 113/588/154 117/418/179
f 113/588/154 119/590/520 117/418/179
f 138/27/28 144/420/116 142/419/292
f 142/419/292 143/28/29 138/27/28
f 422/421/244 426/843/705 425/422/372
f 415/844/126 422/421/244 417/423/371
f 417/423/371 419/845/124 415/844/126
f 425/422/706 424/846/707 421/847/708
f 425/422/706 421/847/708 417/423/709
f 11/848/710 19/106/106 27/849/711
f 19/106/106 14/105/105 27/849/711
f 122/683/608 140/484/418 125/485/419
f 421/850/712 420/629/713 417/821/714
f 332/805/430 309/121/120 314/123/122
f 397/405/361 389/851/366 387/403/359
f 432/425/377 436/852/715 438/426/378
f 1/853/431 5/854/677 3/855/7
f 5/854/677 2/856/8 3/855/7
f 431/430/312 432/857/314 434/431/716
f 433/433/717 434/858/718 438/434/719
f 177/246/227 185/248/228 180/859/220
f 148/24/720 111/23/720 135/860/721
f 339/222/127 359/376/337 345/689/610
f 359/376/337 337/810/679 345/689/610
f 427/263/392 428/424/722 426/447/393
f 453/861/3 452/862/305 451/863/1
f 267/328/295 306/428/723 266/307/277
f 454/454/2 446/697/391 445/228/209
f 49/864/226 48/86/89 41/456/225
f 424/865/707 429/866/724 421/867/708
f 455/868/725 445/869/209 444/870/211
f 445/869/209 455/868/725 439/871/389
f 455/868/726 458/872/727 439/871/728
f 456/873/399 455/868/729 443/874/369
f 455/868/725 444/870/211 443/874/369
f 440/875/390 439/871/389 458/872/730
f 456/873/399 443/874/369 442/458/32
f 440/875/390 458/872/731 457/457/397
f 441/459/31 440/875/390 457/457/397
f 457/457/397 456/873/399 442/458/32
f 457/460/732 461/876/733 460/461/734
f 352/392/352 343/439/342 342/819/236
f 455/877/735 456/878/736 460/879/737
f 460/879/737 459/880/738 455/877/739
f 98/465/740 89/881/525 93/466/524
f 339/131/127 341/321/205 358/132/128
f 468/882/741 465/883/421 463/884/568
f 304/330/742 253/327/294 252/145/139
f 90/169/146 89/506/186 115/471/185
f 448/472/30 449/340/304 452/342/305
f 189/591/521 188/260/240 190/716/625
f 347/214/198 345/686/610 344/384/330
f 63/885/743 59/886/744 69/887/532
f 65/888/527 69/887/532 59/886/744
f 151/184/745 150/378/745 120/185/745
f 238/889/247 241/274/254 216/890/248
f 241/274/254 218/273/253 216/890/248
f 482/475/746 478/474/747 477/477/748
f 480/482/749 483/891/411 476/892/413
f 323/211/194 314/893/318 317/212/195
f 450/229/210 449/414/304 443/413/369
f 483/476/750 482/475/751 477/477/752
f 478/894/753 479/895/754 476/896/755
f 476/896/756 477/897/757 478/894/758
f 480/482/749 476/892/413 479/483/759
f 495/495/428 494/898/760 492/493/426
f 317/356/429 312/352/643 316/496/255
f 345/686/610 337/899/679 344/384/330
usemtl m1
f 502/291/258 501/292/258 503/293/258
f 502/291/258 500/780/258 501/292/258
l 487 486
l 472 473
l 488 489
l 490 491
l 474 475
l 485 484
