# Blender 5.2.2 LTS
# www.blender.org
mtllib FryPan.mtl
o SM_Pan_01_Coockware_0
v -0.223471 0.025738 0.030559
v -0.175002 0.042407 -0.045023
v -0.105887 0.025884 0.050825
v -0.207062 0.038687 -0.031947
v -0.181969 0.044073 -0.054685
v -0.235324 0.025723 0.028516
v -0.225260 0.032428 -0.003569
v -0.236566 0.019029 0.062121
v -0.203060 0.009154 0.118011
v -0.212855 0.007467 0.124784
v -0.228902 0.012803 0.094956
v -0.189519 0.003387 0.149572
v -0.125728 0.002370 0.166107
v -0.127727 0.000000 0.177728
v -0.160483 0.000840 0.167630
v -0.093482 0.000924 0.179178
v -0.036772 0.009361 0.146672
v -0.029805 0.007695 0.156334
v -0.060083 0.003548 0.171881
v -0.004712 0.013081 0.133596
v 0.011696 0.026030 0.071090
v 0.023549 0.026045 0.073133
v 0.013486 0.019340 0.105218
v 0.024792 0.032739 0.039528
v -0.008714 0.042614 -0.016362
v 0.001081 0.044300 -0.023135
v 0.017129 0.038965 0.006693
v -0.022255 0.048381 -0.047923
v -0.086047 0.049398 -0.064458
v -0.084046 0.051768 -0.076079
v -0.051291 0.050928 -0.065981
v -0.118292 0.050844 -0.077529
v -0.151691 0.048220 -0.070232
v -0.175019 0.049635 -0.043249
v -0.181434 0.051168 -0.052144
v -0.206266 0.045838 -0.029644
v -0.223320 0.033023 0.032070
v -0.224275 0.039645 -0.001561
v -0.234233 0.033010 0.030190
v -0.235462 0.026386 0.063445
v -0.202981 0.016497 0.119220
v -0.227879 0.020224 0.095938
v -0.211999 0.014944 0.125455
v -0.188906 0.010907 0.149985
v -0.125916 0.009737 0.167149
v -0.160172 0.008386 0.167855
v -0.127757 0.007555 0.177848
v -0.093869 0.008469 0.179283
v -0.037269 0.016703 0.147781
v -0.060818 0.011066 0.172061
v -0.030854 0.015169 0.156676
v -0.006023 0.020500 0.134176
v 0.011031 0.033315 0.072462
v 0.011986 0.026693 0.106093
v 0.021944 0.033328 0.074343
v 0.023172 0.039952 0.041087
v -0.009308 0.049841 -0.014688
v 0.015590 0.046114 0.008594
v -0.000290 0.051394 -0.020923
v -0.023383 0.055431 -0.045453
v -0.086372 0.056601 -0.062617
v -0.052116 0.057952 -0.063323
v -0.084532 0.058783 -0.073316
v -0.118420 0.057869 -0.074751
v -0.151471 0.055272 -0.067529
v -0.106145 0.033169 0.052266
v -0.092999 0.015604 0.194822
v -0.056426 0.018478 0.186831
v -0.053311 0.029949 0.198581
v -0.092427 0.026875 0.207127
v -0.248325 0.042761 0.029837
v -0.249686 0.035431 0.066637
v -0.260000 0.048080 0.070035
v -0.258546 0.055919 0.030678
v 0.207818 0.093003 -0.120959
v 0.203135 0.088371 -0.128886
v 0.228507 0.093075 -0.148126
v 0.232924 0.097771 -0.140567
v -0.023269 0.023019 0.169806
v -0.015499 0.034243 0.183636
v -0.241294 0.028612 0.102594
v -0.251025 0.040787 0.108490
v -0.015001 0.067573 -0.053868
v -0.046797 0.070362 -0.073643
v -0.043015 0.085437 -0.079992
v -0.009009 0.082455 -0.058843
v 0.004210 0.028918 0.144908
v 0.011537 0.041114 0.153744
v -0.223722 0.022770 0.135258
v -0.232232 0.034539 0.143423
v -0.082667 0.071282 -0.084701
v -0.081377 0.086422 -0.091819
v 0.024137 0.035771 0.113832
v 0.032849 0.048444 0.120509
v -0.198167 0.018302 0.162402
v -0.204902 0.029760 0.172454
v -0.120168 0.070271 -0.086289
v -0.121483 0.085340 -0.093517
v 0.035157 0.043113 0.078697
v 0.044635 0.056296 0.082932
v -0.166370 0.015513 0.182177
v -0.170897 0.026777 0.193603
v -0.156742 0.067396 -0.078298
v -0.160599 0.082266 -0.084970
v 0.036518 0.050444 0.041897
v 0.046090 0.064135 0.043575
v -0.130500 0.014593 0.193235
v -0.132534 0.025793 0.205429
v -0.152613 0.052243 -0.071517
v -0.183397 0.048027 -0.055710
v -0.189898 0.062855 -0.061273
v -0.217378 0.056957 -0.036374
v -0.237306 0.050103 -0.005298
v -0.246760 0.063771 -0.006898
v -0.225448 0.071101 -0.040133
v 0.028126 0.057262 0.005940
v 0.037114 0.071428 0.005120
v -0.198412 0.077972 -0.070025
v 0.072491 0.067947 -0.049013
v 0.062571 0.067489 -0.063476
v 0.106922 0.075125 -0.094142
v 0.119033 0.075060 -0.076646
v -0.208910 0.042551 -0.032592
v -0.227413 0.036187 -0.003739
v -0.237644 0.029370 0.028883
v -0.238908 0.022564 0.063051
v -0.231116 0.016233 0.096436
v -0.214801 0.010809 0.126763
v -0.191074 0.006661 0.151966
v -0.161552 0.004071 0.170326
v -0.128247 0.003216 0.180593
v -0.093430 0.004156 0.182067
v -0.059471 0.006824 0.174648
v -0.028687 0.011040 0.158841
v -0.003173 0.016517 0.135723
v 0.015329 0.022880 0.106870
v 0.025561 0.029697 0.074248
v 0.026824 0.036503 0.040080
v 0.019032 0.042834 0.006695
v 0.007825 0.047826 -0.027390
v -0.021009 0.052407 -0.048835
v -0.050531 0.054997 -0.067195
v -0.083836 0.055851 -0.077462
v -0.118654 0.054912 -0.078937
v 0.062000 0.083543 -0.060297
v 0.075562 0.080300 -0.041488
v 0.122889 0.087230 -0.068055
v 0.106362 0.091181 -0.090970
v -0.093081 0.026021 0.199048
v -0.093121 0.029191 0.200512
v -0.055351 0.032747 0.192540
v -0.055574 0.029483 0.191095
v -0.250782 0.053593 0.031540
v -0.251712 0.056919 0.032058
v -0.253100 0.049435 0.069632
v -0.252164 0.046151 0.068903
v 0.012056 0.074248 -0.025887
v 0.012609 0.077690 -0.025692
v -0.013971 0.081120 -0.052984
v -0.013889 0.078784 -0.053446
v -0.019190 0.037353 0.179072
v -0.018020 0.033623 0.179835
v -0.244532 0.042473 0.106345
v -0.243644 0.039228 0.105410
v -0.045947 0.085100 -0.073597
v -0.046171 0.081616 -0.073523
v 0.006022 0.043314 0.150105
v 0.005516 0.040001 0.148856
v -0.226591 0.036508 0.139695
v -0.225802 0.033296 0.138573
v -0.082572 0.086040 -0.084888
v -0.082590 0.082550 -0.084750
v 0.026479 0.049783 0.117818
v 0.025848 0.046496 0.116819
v -0.200499 0.031946 0.167409
v -0.199857 0.028760 0.166132
v -0.120860 0.085007 -0.086509
v -0.120665 0.081523 -0.086362
v 0.037731 0.057279 0.081945
v 0.037037 0.053951 0.081147
v -0.168035 0.029098 0.187600
v -0.167574 0.025928 0.186209
v -0.158673 0.082688 -0.078292
v -0.158210 0.079143 -0.078195
v 0.039120 0.064763 0.044371
v 0.038418 0.061393 0.043784
v -0.131410 0.028159 0.198891
v -0.131155 0.024994 0.197437
v -0.184339 0.056213 -0.055089
v -0.208900 0.050444 -0.030920
v -0.219299 0.068625 -0.035956
v -0.220047 0.072121 -0.035858
v -0.240460 0.064416 -0.003815
v -0.239594 0.061047 -0.004133
v 0.029816 0.070652 0.007739
v 0.029898 0.068316 0.007277
v -0.195804 0.076126 -0.066713
v -0.194880 0.079355 -0.064572
v -0.227370 0.043970 -0.002081
v -0.237577 0.037170 0.030462
v -0.238837 0.030380 0.064548
v -0.231065 0.024065 0.097852
v -0.214788 0.018653 0.128107
v -0.191119 0.014515 0.153248
v -0.161669 0.011932 0.171565
v -0.128444 0.011079 0.181807
v -0.093710 0.012016 0.183278
v -0.059758 0.014788 0.175908
v -0.028260 0.018899 0.161357
v -0.003691 0.024441 0.137143
v 0.014788 0.030696 0.108261
v 0.024995 0.037496 0.075718
v 0.026254 0.044286 0.041632
v 0.018481 0.050601 0.008328
v 0.002206 0.056013 -0.021926
v -0.021464 0.060151 -0.047068
v -0.050915 0.062735 -0.065385
v -0.084140 0.063587 -0.075627
v -0.118874 0.062650 -0.077097
v -0.152833 0.060097 -0.069685
v -0.092427 0.026875 0.207127
v -0.132534 0.025793 0.205429
v 0.247628 0.108477 -0.153145
v 0.247528 0.101165 -0.155110
v 0.259993 0.105071 -0.172621
v 0.259999 0.112405 -0.170784
v 0.218391 0.102378 -0.196948
v 0.214087 0.109160 -0.201484
v 0.235110 0.111019 -0.207127
v 0.238365 0.104489 -0.204046
v 0.213466 0.116645 -0.200522
v 0.234580 0.118482 -0.206036
v 0.230547 0.112561 -0.176833
v 0.247628 0.108477 -0.153145
v 0.259999 0.112405 -0.170784
v 0.254455 0.116677 -0.193364
v 0.132030 0.087979 -0.139612
v 0.127353 0.094849 -0.144661
v 0.167934 0.102538 -0.176268
v 0.173028 0.095568 -0.170638
v 0.167241 0.110040 -0.175402
v 0.194536 0.114285 -0.191976
v 0.195205 0.106788 -0.192875
v 0.254716 0.109278 -0.194828
v 0.254455 0.116677 -0.193364
v 0.257148 0.099998 -0.177998
v 0.252553 0.102431 -0.194448
v 0.243634 0.096343 -0.161942
v 0.231113 0.096507 -0.180010
v 0.213466 0.116645 -0.200522
v 0.234580 0.118482 -0.206036
v 0.052447 0.072739 -0.076809
v 0.094613 0.080898 -0.110511
v 0.207987 0.100299 -0.118897
v 0.233070 0.105072 -0.138537
v 0.075538 0.072970 -0.043351
v 0.122798 0.079915 -0.070003
v 0.048436 0.086785 -0.079106
v 0.089839 0.095131 -0.113888
v 0.048985 0.079318 -0.080173
v 0.048436 0.086785 -0.079106
v 0.089839 0.095131 -0.113888
v 0.090448 0.087649 -0.114865
v 0.075562 0.080300 -0.041488
v 0.122889 0.087230 -0.068055
v 0.042026 0.062287 -0.009222
v 0.042794 0.073410 -0.005912
v 0.009508 0.060313 -0.056116
v 0.023708 0.053467 -0.037870
v 0.003444 0.082818 -0.060482
v 0.004487 0.071261 -0.061280
v 0.037116 0.053713 -0.017830
v 0.027918 0.075605 -0.068336
v 0.031751 0.067766 -0.064562
v 0.056996 0.068653 -0.028011
v 0.053487 0.062569 -0.034418
v 0.023089 0.078449 -0.033117
v 0.042794 0.073410 -0.005912
v 0.057232 0.077096 -0.025735
v 0.042223 0.080780 -0.046513
v 0.003444 0.082818 -0.060482
v 0.027231 0.084268 -0.067338
v 0.042806 0.062111 -0.050152
v 0.057232 0.077096 -0.025735
v 0.027231 0.084268 -0.067338
v 0.163820 0.086131 -0.094087
v 0.163953 0.093435 -0.092076
v 0.126697 0.102342 -0.143743
v 0.163953 0.093435 -0.092076
v 0.145325 0.097889 -0.117910
v 0.145895 0.081835 -0.121089
v 0.159558 0.081398 -0.101435
v 0.126697 0.102342 -0.143743
v 0.200033 0.099882 -0.187612
v 0.207987 0.100299 -0.118897
v 0.177166 0.103371 -0.139925
v 0.177734 0.087316 -0.143102
v 0.167241 0.110040 -0.175402
v 0.200122 0.095138 -0.173603
v 0.199566 0.110256 -0.170719
v 0.194156 0.108681 -0.163725
v 0.194752 0.093564 -0.166623
v 0.211346 0.097051 -0.181233
v 0.210872 0.112163 -0.178335
v 0.205743 0.111648 -0.176652
v 0.206252 0.096530 -0.179529
v 0.221583 0.097047 -0.179362
v 0.221156 0.112143 -0.176397
v 0.217187 0.112394 -0.178374
v 0.217625 0.097288 -0.181295
v 0.227525 0.095591 -0.170942
v 0.227082 0.110670 -0.167898
v 0.225063 0.111561 -0.172759
v 0.225481 0.096475 -0.175766
v 0.225689 0.093535 -0.160906
v 0.225178 0.108608 -0.157815
v 0.227481 0.109821 -0.163536
v 0.227957 0.094747 -0.166605
v 0.214466 0.091622 -0.153275
v 0.213873 0.106701 -0.150199
v 0.221689 0.107678 -0.153741
v 0.222246 0.092605 -0.156838
v 0.199004 0.090727 -0.151535
v 0.198363 0.105822 -0.148525
v 0.205291 0.105907 -0.147719
v 0.205921 0.090822 -0.150772
v 0.193062 0.092183 -0.159955
v 0.192438 0.107294 -0.157025
v 0.193179 0.106184 -0.151280
v 0.193829 0.091079 -0.154247
v -0.246760 0.063771 -0.006898
v -0.225448 0.071101 -0.040133
v -0.258546 0.055919 0.030678
v -0.053311 0.029949 0.198581
v -0.260000 0.048080 0.070035
v -0.015499 0.034243 0.183636
v -0.251025 0.040787 0.108490
v 0.011537 0.041114 0.153744
v -0.232232 0.034539 0.143423
v -0.081377 0.086422 -0.091819
v -0.043015 0.085437 -0.079992
v 0.032849 0.048444 0.120509
v -0.204902 0.029760 0.172454
v -0.121483 0.085340 -0.093517
v 0.044635 0.056296 0.082932
v -0.170897 0.026777 0.193603
v -0.160599 0.082266 -0.084970
v -0.198412 0.077972 -0.070025
v 0.046090 0.064135 0.043575
v 0.018103 0.078636 -0.029490
v 0.037114 0.071428 0.005120
v -0.009009 0.082455 -0.058843
v 0.193829 0.091079 -0.154247
v 0.193179 0.106184 -0.151280
v 0.222246 0.092605 -0.156838
v 0.225689 0.093535 -0.160906
v 0.227957 0.094747 -0.166605
v 0.225481 0.096475 -0.175766
v 0.221583 0.097047 -0.179362
v 0.217625 0.097288 -0.181295
v 0.205291 0.105907 -0.147719
v 0.198363 0.105822 -0.148525
v 0.193179 0.106184 -0.151280
v 0.194752 0.093564 -0.166623
v 0.193062 0.092183 -0.159955
v 0.193829 0.091079 -0.154247
v 0.227481 0.109821 -0.163536
v 0.225178 0.108608 -0.157815
v 0.221689 0.107678 -0.153741
v 0.233070 0.105072 -0.138537
v 0.211346 0.097051 -0.181233
v 0.206252 0.096530 -0.179529
v 0.194536 0.114285 -0.191976
v 0.205743 0.111648 -0.176652
v 0.210872 0.112163 -0.178335
v 0.217187 0.112394 -0.178374
v 0.205921 0.090822 -0.150772
v 0.214466 0.091622 -0.153275
v 0.227525 0.095591 -0.170942
v 0.199004 0.090727 -0.151535
v 0.192438 0.107294 -0.157025
v 0.194156 0.108681 -0.163725
v 0.199566 0.110256 -0.170719
v 0.221156 0.112143 -0.176397
v 0.225063 0.111561 -0.172759
v 0.213873 0.106701 -0.150199
v 0.200122 0.095138 -0.173603
v 0.227082 0.110670 -0.167898
vn 0.0347 -0.9804 -0.1940
vn -0.3748 -0.7831 -0.4963
vn -0.2748 -0.7610 -0.5876
vn -0.4868 -0.8356 -0.2545
vn -0.4470 -0.8086 -0.3826
vn -0.4913 -0.8626 -0.1204
vn -0.3965 -0.9089 0.1292
vn -0.4605 -0.8876 0.0104
vn -0.3035 -0.9251 0.2280
vn -0.0574 -0.9383 0.3410
vn -0.1879 -0.9352 0.3003
vn 0.0793 -0.9344 0.3473
vn 0.3344 -0.9067 0.2572
vn 0.2129 -0.9236 0.3188
vn 0.4353 -0.8847 0.1666
vn 0.5496 -0.8320 -0.0754
vn 0.5087 -0.8593 0.0532
vn 0.5550 -0.8048 -0.2103
vn 0.2602 -0.9025 -0.3432
vn 0.4192 -0.8625 -0.2836
vn 0.2634 -0.8253 -0.4995
vn 0.1174 -0.7287 -0.6747
vn 0.2492 -0.7317 -0.6344
vn -0.0201 -0.7328 -0.6801
vn -0.1539 -0.7439 -0.6504
vn -0.0347 0.9804 0.1940
vn 0.2189 0.8245 0.5219
vn 0.3222 0.8311 0.4533
vn 0.3992 0.8402 0.3671
vn 0.4346 0.8649 0.2512
vn 0.4390 0.8889 0.1304
vn 0.4115 0.9113 0.0125
vn 0.3538 0.9305 -0.0947
vn 0.2700 0.9452 -0.1838
vn 0.1656 0.9543 -0.2487
vn 0.0479 0.9573 -0.2850
vn -0.0755 0.9537 -0.2912
vn -0.1826 0.9518 -0.2466
vn -0.2814 0.9441 -0.1719
vn -0.3840 0.9171 -0.1074
vn -0.4602 0.8874 -0.0252
vn -0.4956 0.8638 0.0909
vn -0.5001 0.8397 0.2116
vn -0.4726 0.8173 0.3296
vn -0.4149 0.7982 0.4368
vn -0.3311 0.7835 0.5259
vn -0.2267 0.7743 0.5907
vn -0.1090 0.7713 0.6270
vn 0.0144 0.7740 0.6331
vn 0.1208 0.7964 0.5926
vn 0.0961 -0.7391 0.6667
vn 0.2842 -0.7397 0.6099
vn 0.2726 -0.7527 0.5993
vn 0.0969 -0.7362 0.6698
vn -0.7688 -0.5878 -0.2519
vn -0.7764 -0.6284 -0.0470
vn -0.7802 -0.6238 -0.0461
vn -0.7720 -0.5835 -0.2522
vn 0.5225 -0.6004 0.6054
vn 0.2445 -0.9630 0.1135
vn 0.2923 -0.9496 0.1130
vn 0.6023 -0.5771 0.5516
vn 0.4679 -0.7319 0.4953
vn 0.4539 -0.7592 0.4666
vn -0.7297 -0.6663 0.1533
vn -0.7336 -0.6616 0.1554
vn 0.1274 -0.3826 -0.9151
vn 0.3532 -0.4354 -0.8280
vn 0.3532 -0.4370 -0.8272
vn 0.0457 -0.2692 -0.9620
vn 0.6347 -0.6800 0.3671
vn 0.6317 -0.6924 0.3486
vn -0.6319 -0.6988 0.3352
vn -0.6353 -0.6942 0.3384
vn 0.1536 -0.4302 -0.8896
vn 0.1541 -0.4311 -0.8891
vn 0.7481 -0.6277 0.2155
vn 0.7483 -0.6276 0.2148
vn -0.4896 -0.7237 0.4863
vn -0.4920 -0.7194 0.4903
vn -0.0552 -0.4356 -0.8984
vn -0.0544 -0.4357 -0.8984
vn 0.8094 -0.5870 0.0199
vn 0.8089 -0.5877 0.0190
vn -0.3125 -0.7394 0.5964
vn -0.3138 -0.7353 0.6007
vn -0.2420 -0.4704 -0.8486
vn -0.2277 -0.4869 -0.8432
vn 0.8169 -0.5463 -0.1850
vn 0.8159 -0.5476 -0.1856
vn -0.1128 -0.7446 0.6579
vn -0.1128 -0.7411 0.6619
vn -0.2705 -0.4042 -0.8737
vn -0.4616 -0.4316 -0.7750
vn -0.4245 -0.5186 -0.7422
vn -0.5928 -0.5301 -0.6063
vn -0.7074 -0.5471 -0.4476
vn -0.7096 -0.5434 -0.4486
vn -0.5888 -0.5467 -0.5953
vn 0.8321 -0.5511 0.0622
vn 0.8671 -0.4655 0.1772
vn -0.4067 -0.5535 -0.7268
vn 0.3160 -0.9329 0.1726
vn 0.0661 -0.9742 -0.2156
vn 0.0310 -0.9810 -0.1915
vn 0.2512 -0.9519 0.1754
vn -0.6196 -0.4668 -0.6310
vn -0.7338 -0.5074 -0.4517
vn -0.7968 -0.5504 -0.2494
vn -0.8041 -0.5933 -0.0377
vn -0.7555 -0.6330 0.1691
vn -0.6543 -0.6667 0.3569
vn -0.5074 -0.6923 0.5131
vn -0.3246 -0.7080 0.6272
vn -0.1183 -0.7127 0.6914
vn 0.0976 -0.7061 0.7013
vn 0.3086 -0.6887 0.6561
vn 0.5002 -0.6616 0.5587
vn 0.6593 -0.6265 0.4157
vn 0.7750 -0.5860 0.2367
vn 0.8393 -0.5427 0.0338
vn 0.8476 -0.4996 -0.1790
vn 0.7057 -0.6765 -0.2106
vn 0.2935 -0.8839 -0.3640
vn 0.3196 -0.5842 -0.7460
vn 0.3653 -0.3843 -0.8479
vn 0.1576 -0.3797 -0.9116
vn -0.0593 -0.3865 -0.9204
vn -0.0245 0.9820 0.1870
vn -0.0239 0.9819 0.1878
vn -0.1008 0.5882 -0.8024
vn -0.0792 0.9400 -0.3317
vn -0.1841 0.9118 -0.3671
vn -0.2796 0.5230 -0.8052
vn 0.8777 0.4170 0.2361
vn 0.4818 0.8387 0.2540
vn 0.4868 0.8650 0.1212
vn 0.8863 0.4630 0.0044
vn -0.7669 0.2414 0.5946
vn -0.5238 0.6919 0.4970
vn -0.4285 0.6623 0.6146
vn -0.6020 0.2146 0.7691
vn -0.3650 0.8781 -0.3093
vn -0.5644 0.4166 -0.7127
vn 0.4566 0.8896 -0.0086
vn 0.8335 0.5059 -0.2220
vn -0.2584 0.7148 0.6499
vn -0.3973 0.2193 0.8911
vn -0.4849 0.8600 -0.1592
vn -0.7666 0.4391 -0.4685
vn 0.3931 0.9108 -0.1264
vn 0.7228 0.5428 -0.4276
vn -0.1159 0.7357 0.6673
vn -0.1653 0.2373 0.9573
vn -0.4932 0.8687 -0.0456
vn -0.8373 0.4613 -0.2935
vn 0.3009 0.9269 -0.2244
vn 0.5619 0.5709 -0.5986
vn 0.0196 0.7462 0.6654
vn 0.0717 0.2439 0.9671
vn -0.5411 0.8374 0.0777
vn -0.9071 0.4148 -0.0715
vn 0.1861 0.9370 -0.2957
vn 0.3617 0.5885 -0.7231
vn 0.1266 0.7138 0.6888
vn 0.2543 0.1951 0.9473
vn -0.5751 0.7905 0.2107
vn -0.9248 0.3455 0.1596
vn 0.0567 0.9403 -0.3357
vn 0.1359 0.5943 -0.7927
vn 0.4037 0.5601 0.7234
vn 0.5885 0.5537 0.5892
vn 0.7412 0.2789 0.6106
vn 0.4274 0.7656 0.4808
vn 0.4334 0.8175 0.3792
vn 0.8078 0.3709 0.4582
vn -0.6067 0.7049 0.3675
vn -0.8793 0.2809 0.3845
vn 0.5444 0.1515 0.8251
vn 0.3087 0.7170 0.6250
vn 0.7018 0.5537 0.4482
vn 0.7621 0.5961 0.2527
vn 0.7696 0.6366 0.0494
vn 0.7232 0.6743 -0.1492
vn 0.6261 0.7066 -0.3297
vn 0.4849 0.7313 -0.4796
vn 0.3093 0.7467 -0.5889
vn 0.1111 0.7518 -0.6500
vn -0.0974 0.7448 -0.6602
vn -0.2659 0.7579 -0.5957
vn -0.4506 0.7643 -0.4613
vn -0.6326 0.6948 -0.3421
vn -0.7438 0.6335 -0.2133
vn -0.8041 0.5942 -0.0172
vn -0.8116 0.5537 0.1861
vn -0.7653 0.5160 0.3848
vn -0.6682 0.4838 0.5652
vn -0.5270 0.4591 0.7152
vn -0.3514 0.4437 0.8245
vn -0.1532 0.4386 0.8855
vn 0.0554 0.4424 0.8951
vn 0.2218 0.4906 0.8427
vn -0.0195 0.9349 0.3544
vn -0.0582 0.9419 0.3307
vn 0.7713 -0.1730 0.6125
vn 0.7004 -0.5198 0.4890
vn 0.9301 -0.3370 0.1461
vn 0.9808 -0.0476 0.1891
vn -0.1215 -0.8152 -0.5663
vn -0.3081 -0.2786 -0.9096
vn 0.1158 -0.1423 -0.9830
vn 0.1935 -0.6493 -0.7355
vn -0.3440 0.0938 -0.9343
vn 0.1390 0.1535 -0.9783
vn -0.2053 -0.8561 -0.4744
vn -0.5355 -0.3566 -0.7655
vn -0.4878 -0.3589 -0.7958
vn -0.1798 -0.8615 -0.4748
vn -0.5728 0.0450 -0.8185
vn -0.4735 0.0642 -0.8784
vn -0.4077 -0.3356 -0.8492
vn 0.8064 -0.0463 -0.5895
vn 0.8148 0.1280 -0.5655
vn 0.6439 -0.7570 -0.1109
vn 0.5533 -0.6569 -0.5122
vn 0.3562 -0.9294 0.0963
vn 0.0531 -0.9768 -0.2074
vn -0.2063 -0.8080 -0.5518
vn -0.2333 -0.8361 -0.4965
vn 0.5805 -0.2306 0.7809
vn 0.6719 -0.2097 0.7104
vn 0.5483 -0.5353 0.6424
vn 0.4742 -0.5715 0.6697
vn -0.0251 0.9822 0.1862
vn -0.5034 -0.2839 -0.8161
vn -0.5731 0.0637 -0.8170
vn -0.6406 0.0486 -0.7663
vn -0.5589 -0.3245 -0.7631
vn 0.5820 -0.2125 0.7849
vn 0.5102 -0.2262 0.8297
vn 0.7689 -0.4636 0.4403
vn 0.8004 -0.2816 0.5292
vn -0.0237 -0.7235 -0.6900
vn 0.2033 -0.9298 -0.3069
vn -0.2744 -0.0247 -0.9613
vn -0.2312 -0.2244 -0.9467
vn 0.5182 -0.8530 0.0620
vn -0.3332 -0.2397 -0.9119
vn -0.0906 -0.7601 -0.6435
vn 0.7006 -0.4868 0.5218
vn 0.4470 -0.8887 0.1020
vn 0.0185 0.9874 0.1569
vn 0.0345 0.9853 0.1675
vn -0.0055 0.9837 0.1799
vn -0.0092 0.9843 0.1763
vn 0.0135 0.9903 0.1384
vn -0.0114 0.9851 0.1717
vn 0.1616 -0.9463 -0.2798
vn 0.7358 -0.2028 0.6462
vn -0.3919 0.0669 -0.9176
vn 0.4790 -0.5993 0.6415
vn 0.5252 -0.2343 0.8181
vn -0.6262 0.0411 -0.7786
vn 0.0320 -0.9808 -0.1922
vn 0.2366 -0.9617 0.1384
vn -0.1612 -0.8411 -0.5162
vn 0.0355 -0.9803 -0.1945
vn 0.7524 -0.0966 0.6516
vn 0.7521 -0.0968 0.6519
vn 0.9015 -0.0471 0.4302
vn 0.9020 -0.0468 0.4293
vn 0.1728 -0.1801 0.9683
vn 0.1717 -0.1802 0.9685
vn 0.5265 -0.1419 0.8383
vn 0.5277 -0.1417 0.8375
vn -0.5695 -0.1737 0.8034
vn -0.5703 -0.1737 0.8029
vn -0.2215 -0.1915 0.9562
vn -0.2200 -0.1915 0.9565
vn -0.9702 -0.0750 0.2305
vn -0.9704 -0.0748 0.2295
vn -0.8228 -0.1331 0.5525
vn -0.8220 -0.1333 0.5537
vn -0.8610 0.0739 -0.5032
vn -0.8605 0.0741 -0.5041
vn -0.9897 -0.0019 -0.1433
vn -0.9899 -0.0022 -0.1420
vn -0.3593 0.1730 -0.9170
vn -0.3587 0.1730 -0.9173
vn -0.6114 0.1375 -0.7793
vn -0.6126 0.1372 -0.7784
vn 0.2927 0.1990 -0.9353
vn 0.2941 0.1990 -0.9348
vn -0.0922 0.1936 -0.9767
vn -0.0939 0.1936 -0.9766
vn 0.9975 0.0289 0.0644
vn 0.9975 0.0286 0.0653
vn 0.8224 0.1436 -0.5506
vn 0.8204 0.1451 -0.5531
vn -0.1862 0.9748 0.1232
vn -0.2302 0.9719 0.0492
vn -0.1758 0.9700 0.1676
vn 0.0345 0.9086 0.4161
vn -0.1772 0.9627 0.2043
vn 0.1318 0.9003 0.4148
vn -0.1688 0.9559 0.2402
vn 0.1629 0.9308 0.3273
vn -0.1513 0.9501 0.2729
vn -0.0104 0.9985 0.0532
vn 0.0109 0.9949 0.1001
vn 0.1179 0.9586 0.2594
vn -0.1257 0.9456 0.3000
vn -0.0488 0.9984 0.0282
vn 0.1072 0.9704 0.2164
vn -0.0940 0.9428 0.3197
vn -0.1018 0.9940 -0.0397
vn -0.1983 0.9792 -0.0429
vn 0.0700 0.9808 0.1821
vn 0.0047 0.9860 0.1666
vn 0.0163 0.9829 0.1837
vn -0.0079 0.9886 0.1501
vn 0.8205 0.1441 -0.5532
vn 0.8224 0.1403 -0.5513
vn 0.1527 -0.9841 -0.0908
vn 0.1312 -0.9879 -0.0827
vn 0.1134 -0.9884 -0.1010
vn -0.0329 -0.9650 -0.2602
vn -0.0279 -0.9554 -0.2941
vn 0.0241 -0.9826 -0.1844
vn 0.0406 -0.9791 -0.1993
vn -0.0048 -0.9654 -0.2606
vn -0.0329 -0.9582 -0.2842
vn -0.0374 -0.9471 -0.3187
vn -0.0218 -0.9422 -0.3344
vn 0.0992 -0.9899 -0.1014
vn 0.1090 -0.9912 -0.0745
vn 0.0790 -0.9908 -0.1097
vn 0.0865 -0.9870 -0.1357
vn -0.0346 0.9804 0.1940
vn -0.0542 -0.9519 -0.3017
vt 0.551448 0.431778
vt 0.535007 0.467870
vt 0.587043 0.470342
vt 0.532230 0.452873
vt 0.529736 0.467570
vt 0.547874 0.427888
vt 0.538414 0.439328
vt 0.559874 0.419188
vt 0.588287 0.417684
vt 0.588419 0.412390
vt 0.573701 0.413897
vt 0.603047 0.414584
vt 0.624403 0.433454
vt 0.628169 0.429744
vt 0.616605 0.420499
vt 0.637072 0.441591
vt 0.639167 0.470195
vt 0.644447 0.470134
vt 0.642617 0.455366
vt 0.642378 0.484887
vt 0.623508 0.507154
vt 0.627398 0.510634
vt 0.636546 0.498699
vt 0.615591 0.520175
vt 0.585854 0.523653
vt 0.585743 0.529044
vt 0.601507 0.526672
vt 0.570188 0.526053
vt 0.549017 0.505578
vt 0.544974 0.508885
vt 0.556355 0.518910
vt 0.536384 0.496518
vt 0.531155 0.482428
vt 0.430397 0.492900
vt 0.430110 0.497801
vt 0.444978 0.496535
vt 0.467974 0.479533
vt 0.458992 0.491550
vt 0.471226 0.483126
vt 0.480891 0.471856
vt 0.485225 0.443630
vt 0.487315 0.458477
vt 0.490062 0.443900
vt 0.488951 0.429108
vt 0.472061 0.406035
vt 0.484046 0.415099
vt 0.475691 0.402826
vt 0.464464 0.393103
vt 0.436178 0.388617
vt 0.451077 0.386599
vt 0.436437 0.383737
vt 0.421590 0.384987
vt 0.398624 0.402008
vt 0.407583 0.389983
vt 0.395358 0.398426
vt 0.385721 0.409728
vt 0.381495 0.437874
vt 0.379348 0.423114
vt 0.376683 0.437609
vt 0.377731 0.452308
vt 0.394567 0.475405
vt 0.382597 0.466312
vt 0.390925 0.478604
vt 0.402131 0.488347
vt 0.415499 0.494854
vt 0.433338 0.440750
vt 0.645219 0.436871
vt 0.651668 0.452871
vt 0.658776 0.450988
vt 0.651637 0.433247
vt 0.541517 0.420900
vt 0.555483 0.410833
vt 0.552022 0.404333
vt 0.536514 0.415488
vt 0.601176 0.632654
vt 0.596595 0.632566
vt 0.596180 0.646676
vt 0.600568 0.647012
vt 0.653893 0.469985
vt 0.664309 0.470057
vt 0.571567 0.404699
vt 0.569885 0.397533
vt 0.565558 0.534615
vt 0.550576 0.526201
vt 0.545984 0.532036
vt 0.561760 0.540978
vt 0.651502 0.487139
vt 0.658633 0.489119
vt 0.588671 0.402924
vt 0.588874 0.395562
vt 0.537699 0.514761
vt 0.531993 0.519491
vt 0.644795 0.503103
vt 0.651253 0.506703
vt 0.605669 0.405511
vt 0.607741 0.398447
vt 0.527912 0.500524
vt 0.521265 0.503782
vt 0.634378 0.516817
vt 0.639829 0.521801
vt 0.621434 0.412391
vt 0.625245 0.406091
vt 0.521955 0.484237
vt 0.514731 0.485763
vt 0.621038 0.527624
vt 0.625387 0.533570
vt 0.634889 0.423100
vt 0.640182 0.417970
vt 0.529304 0.482796
vt 0.527837 0.467451
vt 0.520307 0.466993
vt 0.523291 0.449915
vt 0.530530 0.434190
vt 0.524321 0.430213
vt 0.516295 0.447567
vt 0.605967 0.535364
vt 0.609653 0.541868
vt 0.509906 0.466357
vt 0.593065 0.564302
vt 0.585229 0.564053
vt 0.584976 0.588357
vt 0.594348 0.588468
vt 0.530425 0.452282
vt 0.536821 0.438297
vt 0.546589 0.426479
vt 0.558984 0.417505
vt 0.573265 0.412043
vt 0.588466 0.410478
vt 0.603569 0.412751
vt 0.617573 0.418860
vt 0.629521 0.428398
vt 0.638710 0.440632
vt 0.644441 0.454856
vt 0.646350 0.470099
vt 0.644220 0.485331
vt 0.638213 0.499576
vt 0.628805 0.511875
vt 0.616670 0.521680
vt 0.602174 0.528550
vt 0.585735 0.532968
vt 0.569485 0.527909
vt 0.555241 0.520394
vt 0.543515 0.510067
vt 0.534682 0.497325
vt 0.336903 0.435397
vt 0.337457 0.425036
vt 0.313515 0.421468
vt 0.312828 0.434075
vt 0.470920 0.383457
vt 0.471772 0.382174
vt 0.455319 0.373907
vt 0.454780 0.375379
vt 0.478991 0.491749
vt 0.480025 0.492889
vt 0.491895 0.479038
vt 0.490604 0.478201
vt 0.365170 0.436943
vt 0.363645 0.436862
vt 0.365316 0.454641
vt 0.366346 0.454454
vt 0.437419 0.367329
vt 0.437314 0.369480
vt 0.499796 0.462593
vt 0.498333 0.462115
vt 0.370802 0.472100
vt 0.372180 0.471416
vt 0.418859 0.371878
vt 0.419240 0.373400
vt 0.503182 0.444667
vt 0.501646 0.444582
vt 0.381022 0.487250
vt 0.382179 0.486235
vt 0.401565 0.378289
vt 0.402272 0.379658
vt 0.501827 0.426473
vt 0.500320 0.426786
vt 0.394794 0.499275
vt 0.395650 0.497994
vt 0.386524 0.388693
vt 0.387561 0.389830
vt 0.495812 0.409244
vt 0.494437 0.409933
vt 0.411238 0.507636
vt 0.411777 0.506165
vt 0.374672 0.402621
vt 0.375968 0.403451
vt 0.485562 0.394148
vt 0.484409 0.395167
vt 0.429941 0.500685
vt 0.445452 0.498874
vt 0.447334 0.508108
vt 0.447716 0.509630
vt 0.464992 0.503249
vt 0.464288 0.501878
vt 0.367270 0.419364
vt 0.368273 0.419661
vt 0.429295 0.511985
vt 0.429191 0.514137
vt 0.460064 0.493633
vt 0.472797 0.484864
vt 0.482854 0.473133
vt 0.489541 0.459207
vt 0.492401 0.444033
vt 0.491245 0.428634
vt 0.486141 0.414052
vt 0.477448 0.401276
vt 0.465763 0.391153
vt 0.451813 0.384326
vt 0.436596 0.380857
vt 0.421115 0.382646
vt 0.406508 0.387900
vt 0.393781 0.396693
vt 0.383748 0.408463
vt 0.377117 0.422414
vt 0.374357 0.437479
vt 0.375435 0.452755
vt 0.380497 0.467348
vt 0.389163 0.480150
vt 0.400828 0.490299
vt 0.414761 0.497124
vt 0.473518 0.379590
vt 0.487894 0.392090
vt 0.601797 0.657475
vt 0.598715 0.656236
vt 0.594452 0.664963
vt 0.596643 0.667470
vt 0.575324 0.655465
vt 0.571351 0.656338
vt 0.575573 0.665257
vt 0.578479 0.663912
vt 0.568246 0.657642
vt 0.573572 0.667582
vt 0.245443 0.430374
vt 0.246158 0.417343
vt 0.236890 0.420179
vt 0.232470 0.429662
vt 0.574230 0.609582
vt 0.569906 0.609564
vt 0.568575 0.632721
vt 0.573166 0.632614
vt 0.565209 0.632777
vt 0.566002 0.647691
vt 0.569321 0.647136
vt 0.585162 0.668817
vt 0.585165 0.671999
vt 0.591534 0.663490
vt 0.585077 0.665734
vt 0.594715 0.655424
vt 0.584935 0.654626
vt 0.244727 0.443405
vt 0.235825 0.439571
vt 0.577397 0.564085
vt 0.575597 0.588361
vt 0.604531 0.632695
vt 0.603879 0.647515
vt 0.596691 0.564503
vt 0.598337 0.588492
vt 0.336331 0.445758
vt 0.312134 0.446682
vt 0.573758 0.564204
vt 0.570395 0.564266
vt 0.568253 0.588112
vt 0.571600 0.588328
vt 0.600026 0.564645
vt 0.601674 0.588328
vt 0.601981 0.543842
vt 0.606593 0.546091
vt 0.574725 0.541883
vt 0.585613 0.541924
vt 0.564435 0.545392
vt 0.569113 0.543327
vt 0.596406 0.542218
vt 0.572559 0.553596
vt 0.576797 0.552984
vt 0.598226 0.554000
vt 0.594025 0.553271
vt 0.357984 0.436545
vt 0.358852 0.421094
vt 0.348237 0.424427
vt 0.347629 0.435988
vt 0.357126 0.452025
vt 0.346980 0.447537
vt 0.585417 0.552959
vt 0.601941 0.555117
vt 0.568804 0.554597
vt 0.599836 0.609635
vt 0.603189 0.609482
vt 0.566546 0.609397
vt 0.292465 0.418703
vt 0.291685 0.432914
vt 0.584874 0.609569
vt 0.595519 0.609636
vt 0.290905 0.447125
vt 0.573715 0.646727
vt 0.269592 0.416111
vt 0.274408 0.431965
vt 0.584879 0.626829
vt 0.267885 0.447196
vt 0.002077 0.545426
vt 0.008887 0.545391
vt 0.008850 0.541493
vt 0.002039 0.541544
vt 0.002131 0.551799
vt 0.008938 0.551794
vt 0.008924 0.549290
vt 0.002115 0.549309
vt 0.002151 0.556781
vt 0.008957 0.556803
vt 0.008953 0.554299
vt 0.002146 0.554290
vt 0.002149 0.561762
vt 0.008955 0.561813
vt 0.008961 0.559308
vt 0.002156 0.559271
vt 0.002125 0.566743
vt 0.008932 0.566822
vt 0.008949 0.564317
vt 0.002143 0.564253
vt 0.002069 0.573109
vt 0.008878 0.573213
vt 0.008916 0.569326
vt 0.002107 0.569234
vt 0.001991 0.580249
vt 0.008803 0.580372
vt 0.008841 0.577100
vt 0.002030 0.576984
vt 0.001996 0.538259
vt 0.008808 0.538190
vt 0.008766 0.534887
vt 0.001953 0.534974
vt 0.466436 0.506008
vt 0.448471 0.512606
vt 0.482114 0.495198
vt 0.456392 0.371034
vt 0.494506 0.480736
vt 0.437593 0.364316
vt 0.502755 0.463562
vt 0.418102 0.368902
vt 0.506291 0.444844
vt 0.378678 0.489299
vt 0.368005 0.473467
vt 0.400117 0.375532
vt 0.504876 0.425843
vt 0.393038 0.501853
vt 0.384426 0.386391
vt 0.498599 0.407849
vt 0.410158 0.510507
vt 0.429025 0.517148
vt 0.372043 0.400950
vt 0.360694 0.436701
vt 0.363961 0.418405
vt 0.361926 0.455230
vt 0.001953 0.583514
vt 0.008765 0.583645
vt 0.590737 0.648474
vt 0.591712 0.646360
vt 0.589762 0.650587
vt 0.582595 0.651360
vt 0.580226 0.650663
vt 0.584963 0.652057
vt 0.266779 0.431650
vt 0.264609 0.429197
vt 0.262439 0.426743
vt 0.584835 0.634461
vt 0.582483 0.636804
vt 0.580131 0.639147
vt 0.255335 0.416174
vt 0.252661 0.425135
vt 0.255038 0.424342
vt 0.250283 0.425928
vt 0.578176 0.646511
vt 0.579201 0.648587
vt 0.254112 0.437410
vt 0.253721 0.445572
vt 0.251870 0.436289
vt 0.249628 0.435168
vt 0.589641 0.639059
vt 0.590676 0.642710
vt 0.587363 0.651322
vt 0.587238 0.636760
vt 0.264281 0.433817
vt 0.261784 0.435984
vt 0.257948 0.436697
vt 0.248835 0.432790
vt 0.248041 0.430413
vt 0.258739 0.425543
vt 0.579154 0.642829
vt 0.249162 0.428170
s 0
usemtl m0
f 1/1/1 2/2/1 3/3/1
s 1
f 2/2/1 4/4/2 5/5/3
f 1/1/1 6/6/4 7/7/5
f 1/1/1 8/8/6 6/6/4
f 9/9/1 10/10/7 11/11/8
f 9/9/1 12/12/9 10/10/7
f 13/13/1 14/14/10 15/15/11
f 13/13/1 16/16/12 14/14/10
f 17/17/1 18/18/13 19/19/14
f 17/17/1 20/20/15 18/18/13
f 21/21/1 22/22/16 23/23/17
f 21/21/1 24/24/18 22/22/16
f 25/25/1 26/26/19 27/27/20
f 25/25/1 28/28/21 26/26/19
f 29/29/1 30/30/22 31/31/23
f 29/29/1 32/32/24 30/30/22
f 2/2/1 5/5/3 33/33/25
f 34/34/26 35/35/27 36/36/28
f 37/37/26 38/38/29 39/39/30
f 37/37/26 39/39/30 40/40/31
f 41/41/26 42/42/32 43/43/33
f 41/41/26 43/43/33 44/44/34
f 45/45/26 46/46/35 47/47/36
f 45/45/26 47/47/36 48/48/37
f 49/49/26 50/50/38 51/51/39
f 49/49/26 51/51/39 52/52/40
f 53/53/26 54/54/41 55/55/42
f 53/53/26 55/55/42 56/56/43
f 57/57/26 58/58/44 59/59/45
f 57/57/26 59/59/45 60/60/46
f 61/61/26 62/62/47 63/63/48
f 61/61/26 63/63/48 64/64/49
f 34/34/26 65/65/50 35/35/27
s 0
f 34/34/26 37/37/26 66/66/26
f 37/37/26 41/41/26 66/66/26
f 41/41/26 45/45/26 66/66/26
f 45/45/26 49/49/26 66/66/26
f 49/49/26 53/53/26 66/66/26
f 53/53/26 57/57/26 66/66/26
f 57/57/26 61/61/26 66/66/26
f 61/61/26 34/34/26 66/66/26
f 2/2/1 29/29/1 3/3/1
f 29/29/1 25/25/1 3/3/1
f 25/25/1 21/21/1 3/3/1
f 21/21/1 17/17/1 3/3/1
f 17/17/1 13/13/1 3/3/1
f 13/13/1 9/9/1 3/3/1
f 9/9/1 1/1/1 3/3/1
s 1
f 67/67/51 68/68/52 69/69/53
f 67/67/51 69/69/53 70/70/54
f 71/71/55 72/72/56 73/73/57
f 71/71/55 73/73/57 74/74/58
f 75/75/59 76/76/60 77/77/61
f 75/75/59 77/77/61 78/78/62
f 68/68/52 79/79/63 80/80/64
f 68/68/52 80/80/64 69/69/53
f 72/72/56 81/81/65 82/82/66
f 72/72/56 82/82/66 73/73/57
f 83/83/67 84/84/68 85/85/69
f 83/83/67 85/85/69 86/86/70
f 79/79/63 87/87/71 88/88/72
f 79/79/63 88/88/72 80/80/64
f 81/81/65 89/89/73 90/90/74
f 81/81/65 90/90/74 82/82/66
f 84/84/68 91/91/75 92/92/76
f 84/84/68 92/92/76 85/85/69
f 87/87/71 93/93/77 94/94/78
f 87/87/71 94/94/78 88/88/72
f 89/89/73 95/95/79 96/96/80
f 89/89/73 96/96/80 90/90/74
f 91/91/75 97/97/81 98/98/82
f 91/91/75 98/98/82 92/92/76
f 93/93/77 99/99/83 100/100/84
f 93/93/77 100/100/84 94/94/78
f 95/95/79 101/101/85 102/102/86
f 95/95/79 102/102/86 96/96/80
f 97/97/81 103/103/87 104/104/88
f 97/97/81 104/104/88 98/98/82
f 99/99/83 105/105/89 106/106/90
f 99/99/83 106/106/90 100/100/84
f 101/101/85 107/107/91 108/108/92
f 101/101/85 108/108/92 102/102/86
f 109/109/93 110/110/94 111/111/95
f 109/109/93 111/111/95 103/103/87
f 112/112/96 113/113/97 114/114/98
f 112/112/96 114/114/98 115/115/99
f 105/105/89 116/116/100 117/117/101
f 105/105/89 117/117/101 106/106/90
f 107/107/91 67/67/51 70/70/54
f 107/107/91 70/70/54 108/108/92
f 111/111/95 112/112/96 115/115/99
f 111/111/95 115/115/99 118/118/102
f 113/113/97 71/71/55 74/74/58
f 113/113/97 74/74/58 114/114/98
f 119/119/103 120/120/104 121/121/105
f 119/119/103 121/121/105 122/122/106
f 103/103/87 111/111/95 118/118/102
f 103/103/87 118/118/102 104/104/88
f 123/123/107 4/4/2 7/7/5
f 123/123/107 7/7/5 124/124/108
f 124/124/108 7/7/5 6/6/4
f 124/124/108 6/6/4 125/125/109
f 125/125/109 6/6/4 8/8/6
f 125/125/109 8/8/6 126/126/110
f 126/126/110 8/8/6 11/11/8
f 126/126/110 11/11/8 127/127/111
f 127/127/111 11/11/8 10/10/7
f 127/127/111 10/10/7 128/128/112
f 128/128/112 10/10/7 12/12/9
f 128/128/112 12/12/9 129/129/113
f 129/129/113 12/12/9 15/15/11
f 129/129/113 15/15/11 130/130/114
f 130/130/114 15/15/11 14/14/10
f 130/130/114 14/14/10 131/131/115
f 131/131/115 14/14/10 16/16/12
f 131/131/115 16/16/12 132/132/116
f 132/132/116 16/16/12 19/19/14
f 132/132/116 19/19/14 133/133/117
f 133/133/117 19/19/14 18/18/13
f 133/133/117 18/18/13 134/134/118
f 134/134/118 18/18/13 20/20/15
f 134/134/118 20/20/15 135/135/119
f 135/135/119 20/20/15 23/23/17
f 135/135/119 23/23/17 136/136/120
f 136/136/120 23/23/17 22/22/16
f 136/136/120 22/22/16 137/137/121
f 137/137/121 22/22/16 24/24/18
f 137/137/121 24/24/18 138/138/122
f 138/138/122 24/24/18 27/27/20
f 138/138/122 27/27/20 139/139/123
f 139/139/123 27/27/20 26/26/19
f 139/139/123 26/26/19 140/140/124
f 140/140/124 26/26/19 28/28/21
f 140/140/124 28/28/21 141/141/125
f 141/141/125 28/28/21 31/31/23
f 141/141/125 31/31/23 142/142/126
f 142/142/126 31/31/23 30/30/22
f 142/142/126 30/30/22 143/143/127
f 143/143/127 30/30/22 32/32/24
f 143/143/127 32/32/24 144/144/128
f 144/144/128 32/32/24 33/33/25
f 144/144/128 33/33/25 109/109/93
f 109/109/93 33/33/25 5/5/3
f 109/109/93 5/5/3 110/110/94
f 145/145/129 146/146/130 147/147/26
f 145/145/129 147/147/26 148/148/26
f 124/124/108 125/125/109 71/71/55
f 124/124/108 71/71/55 113/113/97
f 110/110/94 123/123/107 112/112/96
f 110/110/94 112/112/96 111/111/95
f 131/131/115 132/132/116 67/67/51
f 131/131/115 67/67/51 107/107/91
f 138/138/122 139/139/123 116/116/100
f 138/138/122 116/116/100 105/105/89
f 123/123/107 124/124/108 113/113/97
f 123/123/107 113/113/97 112/112/96
f 130/130/114 131/131/115 107/107/91
f 130/130/114 107/107/91 101/101/85
f 137/137/121 138/138/122 105/105/89
f 137/137/121 105/105/89 99/99/83
f 144/144/128 109/109/93 103/103/87
f 144/144/128 103/103/87 97/97/81
f 129/129/113 130/130/114 101/101/85
f 129/129/113 101/101/85 95/95/79
f 136/136/120 137/137/121 99/99/83
f 136/136/120 99/99/83 93/93/77
f 143/143/127 144/144/128 97/97/81
f 143/143/127 97/97/81 91/91/75
f 128/128/112 129/129/113 95/95/79
f 128/128/112 95/95/79 89/89/73
f 135/135/119 136/136/120 93/93/77
f 135/135/119 93/93/77 87/87/71
f 142/142/126 143/143/127 91/91/75
f 142/142/126 91/91/75 84/84/68
f 127/127/111 128/128/112 89/89/73
f 127/127/111 89/89/73 81/81/65
f 134/134/118 135/135/119 87/87/71
f 134/134/118 87/87/71 79/79/63
f 141/141/125 142/142/126 84/84/68
f 141/141/125 84/84/68 83/83/67
f 126/126/110 127/127/111 81/81/65
f 126/126/110 81/81/65 72/72/56
f 133/133/117 134/134/118 79/79/63
f 133/133/117 79/79/63 68/68/52
f 125/125/109 126/126/110 72/72/56
f 125/125/109 72/72/56 71/71/55
f 132/132/116 133/133/117 68/68/52
f 132/132/116 68/68/52 67/67/51
f 149/149/131 150/150/132 151/151/133
f 149/149/131 151/151/133 152/152/134
f 153/153/135 154/154/136 155/155/137
f 153/153/135 155/155/137 156/156/138
f 157/157/139 158/158/140 159/159/141
f 157/157/139 159/159/141 160/160/142
f 152/152/134 151/151/133 161/161/143
f 152/152/134 161/161/143 162/162/144
f 156/156/138 155/155/137 163/163/145
f 156/156/138 163/163/145 164/164/146
f 160/160/142 159/159/141 165/165/147
f 160/160/142 165/165/147 166/166/148
f 162/162/144 161/161/143 167/167/149
f 162/162/144 167/167/149 168/168/150
f 164/164/146 163/163/145 169/169/151
f 164/164/146 169/169/151 170/170/152
f 166/166/148 165/165/147 171/171/153
f 166/166/148 171/171/153 172/172/154
f 168/168/150 167/167/149 173/173/155
f 168/168/150 173/173/155 174/174/156
f 170/170/152 169/169/151 175/175/157
f 170/170/152 175/175/157 176/176/158
f 172/172/154 171/171/153 177/177/159
f 172/172/154 177/177/159 178/178/160
f 174/174/156 173/173/155 179/179/161
f 174/174/156 179/179/161 180/180/162
f 176/176/158 175/175/157 181/181/163
f 176/176/158 181/181/163 182/182/164
f 178/178/160 177/177/159 183/183/165
f 178/178/160 183/183/165 184/184/166
f 180/180/162 179/179/161 185/185/167
f 180/180/162 185/185/167 186/186/168
f 182/182/164 181/181/163 187/187/169
f 182/182/164 187/187/169 188/188/170
f 189/189/171 190/190/172 36/36/28
f 189/189/171 36/36/28 35/35/27
f 191/191/173 192/192/174 193/193/175
f 191/191/173 193/193/175 194/194/176
f 186/186/168 185/185/167 195/195/177
f 186/186/168 195/195/177 196/196/178
f 188/188/170 187/187/169 150/150/132
f 188/188/170 150/150/132 149/149/131
f 197/197/179 198/198/180 192/192/174
f 197/197/179 192/192/174 191/191/173
f 194/194/176 193/193/175 154/154/136
f 194/194/176 154/154/136 153/153/135
f 196/196/178 195/195/177 158/158/140
f 196/196/178 158/158/140 157/157/139
f 184/184/166 183/183/165 198/198/180
f 184/184/166 198/198/180 197/197/179
f 190/190/172 199/199/181 38/38/29
f 190/190/172 38/38/29 36/36/28
f 199/199/181 200/200/182 39/39/30
f 199/199/181 39/39/30 38/38/29
f 200/200/182 201/201/183 40/40/31
f 200/200/182 40/40/31 39/39/30
f 201/201/183 202/202/184 42/42/32
f 201/201/183 42/42/32 40/40/31
f 202/202/184 203/203/185 43/43/33
f 202/202/184 43/43/33 42/42/32
f 203/203/185 204/204/186 44/44/34
f 203/203/185 44/44/34 43/43/33
f 204/204/186 205/205/187 46/46/35
f 204/204/186 46/46/35 44/44/34
f 205/205/187 206/206/188 47/47/36
f 205/205/187 47/47/36 46/46/35
f 206/206/188 207/207/189 48/48/37
f 206/206/188 48/48/37 47/47/36
f 207/207/189 208/208/190 50/50/38
f 207/207/189 50/50/38 48/48/37
f 208/208/190 209/209/191 51/51/39
f 208/208/190 51/51/39 50/50/38
f 209/209/191 210/210/192 52/52/40
f 209/209/191 52/52/40 51/51/39
f 210/210/192 211/211/193 54/54/41
f 210/210/192 54/54/41 52/52/40
f 211/211/193 212/212/194 55/55/42
f 211/211/193 55/55/42 54/54/41
f 212/212/194 213/213/195 56/56/43
f 212/212/194 56/56/43 55/55/42
f 213/213/195 214/214/196 58/58/44
f 213/213/195 58/58/44 56/56/43
f 214/214/196 215/215/197 59/59/45
f 214/214/196 59/59/45 58/58/44
f 215/215/197 216/216/198 60/60/46
f 215/215/197 60/60/46 59/59/45
f 216/216/198 217/217/199 62/62/47
f 216/216/198 62/62/47 60/60/46
f 217/217/199 218/218/200 63/63/48
f 217/217/199 63/63/48 62/62/47
f 218/218/200 219/219/201 64/64/49
f 218/218/200 64/64/49 63/63/48
f 219/219/201 220/220/202 65/65/50
f 219/219/201 65/65/50 64/64/49
f 189/189/171 35/35/27 65/65/50
f 189/189/171 65/65/50 220/220/202
f 221/221/203 150/150/132 187/187/169
f 221/221/203 187/187/169 222/222/204
f 223/223/205 224/224/206 225/225/207
f 223/223/205 225/225/207 226/226/208
f 227/227/209 228/228/210 229/229/211
f 227/227/209 229/229/211 230/230/212
f 228/228/210 231/231/213 232/232/214
f 228/228/210 232/232/214 229/229/211
s 0
f 233/233/26 234/234/26 235/235/26
f 233/233/26 235/235/26 236/236/26
s 1
f 237/237/215 238/238/216 239/239/217
f 237/237/215 239/239/217 240/240/218
f 239/239/217 241/241/219 242/242/220
f 239/239/217 242/242/220 243/243/221
f 244/244/222 229/229/211 232/232/214
f 244/244/222 232/232/214 245/245/223
f 225/225/207 244/244/222 245/245/223
f 225/225/207 245/245/223 226/226/208
f 246/246/224 247/247/225 244/244/222
f 246/246/224 244/244/222 225/225/207
f 247/247/225 230/230/212 229/229/211
f 247/247/225 229/229/211 244/244/222
f 248/248/226 249/249/227 247/247/225
f 248/248/226 247/247/225 246/246/224
s 0
f 250/250/26 233/233/26 236/236/26
f 250/250/26 236/236/26 251/251/26
s 1
f 224/224/206 248/248/226 246/246/224
f 224/224/206 246/246/224 225/225/207
f 249/249/227 227/227/209 230/230/212
f 249/249/227 230/230/212 247/247/225
f 120/120/104 252/252/228 253/253/229
f 120/120/104 253/253/229 121/121/105
f 254/254/230 75/75/59 78/78/62
f 254/254/230 78/78/62 255/255/231
f 256/256/232 119/119/103 122/122/106
f 256/256/232 122/122/106 257/257/233
f 258/258/234 145/145/129 148/148/26
f 258/258/234 148/148/26 259/259/26
f 260/260/235 261/261/236 262/262/237
f 260/260/235 262/262/237 263/263/238
f 252/252/228 260/260/235 263/263/238
f 252/252/228 263/263/238 253/253/229
f 264/264/239 256/256/232 257/257/233
f 264/264/239 257/257/233 265/265/240
f 117/117/101 116/116/100 266/266/241
f 117/117/101 266/266/241 267/267/242
f 140/140/124 141/141/125 268/268/243
f 140/140/124 268/268/243 269/269/244
f 83/83/67 86/86/70 270/270/245
f 83/83/67 270/270/245 271/271/246
f 139/139/123 140/140/124 269/269/244
f 139/139/123 269/269/244 272/272/247
f 116/116/100 139/139/123 272/272/247
f 116/116/100 272/272/247 266/266/241
f 268/268/243 271/271/246 273/273/248
f 268/268/243 273/273/248 274/274/249
f 274/274/249 273/273/248 260/260/235
f 274/274/249 260/260/235 252/252/228
f 119/119/103 256/256/232 275/275/250
f 119/119/103 275/275/250 276/276/251
f 276/276/251 275/275/250 266/266/241
f 276/276/251 266/266/241 272/272/247
f 277/277/252 278/278/253 279/279/254
f 277/277/252 279/279/254 280/280/255
f 280/280/255 279/279/254 146/146/130
f 280/280/255 146/146/130 145/145/129
f 281/281/256 277/277/252 280/280/255
f 281/281/256 280/280/255 282/282/257
f 282/282/257 280/280/255 145/145/129
f 282/282/257 145/145/129 258/258/234
f 120/120/104 119/119/103 276/276/251
f 120/120/104 276/276/251 283/283/258
f 283/283/258 276/276/251 272/272/247
f 283/283/258 272/272/247 269/269/244
f 252/252/228 120/120/104 283/283/258
f 252/252/228 283/283/258 274/274/249
f 274/274/249 283/283/258 269/269/244
f 274/274/249 269/269/244 268/268/243
f 256/256/232 264/264/239 284/284/259
f 256/256/232 284/284/259 275/275/250
f 275/275/250 284/284/259 267/267/242
f 275/275/250 267/267/242 266/266/241
f 271/271/246 270/270/245 285/285/260
f 271/271/246 285/285/260 273/273/248
f 273/273/248 285/285/260 261/261/236
f 273/273/248 261/261/236 260/260/235
f 141/141/125 83/83/67 271/271/246
f 141/141/125 271/271/246 268/268/243
f 286/286/261 287/287/262 265/265/240
f 286/286/261 265/265/240 257/257/233
f 238/238/216 237/237/215 253/253/229
f 238/238/216 253/253/229 263/263/238
f 288/288/263 238/238/216 263/263/238
f 288/288/263 263/263/238 262/262/237
s 0
f 289/289/26 290/290/26 148/148/26
f 289/289/26 148/148/26 147/147/26
s 1
f 291/291/264 292/292/265 122/122/106
f 291/291/264 122/122/106 121/121/105
s 0
f 290/290/26 293/293/26 259/259/26
f 290/290/26 259/259/26 148/148/26
s 1
f 292/292/265 286/286/261 257/257/233
f 292/292/265 257/257/233 122/122/106
f 237/237/215 291/291/264 121/121/105
f 237/237/215 121/121/105 253/253/229
f 240/240/218 239/239/217 243/243/221
f 240/240/218 243/243/221 294/294/266
s 0
f 290/290/26 289/289/26 295/295/26
f 290/290/26 295/295/26 296/296/26
s 1
f 291/291/264 237/237/215 240/240/218
f 291/291/264 240/240/218 297/297/267
f 287/287/262 286/286/261 75/75/59
f 287/287/262 75/75/59 254/254/230
f 238/238/216 288/288/263 241/241/219
f 238/238/216 241/241/219 239/239/217
s 0
f 293/293/26 290/290/26 296/296/26
f 293/293/26 296/296/26 298/298/26
s 1
f 292/292/265 291/291/264 297/297/267
f 292/292/265 297/297/267 76/76/60
f 286/286/261 292/292/265 76/76/60
f 286/286/261 76/76/60 75/75/59
f 78/78/62 77/77/61 248/248/226
f 78/78/62 248/248/226 224/224/206
f 243/243/221 242/242/220 231/231/213
f 243/243/221 231/231/213 228/228/210
f 294/294/266 243/243/221 228/228/210
f 294/294/266 228/228/210 227/227/209
f 255/255/231 78/78/62 224/224/206
f 255/255/231 224/224/206 223/223/205
f 299/299/268 300/300/269 301/301/270
f 299/299/268 301/301/270 302/302/271
f 303/303/272 304/304/273 305/305/274
f 303/303/272 305/305/274 306/306/275
f 307/307/276 308/308/277 309/309/278
f 307/307/276 309/309/278 310/310/279
f 311/311/280 312/312/281 313/313/282
f 311/311/280 313/313/282 314/314/283
f 315/315/284 316/316/285 317/317/286
f 315/315/284 317/317/286 318/318/287
f 319/319/288 320/320/289 321/321/290
f 319/319/288 321/321/290 322/322/291
f 323/323/292 324/324/293 325/325/294
f 323/323/292 325/325/294 326/326/295
f 327/327/296 328/328/297 329/329/298
f 327/327/296 329/329/298 330/330/299
f 331/331/300 193/193/175 192/192/174
f 331/331/300 192/192/174 332/332/301
f 333/333/302 154/154/136 193/193/175
f 333/333/302 193/193/175 331/331/300
f 334/334/303 151/151/133 150/150/132
f 334/334/303 150/150/132 221/221/203
f 335/335/304 155/155/137 154/154/136
f 335/335/304 154/154/136 333/333/302
f 336/336/305 161/161/143 151/151/133
f 336/336/305 151/151/133 334/334/303
f 337/337/306 163/163/145 155/155/137
f 337/337/306 155/155/137 335/335/304
f 338/338/307 167/167/149 161/161/143
f 338/338/307 161/161/143 336/336/305
f 339/339/308 169/169/151 163/163/145
f 339/339/308 163/163/145 337/337/306
f 340/340/309 171/171/153 165/165/147
f 340/340/309 165/165/147 341/341/310
f 342/342/311 173/173/155 167/167/149
f 342/342/311 167/167/149 338/338/307
f 343/343/312 175/175/157 169/169/151
f 343/343/312 169/169/151 339/339/308
f 344/344/313 177/177/159 171/171/153
f 344/344/313 171/171/153 340/340/309
f 345/345/314 179/179/161 173/173/155
f 345/345/314 173/173/155 342/342/311
f 346/346/315 181/181/163 175/175/157
f 346/346/315 175/175/157 343/343/312
f 347/347/316 183/183/165 177/177/159
f 347/347/316 177/177/159 344/344/313
f 332/332/301 192/192/174 198/198/180
f 332/332/301 198/198/180 348/348/317
f 349/349/318 185/185/167 179/179/161
f 349/349/318 179/179/161 345/345/314
f 187/187/169 181/181/163 346/346/315
f 187/187/169 346/346/315 222/222/204
f 198/198/180 183/183/165 347/347/316
f 198/198/180 347/347/316 348/348/317
f 2/2/1 1/1/1 7/7/5
f 2/2/1 7/7/5 4/4/2
f 1/1/1 9/9/1 11/11/8
f 1/1/1 11/11/8 8/8/6
f 9/9/1 13/13/1 15/15/11
f 9/9/1 15/15/11 12/12/9
f 13/13/1 17/17/1 19/19/14
f 13/13/1 19/19/14 16/16/12
f 17/17/1 21/21/1 23/23/17
f 17/17/1 23/23/17 20/20/15
f 21/21/1 25/25/1 27/27/20
f 21/21/1 27/27/20 24/24/18
f 25/25/1 29/29/1 31/31/23
f 25/25/1 31/31/23 28/28/21
f 29/29/1 2/2/1 33/33/25
f 29/29/1 33/33/25 32/32/24
f 277/277/252 350/350/319 351/351/320
f 277/277/252 351/351/320 278/278/253
f 281/281/256 352/352/321 350/350/319
f 281/281/256 350/350/319 277/277/252
f 110/110/94 5/5/3 4/4/2
f 110/110/94 4/4/2 123/123/107
f 37/37/26 34/34/26 36/36/28
f 37/37/26 36/36/28 38/38/29
f 41/41/26 37/37/26 40/40/31
f 41/41/26 40/40/31 42/42/32
f 45/45/26 41/41/26 44/44/34
f 45/45/26 44/44/34 46/46/35
f 49/49/26 45/45/26 48/48/37
f 49/49/26 48/48/37 50/50/38
f 53/53/26 49/49/26 52/52/40
f 53/53/26 52/52/40 54/54/41
f 57/57/26 53/53/26 56/56/43
f 57/57/26 56/56/43 58/58/44
f 61/61/26 57/57/26 60/60/46
f 61/61/26 60/60/46 62/62/47
f 34/34/26 61/61/26 64/64/49
f 34/34/26 64/64/49 65/65/50
f 349/349/318 351/351/320 195/195/177
f 349/349/318 195/195/177 185/185/167
f 165/165/147 159/159/141 352/352/321
f 165/165/147 352/352/321 341/341/310
f 158/158/140 195/195/177 351/351/320
f 158/158/140 351/351/320 350/350/319
f 159/159/141 158/158/140 350/350/319
f 159/159/141 350/350/319 352/352/321
f 197/197/179 189/189/171 220/220/202
f 197/197/179 220/220/202 184/184/166
f 178/178/160 184/184/166 220/220/202
f 178/178/160 220/220/202 219/219/201
f 172/172/154 178/178/160 219/219/201
f 172/172/154 219/219/201 218/218/200
f 166/166/148 172/172/154 218/218/200
f 166/166/148 218/218/200 217/217/199
f 160/160/142 166/166/148 217/217/199
f 160/160/142 217/217/199 216/216/198
f 157/157/139 160/160/142 216/216/198
f 157/157/139 216/216/198 215/215/197
f 196/196/178 157/157/139 215/215/197
f 196/196/178 215/215/197 214/214/196
f 186/186/168 196/196/178 214/214/196
f 186/186/168 214/214/196 213/213/195
f 180/180/162 186/186/168 213/213/195
f 180/180/162 213/213/195 212/212/194
f 174/174/156 180/180/162 212/212/194
f 174/174/156 212/212/194 211/211/193
f 168/168/150 174/174/156 211/211/193
f 168/168/150 211/211/193 210/210/192
f 162/162/144 168/168/150 210/210/192
f 162/162/144 210/210/192 209/209/191
f 152/152/134 162/162/144 209/209/191
f 152/152/134 209/209/191 208/208/190
f 149/149/131 152/152/134 208/208/190
f 149/149/131 208/208/190 207/207/189
f 188/188/170 149/149/131 207/207/189
f 188/188/170 207/207/189 206/206/188
f 182/182/164 188/188/170 206/206/188
f 182/182/164 206/206/188 205/205/187
f 176/176/158 182/182/164 205/205/187
f 176/176/158 205/205/187 204/204/186
f 170/170/152 176/176/158 204/204/186
f 170/170/152 204/204/186 203/203/185
f 164/164/146 170/170/152 203/203/185
f 164/164/146 203/203/185 202/202/184
f 156/156/138 164/164/146 202/202/184
f 156/156/138 202/202/184 201/201/183
f 153/153/135 156/156/138 201/201/183
f 153/153/135 201/201/183 200/200/182
f 194/194/176 153/153/135 200/200/182
f 194/194/176 200/200/182 199/199/181
f 191/191/173 194/194/176 199/199/181
f 191/191/173 199/199/181 190/190/172
f 197/197/179 191/191/173 190/190/172
f 197/197/179 190/190/172 189/189/171
f 302/302/271 301/301/270 328/328/297
f 302/302/271 328/328/297 327/327/296
f 353/353/322 354/354/323 324/324/293
f 353/353/322 324/324/293 323/323/292
f 326/326/295 325/325/294 320/320/289
f 326/326/295 320/320/289 319/319/288
f 322/322/291 321/321/290 316/316/285
f 322/322/291 316/316/285 315/315/284
f 318/318/287 317/317/286 312/312/281
f 318/318/287 312/312/281 311/311/280
f 314/314/283 313/313/282 308/308/277
f 314/314/283 308/308/277 307/307/276
f 310/310/279 309/309/278 304/304/273
f 310/310/279 304/304/273 303/303/272
f 306/306/275 305/305/274 300/300/269
f 306/306/275 300/300/269 299/299/268
f 356/355/324 77/77/61 355/356/325
f 77/77/61 356/355/324 248/248/226
f 248/248/226 356/355/324 357/357/326
f 227/227/209 359/358/327 360/359/328
f 359/358/327 227/227/209 358/360/329
f 358/360/329 227/227/209 249/249/227
s 0
f 295/295/26 363/361/26 296/296/26
f 363/361/26 295/295/26 362/362/26
f 362/362/26 295/295/26 361/363/26
s 1
f 240/240/218 366/364/330 297/297/267
f 366/364/330 240/240/218 365/365/331
f 365/365/331 240/240/218 364/366/332
s 0
f 370/367/26 368/368/26 369/369/26
f 368/368/26 370/367/26 234/234/26
f 368/368/26 234/234/26 367/370/26
s 1
f 227/227/209 372/371/333 294/294/266
f 372/371/333 227/227/209 371/372/334
f 371/372/334 227/227/209 360/359/328
s 0
f 374/373/26 250/250/26 373/374/26
f 250/250/26 374/373/26 375/375/26
f 250/250/26 375/375/26 376/376/26
s 1
f 377/377/335 77/77/61 76/76/60
f 77/77/61 377/377/335 378/378/336
f 77/77/61 378/378/336 355/356/325
f 379/379/337 248/248/226 357/357/326
f 248/248/226 379/379/337 358/360/329
f 248/248/226 358/360/329 249/249/227
f 366/364/330 76/76/60 297/297/267
f 76/76/60 366/364/330 380/380/338
f 76/76/60 380/380/338 377/377/335
s 0
f 363/361/26 298/298/26 296/296/26
f 298/298/339 363/361/339 381/381/339
f 298/298/26 381/381/26 382/382/26
f 382/382/26 373/374/26 298/298/26
f 373/374/26 382/382/26 383/383/26
f 373/374/26 383/383/26 374/373/26
f 384/384/26 250/250/26 376/376/26
f 250/250/339 384/384/339 385/385/339
f 250/250/26 385/385/26 233/233/26
f 370/367/26 361/363/26 295/295/26
f 361/363/26 370/367/26 386/386/26
f 386/386/26 370/367/26 369/369/26
s 1
f 294/294/266 364/366/332 240/240/218
f 364/366/332 294/294/266 387/387/340
f 387/387/340 294/294/266 372/371/333
s 0
f 234/234/26 388/388/26 367/370/26
f 388/388/26 234/234/26 385/385/26
f 385/385/26 234/234/26 233/233/26
