# FND-05 pilot blockout - fnd05_pilot_underground_connector
# issue: #119
# classification: PUBLIC_PROJECT_CONTEXT
# unit: meters (1 unit = 1 m, scale 1:1)
# geometry_status: synthetic_design_not_surveyed
# confirmed_public_measure: underground_connector P04 length 99.6 x width 8.0
# estimated_synthetic_measure: height 3.2, floor -4.0, portal clear 3.2 x 2.7
# no original plan image is embedded; metadata and numbers only
o fnd05_pilot_underground_connector
v 80.000000 -4.000000 -4.000000
v 179.600000 -4.000000 -4.000000
v 179.600000 -4.000000 4.000000
v 80.000000 -4.000000 4.000000
v 80.000000 -0.800000 -4.000000
v 80.000000 -0.800000 4.000000
v 179.600000 -0.800000 4.000000
v 179.600000 -0.800000 -4.000000
v 80.000000 -4.000000 -4.000000
v 80.000000 -0.800000 -4.000000
v 179.600000 -0.800000 -4.000000
v 179.600000 -4.000000 -4.000000
v 80.000000 -4.000000 4.000000
v 128.200000 -4.000000 4.000000
v 128.200000 -0.800000 4.000000
v 80.000000 -0.800000 4.000000
v 131.400000 -4.000000 4.000000
v 179.600000 -4.000000 4.000000
v 179.600000 -0.800000 4.000000
v 131.400000 -0.800000 4.000000
v 128.200000 -1.300000 4.000000
v 131.400000 -1.300000 4.000000
v 131.400000 -0.800000 4.000000
v 128.200000 -0.800000 4.000000
v 80.000000 -4.000000 -4.000000
v 80.000000 -4.000000 -1.600000
v 80.000000 -0.800000 -1.600000
v 80.000000 -0.800000 -4.000000
v 80.000000 -4.000000 1.600000
v 80.000000 -4.000000 4.000000
v 80.000000 -0.800000 4.000000
v 80.000000 -0.800000 1.600000
v 80.000000 -1.300000 -1.600000
v 80.000000 -1.300000 1.600000
v 80.000000 -0.800000 1.600000
v 80.000000 -0.800000 -1.600000
v 179.600000 -4.000000 -4.000000
v 179.600000 -4.000000 -1.600000
v 179.600000 -0.800000 -1.600000
v 179.600000 -0.800000 -4.000000
v 179.600000 -4.000000 1.600000
v 179.600000 -4.000000 4.000000
v 179.600000 -0.800000 4.000000
v 179.600000 -0.800000 1.600000
v 179.600000 -1.300000 -1.600000
v 179.600000 -1.300000 1.600000
v 179.600000 -0.800000 1.600000
v 179.600000 -0.800000 -1.600000
v 80.000000 -4.000000 -1.600000
v 80.000000 -4.000000 1.600000
v 80.000000 -4.000000 1.600000
v 80.000000 -1.300000 1.600000
v 80.000000 -1.300000 1.600000
v 80.000000 -1.300000 -1.600000
v 80.000000 -1.300000 -1.600000
v 80.000000 -4.000000 -1.600000
v 179.600000 -4.000000 -1.600000
v 179.600000 -4.000000 1.600000
v 179.600000 -4.000000 1.600000
v 179.600000 -1.300000 1.600000
v 179.600000 -1.300000 1.600000
v 179.600000 -1.300000 -1.600000
v 179.600000 -1.300000 -1.600000
v 179.600000 -4.000000 -1.600000
v 128.200000 -4.000000 4.000000
v 131.400000 -4.000000 4.000000
v 131.400000 -4.000000 4.000000
v 131.400000 -1.300000 4.000000
v 131.400000 -1.300000 4.000000
v 128.200000 -1.300000 4.000000
v 128.200000 -1.300000 4.000000
v 128.200000 -4.000000 4.000000
v 80.000000 -4.000000 -0.100000
v 80.200000 -4.000000 -0.100000
v 80.200000 -3.800000 -0.100000
v 80.000000 -3.800000 -0.100000
v 80.000000 -4.000000 0.100000
v 80.200000 -4.000000 0.100000
v 80.200000 -3.800000 0.100000
v 80.000000 -3.800000 0.100000
v 80.000000 -4.000000 -0.100000
v 80.200000 -4.000000 -0.100000
v 80.200000 -4.000000 0.100000
v 80.000000 -4.000000 0.100000
v 80.200000 -3.800000 -0.100000
v 80.000000 -3.800000 -0.100000
v 80.000000 -3.800000 0.100000
v 80.200000 -3.800000 0.100000
v 80.200000 -4.000000 -0.100000
v 80.200000 -3.800000 -0.100000
v 80.200000 -3.800000 0.100000
v 80.200000 -4.000000 0.100000
v 80.000000 -4.000000 -0.100000
v 80.000000 -3.800000 -0.100000
v 80.000000 -3.800000 0.100000
v 80.000000 -4.000000 0.100000
v 179.400000 -4.000000 -0.100000
v 179.600000 -4.000000 -0.100000
v 179.600000 -3.800000 -0.100000
v 179.400000 -3.800000 -0.100000
v 179.400000 -4.000000 0.100000
v 179.600000 -4.000000 0.100000
v 179.600000 -3.800000 0.100000
v 179.400000 -3.800000 0.100000
v 179.400000 -4.000000 -0.100000
v 179.600000 -4.000000 -0.100000
v 179.600000 -4.000000 0.100000
v 179.400000 -4.000000 0.100000
v 179.600000 -3.800000 -0.100000
v 179.400000 -3.800000 -0.100000
v 179.400000 -3.800000 0.100000
v 179.600000 -3.800000 0.100000
v 179.600000 -4.000000 -0.100000
v 179.600000 -3.800000 -0.100000
v 179.600000 -3.800000 0.100000
v 179.600000 -4.000000 0.100000
v 179.400000 -4.000000 -0.100000
v 179.400000 -3.800000 -0.100000
v 179.400000 -3.800000 0.100000
v 179.400000 -4.000000 0.100000
v 129.700000 -4.000000 3.800000
v 129.900000 -4.000000 3.800000
v 129.900000 -3.800000 3.800000
v 129.700000 -3.800000 3.800000
v 129.700000 -4.000000 4.000000
v 129.900000 -4.000000 4.000000
v 129.900000 -3.800000 4.000000
v 129.700000 -3.800000 4.000000
v 129.700000 -4.000000 3.800000
v 129.900000 -4.000000 3.800000
v 129.900000 -4.000000 4.000000
v 129.700000 -4.000000 4.000000
v 129.900000 -3.800000 3.800000
v 129.700000 -3.800000 3.800000
v 129.700000 -3.800000 4.000000
v 129.900000 -3.800000 4.000000
v 129.900000 -4.000000 3.800000
v 129.900000 -3.800000 3.800000
v 129.900000 -3.800000 4.000000
v 129.900000 -4.000000 4.000000
v 129.700000 -4.000000 3.800000
v 129.700000 -3.800000 3.800000
v 129.700000 -3.800000 4.000000
v 129.700000 -4.000000 4.000000
v 80.000000 -4.000000 0.000000
v 179.600000 -4.000000 0.000000
g shell
f 1 2 3 4
f 5 6 7 8
f 9 10 11 12
f 13 14 15 16
f 17 18 19 20
f 21 22 23 24
f 25 26 27 28
f 29 30 31 32
f 33 34 35 36
f 37 38 39 40
f 41 42 43 44
f 45 46 47 48
l 145 146
g portals
l 49 50
l 51 52
l 53 54
l 55 56
l 57 58
l 59 60
l 61 62
l 63 64
l 65 66
l 67 68
l 69 70
l 71 72
g anchors
f 73 74 75 76
f 77 78 79 80
f 81 82 83 84
f 85 86 87 88
f 89 90 91 92
f 93 94 95 96
f 97 98 99 100
f 101 102 103 104
f 105 106 107 108
f 109 110 111 112
f 113 114 115 116
f 117 118 119 120
f 121 122 123 124
f 125 126 127 128
f 129 130 131 132
f 133 134 135 136
f 137 138 139 140
f 141 142 143 144
