# Blender 5.2.2 LTS
# www.blender.org
mtllib BeamDetector.mtl
o BeamDetector
v -0.035000 -0.060000 0.000000
v 0.035000 -0.060000 0.000000
v 0.035000 0.060000 0.000000
v -0.035000 0.060000 0.000000
v -0.035000 -0.060000 0.003500
v 0.035000 -0.060000 0.003500
v 0.035000 0.060000 0.003500
v -0.035000 0.060000 0.003500
v 0.002600 -0.054500 0.003550
v 0.001838 -0.052662 0.003550
v 0.000000 -0.051900 0.003550
v -0.001838 -0.052662 0.003550
v -0.002600 -0.054500 0.003550
v -0.001838 -0.056338 0.003550
v -0.000000 -0.057100 0.003550
v 0.001838 -0.056338 0.003550
v 0.002600 0.054500 0.003550
v 0.001838 0.056338 0.003550
v 0.000000 0.057100 0.003550
v -0.001838 0.056338 0.003550
v -0.002600 0.054500 0.003550
v -0.001838 0.052662 0.003550
v -0.000000 0.051900 0.003550
v 0.001838 0.052662 0.003550
v 0.012000 0.000000 0.003500
v 0.011087 0.004592 0.003500
v 0.008485 0.008485 0.003500
v 0.004592 0.011087 0.003500
v 0.000000 0.012000 0.003500
v -0.004592 0.011087 0.003500
v -0.008485 0.008485 0.003500
v -0.011087 0.004592 0.003500
v -0.012000 0.000000 0.003500
v -0.011087 -0.004592 0.003500
v -0.008485 -0.008485 0.003500
v -0.004592 -0.011087 0.003500
v -0.000000 -0.012000 0.003500
v 0.004592 -0.011087 0.003500
v 0.008485 -0.008485 0.003500
v 0.011087 -0.004592 0.003500
v 0.012000 0.000000 0.010000
v 0.011087 0.004592 0.010000
v 0.008485 0.008485 0.010000
v 0.004592 0.011087 0.010000
v 0.000000 0.012000 0.010000
v -0.004592 0.011087 0.010000
v -0.008485 0.008485 0.010000
v -0.011087 0.004592 0.010000
v -0.012000 0.000000 0.010000
v -0.011087 -0.004592 0.010000
v -0.008485 -0.008485 0.010000
v -0.004592 -0.011087 0.010000
v -0.000000 -0.012000 0.010000
v 0.004592 -0.011087 0.010000
v 0.008485 -0.008485 0.010000
v 0.011087 -0.004592 0.010000
v 0.000000 0.000000 0.010000
v 0.016500 0.000000 0.007000
v 0.016500 0.002600 0.007000
v 0.016500 0.001300 0.009252
v 0.016500 -0.001300 0.009252
v 0.016500 -0.002600 0.007000
v 0.016500 -0.001300 0.004748
v 0.016500 0.001300 0.004748
v 0.011000 0.002600 0.007000
v 0.011000 0.001300 0.009252
v 0.011000 -0.001300 0.009252
v 0.011000 -0.002600 0.007000
v 0.011000 -0.001300 0.004748
v 0.011000 0.001300 0.004748
v -0.016500 0.000000 0.007000
v -0.016500 0.002600 0.007000
v -0.016500 0.001300 0.009252
v -0.016500 -0.001300 0.009252
v -0.016500 -0.002600 0.007000
v -0.016500 -0.001300 0.004748
v -0.016500 0.001300 0.004748
v -0.011000 0.002600 0.007000
v -0.011000 0.001300 0.009252
v -0.011000 -0.001300 0.009252
v -0.011000 -0.002600 0.007000
v -0.011000 -0.001300 0.004748
v -0.011000 0.001300 0.004748
v 0.000000 0.000000 0.028000
v 0.000000 0.011000 0.017000
v 0.000000 0.000000 0.006000
v 0.002105 0.003646 0.027163
v 0.003889 0.006736 0.024778
v 0.005081 0.008801 0.021210
v 0.005500 0.009526 0.017000
v 0.005081 0.008801 0.012790
v 0.003889 0.006736 0.009222
v 0.002105 0.003646 0.006837
v 0.003646 0.002105 0.027163
v 0.006736 0.003889 0.024778
v 0.008801 0.005081 0.021210
v 0.009526 0.005500 0.017000
v 0.008801 0.005081 0.012790
v 0.006736 0.003889 0.009222
v 0.003646 0.002105 0.006837
v 0.004210 -0.000000 0.027163
v 0.007778 -0.000000 0.024778
v 0.010163 0.000000 0.021210
v 0.011000 0.000000 0.017000
v 0.010163 0.000000 0.012790
v 0.007778 -0.000000 0.009222
v 0.004210 -0.000000 0.006837
v 0.003646 -0.002105 0.027163
v 0.006736 -0.003889 0.024778
v 0.008801 -0.005081 0.021210
v 0.009526 -0.005500 0.017000
v 0.008801 -0.005081 0.012790
v 0.006736 -0.003889 0.009222
v 0.003646 -0.002105 0.006837
v 0.002105 -0.003646 0.027163
v 0.003889 -0.006736 0.024778
v 0.005081 -0.008801 0.021210
v 0.005500 -0.009526 0.017000
v 0.005081 -0.008801 0.012790
v 0.003889 -0.006736 0.009222
v 0.002105 -0.003646 0.006837
v -0.000000 -0.004210 0.027163
v -0.000000 -0.007778 0.024778
v 0.000000 -0.010163 0.021210
v 0.000000 -0.011000 0.017000
v 0.000000 -0.010163 0.012790
v -0.000000 -0.007778 0.009222
v -0.000000 -0.004210 0.006837
v -0.002105 -0.003646 0.027163
v -0.003889 -0.006736 0.024778
v -0.005081 -0.008801 0.021210
v -0.005500 -0.009526 0.017000
v -0.005081 -0.008801 0.012790
v -0.003889 -0.006736 0.009222
v -0.002105 -0.003646 0.006837
v -0.003646 -0.002105 0.027163
v -0.006736 -0.003889 0.024778
v -0.008801 -0.005081 0.021210
v -0.009526 -0.005500 0.017000
v -0.008801 -0.005081 0.012790
v -0.006736 -0.003889 0.009222
v -0.003646 -0.002105 0.006837
v -0.004210 0.000000 0.027163
v -0.007778 0.000000 0.024778
v -0.010163 0.000000 0.021210
v -0.011000 0.000000 0.017000
v -0.010163 0.000000 0.012790
v -0.007778 0.000000 0.009222
v -0.004210 0.000000 0.006837
v -0.003646 0.002105 0.027163
v -0.006736 0.003889 0.024778
v -0.008801 0.005081 0.021210
v -0.009526 0.005500 0.017000
v -0.008801 0.005081 0.012790
v -0.006736 0.003889 0.009222
v -0.003646 0.002105 0.006837
v -0.002105 0.003646 0.027163
v -0.003889 0.006736 0.024778
v -0.005081 0.008801 0.021210
v -0.005500 0.009526 0.017000
v -0.005081 0.008801 0.012790
v -0.003889 0.006736 0.009222
v -0.002105 0.003646 0.006837
v 0.000000 0.004210 0.027163
v 0.000000 0.007778 0.024778
v 0.000000 0.010163 0.021210
v 0.000000 0.010163 0.012790
v 0.000000 0.007778 0.009222
v 0.000000 0.004210 0.006837
v -0.056000 -0.041000 0.022000
v -0.056000 -0.050000 0.031000
v -0.065000 -0.041000 0.031000
v -0.056000 -0.044444 0.022685
v -0.056000 -0.047364 0.024636
v -0.059444 -0.041000 0.022685
v -0.059530 -0.044530 0.023512
v -0.059351 -0.046906 0.025094
v -0.061196 -0.046196 0.025804
v -0.059444 -0.049315 0.031000
v -0.062364 -0.047364 0.031000
v -0.056000 -0.049315 0.027556
v -0.059530 -0.048488 0.027470
v -0.061906 -0.046906 0.027649
v -0.064315 -0.041000 0.027556
v -0.062364 -0.041000 0.024636
v -0.064315 -0.044444 0.031000
v -0.063488 -0.044530 0.027470
v -0.061906 -0.044351 0.025094
v -0.056000 -0.050000 0.088000
v -0.056000 -0.041000 0.097000
v -0.065000 -0.041000 0.088000
v -0.056000 -0.049315 0.091444
v -0.056000 -0.047364 0.094364
v -0.059444 -0.049315 0.088000
v -0.059530 -0.048488 0.091530
v -0.059351 -0.046906 0.093906
v -0.061196 -0.046196 0.093196
v -0.059444 -0.041000 0.096315
v -0.062364 -0.041000 0.094364
v -0.056000 -0.044444 0.096315
v -0.059530 -0.044530 0.095488
v -0.061906 -0.044351 0.093906
v -0.064315 -0.044444 0.088000
v -0.062364 -0.047364 0.088000
v -0.064315 -0.041000 0.091444
v -0.063488 -0.044530 0.091530
v -0.061906 -0.046906 0.091351
v -0.056000 0.041000 0.022000
v -0.065000 0.041000 0.031000
v -0.056000 0.050000 0.031000
v -0.059444 0.041000 0.022685
v -0.062364 0.041000 0.024636
v -0.056000 0.044444 0.022685
v -0.059530 0.044530 0.023512
v -0.061906 0.044351 0.025094
v -0.061196 0.046196 0.025804
v -0.064315 0.044444 0.031000
v -0.062364 0.047364 0.031000
v -0.064315 0.041000 0.027556
v -0.063488 0.044530 0.027470
v -0.061906 0.046906 0.027649
v -0.056000 0.049315 0.027556
v -0.056000 0.047364 0.024636
v -0.059444 0.049315 0.031000
v -0.059530 0.048488 0.027470
v -0.059351 0.046906 0.025094
v -0.056000 0.041000 0.097000
v -0.056000 0.050000 0.088000
v -0.065000 0.041000 0.088000
v -0.056000 0.044444 0.096315
v -0.056000 0.047364 0.094364
v -0.059444 0.041000 0.096315
v -0.059530 0.044530 0.095488
v -0.059351 0.046906 0.093906
v -0.061196 0.046196 0.093196
v -0.059444 0.049315 0.088000
v -0.062364 0.047364 0.088000
v -0.056000 0.049315 0.091444
v -0.059530 0.048488 0.091530
v -0.061906 0.046906 0.091351
v -0.064315 0.041000 0.091444
v -0.062364 0.041000 0.094364
v -0.064315 0.044444 0.088000
v -0.063488 0.044530 0.091530
v -0.061906 0.044351 0.093906
v 0.056000 -0.041000 0.022000
v 0.065000 -0.041000 0.031000
v 0.056000 -0.050000 0.031000
v 0.059444 -0.041000 0.022685
v 0.062364 -0.041000 0.024636
v 0.056000 -0.044444 0.022685
v 0.059530 -0.044530 0.023512
v 0.061906 -0.044351 0.025094
v 0.061196 -0.046196 0.025804
v 0.064315 -0.044444 0.031000
v 0.062364 -0.047364 0.031000
v 0.064315 -0.041000 0.027556
v 0.063488 -0.044530 0.027470
v 0.061906 -0.046906 0.027649
v 0.056000 -0.049315 0.027556
v 0.056000 -0.047364 0.024636
v 0.059444 -0.049315 0.031000
v 0.059530 -0.048488 0.027470
v 0.059351 -0.046906 0.025094
v 0.056000 -0.041000 0.097000
v 0.056000 -0.050000 0.088000
v 0.065000 -0.041000 0.088000
v 0.056000 -0.044444 0.096315
v 0.056000 -0.047364 0.094364
v 0.059444 -0.041000 0.096315
v 0.059530 -0.044530 0.095488
v 0.059351 -0.046906 0.093906
v 0.061196 -0.046196 0.093196
v 0.059444 -0.049315 0.088000
v 0.062364 -0.047364 0.088000
v 0.056000 -0.049315 0.091444
v 0.059530 -0.048488 0.091530
v 0.061906 -0.046906 0.091351
v 0.064315 -0.041000 0.091444
v 0.062364 -0.041000 0.094364
v 0.064315 -0.044444 0.088000
v 0.063488 -0.044530 0.091530
v 0.061906 -0.044351 0.093906
v 0.056000 0.041000 0.022000
v 0.056000 0.050000 0.031000
v 0.065000 0.041000 0.031000
v 0.056000 0.044444 0.022685
v 0.056000 0.047364 0.024636
v 0.059444 0.041000 0.022685
v 0.059530 0.044530 0.023512
v 0.059351 0.046906 0.025094
v 0.061196 0.046196 0.025804
v 0.059444 0.049315 0.031000
v 0.062364 0.047364 0.031000
v 0.056000 0.049315 0.027556
v 0.059530 0.048488 0.027470
v 0.061906 0.046906 0.027649
v 0.064315 0.041000 0.027556
v 0.062364 0.041000 0.024636
v 0.064315 0.044444 0.031000
v 0.063488 0.044530 0.027470
v 0.061906 0.044351 0.025094
v 0.056000 0.041000 0.097000
v 0.065000 0.041000 0.088000
v 0.056000 0.050000 0.088000
v 0.059444 0.041000 0.096315
v 0.062364 0.041000 0.094364
v 0.056000 0.044444 0.096315
v 0.059530 0.044530 0.095488
v 0.061906 0.044351 0.093906
v 0.061196 0.046196 0.093196
v 0.064315 0.044444 0.088000
v 0.062364 0.047364 0.088000
v 0.064315 0.041000 0.091444
v 0.063488 0.044530 0.091530
v 0.061906 0.046906 0.091351
v 0.056000 0.049315 0.091444
v 0.056000 0.047364 0.094364
v 0.059444 0.049315 0.088000
v 0.059530 0.048488 0.091530
v 0.059351 0.046906 0.093906
v 0.027500 0.000000 0.096000
v 0.027161 0.004302 0.096000
v 0.026154 0.008498 0.096000
v 0.024503 0.012485 0.096000
v 0.022248 0.016164 0.096000
v 0.019445 0.019445 0.096000
v 0.016164 0.022248 0.096000
v 0.012485 0.024503 0.096000
v 0.008498 0.026154 0.096000
v 0.004302 0.027161 0.096000
v 0.000000 0.027500 0.096000
v -0.004302 0.027161 0.096000
v -0.008498 0.026154 0.096000
v -0.012485 0.024503 0.096000
v -0.016164 0.022248 0.096000
v -0.019445 0.019445 0.096000
v -0.022248 0.016164 0.096000
v -0.024503 0.012485 0.096000
v -0.026154 0.008498 0.096000
v -0.027161 0.004302 0.096000
v -0.027500 0.000000 0.096000
v -0.027161 -0.004302 0.096000
v -0.026154 -0.008498 0.096000
v -0.024503 -0.012485 0.096000
v -0.022248 -0.016164 0.096000
v -0.019445 -0.019445 0.096000
v -0.016164 -0.022248 0.096000
v -0.012485 -0.024503 0.096000
v -0.008498 -0.026154 0.096000
v -0.004302 -0.027161 0.096000
v -0.000000 -0.027500 0.096000
v 0.004302 -0.027161 0.096000
v 0.008498 -0.026154 0.096000
v 0.012485 -0.024503 0.096000
v 0.016164 -0.022248 0.096000
v 0.019445 -0.019445 0.096000
v 0.022248 -0.016164 0.096000
v 0.024503 -0.012485 0.096000
v 0.026154 -0.008498 0.096000
v 0.027161 -0.004302 0.096000
v 0.032000 0.000000 0.096000
v 0.031606 0.005006 0.096000
v 0.030434 0.009889 0.096000
v 0.028512 0.014528 0.096000
v 0.025889 0.018809 0.096000
v 0.022627 0.022627 0.096000
v 0.018809 0.025889 0.096000
v 0.014528 0.028512 0.096000
v 0.009889 0.030434 0.096000
v 0.005006 0.031606 0.096000
v 0.000000 0.032000 0.096000
v -0.005006 0.031606 0.096000
v -0.009889 0.030434 0.096000
v -0.014528 0.028512 0.096000
v -0.018809 0.025889 0.096000
v -0.022627 0.022627 0.096000
v -0.025889 0.018809 0.096000
v -0.028512 0.014528 0.096000
v -0.030434 0.009889 0.096000
v -0.031606 0.005006 0.096000
v -0.032000 0.000000 0.096000
v -0.031606 -0.005006 0.096000
v -0.030434 -0.009889 0.096000
v -0.028512 -0.014528 0.096000
v -0.025889 -0.018809 0.096000
v -0.022627 -0.022627 0.096000
v -0.018809 -0.025889 0.096000
v -0.014528 -0.028512 0.096000
v -0.009889 -0.030434 0.096000
v -0.005006 -0.031606 0.096000
v -0.000000 -0.032000 0.096000
v 0.005006 -0.031606 0.096000
v 0.009889 -0.030434 0.096000
v 0.014528 -0.028512 0.096000
v 0.018809 -0.025889 0.096000
v 0.022627 -0.022627 0.096000
v 0.025889 -0.018809 0.096000
v 0.028512 -0.014528 0.096000
v 0.030434 -0.009889 0.096000
v 0.031606 -0.005006 0.096000
v 0.032000 0.000000 0.102000
v 0.031606 0.005006 0.102000
v 0.030434 0.009889 0.102000
v 0.028512 0.014528 0.102000
v 0.025889 0.018809 0.102000
v 0.022627 0.022627 0.102000
v 0.018809 0.025889 0.102000
v 0.014528 0.028512 0.102000
v 0.009889 0.030434 0.102000
v 0.005006 0.031606 0.102000
v 0.000000 0.032000 0.102000
v -0.005006 0.031606 0.102000
v -0.009889 0.030434 0.102000
v -0.014528 0.028512 0.102000
v -0.018809 0.025889 0.102000
v -0.022627 0.022627 0.102000
v -0.025889 0.018809 0.102000
v -0.028512 0.014528 0.102000
v -0.030434 0.009889 0.102000
v -0.031606 0.005006 0.102000
v -0.032000 0.000000 0.102000
v -0.031606 -0.005006 0.102000
v -0.030434 -0.009889 0.102000
v -0.028512 -0.014528 0.102000
v -0.025889 -0.018809 0.102000
v -0.022627 -0.022627 0.102000
v -0.018809 -0.025889 0.102000
v -0.014528 -0.028512 0.102000
v -0.009889 -0.030434 0.102000
v -0.005006 -0.031606 0.102000
v -0.000000 -0.032000 0.102000
v 0.005006 -0.031606 0.102000
v 0.009889 -0.030434 0.102000
v 0.014528 -0.028512 0.102000
v 0.018809 -0.025889 0.102000
v 0.022627 -0.022627 0.102000
v 0.025889 -0.018809 0.102000
v 0.028512 -0.014528 0.102000
v 0.030434 -0.009889 0.102000
v 0.031606 -0.005006 0.102000
v 0.027500 0.000000 0.102000
v 0.027161 0.004302 0.102000
v 0.026154 0.008498 0.102000
v 0.024503 0.012485 0.102000
v 0.022248 0.016164 0.102000
v 0.019445 0.019445 0.102000
v 0.016164 0.022248 0.102000
v 0.012485 0.024503 0.102000
v 0.008498 0.026154 0.102000
v 0.004302 0.027161 0.102000
v 0.000000 0.027500 0.102000
v -0.004302 0.027161 0.102000
v -0.008498 0.026154 0.102000
v -0.012485 0.024503 0.102000
v -0.016164 0.022248 0.102000
v -0.019445 0.019445 0.102000
v -0.022248 0.016164 0.102000
v -0.024503 0.012485 0.102000
v -0.026154 0.008498 0.102000
v -0.027161 0.004302 0.102000
v -0.027500 0.000000 0.102000
v -0.027161 -0.004302 0.102000
v -0.026154 -0.008498 0.102000
v -0.024503 -0.012485 0.102000
v -0.022248 -0.016164 0.102000
v -0.019445 -0.019445 0.102000
v -0.016164 -0.022248 0.102000
v -0.012485 -0.024503 0.102000
v -0.008498 -0.026154 0.102000
v -0.004302 -0.027161 0.102000
v -0.000000 -0.027500 0.102000
v 0.004302 -0.027161 0.102000
v 0.008498 -0.026154 0.102000
v 0.012485 -0.024503 0.102000
v 0.016164 -0.022248 0.102000
v 0.019445 -0.019445 0.102000
v 0.022248 -0.016164 0.102000
v 0.024503 -0.012485 0.102000
v 0.026154 -0.008498 0.102000
v 0.027161 -0.004302 0.102000
v 0.000000 0.000000 0.100500
v 0.014000 0.000000 0.100100
v 0.013828 0.002190 0.100100
v 0.013315 0.004326 0.100100
v 0.012474 0.006356 0.100100
v 0.011326 0.008229 0.100100
v 0.009899 0.009899 0.100100
v 0.008229 0.011326 0.100100
v 0.006356 0.012474 0.100100
v 0.004326 0.013315 0.100100
v 0.002190 0.013828 0.100100
v 0.000000 0.014000 0.100100
v -0.002190 0.013828 0.100100
v -0.004326 0.013315 0.100100
v -0.006356 0.012474 0.100100
v -0.008229 0.011326 0.100100
v -0.009899 0.009899 0.100100
v -0.011326 0.008229 0.100100
v -0.012474 0.006356 0.100100
v -0.013315 0.004326 0.100100
v -0.013828 0.002190 0.100100
v -0.014000 0.000000 0.100100
v -0.013828 -0.002190 0.100100
v -0.013315 -0.004326 0.100100
v -0.012474 -0.006356 0.100100
v -0.011326 -0.008229 0.100100
v -0.009899 -0.009899 0.100100
v -0.008229 -0.011326 0.100100
v -0.006356 -0.012474 0.100100
v -0.004326 -0.013315 0.100100
v -0.002190 -0.013828 0.100100
v -0.000000 -0.014000 0.100100
v 0.002190 -0.013828 0.100100
v 0.004326 -0.013315 0.100100
v 0.006356 -0.012474 0.100100
v 0.008229 -0.011326 0.100100
v 0.009899 -0.009899 0.100100
v 0.011326 -0.008229 0.100100
v 0.012474 -0.006356 0.100100
v 0.013315 -0.004326 0.100100
v 0.013828 -0.002190 0.100100
v 0.023000 0.000000 0.099600
v 0.022717 0.003598 0.099600
v 0.021874 0.007107 0.099600
v 0.020493 0.010442 0.099600
v 0.018607 0.013519 0.099600
v 0.016263 0.016263 0.099600
v 0.013519 0.018607 0.099600
v 0.010442 0.020493 0.099600
v 0.007107 0.021874 0.099600
v 0.003598 0.022717 0.099600
v 0.000000 0.023000 0.099600
v -0.003598 0.022717 0.099600
v -0.007107 0.021874 0.099600
v -0.010442 0.020493 0.099600
v -0.013519 0.018607 0.099600
v -0.016263 0.016263 0.099600
v -0.018607 0.013519 0.099600
v -0.020493 0.010442 0.099600
v -0.021874 0.007107 0.099600
v -0.022717 0.003598 0.099600
v -0.023000 0.000000 0.099600
v -0.022717 -0.003598 0.099600
v -0.021874 -0.007107 0.099600
v -0.020493 -0.010442 0.099600
v -0.018607 -0.013519 0.099600
v -0.016263 -0.016263 0.099600
v -0.013519 -0.018607 0.099600
v -0.010442 -0.020493 0.099600
v -0.007107 -0.021874 0.099600
v -0.003598 -0.022717 0.099600
v -0.000000 -0.023000 0.099600
v 0.003598 -0.022717 0.099600
v 0.007107 -0.021874 0.099600
v 0.010442 -0.020493 0.099600
v 0.013519 -0.018607 0.099600
v 0.016263 -0.016263 0.099600
v 0.018607 -0.013519 0.099600
v 0.020493 -0.010442 0.099600
v 0.021874 -0.007107 0.099600
v 0.022717 -0.003598 0.099600
v 0.027500 0.000000 0.099000
v 0.027161 0.004302 0.099000
v 0.026154 0.008498 0.099000
v 0.024503 0.012485 0.099000
v 0.022248 0.016164 0.099000
v 0.019445 0.019445 0.099000
v 0.016164 0.022248 0.099000
v 0.012485 0.024503 0.099000
v 0.008498 0.026154 0.099000
v 0.004302 0.027161 0.099000
v 0.000000 0.027500 0.099000
v -0.004302 0.027161 0.099000
v -0.008498 0.026154 0.099000
v -0.012485 0.024503 0.099000
v -0.016164 0.022248 0.099000
v -0.019445 0.019445 0.099000
v -0.022248 0.016164 0.099000
v -0.024503 0.012485 0.099000
v -0.026154 0.008498 0.099000
v -0.027161 0.004302 0.099000
v -0.027500 0.000000 0.099000
v -0.027161 -0.004302 0.099000
v -0.026154 -0.008498 0.099000
v -0.024503 -0.012485 0.099000
v -0.022248 -0.016164 0.099000
v -0.019445 -0.019445 0.099000
v -0.016164 -0.022248 0.099000
v -0.012485 -0.024503 0.099000
v -0.008498 -0.026154 0.099000
v -0.004302 -0.027161 0.099000
v -0.000000 -0.027500 0.099000
v 0.004302 -0.027161 0.099000
v 0.008498 -0.026154 0.099000
v 0.012485 -0.024503 0.099000
v 0.016164 -0.022248 0.099000
v 0.019445 -0.019445 0.099000
v 0.022248 -0.016164 0.099000
v 0.024503 -0.012485 0.099000
v 0.026154 -0.008498 0.099000
v 0.027161 -0.004302 0.099000
v 0.027500 0.000000 0.096500
v 0.027161 0.004302 0.096500
v 0.026154 0.008498 0.096500
v 0.024503 0.012485 0.096500
v 0.022248 0.016164 0.096500
v 0.019445 0.019445 0.096500
v 0.016164 0.022248 0.096500
v 0.012485 0.024503 0.096500
v 0.008498 0.026154 0.096500
v 0.004302 0.027161 0.096500
v 0.000000 0.027500 0.096500
v -0.004302 0.027161 0.096500
v -0.008498 0.026154 0.096500
v -0.012485 0.024503 0.096500
v -0.016164 0.022248 0.096500
v -0.019445 0.019445 0.096500
v -0.022248 0.016164 0.096500
v -0.024503 0.012485 0.096500
v -0.026154 0.008498 0.096500
v -0.027161 0.004302 0.096500
v -0.027500 0.000000 0.096500
v -0.027161 -0.004302 0.096500
v -0.026154 -0.008498 0.096500
v -0.024503 -0.012485 0.096500
v -0.022248 -0.016164 0.096500
v -0.019445 -0.019445 0.096500
v -0.016164 -0.022248 0.096500
v -0.012485 -0.024503 0.096500
v -0.008498 -0.026154 0.096500
v -0.004302 -0.027161 0.096500
v -0.000000 -0.027500 0.096500
v 0.004302 -0.027161 0.096500
v 0.008498 -0.026154 0.096500
v 0.012485 -0.024503 0.096500
v 0.016164 -0.022248 0.096500
v 0.019445 -0.019445 0.096500
v 0.022248 -0.016164 0.096500
v 0.024503 -0.012485 0.096500
v 0.026154 -0.008498 0.096500
v 0.027161 -0.004302 0.096500
v 0.040500 0.007500 0.096600
v 0.049500 0.007500 0.096600
v 0.049500 0.012500 0.096600
v 0.040500 0.012500 0.096600
v 0.040500 0.007500 0.097800
v 0.049500 0.007500 0.097800
v 0.049500 0.012500 0.097800
v 0.040500 0.012500 0.097800
v 0.040000 -0.006800 0.096600
v 0.050000 -0.006800 0.096600
v 0.050000 -0.005200 0.096600
v 0.040000 -0.005200 0.096600
v 0.040000 -0.006800 0.097300
v 0.050000 -0.006800 0.097300
v 0.050000 -0.005200 0.097300
v 0.040000 -0.005200 0.097300
vn -0.0000 -0.0000 -1.0000
vn -0.0000 -0.0000 1.0000
vn -0.0000 -1.0000 -0.0000
vn -0.0000 1.0000 -0.0000
vn 1.0000 -0.0000 -0.0000
vn -1.0000 -0.0000 -0.0000
vn 0.9239 0.3827 -0.0000
vn 0.7071 0.7071 -0.0000
vn 0.3827 0.9239 -0.0000
vn -0.3827 0.9239 -0.0000
vn -0.7071 0.7071 -0.0000
vn -0.9239 0.3827 -0.0000
vn -0.9239 -0.3827 -0.0000
vn -0.7071 -0.7071 -0.0000
vn -0.3827 -0.9239 -0.0000
vn 0.3827 -0.9239 -0.0000
vn 0.7071 -0.7071 -0.0000
vn 0.9239 -0.3827 -0.0000
vn -0.0000 0.8660 0.5000
vn -0.0000 -0.8660 0.5000
vn -0.0000 -0.8660 -0.5000
vn -0.0000 0.8660 -0.5000
vn -0.0000 0.4097 -0.9122
vn 0.2049 0.3548 -0.9122
vn -0.0000 0.7226 -0.6913
vn 0.4642 0.8040 -0.3718
vn 0.3613 0.6258 -0.6913
vn -0.0000 0.9283 0.3718
vn 0.5000 0.8660 -0.0000
vn -0.0000 0.7226 0.6913
vn 0.2049 0.3548 0.9122
vn 0.3613 0.6258 0.6913
vn -0.0000 0.9283 -0.3718
vn 0.4642 0.8040 0.3718
vn -0.0000 0.4097 0.9122
vn 0.6258 0.3613 0.6913
vn 0.3548 0.2049 -0.9122
vn 0.8040 0.4642 -0.3718
vn 0.8040 0.4642 0.3718
vn 0.3548 0.2048 0.9122
vn 0.6258 0.3613 -0.6913
vn 0.8660 0.5000 -0.0000
vn 0.4097 -0.0000 -0.9122
vn 0.9283 -0.0000 -0.3718
vn 0.9283 -0.0000 0.3718
vn 0.4097 -0.0000 0.9122
vn 0.7226 -0.0000 -0.6913
vn 0.7226 -0.0000 0.6913
vn 0.3548 -0.2049 0.9122
vn 0.3548 -0.2049 -0.9122
vn 0.6258 -0.3613 -0.6913
vn 0.8040 -0.4642 0.3718
vn 0.8660 -0.5000 -0.0000
vn 0.6258 -0.3613 0.6913
vn 0.8040 -0.4642 -0.3718
vn 0.4642 -0.8040 -0.3718
vn 0.3613 -0.6258 -0.6913
vn 0.4642 -0.8040 0.3718
vn 0.5000 -0.8660 -0.0000
vn 0.3613 -0.6258 0.6913
vn 0.2049 -0.3548 -0.9122
vn 0.2049 -0.3548 0.9122
vn -0.0000 -0.4097 -0.9122
vn -0.0000 -0.9283 -0.3718
vn -0.0000 -0.9283 0.3718
vn -0.0000 -0.4097 0.9122
vn -0.0000 -0.7226 -0.6913
vn -0.0000 -0.7226 0.6913
vn -0.4642 -0.8040 -0.3718
vn -0.4642 -0.8040 0.3718
vn -0.2049 -0.3548 0.9122
vn -0.2049 -0.3548 -0.9122
vn -0.3613 -0.6258 -0.6913
vn -0.5000 -0.8660 -0.0000
vn -0.3613 -0.6258 0.6913
vn -0.3548 -0.2049 -0.9122
vn -0.8040 -0.4642 -0.3718
vn -0.6258 -0.3613 -0.6913
vn -0.8660 -0.5000 -0.0000
vn -0.3548 -0.2049 0.9122
vn -0.6258 -0.3613 0.6913
vn -0.8040 -0.4642 0.3718
vn -0.7226 -0.0000 0.6913
vn -0.4097 -0.0000 -0.9122
vn -0.9283 -0.0000 -0.3718
vn -0.9283 -0.0000 0.3718
vn -0.4097 -0.0000 0.9122
vn -0.7226 -0.0000 -0.6913
vn -0.3548 0.2049 -0.9122
vn -0.8040 0.4642 -0.3718
vn -0.8040 0.4642 0.3718
vn -0.3548 0.2049 0.9122
vn -0.6258 0.3613 -0.6913
vn -0.8660 0.5000 -0.0000
vn -0.6258 0.3613 0.6913
vn -0.4642 0.8040 0.3718
vn -0.2049 0.3548 0.9122
vn -0.2049 0.3548 -0.9122
vn -0.4642 0.8040 -0.3718
vn -0.3613 0.6258 -0.6913
vn -0.5000 0.8660 -0.0000
vn -0.3613 0.6258 0.6913
vn -0.0972 -0.3783 -0.9206
vn -0.3783 -0.0972 -0.9206
vn -0.0970 -0.0970 -0.9905
vn -0.0919 -0.7041 -0.7041
vn -0.3703 -0.3703 -0.8519
vn -0.7041 -0.0919 -0.7041
vn -0.5774 -0.5773 -0.5774
vn -0.6683 -0.3266 -0.6683
vn -0.3783 -0.9206 -0.0972
vn -0.0972 -0.9206 -0.3783
vn -0.0970 -0.9905 -0.0970
vn -0.7041 -0.7041 -0.0919
vn -0.3703 -0.8519 -0.3703
vn -0.3266 -0.6683 -0.6683
vn -0.9206 -0.0972 -0.3783
vn -0.9206 -0.3783 -0.0972
vn -0.9905 -0.0970 -0.0970
vn -0.8519 -0.3703 -0.3703
vn -0.6683 -0.6683 -0.3266
vn -0.0972 -0.9206 0.3783
vn -0.3783 -0.9206 0.0972
vn -0.0970 -0.9905 0.0970
vn -0.0919 -0.7041 0.7041
vn -0.3703 -0.8519 0.3703
vn -0.7041 -0.7041 0.0919
vn -0.5774 -0.5773 0.5774
vn -0.6683 -0.6683 0.3266
vn -0.3783 -0.0972 0.9206
vn -0.0972 -0.3783 0.9206
vn -0.0970 -0.0970 0.9905
vn -0.7041 -0.0919 0.7041
vn -0.3703 -0.3703 0.8519
vn -0.3266 -0.6683 0.6683
vn -0.9206 -0.3783 0.0972
vn -0.9206 -0.0972 0.3783
vn -0.9905 -0.0970 0.0970
vn -0.8519 -0.3703 0.3703
vn -0.6683 -0.3266 0.6683
vn -0.3783 0.0972 -0.9206
vn -0.0972 0.3783 -0.9206
vn -0.0970 0.0970 -0.9905
vn -0.7041 0.0919 -0.7041
vn -0.3703 0.3703 -0.8519
vn -0.0919 0.7041 -0.7041
vn -0.5774 0.5773 -0.5774
vn -0.3266 0.6683 -0.6683
vn -0.9206 0.3783 -0.0972
vn -0.9206 0.0972 -0.3783
vn -0.9905 0.0970 -0.0970
vn -0.7041 0.7041 -0.0919
vn -0.8519 0.3703 -0.3703
vn -0.6683 0.3266 -0.6683
vn -0.0972 0.9206 -0.3783
vn -0.3783 0.9206 -0.0972
vn -0.0970 0.9905 -0.0970
vn -0.3703 0.8519 -0.3703
vn -0.6683 0.6683 -0.3266
vn -0.0972 0.3783 0.9206
vn -0.3783 0.0972 0.9206
vn -0.0970 0.0970 0.9905
vn -0.0919 0.7041 0.7041
vn -0.3703 0.3703 0.8519
vn -0.7041 0.0919 0.7041
vn -0.5774 0.5773 0.5774
vn -0.6683 0.3266 0.6683
vn -0.3783 0.9206 0.0972
vn -0.0972 0.9206 0.3783
vn -0.0970 0.9905 0.0970
vn -0.7041 0.7041 0.0919
vn -0.3703 0.8519 0.3703
vn -0.3266 0.6683 0.6683
vn -0.9206 0.0972 0.3783
vn -0.9206 0.3783 0.0972
vn -0.9905 0.0970 0.0970
vn -0.8519 0.3703 0.3703
vn -0.6683 0.6683 0.3266
vn 0.3783 -0.0972 -0.9206
vn 0.0972 -0.3783 -0.9206
vn 0.0970 -0.0970 -0.9905
vn 0.7041 -0.0919 -0.7041
vn 0.3703 -0.3703 -0.8519
vn 0.0919 -0.7041 -0.7041
vn 0.5774 -0.5773 -0.5774
vn 0.3266 -0.6683 -0.6683
vn 0.9206 -0.3783 -0.0972
vn 0.9206 -0.0972 -0.3783
vn 0.9905 -0.0970 -0.0970
vn 0.7041 -0.7041 -0.0919
vn 0.8519 -0.3703 -0.3703
vn 0.6683 -0.3266 -0.6683
vn 0.0972 -0.9206 -0.3783
vn 0.3783 -0.9206 -0.0972
vn 0.0970 -0.9905 -0.0970
vn 0.3703 -0.8519 -0.3703
vn 0.6683 -0.6683 -0.3266
vn 0.0972 -0.3783 0.9206
vn 0.3783 -0.0972 0.9206
vn 0.0970 -0.0970 0.9905
vn 0.0919 -0.7041 0.7041
vn 0.3703 -0.3703 0.8519
vn 0.7041 -0.0919 0.7041
vn 0.5774 -0.5773 0.5774
vn 0.6683 -0.3266 0.6683
vn 0.3783 -0.9206 0.0972
vn 0.0972 -0.9206 0.3783
vn 0.0970 -0.9905 0.0970
vn 0.7041 -0.7041 0.0919
vn 0.3703 -0.8519 0.3703
vn 0.3266 -0.6683 0.6683
vn 0.9206 -0.0972 0.3783
vn 0.9206 -0.3783 0.0972
vn 0.9905 -0.0970 0.0970
vn 0.8519 -0.3703 0.3703
vn 0.6683 -0.6683 0.3266
vn 0.0972 0.3783 -0.9206
vn 0.3783 0.0972 -0.9206
vn 0.0970 0.0970 -0.9905
vn 0.0919 0.7041 -0.7041
vn 0.3703 0.3703 -0.8519
vn 0.7041 0.0919 -0.7041
vn 0.5774 0.5773 -0.5774
vn 0.6683 0.3266 -0.6683
vn 0.3783 0.9206 -0.0972
vn 0.0972 0.9206 -0.3783
vn 0.0970 0.9905 -0.0970
vn 0.7041 0.7041 -0.0919
vn 0.3703 0.8519 -0.3703
vn 0.3266 0.6683 -0.6683
vn 0.9206 0.0972 -0.3783
vn 0.9206 0.3783 -0.0972
vn 0.9905 0.0970 -0.0970
vn 0.8519 0.3703 -0.3703
vn 0.6683 0.6683 -0.3266
vn 0.3783 0.0972 0.9206
vn 0.0972 0.3783 0.9206
vn 0.0970 0.0970 0.9905
vn 0.7041 0.0919 0.7041
vn 0.3703 0.3703 0.8519
vn 0.0919 0.7041 0.7041
vn 0.5774 0.5773 0.5774
vn 0.3266 0.6683 0.6683
vn 0.9206 0.3783 0.0972
vn 0.9206 0.0972 0.3783
vn 0.9905 0.0970 0.0970
vn 0.7041 0.7041 0.0919
vn 0.8519 0.3703 0.3703
vn 0.6683 0.3266 0.6683
vn 0.0972 0.9206 0.3783
vn 0.3783 0.9206 0.0972
vn 0.0970 0.9905 0.0970
vn 0.3703 0.8519 0.3703
vn 0.6683 0.6683 0.3266
vn 0.9877 0.1564 -0.0000
vn 0.9511 0.3090 -0.0000
vn 0.8910 0.4540 -0.0000
vn 0.8090 0.5878 -0.0000
vn 0.5878 0.8090 -0.0000
vn 0.4540 0.8910 -0.0000
vn 0.3090 0.9511 -0.0000
vn 0.1564 0.9877 -0.0000
vn -0.1564 0.9877 -0.0000
vn -0.3090 0.9511 -0.0000
vn -0.4540 0.8910 -0.0000
vn -0.5878 0.8090 -0.0000
vn -0.8090 0.5878 -0.0000
vn -0.8910 0.4540 -0.0000
vn -0.9511 0.3090 -0.0000
vn -0.9877 0.1564 -0.0000
vn -0.9877 -0.1564 -0.0000
vn -0.9511 -0.3090 -0.0000
vn -0.8910 -0.4540 -0.0000
vn -0.8090 -0.5878 -0.0000
vn -0.5878 -0.8090 -0.0000
vn -0.4540 -0.8910 -0.0000
vn -0.3090 -0.9511 -0.0000
vn -0.1564 -0.9877 -0.0000
vn 0.1564 -0.9877 -0.0000
vn 0.3090 -0.9511 -0.0000
vn 0.4540 -0.8910 -0.0000
vn 0.5878 -0.8090 -0.0000
vn 0.8090 -0.5878 -0.0000
vn 0.8910 -0.4540 -0.0000
vn 0.9511 -0.3090 -0.0000
vn 0.9877 -0.1564 -0.0000
vn 0.0427 -0.0000 0.9991
vn 0.0422 0.0067 0.9991
vn 0.0406 0.0132 0.9991
vn 0.0380 0.0194 0.9991
vn 0.0345 0.0251 0.9991
vn 0.0302 0.0302 0.9991
vn 0.0251 0.0345 0.9991
vn 0.0194 0.0380 0.9991
vn 0.0132 0.0406 0.9991
vn 0.0067 0.0422 0.9991
vn -0.0000 0.0427 0.9991
vn -0.0067 0.0422 0.9991
vn -0.0132 0.0406 0.9991
vn -0.0194 0.0380 0.9991
vn -0.0251 0.0345 0.9991
vn -0.0302 0.0302 0.9991
vn -0.0345 0.0251 0.9991
vn -0.0380 0.0194 0.9991
vn -0.0406 0.0132 0.9991
vn -0.0422 0.0067 0.9991
vn -0.0427 -0.0000 0.9991
vn -0.0422 -0.0067 0.9991
vn -0.0406 -0.0132 0.9991
vn -0.0380 -0.0194 0.9991
vn -0.0345 -0.0251 0.9991
vn -0.0302 -0.0302 0.9991
vn -0.0251 -0.0345 0.9991
vn -0.0194 -0.0380 0.9991
vn -0.0132 -0.0406 0.9991
vn -0.0067 -0.0422 0.9991
vn -0.0000 -0.0427 0.9991
vn 0.0067 -0.0422 0.9991
vn 0.0132 -0.0406 0.9991
vn 0.0194 -0.0380 0.9991
vn 0.0251 -0.0345 0.9991
vn 0.0302 -0.0302 0.9991
vn 0.0345 -0.0251 0.9991
vn 0.0380 -0.0194 0.9991
vn 0.0406 -0.0132 0.9991
vn 0.0422 -0.0067 0.9991
vn 0.0958 -0.0000 0.9954
vn 0.0946 0.0150 0.9954
vn 0.0854 0.0435 0.9954
vn 0.0775 0.0563 0.9954
vn 0.0563 0.0775 0.9954
vn 0.0435 0.0854 0.9954
vn 0.0150 0.0946 0.9954
vn -0.0150 0.0946 0.9954
vn -0.0296 0.0911 0.9954
vn -0.0435 0.0854 0.9954
vn -0.0563 0.0775 0.9954
vn -0.0775 0.0563 0.9954
vn -0.0854 0.0435 0.9954
vn -0.0946 0.0150 0.9954
vn -0.0958 -0.0000 0.9954
vn -0.0946 -0.0150 0.9954
vn -0.0854 -0.0435 0.9954
vn -0.0775 -0.0563 0.9954
vn -0.0563 -0.0775 0.9954
vn -0.0435 -0.0854 0.9954
vn -0.0150 -0.0946 0.9954
vn 0.0150 -0.0946 0.9954
vn 0.0296 -0.0911 0.9954
vn 0.0435 -0.0854 0.9954
vn 0.0563 -0.0775 0.9954
vn 0.0775 -0.0563 0.9954
vn 0.0854 -0.0435 0.9954
vn 0.0946 -0.0150 0.9954
vn 0.1305 0.0207 0.9912
vn 0.1257 0.0408 0.9912
vn 0.0911 0.0296 0.9954
vn 0.1069 0.0777 0.9912
vn 0.0677 0.0677 0.9954
vn 0.0935 0.0935 0.9912
vn 0.0777 0.1069 0.9912
vn 0.0408 0.1257 0.9912
vn 0.0296 0.0911 0.9954
vn 0.0207 0.1305 0.9912
vn -0.0000 0.0958 0.9954
vn -0.0000 0.1322 0.9912
vn -0.0207 0.1305 0.9912
vn -0.0408 0.1257 0.9912
vn -0.0777 0.1069 0.9912
vn -0.0677 0.0677 0.9954
vn -0.1069 0.0777 0.9912
vn -0.1257 0.0408 0.9912
vn -0.0911 0.0296 0.9954
vn -0.1305 0.0207 0.9912
vn -0.1305 -0.0207 0.9912
vn -0.1257 -0.0408 0.9912
vn -0.0911 -0.0296 0.9954
vn -0.1069 -0.0777 0.9912
vn -0.0677 -0.0677 0.9954
vn -0.0935 -0.0935 0.9912
vn -0.0777 -0.1069 0.9912
vn -0.0408 -0.1257 0.9912
vn -0.0296 -0.0911 0.9954
vn -0.0207 -0.1305 0.9912
vn -0.0000 -0.0958 0.9954
vn -0.0000 -0.1322 0.9912
vn 0.0207 -0.1305 0.9912
vn 0.0408 -0.1257 0.9912
vn 0.0777 -0.1069 0.9912
vn 0.0677 -0.0677 0.9954
vn 0.1069 -0.0777 0.9912
vn 0.1257 -0.0408 0.9912
vn 0.0911 -0.0296 0.9954
vn 0.1305 -0.0207 0.9912
vn 0.1322 -0.0000 0.9912
vn 0.1178 0.0600 0.9912
vn 0.0600 0.1178 0.9912
vn -0.0600 0.1178 0.9912
vn -0.0935 0.0935 0.9912
vn -0.1178 0.0600 0.9912
vn -0.1322 -0.0000 0.9912
vn -0.1178 -0.0600 0.9912
vn -0.0600 -0.1178 0.9912
vn 0.0600 -0.1178 0.9912
vn 0.0935 -0.0935 0.9912
vn 0.1178 -0.0600 0.9912
s 1
usemtl m0
f 4//1 2//1 1//1
f 6//2 8//2 5//2
f 2//3 5//3 1//3
f 4//4 7//4 3//4
f 3//5 6//5 2//5
f 5//6 4//6 1//6
f 26//7 41//5 25//5
f 27//8 42//7 26//7
f 28//9 43//8 27//8
f 29//4 44//9 28//9
f 30//10 45//4 29//4
f 31//11 46//10 30//10
f 32//12 47//11 31//11
f 33//6 48//12 32//12
f 34//13 49//6 33//6
f 35//14 50//13 34//13
f 36//15 51//14 35//14
f 37//3 52//15 36//15
f 38//16 53//3 37//3
f 39//17 54//16 38//16
f 40//18 55//17 39//17
f 25//5 56//18 40//18
f 41//2 42//2 57//2
f 42//2 43//2 57//2
f 43//2 44//2 57//2
f 44//2 45//2 57//2
f 45//2 46//2 57//2
f 46//2 47//2 57//2
f 47//2 48//2 57//2
f 48//2 49//2 57//2
f 49//2 50//2 57//2
f 50//2 51//2 57//2
f 51//2 52//2 57//2
f 52//2 53//2 57//2
f 53//2 54//2 57//2
f 54//2 55//2 57//2
f 55//2 56//2 57//2
f 56//2 41//2 57//2
f 58//5 59//5 60//5
f 58//5 60//5 61//5
f 58//5 61//5 62//5
f 58//5 62//5 63//5
f 58//5 63//5 64//5
f 58//5 64//5 59//5
f 65//19 60//19 59//19
f 66//2 61//2 60//2
f 67//20 62//20 61//20
f 68//21 63//21 62//21
f 69//1 64//1 63//1
f 70//22 59//22 64//22
f 71//6 73//6 72//6
f 71//6 74//6 73//6
f 71//6 75//6 74//6
f 71//6 76//6 75//6
f 71//6 77//6 76//6
f 71//6 72//6 77//6
f 73//19 78//19 72//19
f 74//2 79//2 73//2
f 75//20 80//20 74//20
f 76//21 81//21 75//21
f 77//1 82//1 76//1
f 72//22 83//22 77//22
f 86//1 169//23 93//24
f 168//25 91//26 92//27
f 166//28 90//29 85//4
f 165//30 87//31 88//32
f 168//25 93//24 169//23
f 167//33 90//29 91//26
f 165//30 89//34 166//28
f 164//35 84//2 87//31
f 87//31 95//36 88//32
f 92//27 100//37 93//24
f 90//29 98//38 91//26
f 89//34 95//36 96//39
f 87//31 84//2 94//40
f 86//1 93//24 100//37
f 92//27 98//38 99//41
f 89//34 97//42 90//29
f 99//41 107//43 100//37
f 97//42 105//44 98//38
f 95//36 103//45 96//39
f 94//40 84//2 101//46
f 86//1 100//37 107//43
f 99//41 105//44 106//47
f 96//39 104//5 97//42
f 94//40 102//48 95//36
f 101//46 84//2 108//49
f 86//1 107//43 114//50
f 105//44 113//51 106//47
f 104//5 110//52 111//53
f 101//46 109//54 102//48
f 107//43 113//51 114//50
f 104//5 112//55 105//44
f 102//48 110//52 103//45
f 113//51 119//56 120//57
f 111//53 117//58 118//59
f 108//49 116//60 109//54
f 113//51 121//61 114//50
f 111//53 119//56 112//55
f 109//54 117//58 110//52
f 108//49 84//2 115//62
f 86//1 114//50 121//61
f 120//57 128//63 121//61
f 118//59 126//64 119//56
f 116//60 124//65 117//58
f 115//62 84//2 122//66
f 86//1 121//61 128//63
f 119//56 127//67 120//57
f 117//58 125//3 118//59
f 115//62 123//68 116//60
f 125//3 133//69 126//64
f 123//68 131//70 124//65
f 122//66 84//2 129//71
f 86//1 128//63 135//72
f 127//67 133//69 134//73
f 124//65 132//74 125//3
f 122//66 130//75 123//68
f 127//67 135//72 128//63
f 86//1 135//72 142//76
f 134//73 140//77 141//78
f 131//70 139//79 132//74
f 130//75 136//80 137//81
f 134//73 142//76 135//72
f 133//69 139//79 140//77
f 130//75 138//82 131//70
f 129//71 84//2 136//80
f 138//82 146//6 139//79
f 136//80 144//83 137//81
f 141//78 149//84 142//76
f 139//79 147//85 140//77
f 137//81 145//86 138//82
f 136//80 84//2 143//87
f 86//1 142//76 149//84
f 141//78 147//85 148//88
f 148//88 156//89 149//84
f 146//6 154//90 147//85
f 144//83 152//91 145//86
f 143//87 84//2 150//92
f 86//1 149//84 156//89
f 148//88 154//90 155//93
f 146//6 152//91 153//94
f 144//83 150//92 151//95
f 151//95 159//96 152//91
f 150//92 84//2 157//97
f 86//1 156//89 163//98
f 155//93 161//99 162//100
f 153//94 159//96 160//101
f 150//92 158//102 151//95
f 155//93 163//98 156//89
f 153//94 161//99 154//90
f 86//1 163//98 169//23
f 162//100 167//33 168//25
f 159//96 85//4 160//101
f 157//97 165//30 158//102
f 162//100 169//23 163//98
f 160//101 167//33 161//99
f 158//102 166//28 159//96
f 157//97 84//2 164//35
f 173//103 175//104 170//105
f 174//106 176//107 173//103
f 176//107 185//108 175//104
f 176//107 178//109 188//110
f 179//111 181//112 171//113
f 180//114 182//115 179//111
f 182//115 174//106 181//112
f 182//115 178//109 177//116
f 184//117 186//118 172//119
f 185//108 187//120 184//117
f 187//120 180//114 186//118
f 187//120 178//109 183//121
f 192//122 194//123 189//124
f 193//125 195//126 192//122
f 195//126 204//127 194//123
f 195//126 197//128 207//129
f 198//130 200//131 190//132
f 199//133 201//134 198//130
f 201//134 193//125 200//131
f 201//134 197//128 196//135
f 203//136 205//137 191//138
f 204//127 206//139 203//136
f 206//139 199//133 205//137
f 206//139 197//128 202//140
f 211//141 213//142 208//143
f 212//144 214//145 211//141
f 214//145 223//146 213//142
f 214//145 216//147 226//148
f 217//149 219//150 209//151
f 218//152 220//153 217//149
f 220//153 212//144 219//150
f 220//153 216//147 215//154
f 222//155 224//156 210//157
f 223//146 225//158 222//155
f 225//158 218//152 224//156
f 225//158 216//147 221//159
f 230//160 232//161 227//162
f 231//163 233//164 230//160
f 233//164 242//165 232//161
f 233//164 235//166 245//167
f 236//168 238//169 228//170
f 237//171 239//172 236//168
f 239//172 231//163 238//169
f 239//172 235//166 234//173
f 241//174 243//175 229//176
f 242//165 244//177 241//174
f 244//177 237//171 243//175
f 244//177 235//166 240//178
f 249//179 251//180 246//181
f 250//182 252//183 249//179
f 252//183 261//184 251//180
f 252//183 254//185 264//186
f 255//187 257//188 247//189
f 256//190 258//191 255//187
f 258//191 250//182 257//188
f 258//191 254//185 253//192
f 260//193 262//194 248//195
f 261//184 263//196 260//193
f 263//196 256//190 262//194
f 263//196 254//185 259//197
f 268//198 270//199 265//200
f 269//201 271//202 268//198
f 271//202 280//203 270//199
f 271//202 273//204 283//205
f 274//206 276//207 266//208
f 275//209 277//210 274//206
f 277//210 269//201 276//207
f 277//210 273//204 272//211
f 279//212 281//213 267//214
f 280//203 282//215 279//212
f 282//215 275//209 281//213
f 282//215 273//204 278//216
f 287//217 289//218 284//219
f 288//220 290//221 287//217
f 290//221 299//222 289//218
f 290//221 292//223 302//224
f 293//225 295//226 285//227
f 294//228 296//229 293//225
f 296//229 288//220 295//226
f 296//229 292//223 291//230
f 298//231 300//232 286//233
f 299//222 301//234 298//231
f 301//234 294//228 300//232
f 301//234 292//223 297//235
f 306//236 308//237 303//238
f 307//239 309//240 306//236
f 309//240 318//241 308//237
f 309//240 311//242 321//243
f 312//244 314//245 304//246
f 313//247 315//248 312//244
f 315//248 307//239 314//245
f 315//248 311//242 310//249
f 317//250 319//251 305//252
f 318//241 320//253 317//250
f 320//253 313//247 319//251
f 320//253 311//242 316//254
f 170//105 211//141 208//143
f 175//104 212//144 211//141
f 185//108 219//150 212//144
f 184//117 209//151 219//150
f 189//124 179//111 171//113
f 194//123 180//114 179//111
f 204//127 186//118 180//114
f 203//136 172//119 186//118
f 227//162 198//130 190//132
f 232//161 199//133 198//130
f 242//165 205//137 199//133
f 241//174 191//138 205//137
f 210//157 236//168 228//170
f 224//156 237//171 236//168
f 218//152 243//175 237//171
f 217//149 229//176 243//175
f 208//143 287//217 284//219
f 213//142 288//220 287//217
f 223//146 295//226 288//220
f 222//155 285//227 295//226
f 303//238 230//160 227//162
f 308//237 231//163 230//160
f 318//241 238//169 231//163
f 317//250 228//170 238//169
f 286//233 312//244 304//246
f 300//232 313//247 312//244
f 294//228 319//251 313//247
f 293//225 305//252 319//251
f 284//219 249//179 246//181
f 289//218 250//182 249//179
f 299//222 257//188 250//182
f 298//231 247//189 257//188
f 265//200 306//236 303//238
f 270//199 307//239 306//236
f 280//203 314//245 307//239
f 279//212 304//246 314//245
f 248//195 274//206 266//208
f 262//194 275//209 274//206
f 256//190 281//213 275//209
f 255//187 267//214 281//213
f 246//181 173//103 170//105
f 251//180 174//106 173//103
f 261//184 181//112 174//106
f 260//193 171//113 181//112
f 190//132 268//198 265//200
f 200//131 269//201 268//198
f 193//125 276//207 269//201
f 192//122 266//208 276//207
f 284//219 170//105 208//143
f 191//138 209//151 172//119
f 266//208 171//113 248//195
f 227//162 265//200 303//238
f 228//170 285//227 210//157
f 304//246 247//189 286//233
f 363//255 402//5 362//5
f 364//256 403//255 363//255
f 365//257 404//256 364//256
f 366//258 405//257 365//257
f 367//8 406//258 366//258
f 368//259 407//8 367//8
f 369//260 408//259 368//259
f 370//261 409//260 369//260
f 371//262 410//261 370//261
f 372//4 411//262 371//262
f 373//263 412//4 372//4
f 374//264 413//263 373//263
f 375//265 414//264 374//264
f 376//266 415//265 375//265
f 377//11 416//266 376//266
f 378//267 417//11 377//11
f 379//268 418//267 378//267
f 380//269 419//268 379//268
f 381//270 420//269 380//269
f 382//6 421//270 381//270
f 383//271 422//6 382//6
f 384//272 423//271 383//271
f 385//273 424//272 384//272
f 386//274 425//273 385//273
f 387//14 426//274 386//274
f 388//275 427//14 387//14
f 389//276 428//275 388//275
f 390//277 429//276 389//276
f 391//278 430//277 390//277
f 392//3 431//278 391//278
f 393//279 432//3 392//3
f 394//280 433//279 393//279
f 395//281 434//280 394//280
f 396//282 435//281 395//281
f 397//17 436//282 396//282
f 398//283 437//17 397//17
f 399//284 438//283 398//283
f 400//285 439//284 399//284
f 401//286 440//285 400//285
f 362//5 441//286 401//286
f 403//2 442//2 402//2
f 404//2 443//2 403//2
f 405//2 444//2 404//2
f 406//2 445//2 405//2
f 406//2 447//2 446//2
f 408//2 447//2 407//2
f 408//2 449//2 448//2
f 410//2 449//2 409//2
f 411//2 450//2 410//2
f 411//2 452//2 451//2
f 413//2 452//2 412//2
f 414//2 453//2 413//2
f 415//2 454//2 414//2
f 416//2 455//2 415//2
f 416//2 457//2 456//2
f 418//2 457//2 417//2
f 418//2 459//2 458//2
f 420//2 459//2 419//2
f 421//2 460//2 420//2
f 421//2 462//2 461//2
f 423//2 462//2 422//2
f 424//2 463//2 423//2
f 425//2 464//2 424//2
f 426//2 465//2 425//2
f 426//2 467//2 466//2
f 428//2 467//2 427//2
f 428//2 469//2 468//2
f 430//2 469//2 429//2
f 431//2 470//2 430//2
f 431//2 472//2 471//2
f 433//2 472//2 432//2
f 434//2 473//2 433//2
f 435//2 474//2 434//2
f 436//2 475//2 435//2
f 436//2 477//2 476//2
f 438//2 477//2 437//2
f 438//2 479//2 478//2
f 440//2 479//2 439//2
f 441//2 480//2 440//2
f 441//2 442//2 481//2
f 443//271 322//6 442//6
f 444//272 323//271 443//271
f 445//273 324//272 444//272
f 446//274 325//273 445//273
f 447//14 326//274 446//274
f 448//275 327//14 447//14
f 449//276 328//275 448//275
f 450//277 329//276 449//276
f 451//278 330//277 450//277
f 452//3 331//278 451//278
f 453//279 332//3 452//3
f 454//280 333//279 453//279
f 455//281 334//280 454//280
f 456//282 335//281 455//281
f 457//17 336//282 456//282
f 458//283 337//17 457//17
f 459//284 338//283 458//283
f 460//285 339//284 459//284
f 461//286 340//285 460//285
f 462//5 341//286 461//286
f 463//255 342//5 462//5
f 464//256 343//255 463//255
f 465//257 344//256 464//256
f 466//258 345//257 465//257
f 467//8 346//258 466//258
f 468//259 347//8 467//8
f 469//260 348//259 468//259
f 470//261 349//260 469//260
f 471//262 350//261 470//261
f 472//4 351//262 471//262
f 473//263 352//4 472//4
f 474//264 353//263 473//263
f 475//265 354//264 474//264
f 476//266 355//265 475//265
f 477//11 356//266 476//266
f 478//267 357//11 477//11
f 479//268 358//267 478//267
f 480//269 359//268 479//268
f 481//270 360//269 480//269
f 442//6 361//270 481//270
f 4//1 3//1 2//1
f 6//2 7//2 8//2
f 2//3 6//3 5//3
f 4//4 8//4 7//4
f 3//5 7//5 6//5
f 5//6 8//6 4//6
f 26//7 42//7 41//5
f 27//8 43//8 42//7
f 28//9 44//9 43//8
f 29//4 45//4 44//9
f 30//10 46//10 45//4
f 31//11 47//11 46//10
f 32//12 48//12 47//11
f 33//6 49//6 48//12
f 34//13 50//13 49//6
f 35//14 51//14 50//13
f 36//15 52//15 51//14
f 37//3 53//3 52//15
f 38//16 54//16 53//3
f 39//17 55//17 54//16
f 40//18 56//18 55//17
f 25//5 41//5 56//18
f 65//19 66//19 60//19
f 66//2 67//2 61//2
f 67//20 68//20 62//20
f 68//21 69//21 63//21
f 69//1 70//1 64//1
f 70//22 65//22 59//22
f 73//19 79//19 78//19
f 74//2 80//2 79//2
f 75//20 81//20 80//20
f 76//21 82//21 81//21
f 77//1 83//1 82//1
f 72//22 78//22 83//22
f 168//25 167//33 91//26
f 166//28 89//34 90//29
f 165//30 164//35 87//31
f 168//25 92//27 93//24
f 167//33 85//4 90//29
f 165//30 88//32 89//34
f 87//31 94//40 95//36
f 92//27 99//41 100//37
f 90//29 97//42 98//38
f 89//34 88//32 95//36
f 92//27 91//26 98//38
f 89//34 96//39 97//42
f 99//41 106//47 107//43
f 97//42 104//5 105//44
f 95//36 102//48 103//45
f 99//41 98//38 105//44
f 96//39 103//45 104//5
f 94//40 101//46 102//48
f 105//44 112//55 113//51
f 104//5 103//45 110//52
f 101//46 108//49 109//54
f 107//43 106//47 113//51
f 104//5 111//53 112//55
f 102//48 109//54 110//52
f 113//51 112//55 119//56
f 111//53 110//52 117//58
f 108//49 115//62 116//60
f 113//51 120//57 121//61
f 111//53 118//59 119//56
f 109//54 116//60 117//58
f 120//57 127//67 128//63
f 118//59 125//3 126//64
f 116//60 123//68 124//65
f 119//56 126//64 127//67
f 117//58 124//65 125//3
f 115//62 122//66 123//68
f 125//3 132//74 133//69
f 123//68 130//75 131//70
f 127//67 126//64 133//69
f 124//65 131//70 132//74
f 122//66 129//71 130//75
f 127//67 134//73 135//72
f 134//73 133//69 140//77
f 131//70 138//82 139//79
f 130//75 129//71 136//80
f 134//73 141//78 142//76
f 133//69 132//74 139//79
f 130//75 137//81 138//82
f 138//82 145//86 146//6
f 136//80 143//87 144//83
f 141//78 148//88 149//84
f 139//79 146//6 147//85
f 137//81 144//83 145//86
f 141//78 140//77 147//85
f 148//88 155//93 156//89
f 146//6 153//94 154//90
f 144//83 151//95 152//91
f 148//88 147//85 154//90
f 146//6 145//86 152//91
f 144//83 143//87 150//92
f 151//95 158//102 159//96
f 155//93 154//90 161//99
f 153//94 152//91 159//96
f 150//92 157//97 158//102
f 155//93 162//100 163//98
f 153//94 160//101 161//99
f 162//100 161//99 167//33
f 159//96 166//28 85//4
f 157//97 164//35 165//30
f 162//100 168//25 169//23
f 160//101 85//4 167//33
f 158//102 165//30 166//28
f 173//103 176//107 175//104
f 174//106 177//116 176//107
f 176//107 188//110 185//108
f 176//107 177//116 178//109
f 179//111 182//115 181//112
f 180//114 183//121 182//115
f 182//115 177//116 174//106
f 182//115 183//121 178//109
f 184//117 187//120 186//118
f 185//108 188//110 187//120
f 187//120 183//121 180//114
f 187//120 188//110 178//109
f 192//122 195//126 194//123
f 193//125 196//135 195//126
f 195//126 207//129 204//127
f 195//126 196//135 197//128
f 198//130 201//134 200//131
f 199//133 202//140 201//134
f 201//134 196//135 193//125
f 201//134 202//140 197//128
f 203//136 206//139 205//137
f 204//127 207//129 206//139
f 206//139 202//140 199//133
f 206//139 207//129 197//128
f 211//141 214//145 213//142
f 212//144 215//154 214//145
f 214//145 226//148 223//146
f 214//145 215//154 216//147
f 217//149 220//153 219//150
f 218//152 221//159 220//153
f 220//153 215//154 212//144
f 220//153 221//159 216//147
f 222//155 225//158 224//156
f 223//146 226//148 225//158
f 225//158 221//159 218//152
f 225//158 226//148 216//147
f 230//160 233//164 232//161
f 231//163 234//173 233//164
f 233//164 245//167 242//165
f 233//164 234//173 235//166
f 236//168 239//172 238//169
f 237//171 240//178 239//172
f 239//172 234//173 231//163
f 239//172 240//178 235//166
f 241//174 244//177 243//175
f 242//165 245//167 244//177
f 244//177 240//178 237//171
f 244//177 245//167 235//166
f 249//179 252//183 251//180
f 250//182 253//192 252//183
f 252//183 264//186 261//184
f 252//183 253//192 254//185
f 255//187 258//191 257//188
f 256//190 259//197 258//191
f 258//191 253//192 250//182
f 258//191 259//197 254//185
f 260//193 263//196 262//194
f 261//184 264//186 263//196
f 263//196 259//197 256//190
f 263//196 264//186 254//185
f 268//198 271//202 270//199
f 269//201 272//211 271//202
f 271//202 283//205 280//203
f 271//202 272//211 273//204
f 274//206 277//210 276//207
f 275//209 278//216 277//210
f 277//210 272//211 269//201
f 277//210 278//216 273//204
f 279//212 282//215 281//213
f 280//203 283//205 282//215
f 282//215 278//216 275//209
f 282//215 283//205 273//204
f 287//217 290//221 289//218
f 288//220 291//230 290//221
f 290//221 302//224 299//222
f 290//221 291//230 292//223
f 293//225 296//229 295//226
f 294//228 297//235 296//229
f 296//229 291//230 288//220
f 296//229 297//235 292//223
f 298//231 301//234 300//232
f 299//222 302//224 301//234
f 301//234 297//235 294//228
f 301//234 302//224 292//223
f 306//236 309//240 308//237
f 307//239 310//249 309//240
f 309//240 321//243 318//241
f 309//240 310//249 311//242
f 312//244 315//248 314//245
f 313//247 316//254 315//248
f 315//248 310//249 307//239
f 315//248 316//254 311//242
f 317//250 320//253 319//251
f 318//241 321//243 320//253
f 320//253 316//254 313//247
f 320//253 321//243 311//242
f 170//105 175//104 211//141
f 175//104 185//108 212//144
f 185//108 184//117 219//150
f 184//117 172//119 209//151
f 189//124 194//123 179//111
f 194//123 204//127 180//114
f 204//127 203//136 186//118
f 203//136 191//138 172//119
f 227//162 232//161 198//130
f 232//161 242//165 199//133
f 242//165 241//174 205//137
f 241//174 229//176 191//138
f 210//157 224//156 236//168
f 224//156 218//152 237//171
f 218//152 217//149 243//175
f 217//149 209//151 229//176
f 208//143 213//142 287//217
f 213//142 223//146 288//220
f 223//146 222//155 295//226
f 222//155 210//157 285//227
f 303//238 308//237 230//160
f 308//237 318//241 231//163
f 318//241 317//250 238//169
f 317//250 305//252 228//170
f 286//233 300//232 312//244
f 300//232 294//228 313//247
f 294//228 293//225 319//251
f 293//225 285//227 305//252
f 284//219 289//218 249//179
f 289//218 299//222 250//182
f 299//222 298//231 257//188
f 298//231 286//233 247//189
f 265//200 270//199 306//236
f 270//199 280//203 307//239
f 280//203 279//212 314//245
f 279//212 267//214 304//246
f 248//195 262//194 274//206
f 262//194 256//190 275//209
f 256//190 255//187 281//213
f 255//187 247//189 267//214
f 246//181 251//180 173//103
f 251//180 261//184 174//106
f 261//184 260//193 181//112
f 260//193 248//195 171//113
f 190//132 200//131 268//198
f 200//131 193//125 269//201
f 193//125 192//122 276//207
f 192//122 189//124 266//208
f 284//219 246//181 170//105
f 191//138 229//176 209//151
f 266//208 189//124 171//113
f 227//162 190//132 265//200
f 228//170 305//252 285//227
f 304//246 267//214 247//189
f 363//255 403//255 402//5
f 364//256 404//256 403//255
f 365//257 405//257 404//256
f 366//258 406//258 405//257
f 367//8 407//8 406//258
f 368//259 408//259 407//8
f 369//260 409//260 408//259
f 370//261 410//261 409//260
f 371//262 411//262 410//261
f 372//4 412//4 411//262
f 373//263 413//263 412//4
f 374//264 414//264 413//263
f 375//265 415//265 414//264
f 376//266 416//266 415//265
f 377//11 417//11 416//266
f 378//267 418//267 417//11
f 379//268 419//268 418//267
f 380//269 420//269 419//268
f 381//270 421//270 420//269
f 382//6 422//6 421//270
f 383//271 423//271 422//6
f 384//272 424//272 423//271
f 385//273 425//273 424//272
f 386//274 426//274 425//273
f 387//14 427//14 426//274
f 388//275 428//275 427//14
f 389//276 429//276 428//275
f 390//277 430//277 429//276
f 391//278 431//278 430//277
f 392//3 432//3 431//278
f 393//279 433//279 432//3
f 394//280 434//280 433//279
f 395//281 435//281 434//280
f 396//282 436//282 435//281
f 397//17 437//17 436//282
f 398//283 438//283 437//17
f 399//284 439//284 438//283
f 400//285 440//285 439//284
f 401//286 441//286 440//285
f 362//5 402//5 441//286
f 403//2 443//2 442//2
f 404//2 444//2 443//2
f 405//2 445//2 444//2
f 406//2 446//2 445//2
f 406//2 407//2 447//2
f 408//2 448//2 447//2
f 408//2 409//2 449//2
f 410//2 450//2 449//2
f 411//2 451//2 450//2
f 411//2 412//2 452//2
f 413//2 453//2 452//2
f 414//2 454//2 453//2
f 415//2 455//2 454//2
f 416//2 456//2 455//2
f 416//2 417//2 457//2
f 418//2 458//2 457//2
f 418//2 419//2 459//2
f 420//2 460//2 459//2
f 421//2 461//2 460//2
f 421//2 422//2 462//2
f 423//2 463//2 462//2
f 424//2 464//2 463//2
f 425//2 465//2 464//2
f 426//2 466//2 465//2
f 426//2 427//2 467//2
f 428//2 468//2 467//2
f 428//2 429//2 469//2
f 430//2 470//2 469//2
f 431//2 471//2 470//2
f 431//2 432//2 472//2
f 433//2 473//2 472//2
f 434//2 474//2 473//2
f 435//2 475//2 474//2
f 436//2 476//2 475//2
f 436//2 437//2 477//2
f 438//2 478//2 477//2
f 438//2 439//2 479//2
f 440//2 480//2 479//2
f 441//2 481//2 480//2
f 441//2 402//2 442//2
f 443//271 323//271 322//6
f 444//272 324//272 323//271
f 445//273 325//273 324//272
f 446//274 326//274 325//273
f 447//14 327//14 326//274
f 448//275 328//275 327//14
f 449//276 329//276 328//275
f 450//277 330//277 329//276
f 451//278 331//278 330//277
f 452//3 332//3 331//278
f 453//279 333//279 332//3
f 454//280 334//280 333//279
f 455//281 335//281 334//280
f 456//282 336//282 335//281
f 457//17 337//17 336//282
f 458//283 338//283 337//17
f 459//284 339//284 338//283
f 460//285 340//285 339//284
f 461//286 341//286 340//285
f 462//5 342//5 341//286
f 463//255 343//255 342//5
f 464//256 344//256 343//255
f 465//257 345//257 344//256
f 466//258 346//258 345//257
f 467//8 347//8 346//258
f 468//259 348//259 347//8
f 469//260 349//260 348//259
f 470//261 350//261 349//260
f 471//262 351//262 350//261
f 472//4 352//4 351//262
f 473//263 353//263 352//4
f 474//264 354//264 353//263
f 475//265 355//265 354//264
f 476//266 356//266 355//265
f 477//11 357//11 356//266
f 478//267 358//267 357//11
f 479//268 359//268 358//267
f 480//269 360//269 359//268
f 481//270 361//270 360//269
f 442//6 322//6 361//270
usemtl m1
f 482//2 483//287 484//288
f 482//2 484//288 485//289
f 482//2 485//289 486//290
f 482//2 486//290 487//291
f 482//2 487//291 488//292
f 482//2 488//292 489//293
f 482//2 489//293 490//294
f 482//2 490//294 491//295
f 482//2 491//295 492//296
f 482//2 492//296 493//297
f 482//2 493//297 494//298
f 482//2 494//298 495//299
f 482//2 495//299 496//300
f 482//2 496//300 497//301
f 482//2 497//301 498//302
f 482//2 498//302 499//303
f 482//2 499//303 500//304
f 482//2 500//304 501//305
f 482//2 501//305 502//306
f 482//2 502//306 503//307
f 482//2 503//307 504//308
f 482//2 504//308 505//309
f 482//2 505//309 506//310
f 482//2 506//310 507//311
f 482//2 507//311 508//312
f 482//2 508//312 509//313
f 482//2 509//313 510//314
f 482//2 510//314 511//315
f 482//2 511//315 512//316
f 482//2 512//316 513//317
f 482//2 513//317 514//318
f 482//2 514//318 515//319
f 482//2 515//319 516//320
f 482//2 516//320 517//321
f 482//2 517//321 518//322
f 482//2 518//322 519//323
f 482//2 519//323 520//324
f 482//2 520//324 521//325
f 482//2 521//325 522//326
f 482//2 522//326 483//287
f 523//327 484//288 483//287
f 524//328 485//289 484//288
f 485//289 526//329 486//290
f 526//329 487//291 486//290
f 527//330 488//292 487//291
f 488//292 529//331 489//293
f 529//331 490//294 489//293
f 530//332 491//295 490//294
f 491//295 532//333 492//296
f 532//333 493//297 492//296
f 493//297 534//334 494//298
f 534//334 495//299 494//298
f 535//335 496//300 495//299
f 536//336 497//301 496//300
f 537//337 498//302 497//301
f 498//302 539//338 499//303
f 539//338 500//304 499//303
f 540//339 501//305 500//304
f 501//305 542//340 502//306
f 542//340 503//307 502//306
f 543//341 504//308 503//307
f 544//342 505//309 504//308
f 505//309 546//343 506//310
f 546//343 507//311 506//310
f 547//344 508//312 507//311
f 508//312 549//345 509//313
f 549//345 510//314 509//313
f 550//346 511//315 510//314
f 511//315 552//347 512//316
f 552//347 513//317 512//316
f 513//317 554//348 514//318
f 554//348 515//319 514//318
f 555//349 516//320 515//319
f 556//350 517//321 516//320
f 557//351 518//322 517//321
f 518//322 559//352 519//323
f 559//352 520//324 519//323
f 560//353 521//325 520//324
f 521//325 562//354 522//326
f 562//354 483//287 522//326
f 523//327 564//355 524//328
f 524//328 565//356 525//357
f 565//356 526//329 525//357
f 526//329 567//358 527//330
f 567//358 528//359 527//330
f 568//360 529//331 528//359
f 569//361 530//332 529//331
f 530//332 571//362 531//363
f 571//362 532//333 531//363
f 572//364 533//365 532//333
f 573//366 534//334 533//365
f 574//367 535//335 534//334
f 575//368 536//336 535//335
f 536//336 577//369 537//337
f 577//369 538//370 537//337
f 538//370 579//371 539//338
f 579//371 540//339 539//338
f 540//339 581//372 541//373
f 581//372 542//340 541//373
f 582//374 543//341 542//340
f 543//341 584//375 544//342
f 544//342 585//376 545//377
f 585//376 546//343 545//377
f 546//343 587//378 547//344
f 587//378 548//379 547//344
f 588//380 549//345 548//379
f 589//381 550//346 549//345
f 550//346 591//382 551//383
f 591//382 552//347 551//383
f 592//384 553//385 552//347
f 593//386 554//348 553//385
f 594//387 555//349 554//348
f 595//388 556//350 555//349
f 556//350 597//389 557//351
f 597//389 558//390 557//351
f 558//390 599//391 559//352
f 599//391 560//353 559//352
f 560//353 601//392 561//393
f 601//392 562//354 561//393
f 602//394 523//327 562//354
f 603//5 564//255 563//5
f 604//255 565//256 564//255
f 605//256 566//257 565//256
f 606//257 567//258 566//257
f 607//258 568//8 567//258
f 608//8 569//259 568//8
f 609//259 570//260 569//259
f 610//260 571//261 570//260
f 611//261 572//262 571//261
f 612//262 573//4 572//262
f 613//4 574//263 573//4
f 614//263 575//264 574//263
f 615//264 576//265 575//264
f 616//265 577//266 576//265
f 617//266 578//11 577//266
f 618//11 579//267 578//11
f 619//267 580//268 579//267
f 620//268 581//269 580//268
f 621//269 582//270 581//269
f 622//270 583//6 582//270
f 623//6 584//271 583//6
f 624//271 585//272 584//271
f 625//272 586//273 585//272
f 626//273 587//274 586//273
f 627//274 588//14 587//274
f 628//14 589//275 588//14
f 629//275 590//276 589//275
f 630//276 591//277 590//276
f 631//277 592//278 591//277
f 632//278 593//3 592//278
f 633//3 594//279 593//3
f 634//279 595//280 594//279
f 635//280 596//281 595//280
f 636//281 597//282 596//281
f 637//282 598//17 597//282
f 638//17 599//283 598//17
f 639//283 600//284 599//283
f 640//284 601//285 600//284
f 641//285 602//286 601//285
f 642//286 563//5 602//286
f 523//327 524//328 484//288
f 524//328 525//357 485//289
f 485//289 525//357 526//329
f 526//329 527//330 487//291
f 527//330 528//359 488//292
f 488//292 528//359 529//331
f 529//331 530//332 490//294
f 530//332 531//363 491//295
f 491//295 531//363 532//333
f 532//333 533//365 493//297
f 493//297 533//365 534//334
f 534//334 535//335 495//299
f 535//335 536//336 496//300
f 536//336 537//337 497//301
f 537//337 538//370 498//302
f 498//302 538//370 539//338
f 539//338 540//339 500//304
f 540//339 541//373 501//305
f 501//305 541//373 542//340
f 542//340 543//341 503//307
f 543//341 544//342 504//308
f 544//342 545//377 505//309
f 505//309 545//377 546//343
f 546//343 547//344 507//311
f 547//344 548//379 508//312
f 508//312 548//379 549//345
f 549//345 550//346 510//314
f 550//346 551//383 511//315
f 511//315 551//383 552//347
f 552//347 553//385 513//317
f 513//317 553//385 554//348
f 554//348 555//349 515//319
f 555//349 556//350 516//320
f 556//350 557//351 517//321
f 557//351 558//390 518//322
f 518//322 558//390 559//352
f 559//352 560//353 520//324
f 560//353 561//393 521//325
f 521//325 561//393 562//354
f 562//354 523//327 483//287
f 523//327 563//395 564//355
f 524//328 564//355 565//356
f 565//356 566//396 526//329
f 526//329 566//396 567//358
f 567//358 568//360 528//359
f 568//360 569//361 529//331
f 569//361 570//397 530//332
f 530//332 570//397 571//362
f 571//362 572//364 532//333
f 572//364 573//366 533//365
f 573//366 574//367 534//334
f 574//367 575//368 535//335
f 575//368 576//398 536//336
f 536//336 576//398 577//369
f 577//369 578//399 538//370
f 538//370 578//399 579//371
f 579//371 580//400 540//339
f 540//339 580//400 581//372
f 581//372 582//374 542//340
f 582//374 583//401 543//341
f 543//341 583//401 584//375
f 544//342 584//375 585//376
f 585//376 586//402 546//343
f 546//343 586//402 587//378
f 587//378 588//380 548//379
f 588//380 589//381 549//345
f 589//381 590//403 550//346
f 550//346 590//403 591//382
f 591//382 592//384 552//347
f 592//384 593//386 553//385
f 593//386 594//387 554//348
f 594//387 595//388 555//349
f 595//388 596//404 556//350
f 556//350 596//404 597//389
f 597//389 598//405 558//390
f 558//390 598//405 599//391
f 599//391 600//406 560//353
f 560//353 600//406 601//392
f 601//392 602//394 562//354
f 602//394 563//395 523//327
f 603//5 604//255 564//255
f 604//255 605//256 565//256
f 605//256 606//257 566//257
f 606//257 607//258 567//258
f 607//258 608//8 568//8
f 608//8 609//259 569//259
f 609//259 610//260 570//260
f 610//260 611//261 571//261
f 611//261 612//262 572//262
f 612//262 613//4 573//4
f 613//4 614//263 574//263
f 614//263 615//264 575//264
f 615//264 616//265 576//265
f 616//265 617//266 577//266
f 617//266 618//11 578//11
f 618//11 619//267 579//267
f 619//267 620//268 580//268
f 620//268 621//269 581//269
f 621//269 622//270 582//270
f 622//270 623//6 583//6
f 623//6 624//271 584//271
f 624//271 625//272 585//272
f 625//272 626//273 586//273
f 626//273 627//274 587//274
f 627//274 628//14 588//14
f 628//14 629//275 589//275
f 629//275 630//276 590//276
f 630//276 631//277 591//277
f 631//277 632//278 592//278
f 632//278 633//3 593//3
f 633//3 634//279 594//279
f 634//279 635//280 595//280
f 635//280 636//281 596//281
f 636//281 637//282 597//282
f 637//282 638//17 598//17
f 638//17 639//283 599//283
f 639//283 640//284 600//284
f 640//284 641//285 601//285
f 641//285 642//286 602//286
f 642//286 603//5 563//5
usemtl m2
f 646//1 644//1 643//1
f 648//2 650//2 647//2
f 644//3 647//3 643//3
f 646//4 649//4 645//4
f 645//5 648//5 644//5
f 647//6 646//6 643//6
f 646//1 645//1 644//1
f 648//2 649//2 650//2
f 644//3 648//3 647//3
f 646//4 650//4 649//4
f 645//5 649//5 648//5
f 647//6 650//6 646//6
usemtl m3
f 15//2 16//2 12//2
f 23//2 24//2 20//2
f 654//1 652//1 651//1
f 656//2 658//2 655//2
f 652//3 655//3 651//3
f 654//4 657//4 653//4
f 653//5 656//5 652//5
f 655//6 654//6 651//6
f 16//2 9//2 10//2
f 10//2 11//2 16//2
f 11//2 12//2 16//2
f 12//2 13//2 14//2
f 14//2 15//2 12//2
f 24//2 17//2 18//2
f 18//2 19//2 24//2
f 19//2 20//2 24//2
f 20//2 21//2 22//2
f 22//2 23//2 20//2
f 654//1 653//1 652//1
f 656//2 657//2 658//2
f 652//3 656//3 655//3
f 654//4 658//4 657//4
f 653//5 657//5 656//5
f 655//6 658//6 654//6
