# Blender 5.2.2 LTS
# www.blender.org
mtllib ShutterBox.mtl
o ShutterBox
v -0.060000 -0.095000 0.050000
v -0.060000 0.095000 0.050000
v -0.060000 -0.095000 0.000000
v -0.060000 0.095000 0.000000
v 0.060000 -0.095000 0.050000
v 0.060000 0.095000 0.050000
v 0.060000 -0.095000 0.000000
v 0.060000 0.095000 0.000000
v -0.060000 -0.095000 0.051000
v -0.060000 0.095000 0.051000
v -0.060000 -0.095000 0.050000
v -0.060000 0.095000 0.050000
v 0.060000 -0.095000 0.051000
v 0.060000 0.095000 0.051000
v 0.060000 -0.095000 0.050000
v 0.060000 0.095000 0.050000
v -0.020000 0.034000 0.051000
v -0.020000 0.034000 0.053000
v -0.015859 0.033455 0.051000
v -0.015859 0.033455 0.053000
v -0.012000 0.031856 0.051000
v -0.012000 0.031856 0.053000
v -0.008686 0.029314 0.051000
v -0.008686 0.029314 0.053000
v -0.006144 0.026000 0.051000
v -0.006144 0.026000 0.053000
v -0.004545 0.022141 0.051000
v -0.004545 0.022141 0.053000
v -0.004000 0.018000 0.051000
v -0.004000 0.018000 0.053000
v -0.004545 0.013859 0.051000
v -0.004545 0.013859 0.053000
v -0.006144 0.010000 0.051000
v -0.006144 0.010000 0.053000
v -0.008686 0.006686 0.051000
v -0.008686 0.006686 0.053000
v -0.012000 0.004144 0.051000
v -0.012000 0.004144 0.053000
v -0.015859 0.002545 0.051000
v -0.015859 0.002545 0.053000
v -0.020000 0.002000 0.051000
v -0.020000 0.002000 0.053000
v -0.024141 0.002545 0.051000
v -0.024141 0.002545 0.053000
v -0.028000 0.004144 0.051000
v -0.028000 0.004144 0.053000
v -0.031314 0.006686 0.051000
v -0.031314 0.006686 0.053000
v -0.033856 0.010000 0.051000
v -0.033856 0.010000 0.053000
v -0.035455 0.013859 0.051000
v -0.035455 0.013859 0.053000
v -0.036000 0.018000 0.051000
v -0.036000 0.018000 0.053000
v -0.035455 0.022141 0.051000
v -0.035455 0.022141 0.053000
v -0.033856 0.026000 0.051000
v -0.033856 0.026000 0.053000
v -0.031314 0.029314 0.051000
v -0.031314 0.029314 0.053000
v -0.028000 0.031856 0.051000
v -0.028000 0.031856 0.053000
v -0.024141 0.033455 0.051000
v -0.024141 0.033455 0.053000
v -0.020000 0.030000 0.053000
v -0.020000 0.030000 0.059000
v -0.016894 0.029591 0.053000
v -0.016894 0.029591 0.059000
v -0.014000 0.028392 0.053000
v -0.014000 0.028392 0.059000
v -0.011515 0.026485 0.053000
v -0.011515 0.026485 0.059000
v -0.009608 0.024000 0.053000
v -0.009608 0.024000 0.059000
v -0.008409 0.021106 0.053000
v -0.008409 0.021106 0.059000
v -0.008000 0.018000 0.053000
v -0.008000 0.018000 0.059000
v -0.008409 0.014894 0.053000
v -0.008409 0.014894 0.059000
v -0.009608 0.012000 0.053000
v -0.009608 0.012000 0.059000
v -0.011515 0.009515 0.053000
v -0.011515 0.009515 0.059000
v -0.014000 0.007608 0.053000
v -0.014000 0.007608 0.059000
v -0.016894 0.006409 0.053000
v -0.016894 0.006409 0.059000
v -0.020000 0.006000 0.053000
v -0.020000 0.006000 0.059000
v -0.023106 0.006409 0.053000
v -0.023106 0.006409 0.059000
v -0.026000 0.007608 0.053000
v -0.026000 0.007608 0.059000
v -0.028485 0.009515 0.053000
v -0.028485 0.009515 0.059000
v -0.030392 0.012000 0.053000
v -0.030392 0.012000 0.059000
v -0.031591 0.014894 0.053000
v -0.031591 0.014894 0.059000
v -0.032000 0.018000 0.053000
v -0.032000 0.018000 0.059000
v -0.031591 0.021106 0.053000
v -0.031591 0.021106 0.059000
v -0.030392 0.024000 0.053000
v -0.030392 0.024000 0.059000
v -0.028485 0.026485 0.053000
v -0.028485 0.026485 0.059000
v -0.026000 0.028392 0.053000
v -0.026000 0.028392 0.059000
v -0.023106 0.029591 0.053000
v -0.023106 0.029591 0.059000
v -0.020000 0.030000 0.059000
v -0.020000 0.027000 0.061000
v -0.016894 0.029591 0.059000
v -0.017671 0.026693 0.061000
v -0.014000 0.028392 0.059000
v -0.015500 0.025794 0.061000
v -0.011515 0.026485 0.059000
v -0.013636 0.024364 0.061000
v -0.009608 0.024000 0.059000
v -0.012206 0.022500 0.061000
v -0.008409 0.021106 0.059000
v -0.011307 0.020329 0.061000
v -0.008000 0.018000 0.059000
v -0.011000 0.018000 0.061000
v -0.008409 0.014894 0.059000
v -0.011307 0.015671 0.061000
v -0.009608 0.012000 0.059000
v -0.012206 0.013500 0.061000
v -0.011515 0.009515 0.059000
v -0.013636 0.011636 0.061000
v -0.014000 0.007608 0.059000
v -0.015500 0.010206 0.061000
v -0.016894 0.006409 0.059000
v -0.017671 0.009307 0.061000
v -0.020000 0.006000 0.059000
v -0.020000 0.009000 0.061000
v -0.023106 0.006409 0.059000
v -0.022329 0.009307 0.061000
v -0.026000 0.007608 0.059000
v -0.024500 0.010206 0.061000
v -0.028485 0.009515 0.059000
v -0.026364 0.011636 0.061000
v -0.030392 0.012000 0.059000
v -0.027794 0.013500 0.061000
v -0.031591 0.014894 0.059000
v -0.028693 0.015671 0.061000
v -0.032000 0.018000 0.059000
v -0.029000 0.018000 0.061000
v -0.031591 0.021106 0.059000
v -0.028693 0.020329 0.061000
v -0.030392 0.024000 0.059000
v -0.027794 0.022500 0.061000
v -0.028485 0.026485 0.059000
v -0.026364 0.024364 0.061000
v -0.026000 0.028392 0.059000
v -0.024500 0.025794 0.061000
v -0.023106 0.029591 0.059000
v -0.022329 0.026693 0.061000
v -0.020000 -0.014000 0.051000
v -0.020000 -0.014000 0.053000
v -0.015859 -0.014545 0.051000
v -0.015859 -0.014545 0.053000
v -0.012000 -0.016144 0.051000
v -0.012000 -0.016144 0.053000
v -0.008686 -0.018686 0.051000
v -0.008686 -0.018686 0.053000
v -0.006144 -0.022000 0.051000
v -0.006144 -0.022000 0.053000
v -0.004545 -0.025859 0.051000
v -0.004545 -0.025859 0.053000
v -0.004000 -0.030000 0.051000
v -0.004000 -0.030000 0.053000
v -0.004545 -0.034141 0.051000
v -0.004545 -0.034141 0.053000
v -0.006144 -0.038000 0.051000
v -0.006144 -0.038000 0.053000
v -0.008686 -0.041314 0.051000
v -0.008686 -0.041314 0.053000
v -0.012000 -0.043856 0.051000
v -0.012000 -0.043856 0.053000
v -0.015859 -0.045455 0.051000
v -0.015859 -0.045455 0.053000
v -0.020000 -0.046000 0.051000
v -0.020000 -0.046000 0.053000
v -0.024141 -0.045455 0.051000
v -0.024141 -0.045455 0.053000
v -0.028000 -0.043856 0.051000
v -0.028000 -0.043856 0.053000
v -0.031314 -0.041314 0.051000
v -0.031314 -0.041314 0.053000
v -0.033856 -0.038000 0.051000
v -0.033856 -0.038000 0.053000
v -0.035455 -0.034141 0.051000
v -0.035455 -0.034141 0.053000
v -0.036000 -0.030000 0.051000
v -0.036000 -0.030000 0.053000
v -0.035455 -0.025859 0.051000
v -0.035455 -0.025859 0.053000
v -0.033856 -0.022000 0.051000
v -0.033856 -0.022000 0.053000
v -0.031314 -0.018686 0.051000
v -0.031314 -0.018686 0.053000
v -0.028000 -0.016144 0.051000
v -0.028000 -0.016144 0.053000
v -0.024141 -0.014545 0.051000
v -0.024141 -0.014545 0.053000
v -0.020000 -0.018000 0.053000
v -0.020000 -0.018000 0.059000
v -0.016894 -0.018409 0.053000
v -0.016894 -0.018409 0.059000
v -0.014000 -0.019608 0.053000
v -0.014000 -0.019608 0.059000
v -0.011515 -0.021515 0.053000
v -0.011515 -0.021515 0.059000
v -0.009608 -0.024000 0.053000
v -0.009608 -0.024000 0.059000
v -0.008409 -0.026894 0.053000
v -0.008409 -0.026894 0.059000
v -0.008000 -0.030000 0.053000
v -0.008000 -0.030000 0.059000
v -0.008409 -0.033106 0.053000
v -0.008409 -0.033106 0.059000
v -0.009608 -0.036000 0.053000
v -0.009608 -0.036000 0.059000
v -0.011515 -0.038485 0.053000
v -0.011515 -0.038485 0.059000
v -0.014000 -0.040392 0.053000
v -0.014000 -0.040392 0.059000
v -0.016894 -0.041591 0.053000
v -0.016894 -0.041591 0.059000
v -0.020000 -0.042000 0.053000
v -0.020000 -0.042000 0.059000
v -0.023106 -0.041591 0.053000
v -0.023106 -0.041591 0.059000
v -0.026000 -0.040392 0.053000
v -0.026000 -0.040392 0.059000
v -0.028485 -0.038485 0.053000
v -0.028485 -0.038485 0.059000
v -0.030392 -0.036000 0.053000
v -0.030392 -0.036000 0.059000
v -0.031591 -0.033106 0.053000
v -0.031591 -0.033106 0.059000
v -0.032000 -0.030000 0.053000
v -0.032000 -0.030000 0.059000
v -0.031591 -0.026894 0.053000
v -0.031591 -0.026894 0.059000
v -0.030392 -0.024000 0.053000
v -0.030392 -0.024000 0.059000
v -0.028485 -0.021515 0.053000
v -0.028485 -0.021515 0.059000
v -0.026000 -0.019608 0.053000
v -0.026000 -0.019608 0.059000
v -0.023106 -0.018409 0.053000
v -0.023106 -0.018409 0.059000
v -0.020000 -0.018000 0.059000
v -0.020000 -0.021000 0.061000
v -0.016894 -0.018409 0.059000
v -0.017671 -0.021307 0.061000
v -0.014000 -0.019608 0.059000
v -0.015500 -0.022206 0.061000
v -0.011515 -0.021515 0.059000
v -0.013636 -0.023636 0.061000
v -0.009608 -0.024000 0.059000
v -0.012206 -0.025500 0.061000
v -0.008409 -0.026894 0.059000
v -0.011307 -0.027671 0.061000
v -0.008000 -0.030000 0.059000
v -0.011000 -0.030000 0.061000
v -0.008409 -0.033106 0.059000
v -0.011307 -0.032329 0.061000
v -0.009608 -0.036000 0.059000
v -0.012206 -0.034500 0.061000
v -0.011515 -0.038485 0.059000
v -0.013636 -0.036364 0.061000
v -0.014000 -0.040392 0.059000
v -0.015500 -0.037794 0.061000
v -0.016894 -0.041591 0.059000
v -0.017671 -0.038693 0.061000
v -0.020000 -0.042000 0.059000
v -0.020000 -0.039000 0.061000
v -0.023106 -0.041591 0.059000
v -0.022329 -0.038693 0.061000
v -0.026000 -0.040392 0.059000
v -0.024500 -0.037794 0.061000
v -0.028485 -0.038485 0.059000
v -0.026364 -0.036364 0.061000
v -0.030392 -0.036000 0.059000
v -0.027794 -0.034500 0.061000
v -0.031591 -0.033106 0.059000
v -0.028693 -0.032329 0.061000
v -0.032000 -0.030000 0.059000
v -0.029000 -0.030000 0.061000
v -0.031591 -0.026894 0.059000
v -0.028693 -0.027671 0.061000
v -0.030392 -0.024000 0.059000
v -0.027794 -0.025500 0.061000
v -0.028485 -0.021515 0.059000
v -0.026364 -0.023636 0.061000
v -0.026000 -0.019608 0.059000
v -0.024500 -0.022206 0.061000
v -0.023106 -0.018409 0.059000
v -0.022329 -0.021307 0.061000
v -0.020000 -0.062000 0.051000
v -0.020000 -0.062000 0.053000
v -0.015859 -0.062545 0.051000
v -0.015859 -0.062545 0.053000
v -0.012000 -0.064144 0.051000
v -0.012000 -0.064144 0.053000
v -0.008686 -0.066686 0.051000
v -0.008686 -0.066686 0.053000
v -0.006144 -0.070000 0.051000
v -0.006144 -0.070000 0.053000
v -0.004545 -0.073859 0.051000
v -0.004545 -0.073859 0.053000
v -0.004000 -0.078000 0.051000
v -0.004000 -0.078000 0.053000
v -0.004545 -0.082141 0.051000
v -0.004545 -0.082141 0.053000
v -0.006144 -0.086000 0.051000
v -0.006144 -0.086000 0.053000
v -0.008686 -0.089314 0.051000
v -0.008686 -0.089314 0.053000
v -0.012000 -0.091856 0.051000
v -0.012000 -0.091856 0.053000
v -0.015859 -0.093455 0.051000
v -0.015859 -0.093455 0.053000
v -0.020000 -0.094000 0.051000
v -0.020000 -0.094000 0.053000
v -0.024141 -0.093455 0.051000
v -0.024141 -0.093455 0.053000
v -0.028000 -0.091856 0.051000
v -0.028000 -0.091856 0.053000
v -0.031314 -0.089314 0.051000
v -0.031314 -0.089314 0.053000
v -0.033856 -0.086000 0.051000
v -0.033856 -0.086000 0.053000
v -0.035455 -0.082141 0.051000
v -0.035455 -0.082141 0.053000
v -0.036000 -0.078000 0.051000
v -0.036000 -0.078000 0.053000
v -0.035455 -0.073859 0.051000
v -0.035455 -0.073859 0.053000
v -0.033856 -0.070000 0.051000
v -0.033856 -0.070000 0.053000
v -0.031314 -0.066686 0.051000
v -0.031314 -0.066686 0.053000
v -0.028000 -0.064144 0.051000
v -0.028000 -0.064144 0.053000
v -0.024141 -0.062545 0.051000
v -0.024141 -0.062545 0.053000
v -0.020000 -0.066000 0.053000
v -0.020000 -0.066000 0.059000
v -0.016894 -0.066409 0.053000
v -0.016894 -0.066409 0.059000
v -0.014000 -0.067608 0.053000
v -0.014000 -0.067608 0.059000
v -0.011515 -0.069515 0.053000
v -0.011515 -0.069515 0.059000
v -0.009608 -0.072000 0.053000
v -0.009608 -0.072000 0.059000
v -0.008409 -0.074894 0.053000
v -0.008409 -0.074894 0.059000
v -0.008000 -0.078000 0.053000
v -0.008000 -0.078000 0.059000
v -0.008409 -0.081106 0.053000
v -0.008409 -0.081106 0.059000
v -0.009608 -0.084000 0.053000
v -0.009608 -0.084000 0.059000
v -0.011515 -0.086485 0.053000
v -0.011515 -0.086485 0.059000
v -0.014000 -0.088392 0.053000
v -0.014000 -0.088392 0.059000
v -0.016894 -0.089591 0.053000
v -0.016894 -0.089591 0.059000
v -0.020000 -0.090000 0.053000
v -0.020000 -0.090000 0.059000
v -0.023106 -0.089591 0.053000
v -0.023106 -0.089591 0.059000
v -0.026000 -0.088392 0.053000
v -0.026000 -0.088392 0.059000
v -0.028485 -0.086485 0.053000
v -0.028485 -0.086485 0.059000
v -0.030392 -0.084000 0.053000
v -0.030392 -0.084000 0.059000
v -0.031591 -0.081106 0.053000
v -0.031591 -0.081106 0.059000
v -0.032000 -0.078000 0.053000
v -0.032000 -0.078000 0.059000
v -0.031591 -0.074894 0.053000
v -0.031591 -0.074894 0.059000
v -0.030392 -0.072000 0.053000
v -0.030392 -0.072000 0.059000
v -0.028485 -0.069515 0.053000
v -0.028485 -0.069515 0.059000
v -0.026000 -0.067608 0.053000
v -0.026000 -0.067608 0.059000
v -0.023106 -0.066409 0.053000
v -0.023106 -0.066409 0.059000
v -0.020000 -0.066000 0.059000
v -0.020000 -0.069000 0.061000
v -0.016894 -0.066409 0.059000
v -0.017671 -0.069307 0.061000
v -0.014000 -0.067608 0.059000
v -0.015500 -0.070206 0.061000
v -0.011515 -0.069515 0.059000
v -0.013636 -0.071636 0.061000
v -0.009608 -0.072000 0.059000
v -0.012206 -0.073500 0.061000
v -0.008409 -0.074894 0.059000
v -0.011307 -0.075671 0.061000
v -0.008000 -0.078000 0.059000
v -0.011000 -0.078000 0.061000
v -0.008409 -0.081106 0.059000
v -0.011307 -0.080329 0.061000
v -0.009608 -0.084000 0.059000
v -0.012206 -0.082500 0.061000
v -0.011515 -0.086485 0.059000
v -0.013636 -0.084364 0.061000
v -0.014000 -0.088392 0.059000
v -0.015500 -0.085794 0.061000
v -0.016894 -0.089591 0.059000
v -0.017671 -0.086693 0.061000
v -0.020000 -0.090000 0.059000
v -0.020000 -0.087000 0.061000
v -0.023106 -0.089591 0.059000
v -0.022329 -0.086693 0.061000
v -0.026000 -0.088392 0.059000
v -0.024500 -0.085794 0.061000
v -0.028485 -0.086485 0.059000
v -0.026364 -0.084364 0.061000
v -0.030392 -0.084000 0.059000
v -0.027794 -0.082500 0.061000
v -0.031591 -0.081106 0.059000
v -0.028693 -0.080329 0.061000
v -0.032000 -0.078000 0.059000
v -0.029000 -0.078000 0.061000
v -0.031591 -0.074894 0.059000
v -0.028693 -0.075671 0.061000
v -0.030392 -0.072000 0.059000
v -0.027794 -0.073500 0.061000
v -0.028485 -0.069515 0.059000
v -0.026364 -0.071636 0.061000
v -0.026000 -0.067608 0.059000
v -0.024500 -0.070206 0.061000
v -0.023106 -0.066409 0.059000
v -0.022329 -0.069307 0.061000
vn -1.0000 -0.0000 -0.0000
vn -0.0000 -0.0000 -1.0000
vn 1.0000 -0.0000 -0.0000
vn -0.0000 -0.0000 1.0000
vn -0.0000 -1.0000 -0.0000
vn -0.0000 1.0000 -0.0000
vn 0.2588 -0.9659 -0.0000
vn 0.5000 -0.8660 -0.0000
vn 0.2588 0.9659 -0.0000
vn 0.9659 -0.2588 -0.0000
vn -0.0000 -0.3116 0.9502
vn -0.1436 -0.5358 0.8321
vn -0.0000 -0.5547 0.8321
vn 0.5000 0.8660 -0.0000
vn 0.1558 0.2698 0.9502
vn 0.3922 0.3922 0.8321
vn 0.2774 0.4804 0.8321
vn 0.7071 0.7071 -0.0000
vn 0.9659 0.2588 -0.0000
vn 0.8660 0.5000 -0.0000
vn -0.2588 -0.9659 -0.0000
vn -0.5000 -0.8660 -0.0000
vn 0.2773 -0.4804 0.8321
vn 0.0806 -0.3010 0.9502
vn 0.1436 -0.5358 0.8321
vn 0.3010 0.0806 0.9502
vn 0.5547 -0.0000 0.8321
vn 0.5358 0.1436 0.8321
vn 0.8660 -0.5000 -0.0000
vn 0.1558 -0.2699 0.9502
vn 0.2774 -0.4804 0.8320
vn 0.7071 -0.7071 -0.0000
vn 0.2698 0.1558 0.9502
vn 0.4804 0.2774 0.8320
vn -0.0806 -0.3010 0.9502
vn -0.2774 -0.4804 0.8321
vn 0.2203 0.2203 0.9502
vn 0.4804 0.2774 0.8321
vn -0.7071 -0.7071 -0.0000
vn 0.3116 -0.0000 0.9502
vn 0.5358 -0.1436 0.8321
vn -0.8660 -0.5000 -0.0000
vn -0.9659 -0.2588 -0.0000
vn 0.5547 -0.0000 0.8320
vn -0.9659 0.2588 -0.0000
vn 0.1558 0.2699 0.9502
vn 0.2773 0.4804 0.8320
vn -0.8660 0.5000 -0.0000
vn -0.7071 0.7071 -0.0000
vn -0.5000 0.8660 -0.0000
vn -0.2588 0.9659 -0.0000
vn 0.2203 -0.2203 0.9502
vn 0.3922 -0.3922 0.8321
vn 0.0806 0.3010 0.9502
vn 0.1436 0.5358 0.8321
vn 0.4804 -0.2773 0.8321
vn -0.0000 0.3116 0.9502
vn -0.0000 0.5547 0.8321
vn 0.3010 -0.0806 0.9502
vn -0.1558 -0.2698 0.9502
vn -0.3922 -0.3922 0.8321
vn 0.2699 -0.1558 0.9502
vn -0.2203 -0.2203 0.9502
vn -0.4804 -0.2774 0.8320
vn -0.3010 -0.0806 0.9502
vn -0.5358 -0.1436 0.8320
vn -0.3116 -0.0000 0.9502
vn -0.5547 -0.0000 0.8320
vn -0.3010 0.0806 0.9502
vn -0.5358 0.1436 0.8321
vn -0.2699 0.1558 0.9502
vn -0.4804 0.2774 0.8320
vn -0.3922 0.3922 0.8321
vn -0.1558 0.2699 0.9502
vn -0.2773 0.4804 0.8320
vn -0.1436 0.5358 0.8321
vn -0.0806 0.3010 0.9502
vn 0.5358 0.1436 0.8320
vn 0.2774 0.4804 0.8320
vn -0.1558 -0.2699 0.9502
vn 0.3922 -0.3922 0.8320
vn 0.4804 -0.2774 0.8321
vn 0.5358 -0.1436 0.8320
vn -0.5358 0.1436 0.8320
vn -0.4804 0.2774 0.8321
vn -0.2203 0.2203 0.9502
vn -0.1558 0.2698 0.9502
vn 0.2698 -0.1558 0.9502
vn -0.2698 -0.1558 0.9502
vn -0.4804 -0.2774 0.8321
vn -0.2698 0.1558 0.9502
vn -0.2774 0.4804 0.8320
vn -0.1436 0.5358 0.8320
vn 0.1558 -0.2698 0.9502
vt 0.000000 0.000000
vt 1.000000 1.000000
vt 0.000000 0.000000
vt 1.000000 0.000000
vt 0.000000 1.000000
s 1
usemtl m0
f 2/1/1 3/1/1 1/1/1
f 4/1/2 7/1/2 3/1/2
f 8/1/3 5/1/3 7/1/3
f 6/1/4 1/1/4 5/1/4
f 7/1/5 1/1/5 3/1/5
f 4/1/6 6/1/6 8/1/6
f 2/1/1 4/1/1 3/1/1
f 4/1/2 8/1/2 7/1/2
f 8/1/3 6/1/3 5/1/3
f 6/1/4 2/1/4 1/1/4
f 7/1/5 5/1/5 1/1/5
f 4/1/6 2/1/6 6/1/6
usemtl m1
f 10/1/1 11/1/1 9/1/1
f 12/1/2 15/1/2 11/1/2
f 16/1/3 13/1/3 15/1/3
f 14/2/4 9/3/4 13/4/4
f 15/1/5 9/1/5 11/1/5
f 12/1/6 14/1/6 16/1/6
f 10/1/1 12/1/1 11/1/1
f 12/1/2 16/1/2 15/1/2
f 16/1/3 14/1/3 13/1/3
f 14/2/4 10/5/4 9/3/4
f 15/1/5 13/1/5 9/1/5
f 12/1/6 10/1/6 14/1/6
usemtl m2
f 184/1/7 185/1/5 183/1/7
f 18/1/6 19/1/9 17/1/6
f 174/1/3 175/1/10 173/1/3
f 20/1/9 21/1/14 19/1/9
f 22/1/14 23/1/18 21/1/14
f 326/1/8 327/1/7 325/1/8
f 172/1/19 173/1/3 171/1/19
f 24/1/18 25/1/20 23/1/18
f 182/1/8 183/1/7 181/1/8
f 26/1/20 27/1/19 25/1/20
f 28/1/19 29/1/3 27/1/19
f 30/1/3 31/1/10 29/1/3
f 316/1/19 317/1/3 315/1/19
f 32/1/10 33/1/29 31/1/10
f 34/1/29 35/1/32 33/1/29
f 36/1/32 37/1/8 35/1/32
f 38/1/8 39/1/7 37/1/8
f 40/1/7 41/1/5 39/1/7
f 168/1/18 169/1/20 167/1/18
f 42/1/5 43/1/21 41/1/5
f 44/1/21 45/1/22 43/1/21
f 188/1/21 189/1/22 187/1/21
f 46/1/22 47/1/39 45/1/22
f 48/1/39 49/1/42 47/1/39
f 166/1/14 167/1/18 165/1/14
f 50/1/42 51/1/43 49/1/42
f 51/1/43 54/1/1 53/1/1
f 186/1/5 187/1/21 185/1/5
f 53/1/1 56/1/45 55/1/45
f 56/1/45 57/1/48 55/1/45
f 58/1/48 59/1/49 57/1/48
f 60/1/49 61/1/50 59/1/49
f 54/1/4 38/1/4 22/1/4
f 62/1/50 63/1/51 61/1/50
f 64/1/51 17/1/6 63/1/51
f 31/1/2 47/1/2 63/1/2
f 332/1/21 333/1/22 331/1/21
f 170/1/20 171/1/19 169/1/20
f 312/1/18 313/1/20 311/1/18
f 180/1/32 181/1/8 179/1/32
f 164/1/9 165/1/14 163/1/9
f 178/1/29 179/1/32 177/1/29
f 162/1/6 163/1/9 161/1/6
f 328/1/7 329/1/5 327/1/7
f 190/1/22 191/1/39 189/1/22
f 176/1/10 177/1/29 175/1/10
f 192/1/39 193/1/42 191/1/39
f 310/1/14 311/1/18 309/1/14
f 194/1/42 195/1/43 193/1/42
f 195/1/43 198/1/1 197/1/1
f 330/1/5 331/1/21 329/1/5
f 197/1/1 200/1/45 199/1/45
f 200/1/45 201/1/48 199/1/45
f 202/1/48 203/1/49 201/1/48
f 204/1/49 205/1/50 203/1/49
f 183/1/2 199/1/2 167/1/2
f 206/1/50 207/1/51 205/1/50
f 318/1/3 319/1/10 317/1/3
f 208/1/51 161/1/6 207/1/51
f 176/1/4 208/1/4 192/1/4
f 314/1/20 315/1/19 313/1/20
f 324/1/32 325/1/8 323/1/32
f 308/1/9 309/1/14 307/1/9
f 322/1/29 323/1/32 321/1/29
f 306/1/6 307/1/9 305/1/6
f 334/1/22 335/1/39 333/1/22
f 320/1/10 321/1/29 319/1/10
f 336/1/39 337/1/42 335/1/39
f 338/1/42 339/1/43 337/1/42
f 339/1/43 342/1/1 341/1/1
f 341/1/1 344/1/45 343/1/45
f 344/1/45 345/1/48 343/1/45
f 346/1/48 347/1/49 345/1/48
f 348/1/49 349/1/50 347/1/49
f 347/1/2 315/1/2 331/1/2
f 350/1/50 351/1/51 349/1/50
f 352/1/51 305/1/6 351/1/51
f 314/1/4 346/1/4 330/1/4
f 184/1/7 186/1/5 185/1/5
f 18/1/6 20/1/9 19/1/9
f 174/1/3 176/1/10 175/1/10
f 20/1/9 22/1/14 21/1/14
f 22/1/14 24/1/18 23/1/18
f 326/1/8 328/1/7 327/1/7
f 172/1/19 174/1/3 173/1/3
f 24/1/18 26/1/20 25/1/20
f 182/1/8 184/1/7 183/1/7
f 26/1/20 28/1/19 27/1/19
f 28/1/19 30/1/3 29/1/3
f 30/1/3 32/1/10 31/1/10
f 316/1/19 318/1/3 317/1/3
f 32/1/10 34/1/29 33/1/29
f 34/1/29 36/1/32 35/1/32
f 36/1/32 38/1/8 37/1/8
f 38/1/8 40/1/7 39/1/7
f 40/1/7 42/1/5 41/1/5
f 168/1/18 170/1/20 169/1/20
f 42/1/5 44/1/21 43/1/21
f 44/1/21 46/1/22 45/1/22
f 188/1/21 190/1/22 189/1/22
f 46/1/22 48/1/39 47/1/39
f 48/1/39 50/1/42 49/1/42
f 166/1/14 168/1/18 167/1/18
f 50/1/42 52/1/43 51/1/43
f 51/1/43 52/1/43 54/1/1
f 186/1/5 188/1/21 187/1/21
f 53/1/1 54/1/1 56/1/45
f 56/1/45 58/1/48 57/1/48
f 58/1/48 60/1/49 59/1/49
f 60/1/49 62/1/50 61/1/50
f 22/1/4 20/1/4 18/1/4
f 18/1/4 64/1/4 62/1/4
f 62/1/4 60/1/4 58/1/4
f 58/1/4 56/1/4 54/1/4
f 54/1/4 52/1/4 50/1/4
f 50/1/4 48/1/4 46/1/4
f 46/1/4 44/1/4 42/1/4
f 42/1/4 40/1/4 38/1/4
f 38/1/4 36/1/4 34/1/4
f 34/1/4 32/1/4 30/1/4
f 30/1/4 28/1/4 26/1/4
f 26/1/4 24/1/4 22/1/4
f 22/1/4 18/1/4 62/1/4
f 62/1/4 58/1/4 54/1/4
f 54/1/4 50/1/4 46/1/4
f 46/1/4 42/1/4 38/1/4
f 38/1/4 34/1/4 30/1/4
f 30/1/4 26/1/4 22/1/4
f 22/1/4 62/1/4 54/1/4
f 54/1/4 46/1/4 38/1/4
f 38/1/4 30/1/4 22/1/4
f 62/1/50 64/1/51 63/1/51
f 64/1/51 18/1/6 17/1/6
f 63/1/2 17/1/2 19/1/2
f 19/1/2 21/1/2 23/1/2
f 23/1/2 25/1/2 27/1/2
f 27/1/2 29/1/2 31/1/2
f 31/1/2 33/1/2 35/1/2
f 35/1/2 37/1/2 39/1/2
f 39/1/2 41/1/2 43/1/2
f 43/1/2 45/1/2 47/1/2
f 47/1/2 49/1/2 51/1/2
f 51/1/2 53/1/2 55/1/2
f 55/1/2 57/1/2 59/1/2
f 59/1/2 61/1/2 63/1/2
f 63/1/2 19/1/2 23/1/2
f 23/1/2 27/1/2 31/1/2
f 31/1/2 35/1/2 39/1/2
f 39/1/2 43/1/2 47/1/2
f 47/1/2 51/1/2 55/1/2
f 55/1/2 59/1/2 63/1/2
f 63/1/2 23/1/2 31/1/2
f 31/1/2 39/1/2 47/1/2
f 47/1/2 55/1/2 63/1/2
f 332/1/21 334/1/22 333/1/22
f 170/1/20 172/1/19 171/1/19
f 312/1/18 314/1/20 313/1/20
f 180/1/32 182/1/8 181/1/8
f 164/1/9 166/1/14 165/1/14
f 178/1/29 180/1/32 179/1/32
f 162/1/6 164/1/9 163/1/9
f 328/1/7 330/1/5 329/1/5
f 190/1/22 192/1/39 191/1/39
f 176/1/10 178/1/29 177/1/29
f 192/1/39 194/1/42 193/1/42
f 310/1/14 312/1/18 311/1/18
f 194/1/42 196/1/43 195/1/43
f 195/1/43 196/1/43 198/1/1
f 330/1/5 332/1/21 331/1/21
f 197/1/1 198/1/1 200/1/45
f 200/1/45 202/1/48 201/1/48
f 202/1/48 204/1/49 203/1/49
f 204/1/49 206/1/50 205/1/50
f 167/1/2 169/1/2 171/1/2
f 171/1/2 173/1/2 175/1/2
f 175/1/2 177/1/2 179/1/2
f 179/1/2 181/1/2 183/1/2
f 183/1/2 185/1/2 187/1/2
f 187/1/2 189/1/2 191/1/2
f 191/1/2 193/1/2 195/1/2
f 195/1/2 197/1/2 199/1/2
f 199/1/2 201/1/2 203/1/2
f 203/1/2 205/1/2 207/1/2
f 207/1/2 161/1/2 163/1/2
f 163/1/2 165/1/2 167/1/2
f 167/1/2 171/1/2 175/1/2
f 175/1/2 179/1/2 183/1/2
f 183/1/2 187/1/2 191/1/2
f 191/1/2 195/1/2 199/1/2
f 199/1/2 203/1/2 207/1/2
f 207/1/2 163/1/2 167/1/2
f 167/1/2 175/1/2 183/1/2
f 183/1/2 191/1/2 199/1/2
f 199/1/2 207/1/2 167/1/2
f 206/1/50 208/1/51 207/1/51
f 318/1/3 320/1/10 319/1/10
f 208/1/51 162/1/6 161/1/6
f 192/1/4 190/1/4 188/1/4
f 188/1/4 186/1/4 184/1/4
f 184/1/4 182/1/4 180/1/4
f 180/1/4 178/1/4 176/1/4
f 176/1/4 174/1/4 172/1/4
f 172/1/4 170/1/4 168/1/4
f 168/1/4 166/1/4 164/1/4
f 164/1/4 162/1/4 208/1/4
f 208/1/4 206/1/4 204/1/4
f 204/1/4 202/1/4 200/1/4
f 200/1/4 198/1/4 196/1/4
f 196/1/4 194/1/4 192/1/4
f 192/1/4 188/1/4 184/1/4
f 184/1/4 180/1/4 176/1/4
f 176/1/4 172/1/4 168/1/4
f 168/1/4 164/1/4 208/1/4
f 208/1/4 204/1/4 200/1/4
f 200/1/4 196/1/4 192/1/4
f 192/1/4 184/1/4 176/1/4
f 176/1/4 168/1/4 208/1/4
f 208/1/4 200/1/4 192/1/4
f 314/1/20 316/1/19 315/1/19
f 324/1/32 326/1/8 325/1/8
f 308/1/9 310/1/14 309/1/14
f 322/1/29 324/1/32 323/1/32
f 306/1/6 308/1/9 307/1/9
f 334/1/22 336/1/39 335/1/39
f 320/1/10 322/1/29 321/1/29
f 336/1/39 338/1/42 337/1/42
f 338/1/42 340/1/43 339/1/43
f 339/1/43 340/1/43 342/1/1
f 341/1/1 342/1/1 344/1/45
f 344/1/45 346/1/48 345/1/48
f 346/1/48 348/1/49 347/1/49
f 348/1/49 350/1/50 349/1/50
f 331/1/2 333/1/2 335/1/2
f 335/1/2 337/1/2 339/1/2
f 339/1/2 341/1/2 343/1/2
f 343/1/2 345/1/2 347/1/2
f 347/1/2 349/1/2 351/1/2
f 351/1/2 305/1/2 307/1/2
f 307/1/2 309/1/2 311/1/2
f 311/1/2 313/1/2 315/1/2
f 315/1/2 317/1/2 319/1/2
f 319/1/2 321/1/2 323/1/2
f 323/1/2 325/1/2 327/1/2
f 327/1/2 329/1/2 331/1/2
f 331/1/2 335/1/2 339/1/2
f 339/1/2 343/1/2 347/1/2
f 347/1/2 351/1/2 307/1/2
f 307/1/2 311/1/2 315/1/2
f 315/1/2 319/1/2 323/1/2
f 323/1/2 327/1/2 331/1/2
f 331/1/2 339/1/2 347/1/2
f 347/1/2 307/1/2 315/1/2
f 315/1/2 323/1/2 331/1/2
f 350/1/50 352/1/51 351/1/51
f 352/1/51 306/1/6 305/1/6
f 330/1/4 328/1/4 326/1/4
f 326/1/4 324/1/4 322/1/4
f 322/1/4 320/1/4 318/1/4
f 318/1/4 316/1/4 314/1/4
f 314/1/4 312/1/4 310/1/4
f 310/1/4 308/1/4 306/1/4
f 306/1/4 352/1/4 350/1/4
f 350/1/4 348/1/4 346/1/4
f 346/1/4 344/1/4 342/1/4
f 342/1/4 340/1/4 338/1/4
f 338/1/4 336/1/4 334/1/4
f 334/1/4 332/1/4 330/1/4
f 330/1/4 326/1/4 322/1/4
f 322/1/4 318/1/4 314/1/4
f 314/1/4 310/1/4 306/1/4
f 306/1/4 350/1/4 346/1/4
f 346/1/4 342/1/4 338/1/4
f 338/1/4 334/1/4 330/1/4
f 330/1/4 322/1/4 314/1/4
f 314/1/4 306/1/4 346/1/4
f 346/1/4 338/1/4 330/1/4
usemtl m3
f 138/1/11 139/1/12 137/1/13
f 118/1/15 119/1/16 117/1/17
f 78/1/3 79/1/10 77/1/3
f 92/1/21 93/1/22 91/1/21
f 76/1/19 77/1/3 75/1/19
f 133/1/23 136/1/24 135/1/25
f 124/1/26 125/1/27 123/1/28
f 90/1/5 91/1/21 89/1/5
f 74/1/20 75/1/19 73/1/20
f 376/1/7 377/1/5 375/1/7
f 88/1/7 89/1/5 87/1/7
f 140/1/35 141/1/36 139/1/12
f 120/1/37 121/1/38 119/1/16
f 72/1/18 73/1/20 71/1/18
f 358/1/14 359/1/18 357/1/14
f 86/1/8 87/1/7 85/1/8
f 70/1/14 71/1/18 69/1/14
f 135/1/25 138/1/11 137/1/13
f 126/1/40 127/1/41 125/1/27
f 84/1/32 85/1/8 83/1/32
f 68/1/9 69/1/14 67/1/9
f 82/1/29 83/1/32 81/1/29
f 121/1/38 124/1/26 123/1/28
f 66/1/6 67/1/9 65/1/6
f 94/1/22 95/1/39 93/1/22
f 80/1/10 81/1/29 79/1/10
f 96/1/39 97/1/42 95/1/39
f 132/1/52 133/1/23 131/1/53
f 97/1/42 100/1/43 99/1/43
f 116/1/54 117/1/17 115/1/55
f 100/1/43 101/1/1 99/1/43
f 102/1/1 103/1/45 101/1/1
f 129/1/56 132/1/52 131/1/53
f 103/1/45 106/1/48 105/1/48
f 114/1/57 115/1/55 113/1/58
f 106/1/48 107/1/49 105/1/48
f 108/1/49 109/1/50 107/1/49
f 68/1/4 100/1/4 84/1/4
f 110/1/50 111/1/51 109/1/50
f 142/1/60 143/1/61 141/1/36
f 127/1/41 130/1/62 129/1/56
f 112/1/51 65/1/6 111/1/51
f 109/1/2 77/1/2 93/1/2
f 144/1/63 145/1/64 143/1/61
f 145/1/64 148/1/65 147/1/66
f 407/1/16 410/1/33 409/1/38
f 147/1/66 150/1/67 149/1/68
f 149/1/68 152/1/69 151/1/70
f 151/1/70 154/1/71 153/1/72
f 422/1/30 423/1/25 421/1/31
f 154/1/71 155/1/73 153/1/72
f 155/1/73 158/1/74 157/1/75
f 154/1/71 138/1/11 122/1/33
f 374/1/8 375/1/7 373/1/8
f 158/1/74 159/1/76 157/1/75
f 160/1/77 113/1/58 159/1/76
f 147/1/2 115/1/2 131/1/2
f 412/1/26 413/1/44 411/1/78
f 360/1/18 361/1/20 359/1/18
f 406/1/46 407/1/16 405/1/79
f 364/1/19 365/1/3 363/1/19
f 427/1/12 430/1/80 429/1/36
f 380/1/21 381/1/22 379/1/21
f 423/1/25 426/1/11 425/1/13
f 378/1/5 379/1/21 377/1/5
f 414/1/40 415/1/83 413/1/44
f 366/1/3 367/1/10 365/1/3
f 382/1/22 383/1/39 381/1/22
f 368/1/10 369/1/29 367/1/10
f 362/1/20 363/1/19 361/1/20
f 372/1/32 373/1/8 371/1/32
f 356/1/9 357/1/14 355/1/9
f 370/1/29 371/1/32 369/1/29
f 354/1/6 355/1/9 353/1/6
f 410/1/33 411/1/78 409/1/38
f 426/1/11 427/1/12 425/1/13
f 384/1/39 385/1/42 383/1/39
f 419/1/53 422/1/30 421/1/31
f 385/1/42 388/1/43 387/1/43
f 403/1/55 406/1/46 405/1/79
f 388/1/43 389/1/1 387/1/43
f 390/1/1 391/1/45 389/1/1
f 418/1/88 419/1/53 417/1/82
f 392/1/45 393/1/48 391/1/45
f 402/1/57 403/1/55 401/1/58
f 394/1/48 395/1/49 393/1/48
f 396/1/49 397/1/50 395/1/49
f 368/1/4 400/1/4 384/1/4
f 398/1/50 399/1/51 397/1/50
f 429/1/36 432/1/63 431/1/61
f 416/1/59 417/1/82 415/1/83
f 400/1/51 353/1/6 399/1/51
f 379/1/2 395/1/2 363/1/2
f 431/1/61 434/1/89 433/1/90
f 433/1/90 436/1/65 435/1/66
f 435/1/66 438/1/67 437/1/68
f 437/1/68 440/1/69 439/1/84
f 440/1/69 441/1/85 439/1/84
f 442/1/91 443/1/73 441/1/85
f 443/1/73 446/1/74 445/1/92
f 448/1/77 432/1/63 416/1/59
f 446/1/74 447/1/93 445/1/92
f 447/1/93 402/1/57 401/1/58
f 441/1/2 409/1/2 425/1/2
f 138/1/11 140/1/35 139/1/12
f 118/1/15 120/1/37 119/1/16
f 78/1/3 80/1/10 79/1/10
f 92/1/21 94/1/22 93/1/22
f 76/1/19 78/1/3 77/1/3
f 133/1/23 134/1/94 136/1/24
f 124/1/26 126/1/40 125/1/27
f 90/1/5 92/1/21 91/1/21
f 74/1/20 76/1/19 75/1/19
f 376/1/7 378/1/5 377/1/5
f 88/1/7 90/1/5 89/1/5
f 140/1/35 142/1/60 141/1/36
f 120/1/37 122/1/33 121/1/38
f 72/1/18 74/1/20 73/1/20
f 358/1/14 360/1/18 359/1/18
f 86/1/8 88/1/7 87/1/7
f 70/1/14 72/1/18 71/1/18
f 135/1/25 136/1/24 138/1/11
f 126/1/40 128/1/59 127/1/41
f 84/1/32 86/1/8 85/1/8
f 68/1/9 70/1/14 69/1/14
f 82/1/29 84/1/32 83/1/32
f 121/1/38 122/1/33 124/1/26
f 66/1/6 68/1/9 67/1/9
f 94/1/22 96/1/39 95/1/39
f 80/1/10 82/1/29 81/1/29
f 96/1/39 98/1/42 97/1/42
f 132/1/52 134/1/94 133/1/23
f 97/1/42 98/1/42 100/1/43
f 116/1/54 118/1/15 117/1/17
f 100/1/43 102/1/1 101/1/1
f 102/1/1 104/1/45 103/1/45
f 129/1/56 130/1/62 132/1/52
f 103/1/45 104/1/45 106/1/48
f 114/1/57 116/1/54 115/1/55
f 106/1/48 108/1/49 107/1/49
f 108/1/49 110/1/50 109/1/50
f 84/1/4 82/1/4 80/1/4
f 80/1/4 78/1/4 76/1/4
f 76/1/4 74/1/4 72/1/4
f 72/1/4 70/1/4 68/1/4
f 68/1/4 66/1/4 112/1/4
f 112/1/4 110/1/4 108/1/4
f 108/1/4 106/1/4 104/1/4
f 104/1/4 102/1/4 100/1/4
f 100/1/4 98/1/4 96/1/4
f 96/1/4 94/1/4 92/1/4
f 92/1/4 90/1/4 88/1/4
f 88/1/4 86/1/4 84/1/4
f 84/1/4 80/1/4 76/1/4
f 76/1/4 72/1/4 68/1/4
f 68/1/4 112/1/4 108/1/4
f 108/1/4 104/1/4 100/1/4
f 100/1/4 96/1/4 92/1/4
f 92/1/4 88/1/4 84/1/4
f 84/1/4 76/1/4 68/1/4
f 68/1/4 108/1/4 100/1/4
f 100/1/4 92/1/4 84/1/4
f 110/1/50 112/1/51 111/1/51
f 142/1/60 144/1/63 143/1/61
f 127/1/41 128/1/59 130/1/62
f 112/1/51 66/1/6 65/1/6
f 93/1/2 95/1/2 97/1/2
f 97/1/2 99/1/2 101/1/2
f 101/1/2 103/1/2 105/1/2
f 105/1/2 107/1/2 109/1/2
f 109/1/2 111/1/2 65/1/2
f 65/1/2 67/1/2 69/1/2
f 69/1/2 71/1/2 73/1/2
f 73/1/2 75/1/2 77/1/2
f 77/1/2 79/1/2 81/1/2
f 81/1/2 83/1/2 85/1/2
f 85/1/2 87/1/2 89/1/2
f 89/1/2 91/1/2 93/1/2
f 93/1/2 97/1/2 101/1/2
f 101/1/2 105/1/2 109/1/2
f 109/1/2 65/1/2 69/1/2
f 69/1/2 73/1/2 77/1/2
f 77/1/2 81/1/2 85/1/2
f 85/1/2 89/1/2 93/1/2
f 93/1/2 101/1/2 109/1/2
f 109/1/2 69/1/2 77/1/2
f 77/1/2 85/1/2 93/1/2
f 144/1/63 146/1/89 145/1/64
f 145/1/64 146/1/89 148/1/65
f 407/1/16 408/1/37 410/1/33
f 147/1/66 148/1/65 150/1/67
f 149/1/68 150/1/67 152/1/69
f 151/1/70 152/1/69 154/1/71
f 422/1/30 424/1/24 423/1/25
f 154/1/71 156/1/86 155/1/73
f 155/1/73 156/1/86 158/1/74
f 122/1/33 120/1/37 118/1/15
f 118/1/15 116/1/54 114/1/57
f 114/1/57 160/1/77 158/1/74
f 158/1/74 156/1/86 154/1/71
f 154/1/71 152/1/69 150/1/67
f 150/1/67 148/1/65 146/1/89
f 146/1/89 144/1/63 142/1/60
f 142/1/60 140/1/35 138/1/11
f 138/1/11 136/1/24 134/1/94
f 134/1/94 132/1/52 130/1/62
f 130/1/62 128/1/59 126/1/40
f 126/1/40 124/1/26 122/1/33
f 122/1/33 118/1/15 114/1/57
f 114/1/57 158/1/74 154/1/71
f 154/1/71 150/1/67 146/1/89
f 146/1/89 142/1/60 138/1/11
f 138/1/11 134/1/94 130/1/62
f 130/1/62 126/1/40 122/1/33
f 122/1/33 114/1/57 154/1/71
f 154/1/71 146/1/89 138/1/11
f 138/1/11 130/1/62 122/1/33
f 374/1/8 376/1/7 375/1/7
f 158/1/74 160/1/77 159/1/76
f 160/1/77 114/1/57 113/1/58
f 131/1/2 133/1/2 135/1/2
f 135/1/2 137/1/2 139/1/2
f 139/1/2 141/1/2 143/1/2
f 143/1/2 145/1/2 147/1/2
f 147/1/2 149/1/2 151/1/2
f 151/1/2 153/1/2 155/1/2
f 155/1/2 157/1/2 159/1/2
f 159/1/2 113/1/2 115/1/2
f 115/1/2 117/1/2 119/1/2
f 119/1/2 121/1/2 123/1/2
f 123/1/2 125/1/2 127/1/2
f 127/1/2 129/1/2 131/1/2
f 131/1/2 135/1/2 139/1/2
f 139/1/2 143/1/2 147/1/2
f 147/1/2 151/1/2 155/1/2
f 155/1/2 159/1/2 115/1/2
f 115/1/2 119/1/2 123/1/2
f 123/1/2 127/1/2 131/1/2
f 131/1/2 139/1/2 147/1/2
f 147/1/2 155/1/2 115/1/2
f 115/1/2 123/1/2 131/1/2
f 412/1/26 414/1/40 413/1/44
f 360/1/18 362/1/20 361/1/20
f 406/1/46 408/1/37 407/1/16
f 364/1/19 366/1/3 365/1/3
f 427/1/12 428/1/35 430/1/80
f 380/1/21 382/1/22 381/1/22
f 423/1/25 424/1/24 426/1/11
f 378/1/5 380/1/21 379/1/21
f 414/1/40 416/1/59 415/1/83
f 366/1/3 368/1/10 367/1/10
f 382/1/22 384/1/39 383/1/39
f 368/1/10 370/1/29 369/1/29
f 362/1/20 364/1/19 363/1/19
f 372/1/32 374/1/8 373/1/8
f 356/1/9 358/1/14 357/1/14
f 370/1/29 372/1/32 371/1/32
f 354/1/6 356/1/9 355/1/9
f 410/1/33 412/1/26 411/1/78
f 426/1/11 428/1/35 427/1/12
f 384/1/39 386/1/42 385/1/42
f 419/1/53 420/1/52 422/1/30
f 385/1/42 386/1/42 388/1/43
f 403/1/55 404/1/54 406/1/46
f 388/1/43 390/1/1 389/1/1
f 390/1/1 392/1/45 391/1/45
f 418/1/88 420/1/52 419/1/53
f 392/1/45 394/1/48 393/1/48
f 402/1/57 404/1/54 403/1/55
f 394/1/48 396/1/49 395/1/49
f 396/1/49 398/1/50 397/1/50
f 384/1/4 382/1/4 380/1/4
f 380/1/4 378/1/4 376/1/4
f 376/1/4 374/1/4 372/1/4
f 372/1/4 370/1/4 368/1/4
f 368/1/4 366/1/4 364/1/4
f 364/1/4 362/1/4 360/1/4
f 360/1/4 358/1/4 356/1/4
f 356/1/4 354/1/4 400/1/4
f 400/1/4 398/1/4 396/1/4
f 396/1/4 394/1/4 392/1/4
f 392/1/4 390/1/4 388/1/4
f 388/1/4 386/1/4 384/1/4
f 384/1/4 380/1/4 376/1/4
f 376/1/4 372/1/4 368/1/4
f 368/1/4 364/1/4 360/1/4
f 360/1/4 356/1/4 400/1/4
f 400/1/4 396/1/4 392/1/4
f 392/1/4 388/1/4 384/1/4
f 384/1/4 376/1/4 368/1/4
f 368/1/4 360/1/4 400/1/4
f 400/1/4 392/1/4 384/1/4
f 398/1/50 400/1/51 399/1/51
f 429/1/36 430/1/80 432/1/63
f 416/1/59 418/1/88 417/1/82
f 400/1/51 354/1/6 353/1/6
f 363/1/2 365/1/2 367/1/2
f 367/1/2 369/1/2 371/1/2
f 371/1/2 373/1/2 375/1/2
f 375/1/2 377/1/2 379/1/2
f 379/1/2 381/1/2 383/1/2
f 383/1/2 385/1/2 387/1/2
f 387/1/2 389/1/2 391/1/2
f 391/1/2 393/1/2 395/1/2
f 395/1/2 397/1/2 399/1/2
f 399/1/2 353/1/2 355/1/2
f 355/1/2 357/1/2 359/1/2
f 359/1/2 361/1/2 363/1/2
f 363/1/2 367/1/2 371/1/2
f 371/1/2 375/1/2 379/1/2
f 379/1/2 383/1/2 387/1/2
f 387/1/2 391/1/2 395/1/2
f 395/1/2 399/1/2 355/1/2
f 355/1/2 359/1/2 363/1/2
f 363/1/2 371/1/2 379/1/2
f 379/1/2 387/1/2 395/1/2
f 395/1/2 355/1/2 363/1/2
f 431/1/61 432/1/63 434/1/89
f 433/1/90 434/1/89 436/1/65
f 435/1/66 436/1/65 438/1/67
f 437/1/68 438/1/67 440/1/69
f 440/1/69 442/1/91 441/1/85
f 442/1/91 444/1/86 443/1/73
f 443/1/73 444/1/86 446/1/74
f 416/1/59 414/1/40 412/1/26
f 412/1/26 410/1/33 408/1/37
f 408/1/37 406/1/46 404/1/54
f 404/1/54 402/1/57 448/1/77
f 448/1/77 446/1/74 444/1/86
f 444/1/86 442/1/91 440/1/69
f 440/1/69 438/1/67 436/1/65
f 436/1/65 434/1/89 432/1/63
f 432/1/63 430/1/80 428/1/35
f 428/1/35 426/1/11 424/1/24
f 424/1/24 422/1/30 420/1/52
f 420/1/52 418/1/88 416/1/59
f 416/1/59 412/1/26 408/1/37
f 408/1/37 404/1/54 448/1/77
f 448/1/77 444/1/86 440/1/69
f 440/1/69 436/1/65 432/1/63
f 432/1/63 428/1/35 424/1/24
f 424/1/24 420/1/52 416/1/59
f 416/1/59 408/1/37 448/1/77
f 448/1/77 440/1/69 432/1/63
f 432/1/63 424/1/24 416/1/59
f 446/1/74 448/1/77 447/1/93
f 447/1/93 448/1/77 402/1/57
f 425/1/2 427/1/2 429/1/2
f 429/1/2 431/1/2 433/1/2
f 433/1/2 435/1/2 437/1/2
f 437/1/2 439/1/2 441/1/2
f 441/1/2 443/1/2 445/1/2
f 445/1/2 447/1/2 401/1/2
f 401/1/2 403/1/2 405/1/2
f 405/1/2 407/1/2 409/1/2
f 409/1/2 411/1/2 413/1/2
f 413/1/2 415/1/2 417/1/2
f 417/1/2 419/1/2 421/1/2
f 421/1/2 423/1/2 425/1/2
f 425/1/2 429/1/2 433/1/2
f 433/1/2 437/1/2 441/1/2
f 441/1/2 445/1/2 401/1/2
f 401/1/2 405/1/2 409/1/2
f 409/1/2 413/1/2 417/1/2
f 417/1/2 421/1/2 425/1/2
f 425/1/2 433/1/2 441/1/2
f 441/1/2 401/1/2 409/1/2
f 409/1/2 417/1/2 425/1/2
usemtl m4
f 230/1/8 231/1/7 229/1/8
f 214/1/14 215/1/18 213/1/14
f 278/1/30 279/1/25 277/1/31
f 263/1/16 266/1/33 265/1/34
f 232/1/7 233/1/5 231/1/7
f 268/1/26 269/1/44 267/1/28
f 216/1/18 217/1/20 215/1/18
f 262/1/46 263/1/16 261/1/47
f 220/1/19 221/1/3 219/1/19
f 284/1/35 285/1/36 283/1/12
f 236/1/21 237/1/22 235/1/21
f 279/1/25 282/1/11 281/1/13
f 234/1/5 235/1/21 233/1/5
f 269/1/44 272/1/59 271/1/41
f 222/1/3 223/1/10 221/1/3
f 238/1/22 239/1/39 237/1/22
f 224/1/10 225/1/29 223/1/10
f 218/1/20 219/1/19 217/1/20
f 228/1/32 229/1/8 227/1/32
f 212/1/9 213/1/14 211/1/9
f 226/1/29 227/1/32 225/1/29
f 210/1/6 211/1/9 209/1/6
f 265/1/34 268/1/26 267/1/28
f 282/1/11 283/1/12 281/1/13
f 240/1/39 241/1/42 239/1/39
f 275/1/81 278/1/30 277/1/31
f 241/1/42 244/1/43 243/1/43
f 259/1/55 262/1/46 261/1/47
f 244/1/43 245/1/1 243/1/43
f 246/1/1 247/1/45 245/1/1
f 273/1/82 276/1/52 275/1/81
f 247/1/45 250/1/48 249/1/48
f 257/1/58 260/1/54 259/1/55
f 250/1/48 251/1/49 249/1/48
f 252/1/49 253/1/50 251/1/49
f 210/1/4 242/1/4 226/1/4
f 254/1/50 255/1/51 253/1/50
f 285/1/36 288/1/63 287/1/61
f 272/1/59 273/1/82 271/1/41
f 256/1/51 209/1/6 255/1/51
f 235/1/2 251/1/2 219/1/2
f 288/1/63 289/1/64 287/1/61
f 289/1/64 292/1/65 291/1/66
f 291/1/66 294/1/67 293/1/68
f 293/1/68 296/1/69 295/1/84
f 296/1/69 297/1/85 295/1/84
f 297/1/85 300/1/86 299/1/73
f 300/1/86 301/1/75 299/1/73
f 304/1/77 288/1/63 272/1/59
f 302/1/87 303/1/76 301/1/75
f 303/1/76 258/1/57 257/1/58
f 297/1/2 265/1/2 281/1/2
f 230/1/8 232/1/7 231/1/7
f 214/1/14 216/1/18 215/1/18
f 278/1/30 280/1/24 279/1/25
f 263/1/16 264/1/37 266/1/33
f 232/1/7 234/1/5 233/1/5
f 268/1/26 270/1/40 269/1/44
f 216/1/18 218/1/20 217/1/20
f 262/1/46 264/1/37 263/1/16
f 220/1/19 222/1/3 221/1/3
f 284/1/35 286/1/60 285/1/36
f 236/1/21 238/1/22 237/1/22
f 279/1/25 280/1/24 282/1/11
f 234/1/5 236/1/21 235/1/21
f 269/1/44 270/1/40 272/1/59
f 222/1/3 224/1/10 223/1/10
f 238/1/22 240/1/39 239/1/39
f 224/1/10 226/1/29 225/1/29
f 218/1/20 220/1/19 219/1/19
f 228/1/32 230/1/8 229/1/8
f 212/1/9 214/1/14 213/1/14
f 226/1/29 228/1/32 227/1/32
f 210/1/6 212/1/9 211/1/9
f 265/1/34 266/1/33 268/1/26
f 282/1/11 284/1/35 283/1/12
f 240/1/39 242/1/42 241/1/42
f 275/1/81 276/1/52 278/1/30
f 241/1/42 242/1/42 244/1/43
f 259/1/55 260/1/54 262/1/46
f 244/1/43 246/1/1 245/1/1
f 246/1/1 248/1/45 247/1/45
f 273/1/82 274/1/88 276/1/52
f 247/1/45 248/1/45 250/1/48
f 257/1/58 258/1/57 260/1/54
f 250/1/48 252/1/49 251/1/49
f 252/1/49 254/1/50 253/1/50
f 226/1/4 224/1/4 222/1/4
f 222/1/4 220/1/4 218/1/4
f 218/1/4 216/1/4 214/1/4
f 214/1/4 212/1/4 210/1/4
f 210/1/4 256/1/4 254/1/4
f 254/1/4 252/1/4 250/1/4
f 250/1/4 248/1/4 246/1/4
f 246/1/4 244/1/4 242/1/4
f 242/1/4 240/1/4 238/1/4
f 238/1/4 236/1/4 234/1/4
f 234/1/4 232/1/4 230/1/4
f 230/1/4 228/1/4 226/1/4
f 226/1/4 222/1/4 218/1/4
f 218/1/4 214/1/4 210/1/4
f 210/1/4 254/1/4 250/1/4
f 250/1/4 246/1/4 242/1/4
f 242/1/4 238/1/4 234/1/4
f 234/1/4 230/1/4 226/1/4
f 226/1/4 218/1/4 210/1/4
f 210/1/4 250/1/4 242/1/4
f 242/1/4 234/1/4 226/1/4
f 254/1/50 256/1/51 255/1/51
f 285/1/36 286/1/60 288/1/63
f 272/1/59 274/1/88 273/1/82
f 256/1/51 210/1/6 209/1/6
f 219/1/2 221/1/2 223/1/2
f 223/1/2 225/1/2 227/1/2
f 227/1/2 229/1/2 231/1/2
f 231/1/2 233/1/2 235/1/2
f 235/1/2 237/1/2 239/1/2
f 239/1/2 241/1/2 243/1/2
f 243/1/2 245/1/2 247/1/2
f 247/1/2 249/1/2 251/1/2
f 251/1/2 253/1/2 255/1/2
f 255/1/2 209/1/2 211/1/2
f 211/1/2 213/1/2 215/1/2
f 215/1/2 217/1/2 219/1/2
f 219/1/2 223/1/2 227/1/2
f 227/1/2 231/1/2 235/1/2
f 235/1/2 239/1/2 243/1/2
f 243/1/2 247/1/2 251/1/2
f 251/1/2 255/1/2 211/1/2
f 211/1/2 215/1/2 219/1/2
f 219/1/2 227/1/2 235/1/2
f 235/1/2 243/1/2 251/1/2
f 251/1/2 211/1/2 219/1/2
f 288/1/63 290/1/89 289/1/64
f 289/1/64 290/1/89 292/1/65
f 291/1/66 292/1/65 294/1/67
f 293/1/68 294/1/67 296/1/69
f 296/1/69 298/1/91 297/1/85
f 297/1/85 298/1/91 300/1/86
f 300/1/86 302/1/87 301/1/75
f 272/1/59 270/1/40 268/1/26
f 268/1/26 266/1/33 264/1/37
f 264/1/37 262/1/46 260/1/54
f 260/1/54 258/1/57 304/1/77
f 304/1/77 302/1/87 300/1/86
f 300/1/86 298/1/91 296/1/69
f 296/1/69 294/1/67 292/1/65
f 292/1/65 290/1/89 288/1/63
f 288/1/63 286/1/60 284/1/35
f 284/1/35 282/1/11 280/1/24
f 280/1/24 278/1/30 276/1/52
f 276/1/52 274/1/88 272/1/59
f 272/1/59 268/1/26 264/1/37
f 264/1/37 260/1/54 304/1/77
f 304/1/77 300/1/86 296/1/69
f 296/1/69 292/1/65 288/1/63
f 288/1/63 284/1/35 280/1/24
f 280/1/24 276/1/52 272/1/59
f 272/1/59 264/1/37 304/1/77
f 304/1/77 296/1/69 288/1/63
f 288/1/63 280/1/24 272/1/59
f 302/1/87 304/1/77 303/1/76
f 303/1/76 304/1/77 258/1/57
f 281/1/2 283/1/2 285/1/2
f 285/1/2 287/1/2 289/1/2
f 289/1/2 291/1/2 293/1/2
f 293/1/2 295/1/2 297/1/2
f 297/1/2 299/1/2 301/1/2
f 301/1/2 303/1/2 257/1/2
f 257/1/2 259/1/2 261/1/2
f 261/1/2 263/1/2 265/1/2
f 265/1/2 267/1/2 269/1/2
f 269/1/2 271/1/2 273/1/2
f 273/1/2 275/1/2 277/1/2
f 277/1/2 279/1/2 281/1/2
f 281/1/2 285/1/2 289/1/2
f 289/1/2 293/1/2 297/1/2
f 297/1/2 301/1/2 257/1/2
f 257/1/2 261/1/2 265/1/2
f 265/1/2 269/1/2 273/1/2
f 273/1/2 277/1/2 281/1/2
f 281/1/2 289/1/2 297/1/2
f 297/1/2 257/1/2 265/1/2
f 265/1/2 273/1/2 281/1/2
