<?xml version="1.0" encoding="UTF-8" standalone="no"?>
<!DOCTYPE svg PUBLIC "-//W3C//DTD SVG 1.1//EN"
 "http://www.w3.org/Graphics/SVG/1.1/DTD/svg11.dtd">
<!-- Generated by graphviz version 2.42.4 (0)
 -->
<!-- Title: G Pages: 1 -->
<svg width="1036pt" height="374pt"
 viewBox="0.00 0.00 1036.20 374.20" xmlns="http://www.w3.org/2000/svg" xmlns:xlink="http://www.w3.org/1999/xlink">
<g id="graph0" class="graph" transform="scale(1 1) rotate(0) translate(21.6 352.6)">
<title>G</title>
<polygon fill="white" stroke="transparent" points="-21.6,21.6 -21.6,-352.6 1014.6,-352.6 1014.6,21.6 -21.6,21.6"/>
<!-- SITE -->
<g id="node1" class="node">
<title>SITE</title>
<path fill="#eef3e8" stroke="#647c41" stroke-width="1.2" d="M414.5,-201C414.5,-201 301.5,-201 301.5,-201 295.5,-201 289.5,-195 289.5,-189 289.5,-189 289.5,-167 289.5,-167 289.5,-161 295.5,-155 301.5,-155 301.5,-155 414.5,-155 414.5,-155 420.5,-155 426.5,-161 426.5,-167 426.5,-167 426.5,-189 426.5,-189 426.5,-195 420.5,-201 414.5,-201"/>
<text text-anchor="middle" x="358" y="-181.6" font-family="NanumGothic" font-size="13.00" fill="#18314a">SiteBundleVersion</text>
<text text-anchor="middle" x="358" y="-167.6" font-family="NanumGothic" font-size="13.00" fill="#18314a">실물·좌표·형상·연결</text>
</g>
<!-- RUN -->
<g id="node5" class="node">
<title>RUN</title>
<path fill="#eff3f8" stroke="#496a8c" stroke-width="1.2" d="M740,-183C740,-183 555,-183 555,-183 549,-183 543,-177 543,-171 543,-171 543,-149 543,-149 543,-143 549,-137 555,-137 555,-137 740,-137 740,-137 746,-137 752,-143 752,-149 752,-149 752,-171 752,-171 752,-177 746,-183 740,-183"/>
<text text-anchor="middle" x="647.5" y="-163.6" font-family="NanumGothic" font-size="13.00" fill="#18314a">Run</text>
<text text-anchor="middle" x="647.5" y="-149.6" font-family="NanumGothic" font-size="13.00" fill="#18314a">고정 inputHash · parent cutoff</text>
</g>
<!-- SITE&#45;&gt;RUN -->
<g id="edge1" class="edge">
<title>SITE&#45;&gt;RUN</title>
<path fill="none" stroke="#718397" stroke-width="1.1" d="M426.77,-173.76C459.22,-171.73 498.92,-169.24 535.6,-166.94"/>
<polygon fill="#718397" stroke="#718397" stroke-width="1.1" points="536.06,-169.37 542.9,-166.49 535.76,-164.48 536.06,-169.37"/>
<text text-anchor="middle" x="494.5" y="-175" font-family="NanumGothic" font-size="10.00" fill="#475a6e">pinned input</text>
</g>
<!-- RULE -->
<g id="node2" class="node">
<title>RULE</title>
<path fill="#eef3e8" stroke="#647c41" stroke-width="1.2" d="M434,-130C434,-130 282,-130 282,-130 276,-130 270,-124 270,-118 270,-118 270,-96 270,-96 270,-90 276,-84 282,-84 282,-84 434,-84 434,-84 440,-84 446,-90 446,-96 446,-96 446,-118 446,-118 446,-124 440,-130 434,-130"/>
<text text-anchor="middle" x="358" y="-110.6" font-family="NanumGothic" font-size="13.00" fill="#18314a">RuleBundle / ModelLock</text>
<text text-anchor="middle" x="358" y="-96.6" font-family="NanumGothic" font-size="13.00" fill="#18314a">판본·가정·적용범위</text>
</g>
<!-- RULE&#45;&gt;RUN -->
<g id="edge2" class="edge">
<title>RULE&#45;&gt;RUN</title>
<path fill="none" stroke="#718397" stroke-width="1.1" d="M446.04,-123.05C474.27,-128.25 505.97,-134.09 535.69,-139.57"/>
<polygon fill="#718397" stroke="#718397" stroke-width="1.1" points="535.47,-142.02 542.8,-140.88 536.36,-137.2 535.47,-142.02"/>
<text text-anchor="middle" x="494.5" y="-140" font-family="NanumGothic" font-size="10.00" fill="#475a6e">pinned input</text>
</g>
<!-- SC -->
<g id="node3" class="node">
<title>SC</title>
<path fill="#eef3e8" stroke="#647c41" stroke-width="1.2" d="M414,-272C414,-272 302,-272 302,-272 296,-272 290,-266 290,-260 290,-260 290,-238 290,-238 290,-232 296,-226 302,-226 302,-226 414,-226 414,-226 420,-226 426,-232 426,-238 426,-238 426,-260 426,-260 426,-266 420,-272 414,-272"/>
<text text-anchor="middle" x="358" y="-252.6" font-family="NanumGothic" font-size="13.00" fill="#18314a">ScenarioSpec</text>
<text text-anchor="middle" x="358" y="-238.6" font-family="NanumGothic" font-size="13.00" fill="#18314a">외생 조건·사건 법칙</text>
</g>
<!-- SC&#45;&gt;RUN -->
<g id="edge3" class="edge">
<title>SC&#45;&gt;RUN</title>
<path fill="none" stroke="#718397" stroke-width="1.1" d="M426.04,-228.25C467.63,-215.37 521.33,-198.75 565.32,-185.13"/>
<polygon fill="#718397" stroke="#718397" stroke-width="1.1" points="566.05,-187.47 572.01,-183.06 564.6,-182.79 566.05,-187.47"/>
<text text-anchor="middle" x="494.5" y="-218" font-family="NanumGothic" font-size="10.00" fill="#475a6e">환경</text>
</g>
<!-- PLAN -->
<g id="node4" class="node">
<title>PLAN</title>
<path fill="#eef3e8" stroke="#647c41" stroke-width="1.2" d="M406,-59C406,-59 310,-59 310,-59 304,-59 298,-53 298,-47 298,-47 298,-25 298,-25 298,-19 304,-13 310,-13 310,-13 406,-13 406,-13 412,-13 418,-19 418,-25 418,-25 418,-47 418,-47 418,-53 412,-59 406,-59"/>
<text text-anchor="middle" x="358" y="-39.6" font-family="NanumGothic" font-size="13.00" fill="#18314a">PlanRevision</text>
<text text-anchor="middle" x="358" y="-25.6" font-family="NanumGothic" font-size="13.00" fill="#18314a">작성자 운영 규칙</text>
</g>
<!-- PLAN&#45;&gt;RUN -->
<g id="edge4" class="edge">
<title>PLAN&#45;&gt;RUN</title>
<path fill="none" stroke="#718397" stroke-width="1.1" d="M416.55,-59.15C432.72,-65.66 446,-71 446,-71 446,-71 528.7,-107.71 587.87,-133.98"/>
<polygon fill="#718397" stroke="#718397" stroke-width="1.1" points="587.21,-136.36 594.61,-136.96 589.2,-131.89 587.21,-136.36"/>
<text text-anchor="middle" x="494.5" y="-108" font-family="NanumGothic" font-size="10.00" fill="#475a6e">운영 정책</text>
</g>
<!-- SCRIPT -->
<g id="node9" class="node">
<title>SCRIPT</title>
<path fill="#e7f1ef" stroke="#3d7e70" stroke-width="1.2" d="M962,-61C962,-61 864,-61 864,-61 858,-61 852,-55 852,-49 852,-49 852,-27 852,-27 852,-21 858,-15 864,-15 864,-15 962,-15 962,-15 968,-15 974,-21 974,-27 974,-27 974,-49 974,-49 974,-55 968,-61 962,-61"/>
<text text-anchor="middle" x="913" y="-41.6" font-family="NanumGothic" font-size="13.00" fill="#18314a">ScriptIRRevision</text>
<text text-anchor="middle" x="913" y="-27.6" font-family="NanumGothic" font-size="13.00" fill="#18314a">계획 + 대표 실행</text>
</g>
<!-- PLAN&#45;&gt;SCRIPT -->
<g id="edge8" class="edge">
<title>PLAN&#45;&gt;SCRIPT</title>
<path fill="none" stroke="#718397" stroke-width="1.1" d="M418.18,-36.21C521.92,-36.59 735.92,-37.36 844.96,-37.76"/>
<polygon fill="#718397" stroke="#718397" stroke-width="1.1" points="844.98,-40.21 851.99,-37.78 845,-35.31 844.98,-40.21"/>
<text text-anchor="middle" x="647.5" y="-41" font-family="NanumGothic" font-size="10.00" fill="#475a6e">정책 원천</text>
</g>
<!-- EV -->
<g id="node6" class="node">
<title>EV</title>
<path fill="#f4f0e6" stroke="#967a40" stroke-width="1.2" d="M993,-160.98C993,-164.16 957.14,-166.75 913,-166.75 868.86,-166.75 833,-164.16 833,-160.98 833,-160.98 833,-109.02 833,-109.02 833,-105.84 868.86,-103.25 913,-103.25 957.14,-103.25 993,-105.84 993,-109.02 993,-109.02 993,-160.98 993,-160.98"/>
<path fill="none" stroke="#967a40" stroke-width="1.2" d="M993,-160.98C993,-157.79 957.14,-155.2 913,-155.2 868.86,-155.2 833,-157.79 833,-160.98"/>
<text text-anchor="middle" x="913" y="-138.6" font-family="NanumGothic" font-size="13.00" fill="#18314a">Event / Receipt / Hold</text>
<text text-anchor="middle" x="913" y="-124.6" font-family="NanumGothic" font-size="13.00" fill="#18314a">기록·결정·예약</text>
</g>
<!-- RUN&#45;&gt;EV -->
<g id="edge5" class="edge">
<title>RUN&#45;&gt;EV</title>
<path fill="none" stroke="#718397" stroke-width="1.1" d="M752.26,-150.16C776.54,-147.85 802.15,-145.42 825.57,-143.2"/>
<polygon fill="#718397" stroke="#718397" stroke-width="1.1" points="826.03,-145.62 832.77,-142.52 825.57,-140.74 826.03,-145.62"/>
<text text-anchor="middle" x="792.5" y="-152" font-family="NanumGothic" font-size="10.00" fill="#475a6e">1:N</text>
</g>
<!-- CP -->
<g id="node7" class="node">
<title>CP</title>
<path fill="#f4f0e6" stroke="#967a40" stroke-width="1.2" d="M992.5,-248.98C992.5,-252.16 956.87,-254.75 913,-254.75 869.13,-254.75 833.5,-252.16 833.5,-248.98 833.5,-248.98 833.5,-197.02 833.5,-197.02 833.5,-193.84 869.13,-191.25 913,-191.25 956.87,-191.25 992.5,-193.84 992.5,-197.02 992.5,-197.02 992.5,-248.98 992.5,-248.98"/>
<path fill="none" stroke="#967a40" stroke-width="1.2" d="M992.5,-248.98C992.5,-245.79 956.87,-243.2 913,-243.2 869.13,-243.2 833.5,-245.79 833.5,-248.98"/>
<text text-anchor="middle" x="913" y="-226.6" font-family="NanumGothic" font-size="13.00" fill="#18314a">Checkpoint / Artifacts</text>
<text text-anchor="middle" x="913" y="-212.6" font-family="NanumGothic" font-size="13.00" fill="#18314a">완전 상태·blob hash</text>
</g>
<!-- RUN&#45;&gt;CP -->
<g id="edge6" class="edge">
<title>RUN&#45;&gt;CP</title>
<path fill="none" stroke="#718397" stroke-width="1.1" d="M744.75,-183.01C771.47,-189.4 800.3,-196.29 826.37,-202.53"/>
<polygon fill="#718397" stroke="#718397" stroke-width="1.1" points="825.91,-204.94 833.29,-204.18 827.05,-200.17 825.91,-204.94"/>
<text text-anchor="middle" x="792.5" y="-201" font-family="NanumGothic" font-size="10.00" fill="#475a6e">1:N</text>
</g>
<!-- COM -->
<g id="node8" class="node">
<title>COM</title>
<path fill="#eff3f8" stroke="#496a8c" stroke-width="1.2" d="M954,-331C954,-331 872,-331 872,-331 866,-331 860,-325 860,-319 860,-319 860,-297 860,-297 860,-291 866,-285 872,-285 872,-285 954,-285 954,-285 960,-285 966,-291 966,-297 966,-297 966,-319 966,-319 966,-325 960,-331 954,-331"/>
<text text-anchor="middle" x="913" y="-311.6" font-family="NanumGothic" font-size="13.00" fill="#18314a">Comparison</text>
<text text-anchor="middle" x="913" y="-297.6" font-family="NanumGothic" font-size="13.00" fill="#18314a">같은 조건·QoI</text>
</g>
<!-- RUN&#45;&gt;COM -->
<g id="edge7" class="edge">
<title>RUN&#45;&gt;COM</title>
<path fill="none" stroke="#718397" stroke-width="1.1" d="M688.53,-183.22C742.8,-214.69 833,-267 833,-267 833,-267 845.86,-273.67 861.2,-281.64"/>
<polygon fill="#718397" stroke="#718397" stroke-width="1.1" points="860.08,-283.81 867.42,-284.86 862.34,-279.46 860.08,-283.81"/>
<text text-anchor="middle" x="792.5" y="-258" font-family="NanumGothic" font-size="10.00" fill="#475a6e">A/B 참조</text>
</g>
<!-- RUN&#45;&gt;SCRIPT -->
<g id="edge9" class="edge">
<title>RUN&#45;&gt;SCRIPT</title>
<path fill="none" stroke="#718397" stroke-width="1.1" d="M698.37,-136.91C743.12,-116.19 808.74,-85.81 855.43,-64.19"/>
<polygon fill="#718397" stroke="#718397" stroke-width="1.1" points="856.56,-66.37 861.88,-61.2 854.5,-61.92 856.56,-66.37"/>
<text text-anchor="middle" x="792.5" y="-106" font-family="NanumGothic" font-size="10.00" fill="#475a6e">실행 근거</text>
</g>
<!-- REV -->
<g id="node10" class="node">
<title>REV</title>
<path fill="#eef3e8" stroke="#647c41" stroke-width="1.2" d="M177,-130C177,-130 12,-130 12,-130 6,-130 0,-124 0,-118 0,-118 0,-96 0,-96 0,-90 6,-84 12,-84 12,-84 177,-84 177,-84 183,-84 189,-90 189,-96 189,-96 189,-118 189,-118 189,-124 183,-130 177,-130"/>
<text text-anchor="middle" x="94.5" y="-110.6" font-family="NanumGothic" font-size="13.00" fill="#18314a">Evidence / Review</text>
<text text-anchor="middle" x="94.5" y="-96.6" font-family="NanumGothic" font-size="13.00" fill="#18314a">subject hash · facet · scope</text>
</g>
<!-- REV&#45;&gt;RULE -->
<g id="edge10" class="edge">
<title>REV&#45;&gt;RULE</title>
<path fill="none" stroke="#718397" stroke-width="1.1" d="M189.17,-107C213.04,-107 238.72,-107 262.63,-107"/>
<polygon fill="#718397" stroke="#718397" stroke-width="1.1" points="262.66,-109.45 269.66,-107 262.66,-104.55 262.66,-109.45"/>
<text text-anchor="middle" x="229.5" y="-110" font-family="NanumGothic" font-size="10.00" fill="#475a6e">적용 검토</text>
</g>
<!-- REV&#45;&gt;COM -->
<g id="edge11" class="edge">
<title>REV&#45;&gt;COM</title>
<path fill="none" stroke="#718397" stroke-width="1.1" d="M118.31,-130.27C165.61,-178.52 270,-285 270,-285 270,-285 693.11,-300.16 852.35,-305.86"/>
<polygon fill="#718397" stroke="#718397" stroke-width="1.1" points="852.65,-308.33 859.73,-306.13 852.83,-303.43 852.65,-308.33"/>
<text text-anchor="middle" x="494.5" y="-296" font-family="NanumGothic" font-size="10.00" fill="#475a6e">결과 자격</text>
</g>
<!-- REV&#45;&gt;SCRIPT -->
<g id="edge12" class="edge">
<title>REV&#45;&gt;SCRIPT</title>
<path fill="none" stroke="#718397" stroke-width="1.1" d="M133.36,-83.78C184.69,-52.31 270,0 270,0 270,0 446,0 446,0 446,0 715.19,-21.95 844.38,-32.49"/>
<polygon fill="#718397" stroke="#718397" stroke-width="1.1" points="844.38,-34.94 851.56,-33.07 844.78,-30.06 844.38,-34.94"/>
<text text-anchor="middle" x="494.5" y="-10" font-family="NanumGothic" font-size="10.00" fill="#475a6e">사용 승인</text>
</g>
</g>
</svg>
