# Blender 5.2.2 LTS
# www.blender.org
mtllib BreakerLever.mtl
o BreakerLever
v -0.015000 0.003929 0.012000
v -0.015000 0.003425 0.012252
v -0.015000 0.003425 0.013092
v -0.015000 0.003929 0.013344
v -0.015000 0.003827 0.015780
v -0.015000 0.003323 0.016032
v -0.015000 0.003323 0.016872
v -0.015000 0.003827 0.017124
v -0.015000 0.003725 0.019560
v -0.015000 0.003221 0.019812
v -0.015000 0.003221 0.020652
v -0.015000 0.003725 0.020904
v -0.015000 0.003617 0.023592
v -0.015000 0.003369 0.024516
v -0.015000 0.002693 0.025192
v -0.015000 0.001769 0.025440
v -0.015000 -0.001769 0.025440
v -0.015000 -0.002693 0.025192
v -0.015000 -0.003369 0.024516
v -0.015000 -0.003617 0.023592
v -0.015000 -0.003725 0.020904
v -0.015000 -0.003221 0.020652
v -0.015000 -0.003221 0.019812
v -0.015000 -0.003725 0.019560
v -0.015000 -0.003827 0.017124
v -0.015000 -0.003323 0.016872
v -0.015000 -0.003323 0.016032
v -0.015000 -0.003827 0.015780
v -0.015000 -0.003929 0.013344
v -0.015000 -0.003425 0.013092
v -0.015000 -0.003425 0.012252
v -0.015000 -0.003929 0.012000
v -0.015000 -0.004200 0.001920
v -0.015000 -0.003880 0.000313
v -0.015000 -0.002970 -0.001050
v -0.015000 -0.001607 -0.001960
v -0.015000 0.000000 -0.002280
v -0.015000 0.001607 -0.001960
v -0.015000 0.002970 -0.001050
v -0.015000 0.003880 0.000313
v -0.015000 0.004200 0.001920
v -0.013800 0.004677 0.012000
v -0.013800 0.004077 0.012300
v -0.013800 0.004077 0.013300
v -0.013800 0.004677 0.013600
v -0.013800 0.004556 0.016500
v -0.013800 0.003956 0.016800
v -0.013800 0.003956 0.017800
v -0.013800 0.004556 0.018100
v -0.013800 0.004435 0.021000
v -0.013800 0.003835 0.021300
v -0.013800 0.003835 0.022300
v -0.013800 0.004435 0.022600
v -0.013800 0.004305 0.025800
v -0.013800 0.004011 0.026900
v -0.013800 0.003205 0.027705
v -0.013800 0.002105 0.028000
v -0.013800 -0.002105 0.028000
v -0.013800 -0.003205 0.027705
v -0.013800 -0.004011 0.026900
v -0.013800 -0.004305 0.025800
v -0.013800 -0.004435 0.022600
v -0.013800 -0.003835 0.022300
v -0.013800 -0.003835 0.021300
v -0.013800 -0.004435 0.021000
v -0.013800 -0.004556 0.018100
v -0.013800 -0.003956 0.017800
v -0.013800 -0.003956 0.016800
v -0.013800 -0.004556 0.016500
v -0.013800 -0.004677 0.013600
v -0.013800 -0.004077 0.013300
v -0.013800 -0.004077 0.012300
v -0.013800 -0.004677 0.012000
v -0.013800 -0.005000 0.000000
v -0.013800 -0.004619 -0.001913
v -0.013800 -0.003536 -0.003536
v -0.013800 -0.001913 -0.004619
v -0.013800 0.000000 -0.005000
v -0.013800 0.001913 -0.004619
v -0.013800 0.003536 -0.003536
v -0.013800 0.004619 -0.001913
v -0.013800 0.005000 0.000000
v 0.013800 0.004677 0.012000
v 0.013800 0.004077 0.012300
v 0.013800 0.004077 0.013300
v 0.013800 0.004677 0.013600
v 0.013800 0.004556 0.016500
v 0.013800 0.003956 0.016800
v 0.013800 0.003956 0.017800
v 0.013800 0.004556 0.018100
v 0.013800 0.004435 0.021000
v 0.013800 0.003835 0.021300
v 0.013800 0.003835 0.022300
v 0.013800 0.004435 0.022600
v 0.013800 0.004305 0.025800
v 0.013800 0.004011 0.026900
v 0.013800 0.003205 0.027705
v 0.013800 0.002105 0.028000
v 0.013800 -0.002105 0.028000
v 0.013800 -0.003205 0.027705
v 0.013800 -0.004011 0.026900
v 0.013800 -0.004305 0.025800
v 0.013800 -0.004435 0.022600
v 0.013800 -0.003835 0.022300
v 0.013800 -0.003835 0.021300
v 0.013800 -0.004435 0.021000
v 0.013800 -0.004556 0.018100
v 0.013800 -0.003956 0.017800
v 0.013800 -0.003956 0.016800
v 0.013800 -0.004556 0.016500
v 0.013800 -0.004677 0.013600
v 0.013800 -0.004077 0.013300
v 0.013800 -0.004077 0.012300
v 0.013800 -0.004677 0.012000
v 0.013800 -0.005000 0.000000
v 0.013800 -0.004619 -0.001913
v 0.013800 -0.003536 -0.003536
v 0.013800 -0.001913 -0.004619
v 0.013800 0.000000 -0.005000
v 0.013800 0.001913 -0.004619
v 0.013800 0.003536 -0.003536
v 0.013800 0.004619 -0.001913
v 0.013800 0.005000 0.000000
v 0.015000 0.003929 0.012000
v 0.015000 0.003425 0.012252
v 0.015000 0.003425 0.013092
v 0.015000 0.003929 0.013344
v 0.015000 0.003827 0.015780
v 0.015000 0.003323 0.016032
v 0.015000 0.003323 0.016872
v 0.015000 0.003827 0.017124
v 0.015000 0.003725 0.019560
v 0.015000 0.003221 0.019812
v 0.015000 0.003221 0.020652
v 0.015000 0.003725 0.020904
v 0.015000 0.003617 0.023592
v 0.015000 0.003369 0.024516
v 0.015000 0.002693 0.025192
v 0.015000 0.001769 0.025440
v 0.015000 -0.001769 0.025440
v 0.015000 -0.002693 0.025192
v 0.015000 -0.003369 0.024516
v 0.015000 -0.003617 0.023592
v 0.015000 -0.003725 0.020904
v 0.015000 -0.003221 0.020652
v 0.015000 -0.003221 0.019812
v 0.015000 -0.003725 0.019560
v 0.015000 -0.003827 0.017124
v 0.015000 -0.003323 0.016872
v 0.015000 -0.003323 0.016032
v 0.015000 -0.003827 0.015780
v 0.015000 -0.003929 0.013344
v 0.015000 -0.003425 0.013092
v 0.015000 -0.003425 0.012252
v 0.015000 -0.003929 0.012000
v 0.015000 -0.004200 0.001920
v 0.015000 -0.003880 0.000313
v 0.015000 -0.002970 -0.001050
v 0.015000 -0.001607 -0.001960
v 0.015000 0.000000 -0.002280
v 0.015000 0.001607 -0.001960
v 0.015000 0.002970 -0.001050
v 0.015000 0.003880 0.000313
v 0.015000 0.004200 0.001920
vn -0.2686 0.4308 0.8616
vn -0.4776 0.8786 -0.0000
vn -0.0877 0.4455 -0.8910
vn -0.5342 0.8446 0.0353
vn -0.6286 0.3478 0.6956
vn -0.4665 0.8845 -0.0000
vn 0.4148 0.4069 -0.8139
vn -0.5396 0.8412 0.0351
vn -0.8009 0.2678 0.5355
vn -0.4552 0.8904 -0.0000
vn 0.7070 0.3163 -0.6326
vn -0.5860 0.8076 0.0665
vn -0.5437 0.8386 0.0339
vn -0.7788 0.5813 0.2356
vn -0.6883 0.7091 0.1528
vn -0.8928 0.2486 0.3756
vn -0.8462 0.4341 0.3091
vn -0.9069 0.0550 0.4178
vn -0.8990 0.2039 0.3877
vn -0.9069 -0.0550 0.4178
vn -0.8990 -0.2039 0.3877
vn -0.8928 -0.2486 0.3756
vn -0.8462 -0.4341 0.3091
vn -0.7788 -0.5813 0.2356
vn -0.6883 -0.7091 0.1528
vn -0.5860 -0.8076 0.0665
vn -0.5437 -0.8386 0.0339
vn 0.7070 -0.3163 -0.6326
vn -0.4552 -0.8904 -0.0000
vn -0.8009 -0.2678 0.5355
vn -0.8010 -0.2678 0.5355
vn -0.5396 -0.8412 0.0351
vn 0.4148 -0.4069 -0.8139
vn -0.4665 -0.8845 -0.0000
vn -0.6286 -0.3478 0.6956
vn -0.5342 -0.8446 0.0353
vn -0.0877 -0.4455 -0.8910
vn -0.4776 -0.8786 -0.0000
vn -0.2686 -0.4308 0.8616
vn -0.5717 -0.8203 -0.0155
vn -0.5290 -0.8483 0.0228
vn -0.7449 -0.6399 -0.1891
vn -0.6641 -0.7400 -0.1068
vn -0.8632 -0.3823 -0.3297
vn -0.8125 -0.5188 -0.2658
vn -0.9045 -0.1780 -0.3877
vn -0.8804 -0.3167 -0.3530
vn -0.9149 -0.0000 -0.4036
vn -0.9075 -0.1502 -0.3923
vn -0.9075 0.1502 -0.3923
vn -0.9045 0.1780 -0.3877
vn -0.8804 0.3167 -0.3530
vn -0.8632 0.3823 -0.3297
vn -0.8125 0.5188 -0.2658
vn -0.7449 0.6399 -0.1891
vn -0.6641 0.7400 -0.1068
vn -0.5717 0.8203 -0.0155
vn -0.5290 0.8483 0.0228
vn -0.0000 0.4472 0.8944
vn -0.0000 1.0000 -0.0000
vn -0.0000 0.4472 -0.8944
vn -0.0000 0.9991 0.0417
vn -0.0000 0.9886 0.1505
vn -0.0000 0.9992 0.0404
vn -0.0000 0.8660 0.5000
vn -0.0000 0.5000 0.8660
vn -0.0000 0.1305 0.9914
vn -0.0000 -0.1305 0.9914
vn -0.0000 -0.5000 0.8660
vn -0.0000 -0.8660 0.5000
vn -0.0000 -0.9886 0.1505
vn -0.0000 -0.9992 0.0404
vn -0.0000 -0.4472 -0.8944
vn -0.0000 -1.0000 -0.0000
vn -0.0000 -0.4472 0.8944
vn -0.0000 -0.9991 0.0417
vn -0.0000 -0.9964 -0.0846
vn -0.0000 -0.9996 0.0269
vn -0.0000 -0.9239 -0.3827
vn -0.0000 -0.7071 -0.7071
vn -0.0000 -0.3827 -0.9239
vn -0.0000 -0.0000 -1.0000
vn -0.0000 0.3827 -0.9239
vn -0.0000 0.7071 -0.7071
vn -0.0000 0.9239 -0.3827
vn -0.0000 0.9964 -0.0846
vn -0.0000 0.9996 0.0269
vn 0.2686 0.4308 0.8616
vn 0.4776 0.8786 -0.0000
vn 0.0877 0.4455 -0.8910
vn 0.5342 0.8446 0.0353
vn 0.6286 0.3478 0.6956
vn 0.4665 0.8845 -0.0000
vn -0.4148 0.4069 -0.8139
vn 0.5396 0.8412 0.0351
vn 0.8009 0.2678 0.5355
vn 0.4552 0.8904 -0.0000
vn -0.7070 0.3163 -0.6326
vn 0.5437 0.8386 0.0339
vn 0.5860 0.8076 0.0665
vn 0.6883 0.7091 0.1528
vn 0.7788 0.5813 0.2356
vn 0.8462 0.4341 0.3091
vn 0.8928 0.2486 0.3756
vn 0.8990 0.2039 0.3877
vn 0.9069 0.0550 0.4178
vn 0.9069 -0.0550 0.4178
vn 0.8990 -0.2039 0.3877
vn 0.8462 -0.4341 0.3091
vn 0.8928 -0.2486 0.3756
vn 0.6883 -0.7091 0.1528
vn 0.7788 -0.5813 0.2356
vn 0.5437 -0.8386 0.0339
vn 0.5860 -0.8076 0.0665
vn -0.7070 -0.3163 -0.6326
vn 0.4552 -0.8904 -0.0000
vn 0.8009 -0.2678 0.5355
vn 0.8010 -0.2678 0.5355
vn 0.5396 -0.8412 0.0351
vn -0.4148 -0.4069 -0.8139
vn 0.4665 -0.8845 -0.0000
vn 0.6286 -0.3478 0.6956
vn 0.5342 -0.8446 0.0353
vn 0.0877 -0.4455 -0.8910
vn 0.4776 -0.8786 -0.0000
vn 0.2686 -0.4308 0.8616
vn 0.5290 -0.8483 0.0228
vn 0.5717 -0.8203 -0.0155
vn 0.6641 -0.7400 -0.1068
vn 0.7449 -0.6399 -0.1891
vn 0.8125 -0.5188 -0.2658
vn 0.8632 -0.3823 -0.3297
vn 0.8804 -0.3167 -0.3530
vn 0.9045 -0.1780 -0.3877
vn 0.9075 -0.1502 -0.3923
vn 0.9149 -0.0000 -0.4036
vn 0.9075 0.1502 -0.3923
vn 0.8804 0.3167 -0.3530
vn 0.9045 0.1780 -0.3877
vn 0.8125 0.5188 -0.2658
vn 0.8632 0.3823 -0.3297
vn 0.6641 0.7400 -0.1068
vn 0.7449 0.6399 -0.1891
vn 0.5290 0.8483 0.0228
vn 0.5717 0.8203 -0.0155
vn -1.0000 -0.0000 -0.0000
vn 1.0000 -0.0000 -0.0000
vn -0.8010 0.2678 0.5355
vn 0.8010 0.2678 0.5355
vt 0.000000 0.000000
s 1
usemtl m0
f 1/1/1 43/1/1 42/1/1
f 3/1/2 43/1/2 2/1/2
f 4/1/3 44/1/3 3/1/3
f 5/1/4 45/1/4 4/1/4
f 5/1/5 47/1/5 46/1/5
f 7/1/6 47/1/6 6/1/6
f 8/1/7 48/1/7 7/1/7
f 9/1/8 49/1/8 8/1/8
f 10/1/9 50/1/9 9/1/9
f 11/1/10 51/1/10 10/1/10
f 12/1/11 52/1/11 11/1/11
f 13/1/12 53/1/13 12/1/13
f 14/1/14 54/1/15 13/1/12
f 15/1/16 55/1/17 14/1/14
f 16/1/18 56/1/19 15/1/16
f 17/1/20 57/1/18 16/1/18
f 17/1/20 59/1/21 58/1/20
f 18/1/22 60/1/23 59/1/21
f 19/1/24 61/1/25 60/1/23
f 20/1/26 62/1/27 61/1/25
f 21/1/28 63/1/28 62/1/28
f 22/1/29 64/1/29 63/1/29
f 23/1/30 65/1/30 64/1/31
f 24/1/32 66/1/32 65/1/32
f 25/1/33 67/1/33 66/1/33
f 26/1/34 68/1/34 67/1/34
f 28/1/35 68/1/35 27/1/35
f 28/1/36 70/1/36 69/1/36
f 29/1/37 71/1/37 70/1/37
f 30/1/38 72/1/38 71/1/38
f 32/1/39 72/1/39 31/1/39
f 33/1/40 73/1/41 32/1/41
f 34/1/42 74/1/43 33/1/40
f 35/1/44 75/1/45 34/1/42
f 36/1/46 76/1/47 35/1/44
f 37/1/48 77/1/49 36/1/46
f 37/1/48 79/1/50 78/1/48
f 38/1/51 80/1/52 79/1/50
f 39/1/53 81/1/54 80/1/52
f 40/1/55 82/1/56 81/1/54
f 41/1/57 42/1/58 82/1/56
f 43/1/59 83/1/59 42/1/59
f 44/1/60 84/1/60 43/1/60
f 45/1/61 85/1/61 44/1/61
f 46/1/62 86/1/62 45/1/62
f 47/1/59 87/1/59 46/1/59
f 48/1/60 88/1/60 47/1/60
f 49/1/61 89/1/61 48/1/61
f 50/1/62 90/1/62 49/1/62
f 51/1/59 91/1/59 50/1/59
f 52/1/60 92/1/60 51/1/60
f 53/1/61 93/1/61 52/1/61
f 54/1/63 94/1/64 53/1/64
f 55/1/65 95/1/63 54/1/63
f 56/1/66 96/1/65 55/1/65
f 57/1/67 97/1/66 56/1/66
f 58/1/68 98/1/67 57/1/67
f 59/1/69 99/1/68 58/1/68
f 60/1/70 100/1/69 59/1/69
f 61/1/71 101/1/70 60/1/70
f 62/1/72 102/1/71 61/1/71
f 63/1/73 103/1/73 62/1/73
f 64/1/74 104/1/74 63/1/74
f 65/1/75 105/1/75 64/1/75
f 66/1/76 106/1/76 65/1/76
f 67/1/73 107/1/73 66/1/73
f 68/1/74 108/1/74 67/1/74
f 69/1/75 109/1/75 68/1/75
f 70/1/76 110/1/76 69/1/76
f 71/1/73 111/1/73 70/1/73
f 72/1/74 112/1/74 71/1/74
f 73/1/75 113/1/75 72/1/75
f 74/1/77 114/1/78 73/1/78
f 75/1/79 115/1/77 74/1/77
f 76/1/80 116/1/79 75/1/79
f 77/1/81 117/1/80 76/1/80
f 78/1/82 118/1/81 77/1/81
f 79/1/83 119/1/82 78/1/82
f 80/1/84 120/1/83 79/1/83
f 81/1/85 121/1/84 80/1/84
f 82/1/86 122/1/85 81/1/85
f 42/1/87 123/1/86 82/1/86
f 84/1/88 124/1/88 83/1/88
f 84/1/89 126/1/89 125/1/89
f 85/1/90 127/1/90 126/1/90
f 86/1/91 128/1/91 127/1/91
f 88/1/92 128/1/92 87/1/92
f 88/1/93 130/1/93 129/1/93
f 89/1/94 131/1/94 130/1/94
f 90/1/95 132/1/95 131/1/95
f 91/1/96 133/1/96 132/1/96
f 92/1/97 134/1/97 133/1/97
f 93/1/98 135/1/98 134/1/98
f 94/1/99 136/1/100 135/1/99
f 95/1/101 137/1/102 136/1/100
f 96/1/103 138/1/104 137/1/102
f 97/1/105 139/1/106 138/1/104
f 99/1/107 139/1/106 98/1/106
f 100/1/108 140/1/107 99/1/107
f 101/1/109 141/1/110 100/1/108
f 102/1/111 142/1/112 101/1/109
f 103/1/113 143/1/114 102/1/111
f 104/1/115 144/1/115 103/1/115
f 105/1/116 145/1/116 104/1/116
f 106/1/117 146/1/117 105/1/118
f 107/1/119 147/1/119 106/1/119
f 108/1/120 148/1/120 107/1/120
f 109/1/121 149/1/121 108/1/121
f 109/1/122 151/1/122 150/1/122
f 111/1/123 151/1/123 110/1/123
f 112/1/124 152/1/124 111/1/124
f 113/1/125 153/1/125 112/1/125
f 113/1/126 155/1/126 154/1/126
f 114/1/127 156/1/128 155/1/127
f 115/1/129 157/1/130 156/1/128
f 116/1/131 158/1/132 157/1/130
f 117/1/133 159/1/134 158/1/132
f 118/1/135 160/1/136 159/1/134
f 120/1/137 160/1/136 119/1/136
f 121/1/138 161/1/139 120/1/137
f 122/1/140 162/1/141 121/1/138
f 123/1/142 163/1/143 122/1/140
f 83/1/144 164/1/145 123/1/142
s 0
f 40/1/146 39/1/146 19/1/146
f 125/1/147 126/1/147 146/1/147
s 1
f 1/1/1 2/1/1 43/1/1
f 3/1/2 44/1/2 43/1/2
f 4/1/3 45/1/3 44/1/3
f 5/1/4 46/1/4 45/1/4
f 5/1/5 6/1/5 47/1/5
f 7/1/6 48/1/6 47/1/6
f 8/1/7 49/1/7 48/1/7
f 9/1/8 50/1/8 49/1/8
f 10/1/9 51/1/148 50/1/9
f 11/1/10 52/1/10 51/1/10
f 12/1/11 53/1/11 52/1/11
f 13/1/12 54/1/15 53/1/13
f 14/1/14 55/1/17 54/1/15
f 15/1/16 56/1/19 55/1/17
f 16/1/18 57/1/18 56/1/19
f 17/1/20 58/1/20 57/1/18
f 17/1/20 18/1/22 59/1/21
f 18/1/22 19/1/24 60/1/23
f 19/1/24 20/1/26 61/1/25
f 20/1/26 21/1/27 62/1/27
f 21/1/28 22/1/28 63/1/28
f 22/1/29 23/1/29 64/1/29
f 23/1/30 24/1/30 65/1/30
f 24/1/32 25/1/32 66/1/32
f 25/1/33 26/1/33 67/1/33
f 26/1/34 27/1/34 68/1/34
f 28/1/35 69/1/35 68/1/35
f 28/1/36 29/1/36 70/1/36
f 29/1/37 30/1/37 71/1/37
f 30/1/38 31/1/38 72/1/38
f 32/1/39 73/1/39 72/1/39
f 33/1/40 74/1/43 73/1/41
f 34/1/42 75/1/45 74/1/43
f 35/1/44 76/1/47 75/1/45
f 36/1/46 77/1/49 76/1/47
f 37/1/48 78/1/48 77/1/49
f 37/1/48 38/1/51 79/1/50
f 38/1/51 39/1/53 80/1/52
f 39/1/53 40/1/55 81/1/54
f 40/1/55 41/1/57 82/1/56
f 41/1/57 1/1/58 42/1/58
f 43/1/59 84/1/59 83/1/59
f 44/1/60 85/1/60 84/1/60
f 45/1/61 86/1/61 85/1/61
f 46/1/62 87/1/62 86/1/62
f 47/1/59 88/1/59 87/1/59
f 48/1/60 89/1/60 88/1/60
f 49/1/61 90/1/61 89/1/61
f 50/1/62 91/1/62 90/1/62
f 51/1/59 92/1/59 91/1/59
f 52/1/60 93/1/60 92/1/60
f 53/1/61 94/1/61 93/1/61
f 54/1/63 95/1/63 94/1/64
f 55/1/65 96/1/65 95/1/63
f 56/1/66 97/1/66 96/1/65
f 57/1/67 98/1/67 97/1/66
f 58/1/68 99/1/68 98/1/67
f 59/1/69 100/1/69 99/1/68
f 60/1/70 101/1/70 100/1/69
f 61/1/71 102/1/71 101/1/70
f 62/1/72 103/1/72 102/1/71
f 63/1/73 104/1/73 103/1/73
f 64/1/74 105/1/74 104/1/74
f 65/1/75 106/1/75 105/1/75
f 66/1/76 107/1/76 106/1/76
f 67/1/73 108/1/73 107/1/73
f 68/1/74 109/1/74 108/1/74
f 69/1/75 110/1/75 109/1/75
f 70/1/76 111/1/76 110/1/76
f 71/1/73 112/1/73 111/1/73
f 72/1/74 113/1/74 112/1/74
f 73/1/75 114/1/75 113/1/75
f 74/1/77 115/1/77 114/1/78
f 75/1/79 116/1/79 115/1/77
f 76/1/80 117/1/80 116/1/79
f 77/1/81 118/1/81 117/1/80
f 78/1/82 119/1/82 118/1/81
f 79/1/83 120/1/83 119/1/82
f 80/1/84 121/1/84 120/1/83
f 81/1/85 122/1/85 121/1/84
f 82/1/86 123/1/86 122/1/85
f 42/1/87 83/1/87 123/1/86
f 84/1/88 125/1/88 124/1/88
f 84/1/89 85/1/89 126/1/89
f 85/1/90 86/1/90 127/1/90
f 86/1/91 87/1/91 128/1/91
f 88/1/92 129/1/92 128/1/92
f 88/1/93 89/1/93 130/1/93
f 89/1/94 90/1/94 131/1/94
f 90/1/95 91/1/95 132/1/95
f 91/1/96 92/1/149 133/1/96
f 92/1/97 93/1/97 134/1/97
f 93/1/98 94/1/98 135/1/98
f 94/1/99 95/1/101 136/1/100
f 95/1/101 96/1/103 137/1/102
f 96/1/103 97/1/105 138/1/104
f 97/1/105 98/1/106 139/1/106
f 99/1/107 140/1/107 139/1/106
f 100/1/108 141/1/110 140/1/107
f 101/1/109 142/1/112 141/1/110
f 102/1/111 143/1/114 142/1/112
f 103/1/113 144/1/113 143/1/114
f 104/1/115 145/1/115 144/1/115
f 105/1/116 146/1/116 145/1/116
f 106/1/117 147/1/117 146/1/117
f 107/1/119 148/1/119 147/1/119
f 108/1/120 149/1/120 148/1/120
f 109/1/121 150/1/121 149/1/121
f 109/1/122 110/1/122 151/1/122
f 111/1/123 152/1/123 151/1/123
f 112/1/124 153/1/124 152/1/124
f 113/1/125 154/1/125 153/1/125
f 113/1/126 114/1/126 155/1/126
f 114/1/127 115/1/129 156/1/128
f 115/1/129 116/1/131 157/1/130
f 116/1/131 117/1/133 158/1/132
f 117/1/133 118/1/135 159/1/134
f 118/1/135 119/1/136 160/1/136
f 120/1/137 161/1/139 160/1/136
f 121/1/138 162/1/141 161/1/139
f 122/1/140 163/1/143 162/1/141
f 123/1/142 164/1/145 163/1/143
f 83/1/144 124/1/144 164/1/145
s 0
f 1/1/146 41/1/146 40/1/146
f 39/1/146 38/1/146 37/1/146
f 2/1/146 1/1/146 40/1/146
f 39/1/146 37/1/146 36/1/146
f 3/1/147 2/1/147 40/1/147
f 39/1/146 36/1/146 35/1/146
f 4/1/147 3/1/147 40/1/147
f 39/1/146 35/1/146 34/1/146
f 5/1/146 4/1/146 40/1/146
f 39/1/146 34/1/146 33/1/146
f 6/1/146 5/1/146 40/1/146
f 39/1/146 33/1/146 32/1/146
f 7/1/147 6/1/147 40/1/147
f 39/1/146 32/1/146 31/1/146
f 8/1/147 7/1/147 40/1/147
f 39/1/146 31/1/146 30/1/146
f 9/1/146 8/1/146 40/1/146
f 39/1/147 30/1/147 29/1/147
f 10/1/146 9/1/146 40/1/146
f 39/1/146 29/1/146 28/1/146
f 11/1/147 10/1/147 40/1/147
f 39/1/146 28/1/146 27/1/146
f 12/1/147 11/1/147 40/1/147
f 39/1/146 27/1/146 26/1/146
f 13/1/146 12/1/146 40/1/146
f 39/1/147 26/1/147 25/1/147
f 14/1/146 13/1/146 40/1/146
f 39/1/146 25/1/146 24/1/146
f 15/1/146 14/1/146 40/1/146
f 39/1/146 24/1/146 23/1/146
f 16/1/146 15/1/146 40/1/146
f 39/1/146 23/1/146 22/1/146
f 17/1/146 16/1/146 40/1/146
f 39/1/147 22/1/147 21/1/147
f 18/1/146 17/1/146 40/1/146
f 39/1/146 21/1/146 20/1/146
f 19/1/146 18/1/146 40/1/146
f 39/1/146 20/1/146 19/1/146
f 164/1/147 124/1/147 125/1/147
f 126/1/147 127/1/147 128/1/147
f 163/1/147 164/1/147 125/1/147
f 126/1/147 128/1/147 129/1/147
f 162/1/147 163/1/147 125/1/147
f 126/1/146 129/1/146 130/1/146
f 161/1/147 162/1/147 125/1/147
f 126/1/146 130/1/146 131/1/146
f 160/1/147 161/1/147 125/1/147
f 126/1/147 131/1/147 132/1/147
f 159/1/147 160/1/147 125/1/147
f 126/1/147 132/1/147 133/1/147
f 158/1/147 159/1/147 125/1/147
f 126/1/146 133/1/146 134/1/146
f 157/1/147 158/1/147 125/1/147
f 126/1/146 134/1/146 135/1/146
f 156/1/147 157/1/147 125/1/147
f 126/1/147 135/1/147 136/1/147
f 155/1/147 156/1/147 125/1/147
f 126/1/147 136/1/147 137/1/147
f 154/1/147 155/1/147 125/1/147
f 126/1/147 137/1/147 138/1/147
f 153/1/147 154/1/147 125/1/147
f 126/1/147 138/1/147 139/1/147
f 152/1/147 153/1/147 125/1/147
f 126/1/147 139/1/147 140/1/147
f 151/1/147 152/1/147 125/1/147
f 126/1/147 140/1/147 141/1/147
f 150/1/147 151/1/147 125/1/147
f 126/1/147 141/1/147 142/1/147
f 149/1/147 150/1/147 125/1/147
f 126/1/147 142/1/147 143/1/147
f 148/1/146 149/1/146 125/1/146
f 126/1/147 143/1/147 144/1/147
f 147/1/147 148/1/147 125/1/147
f 126/1/146 144/1/146 145/1/146
f 146/1/147 147/1/147 125/1/147
f 126/1/147 145/1/147 146/1/147
