# Blender 5.2.2 LTS
# www.blender.org
mtllib StockPot.mtl
o SM_Pot_02_Coockware_0
v -0.161792 0.004510 -0.049970
v -0.148952 0.004510 -0.080504
v -0.140486 0.000000 -0.075917
v -0.162362 0.004510 0.048129
v -0.168628 0.004510 0.015603
v -0.153133 0.000000 0.045387
v -0.149851 0.004510 0.078800
v -0.080887 0.004510 0.148569
v -0.108318 0.004510 0.130000
v -0.076301 0.000000 0.140104
v -0.159178 0.368695 -0.049160
v -0.143445 0.011324 -0.077521
v -0.146545 0.368695 -0.079200
v -0.147429 0.368695 0.077523
v -0.156360 0.011324 0.046346
v -0.159739 0.368695 0.047349
v -0.077905 0.011324 0.143064
v -0.106569 0.368695 0.127895
v -0.079583 0.368695 0.146163
v -0.077906 0.368695 -0.147047
v -0.046728 0.011324 -0.155977
v -0.047732 0.368695 -0.159356
v -0.130383 0.004510 -0.107935
v -0.048512 0.004510 -0.161980
v -0.045770 0.000000 -0.152750
v -0.079182 0.004510 -0.149468
v -0.015985 0.004510 -0.168246
v 0.080122 0.004510 -0.148569
v 0.075535 0.000000 -0.140104
v 0.049588 0.004510 -0.161410
v -0.128277 0.368695 -0.106187
v -0.015732 0.368695 -0.165520
v 0.048778 0.368695 -0.158795
v 0.077139 0.011324 -0.143064
v 0.078818 0.368695 -0.146163
v 0.077141 0.368695 0.147047
v 0.045962 0.011324 0.155977
v 0.046967 0.368695 0.159356
v 0.129617 0.004510 0.107935
v 0.139721 0.000000 0.075917
v 0.148186 0.004510 0.080504
v -0.017903 0.004510 0.168068
v 0.014332 0.000000 0.158670
v 0.015220 0.004510 0.168246
v 0.047746 0.004510 0.161980
v -0.050353 0.004510 0.161410
v 0.142680 0.011324 0.077521
v 0.127511 0.368695 0.106187
v 0.145780 0.368695 0.079201
v 0.014966 0.368695 0.165521
v -0.049542 0.368695 0.158795
v 0.155594 0.011324 -0.046346
v 0.165137 0.368695 -0.015350
v 0.158973 0.368695 -0.047349
v 0.161026 0.004510 0.049970
v 0.161597 0.004510 -0.048129
v 0.167863 0.004510 -0.015603
v 0.152368 0.000000 -0.045387
v 0.149086 0.004510 -0.078800
v 0.107553 0.004510 -0.130000
v 0.158412 0.368695 0.049160
v 0.142680 0.011324 0.077521
v 0.145780 0.368695 0.079201
v 0.146664 0.368695 -0.077523
v 0.105804 0.368695 -0.127895
v -0.165903 0.368695 0.015350
v -0.173448 0.011759 -0.018042
v -0.166592 0.011759 -0.051455
v -0.168450 0.004510 -0.017521
v -0.153369 0.011759 -0.082898
v -0.160418 0.000000 -0.016684
v -0.167179 0.011759 0.049560
v -0.173631 0.011759 0.016067
v -0.135516 0.011759 0.109618
v -0.154295 0.011759 0.081143
v -0.131614 0.004510 0.106452
v -0.125340 0.000000 0.101364
v -0.083282 0.011759 0.152987
v -0.111527 0.011759 0.133866
v -0.074951 0.005599 0.137614
v -0.123121 0.005599 0.099563
v -0.127981 0.011324 0.103505
v -0.157572 0.005599 -0.016387
v -0.137997 0.005599 -0.074568
v -0.163797 0.011324 -0.017036
v -0.129488 0.368695 0.104728
v -0.165728 0.368695 -0.017238
v -0.150417 0.005599 0.044580
v -0.173631 0.368695 0.016067
v -0.165903 0.368695 0.015350
v -0.165728 0.368695 -0.017238
v -0.173448 0.368695 -0.018042
v -0.129488 0.368695 0.104728
v -0.147429 0.368695 0.077523
v -0.154295 0.368695 0.081143
v -0.135516 0.368695 0.109618
v -0.159739 0.368695 0.047349
v -0.167179 0.368695 0.049560
v -0.079583 0.368695 0.146163
v -0.106569 0.368695 0.127895
v -0.111527 0.368695 0.133866
v -0.083282 0.368695 0.152987
v -0.159178 0.368695 -0.049160
v -0.166592 0.368695 -0.051455
v -0.153369 0.011759 -0.082898
v -0.166592 0.011759 -0.051455
v -0.166592 0.368695 -0.051455
v -0.153369 0.368695 -0.082898
v -0.173631 0.368695 0.016067
v -0.173631 0.011759 0.016067
v -0.167179 0.011759 0.049560
v -0.167179 0.368695 0.049560
v -0.154295 0.011759 0.081143
v -0.154295 0.368695 0.081143
v -0.173448 0.011759 -0.018042
v -0.173448 0.368695 -0.018042
v 0.082516 0.011759 -0.152987
v 0.051073 0.011759 -0.166209
v 0.051073 0.368695 -0.166209
v 0.082516 0.368695 -0.152987
v -0.135516 0.011759 0.109618
v -0.135516 0.368695 0.109618
v -0.049943 0.011759 -0.166796
v -0.081526 0.011759 -0.153912
v -0.081526 0.368695 -0.153912
v -0.049943 0.368695 -0.166796
v 0.017660 0.011759 -0.173065
v 0.017660 0.368695 -0.173065
v -0.110001 0.011759 -0.135134
v -0.106834 0.004510 -0.131231
v -0.134248 0.011759 -0.111144
v -0.101747 0.000000 -0.124959
v -0.049943 0.011759 -0.166796
v -0.081526 0.011759 -0.153912
v 0.017660 0.011759 -0.173065
v 0.017138 0.004510 -0.168068
v -0.016449 0.011759 -0.173249
v 0.016302 0.000000 -0.160034
v 0.082516 0.011759 -0.152987
v 0.051073 0.011759 -0.166209
v 0.016654 0.011324 -0.163415
v 0.016855 0.368695 -0.165345
v -0.099944 0.005599 -0.122738
v -0.103888 0.011324 -0.127598
v 0.016006 0.005599 -0.157190
v 0.074185 0.005599 -0.137614
v -0.105110 0.368695 -0.129106
v -0.044962 0.005599 -0.150036
v -0.146545 0.368695 -0.079200
v -0.153369 0.368695 -0.082898
v -0.110001 0.368695 -0.135134
v -0.105110 0.368695 -0.129106
v -0.077906 0.368695 -0.147047
v -0.081526 0.368695 -0.153912
v -0.047732 0.368695 -0.159356
v -0.015732 0.368695 -0.165520
v -0.016449 0.368695 -0.173249
v -0.049943 0.368695 -0.166796
v 0.016855 0.368695 -0.165345
v 0.048778 0.368695 -0.158795
v 0.051073 0.368695 -0.166209
v 0.017660 0.368695 -0.173065
v -0.128277 0.368695 -0.106187
v -0.134248 0.368695 -0.111144
v 0.078818 0.368695 -0.146163
v 0.082516 0.368695 -0.152987
v -0.110001 0.011759 -0.135134
v -0.134248 0.011759 -0.111144
v -0.134248 0.368695 -0.111144
v -0.110001 0.368695 -0.135134
v -0.016449 0.011759 -0.173249
v -0.016449 0.368695 -0.173249
v -0.111527 0.011759 0.133866
v -0.111527 0.368695 0.133866
v 0.049177 0.011759 0.166796
v 0.080760 0.011759 0.153913
v 0.080760 0.368695 0.153913
v 0.049176 0.368695 0.166796
v -0.083282 0.011759 0.152987
v -0.083282 0.368695 0.152987
v 0.109235 0.368695 0.135134
v 0.104344 0.368695 0.129106
v 0.077141 0.368695 0.147047
v 0.080760 0.368695 0.153913
v 0.109235 0.011759 0.135134
v 0.106069 0.004510 0.131232
v 0.133482 0.011759 0.111145
v 0.152603 0.011759 0.082898
v 0.100981 0.000000 0.124959
v 0.049177 0.011759 0.166796
v 0.078417 0.004510 0.149468
v 0.080760 0.011759 0.153913
v 0.074651 0.000000 0.142324
v -0.018425 0.011759 0.173065
v 0.015683 0.011759 0.173249
v -0.051839 0.011759 0.166209
v -0.017420 0.011324 0.163415
v -0.017620 0.368695 0.165345
v 0.137231 0.005599 0.074568
v 0.099178 0.005599 0.122738
v 0.103122 0.011324 0.127598
v -0.016771 0.005599 0.157190
v 0.104344 0.368695 0.129106
v 0.044196 0.005599 0.150036
v 0.046967 0.368695 0.159356
v 0.014966 0.368695 0.165521
v 0.015683 0.368695 0.173249
v 0.049176 0.368695 0.166796
v -0.017620 0.368695 0.165345
v -0.049542 0.368695 0.158795
v -0.051839 0.368695 0.166209
v -0.018425 0.368695 0.173065
v 0.152603 0.368695 0.082898
v 0.145780 0.368695 0.079201
v 0.127511 0.368695 0.106187
v 0.133482 0.368695 0.111145
v 0.109235 0.011759 0.135134
v 0.109235 0.368695 0.135134
v 0.133482 0.011759 0.111145
v 0.133482 0.368695 0.111145
v 0.152603 0.011759 0.082898
v 0.152603 0.368695 0.082898
v -0.018425 0.011759 0.173065
v 0.015683 0.011759 0.173249
v 0.015683 0.368695 0.173249
v -0.018425 0.368695 0.173065
v 0.134751 0.011759 -0.109618
v 0.110762 0.011759 -0.133866
v 0.110762 0.368695 -0.133866
v 0.134751 0.368695 -0.109617
v 0.172682 0.011759 0.018042
v 0.172865 0.011759 -0.016067
v 0.172865 0.368695 -0.016067
v 0.172682 0.368695 0.018042
v 0.172682 0.011759 0.018042
v 0.165827 0.011759 0.051456
v 0.167685 0.004510 0.017521
v 0.159652 0.000000 0.016684
v 0.166413 0.011759 -0.049560
v 0.172865 0.011759 -0.016067
v 0.134751 0.011759 -0.109618
v 0.153529 0.011759 -0.081143
v 0.130848 0.004510 -0.106452
v 0.124576 0.000000 -0.101364
v 0.110762 0.011759 -0.133866
v 0.122355 0.005599 -0.099562
v 0.127215 0.011324 -0.103505
v 0.156807 0.005599 0.016387
v 0.137231 0.005599 0.074568
v 0.163032 0.011324 0.017036
v 0.128722 0.368695 -0.104728
v 0.164963 0.368695 0.017238
v 0.149652 0.005599 -0.044580
v 0.158973 0.368695 -0.047349
v 0.165137 0.368695 -0.015350
v 0.172865 0.368695 -0.016067
v 0.166413 0.368695 -0.049560
v 0.164963 0.368695 0.017238
v 0.172682 0.368695 0.018042
v 0.128722 0.368695 -0.104728
v 0.146664 0.368695 -0.077523
v 0.153529 0.368695 -0.081143
v 0.134751 0.368695 -0.109617
v 0.105804 0.368695 -0.127895
v 0.110762 0.368695 -0.133866
v 0.158412 0.368695 0.049160
v 0.165827 0.368695 0.051456
v 0.166413 0.011759 -0.049560
v 0.166413 0.368695 -0.049560
v 0.152603 0.011759 0.082898
v 0.165827 0.011759 0.051456
v 0.165827 0.368695 0.051456
v 0.152603 0.368695 0.082898
v 0.153529 0.011759 -0.081143
v 0.153529 0.368695 -0.081143
v -0.051839 0.011759 0.166209
v -0.051839 0.368695 0.166209
v 0.145780 0.368695 0.079201
v 0.152603 0.368695 0.082898
v -0.155961 0.247475 0.196902
v -0.159510 0.247475 0.199685
v -0.148338 0.247491 0.207962
v -0.145227 0.247491 0.204726
v -0.132874 0.215511 0.213218
v -0.135496 0.215511 0.216806
v -0.148338 0.215511 0.207962
v -0.145227 0.215511 0.204726
v -0.175001 0.244970 0.160584
v -0.179871 0.244970 0.161366
v -0.176522 0.246996 0.174936
v -0.172054 0.246996 0.173417
v -0.165137 0.215511 0.186205
v -0.169124 0.215511 0.188535
v -0.176522 0.215511 0.174936
v -0.172054 0.215511 0.173417
v -0.179871 0.215203 0.161366
v -0.179999 0.212574 0.139382
v -0.174986 0.212574 0.139389
v -0.175001 0.215203 0.160584
v -0.168341 0.229717 0.118900
v -0.173081 0.229717 0.117290
v -0.179999 0.238900 0.139382
v -0.174986 0.238900 0.139389
v -0.168341 0.208166 0.118900
v -0.173081 0.208166 0.117290
v -0.160886 0.200075 0.100448
v -0.156084 0.200075 0.101803
v -0.159510 0.215511 0.199685
v -0.169124 0.247460 0.188535
v -0.160886 0.218121 0.100448
v -0.149486 0.193273 0.090690
v -0.160233 0.192798 0.067828
v -0.160233 0.203020 0.067828
v -0.149486 0.208934 0.090690
v -0.135496 0.247491 0.216806
v -0.122081 0.215511 0.224590
v -0.122081 0.247491 0.224590
v -0.164824 0.192798 0.069047
v -0.160233 0.192798 0.067828
v -0.149486 0.193273 0.090690
v -0.154497 0.193273 0.090194
v -0.154497 0.208934 0.090194
v -0.156084 0.218121 0.101803
v -0.156084 0.200075 0.101803
v -0.155961 0.215511 0.196902
v -0.132874 0.247491 0.213218
v -0.119946 0.247491 0.220651
v -0.174986 0.238900 0.139389
v -0.175001 0.244970 0.160584
v -0.175001 0.215203 0.160584
v -0.174986 0.212574 0.139389
v -0.165137 0.247460 0.186205
v -0.172054 0.246996 0.173417
v -0.172054 0.215511 0.173417
v -0.168341 0.229717 0.118900
v -0.168341 0.208166 0.118900
v -0.149486 0.208934 0.090690
v -0.160233 0.203020 0.067828
v -0.164824 0.203020 0.069047
v -0.156084 0.218121 0.101803
v 0.079389 0.247475 -0.237431
v 0.092034 0.247491 -0.233134
v 0.093046 0.247491 -0.237508
v 0.079783 0.247475 -0.241924
v 0.105866 0.215511 -0.227370
v 0.092034 0.215511 -0.233134
v 0.093046 0.215511 -0.237508
v 0.107438 0.215511 -0.231526
v 0.037944 0.244971 -0.234436
v 0.051156 0.246996 -0.238512
v 0.049990 0.246996 -0.243086
v 0.035896 0.244971 -0.238965
v 0.065647 0.215511 -0.239701
v 0.051156 0.215511 -0.238512
v 0.049990 0.215511 -0.243086
v 0.065423 0.215511 -0.244313
v 0.035896 0.215203 -0.238965
v 0.037944 0.215203 -0.234436
v 0.020826 0.212574 -0.222508
v 0.018072 0.212574 -0.226710
v 0.008279 0.229717 -0.205217
v 0.020826 0.238900 -0.222508
v 0.018072 0.238900 -0.226710
v 0.004383 0.229717 -0.208288
v 0.008279 0.208166 -0.205217
v -0.000117 0.200075 -0.186028
v -0.003876 0.200075 -0.189311
v 0.004383 0.208166 -0.208288
v 0.065423 0.247460 -0.244313
v 0.079783 0.215511 -0.241924
v -0.030847 0.192798 -0.170953
v -0.030847 0.203020 -0.170953
v -0.032332 0.203020 -0.175465
v -0.032332 0.192798 -0.175465
v -0.008978 0.193273 -0.178360
v -0.005825 0.193273 -0.174432
v -0.030847 0.192798 -0.170953
v -0.008978 0.208934 -0.178360
v 0.079389 0.215511 -0.237431
v 0.079389 0.247475 -0.237431
v 0.079389 0.215511 -0.237431
v 0.092034 0.215511 -0.233134
v 0.092034 0.247491 -0.233134
v 0.105866 0.247491 -0.227370
v 0.119181 0.247491 -0.220651
v 0.121315 0.247491 -0.224589
v 0.107438 0.247491 -0.231526
v 0.065647 0.247460 -0.239701
v 0.037944 0.244971 -0.234436
v 0.037944 0.215203 -0.234436
v 0.051156 0.215511 -0.238512
v 0.051156 0.246996 -0.238512
v -0.005825 0.193273 -0.174432
v -0.005825 0.208934 -0.174432
v -0.030847 0.203020 -0.170953
v -0.030847 0.192798 -0.170953
v -0.005825 0.208934 -0.174432
v -0.030847 0.203020 -0.170953
v 0.105866 0.215511 -0.227370
v 0.119181 0.215511 -0.220651
v 0.119181 0.247491 -0.220651
v 0.105866 0.247491 -0.227370
v -0.000117 0.218121 -0.186028
v -0.003876 0.218121 -0.189311
v 0.008279 0.229717 -0.205217
v 0.008279 0.208166 -0.205217
v 0.020826 0.212574 -0.222508
v 0.020826 0.238900 -0.222508
v -0.080384 0.247475 0.237854
v -0.092800 0.247491 0.233134
v -0.093811 0.247491 0.237508
v -0.080779 0.247475 0.242347
v -0.106661 0.215511 0.227423
v -0.092800 0.215511 0.233134
v -0.093811 0.215511 0.237508
v -0.108232 0.215511 0.231579
v -0.039562 0.244970 0.233974
v -0.051923 0.246996 0.238512
v -0.050756 0.246996 0.243086
v -0.037560 0.244970 0.238480
v -0.066412 0.215511 0.239701
v -0.051923 0.215511 0.238512
v -0.050756 0.215511 0.243086
v -0.066188 0.215511 0.244313
v -0.037560 0.215203 0.238480
v -0.039562 0.215203 0.233974
v -0.021814 0.212574 0.222388
v -0.019072 0.212574 0.226583
v -0.008277 0.229717 0.205632
v -0.021814 0.238900 0.222388
v -0.019072 0.238900 0.226583
v -0.004341 0.229717 0.208726
v -0.008277 0.208166 0.205632
v -0.000648 0.200075 0.186028
v 0.003110 0.200075 0.189311
v -0.004341 0.208166 0.208726
v -0.080779 0.215511 0.242347
v -0.066188 0.247460 0.244313
v 0.005059 0.193273 0.174432
v 0.005059 0.208934 0.174432
v 0.030082 0.203020 0.170953
v 0.030082 0.192798 0.170953
v -0.108232 0.247491 0.231579
v -0.051923 0.215511 0.238512
v -0.066412 0.215511 0.239701
v -0.066412 0.247460 0.239701
v -0.051923 0.246996 0.238512
v 0.031567 0.192798 0.175465
v 0.008212 0.193273 0.178361
v 0.005059 0.193273 0.174432
v 0.030082 0.192798 0.170953
v 0.008212 0.208934 0.178361
v 0.003110 0.218121 0.189311
v -0.000648 0.200075 0.186028
v -0.000648 0.218121 0.186028
v -0.080384 0.247475 0.237854
v -0.080384 0.215511 0.237854
v -0.092800 0.215511 0.233134
v -0.092800 0.247491 0.233134
v -0.080384 0.215511 0.237854
v -0.106661 0.247491 0.227423
v -0.066412 0.247460 0.239701
v 0.005059 0.208934 0.174432
v 0.031567 0.203020 0.175465
v 0.030082 0.203020 0.170953
v -0.008277 0.229717 0.205632
v -0.008277 0.208166 0.205632
v -0.021814 0.212574 0.222388
v -0.021814 0.238900 0.222388
v -0.000648 0.218121 0.186028
v 0.154965 0.247475 -0.196479
v 0.158515 0.247475 -0.199262
v 0.147573 0.247491 -0.207962
v 0.144462 0.247491 -0.204726
v 0.132079 0.215511 -0.213166
v 0.134702 0.215511 -0.216753
v 0.147573 0.215511 -0.207962
v 0.144462 0.215511 -0.204726
v 0.175088 0.244971 -0.160122
v 0.180001 0.244971 -0.160880
v 0.175756 0.246996 -0.174936
v 0.171288 0.246996 -0.173417
v 0.164371 0.215511 -0.186205
v 0.168358 0.215511 -0.188535
v 0.175756 0.215511 -0.174936
v 0.171288 0.215511 -0.173417
v 0.180001 0.215203 -0.160880
v 0.179466 0.212574 -0.139255
v 0.174443 0.212574 -0.139269
v 0.175088 0.215203 -0.160122
v 0.166809 0.229717 -0.119315
v 0.171509 0.229717 -0.117728
v 0.179466 0.238900 -0.139255
v 0.174443 0.238900 -0.139269
v 0.166809 0.208166 -0.119315
v 0.171509 0.208166 -0.117728
v 0.160120 0.200075 -0.100448
v 0.155318 0.200075 -0.101803
v 0.168358 0.247460 -0.188535
v 0.132079 0.215511 -0.213166
v 0.132079 0.247491 -0.213166
v 0.164060 0.192798 -0.069047
v 0.164060 0.203020 -0.069047
v 0.159469 0.203020 -0.067828
v 0.159469 0.192798 -0.067828
v 0.158515 0.215511 -0.199262
v 0.159469 0.192798 -0.067828
v 0.148721 0.193273 -0.090690
v 0.153731 0.193273 -0.090194
v 0.121315 0.215511 -0.224589
v 0.164371 0.215511 -0.186205
v 0.171288 0.215511 -0.173417
v 0.171288 0.246996 -0.173417
v 0.164371 0.247460 -0.186205
v 0.154965 0.215511 -0.196479
v 0.153731 0.208935 -0.090194
v 0.132079 0.247491 -0.213166
v 0.134702 0.247491 -0.216753
v 0.174443 0.212574 -0.139269
v 0.174443 0.238900 -0.139269
v 0.175088 0.244971 -0.160122
v 0.175088 0.215203 -0.160122
v 0.164371 0.247460 -0.186205
v 0.159469 0.203020 -0.067828
v 0.148721 0.208935 -0.090690
v 0.148721 0.193273 -0.090690
v 0.159469 0.192798 -0.067828
v 0.148721 0.208935 -0.090690
v 0.159469 0.203020 -0.067828
v 0.160120 0.218121 -0.100448
v 0.155318 0.218121 -0.101803
v -0.039562 0.244970 0.233974
v -0.039562 0.215203 0.233974
v -0.106661 0.247491 0.227423
v -0.106661 0.215511 0.227423
v 0.030082 0.192798 0.170953
v 0.030082 0.203020 0.170953
v -0.165137 0.215511 0.186205
v -0.165137 0.247460 0.186205
v -0.155961 0.247475 0.196902
v -0.155961 0.215511 0.196902
v -0.132874 0.215511 0.213218
v -0.132874 0.247491 0.213218
v -0.119946 0.247491 0.220651
v -0.119946 0.215511 0.220651
v -0.160233 0.192798 0.067828
v -0.160233 0.203020 0.067828
v 0.065647 0.215511 -0.239701
v 0.065647 0.247460 -0.239701
v -0.000117 0.200075 -0.186028
v -0.000117 0.218121 -0.186028
v 0.154965 0.247475 -0.196479
v 0.154965 0.215511 -0.196479
v 0.166809 0.208166 -0.119315
v 0.166809 0.229717 -0.119315
v 0.155318 0.218121 -0.101803
v 0.155318 0.200075 -0.101803
v -0.145227 0.247491 0.204726
v -0.145227 0.215511 0.204726
v -0.119946 0.215511 0.220651
v 0.119181 0.215511 -0.220651
v 0.144462 0.215511 -0.204726
v 0.144462 0.247491 -0.204726
v 0.074185 0.005599 -0.137614
v 0.016006 0.005599 -0.157190
v -0.044962 0.005599 -0.150036
v -0.099944 0.005599 -0.122738
v -0.137997 0.005599 -0.074568
v -0.157572 0.005599 -0.016387
v -0.150417 0.005599 0.044580
v -0.123121 0.005599 0.099563
v -0.074951 0.005599 0.137614
v -0.016771 0.005599 0.157190
v 0.044196 0.005599 0.150036
v 0.099178 0.005599 0.122738
v 0.137231 0.005599 0.074568
v 0.156807 0.005599 0.016387
v 0.149652 0.005599 -0.044580
v 0.122355 0.005599 -0.099562
vn -0.6147 -0.7657 -0.1893
vn -0.5755 -0.7560 -0.3119
vn -0.2063 -0.9721 -0.1118
vn -0.6275 -0.7560 0.1864
vn -0.6406 -0.7657 0.0585
vn -0.2249 -0.9721 0.0668
vn -0.5686 -0.7657 0.3008
vn -0.3118 -0.7560 0.5755
vn -0.4116 -0.7657 0.4943
vn -0.1095 -0.9727 0.2048
vn 0.9436 0.0114 0.3310
vn 0.8084 0.3930 0.4381
vn 0.8792 0.0099 0.4764
vn 0.9013 0.0114 -0.4331
vn 0.8814 0.3930 -0.2619
vn 0.9585 0.0099 -0.2848
vn 0.4381 0.3930 -0.8085
vn 0.6097 0.0114 -0.7926
vn 0.4764 0.0099 -0.8792
vn 0.4331 0.0114 0.9013
vn 0.2619 0.3930 0.8814
vn 0.2848 0.0099 0.9585
vn -0.4943 -0.7657 -0.4116
vn -0.1864 -0.7560 -0.6275
vn -0.0668 -0.9721 -0.2249
vn -0.3008 -0.7657 -0.5686
vn -0.0585 -0.7657 -0.6405
vn 0.3119 -0.7560 -0.5755
vn 0.1118 -0.9721 -0.2063
vn 0.1894 -0.7657 -0.6147
vn 0.7926 0.0114 0.6097
vn 0.1293 0.0114 0.9915
vn -0.3310 0.0114 0.9436
vn -0.4381 0.3930 0.8085
vn -0.4764 0.0099 0.8792
vn -0.4331 0.0114 -0.9013
vn -0.2619 0.3930 -0.8814
vn -0.2848 0.0099 -0.9585
vn 0.4943 -0.7657 0.4116
vn 0.2063 -0.9721 0.1118
vn 0.5755 -0.7560 0.3119
vn -0.0724 -0.7981 0.5982
vn 0.0201 -0.9726 0.2314
vn 0.0605 -0.7559 0.6519
vn 0.1841 -0.7657 0.6163
vn -0.1686 -0.7981 0.5785
vn -0.8085 0.3930 -0.4381
vn -0.7926 0.0114 -0.6097
vn -0.8792 0.0099 -0.4764
vn -0.1293 0.0114 -0.9915
vn 0.3310 0.0114 -0.9436
vn -0.8815 0.3930 0.2619
vn -0.9915 0.0114 0.1293
vn -0.9585 0.0099 0.2848
vn 0.6147 -0.7657 0.1893
vn 0.6275 -0.7560 -0.1864
vn 0.6406 -0.7657 -0.0585
vn 0.2249 -0.9721 -0.0668
vn 0.5686 -0.7657 -0.3008
vn 0.4116 -0.7657 -0.4943
vn -0.9435 0.0114 -0.3310
vn -0.8792 0.0098 -0.4764
vn -0.9013 0.0114 0.4331
vn -0.6097 0.0114 0.7925
vn 0.9915 0.0114 -0.1293
vn -0.8175 -0.5696 -0.0852
vn -0.7851 -0.5696 -0.2431
vn -0.6362 -0.7687 -0.0663
vn -0.7226 -0.5696 -0.3916
vn -0.2217 -0.9748 -0.0231
vn -0.7878 -0.5697 0.2341
vn -0.8184 -0.5696 0.0759
vn -0.6383 -0.5697 0.5178
vn -0.7271 -0.5696 0.3833
vn -0.4967 -0.7687 0.4029
vn -0.1731 -0.9748 0.1404
vn -0.3916 -0.5697 0.7226
vn -0.5250 -0.5696 0.6324
vn 0.3233 0.7346 -0.5966
vn 0.5242 0.7378 -0.4252
vn 0.7157 0.3882 -0.5805
vn 0.6713 0.7379 0.0700
vn 0.5966 0.7345 0.3233
vn 0.9166 0.3883 0.0956
vn 0.7766 0.0129 -0.6299
vn 0.9945 0.0129 0.1037
vn 0.6504 0.7346 -0.1932
vn -0.0000 1.0000 -0.0000
vn -0.8792 -0.0000 -0.4764
vn -0.9553 -0.0000 -0.2957
vn -0.9957 -0.0000 0.0923
vn -0.9586 -0.0000 0.2848
vn -0.8846 -0.0000 0.4664
vn -0.9946 -0.0000 -0.1037
vn 0.4764 -0.0000 -0.8792
vn 0.2957 -0.0000 -0.9553
vn -0.7766 -0.0000 0.6300
vn -0.2848 -0.0000 -0.9586
vn -0.4664 -0.0000 -0.8846
vn 0.1037 -0.0000 -0.9946
vn -0.5178 -0.5697 -0.6383
vn -0.4029 -0.7687 -0.4967
vn -0.6324 -0.5696 -0.5250
vn -0.1405 -0.9748 -0.1731
vn -0.2341 -0.5696 -0.7878
vn -0.3833 -0.5697 -0.7270
vn 0.0852 -0.5696 -0.8175
vn 0.0663 -0.7687 -0.6361
vn -0.0759 -0.5696 -0.8184
vn 0.0231 -0.9748 -0.2217
vn 0.3916 -0.5696 -0.7226
vn 0.2431 -0.5696 -0.7852
vn -0.0956 0.3882 0.9166
vn -0.1037 0.0129 0.9945
vn 0.4252 0.7379 0.5242
vn 0.5806 0.3882 0.7157
vn -0.0700 0.7378 0.6713
vn -0.3233 0.7346 0.5966
vn 0.6299 0.0129 0.7766
vn 0.1933 0.7346 0.6504
vn -0.6300 -0.0000 -0.7766
vn -0.7694 -0.0000 -0.6388
vn -0.0923 -0.0000 -0.9957
vn -0.6388 -0.0000 0.7694
vn 0.2848 -0.0000 0.9586
vn 0.4664 -0.0000 0.8846
vn -0.4764 -0.0000 0.8792
vn 0.5178 -0.5697 0.6383
vn 0.4199 -0.7513 0.5092
vn 0.6324 -0.5696 0.5250
vn 0.7226 -0.5696 0.3916
vn 0.1596 -0.9696 0.1856
vn 0.2341 -0.5697 0.7878
vn 0.3030 -0.7513 0.5862
vn 0.3833 -0.5696 0.7270
vn 0.1078 -0.9696 0.2197
vn -0.0852 -0.5696 0.8175
vn 0.0759 -0.5696 0.8184
vn -0.2431 -0.5696 0.7851
vn 0.0956 0.3882 -0.9166
vn 0.1037 0.0129 -0.9945
vn -0.5966 0.7346 -0.3233
vn -0.4252 0.7379 -0.5242
vn -0.5806 0.3882 -0.7157
vn 0.0700 0.7378 -0.6713
vn -0.6299 0.0129 -0.7766
vn -0.1933 0.7346 -0.6504
vn 0.6300 -0.0000 0.7766
vn 0.7694 -0.0000 0.6388
vn 0.8792 -0.0000 0.4765
vn -0.1037 -0.0000 0.9946
vn 0.0923 -0.0000 0.9957
vn 0.7766 -0.0000 -0.6300
vn 0.6388 -0.0000 -0.7694
vn 0.9946 -0.0000 0.1037
vn 0.9957 -0.0000 -0.0923
vn 0.8175 -0.5696 0.0852
vn 0.7851 -0.5697 0.2430
vn 0.6362 -0.7687 0.0663
vn 0.2217 -0.9748 0.0231
vn 0.7879 -0.5696 -0.2341
vn 0.8184 -0.5696 -0.0759
vn 0.6383 -0.5697 -0.5178
vn 0.7271 -0.5695 -0.3833
vn 0.4967 -0.7687 -0.4029
vn 0.1732 -0.9748 -0.1404
vn 0.5250 -0.5696 -0.6324
vn -0.5242 0.7378 0.4252
vn -0.7157 0.3882 0.5806
vn -0.6714 0.7378 -0.0700
vn -0.5966 0.7346 -0.3232
vn -0.9166 0.3882 -0.0956
vn -0.7766 0.0129 0.6299
vn -0.9945 0.0129 -0.1037
vn -0.6504 0.7346 0.1933
vn 0.9586 -0.0000 -0.2848
vn 0.8792 -0.0000 0.4764
vn 0.9553 -0.0000 0.2957
vn 0.8846 -0.0000 -0.4664
vn -0.2957 -0.0000 0.9553
vn -0.0007 1.0000 -0.0009
vn -0.4975 0.6831 0.5347
vn -0.4136 0.7034 0.5781
vn -0.0004 1.0000 -0.0004
vn -0.0000 -1.0000 -0.0000
vn -0.3828 -0.6985 0.6046
vn -0.4133 -0.7032 0.5785
vn -0.0281 0.9775 -0.2090
vn -0.7308 0.6812 -0.0432
vn -0.6910 0.6928 0.2063
vn -0.0239 0.9961 -0.0848
vn -0.6001 -0.6839 0.4149
vn -0.6841 -0.6764 0.2731
vn 0.0026 -0.9999 0.0108
vn -0.7317 -0.6681 0.1350
vn -0.7477 -0.6637 -0.0195
vn -0.0131 -0.9870 0.1602
vn 0.0076 -0.9973 0.0729
vn 0.1097 0.8937 -0.4351
vn -0.5669 0.5985 -0.5661
vn -0.7017 0.6457 -0.3010
vn 0.0243 0.9437 -0.3298
vn -0.0754 -0.9557 0.2845
vn -0.7376 -0.6485 -0.1882
vn -0.7229 -0.6822 -0.1096
vn -0.1012 -0.8920 0.4405
vn -0.4970 -0.6830 0.5352
vn -0.6027 0.6882 0.4039
vn -0.4228 0.5581 -0.7140
vn 0.9987 -0.0000 -0.0512
vn 0.9050 -0.0000 -0.4254
vn 0.9847 -0.0000 0.1740
vn -0.3828 0.6985 0.6046
vn -0.3399 -0.7006 0.6274
vn -0.3400 0.7006 0.6274
vn -0.7471 -0.5729 -0.3370
vn 0.0016 -0.9998 0.0208
vn -0.0507 -0.9579 0.2827
vn -0.5317 -0.8108 0.2447
vn -0.5645 0.6937 -0.4474
vn 0.8282 -0.0000 0.5604
vn 0.8432 -0.0000 0.5376
vn 0.9926 -0.0000 0.1212
vn 0.9917 -0.0000 -0.1284
vn 0.9942 -0.0000 -0.1071
vn 0.9851 -0.0000 0.1722
vn -0.0065 0.9999 -0.0139
vn 0.9327 -0.0000 -0.3607
vn 0.9360 -0.0000 -0.3521
vn 0.9125 -0.0000 0.4091
vn 0.8802 -0.0000 0.4746
vn 0.0540 0.8902 -0.4524
vn -0.0189 0.9678 -0.2511
vn -0.7695 0.4991 -0.3985
vn 0.1295 0.8207 -0.5564
vn -0.0011 1.0000 -0.0001
vn -0.0005 1.0000 -0.0001
vn 0.2499 0.6992 -0.6698
vn 0.1736 0.6900 -0.7027
vn 0.2503 -0.6990 -0.6698
vn 0.2971 -0.6993 -0.6501
vn -0.1886 0.9778 0.0908
vn -0.0800 0.9965 0.0250
vn -0.1855 0.6981 -0.6915
vn -0.4265 0.6762 -0.6007
vn 0.0099 -0.9999 -0.0035
vn -0.1254 -0.6820 -0.7205
vn 0.0313 -0.6807 -0.7319
vn -0.2840 -0.6589 -0.6965
vn 0.0651 -0.9973 -0.0338
vn 0.1297 -0.9864 -0.1010
vn -0.4493 -0.6640 -0.5977
vn -0.3058 0.8931 0.3299
vn -0.2676 0.9414 0.2051
vn -0.6548 0.6391 -0.4036
vn -0.7840 0.6029 -0.1480
vn 0.1978 -0.9555 -0.2187
vn 0.3123 -0.8931 -0.3240
vn -0.4857 -0.6755 -0.5548
vn -0.5487 -0.6577 -0.5161
vn 0.0203 0.6847 -0.7286
vn 0.1743 -0.6899 -0.7026
vn -0.9498 -0.0000 0.3128
vn -0.7540 0.4991 -0.4270
vn -0.6903 -0.5729 -0.4420
vn -0.0853 -0.8108 -0.5791
vn 0.2091 -0.9579 -0.1968
vn 0.0183 -0.9998 -0.0100
vn -0.6830 0.6937 -0.2287
vn -0.2432 -0.0000 0.9700
vn -0.3534 -0.0000 0.9355
vn 0.3404 0.6997 -0.6281
vn 0.2971 0.6994 -0.6501
vn -0.0151 0.9999 0.0021
vn 0.4184 -0.0000 0.9083
vn 0.4448 -0.0000 0.8956
vn 0.1901 -0.0000 0.9818
vn 0.1831 -0.0000 0.9831
vn 0.5024 -0.0000 0.8646
vn 0.6835 -0.0000 0.7300
vn 0.1377 -0.0000 0.9905
vn -0.3495 0.8902 0.2923
vn -0.2207 0.9678 0.1213
vn -0.4179 -0.0000 0.9085
vn -0.3939 0.8222 0.4110
vn -0.8292 0.5588 0.0138
vn 0.8512 -0.0000 0.5248
vn 0.8769 -0.0000 0.4807
vn 0.7125 -0.0000 0.7017
vn 0.6723 -0.0000 0.7403
vn 0.0011 1.0000 0.0001
vn 0.0005 1.0000 0.0001
vn -0.2585 0.7034 0.6621
vn -0.1763 0.6831 0.7087
vn -0.2589 -0.7032 0.6621
vn -0.2975 -0.6985 0.6508
vn 0.1905 0.9775 -0.0905
vn 0.0841 0.9961 -0.0262
vn 0.2046 0.6927 0.6916
vn 0.4352 0.6812 0.5886
vn -0.0105 -0.9999 0.0038
vn 0.1449 -0.6766 0.7219
vn -0.0199 -0.6839 0.7293
vn 0.2864 -0.6681 0.6867
vn -0.0652 -0.9973 0.0335
vn -0.1271 -0.9870 0.0984
vn 0.4246 -0.6637 0.6158
vn 0.3047 0.8937 -0.3294
vn 0.2630 0.9437 -0.2004
vn 0.6354 0.6457 0.4235
vn 0.7838 0.5984 0.1659
vn -0.1972 -0.9557 0.2185
vn -0.3137 -0.8920 0.3253
vn 0.4865 -0.6822 0.5458
vn 0.5604 -0.6485 0.5152
vn -0.1770 -0.6830 0.7086
vn -0.0093 0.6882 0.7254
vn -0.5024 -0.0000 -0.8646
vn -0.6835 -0.0000 -0.7300
vn -0.1377 -0.0000 -0.9905
vn -0.2975 0.6985 0.6508
vn -0.2161 -0.0000 -0.9764
vn 0.0248 -0.0000 -0.9997
vn 0.0259 -0.0000 -0.9997
vn -0.2071 -0.0000 -0.9783
vn 0.6902 -0.5729 0.4420
vn 0.0853 -0.8108 0.5791
vn -0.2091 -0.9579 0.1968
vn -0.0183 -0.9998 0.0100
vn 0.6830 0.6937 0.2287
vn 0.8290 0.5581 -0.0356
vn -0.9108 -0.0000 -0.4128
vn -0.9217 -0.0000 -0.3878
vn 0.2449 -0.0000 -0.9695
vn 0.2448 -0.0000 -0.9696
vn 0.3682 -0.0000 -0.9298
vn 0.3682 -0.0000 -0.9297
vn 0.0152 0.9999 -0.0022
vn 0.3495 0.8902 -0.2923
vn 0.7540 0.4991 0.4271
vn 0.2207 0.9678 -0.1212
vn -0.8410 -0.0000 -0.5410
vn -0.8783 -0.0000 -0.4782
vn -0.6822 -0.0000 -0.7312
vn -0.6436 -0.0000 -0.7654
vn 0.3954 0.8208 -0.4124
vn 0.0007 1.0000 0.0009
vn 0.4939 0.6900 -0.5291
vn 0.4247 0.6992 -0.5751
vn 0.0004 1.0000 0.0004
vn 0.3824 -0.6993 -0.6039
vn 0.4245 -0.6990 -0.5755
vn 0.0269 0.9778 0.2076
vn 0.7362 0.6762 0.0293
vn 0.6807 0.6981 -0.2222
vn 0.0227 0.9965 0.0807
vn 0.5961 -0.6807 -0.4259
vn 0.6723 -0.6817 -0.2886
vn -0.0027 -0.9999 -0.0100
vn 0.7386 -0.6589 -0.1424
vn 0.7460 -0.6641 0.0501
vn 0.0138 -0.9864 -0.1638
vn -0.0072 -0.9973 -0.0730
vn -0.1094 0.8931 0.4363
vn 0.5521 0.6029 0.5759
vn 0.6956 0.6391 0.3282
vn -0.0257 0.9414 0.3362
vn 0.0752 -0.9555 -0.2851
vn 0.7319 -0.6577 0.1779
vn 0.7299 -0.6756 0.1040
vn 0.1009 -0.8930 -0.4385
vn 0.5988 0.6851 -0.4149
vn -0.5329 -0.0000 0.8462
vn 0.7471 -0.5729 0.3370
vn 0.7695 0.4991 0.3985
vn 0.2567 -0.0000 0.9665
vn 0.4934 -0.6899 -0.5297
vn -0.0016 -0.9998 -0.0208
vn 0.0507 -0.9579 -0.2827
vn 0.5317 -0.8108 -0.2447
vn 0.3403 -0.6998 -0.6281
vn -0.8147 -0.0000 0.5799
vn -0.9263 -0.0000 0.3768
vn -0.9236 -0.0000 0.3834
vn -0.8139 -0.0000 0.5809
vn 0.5645 0.6937 0.4474
vn 0.3824 0.6994 -0.6039
vn -0.9769 -0.0000 -0.2137
vn -0.9873 -0.0000 -0.1590
vn -0.9894 -0.0000 0.1454
vn -0.9932 -0.0000 0.1164
vn 0.0064 0.9999 0.0138
vn -0.9050 -0.0000 0.4254
vn -0.9848 -0.0000 -0.1740
vn -0.9987 -0.0000 0.0512
vn -0.0540 0.8902 0.4524
vn 0.0189 0.9678 0.2511
vn 0.4412 0.5587 0.7022
vn -0.1291 0.8221 0.5545
vn -0.4339 -0.0000 -0.9009
vn -0.4531 -0.0000 -0.8914
vn 0.4179 -0.0000 -0.9085
vn 0.9499 -0.0000 -0.3126
vn 0.8240 -0.0000 -0.5666
vn 0.8233 -0.0000 -0.5676
vn 0.6785 -0.0000 -0.7346
vn 0.6786 -0.0000 -0.7345
vn 0.5329 -0.0000 -0.8462
vn -0.2567 -0.0000 -0.9665
vn -0.0409 -0.0000 0.9992
vn -0.0422 -0.0000 0.9991
vn 0.9044 -0.0000 0.4267
vn 0.9104 -0.0000 0.4138
vn -0.6798 -0.0000 0.7334
vn -0.8815 -0.0000 -0.4722
vn -0.9045 -0.0000 -0.4266
vn -0.8437 -0.0000 -0.5367
vn -0.8513 -0.0000 -0.5247
vn 0.5778 -0.0000 -0.8162
vn -0.5907 -0.0000 0.8069
vt 0.872468 0.242983
vt 0.885467 0.240500
vt 0.884261 0.236451
vt 0.834048 0.235176
vt 0.846262 0.240270
vt 0.836058 0.231459
vt 0.823099 0.227742
vt 0.801447 0.195038
vt 0.806479 0.207291
vt 0.805501 0.193845
vt 0.147607 0.780037
vt 0.005277 0.792839
vt 0.147607 0.792865
vt 0.147607 0.728725
vt 0.005277 0.741555
vt 0.147607 0.741551
vt 0.005277 0.690261
vt 0.147607 0.703070
vt 0.147607 0.690247
vt 0.147539 0.831336
vt 0.005277 0.844143
vt 0.147539 0.844158
vt 0.897707 0.235467
vt 0.925595 0.207912
vt 0.921880 0.205901
vt 0.918158 0.218858
vt 0.930693 0.195699
vt 0.930939 0.156488
vt 0.926883 0.157695
vt 0.933416 0.169493
vt 0.147539 0.805687
vt 0.147539 0.856980
vt 0.147539 0.882629
vt 0.005277 0.895448
vt 0.147539 0.895451
vt 0.147607 0.626127
vt 0.005277 0.638960
vt 0.147607 0.638950
vt 0.834672 0.116070
vt 0.848118 0.115087
vt 0.846912 0.111038
vt 0.799108 0.168830
vt 0.805693 0.157083
vt 0.801660 0.155851
vt 0.806804 0.143653
vt 0.799045 0.182022
vt 0.005277 0.587656
vt 0.147607 0.600478
vt 0.147607 0.587656
vt 0.147607 0.651772
vt 0.147607 0.677423
vt 0.005277 0.946750
vt 0.147539 0.959569
vt 0.147539 0.946746
vt 0.859911 0.108555
vt 0.898333 0.116365
vt 0.886118 0.111270
vt 0.896323 0.120081
vt 0.909281 0.123799
vt 0.925897 0.144245
vt 0.147539 0.985222
vt 0.005277 0.998047
vt 0.147539 0.998047
vt 0.147539 0.933923
vt 0.147539 0.908273
vt 0.147607 0.754377
vt 0.858856 0.246540
vt 0.872806 0.246533
vt 0.859223 0.243001
vt 0.886482 0.243909
vt 0.859601 0.239353
vt 0.832356 0.238304
vt 0.845205 0.243675
vt 0.810955 0.220635
vt 0.820828 0.230491
vt 0.813717 0.218390
vt 0.816565 0.216076
vt 0.798029 0.196042
vt 0.803320 0.208952
vt 0.001953 0.690261
vt 0.001953 0.715907
vt 0.005277 0.715907
vt 0.001953 0.767196
vt 0.001953 0.792839
vt 0.005277 0.767196
vt 0.147607 0.715899
vt 0.147607 0.767208
vt 0.001953 0.741554
vt 0.987259 0.825499
vt 0.990334 0.825499
vt 0.990334 0.812226
vt 0.987259 0.812226
vt 0.990334 0.865318
vt 0.990334 0.852045
vt 0.987259 0.852045
vt 0.987259 0.865318
vt 0.990334 0.838772
vt 0.987259 0.838772
vt 0.990334 0.891863
vt 0.990334 0.878590
vt 0.987259 0.878590
vt 0.987259 0.891863
vt 0.990334 0.798953
vt 0.987259 0.798953
vt 0.152913 0.780817
vt 0.152913 0.794394
vt 0.294985 0.794394
vt 0.294985 0.780817
vt 0.294985 0.821548
vt 0.152913 0.821548
vt 0.152913 0.835124
vt 0.294985 0.835125
vt 0.152913 0.848701
vt 0.294985 0.848702
vt 0.152913 0.807971
vt 0.294985 0.807971
vt 0.152912 0.672204
vt 0.152912 0.685780
vt 0.294985 0.685779
vt 0.294985 0.672203
vt 0.152912 0.862278
vt 0.294985 0.862278
vt 0.152913 0.726510
vt 0.152913 0.740087
vt 0.294985 0.740087
vt 0.294985 0.726510
vt 0.152912 0.699357
vt 0.294985 0.699356
vt 0.911047 0.230998
vt 0.908804 0.228236
vt 0.899366 0.238623
vt 0.906491 0.225388
vt 0.928723 0.209605
vt 0.920906 0.221130
vt 0.936967 0.183107
vt 0.933428 0.182739
vt 0.934098 0.196758
vt 0.929780 0.182360
vt 0.934354 0.155470
vt 0.936967 0.169158
vt 0.005277 0.869794
vt 0.147539 0.869806
vt 0.001953 0.818489
vt 0.005277 0.818489
vt 0.001953 0.869794
vt 0.001953 0.895447
vt 0.147539 0.818514
vt 0.001953 0.844143
vt 0.990334 0.785680
vt 0.987259 0.785680
vt 0.987259 0.759134
vt 0.990334 0.759134
vt 0.990334 0.745861
vt 0.987259 0.745861
vt 0.990334 0.732588
vt 0.990334 0.719315
vt 0.987259 0.719315
vt 0.987259 0.732588
vt 0.990334 0.706042
vt 0.990334 0.692769
vt 0.987259 0.692769
vt 0.987259 0.706042
vt 0.990334 0.772407
vt 0.987259 0.772407
vt 0.990334 0.679496
vt 0.987259 0.679496
vt 0.152913 0.753664
vt 0.152913 0.767241
vt 0.294985 0.767240
vt 0.294985 0.753664
vt 0.152913 0.712934
vt 0.294985 0.712933
vt 0.152912 0.875854
vt 0.294985 0.875855
vt 0.152912 0.943738
vt 0.152912 0.957314
vt 0.294984 0.957316
vt 0.294984 0.943739
vt 0.152912 0.889431
vt 0.294985 0.889432
vt 0.987259 0.971501
vt 0.990334 0.971501
vt 0.990334 0.958228
vt 0.987259 0.958228
vt 0.821329 0.120517
vt 0.823567 0.123291
vt 0.833016 0.112913
vt 0.845898 0.107630
vt 0.825879 0.126153
vt 0.803662 0.141966
vt 0.814140 0.132623
vt 0.811388 0.130355
vt 0.816980 0.134963
vt 0.795572 0.168474
vt 0.798259 0.154813
vt 0.795502 0.182339
vt 0.005277 0.664609
vt 0.147607 0.664599
vt 0.001953 0.587656
vt 0.001953 0.613308
vt 0.005277 0.613307
vt 0.001953 0.664610
vt 0.147607 0.613304
vt 0.001953 0.638960
vt 0.990334 0.944955
vt 0.990334 0.931682
vt 0.987259 0.931682
vt 0.987259 0.944955
vt 0.990334 0.918409
vt 0.990334 0.905136
vt 0.987259 0.905136
vt 0.987259 0.918409
vt 0.987259 0.998047
vt 0.990334 0.998047
vt 0.990334 0.984774
vt 0.987259 0.984774
vt 0.152911 0.970891
vt 0.294984 0.970893
vt 0.152911 0.984468
vt 0.294984 0.984470
vt 0.152911 0.998045
vt 0.294984 0.998047
vt 0.152912 0.916584
vt 0.152912 0.930161
vt 0.294984 0.930163
vt 0.294985 0.916586
vt 0.152912 0.645050
vt 0.152912 0.658627
vt 0.294985 0.658626
vt 0.294985 0.645049
vt 0.152911 0.590743
vt 0.152912 0.604320
vt 0.294984 0.604318
vt 0.294984 0.590742
vt 0.873524 0.104999
vt 0.859574 0.105006
vt 0.873157 0.108538
vt 0.872779 0.112187
vt 0.900025 0.113236
vt 0.887176 0.107864
vt 0.921422 0.130907
vt 0.911552 0.121050
vt 0.918661 0.133151
vt 0.915814 0.135464
vt 0.929053 0.142583
vt 0.001953 0.921098
vt 0.005277 0.921098
vt 0.001953 0.972397
vt 0.001953 0.998047
vt 0.005277 0.972398
vt 0.147539 0.921100
vt 0.147539 0.972397
vt 0.001953 0.946750
vt 0.990334 0.626405
vt 0.990334 0.613132
vt 0.987259 0.613132
vt 0.987259 0.626405
vt 0.990334 0.599859
vt 0.987259 0.599859
vt 0.990334 0.652951
vt 0.990334 0.639678
vt 0.987259 0.639678
vt 0.987259 0.652951
vt 0.990334 0.666224
vt 0.987259 0.666224
vt 0.990334 0.586586
vt 0.987259 0.586586
vt 0.152912 0.617897
vt 0.294984 0.617895
vt 0.152911 0.563590
vt 0.152911 0.577167
vt 0.294984 0.577165
vt 0.294984 0.563588
vt 0.152912 0.631474
vt 0.294984 0.631472
vt 0.152912 0.903008
vt 0.294985 0.903009
vt 0.990334 0.573313
vt 0.987259 0.573313
vt 0.236736 0.395125
vt 0.236525 0.396998
vt 0.242331 0.397007
vt 0.242536 0.395147
vt 0.248791 0.412093
vt 0.248701 0.410212
vt 0.242237 0.410173
vt 0.242418 0.412049
vt 0.218592 0.395910
vt 0.219049 0.397850
vt 0.224548 0.397152
vt 0.224478 0.395216
vt 0.230725 0.411860
vt 0.230524 0.409956
vt 0.224226 0.409765
vt 0.224267 0.411740
vt 0.218567 0.409651
vt 0.209909 0.410179
vt 0.209736 0.412163
vt 0.218500 0.411691
vt 0.200481 0.401270
vt 0.201379 0.402955
vt 0.210501 0.399895
vt 0.209656 0.398101
vt 0.200856 0.413109
vt 0.200721 0.411188
vt 0.192511 0.413412
vt 0.192625 0.415235
vt 0.236381 0.410064
vt 0.230718 0.396989
vt 0.193237 0.406704
vt 0.374765 0.029808
vt 0.384821 0.029997
vt 0.384821 0.025929
vt 0.374765 0.023574
vt 0.248748 0.397013
vt 0.255165 0.410252
vt 0.255165 0.397019
vt 0.179090 0.414737
vt 0.179297 0.416399
vt 0.188139 0.417191
vt 0.187722 0.415450
vt 0.188277 0.409507
vt 0.369621 0.019918
vt 0.369621 0.027101
vt 0.236572 0.411954
vt 0.248851 0.395148
vt 0.255165 0.395148
vt 0.352713 0.011647
vt 0.344429 0.009231
vt 0.344429 0.021079
vt 0.352713 0.022126
vt 0.230935 0.395103
vt 0.339189 0.008425
vt 0.339189 0.020957
vt 0.361284 0.015302
vt 0.361284 0.023880
vt 0.187852 0.408038
vt 0.179604 0.409490
vt 0.179479 0.411080
vt 0.192011 0.405421
vt 0.642569 0.337267
vt 0.642577 0.343073
vt 0.644439 0.342872
vt 0.644445 0.337061
vt 0.659518 0.349362
vt 0.659486 0.342991
vt 0.657610 0.342805
vt 0.657638 0.349268
vt 0.643409 0.319104
vt 0.642694 0.324996
vt 0.644632 0.325072
vt 0.645349 0.319569
vt 0.659327 0.331298
vt 0.659229 0.324841
vt 0.657254 0.324792
vt 0.657424 0.331091
vt 0.657162 0.319132
vt 0.659202 0.319073
vt 0.659712 0.310308
vt 0.657727 0.310472
vt 0.648852 0.300993
vt 0.645638 0.310166
vt 0.647431 0.311020
vt 0.650535 0.301900
vt 0.660702 0.301427
vt 0.662875 0.293201
vt 0.661051 0.293077
vt 0.658781 0.301282
vt 0.644450 0.331249
vt 0.657517 0.336948
vt 0.662293 0.277943
vt 0.658627 0.278309
vt 0.658797 0.280012
vt 0.662463 0.279646
vt 0.663120 0.288295
vt 0.664861 0.288723
vt 0.664125 0.279864
vt 0.657166 0.288814
vt 0.659407 0.337144
vt 0.023716 0.070132
vt 0.010994 0.070132
vt 0.010994 0.075544
vt 0.023723 0.075544
vt 0.642567 0.349393
vt 0.642557 0.355712
vt 0.644430 0.355714
vt 0.644435 0.349293
vt 0.642561 0.331461
vt 0.022719 0.053693
vt 0.010871 0.053693
vt 0.010994 0.058934
vt 0.023526 0.058934
vt 0.002142 0.023357
vt 0.008376 0.023357
vt 0.006022 0.013301
vt 0.001953 0.013301
vt 0.655697 0.288379
vt 0.657203 0.280128
vt 0.010994 0.081491
vt 0.010994 0.087437
vt 0.023723 0.087437
vt 0.023723 0.081491
vt 0.653052 0.292532
vt 0.654331 0.293766
vt 0.016648 0.036838
vt 0.008070 0.036838
vt 0.009824 0.045410
vt 0.020303 0.045410
vt 0.273594 0.395125
vt 0.267793 0.395147
vt 0.267998 0.397007
vt 0.273804 0.396998
vt 0.261538 0.412093
vt 0.267911 0.412049
vt 0.268092 0.410173
vt 0.261629 0.410212
vt 0.291738 0.395910
vt 0.285851 0.395216
vt 0.285782 0.397152
vt 0.291281 0.397850
vt 0.279604 0.411860
vt 0.286062 0.411740
vt 0.286103 0.409765
vt 0.279805 0.409956
vt 0.291762 0.409651
vt 0.291829 0.411691
vt 0.300593 0.412163
vt 0.300420 0.410179
vt 0.309848 0.401270
vt 0.300674 0.398101
vt 0.299828 0.399895
vt 0.308951 0.402955
vt 0.309473 0.413109
vt 0.317704 0.415235
vt 0.317818 0.413412
vt 0.309608 0.411188
vt 0.273949 0.410064
vt 0.279611 0.396989
vt 0.246605 0.029808
vt 0.246605 0.023574
vt 0.236550 0.025929
vt 0.236550 0.029997
vt 0.261581 0.397013
vt 0.282182 0.020957
vt 0.287969 0.020957
vt 0.287969 0.008240
vt 0.282182 0.008425
vt 0.331239 0.414737
vt 0.322607 0.415450
vt 0.322190 0.417191
vt 0.331032 0.416399
vt 0.322052 0.409507
vt 0.317093 0.406704
vt 0.251750 0.027101
vt 0.251750 0.019918
vt 0.293381 0.008234
vt 0.293381 0.020957
vt 0.298793 0.020957
vt 0.298793 0.008228
vt 0.273758 0.411954
vt 0.261479 0.395148
vt 0.279395 0.395103
vt 0.322478 0.408038
vt 0.330851 0.411080
vt 0.330725 0.409490
vt 0.260087 0.015302
vt 0.260087 0.023880
vt 0.268658 0.022126
vt 0.268658 0.011647
vt 0.318318 0.405421
vt 0.642525 0.374156
vt 0.644400 0.374367
vt 0.644407 0.368556
vt 0.642545 0.368351
vt 0.659500 0.362104
vt 0.657620 0.362193
vt 0.657574 0.368655
vt 0.659449 0.368475
vt 0.643339 0.392322
vt 0.645279 0.391858
vt 0.644565 0.386355
vt 0.642627 0.386428
vt 0.659260 0.380158
vt 0.657358 0.380360
vt 0.657175 0.386649
vt 0.659146 0.386604
vt 0.657076 0.392297
vt 0.657640 0.400934
vt 0.659620 0.401096
vt 0.659111 0.392357
vt 0.648804 0.410419
vt 0.650482 0.409507
vt 0.647362 0.400401
vt 0.645571 0.401257
vt 0.660623 0.409938
vt 0.658711 0.410089
vt 0.661024 0.418239
vt 0.662831 0.418096
vt 0.644393 0.380177
vt 0.010994 0.093383
vt 0.023723 0.093384
vt 0.662710 0.431509
vt 0.659056 0.431297
vt 0.658957 0.432995
vt 0.662612 0.433207
vt 0.657466 0.374507
vt 0.664347 0.431252
vt 0.664861 0.422485
vt 0.663150 0.422942
vt 0.657665 0.355732
vt 0.010994 0.110153
vt 0.010994 0.115940
vt 0.023526 0.115940
vt 0.023710 0.110153
vt 0.659354 0.374316
vt 0.657213 0.422542
vt 0.642551 0.362031
vt 0.644418 0.362135
vt 0.009824 0.129465
vt 0.020303 0.129465
vt 0.022719 0.121181
vt 0.010871 0.121181
vt 0.642504 0.379962
vt 0.006022 0.161573
vt 0.008376 0.151517
vt 0.002142 0.151517
vt 0.001953 0.161573
vt 0.655743 0.423007
vt 0.657460 0.431222
vt 0.654318 0.417614
vt 0.653047 0.418858
vt 0.276941 0.009231
vt 0.276941 0.021079
vt 0.304739 0.008228
vt 0.304739 0.020957
vt 0.332939 0.414556
vt 0.332550 0.410899
vt 0.333402 0.020957
vt 0.333402 0.008240
vt 0.327990 0.008234
vt 0.327990 0.020957
vt 0.316632 0.020957
vt 0.316632 0.008228
vt 0.310685 0.008228
vt 0.310685 0.020957
vt 0.177391 0.414556
vt 0.177779 0.410899
vt 0.010994 0.064721
vt 0.023710 0.064721
vt 0.004849 0.028502
vt 0.012033 0.028502
vt 0.023716 0.104742
vt 0.010994 0.104742
vt 0.008070 0.138036
vt 0.016648 0.138036
vt 0.012033 0.146373
vt 0.004849 0.146373
vt 0.322578 0.008228
vt 0.322578 0.020957
vt 0.255165 0.412138
vt 0.659551 0.355734
vt 0.010994 0.099330
vt 0.023723 0.099330
vt 0.310679 0.025001
vt 0.358115 0.033242
vt 0.335113 0.025001
vt 0.375392 0.050519
vt 0.288587 0.035439
vt 0.385830 0.072611
vt 0.271310 0.052716
vt 0.263069 0.075718
vt 0.385830 0.097045
vt 0.263069 0.100152
vt 0.377589 0.120047
vt 0.273507 0.122244
vt 0.360312 0.137324
vt 0.338220 0.147762
vt 0.290784 0.139521
vt 0.313787 0.147762
s 1
usemtl m0
f 1/1/1 2/2/2 3/3/3
f 4/4/4 5/5/5 6/6/6
f 7/7/7 4/4/4 6/6/6
f 8/8/8 9/9/9 10/10/10
f 11/11/11 12/12/12 13/13/13
f 14/14/14 15/15/15 16/16/16
f 17/17/17 18/18/18 19/19/19
f 20/20/20 21/21/21 22/22/22
f 23/23/23 3/3/3 2/2/2
f 24/24/24 25/25/25 26/26/26
f 27/27/27 25/25/25 24/24/24
f 28/28/28 29/29/29 30/30/30
f 12/12/12 31/31/31 13/13/13
f 21/21/21 32/32/32 22/22/22
f 33/33/33 34/34/34 35/35/35
f 36/36/36 37/37/37 38/38/38
f 39/39/39 40/40/40 41/41/41
f 42/42/42 43/43/43 44/44/44
f 44/44/44 43/43/43 45/45/45
f 8/8/8 10/10/10 46/46/46
f 47/47/47 48/48/48 49/49/49
f 37/37/37 50/50/50 38/38/38
f 51/51/51 17/17/17 19/19/19
f 52/52/52 53/53/53 54/54/54
f 55/55/55 41/41/41 40/40/40
f 56/56/56 57/57/57 58/58/58
f 59/59/59 56/56/56 58/58/58
f 28/28/28 60/60/60 29/29/29
f 61/61/61 62/62/47 63/63/62
f 64/64/63 52/52/52 54/54/54
f 34/34/34 65/65/64 35/35/35
f 15/15/15 66/66/65 16/16/16
f 67/67/66 68/68/67 1/1/1
f 67/67/66 1/1/1 69/69/68
f 68/68/67 70/70/69 2/2/2
f 68/68/67 2/2/2 1/1/1
f 69/69/68 1/1/1 3/3/3
f 69/69/68 3/3/3 71/71/70
f 72/72/71 73/73/72 5/5/5
f 72/72/71 5/5/5 4/4/4
f 73/73/72 67/67/66 69/69/68
f 73/73/72 69/69/68 5/5/5
f 5/5/5 69/69/68 71/71/70
f 5/5/5 71/71/70 6/6/6
f 74/74/73 75/75/74 7/7/7
f 74/74/73 7/7/7 76/76/75
f 75/75/74 72/72/71 4/4/4
f 75/75/74 4/4/4 7/7/7
f 76/76/75 7/7/7 6/6/6
f 76/76/75 6/6/6 77/77/76
f 78/78/77 79/79/78 9/9/9
f 78/78/77 9/9/9 8/8/8
f 79/79/78 74/74/73 76/76/75
f 79/79/78 76/76/75 9/9/9
f 9/9/9 76/76/75 77/77/76
f 9/9/9 77/77/76 10/10/10
f 17/17/17 80/80/79 81/81/80
f 17/17/17 81/81/80 82/82/81
f 83/83/82 84/84/83 12/12/12
f 83/83/82 12/12/12 85/85/84
f 15/15/15 14/14/14 86/86/85
f 15/15/15 86/86/85 82/82/81
f 66/66/65 15/15/15 85/85/84
f 66/66/65 85/85/84 87/87/86
f 12/12/12 11/11/11 87/87/86
f 12/12/12 87/87/86 85/85/84
f 15/15/15 88/88/87 83/83/82
f 15/15/15 83/83/82 85/85/84
f 81/81/80 88/88/87 15/15/15
f 81/81/80 15/15/15 82/82/81
f 18/18/18 17/17/17 82/82/81
f 18/18/18 82/82/81 86/86/85
s 0
f 89/89/88 90/90/88 91/91/88
f 89/89/88 91/91/88 92/92/88
f 93/93/88 94/94/88 95/95/88
f 93/93/88 95/95/88 96/96/88
f 95/95/88 94/94/88 97/97/88
f 95/95/88 97/97/88 98/98/88
f 99/99/88 100/100/88 101/101/88
f 99/99/88 101/101/88 102/102/88
f 101/101/88 100/100/88 93/93/88
f 101/101/88 93/93/88 96/96/88
f 92/92/88 91/91/88 103/103/88
f 92/92/88 103/103/88 104/104/88
s 1
f 105/105/89 106/106/90 107/107/90
f 105/105/89 107/107/90 108/108/89
f 109/109/91 110/110/91 111/111/92
f 109/109/91 111/111/92 112/112/92
f 111/111/92 113/113/93 114/114/93
f 111/111/92 114/114/93 112/112/92
f 107/107/90 106/106/90 115/115/94
f 107/107/90 115/115/94 116/116/94
f 117/117/95 118/118/96 119/119/96
f 117/117/95 119/119/96 120/120/95
f 114/114/93 113/113/93 121/121/97
f 114/114/93 121/121/97 122/122/97
f 123/123/98 124/124/99 125/125/99
f 123/123/98 125/125/99 126/126/98
f 119/119/96 118/118/96 127/127/100
f 119/119/96 127/127/100 128/128/100
f 129/129/101 130/130/102 23/23/23
f 129/129/101 23/23/23 131/131/103
f 131/131/103 23/23/23 2/2/2
f 131/131/103 2/2/2 70/70/69
f 130/130/102 132/132/104 3/3/3
f 130/130/102 3/3/3 23/23/23
f 133/133/105 24/24/24 26/26/26
f 133/133/105 26/26/26 134/134/106
f 134/134/106 26/26/26 130/130/102
f 134/134/106 130/130/102 129/129/101
f 26/26/26 25/25/25 132/132/104
f 26/26/26 132/132/104 130/130/102
f 135/135/107 136/136/108 27/27/27
f 135/135/107 27/27/27 137/137/109
f 137/137/109 27/27/27 24/24/24
f 137/137/109 24/24/24 133/133/105
f 136/136/108 138/138/110 25/25/25
f 136/136/108 25/25/25 27/27/27
f 139/139/111 28/28/28 30/30/30
f 139/139/111 30/30/30 140/140/112
f 140/140/112 30/30/30 136/136/108
f 140/140/112 136/136/108 135/135/107
f 30/30/30 29/29/29 138/138/110
f 30/30/30 138/138/110 136/136/108
f 32/32/32 21/21/21 141/141/113
f 32/32/32 141/141/113 142/142/114
f 12/12/12 84/84/83 143/143/115
f 12/12/12 143/143/115 144/144/116
f 145/145/117 146/146/118 34/34/34
f 145/145/117 34/34/34 141/141/113
f 21/21/21 20/20/20 147/147/119
f 21/21/21 147/147/119 144/144/116
f 31/31/31 12/12/12 144/144/116
f 31/31/31 144/144/116 147/147/119
f 21/21/21 148/148/120 145/145/117
f 21/21/21 145/145/117 141/141/113
f 143/143/115 148/148/120 21/21/21
f 143/143/115 21/21/21 144/144/116
f 34/34/34 33/33/33 142/142/114
f 34/34/34 142/142/114 141/141/113
s 0
f 104/104/88 103/103/88 149/149/88
f 104/104/88 149/149/88 150/150/88
f 151/151/88 152/152/88 153/153/88
f 151/151/88 153/153/88 154/154/88
f 155/155/88 156/156/88 157/157/88
f 155/155/88 157/157/88 158/158/88
f 154/154/88 153/153/88 155/155/88
f 154/154/88 155/155/88 158/158/88
f 159/159/88 160/160/88 161/161/88
f 159/159/88 161/161/88 162/162/88
f 157/157/88 156/156/88 159/159/88
f 157/157/88 159/159/88 162/162/88
f 150/150/88 149/149/88 163/163/88
f 150/150/88 163/163/88 164/164/88
f 161/161/88 160/160/88 165/165/88
f 161/161/88 165/165/88 166/166/88
s 1
f 167/167/121 168/168/122 169/169/122
f 167/167/121 169/169/122 170/170/121
f 125/125/99 124/124/99 167/167/121
f 125/125/99 167/167/121 170/170/121
f 127/127/100 171/171/123 172/172/123
f 127/127/100 172/172/123 128/128/100
f 169/169/122 168/168/122 105/105/89
f 169/169/122 105/105/89 108/108/89
f 121/121/97 173/173/124 174/174/124
f 121/121/97 174/174/124 122/122/97
f 172/172/123 171/171/123 123/123/98
f 172/172/123 123/123/98 126/126/98
f 175/175/125 176/176/126 177/177/126
f 175/175/125 177/177/126 178/178/125
f 174/174/124 173/173/124 179/179/127
f 174/174/124 179/179/127 180/180/127
s 0
f 181/181/88 182/182/88 183/183/88
f 181/181/88 183/183/88 184/184/88
f 164/164/88 163/163/88 152/152/88
f 164/164/88 152/152/88 151/151/88
s 1
f 185/185/128 186/186/129 39/39/39
f 185/185/128 39/39/39 187/187/130
f 187/187/130 39/39/39 41/41/41
f 187/187/130 41/41/41 188/188/131
f 186/186/129 189/189/132 40/40/40
f 186/186/129 40/40/40 39/39/39
f 190/190/133 45/45/45 191/191/134
f 190/190/133 191/191/134 192/192/135
f 192/192/135 191/191/134 186/186/129
f 192/192/135 186/186/129 185/185/128
f 45/45/45 43/43/43 193/193/136
f 45/45/45 193/193/136 191/191/134
f 191/191/134 193/193/136 189/189/132
f 191/191/134 189/189/132 186/186/129
f 194/194/137 42/42/42 44/44/44
f 194/194/137 44/44/44 195/195/138
f 195/195/138 44/44/44 45/45/45
f 195/195/138 45/45/45 190/190/133
f 78/78/77 8/8/8 46/46/46
f 78/78/77 46/46/46 196/196/139
f 196/196/139 46/46/46 42/42/42
f 196/196/139 42/42/42 194/194/137
f 46/46/46 10/10/10 43/43/43
f 46/46/46 43/43/43 42/42/42
f 50/50/50 37/37/37 197/197/140
f 50/50/50 197/197/140 198/198/141
f 47/47/47 199/199/142 200/200/143
f 47/47/47 200/200/143 201/201/144
f 202/202/145 80/80/79 17/17/17
f 202/202/145 17/17/17 197/197/140
f 37/37/37 36/36/36 203/203/146
f 37/37/37 203/203/146 201/201/144
f 48/48/48 47/47/47 201/201/144
f 48/48/48 201/201/144 203/203/146
f 37/37/37 204/204/147 202/202/145
f 37/37/37 202/202/145 197/197/140
f 200/200/143 204/204/147 37/37/37
f 200/200/143 37/37/37 201/201/144
f 17/17/17 51/51/51 198/198/141
f 17/17/17 198/198/141 197/197/140
s 0
f 205/205/88 206/206/88 207/207/88
f 205/205/88 207/207/88 208/208/88
f 184/184/88 183/183/88 205/205/88
f 184/184/88 205/205/88 208/208/88
f 209/209/88 210/210/88 211/211/88
f 209/209/88 211/211/88 212/212/88
f 207/207/88 206/206/88 209/209/88
f 207/207/88 209/209/88 212/212/88
f 213/213/88 214/214/88 215/215/88
f 213/213/88 215/215/88 216/216/88
f 211/211/88 210/210/88 99/99/88
f 211/211/88 99/99/88 102/102/88
s 1
f 177/177/126 176/176/126 217/217/148
f 177/177/126 217/217/148 218/218/148
f 217/217/148 219/219/149 220/220/149
f 217/217/148 220/220/149 218/218/148
f 220/220/149 219/219/149 221/221/150
f 220/220/149 221/221/150 222/222/150
f 223/223/151 224/224/152 225/225/152
f 223/223/151 225/225/152 226/226/151
f 225/225/152 224/224/152 175/175/125
f 225/225/152 175/175/125 178/178/125
f 227/227/153 228/228/154 229/229/154
f 227/227/153 229/229/154 230/230/153
f 229/229/154 228/228/154 117/117/95
f 229/229/154 117/117/95 120/120/95
f 231/231/155 232/232/156 233/233/156
f 231/231/155 233/233/156 234/234/155
f 235/235/157 236/236/158 55/55/55
f 235/235/157 55/55/55 237/237/159
f 236/236/158 188/188/131 41/41/41
f 236/236/158 41/41/41 55/55/55
f 237/237/159 55/55/55 40/40/40
f 237/237/159 40/40/40 238/238/160
f 239/239/161 240/240/162 57/57/57
f 239/239/161 57/57/57 56/56/56
f 240/240/162 235/235/157 237/237/159
f 240/240/162 237/237/159 57/57/57
f 57/57/57 237/237/159 238/238/160
f 57/57/57 238/238/160 58/58/58
f 241/241/163 242/242/164 59/59/59
f 241/241/163 59/59/59 243/243/165
f 242/242/164 239/239/161 56/56/56
f 242/242/164 56/56/56 59/59/59
f 243/243/165 59/59/59 58/58/58
f 243/243/165 58/58/58 244/244/166
f 139/139/111 245/245/167 60/60/60
f 139/139/111 60/60/60 28/28/28
f 245/245/167 241/241/163 243/243/165
f 245/245/167 243/243/165 60/60/60
f 60/60/60 243/243/165 244/244/166
f 60/60/60 244/244/166 29/29/29
f 34/34/34 146/146/118 246/246/168
f 34/34/34 246/246/168 247/247/169
f 248/248/170 249/249/171 62/62/47
f 248/248/170 62/62/47 250/250/172
f 52/52/52 64/64/63 251/251/173
f 52/52/52 251/251/173 247/247/169
f 53/53/53 52/52/52 250/250/172
f 53/53/53 250/250/172 252/252/174
f 62/62/47 61/61/61 252/252/174
f 62/62/47 252/252/174 250/250/172
f 52/52/52 253/253/175 248/248/170
f 52/52/52 248/248/170 250/250/172
f 246/246/168 253/253/175 52/52/52
f 246/246/168 52/52/52 247/247/169
f 65/65/64 34/34/34 247/247/169
f 65/65/64 247/247/169 251/251/173
s 0
f 254/254/88 255/255/88 256/256/88
f 254/254/88 256/256/88 257/257/88
f 216/216/88 215/215/88 182/182/88
f 216/216/88 182/182/88 181/181/88
f 256/256/88 255/255/88 258/258/88
f 256/256/88 258/258/88 259/259/88
f 260/260/88 261/261/88 262/262/88
f 260/260/88 262/262/88 263/263/88
f 262/262/88 261/261/88 254/254/88
f 262/262/88 254/254/88 257/257/88
f 165/165/88 264/264/88 265/265/88
f 165/165/88 265/265/88 166/166/88
f 265/265/88 264/264/88 260/260/88
f 265/265/88 260/260/88 263/263/88
f 259/259/88 258/258/88 266/266/88
f 259/259/88 266/266/88 267/267/88
s 1
f 233/233/156 232/232/156 268/268/176
f 233/233/156 268/268/176 269/269/176
f 270/270/177 271/271/178 272/272/178
f 270/270/177 272/272/178 273/273/177
f 272/272/178 271/271/178 231/231/155
f 272/272/178 231/231/155 234/234/155
f 268/268/176 274/274/179 275/275/179
f 268/268/176 275/275/179 269/269/176
f 275/275/179 274/274/179 227/227/153
f 275/275/179 227/227/153 230/230/153
f 179/179/127 276/276/180 277/277/180
f 179/179/127 277/277/180 180/180/127
f 277/277/180 276/276/180 223/223/151
f 277/277/180 223/223/151 226/226/151
s 0
f 97/97/88 90/90/88 89/89/88
f 97/97/88 89/89/88 98/98/88
f 267/267/88 266/266/88 278/278/88
f 267/267/88 278/278/88 279/279/88
s 1
f 115/115/94 110/110/91 109/109/91
f 115/115/94 109/109/91 116/116/94
f 280/280/181 281/281/182 282/282/183
f 280/280/181 282/282/183 283/283/184
f 284/284/185 285/285/186 286/286/187
f 284/284/185 286/286/187 287/287/185
f 288/288/188 289/289/189 290/290/190
f 288/288/188 290/290/190 291/291/191
f 292/292/185 293/293/192 294/294/193
f 292/292/185 294/294/193 295/295/194
f 296/296/195 297/297/196 298/298/197
f 296/296/195 298/298/197 299/299/198
f 300/300/199 301/301/200 302/302/201
f 300/300/199 302/302/201 303/303/202
f 304/304/203 305/305/204 306/306/205
f 304/304/203 306/306/205 307/307/206
f 308/308/207 281/281/182 309/309/208
f 308/308/207 309/309/208 293/293/192
f 306/306/205 305/305/204 301/301/200
f 306/306/205 301/301/200 310/310/209
f 297/297/196 296/296/195 289/289/189
f 297/297/196 289/289/189 302/302/201
f 311/311/210 312/312/211 313/313/211
f 311/311/210 313/313/211 314/314/212
f 315/315/213 285/285/186 316/316/214
f 315/315/213 316/316/214 317/317/215
f 318/318/216 319/319/217 320/320/218
f 318/318/216 320/320/218 321/321/219
f 306/306/205 310/310/209 322/322/220
f 306/306/205 322/322/220 321/321/219
f 311/311/210 314/314/212 323/323/221
f 311/311/210 323/323/221 324/324/222
f 325/325/185 308/308/207 293/293/192
f 325/325/185 293/293/192 292/292/185
f 326/326/88 315/315/213 317/317/215
f 326/326/88 317/317/215 327/327/88
f 328/328/223 329/329/224 330/330/225
f 328/328/223 330/330/225 331/331/226
f 295/295/194 294/294/193 296/296/195
f 295/295/194 296/296/195 299/299/198
f 291/291/191 290/290/190 309/309/208
f 291/291/191 309/309/208 332/332/227
f 333/333/228 334/334/229 330/330/225
f 333/333/228 330/330/225 329/329/224
f 323/323/221 335/335/230 336/336/231
f 323/323/221 336/336/231 324/324/222
f 337/337/232 338/338/233 339/339/234
f 337/337/232 339/339/234 322/322/220
f 303/303/202 302/302/201 289/289/189
f 303/303/202 289/289/189 288/288/188
f 298/298/197 297/297/196 305/305/204
f 298/298/197 305/305/204 304/304/203
f 337/337/232 322/322/220 310/310/209
f 337/337/232 310/310/209 340/340/235
f 340/340/235 310/310/209 301/301/200
f 340/340/235 301/301/200 300/300/199
f 307/307/206 306/306/205 321/321/219
f 307/307/206 321/321/219 320/320/218
f 341/341/236 342/342/237 343/343/238
f 341/341/236 343/343/238 344/344/239
f 345/345/185 346/346/185 347/347/240
f 345/345/185 347/347/240 348/348/241
f 349/349/242 350/350/243 351/351/244
f 349/349/242 351/351/244 352/352/245
f 353/353/185 354/354/246 355/355/247
f 353/353/185 355/355/247 356/356/248
f 357/357/249 358/358/250 359/359/251
f 357/357/249 359/359/251 360/360/252
f 361/361/253 362/362/254 363/363/255
f 361/361/253 363/363/255 364/364/256
f 365/365/257 366/366/258 367/367/259
f 365/365/257 367/367/259 368/368/260
f 355/355/247 351/351/244 369/369/261
f 355/355/247 369/369/261 356/356/248
f 355/355/247 357/357/249 352/352/245
f 355/355/247 352/352/245 351/351/244
f 344/344/239 343/343/238 347/347/240
f 344/344/239 347/347/240 370/370/262
f 371/371/263 372/372/263 373/373/264
f 371/371/263 373/373/264 374/374/265
f 374/374/265 375/375/266 376/376/267
f 374/374/265 376/376/267 377/377/268
f 378/378/269 375/375/266 374/374/265
f 378/378/269 374/374/265 373/373/264
f 379/379/185 353/353/185 356/356/248
f 379/379/185 356/356/248 370/370/262
f 380/380/270 381/381/270 382/382/271
f 380/380/270 382/382/271 383/383/271
f 384/384/88 385/385/88 386/386/272
f 384/384/88 386/386/272 387/387/273
f 354/354/246 358/358/250 357/357/249
f 354/354/246 357/357/249 355/355/247
f 350/350/243 388/388/274 369/369/261
f 350/350/243 369/369/261 351/351/244
f 389/389/275 390/390/276 391/391/277
f 389/389/275 391/391/277 392/392/278
f 393/393/279 394/394/280 395/395/281
f 393/393/279 395/395/281 396/396/281
f 397/397/282 378/378/269 373/373/264
f 397/397/282 373/373/264 398/398/283
f 362/362/254 349/349/242 352/352/245
f 362/362/254 352/352/245 363/363/255
f 359/359/251 365/365/257 368/368/260
f 359/359/251 368/368/260 360/360/252
f 399/399/284 400/400/127 401/401/127
f 399/399/284 401/401/127 402/402/284
f 368/368/260 364/364/256 363/363/255
f 368/368/260 363/363/255 360/360/252
f 397/397/282 403/403/285 404/404/286
f 397/397/282 404/404/286 378/378/269
f 405/405/287 406/406/288 407/407/289
f 405/405/287 407/407/289 408/408/290
f 403/403/285 361/361/253 364/364/256
f 403/403/285 364/364/256 404/404/286
f 366/366/258 376/376/267 375/375/266
f 366/366/258 375/375/266 367/367/259
f 409/409/291 410/410/292 411/411/293
f 409/409/291 411/411/293 412/412/294
f 413/413/185 414/414/185 415/415/295
f 413/413/185 415/415/295 416/416/296
f 417/417/297 418/418/298 419/419/299
f 417/417/297 419/419/299 420/420/300
f 421/421/185 422/422/301 423/423/302
f 421/421/185 423/423/302 424/424/303
f 425/425/304 426/426/305 427/427/306
f 425/425/304 427/427/306 428/428/307
f 429/429/308 430/430/309 431/431/310
f 429/429/308 431/431/310 432/432/311
f 433/433/312 434/434/313 435/435/314
f 433/433/312 435/435/314 436/436/315
f 437/437/316 424/424/303 438/438/317
f 437/437/316 438/438/317 412/412/294
f 436/436/315 432/432/311 431/431/310
f 436/436/315 431/431/310 428/428/307
f 439/439/318 440/440/319 441/441/320
f 439/439/318 441/441/320 442/442/320
f 416/416/296 415/415/295 411/411/293
f 416/416/296 411/411/293 443/443/321
f 444/444/322 445/445/323 446/446/324
f 444/444/322 446/446/324 447/447/325
f 448/448/326 449/449/327 450/450/328
f 448/448/326 450/450/328 451/451/329
f 435/435/314 449/449/327 452/452/330
f 435/435/314 452/452/330 453/453/331
f 454/454/332 455/455/333 440/440/319
f 454/454/332 440/440/319 439/439/318
f 456/456/334 457/457/335 458/458/336
f 456/456/334 458/458/336 459/459/337
f 460/460/185 421/421/185 424/424/303
f 460/460/185 424/424/303 437/437/316
f 461/461/88 327/327/88 317/317/215
f 461/461/88 317/317/215 443/443/321
f 422/422/301 426/426/305 425/425/304
f 422/422/301 425/425/304 423/423/302
f 418/418/298 462/462/338 438/438/317
f 418/418/298 438/438/317 419/419/299
f 463/463/339 452/452/330 464/464/340
f 463/463/339 464/464/340 465/465/341
f 430/430/309 417/417/297 420/420/300
f 430/430/309 420/420/300 431/431/310
f 427/427/306 433/433/312 436/436/315
f 427/427/306 436/436/315 428/428/307
f 466/466/342 467/467/343 468/468/344
f 466/466/342 468/468/344 469/469/345
f 436/436/315 435/435/314 453/453/331
f 436/436/315 453/453/331 432/432/311
f 463/463/339 470/470/346 453/453/331
f 463/463/339 453/453/331 452/452/330
f 466/466/342 455/455/333 454/454/332
f 466/466/342 454/454/332 467/467/343
f 470/470/346 429/429/308 432/432/311
f 470/470/346 432/432/311 453/453/331
f 434/434/313 450/450/328 449/449/327
f 434/434/313 449/449/327 435/435/314
f 471/471/347 472/472/348 473/473/349
f 471/471/347 473/473/349 474/474/350
f 475/475/185 476/476/351 477/477/352
f 475/475/185 477/477/352 478/478/185
f 479/479/353 480/480/354 481/481/355
f 479/479/353 481/481/355 482/482/356
f 483/483/185 484/484/357 485/485/358
f 483/483/185 485/485/358 486/486/359
f 487/487/360 488/488/361 489/489/362
f 487/487/360 489/489/362 490/490/363
f 491/491/364 492/492/365 493/493/366
f 491/491/364 493/493/366 494/494/367
f 495/495/368 496/496/369 497/497/370
f 495/495/368 497/497/370 498/498/371
f 488/488/361 493/493/366 492/492/365
f 488/488/361 492/492/365 496/496/369
f 484/484/357 499/499/372 481/481/355
f 484/484/357 481/481/355 485/485/358
f 500/500/373 501/501/373 401/401/127
f 500/500/373 401/401/127 400/400/127
f 502/502/374 503/503/375 504/504/376
f 502/502/374 504/504/376 505/505/376
f 506/506/377 472/472/348 499/499/372
f 506/506/377 499/499/372 484/484/357
f 502/502/374 507/507/378 508/508/379
f 502/502/374 508/508/379 509/509/380
f 387/387/273 386/386/272 510/510/381
f 387/387/273 510/510/381 348/348/241
f 511/511/382 512/512/383 513/513/384
f 511/511/382 513/513/384 514/514/385
f 515/515/185 506/506/377 484/484/357
f 515/515/185 484/484/357 483/483/185
f 502/502/374 509/509/380 516/516/386
f 502/502/374 516/516/386 503/503/375
f 517/517/88 518/518/387 386/386/272
f 517/517/88 386/386/272 385/385/88
f 519/519/388 520/520/389 521/521/390
f 519/519/388 521/521/390 522/522/391
f 486/486/359 485/485/358 487/487/360
f 486/486/359 487/487/360 490/490/363
f 482/482/356 481/481/355 499/499/372
f 482/482/356 499/499/372 523/523/392
f 524/524/393 525/525/394 526/526/395
f 524/524/393 526/526/395 527/527/393
f 528/528/396 529/529/397 503/503/375
f 528/528/396 503/503/375 516/516/386
f 494/494/367 493/493/366 480/480/354
f 494/494/367 480/480/354 479/479/353
f 489/489/362 488/488/361 496/496/369
f 489/489/362 496/496/369 495/495/368
f 481/481/355 480/480/354 487/487/360
f 481/481/355 487/487/360 485/485/358
f 528/528/396 516/516/386 530/530/398
f 528/528/396 530/530/398 531/531/399
f 497/497/370 530/530/398 516/516/386
f 497/497/370 516/516/386 509/509/380
f 531/531/399 530/530/398 492/492/365
f 531/531/399 492/492/365 491/491/364
f 498/498/371 497/497/370 509/509/380
f 498/498/371 509/509/380 508/508/379
f 532/532/400 469/469/345 468/468/344
f 532/532/400 468/468/344 533/533/401
f 532/532/400 533/533/401 444/444/322
f 532/532/400 444/444/322 447/447/325
f 534/534/402 459/459/337 458/458/336
f 534/534/402 458/458/336 535/535/402
f 536/536/403 537/537/403 464/464/340
f 536/536/403 464/464/340 448/448/326
f 452/452/330 449/449/327 448/448/326
f 452/452/330 448/448/326 464/464/340
f 425/425/304 428/428/307 431/431/310
f 425/425/304 431/431/310 420/420/300
f 423/423/302 419/419/299 438/438/317
f 423/423/302 438/438/317 424/424/303
f 425/425/304 420/420/300 419/419/299
f 425/425/304 419/419/299 423/423/302
f 328/328/223 331/331/226 336/336/231
f 328/328/223 336/336/231 335/335/230
f 538/538/404 334/334/229 333/333/228
f 538/538/404 333/333/228 539/539/405
f 540/540/406 541/541/407 538/538/404
f 540/540/406 538/538/404 539/539/405
f 542/542/408 543/543/408 544/544/95
f 542/542/408 544/544/95 545/545/95
f 546/546/409 318/318/216 339/339/234
f 546/546/409 339/339/234 547/547/409
f 322/322/220 339/339/234 318/318/216
f 322/322/220 318/318/216 321/321/219
f 297/297/196 302/302/201 301/301/200
f 297/297/196 301/301/200 305/305/204
f 293/293/192 309/309/208 290/290/190
f 293/293/192 290/290/190 294/294/193
f 294/294/193 290/290/190 289/289/189
f 294/294/193 289/289/189 296/296/195
f 363/363/255 352/352/245 357/357/249
f 363/363/255 357/357/249 360/360/252
f 392/392/278 391/391/277 548/548/410
f 392/392/278 548/548/410 549/549/411
f 389/389/275 408/408/290 407/407/289
f 389/389/275 407/407/289 390/390/276
f 378/378/269 404/404/286 367/367/259
f 378/378/269 367/367/259 375/375/266
f 368/368/260 367/367/259 404/404/286
f 368/368/260 404/404/286 364/364/256
f 393/393/279 550/550/412 551/551/413
f 393/393/279 551/551/413 394/394/280
f 405/405/287 551/551/413 550/550/412
f 405/405/287 550/550/412 406/406/288
f 488/488/361 487/487/360 480/480/354
f 488/488/361 480/480/354 493/493/366
f 518/518/387 476/476/351 510/510/381
f 518/518/387 510/510/381 386/386/272
f 552/552/414 553/553/414 511/511/382
f 552/552/414 511/511/382 514/514/385
f 513/513/384 512/512/383 522/522/391
f 513/513/384 522/522/391 521/521/390
f 520/520/389 519/519/388 554/554/415
f 520/520/389 554/554/415 555/555/416
f 492/492/365 530/530/398 497/497/370
f 492/492/365 497/497/370 496/496/369
f 525/525/394 556/556/417 557/557/418
f 525/525/394 557/557/418 526/526/395
f 554/554/415 557/557/418 556/556/417
f 554/554/415 556/556/417 555/555/416
f 558/558/419 559/559/419 541/541/407
f 558/558/419 541/541/407 540/540/406
f 287/287/185 286/286/187 308/308/207
f 287/287/185 308/308/207 325/325/185
f 286/286/187 282/282/183 281/281/182
f 286/286/187 281/281/182 308/308/207
f 332/332/227 309/309/208 281/281/182
f 332/332/227 281/281/182 280/280/181
f 414/414/185 460/460/185 437/437/316
f 414/414/185 437/437/316 415/415/295
f 446/446/324 445/445/323 457/457/335
f 446/446/324 457/457/335 456/456/334
f 415/415/295 437/437/316 412/412/294
f 415/415/295 412/412/294 411/411/293
f 462/462/338 409/409/291 412/412/294
f 462/462/338 412/412/294 438/438/317
f 559/559/419 558/558/419 543/543/408
f 559/559/419 543/543/408 542/542/408
f 283/283/184 282/282/183 315/315/213
f 283/283/184 315/315/213 326/326/88
f 282/282/183 286/286/187 285/285/186
f 282/282/183 285/285/186 315/315/213
f 560/560/185 316/316/214 285/285/186
f 560/560/185 285/285/186 284/284/185
f 544/544/95 534/534/402 535/535/402
f 544/544/95 535/535/402 545/545/95
f 410/410/292 461/461/88 443/443/321
f 410/410/292 443/443/321 411/411/293
f 316/316/214 416/416/296 443/443/321
f 316/316/214 443/443/321 317/317/215
f 560/560/185 413/413/185 416/416/296
f 560/560/185 416/416/296 316/316/214
f 343/343/238 387/387/273 348/348/241
f 343/343/238 348/348/241 347/347/240
f 382/382/271 399/399/284 402/402/284
f 382/382/271 402/402/284 383/383/271
f 342/342/237 384/384/88 387/387/273
f 342/342/237 387/387/273 343/343/238
f 561/561/185 345/345/185 348/348/241
f 561/561/185 348/348/241 510/510/381
f 473/473/349 477/477/352 476/476/351
f 473/473/349 476/476/351 518/518/387
f 474/474/350 473/473/349 518/518/387
f 474/474/350 518/518/387 517/517/88
f 562/562/420 563/563/420 501/501/373
f 562/562/420 501/501/373 500/500/373
f 561/561/185 510/510/381 476/476/351
f 561/561/185 476/476/351 475/475/185
f 549/549/411 548/548/410 381/381/270
f 549/549/411 381/381/270 380/380/270
f 346/346/185 379/379/185 370/370/262
f 346/346/185 370/370/262 347/347/240
f 369/369/261 344/344/239 370/370/262
f 369/369/261 370/370/262 356/356/248
f 388/388/274 341/341/236 344/344/239
f 388/388/274 344/344/239 369/369/261
f 563/563/420 562/562/420 553/553/414
f 563/563/420 553/553/414 552/552/414
f 478/478/185 477/477/352 506/506/377
f 478/478/185 506/506/377 515/515/185
f 477/477/352 473/473/349 472/472/348
f 477/477/352 472/472/348 506/506/377
f 523/523/392 499/499/372 472/472/348
f 523/523/392 472/472/348 471/471/347
s 0
f 573/564/88 571/565/88 572/566/88
f 571/565/88 573/564/88 570/567/88
f 570/567/88 573/564/88 574/568/88
f 570/567/88 574/568/88 569/569/88
f 569/569/88 574/568/88 575/570/88
f 569/569/88 575/570/88 576/571/88
f 569/569/88 576/571/88 568/572/88
f 568/572/88 576/571/88 577/573/88
f 568/572/88 577/573/88 567/574/88
f 567/574/88 577/573/88 578/575/88
f 567/574/88 578/575/88 566/576/88
f 566/576/88 578/575/88 565/577/88
f 565/577/88 578/575/88 579/578/88
f 565/577/88 579/578/88 564/579/88
s 1
f 77/77/76 43/43/43 10/10/10
f 43/43/43 77/77/76 6/6/6
f 43/43/43 6/6/6 193/193/136
f 193/193/136 6/6/6 71/71/70
f 193/193/136 71/71/70 189/189/132
f 189/189/132 71/71/70 3/3/3
f 189/189/132 3/3/3 40/40/40
f 40/40/40 3/3/3 132/132/104
f 40/40/40 132/132/104 238/238/160
f 238/238/160 132/132/104 25/25/25
f 238/238/160 25/25/25 58/58/58
f 58/58/58 25/25/25 138/138/110
f 58/58/58 138/138/110 244/244/166
f 244/244/166 138/138/110 29/29/29
