# Blender 5.2.2 LTS
# www.blender.org
mtllib PipeHanger.mtl
o PipeHanger
v -0.012500 -0.324000 0.039550
v -0.012500 -0.324000 0.042550
v 0.012500 -0.324000 0.039550
v 0.012500 -0.324000 0.042550
v -0.012500 -0.376000 0.039550
v -0.012500 -0.376000 0.042550
v 0.012500 -0.376000 0.039550
v 0.012500 -0.376000 0.042550
v -0.012500 -0.381162 0.039212
v -0.012500 -0.381554 0.042186
v 0.012500 -0.381162 0.039212
v 0.012500 -0.381554 0.042186
v -0.012500 -0.386236 0.038202
v -0.012500 -0.387013 0.041100
v 0.012500 -0.386236 0.038202
v 0.012500 -0.387013 0.041100
v -0.012500 -0.391135 0.036539
v -0.012500 -0.392283 0.039311
v 0.012500 -0.391135 0.036539
v 0.012500 -0.392283 0.039311
v -0.012500 -0.395775 0.034251
v -0.012500 -0.397275 0.036849
v 0.012500 -0.395775 0.034251
v 0.012500 -0.397275 0.036849
v -0.012500 -0.400077 0.031377
v -0.012500 -0.401903 0.033757
v 0.012500 -0.400077 0.031377
v 0.012500 -0.401903 0.033757
v -0.012500 -0.403966 0.027966
v -0.012500 -0.406087 0.030087
v 0.012500 -0.403966 0.027966
v 0.012500 -0.406087 0.030087
v -0.012500 -0.407377 0.024077
v -0.012500 -0.409757 0.025903
v 0.012500 -0.407377 0.024077
v 0.012500 -0.409757 0.025903
v -0.012500 -0.410251 0.019775
v -0.012500 -0.412849 0.021275
v 0.012500 -0.410251 0.019775
v 0.012500 -0.412849 0.021275
v -0.012500 -0.412539 0.015135
v -0.012500 -0.415311 0.016283
v 0.012500 -0.412539 0.015135
v 0.012500 -0.415311 0.016283
v -0.012500 -0.414202 0.010236
v -0.012500 -0.417100 0.011013
v 0.012500 -0.414202 0.010236
v 0.012500 -0.417100 0.011013
v -0.012500 -0.415212 0.005162
v -0.012500 -0.418186 0.005554
v 0.012500 -0.415212 0.005162
v 0.012500 -0.418186 0.005554
v -0.012500 -0.415550 0.000000
v -0.012500 -0.418550 0.000000
v 0.012500 -0.415550 0.000000
v 0.012500 -0.418550 0.000000
v -0.012500 -0.415212 -0.005162
v -0.012500 -0.418186 -0.005554
v 0.012500 -0.415212 -0.005162
v 0.012500 -0.418186 -0.005554
v -0.012500 -0.414202 -0.010236
v -0.012500 -0.417100 -0.011013
v 0.012500 -0.414202 -0.010236
v 0.012500 -0.417100 -0.011013
v -0.012500 -0.412539 -0.015135
v -0.012500 -0.415311 -0.016283
v 0.012500 -0.412539 -0.015135
v 0.012500 -0.415311 -0.016283
v -0.012500 -0.410251 -0.019775
v -0.012500 -0.412849 -0.021275
v 0.012500 -0.410251 -0.019775
v 0.012500 -0.412849 -0.021275
v -0.012500 -0.407377 -0.024077
v -0.012500 -0.409757 -0.025903
v 0.012500 -0.407377 -0.024077
v 0.012500 -0.409757 -0.025903
v -0.012500 -0.403966 -0.027966
v -0.012500 -0.406087 -0.030087
v 0.012500 -0.403966 -0.027966
v 0.012500 -0.406087 -0.030087
v -0.012500 -0.400077 -0.031377
v -0.012500 -0.401903 -0.033757
v 0.012500 -0.400077 -0.031377
v 0.012500 -0.401903 -0.033757
v -0.012500 -0.395775 -0.034251
v -0.012500 -0.397275 -0.036849
v 0.012500 -0.395775 -0.034251
v 0.012500 -0.397275 -0.036849
v -0.012500 -0.391135 -0.036539
v -0.012500 -0.392283 -0.039311
v 0.012500 -0.391135 -0.036539
v 0.012500 -0.392283 -0.039311
v -0.012500 -0.386236 -0.038202
v -0.012500 -0.387013 -0.041100
v 0.012500 -0.386236 -0.038202
v 0.012500 -0.387013 -0.041100
v -0.012500 -0.381162 -0.039212
v -0.012500 -0.381554 -0.042186
v 0.012500 -0.381162 -0.039212
v 0.012500 -0.381554 -0.042186
v -0.012500 -0.376000 -0.039550
v -0.012500 -0.376000 -0.042550
v 0.012500 -0.376000 -0.039550
v 0.012500 -0.376000 -0.042550
v -0.012500 -0.324000 -0.039550
v -0.012500 -0.324000 -0.042550
v 0.012500 -0.324000 -0.039550
v 0.012500 -0.324000 -0.042550
v 0.000000 -0.341000 0.050550
v 0.000000 -0.341000 -0.054550
v 0.002500 -0.340330 0.050550
v 0.002500 -0.340330 -0.054550
v 0.004330 -0.338500 0.050550
v 0.004330 -0.338500 -0.054550
v 0.005000 -0.336000 0.050550
v 0.005000 -0.336000 -0.054550
v 0.004330 -0.333500 0.050550
v 0.004330 -0.333500 -0.054550
v 0.002500 -0.331670 0.050550
v 0.002500 -0.331670 -0.054550
v 0.000000 -0.331000 0.050550
v 0.000000 -0.331000 -0.054550
v -0.002500 -0.331670 0.050550
v -0.002500 -0.331670 -0.054550
v -0.004330 -0.333500 0.050550
v -0.004330 -0.333500 -0.054550
v -0.005000 -0.336000 0.050550
v -0.005000 -0.336000 -0.054550
v -0.004330 -0.338500 0.050550
v -0.004330 -0.338500 -0.054550
v -0.002500 -0.340330 0.050550
v -0.002500 -0.340330 -0.054550
v 0.000000 -0.345815 0.050550
v 0.000000 -0.345815 0.043550
v 0.008500 -0.340907 0.050550
v 0.008500 -0.340907 0.043550
v 0.008500 -0.331093 0.050550
v 0.008500 -0.331093 0.043550
v 0.000000 -0.326185 0.050550
v 0.000000 -0.326185 0.043550
v -0.008500 -0.331093 0.050550
v -0.008500 -0.331093 0.043550
v -0.008500 -0.340907 0.050550
v -0.008500 -0.340907 0.043550
v 0.000000 -0.345815 -0.043550
v 0.000000 -0.345815 -0.051550
v 0.008500 -0.340907 -0.043550
v 0.008500 -0.340907 -0.051550
v 0.008500 -0.331093 -0.043550
v 0.008500 -0.331093 -0.051550
v 0.000000 -0.326185 -0.043550
v 0.000000 -0.326185 -0.051550
v -0.008500 -0.331093 -0.043550
v -0.008500 -0.331093 -0.051550
v -0.008500 -0.340907 -0.043550
v -0.008500 -0.340907 -0.051550
v 0.000000 -0.342000 -0.011500
v 0.000000 -0.300000 -0.011500
v 0.009959 -0.342000 -0.005750
v 0.009959 -0.300000 -0.005750
v 0.009959 -0.342000 0.005750
v 0.009959 -0.300000 0.005750
v 0.000000 -0.342000 0.011500
v 0.000000 -0.300000 0.011500
v -0.009959 -0.342000 0.005750
v -0.009959 -0.300000 0.005750
v -0.009959 -0.342000 -0.005750
v -0.009959 -0.300000 -0.005750
v 0.000000 -0.306000 -0.005000
v 0.000000 0.000000 -0.005000
v 0.002500 -0.306000 -0.004330
v 0.002500 0.000000 -0.004330
v 0.004330 -0.306000 -0.002500
v 0.004330 0.000000 -0.002500
v 0.005000 -0.306000 0.000000
v 0.005000 0.000000 0.000000
v 0.004330 -0.306000 0.002500
v 0.004330 0.000000 0.002500
v 0.002500 -0.306000 0.004330
v 0.002500 0.000000 0.004330
v 0.000000 -0.306000 0.005000
v 0.000000 0.000000 0.005000
v -0.002500 -0.306000 0.004330
v -0.002500 0.000000 0.004330
v -0.004330 -0.306000 0.002500
v -0.004330 0.000000 0.002500
v -0.005000 -0.306000 0.000000
v -0.005000 0.000000 0.000000
v -0.004330 -0.306000 -0.002500
v -0.004330 0.000000 -0.002500
v -0.002500 -0.306000 -0.004330
v -0.002500 0.000000 -0.004330
vn -1.0000 -0.0000 -0.0000
vn -0.0000 -0.0327 0.9995
vn -0.0000 -0.0000 1.0000
vn 1.0000 -0.0000 -0.0000
vn -0.0000 0.0327 -0.9995
vn -0.0000 -0.0000 -1.0000
vn -0.0000 -0.1305 0.9914
vn -0.0000 0.1305 -0.9914
vn -0.0000 -0.2588 0.9659
vn -0.0000 0.2588 -0.9659
vn -0.0000 -0.3827 0.9239
vn -0.0000 0.3827 -0.9239
vn -0.0000 -0.5000 0.8660
vn -0.0000 0.5000 -0.8660
vn -0.0000 -0.6088 0.7934
vn -0.0000 0.6088 -0.7934
vn -0.0000 -0.7071 0.7071
vn -0.0000 0.7071 -0.7071
vn -0.0000 -0.7934 0.6088
vn -0.0000 0.7934 -0.6088
vn -0.0000 -0.8660 0.5000
vn -0.0000 0.8660 -0.5000
vn -0.0000 -0.9239 0.3827
vn -0.0000 0.9239 -0.3827
vn -0.0000 -0.9659 0.2588
vn -0.0000 0.9659 -0.2588
vn -0.0000 -0.9914 0.1305
vn -0.0000 0.9914 -0.1305
vn -0.0000 -1.0000 -0.0000
vn -0.0000 1.0000 -0.0000
vn -0.0000 -0.9914 -0.1305
vn -0.0000 0.9914 0.1305
vn -0.0000 -0.9659 -0.2588
vn -0.0000 0.9659 0.2588
vn -0.0000 -0.9239 -0.3827
vn -0.0000 0.9239 0.3827
vn -0.0000 -0.8660 -0.5000
vn -0.0000 0.8660 0.5000
vn -0.0000 -0.7934 -0.6088
vn -0.0000 0.7934 0.6088
vn -0.0000 -0.7071 -0.7071
vn -0.0000 0.7071 0.7071
vn -0.0000 -0.6088 -0.7934
vn -0.0000 0.6088 0.7934
vn -0.0000 -0.5000 -0.8660
vn -0.0000 0.5000 0.8660
vn -0.0000 -0.3827 -0.9239
vn -0.0000 0.3827 0.9239
vn -0.0000 -0.2588 -0.9659
vn -0.0000 0.2588 0.9659
vn -0.0000 -0.1305 -0.9914
vn -0.0000 0.1305 0.9914
vn -0.0000 -0.0327 -0.9995
vn -0.0000 0.0327 0.9995
vn 0.5000 -0.0000 -0.8660
vn 0.5000 -0.8660 -0.0000
vn 0.8660 -0.5000 -0.0000
vn -0.5000 0.8660 -0.0000
vn 0.5000 0.8660 -0.0000
vn 0.8660 0.5000 -0.0000
vn -0.5000 -0.8660 -0.0000
vn -0.8660 0.5000 -0.0000
vn -0.8660 -0.5000 -0.0000
vn 0.5000 -0.0000 0.8660
vn -0.5000 -0.0000 0.8660
vn 0.8660 -0.0000 -0.5000
vn -0.5000 -0.0000 -0.8660
vn 0.8660 -0.0000 0.5000
vn -0.8660 -0.0000 0.5000
vn -0.8660 -0.0000 -0.5000
s 1
usemtl m0
f 5//1 2//1 1//1
f 6//2 4//3 2//3
f 8//4 3//4 4//4
f 7//5 1//6 3//6
f 9//1 6//1 5//1
f 10//7 8//2 6//2
f 8//4 11//4 7//4
f 11//8 5//5 7//5
f 13//1 10//1 9//1
f 14//9 12//7 10//7
f 12//4 15//4 11//4
f 15//10 9//8 11//8
f 17//1 14//1 13//1
f 18//11 16//9 14//9
f 16//4 19//4 15//4
f 19//12 13//10 15//10
f 21//1 18//1 17//1
f 22//13 20//11 18//11
f 20//4 23//4 19//4
f 23//14 17//12 19//12
f 25//1 22//1 21//1
f 26//15 24//13 22//13
f 24//4 27//4 23//4
f 27//16 21//14 23//14
f 25//1 30//1 26//1
f 30//17 28//15 26//15
f 32//4 27//4 28//4
f 31//18 25//16 27//16
f 29//1 34//1 30//1
f 34//19 32//17 30//17
f 36//4 31//4 32//4
f 35//20 29//18 31//18
f 33//1 38//1 34//1
f 38//21 36//19 34//19
f 40//4 35//4 36//4
f 39//22 33//20 35//20
f 41//1 38//1 37//1
f 42//23 40//21 38//21
f 40//4 43//4 39//4
f 43//24 37//22 39//22
f 45//1 42//1 41//1
f 46//25 44//23 42//23
f 48//4 43//4 44//4
f 47//26 41//24 43//24
f 45//1 50//1 46//1
f 50//27 48//25 46//25
f 52//4 47//4 48//4
f 51//28 45//26 47//26
f 53//1 50//1 49//1
f 54//29 52//27 50//27
f 52//4 55//4 51//4
f 55//30 49//28 51//28
f 53//1 58//1 54//1
f 58//31 56//29 54//29
f 60//4 55//4 56//4
f 59//32 53//30 55//30
f 61//1 58//1 57//1
f 62//33 60//31 58//31
f 60//4 63//4 59//4
f 63//34 57//32 59//32
f 65//1 62//1 61//1
f 66//35 64//33 62//33
f 68//4 63//4 64//4
f 67//36 61//34 63//34
f 65//1 70//1 66//1
f 70//37 68//35 66//35
f 72//4 67//4 68//4
f 71//38 65//36 67//36
f 73//1 70//1 69//1
f 74//39 72//37 70//37
f 72//4 75//4 71//4
f 75//40 69//38 71//38
f 77//1 74//1 73//1
f 78//41 76//39 74//39
f 76//4 79//4 75//4
f 79//42 73//40 75//40
f 81//1 78//1 77//1
f 82//43 80//41 78//41
f 80//4 83//4 79//4
f 83//44 77//42 79//42
f 81//1 86//1 82//1
f 86//45 84//43 82//43
f 88//4 83//4 84//4
f 87//46 81//44 83//44
f 85//1 90//1 86//1
f 90//47 88//45 86//45
f 92//4 87//4 88//4
f 91//48 85//46 87//46
f 89//1 94//1 90//1
f 94//49 92//47 90//47
f 96//4 91//4 92//4
f 95//50 89//48 91//48
f 93//1 98//1 94//1
f 98//51 96//49 94//49
f 100//4 95//4 96//4
f 99//52 93//50 95//50
f 97//1 102//1 98//1
f 102//53 100//51 98//51
f 104//4 99//4 100//4
f 103//54 97//52 99//52
f 105//1 102//1 101//1
f 106//6 104//53 102//53
f 108//4 103//4 104//4
f 107//3 101//54 103//54
f 2//30 3//30 1//30
f 107//30 106//30 105//30
f 151//3 155//3 147//3
f 158//55 159//55 157//55
f 110//29 111//56 109//29
f 154//1 155//1 153//1
f 112//56 113//57 111//56
f 152//58 153//58 151//58
f 138//59 139//59 137//59
f 114//57 115//4 113//57
f 140//6 136//6 144//6
f 170//6 171//55 169//6
f 116//4 117//60 115//4
f 144//61 133//61 143//61
f 146//56 147//56 145//56
f 118//60 119//59 117//60
f 136//4 137//4 135//4
f 120//59 121//30 119//59
f 160//4 161//4 159//4
f 150//59 151//59 149//59
f 122//30 123//58 121//30
f 142//1 143//1 141//1
f 148//4 149//4 147//4
f 124//58 125//62 123//58
f 141//3 133//3 137//3
f 134//56 135//56 133//56
f 126//62 127//1 125//62
f 128//1 129//63 127//1
f 130//6 122//6 114//6
f 162//64 163//64 161//64
f 130//63 131//61 129//63
f 140//58 141//58 139//58
f 132//61 109//29 131//61
f 115//3 123//3 131//3
f 156//61 145//61 155//61
f 154//6 150//6 146//6
f 164//65 165//65 163//65
f 162//30 158//30 166//30
f 166//1 167//1 165//1
f 174//66 175//4 173//66
f 172//55 173//66 171//55
f 168//67 157//67 167//67
f 165//29 157//29 161//29
f 176//4 177//68 175//4
f 178//68 179//64 177//68
f 180//64 181//3 179//64
f 182//3 183//65 181//3
f 184//65 185//69 183//65
f 186//69 187//1 185//69
f 188//1 189//70 187//1
f 170//30 186//30 178//30
f 190//70 191//67 189//70
f 192//67 169//6 191//67
f 179//29 187//29 171//29
f 5//1 6//1 2//1
f 6//2 8//2 4//3
f 8//4 7//4 3//4
f 7//5 5//5 1//6
f 9//1 10//1 6//1
f 10//7 12//7 8//2
f 8//4 12//4 11//4
f 11//8 9//8 5//5
f 13//1 14//1 10//1
f 14//9 16//9 12//7
f 12//4 16//4 15//4
f 15//10 13//10 9//8
f 17//1 18//1 14//1
f 18//11 20//11 16//9
f 16//4 20//4 19//4
f 19//12 17//12 13//10
f 21//1 22//1 18//1
f 22//13 24//13 20//11
f 20//4 24//4 23//4
f 23//14 21//14 17//12
f 25//1 26//1 22//1
f 26//15 28//15 24//13
f 24//4 28//4 27//4
f 27//16 25//16 21//14
f 25//1 29//1 30//1
f 30//17 32//17 28//15
f 32//4 31//4 27//4
f 31//18 29//18 25//16
f 29//1 33//1 34//1
f 34//19 36//19 32//17
f 36//4 35//4 31//4
f 35//20 33//20 29//18
f 33//1 37//1 38//1
f 38//21 40//21 36//19
f 40//4 39//4 35//4
f 39//22 37//22 33//20
f 41//1 42//1 38//1
f 42//23 44//23 40//21
f 40//4 44//4 43//4
f 43//24 41//24 37//22
f 45//1 46//1 42//1
f 46//25 48//25 44//23
f 48//4 47//4 43//4
f 47//26 45//26 41//24
f 45//1 49//1 50//1
f 50//27 52//27 48//25
f 52//4 51//4 47//4
f 51//28 49//28 45//26
f 53//1 54//1 50//1
f 54//29 56//29 52//27
f 52//4 56//4 55//4
f 55//30 53//30 49//28
f 53//1 57//1 58//1
f 58//31 60//31 56//29
f 60//4 59//4 55//4
f 59//32 57//32 53//30
f 61//1 62//1 58//1
f 62//33 64//33 60//31
f 60//4 64//4 63//4
f 63//34 61//34 57//32
f 65//1 66//1 62//1
f 66//35 68//35 64//33
f 68//4 67//4 63//4
f 67//36 65//36 61//34
f 65//1 69//1 70//1
f 70//37 72//37 68//35
f 72//4 71//4 67//4
f 71//38 69//38 65//36
f 73//1 74//1 70//1
f 74//39 76//39 72//37
f 72//4 76//4 75//4
f 75//40 73//40 69//38
f 77//1 78//1 74//1
f 78//41 80//41 76//39
f 76//4 80//4 79//4
f 79//42 77//42 73//40
f 81//1 82//1 78//1
f 82//43 84//43 80//41
f 80//4 84//4 83//4
f 83//44 81//44 77//42
f 81//1 85//1 86//1
f 86//45 88//45 84//43
f 88//4 87//4 83//4
f 87//46 85//46 81//44
f 85//1 89//1 90//1
f 90//47 92//47 88//45
f 92//4 91//4 87//4
f 91//48 89//48 85//46
f 89//1 93//1 94//1
f 94//49 96//49 92//47
f 96//4 95//4 91//4
f 95//50 93//50 89//48
f 93//1 97//1 98//1
f 98//51 100//51 96//49
f 100//4 99//4 95//4
f 99//52 97//52 93//50
f 97//1 101//1 102//1
f 102//53 104//53 100//51
f 104//4 103//4 99//4
f 103//54 101//54 97//52
f 105//1 106//1 102//1
f 106//6 108//6 104//53
f 108//4 107//4 103//4
f 107//3 105//3 101//54
f 2//30 4//30 3//30
f 107//30 108//30 106//30
f 147//3 149//3 151//3
f 151//3 153//3 155//3
f 155//3 145//3 147//3
f 158//55 160//55 159//55
f 110//29 112//56 111//56
f 154//1 156//1 155//1
f 112//56 114//57 113//57
f 152//58 154//58 153//58
f 138//59 140//59 139//59
f 114//57 116//4 115//4
f 144//6 142//6 140//6
f 140//6 138//6 136//6
f 136//6 134//6 144//6
f 170//6 172//55 171//55
f 116//4 118//60 117//60
f 144//61 134//61 133//61
f 146//56 148//56 147//56
f 118//60 120//59 119//59
f 136//4 138//4 137//4
f 120//59 122//30 121//30
f 160//4 162//4 161//4
f 150//59 152//59 151//59
f 122//30 124//58 123//58
f 142//1 144//1 143//1
f 148//4 150//4 149//4
f 124//58 126//62 125//62
f 137//3 139//3 141//3
f 141//3 143//3 133//3
f 133//3 135//3 137//3
f 134//56 136//56 135//56
f 126//62 128//1 127//1
f 128//1 130//63 129//63
f 114//6 112//6 110//6
f 110//6 132//6 130//6
f 130//6 128//6 126//6
f 126//6 124//6 122//6
f 122//6 120//6 118//6
f 118//6 116//6 114//6
f 114//6 110//6 130//6
f 130//6 126//6 122//6
f 122//6 118//6 114//6
f 162//64 164//64 163//64
f 130//63 132//61 131//61
f 140//58 142//58 141//58
f 132//61 110//29 109//29
f 131//3 109//3 111//3
f 111//3 113//3 115//3
f 115//3 117//3 119//3
f 119//3 121//3 123//3
f 123//3 125//3 127//3
f 127//3 129//3 131//3
f 131//3 111//3 115//3
f 115//3 119//3 123//3
f 123//3 127//3 131//3
f 156//61 146//61 145//61
f 146//6 156//6 154//6
f 154//6 152//6 150//6
f 150//6 148//6 146//6
f 164//65 166//65 165//65
f 166//30 164//30 162//30
f 162//30 160//30 158//30
f 158//30 168//30 166//30
f 166//1 168//1 167//1
f 174//66 176//4 175//4
f 172//55 174//66 173//66
f 168//67 158//67 157//67
f 161//29 163//29 165//29
f 165//29 167//29 157//29
f 157//29 159//29 161//29
f 176//4 178//68 177//68
f 178//68 180//64 179//64
f 180//64 182//3 181//3
f 182//3 184//65 183//65
f 184//65 186//69 185//69
f 186//69 188//1 187//1
f 188//1 190//70 189//70
f 178//30 176//30 174//30
f 174//30 172//30 170//30
f 170//30 192//30 190//30
f 190//30 188//30 186//30
f 186//30 184//30 182//30
f 182//30 180//30 178//30
f 178//30 174//30 170//30
f 170//30 190//30 186//30
f 186//30 182//30 178//30
f 190//70 192//67 191//67
f 192//67 170//6 169//6
f 171//29 173//29 175//29
f 175//29 177//29 179//29
f 179//29 181//29 183//29
f 183//29 185//29 187//29
f 187//29 189//29 191//29
f 191//29 169//29 171//29
f 171//29 175//29 179//29
f 179//29 183//29 187//29
f 187//29 191//29 171//29
