# Blender 5.2.2 LTS
# www.blender.org
mtllib PipeRun.mtl
o PipeRun
v 2.976000 0.007687 -0.038643
v 2.976000 0.000000 -0.039400
v 0.000000 0.000000 -0.038050
v 3.000000 0.000000 -0.038050
v 0.000000 -0.007423 -0.037319
v 3.000000 -0.007423 -0.037319
v 0.000000 -0.014561 -0.035154
v 3.000000 -0.014561 -0.035154
v 0.000000 -0.021139 -0.031637
v 3.000000 -0.021139 -0.031637
v 0.000000 -0.026905 -0.026905
v 3.000000 -0.026905 -0.026905
v 0.000000 -0.031637 -0.021139
v 3.000000 -0.031637 -0.021139
v 0.000000 -0.035154 -0.014561
v 3.000000 -0.035154 -0.014561
v 0.000000 -0.037319 -0.007423
v 3.000000 -0.037319 -0.007423
v 0.000000 -0.038050 0.000000
v 3.000000 -0.038050 0.000000
v 0.000000 -0.037319 0.007423
v 3.000000 -0.037319 0.007423
v 0.000000 -0.035154 0.014561
v 3.000000 -0.035154 0.014561
v 0.000000 -0.031637 0.021139
v 3.000000 -0.031637 0.021139
v 0.000000 -0.026905 0.026905
v 3.000000 -0.026905 0.026905
v 0.000000 -0.021139 0.031637
v 3.000000 -0.021139 0.031637
v 0.000000 -0.014561 0.035154
v 3.000000 -0.014561 0.035154
v 0.000000 -0.007423 0.037319
v 3.000000 -0.007423 0.037319
v 0.000000 0.000000 0.038050
v 3.000000 0.000000 0.038050
v 0.000000 0.007423 0.037319
v 3.000000 0.007423 0.037319
v 0.000000 0.014561 0.035154
v 3.000000 0.014561 0.035154
v 0.000000 0.021139 0.031637
v 3.000000 0.021140 0.031637
v 0.000000 0.026905 0.026905
v 3.000000 0.026906 0.026905
v 0.000000 0.031637 0.021139
v 3.000000 0.031638 0.021139
v 0.000000 0.035154 0.014561
v 3.000000 0.035154 0.014561
v 0.000000 0.037319 0.007423
v 3.000000 0.037319 0.007423
v 0.000000 0.038050 0.000000
v 3.000000 0.038050 0.000000
v 0.000000 0.037319 -0.007423
v 3.000000 0.037319 -0.007423
v 0.000000 0.035154 -0.014561
v 3.000000 0.035154 -0.014561
v 0.000000 0.031637 -0.021139
v 3.000000 0.031638 -0.021139
v 0.000000 0.026905 -0.026905
v 3.000000 0.026906 -0.026905
v 0.000000 0.021139 -0.031637
v 3.000000 0.021140 -0.031637
v 0.000000 0.014561 -0.035154
v 3.000000 0.014561 -0.035154
v 0.000000 0.007423 -0.037319
v 3.000000 0.007423 -0.037319
v 2.976000 0.015078 -0.036401
v 2.976000 0.021890 -0.032760
v 2.976000 0.027860 -0.027860
v 2.976000 0.032760 -0.021889
v 2.976000 0.036401 -0.015078
v 2.976000 0.038643 -0.007687
v 2.976000 0.039400 -0.000000
v 2.976000 0.038643 0.007687
v 2.976000 0.036401 0.015078
v 2.976000 0.032760 0.021889
v 2.976000 0.027860 0.027860
v 2.976000 0.021890 0.032760
v 2.976000 0.015078 0.036401
v 2.976000 0.007687 0.038643
v 2.976000 0.000000 0.039400
v 2.976000 -0.007687 0.038643
v 2.976000 -0.015078 0.036401
v 2.976000 -0.021889 0.032760
v 2.976000 -0.027860 0.027860
v 2.976000 -0.032760 0.021889
v 2.976000 -0.036401 0.015078
v 2.976000 -0.038643 0.007687
v 2.976000 -0.039400 0.000000
v 2.976000 -0.038643 -0.007687
v 2.976000 -0.036401 -0.015078
v 2.976000 -0.032760 -0.021889
v 2.976000 -0.027860 -0.027860
v 2.976000 -0.021889 -0.032760
v 2.976000 -0.015078 -0.036401
v 2.976000 -0.007687 -0.038643
v 2.976000 0.000000 -0.044000
v 2.976000 0.008584 -0.043155
v 2.976000 0.016838 -0.040651
v 2.976000 0.024445 -0.036585
v 2.976000 0.031113 -0.031113
v 2.976000 0.036585 -0.024445
v 2.976000 0.040651 -0.016838
v 2.976000 0.043155 -0.008584
v 2.976000 0.044000 -0.000000
v 2.976000 0.043155 0.008584
v 2.976000 0.040651 0.016838
v 2.976000 0.036585 0.024445
v 2.976000 0.031113 0.031113
v 2.976000 0.024445 0.036585
v 2.976000 0.016838 0.040651
v 2.976000 0.008584 0.043155
v 2.976000 0.000000 0.044000
v 2.976000 -0.008584 0.043155
v 2.976000 -0.016838 0.040651
v 2.976000 -0.024445 0.036585
v 2.976000 -0.031113 0.031113
v 2.976000 -0.036585 0.024445
v 2.976000 -0.040651 0.016838
v 2.976000 -0.043155 0.008584
v 2.976000 -0.044000 0.000000
v 2.976000 -0.043155 -0.008584
v 2.976000 -0.040651 -0.016838
v 2.976000 -0.036585 -0.024445
v 2.976000 -0.031113 -0.031113
v 2.976000 -0.024445 -0.036585
v 2.976000 -0.016838 -0.040651
v 2.976000 -0.008584 -0.043155
v 2.980000 0.000000 -0.047500
v 2.980000 0.009267 -0.046587
v 2.980000 0.018178 -0.043884
v 2.980000 0.026390 -0.039495
v 2.980000 0.033588 -0.033588
v 2.980000 0.039495 -0.026390
v 2.980000 0.043884 -0.018177
v 2.980000 0.046587 -0.009267
v 2.980000 0.047500 -0.000000
v 2.980000 0.046587 0.009267
v 2.980000 0.043884 0.018177
v 2.980000 0.039495 0.026390
v 2.980000 0.033588 0.033588
v 2.980000 0.026390 0.039495
v 2.980000 0.018178 0.043884
v 2.980000 0.009267 0.046587
v 2.980000 0.000000 0.047500
v 2.980000 -0.009267 0.046587
v 2.980000 -0.018177 0.043884
v 2.980000 -0.026390 0.039495
v 2.980000 -0.033588 0.033588
v 2.980000 -0.039495 0.026390
v 2.980000 -0.043884 0.018177
v 2.980000 -0.046587 0.009267
v 2.980000 -0.047500 0.000000
v 2.980000 -0.046587 -0.009267
v 2.980000 -0.043884 -0.018177
v 2.980000 -0.039495 -0.026390
v 2.980000 -0.033588 -0.033588
v 2.980000 -0.026390 -0.039495
v 2.980000 -0.018177 -0.043884
v 2.980000 -0.009267 -0.046587
v 2.987000 0.000000 -0.052000
v 2.987000 0.010145 -0.051001
v 2.987000 0.019900 -0.048042
v 2.987000 0.028890 -0.043236
v 2.987000 0.036770 -0.036770
v 2.987000 0.043236 -0.028890
v 2.987000 0.048042 -0.019900
v 2.987000 0.051001 -0.010145
v 2.987000 0.052000 -0.000000
v 2.987000 0.051001 0.010145
v 2.987000 0.048042 0.019900
v 2.987000 0.043236 0.028890
v 2.987000 0.036770 0.036770
v 2.987000 0.028890 0.043236
v 2.987000 0.019900 0.048042
v 2.987000 0.010145 0.051001
v 2.987000 0.000000 0.052000
v 2.987000 -0.010145 0.051001
v 2.987000 -0.019899 0.048042
v 2.987000 -0.028890 0.043236
v 2.987000 -0.036770 0.036770
v 2.987000 -0.043236 0.028890
v 2.987000 -0.048042 0.019900
v 2.987000 -0.051001 0.010145
v 2.987000 -0.052000 0.000000
v 2.987000 -0.051001 -0.010145
v 2.987000 -0.048042 -0.019900
v 2.987000 -0.043236 -0.028890
v 2.987000 -0.036770 -0.036770
v 2.987000 -0.028890 -0.043236
v 2.987000 -0.019899 -0.048042
v 2.987000 -0.010145 -0.051001
v 3.013000 0.000000 -0.052000
v 3.013000 0.010145 -0.051001
v 3.013000 0.019900 -0.048042
v 3.013000 0.028890 -0.043236
v 3.013000 0.036770 -0.036770
v 3.013000 0.043236 -0.028890
v 3.013000 0.048042 -0.019900
v 3.013000 0.051001 -0.010145
v 3.013000 0.052000 -0.000000
v 3.013000 0.051001 0.010145
v 3.013000 0.048042 0.019900
v 3.013000 0.043236 0.028890
v 3.013000 0.036770 0.036770
v 3.013000 0.028890 0.043236
v 3.013000 0.019900 0.048042
v 3.013000 0.010145 0.051001
v 3.013000 0.000000 0.052000
v 3.013000 -0.010145 0.051001
v 3.013000 -0.019899 0.048042
v 3.013000 -0.028890 0.043236
v 3.013000 -0.036770 0.036770
v 3.013000 -0.043236 0.028890
v 3.013000 -0.048042 0.019900
v 3.013000 -0.051001 0.010145
v 3.013000 -0.052000 0.000000
v 3.013000 -0.051001 -0.010145
v 3.013000 -0.048042 -0.019900
v 3.013000 -0.043236 -0.028890
v 3.013000 -0.036770 -0.036770
v 3.013000 -0.028890 -0.043236
v 3.013000 -0.019899 -0.048042
v 3.013000 -0.010145 -0.051001
v 3.020000 0.000000 -0.047500
v 3.020000 0.009267 -0.046587
v 3.020000 0.018178 -0.043884
v 3.020000 0.026390 -0.039495
v 3.020000 0.033588 -0.033588
v 3.020000 0.039495 -0.026390
v 3.020000 0.043884 -0.018177
v 3.020000 0.046587 -0.009267
v 3.020000 0.047500 -0.000000
v 3.020000 0.046587 0.009267
v 3.020000 0.043884 0.018177
v 3.020000 0.039495 0.026390
v 3.020000 0.033588 0.033588
v 3.020000 0.026390 0.039495
v 3.020000 0.018178 0.043884
v 3.020000 0.009267 0.046587
v 3.020000 0.000000 0.047500
v 3.020000 -0.009267 0.046587
v 3.020000 -0.018177 0.043884
v 3.020000 -0.026390 0.039495
v 3.020000 -0.033588 0.033588
v 3.020000 -0.039495 0.026390
v 3.020000 -0.043884 0.018177
v 3.020000 -0.046587 0.009267
v 3.020000 -0.047500 0.000000
v 3.020000 -0.046587 -0.009267
v 3.020000 -0.043884 -0.018177
v 3.020000 -0.039495 -0.026390
v 3.020000 -0.033588 -0.033588
v 3.020000 -0.026390 -0.039495
v 3.020000 -0.018177 -0.043884
v 3.020000 -0.009267 -0.046587
v 3.024000 0.000000 -0.044000
v 3.024000 0.008584 -0.043155
v 3.024000 0.016838 -0.040651
v 3.024000 0.024445 -0.036585
v 3.024000 0.031113 -0.031113
v 3.024000 0.036585 -0.024445
v 3.024000 0.040651 -0.016838
v 3.024000 0.043155 -0.008584
v 3.024000 0.044000 -0.000000
v 3.024000 0.043155 0.008584
v 3.024000 0.040651 0.016838
v 3.024000 0.036585 0.024445
v 3.024000 0.031113 0.031113
v 3.024000 0.024445 0.036585
v 3.024000 0.016838 0.040651
v 3.024000 0.008584 0.043155
v 3.024000 0.000000 0.044000
v 3.024000 -0.008584 0.043155
v 3.024000 -0.016838 0.040651
v 3.024000 -0.024445 0.036585
v 3.024000 -0.031113 0.031113
v 3.024000 -0.036585 0.024445
v 3.024000 -0.040651 0.016838
v 3.024000 -0.043155 0.008584
v 3.024000 -0.044000 0.000000
v 3.024000 -0.043155 -0.008584
v 3.024000 -0.040651 -0.016838
v 3.024000 -0.036585 -0.024445
v 3.024000 -0.031113 -0.031113
v 3.024000 -0.024445 -0.036585
v 3.024000 -0.016838 -0.040651
v 3.024000 -0.008584 -0.043155
v 3.024000 0.000000 -0.039400
v 3.024000 0.007687 -0.038643
v 3.024000 0.015078 -0.036401
v 3.024000 0.021890 -0.032760
v 3.024000 0.027860 -0.027860
v 3.024000 0.032760 -0.021889
v 3.024000 0.036401 -0.015078
v 3.024000 0.038643 -0.007687
v 3.024000 0.039400 -0.000000
v 3.024000 0.038643 0.007687
v 3.024000 0.036401 0.015078
v 3.024000 0.032760 0.021889
v 3.024000 0.027860 0.027860
v 3.024000 0.021890 0.032760
v 3.024000 0.015078 0.036401
v 3.024000 0.007687 0.038643
v 3.024000 0.000000 0.039400
v 3.024000 -0.007687 0.038643
v 3.024000 -0.015078 0.036401
v 3.024000 -0.021889 0.032760
v 3.024000 -0.027860 0.027860
v 3.024000 -0.032760 0.021889
v 3.024000 -0.036401 0.015078
v 3.024000 -0.038643 0.007687
v 3.024000 -0.039400 0.000000
v 3.024000 -0.038643 -0.007687
v 3.024000 -0.036401 -0.015078
v 3.024000 -0.032760 -0.021889
v 3.024000 -0.027860 -0.027860
v 3.024000 -0.021889 -0.032760
v 3.024000 -0.015078 -0.036401
v 3.024000 -0.007687 -0.038643
v 2.985000 -0.028000 0.073000
v 2.985000 0.028000 0.073000
v 2.985000 -0.028000 0.047000
v 2.985000 0.028000 0.047000
v 3.015000 -0.028000 0.073000
v 3.015000 0.028000 0.073000
v 3.015000 -0.028000 0.047000
v 3.015000 0.028000 0.047000
v 2.985000 0.028000 -0.047000
v 2.985000 -0.028000 -0.047000
v 3.000000 0.028000 0.054340
v 3.000000 0.034000 0.054340
v 3.007500 0.028000 0.058670
v 3.007500 0.034000 0.058670
v 3.007500 0.028000 0.067330
v 3.007500 0.034000 0.067330
v 3.000000 0.028000 0.071660
v 3.000000 0.034000 0.071660
v 2.992500 0.028000 0.067330
v 2.992500 0.034000 0.067330
v 2.992500 0.028000 0.058670
v 2.992500 0.034000 0.058670
v 3.008660 -0.028000 0.063000
v 3.008660 -0.036000 0.063000
v 3.004330 -0.028000 0.055500
v 3.004330 -0.036000 0.055500
v 2.995670 -0.028000 0.055500
v 2.995670 -0.036000 0.055500
v 2.991340 -0.028000 0.063000
v 2.991340 -0.036000 0.063000
v 2.995670 -0.028000 0.070500
v 2.995670 -0.036000 0.070500
v 3.004330 -0.028000 0.070500
v 3.004330 -0.036000 0.070500
v 3.000000 -0.039000 0.058250
v 3.000000 0.034000 0.058250
v 3.002375 -0.039000 0.058886
v 3.002375 0.034000 0.058886
v 3.004114 -0.039000 0.060625
v 3.004114 0.034000 0.060625
v 3.004750 -0.039000 0.063000
v 3.004750 0.034000 0.063000
v 3.004114 -0.039000 0.065375
v 3.004114 0.034000 0.065375
v 3.002375 -0.039000 0.067114
v 3.002375 0.034000 0.067114
v 3.000000 -0.039000 0.067750
v 3.000000 0.034000 0.067750
v 2.997625 -0.039000 0.067114
v 2.997625 0.034000 0.067114
v 2.995886 -0.039000 0.065375
v 2.995886 0.034000 0.065375
v 2.995250 -0.039000 0.063000
v 2.995250 0.034000 0.063000
v 2.995886 -0.039000 0.060625
v 2.995886 0.034000 0.060625
v 2.997625 -0.039000 0.058886
v 2.997625 0.034000 0.058886
v 2.985000 -0.028000 -0.073000
v 2.985000 0.028000 -0.073000
v 3.015000 -0.028000 -0.047000
v 3.015000 0.028000 -0.047000
v 3.015000 -0.028000 -0.073000
v 3.015000 0.028000 -0.073000
v 3.000000 0.028000 -0.071660
v 3.000000 0.034000 -0.071660
v 3.007500 0.028000 -0.067330
v 3.007500 0.034000 -0.067330
v 3.007500 0.028000 -0.058670
v 3.007500 0.034000 -0.058670
v 3.000000 0.028000 -0.054340
v 3.000000 0.034000 -0.054340
v 2.992500 0.028000 -0.058670
v 2.992500 0.034000 -0.058670
v 2.992500 0.028000 -0.067330
v 2.992500 0.034000 -0.067330
v 3.008660 -0.028000 -0.063000
v 3.008660 -0.036000 -0.063000
v 3.004330 -0.028000 -0.070500
v 3.004330 -0.036000 -0.070500
v 2.995670 -0.028000 -0.070500
v 2.995670 -0.036000 -0.070500
v 2.991340 -0.028000 -0.063000
v 2.991340 -0.036000 -0.063000
v 2.995670 -0.028000 -0.055500
v 2.995670 -0.036000 -0.055500
v 3.004330 -0.028000 -0.055500
v 3.004330 -0.036000 -0.055500
v 3.000000 -0.039000 -0.067750
v 3.000000 0.034000 -0.067750
v 3.002375 -0.039000 -0.067114
v 3.002375 0.034000 -0.067114
v 3.004114 -0.039000 -0.065375
v 3.004114 0.034000 -0.065375
v 3.004750 -0.039000 -0.063000
v 3.004750 0.034000 -0.063000
v 3.004114 -0.039000 -0.060625
v 3.004114 0.034000 -0.060625
v 3.002375 -0.039000 -0.058886
v 3.002375 0.034000 -0.058886
v 3.000000 -0.039000 -0.058250
v 3.000000 0.034000 -0.058250
v 2.997625 -0.039000 -0.058886
v 2.997625 0.034000 -0.058886
v 2.995886 -0.039000 -0.060625
v 2.995886 0.034000 -0.060625
v 2.995250 -0.039000 -0.063000
v 2.995250 0.034000 -0.063000
v 2.995886 -0.039000 -0.065375
v 2.995886 0.034000 -0.065375
v 2.997625 -0.039000 -0.067114
v 2.997625 0.034000 -0.067114
vn -0.6585 -0.4181 -0.6257
vn -0.5991 -0.3064 -0.7398
vn -0.5991 -0.4449 -0.6657
vn -1.0000 -0.0000 -0.0000
vn -1.0000 -0.0000 0.0001
vn -0.0000 -0.0000 -1.0000
vn -0.0000 -0.1951 -0.9808
vn -0.6585 -0.1468 -0.7381
vn -0.6585 -0.2880 -0.6953
vn -0.0000 -0.3827 -0.9239
vn -0.6585 -0.6257 -0.4181
vn -0.5991 -0.5662 -0.5662
vn -0.5991 -0.6658 -0.4448
vn -0.0000 -0.5556 -0.8315
vn -0.6585 -0.6953 -0.2880
vn -0.5991 -0.7397 -0.3064
vn -0.0000 -0.7071 -0.7071
vn -0.5991 -0.7853 -0.1562
vn -0.6585 -0.7381 -0.1468
vn -0.0000 -0.8315 -0.5556
vn -0.5991 -0.8007 -0.0000
vn -0.6585 -0.7526 -0.0000
vn -0.0000 -0.9239 -0.3827
vn -0.6585 -0.7381 0.1468
vn -0.5991 -0.7853 0.1562
vn -0.0000 -0.9808 -0.1951
vn -0.6585 -0.6953 0.2880
vn -0.5991 -0.7397 0.3064
vn -0.0000 -1.0000 -0.0000
vn -0.5991 -0.6658 0.4448
vn -0.6585 -0.6257 0.4181
vn -0.0000 -0.9808 0.1951
vn -0.5991 -0.5662 0.5662
vn -0.6585 -0.5321 0.5322
vn -0.0000 -0.9239 0.3827
vn -0.6585 -0.4181 0.6257
vn -0.5991 -0.4449 0.6657
vn -0.0000 -0.8315 0.5556
vn -0.5991 -0.3064 0.7398
vn -0.6585 -0.2880 0.6953
vn -0.0000 -0.7071 0.7071
vn -0.6585 -0.1468 0.7381
vn -0.5991 -0.1562 0.7853
vn -1.0000 -0.0000 -0.0001
vn -0.0000 -0.5556 0.8315
vn -0.5991 -0.0000 0.8007
vn -0.6585 -0.0000 0.7526
vn -0.0000 -0.3827 0.9239
vn -0.6585 0.1468 0.7381
vn -0.5991 0.1562 0.7853
vn -0.0000 -0.1951 0.9808
vn -0.5991 0.3064 0.7398
vn -0.6585 0.2880 0.6953
vn -0.0000 -0.0000 1.0000
vn -0.6585 0.4181 0.6257
vn -0.5991 0.4449 0.6657
vn -0.0000 0.1951 0.9808
vn -0.5991 0.5662 0.5662
vn -0.6585 0.5321 0.5322
vn -0.0000 0.3827 0.9239
vn -0.6585 0.6257 0.4181
vn -0.5991 0.6658 0.4448
vn -0.0000 0.5556 0.8315
vn -0.6585 0.6953 0.2880
vn -0.5991 0.7397 0.3064
vn -0.0000 0.7071 0.7071
vn -0.5991 0.7853 0.1562
vn -0.6585 0.7381 0.1468
vn -0.0000 0.8315 0.5556
vn -0.5991 0.8007 -0.0000
vn -0.6585 0.7526 -0.0000
vn -0.0000 0.9239 0.3827
vn -0.6585 0.7381 -0.1468
vn -0.5991 0.7853 -0.1562
vn -0.0000 0.9808 0.1951
vn -0.6585 0.6953 -0.2880
vn -0.5991 0.7397 -0.3064
vn -0.0000 1.0000 -0.0000
vn -0.5991 0.6658 -0.4448
vn -0.6585 0.6257 -0.4181
vn -0.0000 0.9808 -0.1951
vn -0.5991 0.5662 -0.5662
vn -0.6585 0.5321 -0.5322
vn -0.0000 0.9239 -0.3827
vn -0.6585 0.4181 -0.6257
vn -0.5991 0.4449 -0.6657
vn -0.0000 0.8315 -0.5556
vn -0.5991 0.3064 -0.7398
vn -0.6585 0.2880 -0.6953
vn -0.0000 0.7071 -0.7071
vn -0.6585 0.1468 -0.7381
vn -0.5991 0.1562 -0.7853
vn -0.0000 0.5556 -0.8315
vn -0.5991 -0.0000 -0.8007
vn -0.6585 -0.0000 -0.7526
vn -0.0000 0.3827 -0.9239
vn 1.0000 -0.0000 -0.0000
vn -0.0000 0.1951 -0.9808
vn -0.6585 -0.5321 -0.5322
vn -0.5991 -0.1562 -0.7853
vn -0.2772 0.1874 -0.9424
vn -0.2772 -0.0000 -0.9608
vn -0.2772 0.5338 -0.7989
vn -0.2772 0.3677 -0.8877
vn -0.2772 0.7989 -0.5338
vn -0.2772 0.6794 -0.6794
vn -0.2772 0.8877 -0.3677
vn -0.2772 0.9424 -0.1874
vn -0.2772 0.9424 0.1874
vn -0.2772 0.9608 -0.0000
vn -0.2772 0.8877 0.3677
vn -0.2772 0.7989 0.5338
vn -0.2772 0.5338 0.7989
vn -0.2772 0.6794 0.6794
vn -0.2772 0.1874 0.9424
vn -0.2772 0.3677 0.8877
vn -0.2772 -0.1874 0.9424
vn -0.2772 -0.0000 0.9608
vn -0.2772 -0.3677 0.8877
vn -0.2772 -0.5338 0.7989
vn -0.2772 -0.7989 0.5338
vn -0.2772 -0.6794 0.6794
vn -0.2772 -0.9424 0.1875
vn -0.2772 -0.8877 0.3677
vn -0.2772 -0.9608 -0.0000
vn -0.2772 -0.9424 -0.1875
vn -0.2772 -0.8877 -0.3677
vn -0.2772 -0.7989 -0.5338
vn -0.2772 -0.5338 -0.7989
vn -0.2772 -0.6794 -0.6794
vn -0.2772 -0.3677 -0.8877
vn -0.2772 -0.1874 -0.9424
vn 0.2772 -0.0000 -0.9608
vn 0.2772 0.1874 -0.9424
vn 0.2772 0.3677 -0.8877
vn 0.2772 0.5338 -0.7989
vn 0.2772 0.6794 -0.6794
vn 0.2772 0.7989 -0.5338
vn 0.2772 0.8877 -0.3677
vn 0.2772 0.9424 -0.1874
vn 0.2772 0.9608 -0.0000
vn 0.2772 0.9424 0.1874
vn 0.2772 0.8877 0.3677
vn 0.2772 0.7989 0.5338
vn 0.2772 0.6794 0.6794
vn 0.2772 0.5338 0.7989
vn 0.2772 0.3677 0.8877
vn 0.2772 0.1874 0.9424
vn 0.2772 -0.0000 0.9608
vn 0.2772 -0.1874 0.9424
vn 0.2772 -0.3677 0.8877
vn 0.2772 -0.5338 0.7989
vn 0.2772 -0.6794 0.6794
vn 0.2772 -0.7989 0.5338
vn 0.2772 -0.8877 0.3677
vn 0.2772 -0.9424 0.1875
vn 0.2772 -0.9608 -0.0000
vn 0.2772 -0.9424 -0.1875
vn 0.2772 -0.8877 -0.3677
vn 0.2772 -0.7989 -0.5338
vn 0.2772 -0.6794 -0.6794
vn 0.2772 -0.5338 -0.7989
vn 0.2772 -0.3677 -0.8877
vn 0.2772 -0.1874 -0.9424
vn 0.5991 -0.0000 -0.8007
vn 0.5991 0.3064 -0.7398
vn 0.5991 0.1562 -0.7853
vn 0.5991 0.5662 -0.5662
vn 0.5991 0.4448 -0.6657
vn 0.5991 0.7397 -0.3064
vn 0.5991 0.6658 -0.4448
vn 0.5991 0.8007 -0.0000
vn 0.5991 0.7853 -0.1562
vn 0.5991 0.7397 0.3064
vn 0.5991 0.7853 0.1562
vn 0.5991 0.5662 0.5662
vn 0.5991 0.6658 0.4448
vn 0.5991 0.3064 0.7398
vn 0.5991 0.4448 0.6657
vn 0.5991 -0.0000 0.8007
vn 0.5991 0.1562 0.7853
vn 0.5991 -0.1562 0.7853
vn 0.5991 -0.4448 0.6657
vn 0.5991 -0.3064 0.7398
vn 0.5991 -0.5662 0.5662
vn 0.5991 -0.7397 0.3064
vn 0.5991 -0.6658 0.4448
vn 0.5991 -0.7853 0.1562
vn 0.5991 -0.7853 -0.1562
vn 0.5991 -0.8007 -0.0000
vn 0.5991 -0.7397 -0.3064
vn 0.5991 -0.5662 -0.5662
vn 0.5991 -0.6658 -0.4448
vn 0.5991 -0.4448 -0.6657
vn 0.5991 -0.1562 -0.7853
vn 0.5991 -0.3064 -0.7398
vn 0.6585 0.1468 -0.7381
vn 0.6585 -0.0000 -0.7526
vn 0.6585 0.4181 -0.6257
vn 0.6585 0.2880 -0.6953
vn 0.6585 0.5321 -0.5322
vn 0.6585 0.6257 -0.4181
vn 0.6585 0.6953 -0.2880
vn 0.6585 0.7381 -0.1468
vn 0.6585 0.7381 0.1468
vn 0.6585 0.7526 -0.0000
vn 0.6585 0.6953 0.2880
vn 0.6585 0.6257 0.4181
vn 0.6585 0.5321 0.5322
vn 0.6585 0.4181 0.6257
vn 0.6585 0.1468 0.7381
vn 0.6585 0.2880 0.6953
vn 0.6585 -0.1468 0.7381
vn 0.6585 -0.0000 0.7526
vn 0.6585 -0.4181 0.6257
vn 0.6585 -0.2880 0.6953
vn 0.6585 -0.5321 0.5322
vn 0.6585 -0.6257 0.4181
vn 0.6585 -0.6953 0.2880
vn 0.6585 -0.7381 0.1468
vn 0.6585 -0.7381 -0.1468
vn 0.6585 -0.7526 -0.0000
vn 0.6585 -0.6953 -0.2880
vn 0.6585 -0.6257 -0.4181
vn 0.6585 -0.5321 -0.5322
vn 0.6585 -0.4181 -0.6257
vn 0.6585 -0.1468 -0.7381
vn 0.6585 -0.2880 -0.6953
vn 1.0000 -0.0000 -0.0001
vn 1.0000 -0.0000 0.0001
vn 0.5000 -0.0000 -0.8660
vn -0.8660 -0.0000 -0.5000
vn 0.4999 -0.0000 -0.8661
vn 0.8660 -0.0000 -0.5000
vn 0.5000 -0.0000 0.8660
vn -0.5000 -0.0000 0.8660
vn -0.5000 -0.0000 -0.8660
vn -0.8660 -0.0000 0.5000
vn 0.8660 -0.0000 0.5000
vn 0.4999 -0.0000 0.8661
vn -0.4999 -0.0000 0.8661
vn -0.4999 -0.0000 -0.8661
s 1
usemtl m0
f 126//1 159//2 158//3
f 96//4 127//4 95//5
f 4//6 5//7 3//6
f 128//8 159//2 127//9
f 95//5 126//4 94//4
f 6//7 7//10 5//7
f 124//11 157//12 156//13
f 93//4 126//4 125//4
f 8//10 9//14 7//10
f 123//15 156//13 155//16
f 93//4 124//4 92//4
f 10//14 11//17 9//14
f 123//15 154//18 122//19
f 92//4 123//4 91//4
f 12//17 13//20 11//17
f 122//19 153//21 121//22
f 90//4 123//4 122//4
f 14//20 15//23 13//20
f 120//24 153//21 152//25
f 90//4 121//4 89//4
f 16//23 17//26 15//23
f 119//27 152//25 151//28
f 88//4 121//4 120//4
f 17//26 20//29 19//29
f 119//27 150//30 118//31
f 88//4 119//4 87//4
f 20//29 21//32 19//29
f 118//31 149//33 117//34
f 87//4 118//4 86//4
f 22//32 23//35 21//32
f 116//36 149//33 148//37
f 85//4 118//4 117//4
f 24//35 25//38 23//35
f 116//36 147//39 115//40
f 85//4 116//4 84//4
f 26//38 27//41 25//38
f 114//42 147//39 146//43
f 84//4 115//4 83//44
f 28//41 29//45 27//41
f 114//42 145//46 113//47
f 82//4 115//4 114//4
f 30//45 31//48 29//45
f 112//49 145//46 144//50
f 82//4 113//4 81//4
f 31//48 34//51 33//51
f 112//49 143//52 111//53
f 80//4 113//4 112//4
f 34//51 35//54 33//51
f 110//55 143//52 142//56
f 80//4 111//4 79//44
f 36//54 37//57 35//54
f 110//55 141//58 109//59
f 79//44 110//4 78//4
f 38//57 39//60 37//57
f 108//61 141//58 140//62
f 77//4 110//4 109//4
f 40//60 41//63 39//60
f 107//64 140//62 139//65
f 77//4 108//4 76//4
f 42//63 43//66 41//63
f 107//64 138//67 106//68
f 76//4 107//4 75//4
f 44//66 45//69 43//66
f 106//68 137//70 105//71
f 74//4 107//4 106//4
f 46//69 47//72 45//69
f 104//73 137//70 136//74
f 74//4 105//4 73//4
f 48//72 49//75 47//72
f 103//76 136//74 135//77
f 72//4 105//4 104//4
f 50//75 51//78 49//75
f 103//76 134//79 102//80
f 72//4 103//4 71//4
f 52//78 53//81 51//78
f 102//80 133//82 101//83
f 71//4 102//4 70//4
f 54//81 55//84 53//81
f 100//85 133//82 132//86
f 69//4 102//4 101//4
f 56//84 57//87 55//84
f 100//85 131//88 99//89
f 69//4 100//4 68//4
f 58//87 59//90 57//87
f 98//91 131//88 130//92
f 68//4 99//4 67//5
f 60//90 61//93 59//90
f 98//91 129//94 97//95
f 1//4 99//4 98//4
f 62//93 63//96 61//93
f 40//97 24//97 8//97
f 1//4 97//4 2//4
f 64//96 65//98 63//96
f 126//1 157//12 125//99
f 96//4 97//4 128//4
f 66//98 3//6 65//98
f 33//4 49//4 65//4
f 128//8 129//94 160//100
f 129//94 162//101 161//102
f 131//88 162//101 130//92
f 131//88 164//103 163//104
f 133//82 164//103 132//86
f 133//82 166//105 165//106
f 134//79 167//107 166//105
f 135//77 168//108 167//107
f 137//70 168//108 136//74
f 137//70 170//109 169//110
f 139//65 170//109 138//67
f 140//62 171//111 139//65
f 141//58 172//112 140//62
f 141//58 174//113 173//114
f 143//52 174//113 142//56
f 143//52 176//115 175//116
f 145//46 176//115 144//50
f 145//46 178//117 177//118
f 146//43 179//119 178//117
f 147//39 180//120 179//119
f 149//33 180//120 148//37
f 149//33 182//121 181//122
f 151//28 182//121 150//30
f 151//28 184//123 183//124
f 152//25 185//125 184//123
f 154//18 185//125 153//21
f 155//16 186//126 154//18
f 156//13 187//127 155//16
f 157//12 188//128 156//13
f 157//12 190//129 189//130
f 159//2 190//129 158//3
f 160//100 191//131 159//2
f 129//94 192//132 160//100
f 162//101 193//133 161//102
f 163//104 194//134 162//101
f 164//103 195//135 163//104
f 165//106 196//136 164//103
f 166//105 197//137 165//106
f 167//107 198//138 166//105
f 168//108 199//139 167//107
f 169//110 200//140 168//108
f 170//109 201//141 169//110
f 171//111 202//142 170//109
f 172//112 203//143 171//111
f 173//114 204//144 172//112
f 174//113 205//145 173//114
f 175//116 206//146 174//113
f 176//115 207//147 175//116
f 177//118 208//148 176//115
f 178//117 209//149 177//118
f 179//119 210//150 178//117
f 180//120 211//151 179//119
f 181//122 212//152 180//120
f 182//121 213//153 181//122
f 183//124 214//154 182//121
f 184//123 215//155 183//124
f 185//125 216//156 184//123
f 186//126 217//157 185//125
f 187//127 218//158 186//126
f 188//128 219//159 187//127
f 189//130 220//160 188//128
f 190//129 221//161 189//130
f 191//131 222//162 190//129
f 192//132 223//163 191//131
f 161//102 224//164 192//132
f 194//134 225//165 193//133
f 194//134 227//166 226//167
f 196//136 227//166 195//135
f 196//136 229//168 228//169
f 198//138 229//168 197//137
f 198//138 231//170 230//171
f 200//140 231//170 199//139
f 200//140 233//172 232//173
f 202//142 233//172 201//141
f 202//142 235//174 234//175
f 204//144 235//174 203//143
f 204//144 237//176 236//177
f 206//146 237//176 205//145
f 206//146 239//178 238//179
f 208//148 239//178 207//147
f 208//148 241//180 240//181
f 210//150 241//180 209//149
f 211//151 242//182 210//150
f 211//151 244//183 243//184
f 212//152 245//185 244//183
f 214//154 245//185 213//153
f 214//154 247//186 246//187
f 216//156 247//186 215//155
f 217//157 248//188 216//156
f 217//157 250//189 249//190
f 218//158 251//191 250//189
f 220//160 251//191 219//159
f 220//160 253//192 252//193
f 222//162 253//192 221//161
f 223//163 254//194 222//162
f 223//163 256//195 255//196
f 224//164 225//165 256//195
f 225//165 258//197 257//198
f 227//166 258//197 226//167
f 227//166 260//199 259//200
f 228//169 261//201 260//199
f 229//168 262//202 261//201
f 230//171 263//203 262//202
f 232//173 263//203 231//170
f 233//172 264//204 232//173
f 233//172 266//205 265//206
f 234//175 267//207 266//205
f 236//177 267//207 235//174
f 237//176 268//208 236//177
f 238//179 269//209 237//176
f 239//178 270//210 238//179
f 239//178 272//211 271//212
f 241//180 272//211 240//181
f 241//180 274//213 273//214
f 243//184 274//213 242//182
f 243//184 276//215 275//216
f 244//183 277//217 276//215
f 245//185 278//218 277//217
f 246//187 279//219 278//218
f 248//188 279//219 247//186
f 249//190 280//220 248//188
f 249//190 282//221 281//222
f 250//189 283//223 282//221
f 252//193 283//223 251//191
f 253//192 284//224 252//193
f 254//194 285//225 253//192
f 255//196 286//226 254//194
f 255//196 288//227 287//228
f 225//165 288//227 256//195
f 257//97 290//97 289//97
f 258//97 291//97 290//97
f 260//97 291//97 259//97
f 260//97 293//97 292//229
f 261//97 294//97 293//97
f 263//97 294//97 262//97
f 264//97 295//97 263//97
f 265//97 296//97 264//97
f 265//97 298//97 297//97
f 266//97 299//97 298//97
f 268//97 299//97 267//97
f 268//97 301//97 300//97
f 269//97 302//97 301//97
f 271//97 302//97 270//97
f 272//97 303//97 271//97
f 273//97 304//97 272//97
f 273//97 306//97 305//97
f 274//97 307//97 306//97
f 276//97 307//97 275//97
f 276//97 309//97 308//230
f 277//97 310//97 309//97
f 279//97 310//97 278//97
f 280//97 311//97 279//97
f 281//97 312//97 280//97
f 281//97 314//97 313//97
f 282//97 315//97 314//97
f 284//97 315//97 283//97
f 284//97 317//97 316//97
f 285//97 318//97 317//97
f 287//97 318//97 286//97
f 288//97 319//97 287//97
f 257//97 320//97 288//97
f 290//51 2//54 289//54
f 291//48 1//51 290//51
f 292//45 67//48 291//48
f 293//41 68//45 292//45
f 294//38 69//41 293//41
f 295//35 70//38 294//38
f 296//32 71//35 295//35
f 297//29 72//32 296//32
f 298//26 73//29 297//29
f 299//23 74//26 298//26
f 300//20 75//23 299//23
f 301//17 76//20 300//20
f 302//14 77//17 301//17
f 303//10 78//14 302//14
f 304//7 79//10 303//10
f 305//6 80//7 304//7
f 306//98 81//6 305//6
f 307//96 82//98 306//98
f 308//93 83//96 307//96
f 309//90 84//93 308//93
f 310//87 85//90 309//90
f 311//84 86//87 310//87
f 312//81 87//84 311//84
f 313//78 88//81 312//81
f 314//75 89//78 313//78
f 315//72 90//75 314//75
f 316//69 91//72 315//72
f 317//66 92//69 316//69
f 318//63 93//66 317//66
f 319//60 94//63 318//63
f 320//57 95//60 319//60
f 289//54 96//57 320//57
f 322//4 323//4 321//4
f 324//6 327//6 323//6
f 328//97 325//97 327//97
f 326//54 321//54 325//54
f 327//29 321//29 323//29
f 324//78 326//78 328//78
f 380//78 382//78 384//78
f 383//29 330//29 379//29
f 382//54 330//54 381//54
f 384//97 381//97 383//97
f 380//6 383//6 379//6
f 329//4 379//4 330//4
f 126//1 127//9 159//2
f 96//4 128//4 127//4
f 4//6 6//7 5//7
f 128//8 160//100 159//2
f 95//5 127//4 126//4
f 6//7 8//10 7//10
f 124//11 125//99 157//12
f 93//4 94//4 126//4
f 8//10 10//14 9//14
f 123//15 124//11 156//13
f 93//4 125//4 124//4
f 10//14 12//17 11//17
f 123//15 155//16 154//18
f 92//4 124//4 123//4
f 12//17 14//20 13//20
f 122//19 154//18 153//21
f 90//4 91//4 123//4
f 14//20 16//23 15//23
f 120//24 121//22 153//21
f 90//4 122//4 121//4
f 16//23 18//26 17//26
f 119//27 120//24 152//25
f 88//4 89//4 121//4
f 17//26 18//26 20//29
f 119//27 151//28 150//30
f 88//4 120//4 119//4
f 20//29 22//32 21//32
f 118//31 150//30 149//33
f 87//4 119//4 118//4
f 22//32 24//35 23//35
f 116//36 117//34 149//33
f 85//4 86//4 118//4
f 24//35 26//38 25//38
f 116//36 148//37 147//39
f 85//4 117//4 116//4
f 26//38 28//41 27//41
f 114//42 115//40 147//39
f 84//4 116//4 115//4
f 28//41 30//45 29//45
f 114//42 146//43 145//46
f 82//4 83//44 115//4
f 30//45 32//48 31//48
f 112//49 113//47 145//46
f 82//4 114//4 113//4
f 31//48 32//48 34//51
f 112//49 144//50 143//52
f 80//4 81//4 113//4
f 34//51 36//54 35//54
f 110//55 111//53 143//52
f 80//4 112//4 111//4
f 36//54 38//57 37//57
f 110//55 142//56 141//58
f 79//44 111//4 110//4
f 38//57 40//60 39//60
f 108//61 109//59 141//58
f 77//4 78//4 110//4
f 40//60 42//63 41//63
f 107//64 108//61 140//62
f 77//4 109//4 108//4
f 42//63 44//66 43//66
f 107//64 139//65 138//67
f 76//4 108//4 107//4
f 44//66 46//69 45//69
f 106//68 138//67 137//70
f 74//4 75//4 107//4
f 46//69 48//72 47//72
f 104//73 105//71 137//70
f 74//4 106//4 105//4
f 48//72 50//75 49//75
f 103//76 104//73 136//74
f 72//4 73//4 105//4
f 50//75 52//78 51//78
f 103//76 135//77 134//79
f 72//4 104//4 103//4
f 52//78 54//81 53//81
f 102//80 134//79 133//82
f 71//4 103//4 102//4
f 54//81 56//84 55//84
f 100//85 101//83 133//82
f 69//4 70//4 102//4
f 56//84 58//87 57//87
f 100//85 132//86 131//88
f 69//4 101//4 100//4
f 58//87 60//90 59//90
f 98//91 99//89 131//88
f 68//4 100//4 99//4
f 60//90 62//93 61//93
f 98//91 130//92 129//94
f 1//4 67//5 99//4
f 62//93 64//96 63//96
f 8//97 6//97 4//97
f 4//97 66//97 64//97
f 64//97 62//97 60//97
f 60//97 58//97 56//97
f 56//97 54//97 52//97
f 52//97 50//97 48//97
f 48//97 46//97 44//229
f 44//229 42//97 40//97
f 40//97 38//97 36//97
f 36//97 34//97 32//97
f 32//97 30//97 28//97
f 28//97 26//97 24//97
f 24//97 22//97 20//97
f 20//97 18//97 16//97
f 16//97 14//97 12//97
f 12//97 10//97 8//97
f 8//97 4//97 64//97
f 64//97 60//97 56//97
f 56//97 52//97 48//97
f 48//97 44//229 40//97
f 40//97 36//97 32//97
f 32//97 28//97 24//97
f 24//97 20//97 16//97
f 16//97 12//97 8//97
f 8//97 64//97 56//97
f 56//97 48//97 40//97
f 40//97 32//97 24//97
f 24//97 16//97 8//97
f 8//97 56//97 40//97
f 1//4 98//4 97//4
f 64//96 66//98 65//98
f 126//1 158//3 157//12
f 96//4 2//4 97//4
f 66//98 4//6 3//6
f 65//4 3//4 5//4
f 5//4 7//4 9//4
f 9//4 11//4 13//4
f 13//4 15//4 17//4
f 17//4 19//4 21//4
f 21//4 23//4 25//4
f 25//4 27//4 29//4
f 29//4 31//4 33//4
f 33//4 35//4 37//4
f 37//4 39//4 41//4
f 41//4 43//4 45//4
f 45//4 47//4 49//4
f 49//4 51//4 53//4
f 53//4 55//4 57//4
f 57//4 59//4 61//4
f 61//4 63//4 65//4
f 65//4 5//4 9//4
f 9//4 13//4 17//4
f 17//4 21//4 25//4
f 25//4 29//4 33//4
f 33//4 37//4 41//4
f 41//4 45//4 49//4
f 49//4 53//4 57//4
f 57//4 61//4 65//4
f 65//4 9//4 17//4
f 17//4 25//4 33//4
f 33//4 41//4 49//4
f 49//4 57//4 65//4
f 65//4 17//4 33//4
f 128//8 97//95 129//94
f 129//94 130//92 162//101
f 131//88 163//104 162//101
f 131//88 132//86 164//103
f 133//82 165//106 164//103
f 133//82 134//79 166//105
f 134//79 135//77 167//107
f 135//77 136//74 168//108
f 137//70 169//110 168//108
f 137//70 138//67 170//109
f 139//65 171//111 170//109
f 140//62 172//112 171//111
f 141//58 173//114 172//112
f 141//58 142//56 174//113
f 143//52 175//116 174//113
f 143//52 144//50 176//115
f 145//46 177//118 176//115
f 145//46 146//43 178//117
f 146//43 147//39 179//119
f 147//39 148//37 180//120
f 149//33 181//122 180//120
f 149//33 150//30 182//121
f 151//28 183//124 182//121
f 151//28 152//25 184//123
f 152//25 153//21 185//125
f 154//18 186//126 185//125
f 155//16 187//127 186//126
f 156//13 188//128 187//127
f 157//12 189//130 188//128
f 157//12 158//3 190//129
f 159//2 191//131 190//129
f 160//100 192//132 191//131
f 129//94 161//102 192//132
f 162//101 194//134 193//133
f 163//104 195//135 194//134
f 164//103 196//136 195//135
f 165//106 197//137 196//136
f 166//105 198//138 197//137
f 167//107 199//139 198//138
f 168//108 200//140 199//139
f 169//110 201//141 200//140
f 170//109 202//142 201//141
f 171//111 203//143 202//142
f 172//112 204//144 203//143
f 173//114 205//145 204//144
f 174//113 206//146 205//145
f 175//116 207//147 206//146
f 176//115 208//148 207//147
f 177//118 209//149 208//148
f 178//117 210//150 209//149
f 179//119 211//151 210//150
f 180//120 212//152 211//151
f 181//122 213//153 212//152
f 182//121 214//154 213//153
f 183//124 215//155 214//154
f 184//123 216//156 215//155
f 185//125 217//157 216//156
f 186//126 218//158 217//157
f 187//127 219//159 218//158
f 188//128 220//160 219//159
f 189//130 221//161 220//160
f 190//129 222//162 221//161
f 191//131 223//163 222//162
f 192//132 224//164 223//163
f 161//102 193//133 224//164
f 194//134 226//167 225//165
f 194//134 195//135 227//166
f 196//136 228//169 227//166
f 196//136 197//137 229//168
f 198//138 230//171 229//168
f 198//138 199//139 231//170
f 200//140 232//173 231//170
f 200//140 201//141 233//172
f 202//142 234//175 233//172
f 202//142 203//143 235//174
f 204//144 236//177 235//174
f 204//144 205//145 237//176
f 206//146 238//179 237//176
f 206//146 207//147 239//178
f 208//148 240//181 239//178
f 208//148 209//149 241//180
f 210//150 242//182 241//180
f 211//151 243//184 242//182
f 211//151 212//152 244//183
f 212//152 213//153 245//185
f 214//154 246//187 245//185
f 214//154 215//155 247//186
f 216//156 248//188 247//186
f 217//157 249//190 248//188
f 217//157 218//158 250//189
f 218//158 219//159 251//191
f 220//160 252//193 251//191
f 220//160 221//161 253//192
f 222//162 254//194 253//192
f 223//163 255//196 254//194
f 223//163 224//164 256//195
f 224//164 193//133 225//165
f 225//165 226//167 258//197
f 227//166 259//200 258//197
f 227//166 228//169 260//199
f 228//169 229//168 261//201
f 229//168 230//171 262//202
f 230//171 231//170 263//203
f 232//173 264//204 263//203
f 233//172 265//206 264//204
f 233//172 234//175 266//205
f 234//175 235//174 267//207
f 236//177 268//208 267//207
f 237//176 269//209 268//208
f 238//179 270//210 269//209
f 239//178 271//212 270//210
f 239//178 240//181 272//211
f 241//180 273//214 272//211
f 241//180 242//182 274//213
f 243//184 275//216 274//213
f 243//184 244//183 276//215
f 244//183 245//185 277//217
f 245//185 246//187 278//218
f 246//187 247//186 279//219
f 248//188 280//220 279//219
f 249//190 281//222 280//220
f 249//190 250//189 282//221
f 250//189 251//191 283//223
f 252//193 284//224 283//223
f 253//192 285//225 284//224
f 254//194 286//226 285//225
f 255//196 287//228 286//226
f 255//196 256//195 288//227
f 225//165 257//198 288//227
f 257//97 258//97 290//97
f 258//97 259//97 291//97
f 260//97 292//229 291//97
f 260//97 261//97 293//97
f 261//97 262//97 294//97
f 263//97 295//97 294//97
f 264//97 296//97 295//97
f 265//97 297//97 296//97
f 265//97 266//97 298//97
f 266//97 267//97 299//97
f 268//97 300//97 299//97
f 268//97 269//97 301//97
f 269//97 270//97 302//97
f 271//97 303//97 302//97
f 272//97 304//97 303//97
f 273//97 305//97 304//97
f 273//97 274//97 306//97
f 274//97 275//97 307//97
f 276//97 308//230 307//97
f 276//97 277//97 309//97
f 277//97 278//97 310//97
f 279//97 311//97 310//97
f 280//97 312//97 311//97
f 281//97 313//97 312//97
f 281//97 282//97 314//97
f 282//97 283//97 315//97
f 284//97 316//97 315//97
f 284//97 285//97 317//97
f 285//97 286//97 318//97
f 287//97 319//97 318//97
f 288//97 320//97 319//97
f 257//97 289//97 320//97
f 290//51 1//51 2//54
f 291//48 67//48 1//51
f 292//45 68//45 67//48
f 293//41 69//41 68//45
f 294//38 70//38 69//41
f 295//35 71//35 70//38
f 296//32 72//32 71//35
f 297//29 73//29 72//32
f 298//26 74//26 73//29
f 299//23 75//23 74//26
f 300//20 76//20 75//23
f 301//17 77//17 76//20
f 302//14 78//14 77//17
f 303//10 79//10 78//14
f 304//7 80//7 79//10
f 305//6 81//6 80//7
f 306//98 82//98 81//6
f 307//96 83//96 82//98
f 308//93 84//93 83//96
f 309//90 85//90 84//93
f 310//87 86//87 85//90
f 311//84 87//84 86//87
f 312//81 88//81 87//84
f 313//78 89//78 88//81
f 314//75 90//75 89//78
f 315//72 91//72 90//75
f 316//69 92//69 91//72
f 317//66 93//66 92//69
f 318//63 94//63 93//66
f 319//60 95//60 94//63
f 320//57 96//57 95//60
f 289//54 2//54 96//57
f 322//4 324//4 323//4
f 324//6 328//6 327//6
f 328//97 326//97 325//97
f 326//54 322//54 321//54
f 327//29 325//29 321//29
f 324//78 322//78 326//78
f 380//78 329//78 382//78
f 383//29 381//29 330//29
f 382//54 329//54 330//54
f 384//97 382//97 381//97
f 380//6 384//6 383//6
f 329//4 380//4 379//4
usemtl m1
f 389//29 393//29 385//29
f 332//231 333//231 331//231
f 402//232 403//232 401//232
f 334//97 335//97 333//97
f 356//6 357//233 355//6
f 343//234 346//234 345//234
f 336//235 337//235 335//235
f 386//231 387//231 385//231
f 400//6 401//6 399//6
f 338//236 339//236 337//236
f 332//78 340//78 336//78
f 340//4 341//4 339//4
f 348//232 349//232 347//232
f 346//6 347//6 345//6
f 342//237 331//237 341//237
f 333//29 337//29 341//29
f 350//238 351//238 349//238
f 346//29 354//29 350//29
f 412//231 413//234 411//233
f 352//54 353//54 351//54
f 360//234 361//230 359//234
f 358//231 359//234 357//233
f 354//239 343//239 353//239
f 351//78 343//78 347//78
f 362//229 363//239 361//230
f 392//236 393//236 391//236
f 414//234 415//230 413//234
f 364//239 365//235 363//239
f 410//6 411//233 409//6
f 366//240 367//54 365//235
f 368//54 369//241 367//54
f 390//235 391//235 389//235
f 370//236 371//238 369//241
f 372//238 373//44 371//238
f 398//234 399//234 397//234
f 374//5 375//232 373//44
f 376//78 368//78 360//78
f 376//232 377//237 375//232
f 394//4 395//4 393//4
f 388//97 389//97 387//97
f 378//242 355//6 377//237
f 365//29 373//29 357//29
f 396//237 385//237 395//237
f 394//78 390//78 386//78
f 404//238 405//238 403//238
f 405//78 397//78 401//78
f 406//54 407//54 405//54
f 408//239 397//239 407//239
f 404//29 400//29 408//29
f 416//229 417//239 415//230
f 418//239 419//235 417//239
f 420//240 421//54 419//235
f 422//54 423//241 421//54
f 424//236 425//238 423//241
f 426//238 427//44 425//238
f 428//5 429//232 427//44
f 430//78 422//78 414//78
f 430//232 431//237 429//232
f 432//242 409//6 431//237
f 419//29 427//29 411//29
f 385//29 387//29 389//29
f 389//29 391//29 393//29
f 393//29 395//29 385//29
f 332//231 334//231 333//231
f 402//232 404//232 403//232
f 334//97 336//97 335//97
f 356//6 358//231 357//233
f 343//234 344//234 346//234
f 336//235 338//235 337//235
f 386//231 388//231 387//231
f 400//6 402//6 401//6
f 338//236 340//236 339//236
f 336//78 334//78 332//78
f 332//78 342//78 340//78
f 340//78 338//78 336//78
f 340//4 342//4 341//4
f 348//232 350//232 349//232
f 346//6 348//6 347//6
f 342//237 332//237 331//237
f 341//29 331//29 333//29
f 333//29 335//29 337//29
f 337//29 339//29 341//29
f 350//238 352//238 351//238
f 350//29 348//29 346//29
f 346//29 344//29 354//29
f 354//29 352//29 350//29
f 412//231 414//234 413//234
f 352//54 354//54 353//54
f 360//234 362//229 361//230
f 358//231 360//234 359//234
f 354//239 344//239 343//239
f 347//78 349//78 351//78
f 351//78 353//78 343//78
f 343//78 345//78 347//78
f 362//229 364//239 363//239
f 392//236 394//236 393//236
f 414//234 416//229 415//230
f 364//239 366//240 365//235
f 410//6 412//231 411//233
f 366//240 368//54 367//54
f 368//54 370//236 369//241
f 390//235 392//235 391//235
f 370//236 372//238 371//238
f 372//238 374//5 373//44
f 398//234 400//234 399//234
f 374//5 376//232 375//232
f 360//78 358//78 356//78
f 356//78 378//78 376//78
f 376//78 374//78 372//78
f 372//78 370//78 368//78
f 368//78 366//78 364//78
f 364//78 362//78 360//78
f 360//78 356//78 376//78
f 376//78 372//78 368//78
f 368//78 364//78 360//78
f 376//232 378//242 377//237
f 394//4 396//4 395//4
f 388//97 390//97 389//97
f 378//242 356//6 355//6
f 357//29 359//29 361//29
f 361//29 363//29 365//29
f 365//29 367//29 369//29
f 369//29 371//29 373//29
f 373//29 375//29 377//29
f 377//29 355//29 357//29
f 357//29 361//29 365//29
f 365//29 369//29 373//29
f 373//29 377//29 357//29
f 396//237 386//237 385//237
f 386//78 396//78 394//78
f 394//78 392//78 390//78
f 390//78 388//78 386//78
f 404//238 406//238 405//238
f 401//78 403//78 405//78
f 405//78 407//78 397//78
f 397//78 399//78 401//78
f 406//54 408//54 407//54
f 408//239 398//239 397//239
f 408//29 406//29 404//29
f 404//29 402//29 400//29
f 400//29 398//29 408//29
f 416//229 418//239 417//239
f 418//239 420//240 419//235
f 420//240 422//54 421//54
f 422//54 424//236 423//241
f 424//236 426//238 425//238
f 426//238 428//5 427//44
f 428//5 430//232 429//232
f 414//78 412//78 410//78
f 410//78 432//78 430//78
f 430//78 428//78 426//78
f 426//78 424//78 422//78
f 422//78 420//78 418//78
f 418//78 416//78 414//78
f 414//78 410//78 430//78
f 430//78 426//78 422//78
f 422//78 418//78 414//78
f 430//232 432//242 431//237
f 432//242 410//6 409//6
f 411//29 413//29 415//29
f 415//29 417//29 419//29
f 419//29 421//29 423//29
f 423//29 425//29 427//29
f 427//29 429//29 431//29
f 431//29 409//29 411//29
f 411//29 415//29 419//29
f 419//29 423//29 427//29
f 427//29 431//29 411//29
